<svg width="25" height="25" viewBox="0 0 25 25" fill="none" xmlns="http://www.w3.org/2000/svg">
    <path d="M12.686 0.909302C6.05604 0.909302 0.686035 6.2823 0.686035 12.9093C0.686035 18.2123 4.12403 22.7093 8.89104 24.2943C9.49104 24.4073 9.71103 24.0363 9.71103 23.7173C9.71103 23.4323 9.70104 22.6773 9.69604 21.6773C6.35804 22.4013 5.65404 20.0673 5.65404 20.0673C5.10804 18.6823 4.31904 18.3123 4.31904 18.3123C3.23204 17.5683 4.40304 17.5833 4.40304 17.5833C5.60804 17.6673 6.24103 18.8193 6.24103 18.8193C7.31104 20.6543 9.05004 20.1243 9.73604 19.8173C9.84404 19.0413 10.153 18.5123 10.496 18.2123C7.83104 17.9123 5.03004 16.8803 5.03004 12.2823C5.03004 10.9723 5.49504 9.9023 6.26504 9.0623C6.13003 8.7593 5.72504 7.5393 6.37004 5.8863C6.37004 5.8863 7.37504 5.5643 9.67004 7.1163C10.63 6.8493 11.65 6.7173 12.67 6.7113C13.69 6.7173 14.71 6.8493 15.67 7.1163C17.95 5.5643 18.955 5.8863 18.955 5.8863C19.6 7.5393 19.195 8.7593 19.075 9.0623C19.84 9.9023 20.305 10.9723 20.305 12.2823C20.305 16.8923 17.5 17.9073 14.83 18.2023C15.25 18.5623 15.64 19.2983 15.64 20.4223C15.64 22.0283 15.625 23.3183 15.625 23.7083C15.625 24.0233 15.835 24.3983 16.45 24.2783C21.251 22.7043 24.686 18.2043 24.686 12.9093C24.686 6.2823 19.313 0.909302 12.686 0.909302Z" fill="#691808"/>
</svg>