<svg version="1.1" aria-hidden="true" xmlns="http://www.w3.org/2000/svg"
    xmlns:xlink="http://www.w3.org/1999/xlink" x="0px" y="0px" width="24px" height="24px" viewBox="0 0 24 24"
    style="enable-background:new 0 0 24 24;" xml:space="preserve">
    <path d="M16.4,1.5H7.7c-3.4,0-6.2,2.7-6.2,6.2v8.8c0,3.4,2.8,6.1,6.2,6.1h8.8c3.4,0,6.1-2.8,6.1-6.1V7.6C22.5,4.2,19.8,1.5,16.4,1.5
z M20.4,16.4c0,2.2-1.8,4.1-4.1,4.1H7.6c-2.2,0-4.1-1.8-4.1-4V7.7c0-2.2,1.8-4.1,4.1-4.1h8.8c2.2,0,4,1.8,4,4.1L20.4,16.4L20.4,16.4
z" />
    <path d="M12,7.1c-2.7,0-4.9,2.2-4.9,4.9s2.2,4.9,4.9,4.9s4.9-2.2,4.9-4.9S14.7,7.1,12,7.1z M12,14.9c-1.6,0-2.9-1.3-2.9-2.9
s1.3-2.9,2.9-2.9s2.9,1.3,2.9,2.9S13.6,14.9,12,14.9z" />
    <path d="M18.5,6.9c0,0.7-0.6,1.3-1.3,1.3S16,7.6,16,6.9s0.6-1.3,1.3-1.3S18.5,6.2,18.5,6.9z" />
</svg>