<svg version="1.1" aria-hidden="true" xmlns="http://www.w3.org/2000/svg"
    xmlns:xlink="http://www.w3.org/1999/xlink" x="0px" y="0px" width="24px" height="24px" viewBox="0 0 24 24"
    style="enable-background:new 0 0 24 24;" xml:space="preserve">
    <path
    d="M21.2,8c0,0.2,0,0.4,0,0.6c0,6-4.6,12.9-12.9,12.9c-2.6,0-4.9-0.7-7-2c0.3,0,0.7,0.1,1,0.1c2.2,0,4.1-0.7,5.7-1.9
c-2,0-3.6-1.4-4.2-3.1c0.3,0.1,0.6,0.1,0.9,0.1c0.4,0,0.9-0.1,1.2-0.1c-2-0.4-3.6-2.2-3.6-4.5c0,0,0,0,0-0.1c0.6,0.3,1.3,0.6,2,0.6
c-1.2-0.9-2-2.2-2-3.8c0-0.9,0.2-1.6,0.6-2.2c2.2,2.8,5.5,4.6,9.3,4.7C12,9,12,8.6,12,8.2c0-2.5,2-4.5,4.5-4.5
c1.3,0,2.5,0.6,3.3,1.4c1-0.2,2-0.6,2.9-1c-0.2,1.1-1,1.9-2,2.5c1-0.1,1.8-0.3,2.6-0.7C22.9,6.5,22.2,7.4,21.2,8L21.2,8z" />
</svg>