<svg width="23" height="17" viewBox="0 0 23 17" fill="none" xmlns="http://www.w3.org/2000/svg">
    <path d="M22.555 4.02382C22.555 4.02382 22.3 2.40982 21.705 1.81482C20.855 0.964817 19.92 0.964817 19.496 0.879817C16.267 0.624817 11.593 0.624817 11.593 0.624817C11.593 0.624817 6.91901 0.624817 3.69001 0.879817C3.26501 0.879817 2.33001 0.879817 1.48101 1.81482C0.801007 2.49482 0.631007 4.02382 0.631007 4.02382C0.631007 4.02382 0.376007 5.97782 0.376007 7.76282V9.46182C0.376007 11.4158 0.631007 13.2008 0.631007 13.2008C0.631007 13.2008 0.886007 14.8148 1.48101 15.4098C2.33101 16.2598 3.43501 16.2598 3.94501 16.3448C5.73001 16.4298 11.593 16.5998 11.593 16.5998C11.593 16.5998 16.267 16.5998 19.496 16.3448C19.921 16.3448 20.856 16.3448 21.705 15.4098C22.385 14.7298 22.555 13.2008 22.555 13.2008C22.555 13.2008 22.81 11.4158 22.81 9.46182V7.76282C22.81 5.80882 22.555 4.02382 22.555 4.02382ZM8.27901 13.2858V4.02382L17.031 8.61282L8.27901 13.2868V13.2858Z" fill="#691808"/>
</svg>