<?xml version="1.0" encoding="utf-8"?>
<svg xmlns="http://www.w3.org/2000/svg">
<symbol id="accessibility" viewBox="0 0 1025 1024"><path d="M417.508 368.833c-47.518-6.529-93.586-13.058-139.29-19.225-10.882-1.451-21.764-2.539-32.283-4.716-17.774-3.627-26.48-14.872-25.754-32.283.725-16.323 10.157-27.568 27.568-29.382 12.696-1.088 25.754 0 38.45 1.451 127.683 16.686 256.091 11.608 384.136 5.804 29.744-1.451 59.126-5.441 88.87-7.98 4.716-.363 9.431-.725 14.147-.725 18.137.725 30.107 11.608 31.195 28.293 1.451 18.862-8.343 31.558-27.205 34.46-24.303 3.627-48.969 6.529-73.272 9.431-37.362 4.716-75.086 9.431-112.81 14.509v31.921c0 36.273-.363 72.91-.363 109.183s6.892 71.096 17.774 105.919c23.215 73.635 44.979 147.996 66.743 221.994 2.539 8.343 3.265 17.774 2.539 26.48-1.451 24.666-28.293 37.724-47.518 22.49-8.343-6.529-16.323-16.323-19.95-26.48-28.656-81.615-56.587-163.956-84.154-245.934-2.539-7.617-5.078-14.872-14.509-16.323-13.058-2.539-19.588 1.814-23.94 15.96-25.391 83.792-50.783 167.221-76.537 251.012-6.529 21.764-34.097 34.46-55.136 25.754-14.509-6.166-20.313-21.401-15.235-42.077 5.441-22.127 10.519-43.891 16.686-66.018 13.421-48.244 27.205-96.125 40.989-144.006 19.588-67.831 20.313-137.114 19.588-207.122-.725-20.676-.725-41.352-.725-62.39zM567.68 206.328c0 34.823-27.931 63.116-62.39 62.753-33.372-.363-62.028-29.019-62.028-62.39 0-33.734 27.931-61.302 62.39-61.302 34.823 0 61.665 26.48 62.028 60.939zM512.181 80.096c121.153 0 235.052 47.156 320.657 132.761s132.761 199.504 132.761 320.657-47.156 235.052-132.761 320.657-199.504 132.761-320.657 132.761-235.052-47.156-320.657-132.761S58.763 654.667 58.763 533.514s47.156-235.052 132.761-320.657S391.028 80.096 512.181 80.096zm0-49.695c-277.855 0-502.75 225.258-502.75 503.113s225.258 503.113 503.113 503.113 503.113-225.258 503.113-503.113S790.036 30.401 512.181 30.401z"/>
</symbol></svg>