<svg xmlns="http://www.w3.org/2000/svg" viewBox="0 0 1024 1024"><path d="M404.622 690.844h-91.733V130.488h53.333c18.844 0 34.133-15.289 34.133-34.133s-15.289-34.133-34.133-34.133H191.289c-18.844 0-34.133 15.289-34.133 34.133s15.289 34.133 34.133 34.133h53.333v560.356H142.933c-14.933 0-27.378 12.444-27.378 27.378v153.244c0 112.711 104.889 144 158.222 144s158.222-49.067 158.222-147.556V718.577c-.356-15.289-12.444-27.733-27.378-27.733zM874.311 52.622c-18.844 0-34.133 15.289-34.133 34.133v166.756c0 59.378-24.889 93.156-75.733 102.756V85.334c0-18.844-15.289-34.133-34.133-34.133s-34.133 15.289-34.133 34.133v272.711c-55.822-7.822-82.844-42.311-82.844-104.178V86.756c0-18.844-15.289-34.133-34.133-34.133s-34.133 15.289-34.133 34.133v166.756c0 90.667 44.089 132.978 80.711 152.533 24.889 13.156 50.844 18.489 70.4 20.267v520.889h-53.333c-18.844 0-34.133 15.289-34.133 34.133s15.289 34.133 34.133 34.133H817.78c18.844 0 34.133-15.289 34.133-34.133s-15.289-34.133-34.133-34.133h-53.333v-521.6c18.489-2.489 41.244-7.822 63.289-19.556 36.978-19.556 80.711-61.867 80.711-152.533V86.756c0-18.844-15.289-34.133-34.133-34.133z"/></svg>