<svg xmlns="http://www.w3.org/2000/svg" viewBox="0 0 1024 1024"><path d="M913.8 478.133s76.4-142.4-47.6-222.4c-102.8-66.4-195 13.2-195 13.2s-76-153.6-209-151.2c-133.2 2.4-245 58.4-287.8 224.8 0 0-149.8 9.6-166.4 147.4s80.8 183 206.8 197.4c4.4.6 9.2 1 14.2 1.4v-1.2c0-150.4 121.8-272.2 272.2-272.2s272.2 121.8 272.2 272.2c0 12.8-1 25.4-2.6 37.8h93c90.4 0 139.6-46.2 152.2-109.4 14.2-72-50-135.4-102.2-137.8zm-411.8 23.8c-108.8 0-197 88.2-197 197 0 60.2 27.2 114.2 69.8 150.4-.2 1.2-.2 2.6-.2 3.8v76c0 16 13.2 19.6 29.2 19.6s29.2-3.6 29.2-19.6v-76-1.8h40.4v77.8c0 16 13.2 19.6 29.2 19.6s29.2-3.6 29.2-19.6v-76-1.8h38.4v77.8c0 16 13.2 19.6 29.2 19.6s29.2-3.6 29.2-19.6v-76c0-.8 0-1.6-.2-2.4 43.6-36.2 71.6-90.8 71.6-151.8-1-108.8-89.2-197-198-197zm-76.2 268.6c-28.6 0-51.8-23.2-51.8-51.8s23.2-51.8 51.8-51.8c28.6 0 51.8 23.2 51.8 51.8-.2 28.6-23.2 51.8-51.8 51.8zm150.8 0c-28.6 0-51.8-23.2-51.8-51.8s23.2-51.8 51.8-51.8c28.6 0 51.8 23.2 51.8 51.8-.2 28.6-23.4 51.8-51.8 51.8z"/></svg>