<svg xmlns="http://www.w3.org/2000/svg" viewBox="0 0 1024 1024"><path d="M217.2 978.733v-215.6c-43.6 21.8-85.8 42.8-129.6 64.6-23.2 9-43.2 1.6-50.2-12.4-10.2-20.4-3-42.6 16.6-54.4 8.8-4.4 17-8.6 25-12.8 43.2-21.4 86.2-43 129.6-64.2 6.6-3.2 8.8-6.8 8.8-14-.4-30-.2-60.2-.2-92.4-43.4 21.6-85.8 42.8-129.6 64.6-22.8 11-41.8 1.4-51.2-14.6-6.6-11-8-37 17.6-52.2 4.2-2.2 7.8-4.2 11.6-6 47.2-23.4 94.6-47 142-70.4 7-3.4 10.2-7.2 10-15.6-.6-29.6-.2-59.4-.2-91.2-43.8 21.8-86.2 43-129.6 64.6-26.2 10.2-40.8 3.2-51.2-14.2-11.8-19.6-4-39.6 17.6-52.6 4.2-2.2 7.8-4.2 11.4-6 47-23.4 93.8-46.8 141-69.8 7.8-3.8 11.2-7.8 11.2-17.2-.6-63-.2-125.8-.4-188.8v-18h593v215.8c44-22 86.2-43 129.8-64.6 18-6.8 39.2-3.2 48.6 14.4 12.6 24 0 43-15 52.6-11.4 5.8-22.2 11-32.8 16.4-42.2 21-83.8 42.6-126.4 62.6-100.2 46.8-201 46.8-302 1.4-41.8-18.8-83.8-38-131-38.4-17-.2-33.8 0-51.8 0v-72c25.2 0 50.6-1.4 75.8.2 50.6 3.2 96.2 24 141.8 43.8 59.2 25.8 130.4 31.2 188.4 13.6v-171.4H292.4v739.6h443.4v-119.2c-56.6 11-112.8 11-167.8-5.4-27.6-8.2-54.8-18.6-80.8-31-46.2-22.2-94-31.2-144.8-26.8-4.2.4-8.2 0-13 0v-72.8c25.6 0 51-1.4 76.2.2 49 3.2 93.4 22.6 137.6 42 84.4 36.8 167.8 35.2 250.2-5.8 46-22.8 91.8-45.8 137.6-68.6 2.8-1.4 5.4-2.6 9.4-4.4 23.4-9.4 45.6-7.2 55.6 12.6 11.4 22.8-1.8 40.6-22 54.2-27.8 13.8-54.6 27.2-81.6 40.6-23.8 11.8-47.6 24-71.6 35.2-7.6 3.6-10.4 7.8-10.4 16.4.4 61 .2 122 .2 183v24c-197.8.4-394.8.4-593.4.4zm111.8-440.6v-73.2c2.8-.6 5.8-1.4 8.6-1.6 61.6-4.6 120.6 5.6 176.8 31.4 46.6 21.2 94.2 38.4 146.6 38 46-.4 89.4-10.6 130.4-31 46.2-23.2 92.4-46.2 138.6-69.4 3-1.6 6.2-2.8 10.2-4.6 19-8.6 42-6.8 52.6 13.6 10.6 20.2-1.2 41.6-19.6 52.2-2 1.4-3.2 2.8-4.8 3.6-53.8 26.6-107 55-161.8 79.6-97.2 43.8-195 42-292.6-1-35.2-15.6-69.8-34-109-36.8-24.8-2.2-50-.8-76-.8z"/></svg>