<svg xmlns="http://www.w3.org/2000/svg" viewBox="0 0 1024 1024"><path d="M575.8 637.933c-40.8-14.2-85-13-127.8-11.8-11.8.2-22.8.6-33.8.6h-336c-22 0-40 18-40 40s18 40 40 40h336c12.2 0 24.2-.2 36-.6 85.2-2.4 130.8-.4 153.6 68.8 10 30.4 3.4 80-42.4 95.2-26.6 8.8-54.4 7.4-67.6-3.4-8.4-6.8-13.4-22.2-10-31.6 3-8.6 16.4-10.4 27-10.4 22 0 40-18 40-40s-18-40-40-40c-50 0-88.2 23.8-102.4 63.6-14.8 41.4 0 92 35 120.4 24.2 19.4 54.2 26.8 83.4 26.8 21.4 0 42.2-4 59.6-9.6 89-29.4 117.4-122.8 93.2-196-18.8-57-53.6-94.8-103.8-112zm-497.6-204.2H382c39 0 78.6-1.2 114.6-12 50.4-15.2 85-47 106.2-97 27-63.8 4-127.4-3.8-145.4-16.4-38-57-68.6-103.6-77.8-42-8.4-81.2 1.6-107.8 27.6-22.6 22-35 52.4-34.4 83.4.6 28.6 12.4 54.6 33 73 16.4 14.6 41.6 13.2 56.4-3.2 14.6-16.4 13.2-41.6-3.2-56.4-5.2-4.6-6.4-10.8-6.4-15.2-.2-8.8 3.6-18 10.2-24.4 7.2-7.2 20.8-9.6 36.2-6.6 20.6 4.2 37.2 18.6 45.8 31 14.8 21.2 15.2 55 3.6 82.6-24.6 58.2-72.2 60.8-161.2 60.4H78.2c-22 0-40 18-40 40s18 40 40 40zm839.8-203.8c-40-32.8-99-43.6-148.8-29.4-61.8 17.6-100.2 61.2-102.8 116.8-2 40.8 12.2 74.6 40.2 95.6 26.6 20 62.2 25.6 95.6 15 21.4-6.8 33.2-29.4 26.4-50.4-7-21-30-32.6-51.4-25.8-7.6 2.4-16 1.4-21-2.4-8.2-6.2-8.8-20.4-8.4-28.4 1.4-26.2 24.6-38.2 44-43.8 23.4-6.8 47-1.8 66 13.8 25.8 21.2 37.8 57 33.2 98.4-2.6 24.6-10.8 99.8-155 99.8H83.4c-22.4 0-40.8 18-40.8 40s18.4 40 40.8 40h652.8c67 0 128.8-13.8 168.6-40.8 43.2-29.4 69.2-74.4 75.2-130.2 7.6-68.4-15.2-129.6-62-168.2z"/></svg>