<svg xmlns="http://www.w3.org/2000/svg" viewBox="0 0 1024 1024"><path d="M758.4 139.733H265.6c-60.8 0-80 38.4-80 83.2v624c0 57.6 25.6 83.2 83.2 83.2H768c44.8 0 73.6-16 73.6-83.2v-624c-3.2-60.8-28.8-83.2-83.2-83.2zm0 704H265.6v-620.8h492.8v620.8zM128 206.933c-12.8 0-25.6 9.6-25.6 25.6v608c0 12.8 9.6 25.6 25.6 25.6 12.8 0 25.6-9.6 25.6-25.6v-608c-3.2-16-12.8-25.6-25.6-25.6zm-83.2 64c-12.8 0-25.6 12.8-25.6 25.6v476.8c0 12.8 9.6 25.6 25.6 25.6 12.8 0 25.6-9.6 25.6-25.6v-476.8c0-12.8-12.8-25.6-25.6-25.6zm851.2-64c-12.8 0-25.6 9.6-25.6 25.6v608c0 12.8 9.6 25.6 25.6 25.6 12.8 0 25.6-9.6 25.6-25.6v-608c0-16-9.6-25.6-25.6-25.6zm83.2 64c-12.8 0-25.6 9.6-25.6 25.6v476.8c0 12.8 9.6 25.6 25.6 25.6 12.8 0 25.6-9.6 25.6-25.6v-476.8c0-12.8-12.8-25.6-25.6-25.6z"/></svg>