<!-- Generated by IcoMoon.io -->
<svg version="1.1" xmlns="http://www.w3.org/2000/svg" width="24" height="24" viewBox="0 0 24 24">
<title>albums</title>
<path d="M17.775 2.775c-1.35 0-10.125 0-11.55 0s-1.875 0.9-1.875 1.95c0 1.050 0 13.275 0 14.625s0.6 1.95 1.95 1.95 10.65 0 11.7 0c1.050 0 1.725-0.375 1.725-1.95 0-1.5 0-13.2 0-14.625-0.075-1.425-0.675-1.95-1.95-1.95zM17.775 19.275h-11.55v-14.55h11.55v14.55z"></path>
<path d="M3 4.35v0c-0.3 0-0.6 0.225-0.6 0.6v14.25c0 0.3 0.225 0.6 0.6 0.6v0c0.3 0 0.6-0.225 0.6-0.6v-14.25c-0.075-0.375-0.3-0.6-0.6-0.6z"></path>
<path d="M1.050 5.85v0c-0.3 0-0.6 0.3-0.6 0.6v11.175c0 0.3 0.225 0.6 0.6 0.6v0c0.3 0 0.6-0.225 0.6-0.6v-11.175c0-0.3-0.3-0.6-0.6-0.6z"></path>
<path d="M21 4.35v0c-0.3 0-0.6 0.225-0.6 0.6v14.25c0 0.3 0.225 0.6 0.6 0.6v0c0.3 0 0.6-0.225 0.6-0.6v-14.25c0-0.375-0.225-0.6-0.6-0.6z"></path>
<path d="M22.95 5.85v0c-0.3 0-0.6 0.225-0.6 0.6v11.175c0 0.3 0.225 0.6 0.6 0.6v0c0.3 0 0.6-0.225 0.6-0.6v-11.175c0-0.3-0.3-0.6-0.6-0.6z"></path>
</svg>
