<svg xmlns="http://www.w3.org/2000/svg" viewBox="0 0 1024 1024"><path d="M1024.711 229.333v-59.378c0-23.111-18.844-41.956-41.956-41.956H41.244c-23.111 0-41.956 18.844-41.956 41.956v59.733c-.356 2.133-.711 4.622-.711 7.111v598.044c0 2.489.356 4.622.711 7.111v55.467c0 23.111 18.844 41.956 41.956 41.956h941.511c23.111 0 41.956-18.844 41.956-41.956v-55.467c.356-2.133.711-4.622.711-7.111v-598.4c0-2.489-.356-4.978-.711-7.111zM683.378 357.689s.356 0 .356-.356c1.422-4.622 1.422-4.622 6.4-4.622h52.978c2.133 0 2.844.356 3.556 2.489l17.067 53.333 1.067 2.133V352.71h55.822c2.133 0 3.2.356 4.267 2.489 4.622 8.533 9.6 16.711 14.578 24.889.356.711 1.067 1.067 1.778 2.133v-29.156h66.489v163.911h-56.177c-2.133 0-3.556-.356-4.622-2.489-4.622-8.178-9.6-16-14.222-23.822-.356-.356-.356-.711-1.067-1.778v28.089H727.47c-1.067-4.622-2.489-9.244-3.556-14.222-.356-1.778-1.067-2.133-2.844-2.133h-14.222c-1.422 5.333-2.844 10.667-4.267 17.067H689.07c-10.311.356-20.978.711-31.289 1.422-15.289 1.067-30.578-.356-44.8-6.4-5.333-2.489-10.311-6.044-15.644-9.244v13.511H486.759c-2.489-14.933-2.133-30.222-7.822-44.444h-1.067v44.444H135.825c-2.844 0-3.911-1.067-4.622-3.556-.711-3.556-2.133-7.111-2.844-10.667-.356-1.778-1.422-2.133-2.844-2.133h-13.511c-1.422 4.622-2.844 9.6-3.911 14.222-.356 1.422-1.067 2.133-2.844 2.133H43.382v-13.511c0-3.911.711-7.467 1.778-11.022 7.111-22.044 14.222-44.089 21.333-65.778l13.867-42.667c3.2-9.6 6.4-19.2 9.244-28.8.711-1.778 1.422-2.133 2.844-2.133h56.178c1.778 0 2.133.711 2.844 2.133 3.2 9.956 6.4 19.556 9.956 29.511V353.42h72.533c3.2 11.733 6.044 23.467 9.6 36.622a607.315 607.315 0 0 0 2.489-8.533c2.133-8.533 4.267-17.067 6.4-25.956.356-1.422 1.067-2.489 2.844-2.133h234.311c13.156 0 25.956 2.133 37.333 9.6.356.356.711.356 1.422.711v-9.956h68.978v14.578c26.667-23.111 55.822-22.044 86.044-10.667zm294.755 310.044c-1.778 13.867-8.533 24.889-13.867 32.356-6.756 9.6-17.067 14.578-28.089 16.711-7.467 1.778-15.289 2.133-23.111 2.133-14.222-.356-28.444-2.489-40.889-9.956-4.978-2.844-9.6-6.756-14.222-10.311-20.978 24.178-63.644 26.311-92.089 9.956l-.356.356c-.356 6.044-.356 6.044-6.4 6.044h-160c-2.844 0-4.267-.356-4.622-3.556-1.067-7.822-3.556-15.644-4.622-23.822-.711-4.622.356-9.244.356-13.867 0-3.2-1.422-4.267-4.267-4.267v45.156h-67.556v-49.067c-6.044 2.133-12.089 4.978-18.133 6.044-7.111 1.422-14.578 2.133-22.044 2.489-3.2.356-3.911 1.067-3.911 3.911v36.623H392.533c-2.844 0-4.267-.711-5.333-3.2-2.489-5.333-5.333-10.311-7.822-16-2.133 3.556-4.267 7.111-5.689 10.667-2.489 6.4-6.044 8.533-13.511 8.533-41.956-.356-84.267-.356-126.222-.356h-4.267v-3.556-157.156c0-3.2.711-3.911 3.911-3.911h135.822c2.844 0 4.267.711 5.333 3.2 1.778 4.267 3.911 8.178 6.044 12.8 2.133-4.267 4.267-7.822 6.044-11.733 1.422-3.2 3.2-4.622 7.111-4.622 23.111.356 46.222 0 69.333 0 7.467 0 14.933 0 22.4.711 10.667 1.067 21.333 2.844 30.933 8.889.356 0 .711 0 1.067.356v-9.956h71.467c4.978 0 9.956 0 14.578.711 10.667 1.422 21.333 3.2 30.578 9.244h1.067c0-2.133-.356-4.267-.356-6.4s.356-3.911 3.556-3.911h118.756c2.844 0 3.911 1.067 3.556 3.911v3.911c34.133-16 66.133-16.711 95.289 11.022 4.978-6.756 12.089-11.733 19.911-15.289 6.4-2.844 12.8-4.622 19.556-5.333 7.111-.356 14.578-1.067 21.689-.711 13.511.711 26.311 3.911 37.333 12.089 5.333 4.267 9.956 9.244 13.156 15.644 4.267 7.111 6.044 14.578 5.333 23.111-.356 4.978 0 10.311 0 15.644h-25.244c3.911 2.489 7.111 4.267 10.311 6.4 6.756 4.267 11.378 10.311 14.222 17.778 1.422 3.2 7.822 14.222 5.689 30.578zM243.556 450.844h-.711c-6.756-27.022-13.867-54.044-20.622-80.711h-46.222v110.578h-.711l-11.733-36.267c-7.822-24.178-15.644-48-23.467-72.178-.356-1.422-.711-2.489-2.489-2.489h-34.844c-.711 0-2.133 1.067-2.489 1.778-2.489 6.756-4.622 13.511-6.756 20.622-4.267 12.8-8.178 25.956-12.444 38.756-5.333 17.067-11.022 33.778-16.711 50.844-1.778 6.044-3.911 12.089-5.689 18.133h36.978c1.778-5.689 3.2-11.378 4.978-17.067h36.622c.711 0 1.778 1.067 2.133 1.778 1.067 3.911 2.489 8.178 3.2 12.444.356 2.489 1.422 2.844 3.911 2.844h64.356v-71.822h.711c6.044 24.178 12.444 48 18.489 72.178h26.667c6.4-24.178 12.8-48.356 19.2-72.178h.711v71.822h33.778V369.776h-45.867c-7.111 27.022-13.867 54.044-20.978 81.067zm-136.178 5.689c3.911-15.644 7.822-31.644 11.733-47.289h.711c4.267 15.644 8.178 31.289 12.444 47.289h-24.889zm478.933-13.867c1.067 11.378 4.267 22.4 9.6 32.356 5.333 10.311 12.8 18.489 24.178 22.044 6.044 1.778 12.444 3.2 18.844 4.267 4.267.711 8.889.711 13.156.711 7.111-.356 13.867-.711 20.978-1.067 6.044-.356 12.089-.711 18.133-.711 1.067-4.978 2.133-9.956 3.556-14.933.356-.711 1.422-1.778 2.133-1.778H732.8c.711 0 2.133.711 2.133 1.422 1.067 4.267 2.489 8.533 3.2 12.8.356 2.489 1.422 2.489 3.2 2.489h32.711c.711 0 1.422 0 2.133-.356v-1.422c-5.333-16.356-10.311-32.711-15.644-48.711-3.2-9.6-6.4-19.556-9.6-29.156-4.978-16-10.311-32.356-15.289-48.356-.711-2.133-1.422-2.489-3.556-2.489h-27.733c-8.889 0-8.889 0-11.733 8.533-5.689 17.422-11.022 34.844-16.711 52.267-4.267 12.8-8.178 25.6-12.444 38.4-.356 1.067-1.422 2.133-2.489 2.133-6.044-.356-11.733-.356-17.778-1.422-5.689-.711-10.311-3.556-13.867-8.178s-4.622-9.956-5.333-15.644c-1.067-11.378-1.067-22.4 2.844-33.067 2.489-6.4 6.044-12.444 13.867-13.511 4.978-.711 10.311-.356 15.289-.356s9.244 1.778 13.511 4.267c3.911-9.6 7.467-18.844 11.378-28.444-9.244-3.911-18.844-6.4-28.8-7.822-9.6-1.067-19.2-.356-28.089 2.844-13.156 4.978-23.111 14.222-29.867 26.667-6.756 14.578-9.244 29.867-7.822 46.222zm128.711-33.777h.711c4.267 15.644 8.178 31.644 12.444 47.644h-25.6c3.911-16 8.178-32 12.444-47.644zm101.334 22.755c.711.356 1.067.356 1.067.711 3.2 5.689 6.4 11.022 9.6 16.711 9.6 16.356 18.844 33.067 28.444 49.422.356.711 1.422 1.778 2.489 1.778H892.8V370.133h-35.911v69.689l-1.778-1.778c-3.911-6.756-7.822-13.511-11.378-20.267-8.533-15.289-17.422-30.222-25.956-45.511-1.067-1.422-2.133-2.489-4.267-2.489-4.267.356-8.533 0-12.8 0h-20.267V499.91h35.911v-68.267zm-283.378 58.667c-.711-3.2-.711-6.756-.711-9.956 0-5.689.711-11.378.356-17.067 0-6.044-2.133-11.378-6.4-15.289-3.911-3.556-8.178-6.4-11.378-9.244 3.556-2.489 8.178-4.622 11.022-8.178 8.178-9.6 8.889-21.333 6.756-33.067-2.133-12.089-10.311-19.2-21.333-23.467-11.378-4.622-23.467-5.689-35.556-6.044-6.4-.356-13.156.356-19.556.356-8.178.356-16.711.356-24.889.711-1.778 0-3.556.356-5.333.711V499.91h36.622v-45.511H476.8c1.778 0 3.2.356 4.978.711 6.756 1.422 12.089 4.978 13.156 12.444.711 6.4 1.422 12.8 1.778 19.2.356 4.267.356 8.889.711 13.156.356 0 .711.356.711.356h37.333c.711 0 1.778-.711 1.778-1.067 0-1.067-.356-2.489-1.067-3.556-.711-1.778-2.844-3.2-3.2-5.333zM488.889 425.6c-3.2 1.067-6.4 1.067-9.6 1.422-5.333.356-10.667 0-16 0-.356 0-.356 0-.711-.356v-25.6c8.889-.711 17.778-1.778 26.311.711 5.689 1.778 8.533 5.689 8.889 11.022.356 6.044-3.2 11.022-8.889 12.8zm-69.333 45.866c0-.711 0-1.422-.356-2.489h-60.8v-21.333h49.778V419.2H358.4V400h57.956v-29.867h-94.578v127.289c0 2.489 1.067 2.844 3.2 2.844h92.089c2.489 0 3.2-1.067 2.844-3.2-.711-8.533-.356-17.067-.356-25.6zm124.088 28.445h37.689V369.778h-37.689v130.133zm-32 77.866c-10.311-6.756-22.044-8.889-34.133-8.889-25.6-.356-51.556 0-77.156 0-2.133 0-2.844.711-3.911 2.489a557.315 557.315 0 0 1-10.311 20.622c-1.778 3.2-3.556 6.756-5.333 10.311-.711-1.422-1.067-2.133-1.778-3.2-4.622-8.889-8.889-17.778-13.156-26.667-1.067-2.489-2.489-3.556-5.689-3.556H250.31c-5.333 0-5.333 0-5.333 5.333v124.089h113.778c1.067 0 2.133-1.067 2.489-1.778 5.689-10.667 11.022-21.333 16.711-32 .356-.711.711-1.067 1.422-2.133 1.422 2.489 2.844 4.622 3.911 7.111 4.622 8.889 9.244 17.778 13.511 26.667.711 1.422 1.778 2.133 3.556 2.133h57.956v-40.178c4.622-.356 9.244-1.067 13.511-.711 9.244 0 18.844-.711 27.733-3.2 8.533-2.489 16-6.756 21.333-14.222 4.622-6.756 6.756-14.578 6.756-22.4 0-5.689 0-11.733-1.422-17.422-1.067-9.6-6.4-17.067-14.578-22.4zm-153.6 55.112c-6.756 11.022-13.511 21.689-20.622 32.356-.711 1.067-2.133 2.133-3.2 2.133h-51.911v-19.911h45.867c2.844 0 3.556-.711 3.556-3.556V617.6h-49.067v-19.2h54.756c2.133 0 3.2.711 4.267 2.844l13.867 23.467c1.067 1.778 2.489 3.556 3.2 5.333 0 .711-.356 1.778-.711 2.844zm63.645 31.644c-2.133-3.911-4.267-6.756-6.044-9.956-4.267-7.111-8.533-14.578-12.8-22.044-.356-.711-.711-2.133 0-2.844 6.044-9.6 12.089-19.556 18.133-29.156h.711v64zm70.044-49.067c-1.422 7.111-4.978 10.667-11.733 11.378-6.4.711-12.444.711-18.844.711-.711 0-2.133-1.422-2.133-2.133v-26.311c8.178.711 16 .711 23.467 2.133 6.756.711 10.667 7.467 9.244 14.222zm150.045 76.089c-.711-3.2-1.067-6.756-1.422-10.311-.356-6.756.356-13.867-.356-20.622-.356-3.556-1.422-7.467-3.2-10.667-3.556-6.044-9.244-9.6-15.644-12.8 1.067-.356 1.422-.711 1.778-.711 6.044-2.133 10.667-5.689 13.867-11.378 4.978-9.244 4.978-18.844 3.2-28.444-1.422-7.467-5.333-13.156-11.378-17.778-11.378-8.533-24.889-10.667-38.4-11.022-14.578-.711-29.156.356-43.378.356-4.267 0-8.178.711-12.444 1.067v129.067h35.556v-.711-40.533c0-3.2 1.067-4.267 4.267-3.911 4.978.356 9.956 0 14.933.711 7.467.711 12.8 3.911 14.222 12.444 1.067 5.689 1.422 11.378 2.133 17.067.356 4.978.711 9.956 1.422 15.289h39.467c-1.067-1.422-1.422-2.489-2.133-3.556-1.067-1.422-2.133-2.489-2.489-3.556zm-46.222-67.2c-5.689 1.067-11.378 2.133-17.067.711-2.489-.711-5.333 0-8.178 0V599.11c8.889 0 17.422-1.778 26.311 1.067 5.689 1.778 9.244 7.111 9.244 12.8-.356 5.689-3.911 9.956-10.311 11.378zM688 647.111h49.067v-29.867H688v-19.2h57.956v-29.511h-95.289v129.422h98.489v-30.933H688v-19.911zm145.778-22.045c-9.6-3.911-19.911-6.756-29.867-10.311-4.267-1.422-8.889-2.844-12.089-6.4-3.556-3.556-2.844-9.6 1.422-12.444 3.2-1.778 6.756-2.489 10.311-1.778 7.111 1.422 12.444 4.267 14.222 11.733h35.911v-2.489c-2.133-8.533-5.689-16.711-11.733-22.756-9.6-9.6-21.333-14.933-34.489-16.356-9.6-1.067-18.844 0-28.089 3.556-7.111 3.2-13.511 7.467-18.133 13.867-6.044 8.178-8.533 17.778-8.178 27.733.356 11.022 4.622 19.911 13.867 26.311s19.911 8.889 30.222 12.089c6.756 1.778 13.867 3.556 19.556 8.178 4.622 3.556 4.622 8.889-.711 12.089-1.067.711-2.489 1.422-3.556 1.778-5.689 2.133-11.378 2.133-16.711-.356-4.622-2.133-7.467-5.333-8.533-10.311h-36.978c0 .711-.356 1.422 0 2.133 2.844 15.644 11.378 27.022 25.244 34.489 12.089 6.4 24.889 8.889 38.756 7.111 12.444-1.778 23.467-6.044 32-15.644 9.956-11.022 12.8-24.178 9.6-38.4-1.778-12.089-11.022-19.2-22.044-23.822zm117.689 7.111c-9.6-7.822-21.689-11.022-33.067-14.578-6.044-2.133-12.089-4.267-17.778-7.111-4.267-2.133-5.333-5.689-4.267-9.956 1.067-3.556 3.556-5.333 7.111-6.044 7.111-1.067 13.867.711 17.778 6.4 3.2 4.622 6.4 5.333 11.022 4.978H960.71c-2.133-13.867-8.889-24.533-20.267-32-10.311-7.111-22.044-10.311-34.844-9.956-10.667.356-19.911 2.844-28.8 8.889-14.222 9.244-19.2 28.444-16.356 43.022 2.133 11.378 9.244 18.844 19.556 23.467 8.533 3.556 17.422 6.044 25.956 8.889 5.333 2.133 11.022 3.911 16 7.111 6.756 4.267 4.978 10.667-1.067 13.511-9.244 4.267-22.4 3.556-26.667-9.6h-22.4c0 8.533.356 17.067 0 25.244 0 3.556 1.422 5.689 3.911 7.467 13.867 9.6 29.511 12.444 45.867 9.956 11.378-1.778 21.333-6.044 29.511-13.867 10.667-10.667 14.222-23.822 11.733-38.4-1.778-7.111-5.689-13.156-11.378-17.422z"/></svg>