<!-- Generated by IcoMoon.io -->
<svg version="1.1" xmlns="http://www.w3.org/2000/svg" width="24" height="24" viewBox="0 0 24 24">
<title>amexcard</title>
<path d="M24.017 4.875v-1.392c0-0.542-0.442-0.983-0.983-0.983h-22.067c-0.542 0-0.983 0.442-0.983 0.983v1.4c-0.008 0.050-0.017 0.108-0.017 0.167v14.017c0 0.058 0.008 0.108 0.017 0.167v1.3c0 0.542 0.442 0.983 0.983 0.983h22.067c0.542 0 0.983-0.442 0.983-0.983v-1.3c0.008-0.050 0.017-0.108 0.017-0.167v-14.025c0-0.058-0.008-0.117-0.017-0.167zM16.017 7.883c0 0 0.008 0 0.008-0.008 0.033-0.108 0.033-0.108 0.15-0.108 0.417 0 0.825 0 1.242 0 0.050 0 0.067 0.008 0.083 0.058 0.133 0.417 0.267 0.833 0.4 1.25 0.008 0.017 0.017 0.033 0.025 0.050 0-0.45 0-0.9 0-1.358 0.033 0 0.058 0 0.075 0 0.408 0 0.825 0 1.233 0 0.050 0 0.075 0.008 0.1 0.058 0.108 0.2 0.225 0.392 0.342 0.583 0.008 0.017 0.025 0.025 0.042 0.050 0-0.233 0-0.458 0-0.683 0.517 0 1.033 0 1.558 0 0 1.275 0 2.55 0 3.842-0.025 0-0.042 0-0.067 0-0.417 0-0.833 0-1.25 0-0.050 0-0.083-0.008-0.108-0.058-0.108-0.192-0.225-0.375-0.333-0.558-0.008-0.008-0.008-0.017-0.025-0.042 0 0.233 0 0.442 0 0.658-0.817 0-1.625 0-2.442 0-0.025-0.108-0.058-0.217-0.083-0.333-0.008-0.042-0.025-0.050-0.067-0.050-0.108 0-0.217 0-0.333 0-0.033 0.125-0.067 0.25-0.1 0.4-0.108 0-0.208 0-0.317 0-0.242 0.008-0.492 0.017-0.733 0.033-0.358 0.025-0.717-0.008-1.050-0.15-0.125-0.058-0.242-0.142-0.367-0.217 0 0.1 0 0.208 0 0.317-0.875 0-1.733 0-2.592 0-0.058-0.35-0.050-0.708-0.183-1.042-0.008 0-0.017 0-0.025 0 0 0.342 0 0.692 0 1.042-0.033 0-0.058 0-0.083 0-2.642 0-5.283 0-7.933 0-0.067 0-0.092-0.025-0.108-0.083-0.017-0.083-0.050-0.167-0.067-0.25-0.008-0.042-0.033-0.050-0.067-0.050-0.1 0-0.208 0-0.317 0-0.033 0.108-0.067 0.225-0.092 0.333-0.008 0.033-0.025 0.050-0.067 0.050-0.483 0-0.958 0-1.45 0 0-0.108 0-0.217 0-0.317 0-0.092 0.017-0.175 0.042-0.258 0.167-0.517 0.333-1.033 0.5-1.542 0.108-0.333 0.217-0.667 0.325-1 0.075-0.225 0.15-0.45 0.217-0.675 0.017-0.042 0.033-0.050 0.067-0.050 0.442 0 0.875 0 1.317 0 0.042 0 0.050 0.017 0.067 0.050 0.075 0.233 0.15 0.458 0.233 0.692 0-0.242 0-0.492 0-0.733 0.567 0 1.133 0 1.7 0 0.075 0.275 0.142 0.55 0.225 0.858 0.025-0.083 0.042-0.142 0.058-0.2 0.050-0.2 0.1-0.4 0.15-0.608 0.008-0.033 0.025-0.058 0.067-0.050 0.017 0 0.033 0 0.050 0 1.817 0 3.625 0 5.442 0 0.308 0 0.608 0.050 0.875 0.225 0.008 0.008 0.017 0.008 0.033 0.017 0-0.083 0-0.158 0-0.233 0.542 0 1.075 0 1.617 0 0 0.108 0 0.217 0 0.342 0.625-0.542 1.308-0.517 2.017-0.25zM22.925 15.15c-0.042 0.325-0.2 0.583-0.325 0.758-0.158 0.225-0.4 0.342-0.658 0.392-0.175 0.042-0.358 0.050-0.542 0.050-0.333-0.008-0.667-0.058-0.958-0.233-0.117-0.067-0.225-0.158-0.333-0.242-0.492 0.567-1.492 0.617-2.158 0.233 0 0-0.008 0.008-0.008 0.008-0.008 0.142-0.008 0.142-0.15 0.142-1.25 0-2.5 0-3.75 0-0.067 0-0.1-0.008-0.108-0.083-0.025-0.183-0.083-0.367-0.108-0.558-0.017-0.108 0.008-0.217 0.008-0.325 0-0.075-0.033-0.1-0.1-0.1 0 0.35 0 0.7 0 1.058-0.533 0-1.058 0-1.583 0 0-0.383 0-0.775 0-1.15-0.142 0.050-0.283 0.117-0.425 0.142-0.167 0.033-0.342 0.050-0.517 0.058-0.075 0.008-0.092 0.025-0.092 0.092 0 0.258 0 0.517 0 0.775 0 0.025 0 0.050 0 0.083-0.033 0-0.058 0-0.083 0-0.608 0-1.225 0-1.833 0-0.067 0-0.1-0.017-0.125-0.075-0.058-0.125-0.125-0.242-0.183-0.375-0.050 0.083-0.1 0.167-0.133 0.25-0.058 0.15-0.142 0.2-0.317 0.2-0.983-0.008-1.975-0.008-2.958-0.008-0.033 0-0.058 0-0.1 0 0-0.033 0-0.058 0-0.083 0-1.225 0-2.45 0-3.683 0-0.075 0.017-0.092 0.092-0.092 1.058 0 2.125 0 3.183 0 0.067 0 0.1 0.017 0.125 0.075 0.042 0.1 0.092 0.192 0.142 0.3 0.050-0.1 0.1-0.183 0.142-0.275 0.033-0.075 0.075-0.108 0.167-0.108 0.542 0.008 1.083 0 1.625 0 0.175 0 0.35 0 0.525 0.017 0.25 0.025 0.5 0.067 0.725 0.208 0.008 0 0.017 0 0.025 0.008 0-0.075 0-0.15 0-0.233 0.033 0 0.058 0 0.083 0 0.533 0 1.058 0 1.592 0 0.117 0 0.233 0 0.342 0.017 0.25 0.033 0.5 0.075 0.717 0.217 0 0 0.008 0 0.025 0 0-0.050-0.008-0.1-0.008-0.15s0.008-0.092 0.083-0.092c0.65 0 1.3 0 1.95 0 0.275 0 0.55 0 0.833 0 0.067 0 0.092 0.025 0.083 0.092 0 0.033 0 0.067 0 0.092 0.8-0.375 1.55-0.392 2.233 0.258 0.117-0.158 0.283-0.275 0.467-0.358 0.15-0.067 0.3-0.108 0.458-0.125 0.167-0.008 0.342-0.025 0.508-0.017 0.317 0.017 0.617 0.092 0.875 0.283 0.125 0.1 0.233 0.217 0.308 0.367 0.1 0.167 0.142 0.342 0.125 0.542-0.008 0.117 0 0.242 0 0.367-0.2 0-0.383 0-0.592 0 0.092 0.058 0.167 0.1 0.242 0.15 0.158 0.1 0.267 0.242 0.333 0.417 0.033 0.075 0.183 0.333 0.133 0.717z"></path>
<path d="M5.708 10.067c-0.008 0-0.008 0-0.017 0-0.158-0.633-0.325-1.267-0.483-1.892-0.367 0-0.717 0-1.083 0 0 0.867 0 1.725 0 2.592-0.008 0-0.008 0-0.017 0-0.092-0.283-0.183-0.567-0.275-0.85-0.183-0.567-0.367-1.125-0.55-1.692-0.008-0.033-0.017-0.058-0.058-0.058-0.275 0-0.542 0-0.817 0-0.017 0-0.050 0.025-0.058 0.042-0.058 0.158-0.108 0.317-0.158 0.483-0.1 0.3-0.192 0.608-0.292 0.908-0.125 0.4-0.258 0.792-0.392 1.192-0.042 0.142-0.092 0.283-0.133 0.425 0.3 0 0.583 0 0.867 0 0.042-0.133 0.075-0.267 0.117-0.4 0.292 0 0.575 0 0.858 0 0.017 0 0.042 0.025 0.050 0.042 0.025 0.092 0.058 0.192 0.075 0.292 0.008 0.058 0.033 0.067 0.092 0.067 0.475 0 0.958 0 1.433 0 0.025 0 0.042 0 0.075 0 0-0.567 0-1.125 0-1.683 0.008 0 0.008 0 0.017 0 0.142 0.567 0.292 1.125 0.433 1.692 0.217 0 0.417 0 0.625 0 0.15-0.567 0.3-1.133 0.45-1.692 0.008 0 0.017 0 0.017 0 0 0.567 0 1.125 0 1.683 0.267 0 0.533 0 0.792 0 0-1.017 0-2.033 0-3.050-0.358 0-0.717 0-1.075 0-0.167 0.633-0.325 1.267-0.492 1.9zM2.517 10.2c0.092-0.367 0.183-0.742 0.275-1.108 0.008 0 0.017 0 0.017 0 0.1 0.367 0.192 0.733 0.292 1.108-0.2 0-0.392 0-0.583 0z"></path>
<path d="M13.742 9.875c0.025 0.267 0.1 0.525 0.225 0.758 0.125 0.242 0.3 0.433 0.567 0.517 0.142 0.042 0.292 0.075 0.442 0.1 0.1 0.017 0.208 0.017 0.308 0.017 0.167-0.008 0.325-0.017 0.492-0.025 0.142-0.008 0.283-0.017 0.425-0.017 0.025-0.117 0.050-0.233 0.083-0.35 0.008-0.017 0.033-0.042 0.050-0.042 0.283 0 0.558 0 0.842 0 0.017 0 0.050 0.017 0.050 0.033 0.025 0.1 0.058 0.2 0.075 0.3 0.008 0.058 0.033 0.058 0.075 0.058 0.258 0 0.508 0 0.767 0 0.017 0 0.033 0 0.050-0.008 0-0.017 0-0.025 0-0.033-0.125-0.383-0.242-0.767-0.367-1.142-0.075-0.225-0.15-0.458-0.225-0.683-0.117-0.375-0.242-0.758-0.358-1.133-0.017-0.050-0.033-0.058-0.083-0.058-0.217 0-0.433 0-0.65 0-0.208 0-0.208 0-0.275 0.2-0.133 0.408-0.258 0.817-0.392 1.225-0.1 0.3-0.192 0.6-0.292 0.9-0.008 0.025-0.033 0.050-0.058 0.050-0.142-0.008-0.275-0.008-0.417-0.033-0.133-0.017-0.242-0.083-0.325-0.192s-0.108-0.233-0.125-0.367c-0.025-0.267-0.025-0.525 0.067-0.775 0.058-0.15 0.142-0.292 0.325-0.317 0.117-0.017 0.242-0.008 0.358-0.008s0.217 0.042 0.317 0.1c0.092-0.225 0.175-0.442 0.267-0.667-0.217-0.092-0.442-0.15-0.675-0.183-0.225-0.025-0.45-0.008-0.658 0.067-0.308 0.117-0.542 0.333-0.7 0.625-0.158 0.342-0.217 0.7-0.183 1.083zM16.758 9.083c0.008 0 0.008 0 0.017 0 0.1 0.367 0.192 0.742 0.292 1.117-0.208 0-0.4 0-0.6 0 0.092-0.375 0.192-0.75 0.292-1.117z"></path>
<path d="M19.133 9.617c0.017 0.008 0.025 0.008 0.025 0.017 0.075 0.133 0.15 0.258 0.225 0.392 0.225 0.383 0.442 0.775 0.667 1.158 0.008 0.017 0.033 0.042 0.058 0.042 0.267 0 0.542 0 0.817 0 0-1.025 0-2.042 0-3.050-0.283 0-0.558 0-0.842 0 0 0.542 0 1.083 0 1.633-0.025-0.025-0.033-0.033-0.042-0.042-0.092-0.158-0.183-0.317-0.267-0.475-0.2-0.358-0.408-0.708-0.608-1.067-0.025-0.033-0.050-0.058-0.1-0.058-0.1 0.008-0.2 0-0.3 0-0.158 0-0.317 0-0.475 0 0 1.025 0 2.033 0 3.050 0.283 0 0.558 0 0.842 0 0-0.533 0-1.058 0-1.6z"></path>
<path d="M12.492 10.992c-0.017-0.075-0.017-0.158-0.017-0.233 0-0.133 0.017-0.267 0.008-0.4 0-0.142-0.050-0.267-0.15-0.358-0.092-0.083-0.192-0.15-0.267-0.217 0.083-0.058 0.192-0.108 0.258-0.192 0.192-0.225 0.208-0.5 0.158-0.775-0.050-0.283-0.242-0.45-0.5-0.55-0.267-0.108-0.55-0.133-0.833-0.142-0.15-0.008-0.308 0.008-0.458 0.008-0.192 0.008-0.392 0.008-0.583 0.017-0.042 0-0.083 0.008-0.125 0.017 0 1.025 0 2.033 0 3.050 0.283 0 0.567 0 0.858 0 0-0.358 0-0.708 0-1.067 0.117 0 0.225 0 0.333 0 0.042 0 0.075 0.008 0.117 0.017 0.158 0.033 0.283 0.117 0.308 0.292 0.017 0.15 0.033 0.3 0.042 0.45 0.008 0.1 0.008 0.208 0.017 0.308 0.008 0 0.017 0.008 0.017 0.008 0.292 0 0.583 0 0.875 0 0.017 0 0.042-0.017 0.042-0.025 0-0.025-0.008-0.058-0.025-0.083-0.017-0.042-0.067-0.075-0.075-0.125zM11.458 9.475c-0.075 0.025-0.15 0.025-0.225 0.033-0.125 0.008-0.25 0-0.375 0-0.008 0-0.008 0-0.017-0.008 0-0.2 0-0.4 0-0.6 0.208-0.017 0.417-0.042 0.617 0.017 0.133 0.042 0.2 0.133 0.208 0.258 0.008 0.142-0.075 0.258-0.208 0.3z"></path>
<path d="M9.833 10.55c0-0.017 0-0.033-0.008-0.058-0.483 0-0.958 0-1.425 0 0-0.167 0-0.333 0-0.5 0.392 0 0.775 0 1.167 0 0-0.225 0-0.442 0-0.667-0.392 0-0.775 0-1.167 0 0-0.15 0-0.292 0-0.45 0.45 0 0.908 0 1.358 0 0-0.233 0-0.467 0-0.7-0.742 0-1.483 0-2.217 0 0 0.008 0 0.017 0 0.017 0 0.992 0 1.975 0 2.967 0 0.058 0.025 0.067 0.075 0.067 0.717 0 1.442 0 2.158 0 0.058 0 0.075-0.025 0.067-0.075-0.017-0.2-0.008-0.4-0.008-0.6z"></path>
<path d="M12.742 11.217c0.3 0 0.592 0 0.883 0 0-1.017 0-2.033 0-3.050-0.292 0-0.583 0-0.883 0 0 1.025 0 2.042 0 3.050z"></path>
<path d="M11.992 13.042c-0.242-0.158-0.517-0.208-0.8-0.208-0.6-0.008-1.208 0-1.808 0-0.050 0-0.067 0.017-0.092 0.058-0.075 0.158-0.158 0.325-0.242 0.483-0.042 0.075-0.083 0.158-0.125 0.242-0.017-0.033-0.025-0.050-0.042-0.075-0.108-0.208-0.208-0.417-0.308-0.625-0.025-0.058-0.058-0.083-0.133-0.083-0.858 0-1.717 0-2.575 0-0.125 0-0.125 0-0.125 0.125 0 0.942 0 1.883 0 2.825 0 0.025 0 0.058 0 0.083 0.9 0 1.783 0 2.667 0 0.025 0 0.050-0.025 0.058-0.042 0.133-0.25 0.258-0.5 0.392-0.75 0.008-0.017 0.017-0.025 0.033-0.050 0.033 0.058 0.067 0.108 0.092 0.167 0.108 0.208 0.217 0.417 0.317 0.625 0.017 0.033 0.042 0.050 0.083 0.050 0.133 0 0.267 0 0.4 0 0.317 0 0.625 0 0.958 0 0-0.325 0-0.633 0-0.942 0.108-0.008 0.217-0.025 0.317-0.017 0.217 0 0.442-0.017 0.65-0.075 0.2-0.058 0.375-0.158 0.5-0.333 0.108-0.158 0.158-0.342 0.158-0.525 0-0.133 0-0.275-0.033-0.408-0.025-0.225-0.15-0.4-0.342-0.525zM8.392 14.333c-0.158 0.258-0.317 0.508-0.483 0.758-0.017 0.025-0.050 0.050-0.075 0.050-0.4 0-0.8 0-1.192 0-0.008 0-0.017 0-0.025 0 0-0.15 0-0.308 0-0.467 0.025 0 0.050 0 0.083 0 0.333 0 0.667 0 0.992 0 0.067 0 0.083-0.017 0.083-0.083 0-0.2 0-0.408 0-0.617-0.383 0-0.767 0-1.15 0 0-0.158 0-0.3 0-0.45 0.025 0 0.042 0 0.058 0 0.408 0 0.817 0 1.225 0 0.050 0 0.075 0.017 0.1 0.067 0.108 0.183 0.217 0.367 0.325 0.55 0.025 0.042 0.058 0.083 0.075 0.125 0 0.017-0.008 0.042-0.017 0.067zM9.883 15.075c-0.050-0.092-0.1-0.158-0.142-0.233-0.1-0.167-0.2-0.342-0.3-0.517-0.008-0.017-0.017-0.050 0-0.067 0.142-0.225 0.283-0.458 0.425-0.683 0 0 0.008 0 0.017 0 0 0.492 0 0.983 0 1.5zM11.525 13.925c-0.033 0.167-0.117 0.25-0.275 0.267-0.15 0.017-0.292 0.017-0.442 0.017-0.017 0-0.050-0.033-0.050-0.050 0-0.2 0-0.392 0-0.617 0.192 0.017 0.375 0.017 0.55 0.050 0.158 0.017 0.25 0.175 0.217 0.333z"></path>
<path d="M15.042 15.708c-0.017-0.075-0.025-0.158-0.033-0.242-0.008-0.158 0.008-0.325-0.008-0.483-0.008-0.083-0.033-0.175-0.075-0.25-0.083-0.142-0.217-0.225-0.367-0.3 0.025-0.008 0.033-0.017 0.042-0.017 0.142-0.050 0.25-0.133 0.325-0.267 0.117-0.217 0.117-0.442 0.075-0.667-0.033-0.175-0.125-0.308-0.267-0.417-0.267-0.2-0.583-0.25-0.9-0.258-0.342-0.017-0.683 0.008-1.017 0.008-0.1 0-0.192 0.017-0.292 0.025 0 1.008 0 2.017 0 3.025 0.283 0 0.558 0 0.833 0 0-0.008 0-0.017 0-0.017 0-0.317 0-0.633 0-0.95 0-0.075 0.025-0.1 0.1-0.092 0.117 0.008 0.233 0 0.35 0.017 0.175 0.017 0.3 0.092 0.333 0.292 0.025 0.133 0.033 0.267 0.050 0.4 0.008 0.117 0.017 0.233 0.033 0.358 0.308 0 0.6 0 0.925 0-0.025-0.033-0.033-0.058-0.050-0.083-0.025-0.033-0.050-0.058-0.058-0.083zM13.958 14.133c-0.133 0.025-0.267 0.050-0.4 0.017-0.058-0.017-0.125 0-0.192 0 0-0.208 0-0.408 0-0.608 0.208 0 0.408-0.042 0.617 0.025 0.133 0.042 0.217 0.167 0.217 0.3-0.008 0.133-0.092 0.233-0.242 0.267z"></path>
<path d="M16.125 14.667c0.383 0 0.767 0 1.15 0 0-0.233 0-0.467 0-0.7-0.383 0-0.767 0-1.15 0 0-0.15 0-0.292 0-0.45 0.458 0 0.908 0 1.358 0 0-0.233 0-0.458 0-0.692-0.742 0-1.483 0-2.233 0 0 1.017 0 2.025 0 3.033 0.775 0 1.533 0 2.308 0 0-0.242 0-0.483 0-0.725-0.483 0-0.958 0-1.433 0 0-0.15 0-0.308 0-0.467z"></path>
<path d="M19.542 14.15c-0.225-0.092-0.467-0.158-0.7-0.242-0.1-0.033-0.208-0.067-0.283-0.15-0.083-0.083-0.067-0.225 0.033-0.292 0.075-0.042 0.158-0.058 0.242-0.042 0.167 0.033 0.292 0.1 0.333 0.275 0.283 0 0.558 0 0.842 0 0-0.025 0-0.042 0-0.058-0.050-0.2-0.133-0.392-0.275-0.533-0.225-0.225-0.5-0.35-0.808-0.383-0.225-0.025-0.442 0-0.658 0.083-0.167 0.075-0.317 0.175-0.425 0.325-0.142 0.192-0.2 0.417-0.192 0.65 0.008 0.258 0.108 0.467 0.325 0.617s0.467 0.208 0.708 0.283c0.158 0.042 0.325 0.083 0.458 0.192 0.108 0.083 0.108 0.208-0.017 0.283-0.025 0.017-0.058 0.033-0.083 0.042-0.133 0.050-0.267 0.050-0.392-0.008-0.108-0.050-0.175-0.125-0.2-0.242-0.292 0-0.575 0-0.867 0 0 0.017-0.008 0.033 0 0.050 0.067 0.367 0.267 0.633 0.592 0.808 0.283 0.15 0.583 0.208 0.908 0.167 0.292-0.042 0.55-0.142 0.75-0.367 0.233-0.258 0.3-0.567 0.225-0.9-0.042-0.283-0.258-0.45-0.517-0.558z"></path>
<path d="M22.3 14.317c-0.225-0.183-0.508-0.258-0.775-0.342-0.142-0.050-0.283-0.1-0.417-0.167-0.1-0.050-0.125-0.133-0.1-0.233 0.025-0.083 0.083-0.125 0.167-0.142 0.167-0.025 0.325 0.017 0.417 0.15 0.075 0.108 0.15 0.125 0.258 0.117 0.033 0 0.058 0 0.092 0 0.192 0 0.383 0 0.575 0-0.050-0.325-0.208-0.575-0.475-0.75-0.242-0.167-0.517-0.242-0.817-0.233-0.25 0.008-0.467 0.067-0.675 0.208-0.333 0.217-0.45 0.667-0.383 1.008 0.050 0.267 0.217 0.442 0.458 0.55 0.2 0.083 0.408 0.142 0.608 0.208 0.125 0.050 0.258 0.092 0.375 0.167 0.158 0.1 0.117 0.25-0.025 0.317-0.217 0.1-0.525 0.083-0.625-0.225-0.175 0-0.342 0-0.525 0 0 0.2 0.008 0.4 0 0.592 0 0.083 0.033 0.133 0.092 0.175 0.325 0.225 0.692 0.292 1.075 0.233 0.267-0.042 0.5-0.142 0.692-0.325 0.25-0.25 0.333-0.558 0.275-0.9-0.042-0.167-0.133-0.308-0.267-0.408z"></path>
</svg>
