<svg xmlns="http://www.w3.org/2000/svg" viewBox="0 0 1024 1024"><path d="M945.8 947.333H531.2l-1.2-152.8-44.4.4 1.2 152.4H79.6c-31.6 0-57.4 25.6-57.4 57.4v26.2h981v-26.2c0-31.6-25.6-57.4-57.4-57.4zm52-701c0-58 32.6-60.6-50.6-70.8-83.4-10.2-319.6-49.6-439.2-146.8-119.8 97.2-356 136.6-439.2 146.8s-50.6 12.8-50.6 70.8-53.4 95.6 23.2 95.6c36.6 0 69.6-39.6 94.4-57 24.8 17.4 57.8 57 94.4 57s69.6-39.6 94.4-57c24.8 17.4 57.8 57 94.4 57 25 0 48-18.6 68-35.8l1.8 242.2c12.8-.8 24.2-1.6 33.4-2.2 2.8-8.2 6.4-17.8 10.8-28l-1.6-218c21.6 18.8 47 41.8 75 41.8 36.6 0 69.6-39.6 94.4-57 24.8 17.4 57.8 57 94.4 57s69.6-39.6 94.4-57c24.8 17.4 57.8 57 94.4 57 76.8 0 13.8-37.6 13.8-95.6zm-157.6 321.6l5.8 11.8 27-6.6 16-19-29-80.8-6.6-33.4-19.8-30.8s-43.8-19.4-95.2-12.4c-51.4 7.2-86.4 26.8-127.6 68.2-41.2 41.2-59.4 117-59.4 117s-66.2 6.4-146.2 7.6c-42.6.6-72 12.8-90.6 37.2-47-21.4-136.4-25.4-183.2 24 6.8 38.6 49.8 73.2 68.2 81.2 16-27.8 51.6-75.6 96-69.8-9.2 24.8-10.8 52-4.2 88.4-12 8.4-63.2 63-63.2 63l-14.4 94h44.8l28.2-62.4 92.2-33.6 45.2-69.8s41.8 12.6 131 12.6c59.6 0 93.2-12 93.2-12l29.4 85.8 17.2 79.6h47.4l-4-89.4s-8.8-84.8-12-102.2c26.2-28.8 31.8-102.2 20.4-133.8-11.6-31.6 14.6-78.8 14.6-78.8l78.8 64.4z"/></svg>