<!-- Generated by IcoMoon.io -->
<svg version="1.1" xmlns="http://www.w3.org/2000/svg" width="24" height="24" viewBox="0 0 24 24">
<title>amusement</title>
<path d="M22.167 21.703h-9.717l-0.028-3.581-1.041 0.009 0.028 3.572h-9.544c-0.741 0-1.345 0.6-1.345 1.345v0.614h22.992v-0.614c0-0.741-0.6-1.345-1.345-1.345z"></path>
<path d="M23.386 5.273c0-1.359 0.764-1.42-1.186-1.659-1.955-0.239-7.491-1.163-10.294-3.441-2.808 2.278-8.344 3.202-10.294 3.441s-1.186 0.3-1.186 1.659c0 1.359-1.252 2.241 0.544 2.241 0.858 0 1.631-0.928 2.213-1.336 0.581 0.408 1.355 1.336 2.213 1.336s1.631-0.928 2.213-1.336c0.581 0.408 1.355 1.336 2.213 1.336 0.586 0 1.125-0.436 1.594-0.839l0.042 5.677c0.3-0.019 0.567-0.038 0.783-0.052 0.066-0.192 0.15-0.417 0.253-0.656l-0.038-5.109c0.506 0.441 1.102 0.98 1.758 0.98 0.858 0 1.631-0.928 2.212-1.336 0.581 0.408 1.355 1.336 2.213 1.336s1.631-0.928 2.212-1.336c0.581 0.408 1.355 1.336 2.212 1.336 1.8 0 0.323-0.881 0.323-2.241z"></path>
<path d="M19.692 12.811l0.136 0.277 0.633-0.155 0.375-0.445-0.68-1.894-0.155-0.783-0.464-0.722c0 0-1.027-0.455-2.231-0.291-1.205 0.169-2.025 0.628-2.991 1.598-0.966 0.966-1.392 2.742-1.392 2.742s-1.552 0.15-3.427 0.178c-0.998 0.014-1.688 0.3-2.123 0.872-1.102-0.502-3.197-0.595-4.294 0.563 0.159 0.905 1.167 1.716 1.598 1.903 0.375-0.652 1.209-1.772 2.25-1.636-0.216 0.581-0.253 1.219-0.098 2.072-0.281 0.197-1.481 1.477-1.481 1.477l-0.338 2.203h1.050l0.661-1.463 2.161-0.787 1.059-1.636c0 0 0.98 0.295 3.070 0.295 1.397 0 2.184-0.281 2.184-0.281l0.689 2.011 0.403 1.866h1.111l-0.094-2.095c0 0-0.206-1.988-0.281-2.395 0.614-0.675 0.745-2.395 0.478-3.136-0.272-0.741 0.342-1.847 0.342-1.847l1.847 1.509z"></path>
</svg>
