<svg xmlns="http://www.w3.org/2000/svg" viewBox="0 0 1024 1024"><path d="M954.2 621.933l-104.6-157c-9.8-14.6-33.8-14.6-43.6 0l-104.6 157c-5.4 8-5.8 18.4-1.4 26.8 4.6 8.6 13.4 13.8 23 13.8h24.6c-9 73.4-60 119.4-157.2 145 0 0-18.4-436.8-19.2-484.8-.6-37.6 19.2-50.2 19.2-50.2 2.2-1.6 4.4-3.4 6.4-5 28.8-24.4 46-60.6 46-99 0-72.2-58.6-130.8-130.8-130.8s-130.8 58.6-130.8 130.8c0 41.2 19.8 80 52.4 104.2 0 0 20.6 5.8 18.4 54.6-2.4 48.8-18.4 480.6-18.4 480.6-97.2-25.6-148.2-71.6-157.2-145H301c9.6 0 18.6-5.4 23-13.8 4.6-8.6 4-18.8-1.4-26.8L218 465.133c-9.8-14.6-33.8-14.6-43.6 0l-104.6 157c-5.4 8-5.8 18.4-1.4 26.8 4.6 8.6 13.4 13.8 23 13.8h27c13.2 185.6 168.6 249.6 272 292.6 41.4 17.2 80.4 33.4 91.4 50 8 12.2 13.6 23.8 30 23.8s21.8-11.8 30-23.8c11-16.4 50-32.6 91.4-49.8 103.2-43 258.8-107 272-292.6h27c9.6 0 18.6-5.4 23-13.8 4.8-8.8 4.2-19-1-27.2zM512 194.733c-14.4 0-26.2-11.8-26.2-26.2s11.8-26.2 26.2-26.2c14.4 0 26.2 11.8 26.2 26.2s-11.8 26.2-26.2 26.2z"/></svg>