<!-- Generated by IcoMoon.io -->
<svg version="1.1" xmlns="http://www.w3.org/2000/svg" width="24" height="24" viewBox="0 0 24 24">
<title>anchor</title>
<path d="M22.364 14.077l-2.452-3.68c-0.23-0.342-0.792-0.342-1.022 0l-2.452 3.68c-0.127 0.188-0.136 0.431-0.033 0.628 0.108 0.202 0.314 0.323 0.539 0.323h0.577c-0.211 1.72-1.406 2.798-3.684 3.398 0 0-0.431-10.238-0.45-11.363-0.014-0.881 0.45-1.177 0.45-1.177 0.052-0.037 0.103-0.080 0.15-0.117 0.675-0.572 1.078-1.42 1.078-2.32 0-1.692-1.373-3.066-3.066-3.066s-3.066 1.373-3.066 3.066c0 0.966 0.464 1.875 1.228 2.442 0 0 0.483 0.136 0.431 1.28-0.056 1.144-0.431 11.264-0.431 11.264-2.278-0.6-3.473-1.678-3.684-3.398h0.577c0.225 0 0.436-0.127 0.539-0.323 0.108-0.202 0.094-0.441-0.033-0.628l-2.452-3.684c-0.23-0.342-0.792-0.342-1.022 0l-2.452 3.68c-0.127 0.188-0.136 0.431-0.033 0.628 0.108 0.202 0.314 0.323 0.539 0.323h0.633c0.309 4.35 3.952 5.85 6.375 6.858 0.97 0.403 1.884 0.783 2.142 1.172 0.188 0.286 0.319 0.558 0.703 0.558s0.511-0.277 0.703-0.558c0.258-0.384 1.172-0.764 2.142-1.167 2.419-1.008 6.066-2.508 6.375-6.858h0.633c0.225 0 0.436-0.127 0.539-0.323 0.112-0.206 0.098-0.445-0.023-0.638zM12 4.064c-0.337 0-0.614-0.277-0.614-0.614s0.277-0.614 0.614-0.614c0.337 0 0.614 0.277 0.614 0.614s-0.277 0.614-0.614 0.614z"></path>
</svg>
