<!-- Generated by IcoMoon.io -->
<svg version="1.1" xmlns="http://www.w3.org/2000/svg" width="24" height="24" viewBox="0 0 24 24">
<title>android</title>
<path d="M4.584 16.045c0 0.759-0.59 1.433-1.433 1.433-0.759 0-1.433-0.59-1.433-1.433v-5.899c0-0.759 0.59-1.433 1.433-1.433 0.759 0 1.433 0.59 1.433 1.433v5.899z"></path>
<path d="M16.804 19.585h-1.011v3.118c0 0.759-0.59 1.433-1.433 1.433-0.759 0-1.433-0.59-1.433-1.433v-3.118h-1.938v3.118c0 0.59-0.337 1.096-0.843 1.264-0.169 0.084-0.337 0.084-0.59 0.084-0.59 0-1.096-0.337-1.264-0.843-0.084-0.169-0.084-0.337-0.084-0.506v-3.118h-1.011c-0.843 0-1.517-0.674-1.517-1.517v-9.102h12.557v9.102c0.084 0.843-0.59 1.517-1.433 1.517z"></path>
<path d="M20.849 17.394c-0.759 0-1.433-0.59-1.433-1.433v-5.899c0-0.759 0.59-1.433 1.433-1.433 0.759 0 1.433 0.59 1.433 1.433v5.899c-0.084 0.843-0.674 1.433-1.433 1.433z"></path>
<path d="M15.118 2.392l1.011-1.77c0.084-0.084 0-0.253-0.084-0.253-0.084-0.084-0.253 0-0.253 0.084l-1.011 1.77c-0.843-0.337-1.77-0.59-2.781-0.59s-1.938 0.169-2.781 0.59l-1.011-1.77c-0.084-0.084-0.169-0.169-0.253-0.084s-0.169 0.169-0.084 0.253l1.011 1.77c-1.938 1.011-3.203 2.865-3.203 5.057h12.642c0-2.191-1.264-4.13-3.203-5.057zM9.135 5.679c-0.59 0-1.096-0.506-1.096-1.096s0.506-1.096 1.096-1.096c0.59 0 1.096 0.506 1.096 1.096s-0.506 1.096-1.096 1.096zM14.865 5.679c-0.59 0-1.096-0.506-1.096-1.096s0.506-1.096 1.096-1.096c0.59 0 1.096 0.506 1.096 1.096s-0.506 1.096-1.096 1.096z"></path>
</svg>
