<svg xmlns="http://www.w3.org/2000/svg" viewBox="0 0 1024 1024"><path d="M195.568 705.931c0 32.363-25.172 61.127-61.127 61.127-32.363 0-61.127-25.172-61.127-61.127V454.225c0-32.363 25.172-61.127 61.127-61.127 32.363 0 61.127 25.172 61.127 61.127v251.706zm521.393 151.025h-43.153V990c0 32.363-25.172 61.127-61.127 61.127-32.363 0-61.127-25.172-61.127-61.127V856.956h-82.707V990c0 25.172-14.382 46.745-35.955 53.936-7.191 3.599-14.382 3.599-25.172 3.599-25.172 0-46.745-14.382-53.936-35.955-3.599-7.191-3.599-14.382-3.599-21.573V856.963h-43.153c-35.955 0-64.726-28.764-64.726-64.726V403.888h535.782v388.349c3.599 35.955-25.172 64.726-61.127 64.726zm172.605-93.49c-32.363 0-61.127-25.172-61.127-61.127V450.633c0-32.363 25.172-61.127 61.127-61.127 32.363 0 61.127 25.172 61.127 61.127v251.706c-3.599 35.955-28.764 61.127-61.127 61.127zM645.044 123.411l43.153-75.516c3.599-3.599 0-10.79-3.599-10.79-3.599-3.599-10.79 0-10.79 3.599l-43.153 75.516c-35.955-14.382-75.516-25.172-118.662-25.172s-82.707 7.191-118.662 25.172l-43.153-75.516c-3.599-3.599-7.191-7.191-10.79-3.599s-7.191 7.191-3.599 10.79l43.153 75.516c-82.707 43.153-136.643 122.261-136.643 215.751h539.374c0-93.49-53.936-176.197-136.643-215.751zM389.739 263.646c-25.172 0-46.745-21.573-46.745-46.745s21.573-46.745 46.745-46.745c25.172 0 46.745 21.573 46.745 46.745s-21.573 46.745-46.745 46.745zm244.522 0c-25.172 0-46.745-21.573-46.745-46.745s21.573-46.745 46.745-46.745c25.172 0 46.745 21.573 46.745 46.745s-21.573 46.745-46.745 46.745z"/></svg>