<svg xmlns="http://www.w3.org/2000/svg" viewBox="0 0 1024 1024"><path d="M512 75.377c-251.378 0-455.822 204.444-455.822 455.822S260.622 987.021 512 987.021c251.378 0 455.822-204.444 455.822-455.822S763.378 75.377 512 75.377zm0 847.645c-215.822 0-391.822-175.644-391.822-391.822 0-215.822 176-391.822 391.822-391.822S903.822 315.022 903.822 531.2c0 215.822-176 391.822-391.822 391.822zm0-277.689c-68.622 0-133.333 33.778-172.089 90.667-8.178 11.733-4.978 28.089 6.756 36.267 4.622 3.2 9.6 4.622 14.578 4.622 8.178 0 16.356-3.911 21.333-11.378 29.511-42.667 77.867-68.267 129.422-68.267s99.911 25.6 129.422 68.267c8.178 11.733 24.178 14.933 36.267 6.756 11.733-8.178 14.933-24.178 6.756-36.267-39.111-56.889-103.467-90.667-172.444-90.667zm278.044-294.044c-2.133-11.733-13.156-19.911-25.244-17.778l-184.889 32c-11.733 2.133-19.911 13.156-17.778 25.244 1.778 10.667 11.022 18.133 21.333 18.133 1.067 0 2.489 0 3.911-.356l25.244-4.267c-1.067 4.622-1.422 9.244-1.422 14.222 0 37.689 30.578 68.267 68.267 68.267s68.267-30.578 68.267-68.267c0-13.156-3.911-25.244-10.311-35.911l34.844-6.044c11.733-2.133 19.911-13.511 17.778-25.244zm-365.155 66.844c0-4.978-.356-9.6-1.422-14.222l25.244 4.267c1.422.356 2.489.356 3.911.356 10.311 0 19.556-7.467 21.333-18.133 2.133-11.733-6.044-23.111-17.778-25.244l-184.889-32c-11.733-2.133-23.111 6.044-25.244 17.778s6.044 23.111 17.778 25.244l34.844 6.044c-6.4 10.311-10.311 22.756-10.311 35.911 0 37.689 30.578 68.267 68.267 68.267s68.267-30.578 68.267-68.267z"/></svg>