<!-- Generated by IcoMoon.io -->
<svg version="1.1" xmlns="http://www.w3.org/2000/svg" width="24" height="24" viewBox="0 0 24 24">
<title>angry</title>
<path d="M12 1.267c-5.892 0-10.683 4.792-10.683 10.683s4.792 10.683 10.683 10.683c5.892 0 10.683-4.792 10.683-10.683s-4.792-10.683-10.683-10.683zM12 21.133c-5.058 0-9.183-4.117-9.183-9.183 0-5.058 4.125-9.183 9.183-9.183s9.183 4.117 9.183 9.183c0 5.058-4.125 9.183-9.183 9.183z"></path>
<path d="M12 14.625c-1.608 0-3.125 0.792-4.033 2.125-0.192 0.275-0.117 0.658 0.158 0.85 0.108 0.075 0.225 0.108 0.342 0.108 0.192 0 0.383-0.092 0.5-0.267 0.692-1 1.825-1.6 3.033-1.6s2.342 0.6 3.033 1.6c0.192 0.275 0.567 0.35 0.85 0.158 0.275-0.192 0.35-0.567 0.158-0.85-0.917-1.333-2.425-2.125-4.042-2.125z"></path>
<path d="M18.517 7.733c-0.050-0.275-0.308-0.467-0.592-0.417l-4.333 0.75c-0.275 0.050-0.467 0.308-0.417 0.592 0.042 0.25 0.258 0.425 0.5 0.425 0.025 0 0.058 0 0.092-0.008l0.592-0.1c-0.025 0.108-0.033 0.217-0.033 0.333 0 0.883 0.717 1.6 1.6 1.6s1.6-0.717 1.6-1.6c0-0.308-0.092-0.592-0.242-0.842l0.817-0.142c0.275-0.050 0.467-0.317 0.417-0.592z"></path>
<path d="M9.958 9.3c0-0.117-0.008-0.225-0.033-0.333l0.592 0.1c0.033 0.008 0.058 0.008 0.092 0.008 0.242 0 0.458-0.175 0.5-0.425 0.050-0.275-0.142-0.542-0.417-0.592l-4.333-0.75c-0.275-0.050-0.542 0.142-0.592 0.417s0.142 0.542 0.417 0.592l0.817 0.142c-0.15 0.242-0.242 0.533-0.242 0.842 0 0.883 0.717 1.6 1.6 1.6s1.6-0.717 1.6-1.6z"></path>
</svg>
