<!-- Generated by IcoMoon.io -->
<svg version="1.1" xmlns="http://www.w3.org/2000/svg" width="24" height="24" viewBox="0 0 24 24">
<title>apple-pay</title>
<path d="M11.35 9.1h-1.042v2.083h1.042c0.583 0 1.042-0.458 1.042-1.042 0-0.575-0.458-1.042-1.042-1.042z"></path>
<path d="M14.183 12.75c0 0.375 0.3 0.667 0.667 0.667h0.3c0.375 0 0.667-0.3 0.667-0.667v-0.667h-0.967c-0.367 0-0.667 0.3-0.667 0.667z"></path>
<path d="M23.875 4.967v-1.383c0-0.533-0.433-0.967-0.967-0.967h-21.808c-0.533 0-0.975 0.433-0.975 0.967v1.383c-0.008 0.050-0.017 0.108-0.017 0.158v13.85c0 0.058 0.008 0.108 0.017 0.158v1.283c0 0.533 0.433 0.967 0.967 0.967h21.8c0.533 0 0.967-0.433 0.967-0.967v-1.283c0.008-0.050 0.017-0.108 0.017-0.158v-13.85c0.008-0.058 0.008-0.108 0-0.158zM7.1 8.442c0.15 0.508-0.433 1.383-1.15 1.325-0.058-0.633 0.483-1.258 1.15-1.325zM7.492 14.125c-0.242 0.208-0.525 0.242-0.808 0.108-0.433-0.192-0.833-0.192-1.267 0-0.267 0.133-0.55 0.108-0.775-0.108-0.758-0.667-1.3-2.1-1-3.133 0.192-0.683 0.758-1.133 1.417-1.117 0.133 0 0.283 0.033 0.4 0.092 0.358 0.175 0.717 0.167 1.075 0 0.317-0.15 0.658-0.15 1-0.033 0.267 0.092 0.492 0.242 0.658 0.492-0.85 0.6-0.883 1.775 0.15 2.342-0.183 0.525-0.45 0.983-0.85 1.358zM11.35 12.083h-1.042v1.792c0 0.25-0.192 0.45-0.45 0.45-0.25 0-0.45-0.192-0.45-0.45v-5.217c0-0.25 0.192-0.45 0.45-0.45h1.492c1.075 0 1.942 0.867 1.942 1.942-0.008 1.067-0.867 1.933-1.942 1.933zM16.733 11.633v2.233c0 0.25-0.192 0.45-0.45 0.45-0.167 0-0.3-0.075-0.375-0.192-0.225 0.117-0.475 0.192-0.742 0.192h-0.3c-0.867 0-1.567-0.7-1.567-1.567s0.7-1.567 1.567-1.567h0.95c-0.017-0.117-0.075-0.242-0.15-0.325-0.133-0.175-0.342-0.267-0.55-0.267h-0.108c-0.15 0-0.3 0.042-0.417 0.133l-0.283 0.225c-0.192 0.15-0.475 0.108-0.625-0.092-0.15-0.192-0.108-0.475 0.092-0.625l0.283-0.225c0.267-0.192 0.608-0.317 0.95-0.317h0.108c0.492 0 0.95 0.225 1.267 0.6 0.225 0.283 0.342 0.642 0.342 1v0.342zM20.408 10.267l-1.383 4.425c-0.208 0.658-0.808 1.1-1.508 1.1h-0.058c-0.25 0-0.45-0.192-0.45-0.45 0-0.25 0.192-0.45 0.45-0.45h0.058c0.3 0 0.567-0.192 0.658-0.475l0.075-0.25-1.225-3.892c-0.075-0.242 0.058-0.492 0.3-0.567s0.492 0.058 0.567 0.3l0.833 2.683 0.833-2.667c0.075-0.242 0.325-0.375 0.567-0.3s0.375 0.333 0.283 0.542z"></path>
</svg>
