<svg xmlns="http://www.w3.org/2000/svg" viewBox="0 0 1024 1024"><path d="M548.192 135.276C600.46 74.964 684.897 58.883 688.92 62.904s8.044 92.476-44.224 152.788c-52.268 60.312-136.705 76.393-140.728 72.372s-8.044-92.476 44.224-152.788zm357.842 635.282c-16.088 44.224-40.208 80.416-60.312 112.58-52.268 72.372-108.564 112.58-140.728 116.601-68.356 0-124.645-44.224-172.892-44.224-48.252 0-104.541 44.224-172.892 44.224-32.164 0-88.46-44.224-140.728-116.601-24.12-32.164-44.224-72.372-60.312-112.58s-28.148-80.416-32.164-124.645c-4.016-20.104-4.016-44.224-4.016-64.328s0-40.208 4.016-60.312c8.044-52.268 20.104-92.476 40.208-124.645 56.289-92.476 152.788-112.58 180.936-112.58 60.312-8.044 144.749 40.208 188.973 40.208 44.224 0 128.661-48.252 188.973-40.208 28.148 4.016 116.601 16.088 168.869 100.52-8.044 4.016-16.088 8.044-24.12 12.06-40.208 28.148-68.356 72.372-76.393 124.645-4.016 12.06-4.016 24.12-4.016 36.192 0 32.164 8.044 60.312 16.088 88.46 24.12 52.268 64.328 88.46 112.58 104.541-8.044 8.044-8.044 16.088-12.06 20.104z"/></svg>