<!-- Generated by IcoMoon.io -->
<svg version="1.1" xmlns="http://www.w3.org/2000/svg" width="24" height="24" viewBox="0 0 24 24">
<title>apple</title>
<path d="M12.848 2.671c1.225-1.414 3.204-1.79 3.298-1.696s0.189 2.167-1.037 3.581c-1.225 1.414-3.204 1.79-3.298 1.696s-0.189-2.167 1.037-3.581zM21.235 17.56c-0.377 1.037-0.942 1.885-1.414 2.639-1.225 1.696-2.544 2.639-3.298 2.733-1.602 0-2.921-1.037-4.052-1.037 0 0 0 0 0 0v0 0c0 0 0 0 0 0-1.131 0-2.45 1.037-4.052 1.037-0.754 0-2.073-1.037-3.298-2.733-0.565-0.754-1.036-1.696-1.414-2.639s-0.66-1.885-0.754-2.921c-0.094-0.471-0.094-1.037-0.094-1.508s0-0.942 0.094-1.414c0.189-1.225 0.471-2.167 0.942-2.921 1.319-2.167 3.581-2.639 4.241-2.639 1.414-0.189 3.393 0.942 4.429 0.942v0c1.037 0 3.015-1.131 4.429-0.942 0.66 0.094 2.733 0.377 3.958 2.356-0.189 0.094-0.377 0.189-0.565 0.283-0.942 0.66-1.602 1.696-1.79 2.921-0.094 0.283-0.094 0.565-0.094 0.848 0 0.754 0.189 1.414 0.377 2.073 0.565 1.225 1.508 2.073 2.639 2.45-0.189 0.189-0.189 0.377-0.283 0.471z"></path>
</svg>
