<svg xmlns="http://www.w3.org/2000/svg" viewBox="0 0 1024 1024"><path d="M484.267 409.6h-44.444v88.889h44.444c24.889 0 44.444-19.556 44.444-44.444 0-24.533-19.556-44.444-44.444-44.444zm120.889 155.733c0 16 12.8 28.444 28.444 28.444h12.8c16 0 28.444-12.8 28.444-28.444v-28.444H633.6c-15.644 0-28.444 12.8-28.444 28.444zm413.511-332.089v-59.022c0-22.756-18.489-41.244-41.244-41.244H46.934c-22.756 0-41.6 18.489-41.6 41.244v59.022c-.356 2.133-.711 4.622-.711 6.756v590.933c0 2.489.356 4.622.711 6.756v54.756c0 22.756 18.489 41.244 41.244 41.244h930.133c22.756 0 41.244-18.489 41.244-41.244v-54.756c.356-2.133.711-4.622.711-6.756V240c.356-2.489.356-4.622 0-6.756zM302.933 381.511c6.4 21.689-18.489 59.022-49.067 56.533-2.489-27.022 20.622-53.689 49.067-56.533zM319.644 624c-10.311 8.889-22.4 10.311-34.489 4.622-18.489-8.178-35.556-8.178-54.044 0-11.378 5.689-23.467 4.622-33.067-4.622-32.356-28.444-55.467-89.6-42.667-133.689 8.178-29.156 32.356-48.356 60.444-47.644 5.689 0 12.089 1.422 17.067 3.911 15.289 7.467 30.578 7.111 45.867 0 13.511-6.4 28.089-6.4 42.667-1.422 11.378 3.911 20.978 10.311 28.089 20.978-36.267 25.6-37.689 75.733 6.4 99.911-7.822 22.4-19.2 41.956-36.267 57.956zm164.623-87.111h-44.444v76.444c0 10.667-8.178 19.2-19.2 19.2-10.667 0-19.2-8.178-19.2-19.2V390.755c0-10.667 8.178-19.2 19.2-19.2h63.644c45.867 0 82.844 36.978 82.844 82.844-.356 45.511-36.978 82.489-82.844 82.489zm229.689-19.2v95.289c0 10.667-8.178 19.2-19.2 19.2-7.111 0-12.8-3.2-16-8.178-9.6 4.978-20.267 8.178-31.644 8.178h-12.8c-36.978 0-66.844-29.867-66.844-66.844s29.867-66.844 66.844-66.844h40.533c-.711-4.978-3.2-10.311-6.4-13.867-5.689-7.467-14.578-11.378-23.467-11.378h-4.622c-6.4 0-12.8 1.778-17.778 5.689l-12.089 9.6c-8.178 6.4-20.267 4.622-26.667-3.911-6.4-8.178-4.622-20.267 3.911-26.667l12.089-9.6c11.378-8.178 25.956-13.511 40.533-13.511h4.622c20.978 0 40.533 9.6 54.044 25.6 9.6 12.089 14.578 27.378 14.578 42.667v14.578zm156.8-58.312l-59.022 188.8c-8.889 28.089-34.489 46.933-64.356 46.933h-2.489c-10.667 0-19.2-8.178-19.2-19.2 0-10.667 8.178-19.2 19.2-19.2h2.489c12.8 0 24.178-8.178 28.089-20.267l3.2-10.667L726.4 459.732c-3.2-10.311 2.489-20.978 12.8-24.178s20.978 2.489 24.178 12.8l35.556 114.489 35.556-113.778c3.2-10.311 13.867-16 24.178-12.8s16 14.222 12.089 23.111z"/></svg>