<svg xmlns="http://www.w3.org/2000/svg" viewBox="0 0 1024 1024"><path d="M323 299.925c0 29.712-24.104 53.816-53.816 53.816H168.232c-29.744 0-53.816-24.104-53.816-53.816V198.973c0-29.712 24.064-53.816 53.816-53.816h100.952c29.712 0 53.816 24.104 53.816 53.816v100.952zm287.376 0c0 29.712-24.104 53.816-53.816 53.816H455.608c-29.712 0-53.816-24.104-53.816-53.816V198.973c0-29.712 24.104-53.816 53.816-53.816H556.56c29.712 0 53.816 24.104 53.816 53.816v100.952zm287.336 0c0 29.712-24.064 53.816-53.816 53.816H742.944c-29.712 0-53.816-24.104-53.816-53.816V198.973c0-29.712 24.104-53.816 53.816-53.816h100.952c29.744 0 53.816 24.104 53.816 53.816v100.952zM323 580.509c0 29.712-24.104 53.816-53.816 53.816H168.232c-29.744 0-53.816-24.104-53.816-53.816V479.597c0-29.712 24.064-53.816 53.816-53.816h100.952c29.712 0 53.816 24.104 53.816 53.816v100.912zm287.376 0c0 29.712-24.104 53.816-53.816 53.816H455.608c-29.712 0-53.816-24.104-53.816-53.816V479.597c0-29.712 24.104-53.816 53.816-53.816H556.56c29.712 0 53.816 24.104 53.816 53.816v100.912zm287.336 0c0 29.712-24.064 53.816-53.816 53.816H742.944c-29.712 0-53.816-24.104-53.816-53.816V479.597c0-29.712 24.104-53.816 53.816-53.816h100.952c29.744 0 53.816 24.104 53.816 53.816v100.912zM323 861.165c0 29.712-24.104 53.816-53.816 53.816H168.232c-29.744 0-53.816-24.104-53.816-53.816V760.213c0-29.712 24.064-53.816 53.816-53.816h100.952c29.712 0 53.816 24.104 53.816 53.816v100.952zm287.376 0c0 29.712-24.104 53.816-53.816 53.816H455.608c-29.712 0-53.816-24.104-53.816-53.816V760.213c0-29.712 24.104-53.816 53.816-53.816H556.56c29.712 0 53.816 24.104 53.816 53.816v100.952zm287.336 0c0 29.712-24.064 53.816-53.816 53.816H742.944c-29.712 0-53.816-24.104-53.816-53.816V760.213c0-29.712 24.104-53.816 53.816-53.816h100.952c29.744 0 53.816 24.104 53.816 53.816v100.952z"/></svg>