<!-- Generated by IcoMoon.io -->
<svg version="1.1" xmlns="http://www.w3.org/2000/svg" width="24" height="24" viewBox="0 0 24 24">
<title>apps</title>
<path d="M7.57 6.529c0 0.696-0.565 1.261-1.261 1.261h-2.366c-0.697 0-1.261-0.565-1.261-1.261v-2.366c0-0.696 0.564-1.261 1.261-1.261h2.366c0.696 0 1.261 0.565 1.261 1.261v2.366z"></path>
<path d="M14.306 6.529c0 0.696-0.565 1.261-1.261 1.261h-2.366c-0.696 0-1.261-0.565-1.261-1.261v-2.366c0-0.696 0.565-1.261 1.261-1.261h2.366c0.696 0 1.261 0.565 1.261 1.261v2.366z"></path>
<path d="M21.040 6.529c0 0.696-0.564 1.261-1.261 1.261h-2.366c-0.696 0-1.261-0.565-1.261-1.261v-2.366c0-0.696 0.565-1.261 1.261-1.261h2.366c0.697 0 1.261 0.565 1.261 1.261v2.366z"></path>
<path d="M7.57 13.106c0 0.696-0.565 1.261-1.261 1.261h-2.366c-0.697 0-1.261-0.565-1.261-1.261v-2.365c0-0.696 0.564-1.261 1.261-1.261h2.366c0.696 0 1.261 0.565 1.261 1.261v2.365z"></path>
<path d="M14.306 13.106c0 0.696-0.565 1.261-1.261 1.261h-2.366c-0.696 0-1.261-0.565-1.261-1.261v-2.365c0-0.696 0.565-1.261 1.261-1.261h2.366c0.696 0 1.261 0.565 1.261 1.261v2.365z"></path>
<path d="M21.040 13.106c0 0.696-0.564 1.261-1.261 1.261h-2.366c-0.696 0-1.261-0.565-1.261-1.261v-2.365c0-0.696 0.565-1.261 1.261-1.261h2.366c0.697 0 1.261 0.565 1.261 1.261v2.365z"></path>
<path d="M7.57 19.684c0 0.696-0.565 1.261-1.261 1.261h-2.366c-0.697 0-1.261-0.565-1.261-1.261v-2.366c0-0.696 0.564-1.261 1.261-1.261h2.366c0.696 0 1.261 0.565 1.261 1.261v2.366z"></path>
<path d="M14.306 19.684c0 0.696-0.565 1.261-1.261 1.261h-2.366c-0.696 0-1.261-0.565-1.261-1.261v-2.366c0-0.696 0.565-1.261 1.261-1.261h2.366c0.696 0 1.261 0.565 1.261 1.261v2.366z"></path>
<path d="M21.040 19.684c0 0.696-0.564 1.261-1.261 1.261h-2.366c-0.696 0-1.261-0.565-1.261-1.261v-2.366c0-0.696 0.565-1.261 1.261-1.261h2.366c0.697 0 1.261 0.565 1.261 1.261v2.366z"></path>
</svg>
