<svg xmlns="http://www.w3.org/2000/svg" viewBox="0 0 1024 1024"><path d="M544 85.333c-265.088 0-480 214.912-480 480s214.912 480 480 480 480-214.912 480-480-214.912-480-480-480zm214.656 438.656c-12.48 12.48-32.768 12.48-45.248 0L576 386.581v498.752c0 17.664-14.336 32-32 32s-32-14.336-32-32V386.581L374.656 523.989c-12.48 12.48-32.768 12.48-45.248 0s-12.48-32.768 0-45.248l192-192c.064-.128.128-.128.192-.192 2.88-2.816 6.336-5.184 10.112-6.72a31.744 31.744 0 0 1 24.448 0 32.035 32.035 0 0 1 10.496 6.848l192 192c12.48 12.544 12.48 32.768 0 45.312z"/></svg>