<!-- Generated by IcoMoon.io -->
<svg version="1.1" xmlns="http://www.w3.org/2000/svg" width="24" height="24" viewBox="0 0 24 24">
<title>arrow-fill-left</title>
<path d="M12.75 1.5c-6.213 0-11.25 5.037-11.25 11.25s5.037 11.25 11.25 11.25 11.25-5.037 11.25-11.25-5.037-11.25-11.25-11.25zM21 12.75c0 0.414-0.336 0.75-0.75 0.75h-11.69l3.219 3.219c0.293 0.293 0.293 0.768 0 1.061s-0.768 0.293-1.060 0l-4.5-4.5c-0.002-0.002-0.003-0.005-0.005-0.008-0.066-0.068-0.12-0.147-0.156-0.236-0.038-0.091-0.059-0.188-0.059-0.284 0-0.001 0-0.001 0-0.003v0c0-0.098 0.020-0.195 0.059-0.287 0.036-0.088 0.090-0.168 0.156-0.236 0.003-0.003 0.003-0.006 0.006-0.009l4.5-4.5c0.293-0.293 0.768-0.293 1.060 0s0.293 0.768 0 1.061l-3.221 3.22h11.69c0.414 0 0.75 0.336 0.75 0.75z"></path>
</svg>
