<!-- Generated by IcoMoon.io -->
<svg version="1.1" xmlns="http://www.w3.org/2000/svg" width="24" height="24" viewBox="0 0 24 24">
<title>arrow-right</title>
<path d="M12.75 1.5c-6.213 0-11.25 5.037-11.25 11.25s5.037 11.25 11.25 11.25 11.25-5.037 11.25-11.25-5.037-11.25-11.25-11.25zM17.755 13.2l-5.815 4.593c-0.325 0.255-0.853 0.255-1.179 0l0.003-0.003c-0.161-0.119-0.264-0.285-0.264-0.473v-9.165c0-0.185 0.098-0.349 0.254-0.468 0.003-0.002 0.005-0.005 0.007-0.007 0.325-0.255 0.854-0.255 1.179 0l5.786 4.582c0.009 0.008 0.021 0.009 0.030 0.017 0.326 0.255 0.326 0.669 0 0.924z"></path>
</svg>
