<!-- Generated by IcoMoon.io -->
<svg version="1.1" xmlns="http://www.w3.org/2000/svg" width="24" height="24" viewBox="0 0 24 24">
<title>arrow-left</title>
<path d="M12.75 1.5c-6.213 0-11.25 5.037-11.25 11.25s5.037 11.25 11.25 11.25 11.25-5.037 11.25-11.25-5.037-11.25-11.25-11.25zM15 17.317c0 0.184-0.098 0.35-0.254 0.468-0.003 0.003-0.003 0.006-0.006 0.008-0.326 0.255-0.854 0.255-1.179 0l-5.787-4.581c-0.009-0.008-0.021-0.009-0.030-0.016-0.325-0.255-0.325-0.67 0-0.926l5.815-4.593c0.326-0.255 0.853-0.255 1.179 0l-0.003 0.003c0.16 0.119 0.264 0.285 0.264 0.473v9.165z"></path>
</svg>
