<!-- Generated by IcoMoon.io -->
<svg version="1.1" xmlns="http://www.w3.org/2000/svg" width="24" height="24" viewBox="0 0 24 24">
<title>arrow-fill-right-down</title>
<path d="M4.796 4.796c-4.394 4.393-4.394 11.517 0 15.91s11.517 4.393 15.91 0c4.393-4.393 4.393-11.517 0-15.91-4.395-4.393-11.517-4.393-15.91 0zM18 17.25c0 0.002 0 0.002 0 0.003 0 0.098-0.020 0.194-0.057 0.284-0.076 0.183-0.222 0.33-0.405 0.405-0.093 0.039-0.191 0.058-0.288 0.058h-6.364c-0.414 0-0.75-0.336-0.75-0.75s0.336-0.75 0.75-0.75h4.554l-8.265-8.265c-0.293-0.292-0.293-0.768 0-1.060s0.768-0.293 1.061 0l8.265 8.265v-4.554c0-0.414 0.336-0.75 0.75-0.75s0.75 0.336 0.75 0.75v6.364z"></path>
</svg>
