<svg xmlns="http://www.w3.org/2000/svg" viewBox="0 0 1024 1024"><path d="M544 85.333c-265.088 0-480 214.912-480 480s214.912 480 480 480 480-214.912 480-480-214.912-480-480-480zm352 480c0 17.664-14.336 32-32 32H365.248l137.344 137.344c12.48 12.48 12.48 32.768 0 45.248s-32.768 12.48-45.248 0l-192-192c-.064-.064-.128-.192-.192-.32-2.816-2.88-5.12-6.272-6.656-10.048-1.6-3.904-2.496-8-2.496-12.096v-.128c0-4.16.832-8.32 2.496-12.224 1.536-3.776 3.84-7.168 6.656-10.048.128-.128.128-.256.256-.384l192-192c12.48-12.48 32.768-12.48 45.248 0s12.48 32.768 0 45.248L365.248 533.333H864c17.664 0 32 14.336 32 32z"/></svg>