<!-- Generated by IcoMoon.io -->
<svg version="1.1" xmlns="http://www.w3.org/2000/svg" width="24" height="24" viewBox="0 0 24 24">
<title>arrow-fill-down</title>
<path d="M12.75 1.5c-6.213 0-11.25 5.037-11.25 11.25s5.037 11.25 11.25 11.25 11.25-5.037 11.25-11.25-5.037-11.25-11.25-11.25zM17.781 14.781l-4.5 4.5c-0.069 0.069-0.152 0.125-0.243 0.162-0.183 0.077-0.39 0.077-0.573 0-0.090-0.037-0.169-0.091-0.237-0.157-0.001-0.002-0.005-0.002-0.006-0.005l-4.5-4.5c-0.293-0.293-0.293-0.768 0-1.061s0.768-0.293 1.060 0l3.218 3.219v-11.69c0-0.414 0.336-0.75 0.75-0.75s0.75 0.336 0.75 0.75v11.69l3.219-3.219c0.293-0.293 0.768-0.293 1.061 0 0.294 0.293 0.294 0.766 0.002 1.061z"></path>
</svg>
