<!-- Generated by IcoMoon.io -->
<svg version="1.1" xmlns="http://www.w3.org/2000/svg" width="24" height="24" viewBox="0 0 24 24">
<title>arrow-fill-left-down</title>
<path d="M4.796 4.796c-4.394 4.393-4.394 11.517 0 15.91s11.517 4.393 15.91 0c4.393-4.393 4.393-11.517 0-15.91-4.395-4.393-11.517-4.393-15.91 0zM18.327 8.235l-8.266 8.265h4.554c0.414 0 0.75 0.336 0.75 0.75s-0.336 0.75-0.75 0.75h-6.364c-0.098 0-0.195-0.020-0.287-0.058-0.090-0.038-0.17-0.091-0.237-0.158-0.002-0.002-0.005-0.002-0.006-0.005-0.003-0.003-0.003-0.006-0.006-0.009-0.066-0.067-0.12-0.147-0.156-0.235-0.037-0.090-0.058-0.186-0.058-0.282 0-0.002 0-0.002 0-0.003v-6.364c0-0.414 0.336-0.75 0.75-0.75s0.75 0.336 0.75 0.75v4.554l8.265-8.265c0.293-0.293 0.768-0.293 1.061 0s0.294 0.767 0.001 1.060z"></path>
</svg>
