<!-- Generated by IcoMoon.io -->
<svg version="1.1" xmlns="http://www.w3.org/2000/svg" width="24" height="24" viewBox="0 0 24 24">
<title>arrow-fill-up</title>
<path d="M12.75 1.5c-6.213 0-11.25 5.037-11.25 11.25s5.037 11.25 11.25 11.25 11.25-5.037 11.25-11.25-5.037-11.25-11.25-11.25zM17.781 11.781c-0.293 0.292-0.768 0.292-1.061 0l-3.221-3.22v11.689c0 0.414-0.336 0.75-0.75 0.75s-0.75-0.336-0.75-0.75v-11.69l-3.219 3.22c-0.293 0.293-0.768 0.293-1.060 0s-0.293-0.768 0-1.060l4.5-4.5c0.002-0.003 0.003-0.003 0.005-0.005 0.067-0.066 0.149-0.122 0.237-0.158 0.183-0.077 0.39-0.077 0.573 0 0.093 0.037 0.176 0.091 0.246 0.16l4.5 4.5c0.293 0.294 0.293 0.768 0 1.062z"></path>
</svg>
