<!-- Generated by IcoMoon.io -->
<svg version="1.1" xmlns="http://www.w3.org/2000/svg" width="24" height="24" viewBox="0 0 24 24">
<title>arrow-down</title>
<path d="M12.75 1.5c-6.213 0-11.25 5.037-11.25 11.25s5.037 11.25 11.25 11.25 11.25-5.037 11.25-11.25-5.037-11.25-11.25-11.25zM17.793 11.94l-4.582 5.786c-0.006 0.009-0.009 0.021-0.016 0.030-0.255 0.326-0.671 0.326-0.925 0l-4.591-5.815c-0.255-0.325-0.255-0.853 0-1.179l0.003 0.003c0.118-0.161 0.285-0.264 0.473-0.264h9.165c0.184 0 0.349 0.098 0.468 0.254 0.003 0.003 0.006 0.003 0.008 0.006 0.256 0.327 0.256 0.855 0 1.181z"></path>
</svg>
