<svg xmlns="http://www.w3.org/2000/svg" viewBox="0 0 1024 1024"><path d="M204.608 225.941c-187.456 187.456-187.456 491.392 0 678.848s491.392 187.456 678.848 0c187.456-187.456 187.456-491.392 0-678.848-187.52-187.456-491.392-187.456-678.848 0zM768 757.333v.128c0 4.16-.832 8.256-2.432 12.096-3.264 7.808-9.472 14.08-17.28 17.28A31.713 31.713 0 0 1 736 789.333H464.448c-17.664 0-32-14.336-32-32s14.336-32 32-32h194.304l-352.64-352.64c-12.48-12.48-12.48-32.768 0-45.248s32.768-12.48 45.248 0L704 680.085V485.781c0-17.664 14.336-32 32-32s32 14.336 32 32v271.552z"/></svg>