<!-- Generated by IcoMoon.io -->
<svg version="1.1" xmlns="http://www.w3.org/2000/svg" width="24" height="24" viewBox="0 0 24 24">
<title>arrow-up</title>
<path d="M12.75 1.5c-6.213 0-11.25 5.037-11.25 11.25s5.037 11.25 11.25 11.25 11.25-5.037 11.25-11.25-5.037-11.25-11.25-11.25zM17.793 14.739l-0.003-0.003c-0.119 0.16-0.285 0.264-0.473 0.264h-9.165c-0.185 0-0.349-0.098-0.468-0.254-0.002-0.003-0.005-0.005-0.007-0.008-0.255-0.325-0.255-0.854 0-1.179l4.582-5.786c0.006-0.009 0.009-0.021 0.017-0.030 0.255-0.325 0.67-0.325 0.925 0l4.593 5.816c0.255 0.326 0.255 0.853-0.001 1.179z"></path>
</svg>
