<svg xmlns="http://www.w3.org/2000/svg" viewBox="0 0 1024 1024"><path d="M204.608 225.941c-187.456 187.456-187.456 491.392 0 678.848s491.392 187.456 678.848 0c187.456-187.456 187.456-491.392 0-678.848-187.52-187.456-491.392-187.456-678.848 0zm577.344 146.752l-352.704 352.64h194.304c17.664 0 32 14.336 32 32s-14.336 32-32 32H352c-4.16 0-8.32-.832-12.224-2.496-3.84-1.6-7.232-3.904-10.112-6.72-.064-.064-.192-.064-.256-.192-.128-.128-.128-.256-.256-.384-2.816-2.88-5.12-6.272-6.656-10.048-1.6-3.84-2.496-7.936-2.496-12.032v-271.68c0-17.664 14.336-32 32-32s32 14.336 32 32v194.304l352.64-352.64c12.48-12.48 32.768-12.48 45.248 0s12.544 32.704.064 45.248z"/></svg>