<!-- Generated by IcoMoon.io -->
<svg version="1.1" xmlns="http://www.w3.org/2000/svg" width="24" height="24" viewBox="0 0 24 24">
<title>arrow-fill-left-up</title>
<path d="M4.796 4.796c-4.394 4.393-4.394 11.517 0 15.91s11.517 4.393 15.91 0c4.393-4.393 4.393-11.517 0-15.91-4.395-4.393-11.517-4.393-15.91 0zM18.327 18.327c-0.292 0.293-0.768 0.293-1.060 0l-8.267-8.266v4.554c0 0.414-0.336 0.75-0.75 0.75s-0.75-0.336-0.75-0.75v-6.364c0-0.098 0.020-0.195 0.059-0.287 0.036-0.088 0.090-0.168 0.156-0.236 0.003-0.003 0.003-0.006 0.006-0.009 0.002-0.002 0.003-0.002 0.005-0.003 0.067-0.066 0.149-0.122 0.237-0.158 0.093-0.039 0.191-0.058 0.288-0.058h6.364c0.414 0 0.75 0.336 0.75 0.75s-0.336 0.75-0.75 0.75h-4.554l8.265 8.265c0.294 0.294 0.294 0.768 0.002 1.062z"></path>
</svg>
