<svg xmlns="http://www.w3.org/2000/svg" viewBox="0 0 1024 1024"><path d="M544 85.333c-265.088 0-480 214.912-480 480s214.912 480 480 480 480-214.912 480-480-214.912-480-480-480zm288 480v.128c0 4.16-.832 8.256-2.432 12.096a31.662 31.662 0 0 1-6.912 10.368l-192 192c-12.48 12.48-32.768 12.48-45.248 0s-12.48-32.768 0-45.248l137.344-137.344H224c-17.664 0-32-14.336-32-32s14.336-32 32-32h498.752L585.344 395.989c-12.48-12.48-12.48-32.768 0-45.248s32.768-12.48 45.248 0l192 192a31.662 31.662 0 0 1 6.912 10.368A31.17 31.17 0 0 1 832 565.333z"/></svg>