<!-- Generated by IcoMoon.io -->
<svg version="1.1" xmlns="http://www.w3.org/2000/svg" width="24" height="24" viewBox="0 0 24 24">
<title>arrow-fill-right-up</title>
<path d="M4.796 4.796c-4.394 4.393-4.394 11.517 0 15.91s11.517 4.393 15.91 0c4.393-4.393 4.393-11.517 0-15.91-4.395-4.393-11.517-4.393-15.91 0zM18 8.25v6.364c0 0.414-0.336 0.75-0.75 0.75s-0.75-0.336-0.75-0.75v-4.554l-8.265 8.265c-0.292 0.293-0.768 0.293-1.060 0s-0.293-0.768 0-1.061l8.265-8.265h-4.554c-0.414 0-0.75-0.336-0.75-0.75s0.336-0.75 0.75-0.75h6.364c0.098 0 0.195 0.019 0.287 0.058 0.183 0.077 0.33 0.222 0.405 0.405 0.039 0.092 0.058 0.189 0.058 0.286v0z"></path>
</svg>
