<!-- Generated by IcoMoon.io -->
<svg version="1.1" xmlns="http://www.w3.org/2000/svg" width="24" height="24" viewBox="0 0 24 24">
<title>arrow-fill-right</title>
<path d="M12.75 1.5c-6.213 0-11.25 5.037-11.25 11.25s5.037 11.25 11.25 11.25 11.25-5.037 11.25-11.25-5.037-11.25-11.25-11.25zM19.5 12.75c0 0.002 0 0.002 0 0.003 0 0.098-0.020 0.194-0.057 0.284-0.037 0.091-0.093 0.174-0.162 0.243l-4.5 4.5c-0.293 0.293-0.768 0.293-1.061 0s-0.293-0.768 0-1.061l3.219-3.219h-11.69c-0.414 0-0.75-0.336-0.75-0.75s0.336-0.75 0.75-0.75h11.69l-3.221-3.219c-0.293-0.293-0.293-0.768 0-1.061s0.768-0.293 1.061 0l4.5 4.5c0.069 0.069 0.125 0.152 0.162 0.243 0.039 0.091 0.058 0.189 0.058 0.287v0z"></path>
</svg>
