<svg xmlns="http://www.w3.org/2000/svg" viewBox="0 0 1024 1024"><path d="M544 85.333c-265.088 0-480 214.912-480 480s214.912 480 480 480 480-214.912 480-480-214.912-480-480-480zm214.656 566.656l-192 192a31.662 31.662 0 0 1-10.368 6.912 31.744 31.744 0 0 1-24.448 0c-3.84-1.6-7.232-3.904-10.112-6.72-.064-.064-.192-.064-.256-.192l-192-192c-12.48-12.48-12.48-32.768 0-45.248s32.768-12.48 45.248 0L512 744.085V245.333c0-17.664 14.336-32 32-32s32 14.336 32 32v498.752l137.344-137.344c12.48-12.48 32.768-12.48 45.248 0 12.544 12.48 12.544 32.704.064 45.248z"/></svg>