<!-- Generated by IcoMoon.io -->
<svg version="1.1" xmlns="http://www.w3.org/2000/svg" width="24" height="24" viewBox="0 0 24 24">
<title>at-sign</title>
<path d="M17.49 7.41h-2.7l-0.54 0.9c-0.54-0.81-1.35-1.26-2.43-1.26-3.060 0-5.49 2.7-5.49 6.3 0 2.61 1.26 3.87 3.78 3.87 1.35 0 2.34-0.54 3.15-1.71 0.090 1.17 0.99 1.71 2.61 1.71 1.26 0 2.52-0.45 3.6-1.26 1.89-1.44 2.88-3.6 2.88-6.12 0-4.77-3.78-8.19-9.54-8.19-3.69 0-6.93 1.44-9.090 4.050-1.62 1.89-2.43 4.23-2.43 6.84 0 2.97 1.080 5.31 3.24 7.020 1.89 1.53 4.32 2.34 7.2 2.34 2.97 0 5.58-0.9 8.010-2.61l-1.26-1.8c-1.89 1.35-4.050 2.070-6.48 2.070-4.95 0-8.1-2.79-8.1-7.11 0-2.79 1.26-5.22 3.51-6.84 1.44-0.99 3.33-1.53 5.4-1.53 4.32 0 7.020 2.43 7.020 5.76 0 2.97-1.89 5.22-3.69 5.22-0.36 0-0.54-0.18-0.54-0.54 0-0.090 0-0.18 0.090-0.36l1.8-6.75zM13.080 12.9c-0.36 1.44-1.26 2.25-2.34 2.25-0.81 0-1.26-0.63-1.26-1.71 0-2.34 1.26-4.32 2.61-4.32 0.81 0 1.35 0.54 1.44 1.62l-0.45 2.16z"></path>
</svg>
