<svg xmlns="http://www.w3.org/2000/svg" viewBox="0 0 1024 1024"><path d="M746.242 337.49H631.045l-23.043 38.399c-23.043-34.56-57.603-53.764-103.68-53.764-130.562 0-234.242 115.197-234.242 268.802 0 111.358 53.764 165.122 161.283 165.122 57.603 0 99.841-23.043 134.401-72.959 3.839 49.916 42.238 72.959 111.358 72.959 53.764 0 107.519-19.204 153.596-53.764 80.637-61.442 122.884-153.596 122.884-261.124 0-203.521-161.283-349.439-407.042-349.439-157.444 0-295.684 61.442-387.838 172.8C89.602 345.159 55.042 445 55.042 556.358c0 126.723 46.077 226.564 138.24 299.523 80.637 65.281 184.317 99.841 307.201 99.841 126.723 0 238.081-38.399 341.761-111.358l-53.764-76.798C707.843 825.169 615.68 855.89 512 855.89c-211.199 0-345.6-119.036-345.6-303.362 0-119.036 53.764-222.716 149.757-291.836 61.442-42.238 142.079-65.281 230.403-65.281 184.317 0 299.523 103.68 299.523 245.759 0 126.723-80.637 222.716-157.444 222.716-15.356 0-23.043-7.678-23.043-23.043 0-3.839 0-7.678 3.839-15.356l76.798-287.997zM558.077 571.732c-15.356 61.442-53.764 96.002-99.841 96.002-34.56 0-53.764-26.882-53.764-72.959 0-99.841 53.764-184.317 111.358-184.317 34.56 0 57.603 23.043 61.442 69.12l-19.204 92.163z"/></svg>