<!-- Generated by IcoMoon.io -->
<svg version="1.1" xmlns="http://www.w3.org/2000/svg" width="24" height="24" viewBox="0 0 24 24">
<title>attachment</title>
<path d="M3.377 5.729c-1.219 1.742-2.003 3.919-2.003 6.271s0.697 4.529 2.003 6.271v-12.542z"></path>
<path d="M16.006 3.813l4.529 4.529v9.929c1.219-1.742 2.003-3.919 2.003-6.271 0-5.923-4.79-10.8-10.626-10.8-2.613 0-5.052 0.958-6.881 2.613 0.087 0 10.974 0 10.974 0z"></path>
<path d="M19.403 9.387h-4.442v-4.442h-10.364v14.719c1.916 1.916 4.529 3.136 7.403 3.136s5.487-1.219 7.403-3.136v-10.277zM15.223 20.448c-0.523 0-0.958-0.174-1.481-0.61-1.219-1.045-7.142-7.142-7.403-7.403 0 0-0.697-0.784-0.61-1.742 0.087-0.697 0.348-1.306 1.045-1.829 0.348-0.261 0.61-0.523 0.871-0.697 1.742-1.568 2.787-2.264 5.313 0.436l4.093 4.094-0.697 0.61-4.094-4.093c-2.090-2.177-2.439-1.829-4.006-0.436-0.261 0.261-0.523 0.523-0.871 0.784-0.436 0.348-0.697 0.784-0.697 1.219 0 0.61 0.348 1.045 0.348 1.045 0.087 0.087 6.097 6.358 7.316 7.316 0.61 0.436 1.307 0.784 2.7-0.697 0.61-0.697 0-1.481-0.087-1.568-2.003-2.003-5.139-5.139-5.4-5.4-0.261-0.174-0.697 0.174-0.871 0.348-0.348 0.348-0.261 0.61-0.174 0.697l3.223 3.223-0.697 0.61-3.31-3.31c-0.174-0.348-0.436-1.132 0.261-1.829 1.045-1.045 1.829-0.697 2.090-0.436 0.348 0.261 4.964 4.964 5.487 5.487 0.436 0.523 1.045 1.742 0.087 2.787-0.784 0.871-1.655 1.393-2.439 1.393z"></path>
</svg>
