<svg xmlns="http://www.w3.org/2000/svg" viewBox="0 0 1024 1024"><path d="M144.104 265.773c-52.024 74.32-85.472 167.224-85.472 267.56s29.728 193.24 85.472 267.56v-535.12zm538.84-81.76l193.24 193.24v423.64c52.024-74.32 85.472-167.224 85.472-267.56 0-252.696-204.384-460.8-453.368-460.8-111.48 0-215.536 40.88-293.576 111.48h468.232zm144.928 237.84h-189.52v-189.52H196.136v628.024c81.752 81.752 193.24 133.784 315.872 133.784s234.12-52.024 315.872-133.784V421.853zM649.496 893.797c-22.296 0-40.88-7.432-63.176-26.016-52.024-44.592-304.72-304.72-315.872-315.872 0 0-29.728-33.448-26.016-74.32 3.72-29.728 14.864-55.744 44.592-78.04 14.864-11.152 26.016-22.296 37.16-29.728 74.32-66.888 118.92-96.616 226.68 18.584L727.52 563.061l-29.728 26.016-174.656-174.656c-89.184-92.904-104.048-78.04-170.944-18.584-11.152 11.152-22.296 22.296-37.16 33.448-18.584 14.864-29.728 33.448-29.728 52.024 0 26.016 14.864 44.592 14.864 44.592 3.72 3.72 260.128 271.28 312.152 312.152 26.016 18.584 55.744 33.448 115.2-29.728 26.016-29.728 0-63.176-3.72-66.888l-230.4-230.4c-11.152-7.432-29.728 7.432-37.16 14.864-14.864 14.864-11.152 26.016-7.432 29.728l137.496 137.496-29.728 26.016L415.36 577.925c-7.432-14.864-18.584-48.312 11.152-78.04 44.592-44.592 78.04-29.728 89.184-18.584 14.864 11.152 211.816 211.816 234.12 234.12 18.584 22.296 44.592 74.32 3.72 118.92-33.448 37.16-70.608 59.456-104.048 59.456z"/></svg>