<!-- Generated by IcoMoon.io -->
<svg version="1.1" xmlns="http://www.w3.org/2000/svg" width="24" height="24" viewBox="0 0 24 24">
<title>audio</title>
<path d="M7.214 20.842l-0.811-11.357 1.46-0.081c0.162 2.596 0.649 10.465 0.73 11.357l-1.379 0.081z"></path>
<path d="M16.786 20.842l-1.541-0.081c0.162-2.596 0.73-10.465 0.811-11.357l1.541 0.081-0.811 11.357z"></path>
<path d="M22.708 16.624c-0.162 2.515-2.434 4.381-4.948 4.3l0.811-11.276 0.081-0.892c0-3.164-3.002-5.76-6.652-5.76s-6.571 2.515-6.571 5.679l0.081 1.298 0.811 10.952c-2.677 0.162-4.948-1.785-5.111-4.381l-0.162-2.028c-0.081-1.866 0.973-3.569 2.596-4.462v-1.622c0-3.975 3.732-7.22 8.356-7.22s8.356 3.245 8.356 7.22v1.622c1.704 0.811 2.758 2.596 2.596 4.462l-0.243 2.109z"></path>
</svg>
