<svg xmlns="http://www.w3.org/2000/svg" viewBox="0 0 1000 1024"><path d="M910.643 227.567c0 57.932-46.934 104.902-104.852 104.96h-.006c-139.162-5.632-139.162-204.8 0-209.92 57.924.058 104.858 47.028 104.858 104.96zm89.395 312.832v209.306c-17.92 37.581-102.4 160.154-239.821 235.52v-501.76c-.135-44.747-15.082-85.976-40.191-119.071l.358.492h95.13c106.086-.614 184.525 69.427 184.525 175.514zM625.869 147.285c-.058 69.481-56.368 125.791-125.844 125.85h-.005c-167.014-6.656-167.014-245.146 0-251.802 69.517.058 125.85 56.427 125.85 125.952zM727.04 482.85v518.861c-57.799 27.421-125.567 43.489-197.074 43.622h-59.848c-71.417-.198-139.034-16.258-199.58-44.84l2.869 1.218V482.85v-.243c0-46.407 19.175-88.336 50.033-118.297l.04-.039c36.482-35.596 86.412-57.553 141.47-57.553.449 0 .897.001 1.345.004h67.413c.372-.002.813-.004 1.253-.004 55.098 0 105.068 21.955 141.638 57.595l-.043-.042c31.069 30.024 50.388 72.036 50.483 118.561v.018zM89.293 227.567c0 57.968 46.992 104.96 104.96 104.96h.324-.017c139.162-5.632 139.059-204.8 0-209.92h-.307c-57.968 0-104.96 46.992-104.96 104.96zM0 540.399v209.306c17.92 37.581 102.4 160.154 239.821 235.52v-501.76-.205c0-44.879 14.928-86.272 40.09-119.483l-.359.494H184.32C78.438 364.271 0 434.313 0 540.399z"/></svg>