<svg xmlns="http://www.w3.org/2000/svg" viewBox="0 0 1024 1024"><path d="M307.786 910.609l-34.612-484.576 62.304-3.46c6.924 110.76 27.69 446.5 31.152 484.576l-58.84 3.46zm408.428 0l-65.764-3.46c6.924-110.76 31.152-446.5 34.612-484.576l65.764 3.46-34.612 484.576zm252.67-179.986c-6.924 107.298-103.838 186.908-211.136 183.446l34.612-481.114 3.46-38.072c0-134.988-128.066-245.75-283.822-245.75S231.636 256.431 231.636 391.419l3.46 55.38 34.612 467.268C155.486 920.991 58.572 837.919 51.65 727.159l-6.924-86.532c-3.46-79.608 41.536-152.294 110.76-190.37v-69.224c0-169.602 159.218-308.05 356.51-308.05s356.51 138.45 356.51 308.05v69.224c72.686 34.612 117.682 110.76 110.76 190.37l-10.384 89.992z"/></svg>