<!-- Generated by IcoMoon.io -->
<svg version="1.1" xmlns="http://www.w3.org/2000/svg" width="23" height="24" viewBox="0 0 23 24">
<title>audience</title>
<path d="M21.343 4.834c0 1.358-1.1 2.459-2.457 2.46h-0c-3.262-0.132-3.262-4.8 0-4.92 1.358 0.001 2.458 1.102 2.458 2.46v0z"></path>
<path d="M23.438 12.166v4.906c-0.42 0.881-2.4 3.754-5.621 5.52v-11.76c-0.003-1.049-0.353-2.015-0.942-2.791l0.008 0.012h2.23c2.486-0.014 4.325 1.627 4.325 4.114z"></path>
<path d="M14.669 2.952c-0.001 1.628-1.321 2.948-2.949 2.95h-0c-3.914-0.156-3.914-5.746 0-5.902 1.629 0.001 2.95 1.323 2.95 2.952v0z"></path>
<path d="M17.040 10.817v12.161c-1.355 0.643-2.943 1.019-4.619 1.022h-1.403c-1.674-0.005-3.259-0.381-4.678-1.051l0.067 0.029v-12.161c0-0.002 0-0.004 0-0.006 0-1.088 0.449-2.070 1.173-2.773l0.001-0.001c0.855-0.834 2.025-1.349 3.316-1.349 0.011 0 0.021 0 0.032 0h1.58c0.009-0 0.019-0 0.029-0 1.291 0 2.463 0.515 3.32 1.35l-0.001-0.001c0.728 0.704 1.181 1.688 1.183 2.779v0z"></path>
<path d="M2.093 4.834c0 0 0 0 0 0 0 1.359 1.101 2.46 2.46 2.46 0.003 0 0.005 0 0.008 0h-0c3.262-0.132 3.259-4.8 0-4.92-0.002 0-0.005 0-0.007 0-1.359 0-2.46 1.101-2.46 2.46 0 0 0 0 0 0v0z"></path>
<path d="M0 12.166v4.906c0.42 0.881 2.4 3.754 5.621 5.52v-11.76c0-0.001 0-0.003 0-0.005 0-1.052 0.35-2.022 0.94-2.8l-0.008 0.012h-2.232c-2.482 0-4.32 1.642-4.32 4.128z"></path>
</svg>
