<!-- Generated by IcoMoon.io -->
<svg version="1.1" xmlns="http://www.w3.org/2000/svg" width="24" height="24" viewBox="0 0 24 24">
<title>bambinton</title>
<path d="M3.253 16.997l-0.741 0.741c-1.036 1.036-1.036 2.714 0 3.755 1.036 1.036 2.714 1.036 3.755 0v0l0.741-0.741-3.755-3.755z"></path>
<path d="M20.822 15.417l1.355-2.508 0.023-0.047c0.169-0.403 0-0.909-0.483-1.083l-2.189-0.548 0.394-2.634c0.066-0.422-0.291-0.881-0.712-0.928l-2.583-0.281-0.277-2.583c-0.042-0.427-0.506-0.783-0.928-0.717l-2.658 0.394-0.544-2.175-0.019-0.056c-0.155-0.413-0.666-0.638-1.092-0.459l-2.531 1.364c-0.216 0.098-0.38 0.291-0.441 0.502l-3.75 11.517v-0.005l-0.352 1.064 3.75 3.75 1.050-0.389-0.005-0.005 11.47-3.741c0.234-0.061 0.427-0.225 0.52-0.431zM18.647 8.841l-0.366 2.452-6.694 3.905-0.942-0.942 5.667-5.672 2.334 0.258zM6.253 16.753l2.086-3.562 0.787 0.787-2.827 2.817-0.047-0.042zM7.2 17.705l2.822-2.822 0.778 0.778-3.567 2.081-0.033-0.038zM15.173 5.367l0.248 2.334-5.672 5.658-0.952-0.952 3.909-6.675 2.466-0.366zM11.17 3.155l0.478 1.912-3.75 6.431-0.773-0.769 2.133-6.544 1.913-1.031zM6.82 11.677l0.619 0.619-0.928 1.594-0.919 1.57 1.228-3.783zM8.625 18.375l3.089-1.805 0.605 0.605-3.694 1.2zM13.252 16.866l-0.755-0.755 6.436-3.764 1.898 0.473-1.031 1.913-6.548 2.133z"></path>
</svg>
