<svg xmlns="http://www.w3.org/2000/svg" viewBox="0 0 1024 1024"><path d="M138.8 746.533l-31.6 31.6c-44.2 44.2-44.2 115.8 0 160.2 44.2 44.2 115.8 44.2 160.2 0l31.6-31.6-160.2-160.2zm749.6-67.4l57.8-107 1-2c7.2-17.2 0-38.8-20.6-46.2l-93.4-23.4 16.8-112.4c2.8-18-12.4-37.6-30.4-39.6l-110.2-12-11.8-110.2c-1.8-18.2-21.6-33.4-39.6-30.6l-113.4 16.8-23.2-92.8-.8-2.4c-6.6-17.6-28.4-27.2-46.6-19.6l-108 58.2c-9.2 4.2-16.2 12.4-18.8 21.4l-160 491.4v-.2l-15 45.4 160 160 44.8-16.6-.2-.2 489.4-159.6c10-2.6 18.2-9.6 22.2-18.4zm-92.8-280.6l-15.6 104.6-285.6 166.6-40.2-40.2 241.8-242 99.6 11zm-528.8 337.6l89-152 33.6 33.6-120.6 120.2-2-1.8zm40.4 40.6l120.4-120.4 33.2 33.2-152.2 88.8-1.4-1.6zm340.2-526.4l10.6 99.6-242 241.4-40.6-40.6 166.8-284.8 105.2-15.6zm-170.8-94.4l20.4 81.6-160 274.4-33-32.8 91-279.2 81.6-44zM291 519.533l26.4 26.4-39.6 68-39.2 67 52.4-161.4zm77 285.8l131.8-77 25.8 25.8-157.6 51.2zm197.4-64.4l-32.2-32.2 274.6-160.6 81 20.2-44 81.6-279.4 91z"/></svg>