<!-- Generated by IcoMoon.io -->
<svg version="1.1" xmlns="http://www.w3.org/2000/svg" width="24" height="24" viewBox="0 0 24 24">
<title>baloons</title>
<path d="M17.962 8.433c-2.362-0.877-5.105 0.642-6.155 3.478-0.82 2.217 0.113 5.245 1.186 6.698-0.703 0.441-1.294 0.984-0.989 1.298 0.155 0.159 0.352 0.314 0.577 0.45l0.112 1.205c-0.047 0.023-0.117 0.038-0.23 0.056-0.206 0.038-0.548 0.098-0.703 0.445-0.178 0.394-0.066 0.881 0.033 1.308l0.037 0.169c0.047 0.206 0.225 0.347 0.431 0.347 0.033 0 0.061-0.005 0.094-0.009 0.239-0.052 0.389-0.286 0.337-0.525l-0.042-0.178c-0.042-0.188-0.117-0.506-0.108-0.675 0.023-0.005 0.056-0.009 0.080-0.014 0.244-0.047 0.652-0.117 0.905-0.548 0.047-0.080 0.070-0.173 0.061-0.267l-0.084-0.886c0.23 0.075 0.455 0.127 0.656 0.141 0.412 0.033 0.473-0.68 0.394-1.458 1.692-0.122 4.898-1.931 5.808-4.387 1.050-2.831-0.037-5.77-2.4-6.647zM16.777 9.844c-0.417 0.544-1.017 0.642-1.627 0.938-1.866 0.9-2.297 2.405-2.592 3.769-0.122-0.82-0.094-1.669 0.178-2.405 0.694-1.875 2.32-3.023 3.928-2.958 0.239 0.014 0.258 0.469 0.112 0.656z"></path>
<path d="M10.191 16.612c0.136-0.141 0.267-0.305 0.403-0.478-0.431-1.617-0.427-3.206 0.028-4.439 0.314-0.848 0.778-1.598 1.341-2.222-0.905-2.573-3.267-4.106-5.541-3.544-2.447 0.6-3.863 3.398-3.136 6.333 0.623 2.531 3.577 4.688 5.255 5.011-0.3 0.891-0.431 1.791 0.056 1.852 0.211 0.023 0.445 0.023 0.689 0l-0.080 0.839c-0.009 0.094 0.014 0.188 0.061 0.267 0.253 0.427 0.661 0.502 0.905 0.548 0.023 0.005 0.052 0.009 0.080 0.014 0.014 0.164-0.061 0.487-0.108 0.675l-0.042 0.183c-0.112 0.516 0.188 1.139 0.248 1.261 0.080 0.155 0.234 0.239 0.394 0.239 0.066 0 0.136-0.014 0.202-0.047 0.216-0.108 0.305-0.375 0.192-0.591-0.094-0.178-0.206-0.525-0.173-0.675l0.037-0.169c0.098-0.431 0.216-0.914 0.033-1.308-0.155-0.342-0.502-0.408-0.703-0.445-0.113-0.019-0.183-0.038-0.23-0.056l0.084-0.905c0.389-0.117 0.755-0.277 1.031-0.464 0.45-0.323-0.248-1.186-1.027-1.88zM6.745 7.355c-0.145 0.67-0.642 1.012-1.064 1.542-1.294 1.617-1.036 3.159-0.717 4.519-0.464-0.689-0.802-1.467-0.872-2.245-0.178-1.992 0.792-3.727 2.273-4.359 0.22-0.094 0.431 0.309 0.38 0.544z"></path>
<path d="M8.030 4.594c0.188-1.683 1.186-3.037 2.527-3.506 0.225-0.080 0.413 0.337 0.347 0.567-0.188 0.661-0.708 0.97-1.167 1.467-0.473 0.516-0.769 1.036-0.942 1.552 1.819 0.352 3.394 1.748 4.177 3.708 0.82-0.731 1.805-1.214 2.836-1.364 0.15-0.502 0.244-1.008 0.244-1.509-0.005-3.023-2.048-5.395-4.566-5.395-2.287 0-4.172 1.959-4.505 4.58 0.3-0.061 0.605-0.098 0.914-0.098 0.042-0.005 0.089 0 0.136 0z"></path>
</svg>
