<svg xmlns="http://www.w3.org/2000/svg" viewBox="0 0 1024 1024"><path d="M766.4 381.133c-100.8-37.4-217.8 27.4-262.6 148.4-35 94.6 4.8 223.8 50.6 285.8-30 18.8-55.2 42-42.2 55.4 6.6 6.8 15 13.4 24.6 19.2l4.8 51.4c-2 1-5 1.6-9.8 2.4-8.8 1.6-23.4 4.2-30 19-7.6 16.8-2.8 37.6 1.4 55.8l1.6 7.2c2 8.8 9.6 14.8 18.4 14.8 1.4 0 2.6-.2 4-.4 10.2-2.2 16.6-12.2 14.4-22.4l-1.8-7.6c-1.8-8-5-21.6-4.6-28.8 1-.2 2.4-.4 3.4-.6 10.4-2 27.8-5 38.6-23.4 2-3.4 3-7.4 2.6-11.4l-3.6-37.8c9.8 3.2 19.4 5.4 28 6 17.6 1.4 20.2-29 16.8-62.2 72.2-5.2 209-82.4 247.8-187.2 44.8-120.8-1.6-246.2-102.4-283.6zm-50.6 60.2c-17.8 23.2-43.4 27.4-69.4 40-79.6 38.4-98 102.6-110.6 160.8-5.2-35-4-71.2 7.6-102.6 29.6-80 99-129 167.6-126.2 10.2.6 11 20 4.8 28zm-281 288.8c5.8-6 11.4-13 17.2-20.4-18.4-69-18.2-136.8 1.2-189.4 13.4-36.2 33.2-68.2 57.2-94.8-38.6-109.8-139.4-175.2-236.4-151.2-104.4 25.6-164.8 145-133.8 270.2 26.6 108 152.6 200 224.2 213.8-12.8 38-18.4 76.4 2.4 79 9 1 19 1 29.4 0l-3.4 35.8c-.4 4 .6 8 2.6 11.4 10.8 18.2 28.2 21.4 38.6 23.4 1 .2 2.2.4 3.4.6.6 7-2.6 20.8-4.6 28.8l-1.8 7.8c-4.8 22 8 48.6 10.6 53.8 3.4 6.6 10 10.2 16.8 10.2 2.8 0 5.8-.6 8.6-2 9.2-4.6 13-16 8.2-25.2-4-7.6-8.8-22.4-7.4-28.8l1.6-7.2c4.2-18.4 9.2-39 1.4-55.8-6.6-14.6-21.4-17.4-30-19-4.8-.8-7.8-1.6-9.8-2.4l3.6-38.6c16.6-5 32.2-11.8 44-19.8 19.2-13.8-10.6-50.6-43.8-80.2zm-147-395c-6.2 28.6-27.4 43.2-45.4 65.8-55.2 69-44.2 134.8-30.6 192.8-19.8-29.4-34.2-62.6-37.2-95.8-7.6-85 33.8-159 97-186 9.4-4 18.4 13.2 16.2 23.2zm54.8-117.8c8-71.8 50.6-129.6 107.8-149.6 9.6-3.4 17.6 14.4 14.8 24.2-8 28.2-30.2 41.4-49.8 62.6-20.2 22-32.8 44.2-40.2 66.2 77.6 15 144.8 74.6 178.2 158.2 35-31.2 77-51.8 121-58.2 6.4-21.4 10.4-43 10.4-64.4-.2-129-87.4-230.2-194.8-230.2-97.6 0-178 83.6-192.2 195.4 12.8-2.6 25.8-4.2 39-4.2 1.8-.2 3.8 0 5.8 0z"/></svg>