<!-- Generated by IcoMoon.io -->
<svg version="1.1" xmlns="http://www.w3.org/2000/svg" width="24" height="24" viewBox="0 0 24 24">
<title>barge-ship</title>
<path d="M23.625 12.558l-23.231 0.005v0.473c0 1.936 1.584 3.52 3.52 3.52 1.444 0 16.364 0.038 16.416-0.009 1.28-1.181 1.95-1.842 3.272-3.108 0.080-0.075 0.023-0.727 0.023-0.881zM12.563 14.461c-0.211 0-0.384-0.169-0.384-0.384 0-0.211 0.169-0.384 0.384-0.384 0.211 0 0.384 0.173 0.384 0.384s-0.173 0.384-0.384 0.384zM14.423 14.461c-0.211 0-0.384-0.169-0.384-0.384 0-0.211 0.169-0.384 0.384-0.384 0.211 0 0.384 0.173 0.384 0.384s-0.169 0.384-0.384 0.384zM16.284 14.461c-0.211 0-0.384-0.169-0.384-0.384 0-0.211 0.169-0.384 0.384-0.384s0.389 0.173 0.384 0.384c0 0.211-0.169 0.384-0.384 0.384zM18.15 14.461c-0.211 0-0.384-0.169-0.384-0.384 0-0.211 0.169-0.384 0.384-0.384 0.211 0 0.384 0.173 0.384 0.384s-0.169 0.384-0.384 0.384zM20.011 14.461c-0.211 0-0.384-0.169-0.384-0.384 0-0.211 0.169-0.384 0.384-0.384s0.384 0.173 0.384 0.384-0.169 0.384-0.384 0.384z"></path>
<path d="M8.339 10.772h-0.577v-3.286h-0.323v-0.558h-3.286v0.558h-0.408v3.286h-0.516v-0.966h-1.439v0.966h-0.384v1.589h6.933v-1.589zM5.241 10.35h-1.195v-0.3h1.195v0.3zM5.241 9.567h-1.195v-0.3h1.195v0.3zM5.241 8.784h-1.195v-0.3h1.195v0.3zM5.625 7.509h-1.191v-0.305h1.191v0.305zM5.967 7.205h1.195v0.305h-1.195v-0.305zM7.462 10.35h-1.195v-0.3h1.195v0.3zM7.462 9.567h-1.195v-0.3h1.195v0.3zM7.462 8.784h-1.195v-0.3h1.195v0.3z"></path>
<path d="M21.169 10.514h1.87v1.805h-1.87v-1.805z"></path>
<path d="M18.947 10.514h1.866v1.805h-1.866v-1.805z"></path>
<path d="M16.72 10.514h1.87v1.805h-1.87v-1.805z"></path>
<path d="M14.498 10.514h1.866v1.805h-1.866v-1.805z"></path>
<path d="M12.272 10.514h1.87v1.805h-1.87v-1.805z"></path>
<path d="M10.050 10.514h1.866v1.805h-1.866v-1.805z"></path>
<path d="M20.077 8.475h1.866v1.8h-1.866v-1.8z"></path>
<path d="M17.85 8.475h1.87v1.8h-1.87v-1.8z"></path>
<path d="M15.628 8.475h1.866v1.8h-1.866v-1.8z"></path>
<path d="M13.402 8.475h1.87v1.8h-1.87v-1.8z"></path>
<path d="M11.18 8.475h1.866v1.8h-1.866v-1.8z"></path>
<path d="M19.003 6.37h1.866v1.8h-1.866v-1.8z"></path>
<path d="M16.777 6.37h1.87v1.8h-1.87v-1.8z"></path>
<path d="M14.555 6.37h1.866v1.8h-1.866v-1.8z"></path>
<path d="M12.328 6.37h1.87v1.8h-1.87v-1.8z"></path>
</svg>
