<svg xmlns="http://www.w3.org/2000/svg" viewBox="0 0 1024 1024"><path d="M1008 557.133l-991.2.2v20.2c0 82.6 67.6 150.2 150.2 150.2 61.6 0 698.2 1.6 700.4-.4 54.6-50.4 83.2-78.6 139.6-132.6 3.4-3.2 1-31 1-37.6zm-472 81.2c-9 0-16.4-7.2-16.4-16.4 0-9 7.2-16.4 16.4-16.4 9 0 16.4 7.4 16.4 16.4s-7.4 16.4-16.4 16.4zm79.4 0c-9 0-16.4-7.2-16.4-16.4 0-9 7.2-16.4 16.4-16.4 9 0 16.4 7.4 16.4 16.4s-7.2 16.4-16.4 16.4zm79.4 0c-9 0-16.4-7.2-16.4-16.4 0-9 7.2-16.4 16.4-16.4s16.6 7.4 16.4 16.4c0 9-7.2 16.4-16.4 16.4zm79.6 0c-9 0-16.4-7.2-16.4-16.4 0-9 7.2-16.4 16.4-16.4 9 0 16.4 7.4 16.4 16.4s-7.2 16.4-16.4 16.4zm79.4 0c-9 0-16.4-7.2-16.4-16.4 0-9 7.2-16.4 16.4-16.4s16.4 7.4 16.4 16.4-7.2 16.4-16.4 16.4zm-498-157.4h-24.6v-140.2h-13.8v-23.8H177.2v23.8h-17.4v140.2h-22v-41.2H76.4v41.2H60v67.8h295.8v-67.8zm-132.2-18h-51v-12.8h51v12.8zm0-33.4h-51v-12.8h51v12.8zm0-33.4h-51v-12.8h51v12.8zm16.4-54.4h-50.8v-13H240v13zm14.6-13h51v13h-51v-13zm63.8 134.2h-51v-12.8h51v12.8zm0-33.4h-51v-12.8h51v12.8zm0-33.4h-51v-12.8h51v12.8zm584.8 73.8H983v77h-79.8v-77zm-94.8 0H888v77h-79.6v-77zm-95 0h79.8v77h-79.8v-77zm-94.8 0h79.6v77h-79.6v-77zm-95 0h79.8v77h-79.8v-77zm-94.8 0h79.6v77h-79.6v-77zm427.8-87h79.6v76.8h-79.6v-76.8zm-95 0h79.8v76.8h-79.8v-76.8zm-94.8 0h79.6v76.8h-79.6v-76.8zm-95 0h79.8v76.8h-79.8v-76.8zm-94.8 0h79.6v76.8H477v-76.8zm333.8-89.8h79.6v76.8h-79.6v-76.8zm-95 0h79.8v76.8h-79.8v-76.8zm-94.8 0h79.6v76.8H621v-76.8zm-95 0h79.8v76.8H526v-76.8z"/></svg>