<!-- Generated by IcoMoon.io -->
<svg version="1.1" xmlns="http://www.w3.org/2000/svg" width="24" height="24" viewBox="0 0 24 24">
<title>bars-upward</title>
<path d="M22.9 12.2c-0.1-0.1-0.3-0.1-0.6-0.1-0.5 0-1.3-0.1-2.1-0.1-0.4 0-0.8 0-1 0-0.1 0-0.2 0-0.2 0s-2.3-0.1-3.1-0.1c-1 0-1 0.5-0.5 1.2 0.2 0.3 0.7 0.9 1.1 1.6v0l-4.8 4-1.7-2.3-1.6-2.1v-0.1l-6 4.3c-0.8 0.6-1.2 1-1.2 1.7 0 0 0 0.1 0 0.1 0 0.6 0 2.3 0 2.8s0.3 0.6 0.7 0.4l5.1-3.8 2.8 3.8 0.4 0.5 3.2-2.2 5.4-4c0 0 0.1 0.1 0.1 0.1 0.5 0.7 1.1 1.5 1.4 1.9 0.6 0.8 1 0.5 1.1 0.1s0.9-3.3 0.9-3.3 0-0.1 0-0.1c0.2-0.5 0.7-2.5 0.9-3.1s0.1-1-0.3-1.2z"></path>
<path d="M11 15.8v-11c0-0.5-0.4-0.8-0.9-0.8h-3.1c-0.5 0-0.8 0.3-0.8 0.8v9.6l2.5-1.8 2.3 3.2z"></path>
<path d="M14.5 13.1c-0.3-0.4-0.4-1.1-0.1-1.6 0.3-0.4 1-0.6 1.5-0.6 0.3 0 0.8 0 1.1 0v-9.6c0-0.6-0.4-1.1-0.8-1.1h-3.2c-0.5 0-0.8 0.5-0.8 1.1v15.7l3.2-2.5c-0.1-0.1-0.6-1-0.9-1.4z"></path>
</svg>
