<svg xmlns="http://www.w3.org/2000/svg" viewBox="0 0 1024 1024"><path d="M977.067 541.866c-4.267-4.267-12.8-4.267-25.6-4.267-21.333 0-55.467-4.267-89.6-4.267h-51.2s-98.133-4.267-132.267-4.267c-42.667 0-42.667 21.333-21.333 51.2 8.533 12.8 29.867 38.4 46.933 68.267L499.2 819.199l-72.533-98.133-68.267-89.6v-4.267l-256 183.467c-34.133 25.6-51.2 42.667-51.2 72.533v123.734c0 21.334 12.8 25.6 29.867 17.067l217.6-162.133L418.134 1024l17.067 21.333 136.533-93.867 230.4-170.667 4.267 4.267c21.333 29.867 46.933 64 59.733 81.067 25.6 34.133 42.667 21.333 46.933 4.267s38.4-140.8 38.4-140.8v-4.267C960 704 981.334 618.666 989.867 593.066s4.267-42.667-12.8-51.2zm-507.734 153.6V226.133c0-21.333-17.067-34.133-38.4-34.133H298.666c-21.333 0-34.133 12.8-34.133 34.133v409.6l106.667-76.8 98.133 136.533zm149.334-115.2c-12.8-17.067-17.067-46.933-4.267-68.267 12.8-17.067 42.667-25.6 64-25.6h46.933v-409.6c0-25.6-17.067-46.933-34.133-46.933H554.667c-21.333 0-34.133 21.333-34.133 46.933v669.867l136.533-106.667c-4.267-4.267-25.6-42.667-38.4-59.733z"/></svg>