<svg xmlns="http://www.w3.org/2000/svg" viewBox="0 0 1024 1024"><path d="M132.506 566.715c-23.347 26.112-5.734 69.018 28.467 69.018h82.842v368.64c.007.278.011.606.011.934 0 21.756-17.353 39.46-38.973 40.025l-.052.001H39.015c-21.662-.508-39.028-18.189-39.028-39.926 0-.364.005-.726.015-1.088l-.001.053V62.292a36.725 36.725 0 0 1-.013-1.034c0-21.737 17.366-39.417 38.981-39.925l.047-.001h165.786c21.672.566 39.025 18.269 39.025 40.026 0 .329-.004.656-.012.983l.001-.048v380.109zm389.734-266.24c-23.04 26.112-5.325 69.018 28.877 69.018h82.739v634.88c.009.309.013.672.013 1.037 0 21.701-17.309 39.359-38.873 39.922l-.052.001H429.056c-21.617-.564-38.925-18.223-38.925-39.923 0-.365.005-.728.015-1.09l-.001.053v-368.64h82.739c34.202 0 51.917-42.906 28.467-69.018L390.145 442.401V62.292a36.897 36.897 0 0 1-.013-1.037c0-21.701 17.309-39.359 38.873-39.922l.052-.001h165.888c21.617.564 38.925 18.223 38.925 39.923 0 .365-.005.728-.015 1.09l.001-.053v113.869zM1024 62.293v942.08c.009.308.013.671.013 1.034 0 21.737-17.366 39.417-38.981 39.925l-.047.001H819.199c-21.672-.566-39.025-18.269-39.025-40.026 0-.329.004-.656.012-.983l-.001.048v-634.88h82.842c34.202 0 51.814-42.906 28.467-69.018L780.185 176.16V62.291a38.265 38.265 0 0 1-.011-.934c0-21.756 17.353-39.46 38.973-40.025l.052-.001h165.786c21.662.508 39.028 18.189 39.028 39.926 0 .364-.005.726-.015 1.088l.001-.053z"/></svg>