<!-- Generated by IcoMoon.io -->
<svg version="1.1" xmlns="http://www.w3.org/2000/svg" width="24" height="24" viewBox="0 0 24 24">
<title>bars-up</title>
<path d="M3.106 12.782c-0.547 0.612-0.134 1.618 0.667 1.618h1.942v8.64c0 0.007 0 0.014 0 0.022 0 0.51-0.407 0.925-0.913 0.938l-0.001 0h-3.886c-0.508-0.012-0.915-0.426-0.915-0.936 0-0.009 0-0.017 0-0.026l-0 0.001v-22.080c-0-0.007-0-0.016-0-0.024 0-0.509 0.407-0.924 0.914-0.936l0.001-0h3.886c0.508 0.013 0.915 0.428 0.915 0.938 0 0.008-0 0.015-0 0.023l0-0.001v8.909z"></path>
<path d="M12.24 6.542c-0.54 0.612-0.125 1.618 0.677 1.618h1.939v14.88c0 0.007 0 0.016 0 0.024 0 0.509-0.406 0.922-0.911 0.936l-0.001 0h-3.888c-0.507-0.013-0.912-0.427-0.912-0.936 0-0.009 0-0.017 0-0.026l-0 0.001v-8.64h1.939c0.802 0 1.217-1.006 0.667-1.618l-2.606-2.914v-8.909c-0-0.007-0-0.016-0-0.024 0-0.509 0.406-0.922 0.911-0.936l0.001-0h3.888c0.507 0.013 0.912 0.427 0.912 0.936 0 0.009-0 0.017-0 0.026l0-0.001v2.669z"></path>
<path d="M24 0.96v22.080c0 0.007 0 0.016 0 0.024 0 0.509-0.407 0.924-0.914 0.936l-0.001 0h-3.886c-0.508-0.013-0.915-0.428-0.915-0.938 0-0.008 0-0.015 0-0.023l-0 0.001v-14.88h1.942c0.802 0 1.214-1.006 0.667-1.618l-2.609-2.914v-2.669c-0-0.007-0-0.014-0-0.022 0-0.51 0.407-0.925 0.913-0.938l0.001-0h3.886c0.508 0.012 0.915 0.426 0.915 0.936 0 0.009-0 0.017-0 0.026l0-0.001z"></path>
</svg>
