<svg xmlns="http://www.w3.org/2000/svg" viewBox="0 0 1024 1024"><path d="M512 71.333c-255.2 0-462 206.8-462 462s206.8 462 462 462 462-206.8 462-462-206.8-462-462-462zm0 858c-218.4 0-396-177.6-396-396s177.6-396 396-396 396 177.6 396 396-177.6 396-396 396zm-129.8-385.2h-79.8c-12.4 0-22.4-10-22.4-22.4s10-22.4 22.4-22.4h79.8c12.4 0 22.4 10 22.4 22.4s-10 22.4-22.4 22.4zm-85.8-80c-11.4 0-21-8.6-22.2-20-1.4-12.4 7.6-23.4 20-24.8l79.4-8.6c12.2-1.2 23.4 7.6 24.8 20s-7.6 23.4-20 24.8l-79.4 8.6h-2.6zm-15.8-71.8c-9.8 0-18.8-6.6-21.6-16.4-3.4-12 3.6-24.4 15.6-27.6l76.8-21.4c12-3.4 24.4 3.6 27.6 15.6 3.4 12-3.6 24.4-15.6 27.6l-76.8 21.4c-2 .4-4 .8-6 .8zm-23-68c-7.4 0-14.4-3.6-18.8-10.2-6.8-10.4-4-24.2 6.4-31.2l66.8-43.8c10.4-6.8 24.2-4 31 6.4s4 24.2-6.4 31.2l-66.6 43.8c-3.8 2.6-8.2 3.8-12.4 3.8zm112.6 310.2c-1 0-2 0-3-.2l-79.2-10.6c-12.2-1.6-21-13-19.2-25.2 1.6-12.4 12.8-20.8 25.2-19.4l79.2 10.6c12.2 1.6 21 13 19.2 25.2-1.4 11.4-11 19.6-22.2 19.6zm-20.2 84.2c-2.2 0-4.4-.4-6.6-1l-76.4-23.2c-11.8-3.6-18.6-16.2-15-28s16.2-18.4 28-15l76.4 23.2c11.8 3.6 18.6 16.2 15 28-3 9.8-11.8 16-21.4 16zm-35.6 96c-4.4 0-8.8-1.4-12.8-4l-65.6-45.6c-10.2-7-12.6-21-5.6-31.2s21-12.6 31.2-5.6l65.6 45.6c10.2 7 12.6 21 5.6 31.2-4.2 6.2-11.2 9.6-18.4 9.6zm409.4-270.6H644c-12.4 0-22.4-10-22.4-22.4s10-22.4 22.4-22.4h79.8c12.4 0 22.4 10 22.4 22.4s-10 22.4-22.4 22.4zm6-80c-.8 0-1.6 0-2.4-.2l-79.4-8.6c-12.4-1.4-21.2-12.4-20-24.8 1.4-12.4 12.4-21.2 24.8-20l79.4 8.6c12.4 1.4 21.2 12.4 20 24.8-1.4 11.8-11 20.2-22.4 20.2zm15.8-71.8c-2 0-4-.2-6-.8l-76.8-21.4c-12-3.4-19-15.6-15.6-27.6s15.6-19 27.6-15.6l76.8 21.4c12 3.4 19 15.6 15.6 27.6-2.6 9.8-11.8 16.4-21.6 16.4zm23-68c-4.2 0-8.6-1.2-12.4-3.6l-66.8-43.8c-10.4-6.8-13.2-20.8-6.4-31.2s20.8-13.2 31-6.4l66.8 43.8c10.4 6.8 13.2 20.8 6.4 31.2-4.2 6.4-11.2 10-18.6 10zM656 634.533c-11.2 0-20.8-8.2-22.2-19.6-1.6-12.2 7-23.6 19.4-25.2l79.2-10.6c12.4-1.6 23.6 7 25.2 19.4 1.6 12.2-7 23.6-19.4 25.2l-79.2 10.6c-1 0-2 .2-3 .2zm20.4 84.2c-9.6 0-18.6-6.2-21.4-15.8-3.6-11.8 3-24.4 15-28l76.4-23.2c11.8-3.6 24.4 3 28 15 3.6 11.8-3 24.4-15 28l-76.4 23.2c-2.4.6-4.6.8-6.6.8zm35.4 96c-7 0-14-3.4-18.4-9.6-7-10.2-4.6-24.2 5.6-31.2l65.6-45.6c10.2-7 24.2-4.6 31.2 5.6s4.6 24.2-5.6 31.2l-65.6 45.6c-4 2.8-8.4 4-12.8 4z"/></svg>