<!-- Generated by IcoMoon.io -->
<svg version="1.1" xmlns="http://www.w3.org/2000/svg" width="24" height="24" viewBox="0 0 24 24">
<title>baseballl</title>
<path d="M12 1.172c-5.981 0-10.828 4.847-10.828 10.828s4.847 10.828 10.828 10.828c5.981 0 10.828-4.847 10.828-10.828s-4.847-10.828-10.828-10.828zM12 21.281c-5.119 0-9.281-4.163-9.281-9.281s4.163-9.281 9.281-9.281c5.119 0 9.281 4.163 9.281 9.281s-4.163 9.281-9.281 9.281z"></path>
<path d="M8.958 12.253h-1.87c-0.291 0-0.525-0.234-0.525-0.525s0.234-0.525 0.525-0.525h1.87c0.291 0 0.525 0.234 0.525 0.525s-0.234 0.525-0.525 0.525z"></path>
<path d="M6.947 10.378c-0.267 0-0.492-0.202-0.52-0.469-0.033-0.291 0.178-0.548 0.469-0.581l1.861-0.202c0.286-0.028 0.548 0.178 0.581 0.469s-0.178 0.548-0.469 0.581l-1.861 0.202c-0.023 0-0.042 0-0.061 0z"></path>
<path d="M6.577 8.695c-0.23 0-0.441-0.155-0.506-0.384-0.080-0.281 0.084-0.572 0.366-0.647l1.8-0.502c0.281-0.080 0.572 0.084 0.647 0.366 0.080 0.281-0.084 0.572-0.366 0.647l-1.8 0.502c-0.047 0.009-0.094 0.019-0.141 0.019z"></path>
<path d="M6.038 7.102c-0.173 0-0.338-0.084-0.441-0.239-0.159-0.244-0.094-0.567 0.15-0.731l1.566-1.027c0.244-0.159 0.567-0.094 0.727 0.15s0.094 0.567-0.15 0.731l-1.561 1.027c-0.089 0.061-0.192 0.089-0.291 0.089z"></path>
<path d="M8.677 14.372c-0.023 0-0.047 0-0.070-0.005l-1.856-0.248c-0.286-0.037-0.492-0.305-0.45-0.591 0.037-0.291 0.3-0.488 0.591-0.455l1.856 0.248c0.286 0.038 0.492 0.305 0.45 0.591-0.033 0.267-0.258 0.459-0.52 0.459z"></path>
<path d="M8.203 16.345c-0.052 0-0.103-0.009-0.155-0.023l-1.791-0.544c-0.277-0.084-0.436-0.38-0.352-0.656s0.38-0.431 0.656-0.352l1.791 0.544c0.277 0.084 0.436 0.38 0.352 0.656-0.070 0.23-0.277 0.375-0.502 0.375z"></path>
<path d="M7.369 18.595c-0.103 0-0.206-0.033-0.3-0.094l-1.538-1.069c-0.239-0.164-0.295-0.492-0.131-0.731s0.492-0.295 0.731-0.131l1.537 1.069c0.239 0.164 0.295 0.492 0.131 0.731-0.098 0.145-0.262 0.225-0.431 0.225z"></path>
<path d="M16.964 12.253h-1.87c-0.291 0-0.525-0.234-0.525-0.525s0.234-0.525 0.525-0.525h1.87c0.291 0 0.525 0.234 0.525 0.525s-0.234 0.525-0.525 0.525z"></path>
<path d="M17.105 10.378c-0.019 0-0.037 0-0.056-0.005l-1.861-0.202c-0.291-0.033-0.497-0.291-0.469-0.581 0.033-0.291 0.291-0.497 0.581-0.469l1.861 0.202c0.291 0.033 0.497 0.291 0.469 0.581-0.033 0.277-0.258 0.473-0.525 0.473z"></path>
<path d="M17.475 8.695c-0.047 0-0.094-0.005-0.141-0.019l-1.8-0.502c-0.281-0.080-0.445-0.366-0.366-0.647s0.366-0.445 0.647-0.366l1.8 0.502c0.281 0.080 0.445 0.366 0.366 0.647-0.061 0.23-0.277 0.384-0.506 0.384z"></path>
<path d="M18.014 7.102c-0.098 0-0.202-0.028-0.291-0.084l-1.566-1.027c-0.244-0.159-0.309-0.488-0.15-0.731s0.487-0.309 0.727-0.15l1.566 1.027c0.244 0.159 0.309 0.488 0.15 0.731-0.098 0.15-0.263 0.234-0.436 0.234z"></path>
<path d="M15.375 14.372c-0.263 0-0.487-0.192-0.52-0.459-0.037-0.286 0.164-0.553 0.455-0.591l1.856-0.248c0.291-0.037 0.553 0.164 0.591 0.455 0.038 0.286-0.164 0.553-0.455 0.591l-1.856 0.248c-0.023 0-0.047 0.005-0.070 0.005z"></path>
<path d="M15.853 16.345c-0.225 0-0.436-0.145-0.502-0.37-0.084-0.277 0.070-0.572 0.352-0.656l1.791-0.544c0.277-0.084 0.572 0.070 0.656 0.352 0.084 0.277-0.070 0.572-0.352 0.656l-1.791 0.544c-0.056 0.014-0.108 0.019-0.155 0.019z"></path>
<path d="M16.683 18.595c-0.164 0-0.328-0.080-0.431-0.225-0.164-0.239-0.108-0.567 0.131-0.731l1.538-1.069c0.239-0.164 0.567-0.108 0.731 0.131s0.108 0.567-0.131 0.731l-1.538 1.069c-0.094 0.066-0.197 0.094-0.3 0.094z"></path>
</svg>
