<svg xmlns="http://www.w3.org/2000/svg" viewBox="0 0 1024 1024"><path d="M987.2 587.533c2-18 3.2-36.2 3.2-54.4 0-122.4-46.8-244.6-140-338-85.8-85.8-196-132-308.2-139-21.2-1.4-42.4-1.2-63.4.2-111 7.8-219.8 54-304.8 138.8-52 52-89.4 113-112.4 177.8-6.6 18.6-12 37.8-16.2 57-34 154.2 8.8 321.8 128.8 441.6 140.2 140.2 346 175.2 518.8 104.8 16.8-6.8 33.2-14.8 49.2-23.6 39-21.4 75.6-48.4 108.4-81.2 79.2-79.6 124.8-180.2 136.6-284zm-67-18.6c-6.6 75.2-34 148.8-81.8 211.8-15.4-63-37.6-119.4-64.8-170.2 43.6-31.4 96-46.2 146.6-41.6zm-118.4-325.6c75.8 76 115.6 174.4 119.6 274-60.2-4.6-121.8 12.6-173.6 48.8-19-29.8-39.6-57.2-61.2-82.6 78.2-100.6 105.8-186.8 115.2-240.2zm-47-40.2c-2.2 33-17 125-104.6 241-31.8-32.2-65.2-60.6-99-85.4 38.4-71.4 46.4-154.8 23.8-230.2 63.8 9.6 125.6 34.6 179.8 74.6zm-235.6-79.4c26 65.8 22.4 141-10.4 205.4-98.8-64.6-194.4-100.6-250.2-118 76-60 168.6-89.2 260.6-87.4zm-304.8 127.8c40.8 10.8 151.6 45.2 266.8 120.6-6.2 7.6-12.6 15.2-19.6 22.2-83.2 83.2-238.6 91.2-343.8 26.8 17.4-61.8 49.8-120.2 96.6-169.6zm-23 537.4c-72.8-91-101-206-85-315.6 123.8 65.4 296.6 52.2 391.2-42.6 9.2-9.2 17.8-19 25.6-29.2 32.2 24 64 51.4 94.2 82.6-82.4 95-214.8 202.4-426 304.8zm36.2 39.4c206.8-102 340-208.6 425.6-305 19.6 23.4 37.8 49 54.8 76.2-12 12.2-23.2 25.6-33.4 40.2-59.2 86.4-65.6 193.8-22.6 278.6-142.8 51.8-308.6 21.6-424.4-90zm471.4 69.8c-36.2-69-31-157.8 18-229.4 5.4-8 11.4-15.4 17.6-22.6 27.4 53.6 49 114.2 61.8 182-29.8 28.8-62.6 52-97.4 70z"/></svg>