<!-- Generated by IcoMoon.io -->
<svg version="1.1" xmlns="http://www.w3.org/2000/svg" width="24" height="24" viewBox="0 0 24 24">
<title>basketball</title>
<path d="M23.138 13.27c0.047-0.422 0.075-0.848 0.075-1.275 0-2.869-1.097-5.733-3.281-7.922-2.011-2.011-4.594-3.094-7.223-3.258-0.497-0.033-0.994-0.028-1.486 0.005-2.602 0.183-5.152 1.266-7.144 3.253-1.219 1.219-2.095 2.648-2.634 4.167-0.155 0.436-0.281 0.886-0.38 1.336-0.797 3.614 0.206 7.542 3.019 10.35 3.286 3.286 8.109 4.106 12.159 2.456 0.394-0.159 0.778-0.347 1.153-0.553 0.914-0.502 1.772-1.134 2.541-1.903 1.856-1.866 2.925-4.223 3.202-6.656zM21.567 12.834c-0.155 1.762-0.797 3.488-1.917 4.964-0.361-1.477-0.881-2.798-1.519-3.989 1.022-0.736 2.25-1.083 3.436-0.975zM18.792 5.203c1.777 1.781 2.709 4.087 2.803 6.422-1.411-0.108-2.855 0.295-4.069 1.144-0.445-0.698-0.928-1.341-1.434-1.936 1.833-2.358 2.48-4.378 2.7-5.63 0 0 0 0 0 0zM17.691 4.261c-0.052 0.773-0.398 2.93-2.452 5.648-0.745-0.755-1.528-1.42-2.32-2.002 0.9-1.673 1.087-3.628 0.558-5.395 1.495 0.225 2.944 0.811 4.214 1.748zM12.169 2.4c0.609 1.542 0.525 3.305-0.244 4.814-2.316-1.514-4.556-2.358-5.864-2.766 1.781-1.406 3.952-2.091 6.108-2.048zM5.025 5.395c0.956 0.253 3.553 1.059 6.253 2.827-0.145 0.178-0.295 0.356-0.459 0.52-1.95 1.95-5.592 2.138-8.058 0.628 0.408-1.448 1.167-2.817 2.264-3.975zM4.486 17.991c-1.706-2.133-2.367-4.828-1.992-7.397 2.902 1.533 6.952 1.223 9.169-0.998 0.216-0.216 0.417-0.445 0.6-0.684 0.755 0.563 1.5 1.205 2.208 1.936-1.931 2.227-5.034 4.744-9.984 7.144zM5.334 18.914c4.847-2.391 7.969-4.889 9.975-7.148 0.459 0.548 0.886 1.148 1.284 1.786-0.281 0.286-0.544 0.6-0.783 0.942-1.388 2.025-1.538 4.542-0.53 6.53-3.347 1.214-7.233 0.506-9.947-2.109zM16.383 20.55c-0.848-1.617-0.727-3.698 0.422-5.377 0.127-0.188 0.267-0.361 0.413-0.53 0.642 1.256 1.148 2.677 1.448 4.266-0.698 0.675-1.467 1.219-2.283 1.641z"></path>
</svg>
