<svg xmlns="http://www.w3.org/2000/svg" viewBox="0 0 1024 1024"><path d="M629.2 303.933l-16-16c-11.8-11.8-30.8-11.8-42.4 0-11.8 11.8-11.8 30.8 0 42.4l16 16c5.8 5.8 13.6 8.8 21.2 8.8 26.4 0 40.2-32.2 21.2-51.2zm-149.2 67.2c26.4 0 40.2-32.2 21.2-51.2l-16-16c-11.8-11.8-30.8-11.8-42.4 0-11.8 11.8-11.8 30.8 0 42.4l16 16c5.8 5.8 13.6 8.8 21.2 8.8zm149.2 60.8l-16-16c-11.8-11.8-30.8-11.8-42.4 0-11.8 11.8-11.8 30.8 0 42.4l16 16c5.8 5.8 13.6 8.8 21.2 8.8 26.4 0 40.2-32.2 21.2-51.2zm394.8 190.6c0-16.6-13.4-30-30-30H126v-375.2c0-43.4 35.8-76.8 76.8-76.4 17.6 0 34.6 6.2 48.2 17.4l15.4 12.6c-21.8 41.6-15.4 94.2 19.6 129 .2 0-2.8-2.8 45.2 45.2 11.8 11.8 30.8 11.8 42.4 0l113.2-113.2c11.8-11.8 11.8-30.8 0-42.4l-45.2-45.2c-36.4-36.2-91.6-41.8-133.8-17l-18.8-15.4c-24.4-20-55-31-86.6-31-75.4 0-136.4 61.2-136.4 136.4v375.2H30c-16.6 0-30 13.4-30 30s13.4 30 30 30h964c16.6 0 30-13.4 30-30zm-81.8 48.6H81.8l12.8 70.2c19 104.6 96.6 185.8 195.4 212.4v43.2c0 16.6 13.4 30 30 30s30-13.4 30-30v-34.2c8.2.4 314.6.4 324 0v34.2c0 16.6 13.4 30 30 30s30-13.4 30-30v-43.2c98.6-26.6 176.4-107.8 195.4-212.4l12.8-70.2z"/></svg>