<!-- Generated by IcoMoon.io -->
<svg version="1.1" xmlns="http://www.w3.org/2000/svg" width="24" height="24" viewBox="0 0 24 24">
<title>bath</title>
<path d="M14.747 6.623l-0.375-0.375c-0.277-0.277-0.722-0.277-0.994 0-0.277 0.277-0.277 0.722 0 0.994l0.375 0.375c0.136 0.136 0.319 0.206 0.497 0.206 0.619 0 0.942-0.755 0.497-1.2z"></path>
<path d="M11.25 8.198c0.619 0 0.942-0.755 0.497-1.2l-0.375-0.375c-0.277-0.277-0.722-0.277-0.994 0-0.277 0.277-0.277 0.722 0 0.994l0.375 0.375c0.136 0.136 0.319 0.206 0.497 0.206v0z"></path>
<path d="M14.747 9.623l-0.375-0.375c-0.277-0.277-0.722-0.277-0.994 0-0.277 0.277-0.277 0.722 0 0.994l0.375 0.375c0.136 0.136 0.319 0.206 0.497 0.206 0.619 0 0.942-0.755 0.497-1.2z"></path>
<path d="M24 14.091c0-0.389-0.314-0.703-0.703-0.703-0.712 0-19.622 0-20.344 0v-8.794c0-1.017 0.839-1.8 1.8-1.791 0.412 0 0.811 0.145 1.13 0.408l0.361 0.295c-0.511 0.975-0.361 2.208 0.459 3.023 0.005 0-0.066-0.066 1.059 1.059 0.277 0.277 0.722 0.277 0.994 0l2.653-2.653c0.277-0.277 0.277-0.722 0-0.994l-1.059-1.059c-0.853-0.848-2.147-0.98-3.136-0.398l-0.441-0.361c-0.572-0.469-1.289-0.727-2.030-0.727-1.767 0-3.197 1.434-3.197 3.197v8.794h-0.844c-0.389 0-0.703 0.314-0.703 0.703s0.314 0.703 0.703 0.703h22.594c0.389 0 0.703-0.314 0.703-0.703z"></path>
<path d="M22.083 15.23h-20.166l0.3 1.645c0.445 2.452 2.264 4.355 4.58 4.978v1.013c0 0.389 0.314 0.703 0.703 0.703s0.703-0.314 0.703-0.703v-0.802c0.192 0.009 7.373 0.009 7.594 0v0.802c0 0.389 0.314 0.703 0.703 0.703s0.703-0.314 0.703-0.703v-1.013c2.311-0.623 4.134-2.527 4.58-4.978l0.3-1.645z"></path>
</svg>
