<!-- Generated by IcoMoon.io -->
<svg version="1.1" xmlns="http://www.w3.org/2000/svg" width="24" height="24" viewBox="0 0 24 24">
<title>bear</title>
<path d="M3.185 11.008c0 0.127 0 0.381-0.19 0.317-0.064 0-0.254-0.063-0.302-0.126 0.048-0.064-0.126-0.302 0.048-0.365 0.127 0.063 0.381 0.063 0.444 0.174v0z"></path>
<path d="M21.307 15.007c-0.015-0.010-0.022-0.013-0.026-0.014 0.015 0.014 0.026 0.020 0.026 0.014z"></path>
<path d="M23.64 14.515c-0.746-1.539-0.683-2.698-0.555-4.237-0.19-1.285-1.048-2.396-1.968-3.38-1.238-1.285-3.253-1.349-4.92-0.858-2.634 0.302-4.855-2.586-7.426-0.746-1.175 1.111-2.222 2.285-3.571 2.951-0.428 0.189-0.92-0.302-1.349-0.175-0.428 0.063-0.492 0.539-0.619 0.794-0.175 0-0.175-0.302-0.428-0.19-0.492 0.126-0.428 0.619-0.428 1.047-0.175 0.317-0.603 0.492-0.73 0.81 0 0.92-1.111 1.158-1.539 1.904-0.127 0.111 0.063 0.237 0.063 0.364 0.302 0.491 0.984 0.667 1.54 0.603l-0.191 0.064c-0.19 0.19 0.063 0.428 0.253 0.555 0.238 0.19 0.667 0.063 0.968 0 0.492-0.238 0.683 0.316 1.112 0.19s0.983-0.492 1.476-0.19c0.253 0.253 0.983 0.253 0.793 0.746-0.301 0.54-0.603 1.159-0.983 1.65-0.54 0.683-1.413 0.555-1.952 1.174-0.063 0.112 0 0.302 0 0.429 0.174 0.126 0.048 0.174 0.603 0.237s2.714 0.064 3.205-0.063c0.112-0.048 0.175-0.111 0.175-0.111 0.794-0.81 1.285-1.666 2.158-2.46 0.492-0.126 0.492 0.492 0.921 0.73 0 0.92-1.238 0.555-1.539 1.412-0.064 0.127-0.064 0.19 0.063 0.317 0.491 0.111 0.984 0 1.476 0 0.603 0 1.284-0.063 1.777-0.063 0.619-0.317 1.539-2.222 1.048-3.444 0.491-0.239 1.095-0.127 1.65-0.127l0.063 0.063c0.063 0.555 0.619 1.048 0.491 1.729-0.174 0.968-1.476 0.667-1.714 1.587 0 0.126 0 0.253 0.064 0.316 0.73 0.238 1.586 0.048 2.396 0.048 0.491 0 0.984 0.063 1.285-0.301 0.491-1.285 0.793-2.396 1.777-3.444 0.127 0 0.317-0.064 0.317 0.063 0.603 0.555 1.158 0.794 1.84 1.238 0.111 0.175 0.064 0.238 0 0.365-0.683 0.667-1.729 0.857-1.904 1.649-0.063 0.19 0 0.19 0.112 0.254 0.92 0.174 1.968 0 2.887 0.063 0.555-0.063 0.873-0.555 1.238-0.984 0.238-0.428 0.603-0.92 0.603-1.539l-0.539-1.046zM12.706 16.61c-0.19 0.365-0.619 1.095-1.111 1.048-0.127 0-1.413 0.111-1.84 0.111-0.429 0-0.492 0-0.555-0.063 0-0.048 0.19-0.238 0.301-0.301 0.063-0.064 0.683-0.191 0.92-0.302 0.254-0.19 0.254-0.81 0.127-0.857-0.127-0.126-0.365-0.491-0.365-0.491s0.794-0.127 0.858-0.253c0.063-0.127 0.618-0.238 0.683-0.238 0.111-0.064 0.539-0.127 0.667-0.127 0.126 0.063 0.555 0 0.555 0s0 0 0.064 0.301c0.001 0.316-0.19 0.808-0.301 1.173zM19.704 13.532c-0.491 0.189-1.174 0.746-1.238 1.048-0.111 0.126-0.667 0.983-0.73 1.349-0.19 0.316-0.127 0.19-0.555 1.349-0.127 0.253-0.063 0.428-0.619 0.619-0.794 0-1.221 0-2.079 0.063-0.126 0-0.364-0.063-0.364-0.126 0.238-0.667 1.222-0.302 1.523-1.048 0.81-1.032-0.491-1.778-0.491-2.888 0-0.92 0.491-1.714 0.873-2.444 0-0.127-0.064-0.064-0.19-0.064-0.302 0.112-0.302 0.302-0.555 0.603-0.126 0.317-0.126 0.254-0.364 0.682-0.064 0.19-0.254-0.428-0.302-0.428 0-0.127-0.253 0.555-0.19 0.92 0 0.126-0.364-0.428-0.491-0.302 0.063 0.112 0.301 0.667 0.73 1.032-1.714 0-2.507 0.127-3.126-0.301-0.683-1.111-0.063 0.428-1.174 1.048-0.539 0.364-0.857 0.491-1.285 0.793-0.73 0.428-1.586 2.158-2.079 2.333-0.683 0.254-3.205 0.127-3.205 0.127 0-0.428 0.921-0.619 1.476-0.92 0.428-0.491 1.413-2.031 1.476-2.206l0.984-1.856c0.127-0.174 0.428-1.158 0.238-1.158 0 0-0.301 0.428-0.365 0.555-0.238 0.301-0.428 0.603-0.793 0.793 0-0.301 0.364-0.491 0.189-1.048-0.253 0.254-0.683 1.112-0.683 1.112-0.126 0.238-0.253 0.301-0.428 0.491l0.127-0.92c0-0.064-0.064-0.064-0.19-0.064-0.238 0.619-0.619 0.73-1.349 1.112-0.555 0.301-0.921-0.317-1.476 0-0.302 0.063-0.683 0.238-0.857 0 0.238-0.19 0.793-0.253 0.793-0.746l-0.238-0.063c-0.555 0.126-1.301 0.428-1.793-0.064-0.111-0.048-0.175-0.174-0.175-0.301 0.555-0.619 1.523-0.983 1.523-1.904 0.619-0.73 1.603-1.158 1.666-2.143 0.127-0.127 0.428-0.063 0.619-0.063 0.555 0.175 0.92 0.794 1.048 1.349 0.048 0.064 0.111 0 0.175 0s-0.175-0.983-0.175-1.048c0.175-0.063 0.476-0.365 0.794-0.555 0.428-0.302 0.618-0.492 0.73-0.603 0.619-0.555 0.92-0.873 1.111-1.048l0.857-0.746 0.682-0.365c0.301-0.127 0.73-0.238 0.856-0.238 1.715 0.048 2.951 2.269 5.459 1.459 1.968-0.603 3.697-0.539 4.919 0.746 0.857 0.92 1.777 2.143 1.841 3.126 0 0.428-0.175 0.381-0.667 0.316-0.365-0.127-0.19 0.111-0.19 0.238-0.239 0.555-0.365 0.81-0.555 0.984-0.365 0.682-0.857 0.983-1.095 1.111-0.126 0.127-0.38 0.175-0.619 0.302zM23.147 17.102c0 0-0.381 0.428-0.491 0.491-0.19 0.112-1.111 0.064-1.476 0.112-0.365 0-1.349 0.127-1.349 0 0-0.301 1.031-0.794 1.285-0.857 0.19 0 0.618-0.301 0.73-0.428 0.317-0.301 0-0.794 0-0.794s-0.623-0.637-0.566-0.632c-0.134-0.113-0.75-0.876-0.466-1.145 1.222-1.238 1.285-1.412 1.523-2.221 0.127-0.239 0.317 0 0.317 0s-0.063 0.983 0.175 1.84c0.189 0.555 0.618 1.476 0.683 1.539 0.127 0.127 0.365 0.619 0.365 0.682 0 0.111-0.064 0.491-0.175 0.667-0.062 0.189-0.555 0.745-0.555 0.745z"></path>
</svg>
