<svg xmlns="http://www.w3.org/2000/svg" viewBox="0 0 1040 1024"><path d="M135.897 491.018c0 5.421 0 16.264-8.116 13.537-2.728 0-10.843-2.694-12.889-5.387 2.046-2.728-5.387-12.889 2.046-15.583 5.421 2.694 16.264 2.694 18.958 7.433zm773.201 170.625c-.648-.409-.921-.546-1.125-.58.648.614 1.125.853 1.125.58zm99.532-21.004c-31.847-65.672-29.12-115.114-23.698-180.787-8.116-54.829-44.702-102.226-83.948-144.199-52.818-54.829-138.812-57.557-209.907-36.587-112.386 12.889-207.144-110.34-316.837-31.813-50.123 47.396-94.792 97.485-152.349 125.923-18.276 8.082-39.246-12.889-57.557-7.467-18.276 2.694-21.004 23.016-26.392 33.859-7.467 0-7.467-12.889-18.276-8.116-21.004 5.387-18.276 26.392-18.276 44.668-7.467 13.537-25.743 21.004-31.165 34.575 0 39.246-47.396 49.408-65.672 81.255-5.421 4.739 2.694 10.127 2.694 15.549 12.889 20.97 41.975 28.438 65.706 25.743l-8.15 2.728c-8.116 8.116 2.694 18.276 10.809 23.698 10.162 8.116 28.438 2.694 41.292 0 21.004-10.162 29.12 13.503 47.43 8.116 18.276-5.421 41.941-21.004 62.979-8.116 10.809 10.809 41.941 10.809 33.825 31.813-12.855 23.05-25.709 49.442-41.941 70.412-23.05 29.12-60.285 23.698-83.267 50.089-2.694 4.774 0 12.889 0 18.31 7.433 5.387 2.046 7.433 25.709 10.127 23.698 2.728 115.797 2.728 136.766-2.694 4.774-2.046 7.467-4.739 7.467-4.739 33.859-34.541 54.829-71.094 92.064-104.953 21.004-5.387 21.004 21.004 39.281 31.165 0 39.246-52.818 23.663-65.672 60.251-2.728 5.421-2.728 8.116 2.694 13.537 20.97 4.739 41.975 0 62.979 0 25.709 0 54.795-2.694 75.834-2.694 26.392-13.537 65.672-94.792 44.702-146.927 20.97-10.196 46.714-5.421 70.412-5.421l2.694 2.694c2.694 23.698 26.392 44.702 20.97 73.788-7.433 41.292-62.979 28.438-73.14 67.718 0 5.387 0 10.809 2.728 13.503 31.131 10.162 67.684 2.046 102.226 2.046 20.97 0 41.975 2.694 54.829-12.855 20.97-54.829 33.825-102.226 75.834-146.927 5.421 0 13.537-2.728 13.537 2.694 25.709 23.698 49.408 33.859 78.527 52.818 4.739 7.467 2.728 10.162 0 15.583-29.12 28.438-73.788 36.553-81.255 70.378-2.694 8.116 0 8.116 4.774 10.843 39.246 7.433 83.948 0 123.196 2.694 23.698-2.694 37.269-23.698 52.818-41.975 10.162-18.276 25.743-39.246 25.743-65.672l-23.016-44.634zm-466.526 89.404c-8.116 15.583-26.392 46.714-47.396 44.702-5.421 0-60.285 4.739-78.527 4.739-18.31 0-21.004 0-23.698-2.694 0-2.046 8.116-10.162 12.855-12.855 2.694-2.728 29.12-8.15 39.246-12.889 10.843-8.116 10.843-34.541 5.421-36.553-5.421-5.387-15.583-20.97-15.583-20.97s33.859-5.421 36.587-10.809c2.694-5.421 26.358-10.162 29.12-10.162 4.739-2.728 23.016-5.421 28.438-5.421 5.387 2.694 23.663 0 23.663 0l2.728 12.855c.034 13.469-8.116 34.473-12.855 50.055zm298.594-131.344c-20.97 8.082-50.089 31.813-52.818 44.702-4.739 5.387-28.438 41.941-31.131 57.557-8.116 13.503-5.421 8.116-23.698 57.557-5.421 10.809-2.694 18.276-26.392 26.392-33.859 0-52.101 0-88.723 2.694-5.387 0-15.549-2.694-15.549-5.387 10.162-28.438 52.135-12.889 64.99-44.702 34.541-44.021-20.97-75.868-20.97-123.23 0-39.246 20.97-73.14 37.235-104.271 0-5.421-2.728-2.728-8.116-2.728-12.889 4.774-12.889 12.889-23.698 25.743-5.387 13.537-5.387 10.843-15.549 29.12-2.728 8.116-10.843-18.242-12.889-18.242 0-5.421-10.809 23.663-8.116 39.246 0 5.387-15.549-18.276-20.97-12.889 2.694 4.774 12.855 28.472 31.131 44.021-73.14 0-106.965 5.421-133.39-12.855-29.12-47.396-2.694 18.276-50.089 44.702-23.016 15.549-36.553 20.97-54.829 33.825-31.131 18.276-67.684 92.064-88.723 99.531-29.12 10.843-136.766 5.421-136.766 5.421 0-18.276 39.281-26.392 62.979-39.246 18.276-20.97 60.285-86.677 62.979-94.144l41.975-79.209c5.421-7.433 18.276-49.408 10.162-49.408 0 0-12.855 18.276-15.583 23.698-10.162 12.855-18.276 25.709-33.825 33.825 0-12.855 15.549-20.97 8.082-44.702-10.809 10.843-29.12 47.43-29.12 47.43-5.387 10.162-10.809 12.855-18.276 20.97l5.421-39.246c0-2.728-2.728-2.728-8.116-2.728-10.162 26.392-26.392 31.165-57.557 47.43-23.698 12.855-39.281-13.537-62.979 0-12.889 2.694-29.12 10.162-36.553 0 10.162-8.116 33.825-10.809 33.825-31.847l-10.162-2.694c-23.663 5.387-55.512 18.276-76.481-2.728-4.739-2.046-7.467-7.433-7.467-12.855 23.698-26.392 64.99-41.941 64.99-81.255 26.392-31.131 68.401-49.408 71.094-91.416 5.421-5.421 18.276-2.694 26.392-2.694 23.698 7.467 39.246 33.859 44.702 57.557 2.046 2.728 4.739 0 7.467 0 2.694 0-7.467-41.941-7.467-44.702 7.467-2.694 20.322-15.583 33.859-23.663 18.276-12.889 26.358-21.004 31.131-25.743 26.392-23.698 39.246-37.235 47.396-44.702l36.553-31.813 29.12-15.583c12.855-5.421 31.131-10.162 36.519-10.162 73.174 2.046 125.923 96.804 232.922 62.263 83.948-25.709 157.736-23.016 209.873 31.847 36.553 39.246 75.834 91.416 78.561 133.39 0 18.242-7.467 16.264-28.438 13.503-15.583-5.421-8.116 4.739-8.116 10.162-10.196 23.698-15.583 34.541-23.698 41.975-15.583 29.12-36.553 41.941-46.714 47.396-5.387 5.421-16.23 7.467-26.392 12.889zm146.927 152.315s-16.264 18.276-20.97 20.97c-8.116 4.774-47.396 2.728-62.979 4.774-15.583 0-57.557 5.421-57.557 0 0-12.855 43.987-33.859 54.829-36.553 8.116 0 26.358-12.855 31.131-18.276 13.537-12.855 0-33.859 0-33.859s-26.596-27.176-24.141-26.972c-5.728-4.842-31.983-37.371-19.879-48.862 52.135-52.818 54.829-60.251 64.99-94.758 5.421-10.196 13.537 0 13.537 0s-2.694 41.941 7.467 78.527c8.082 23.698 26.358 62.979 29.12 65.672 5.421 5.421 15.583 26.392 15.583 29.12 0 4.739-2.728 20.97-7.467 28.438-2.66 8.082-23.663 31.779-23.663 31.779z"/></svg>