<svg xmlns="http://www.w3.org/2000/svg" viewBox="0 0 1024 1024"><path d="M945.778 748.444c-46.222-45.156-142.222-86.4-142.222-301.156s-112-302.933-206.222-320.711c-6.4-1.067-12.8-2.133-18.844-3.2V83.555c0-34.489-28.8-62.222-64-62.222s-64 27.733-64 62.222v38.756c-7.467 1.067-15.644 2.489-23.822 3.911C332.446 144 220.446 232.533 220.446 446.933s-96 256.356-142.222 301.156C32.002 793.245 42.668 883.2 167.113 883.2c81.067 0 242.133-1.067 344.889-1.778 102.756.711 264.178 1.778 344.889 1.778 124.444 0 135.111-89.956 88.889-134.756zm-431.289 296.889c63.644 0 115.556-50.133 115.556-112.356H398.578c.356 62.222 52.267 112.356 115.911 112.356z"/></svg>