<!-- Generated by IcoMoon.io -->
<svg version="1.1" xmlns="http://www.w3.org/2000/svg" width="24" height="24" viewBox="0 0 24 24">
<title>bell</title>
<path d="M22.167 17.042c-1.083-1.058-3.333-2.025-3.333-7.058s-2.625-7.1-4.833-7.517c-0.15-0.025-0.3-0.050-0.442-0.075v-0.933c0-0.808-0.675-1.458-1.5-1.458s-1.5 0.65-1.5 1.458v0.908c-0.175 0.025-0.367 0.058-0.558 0.092-2.208 0.417-4.833 2.492-4.833 7.517s-2.25 6.008-3.333 7.058c-1.083 1.058-0.833 3.167 2.083 3.167 1.9 0 5.675-0.025 8.083-0.042 2.408 0.017 6.192 0.042 8.083 0.042 2.917 0 3.167-2.108 2.083-3.158z"></path>
<path d="M12.058 24c1.492 0 2.708-1.175 2.708-2.633h-5.425c0.008 1.458 1.225 2.633 2.717 2.633z"></path>
</svg>
