<!-- Generated by IcoMoon.io -->
<svg version="1.1" xmlns="http://www.w3.org/2000/svg" width="24" height="24" viewBox="0 0 24 24">
<title>bike</title>
<path d="M19.42 11.020c-0.084 0-0.173 0.005-0.258 0.009l-0.291-0.928c0.178-0.023 0.361-0.037 0.548-0.037 0.042 0 0.089 0 0.131 0.005 0.417-0.253 1.702-1.069 1.575-1.514-0.262-0.933-1.012-2.184-3.131-3.637 0 0-1.814 1.214-2.081 1.43-0.267 0.22 0.783 0.539 0.567 0.97-0.206 0.389-0.37 0.933-0.37 0.933l-1.331-0.6-2.48-0.291c0 0-1.359 0.23-1.692 1.336-0.141 0.469-0.225 0.764-0.225 0.764l-2.878-0.647-0.741-1.528-3.938-0.469c0 0-1.158-0.591-1.228-0.591-0.413 0-0.272 0.436 0.375 1.739 1.261 0.666 5.719 2.855 5.719 2.855l1.317 1.903-0.005 0.047-1.42 0.155c-0.52-1.125-1.659-1.903-2.977-1.903-1.814 0-3.281 1.472-3.281 3.281s1.467 3.281 3.281 3.281c1.378 0 2.555-0.848 3.042-2.053l1.434-0.155 0.548 0.656h5.916c-0.239-0.53-0.37-1.116-0.37-1.73 0-0.005 0-0.005 0-0.009l0.998-0.534c-0.028 0.178-0.047 0.356-0.047 0.544 0 1.814 1.467 3.281 3.281 3.281s3.281-1.472 3.281-3.281-1.458-3.281-3.272-3.281zM4.608 16.097c-0.989 0-1.791-0.802-1.791-1.791s0.802-1.791 1.791-1.791 1.791 0.802 1.791 1.791c0.005 0.989-0.802 1.791-1.791 1.791zM19.42 16.097c-0.989 0-1.791-0.802-1.791-1.791s0.802-1.791 1.791-1.791 1.791 0.802 1.791 1.791c0 0.989-0.802 1.791-1.791 1.791z"></path>
</svg>
