<svg xmlns="http://www.w3.org/2000/svg" viewBox="0 0 1024 1024"><path d="M828.6 491.533c-3.6 0-7.4.2-11 .4l-12.4-39.6c7.6-1 15.4-1.6 23.4-1.6 1.8 0 3.8 0 5.6.2 17.8-10.8 72.6-45.6 67.2-64.6-11.2-39.8-43.2-93.2-133.6-155.2 0 0-77.4 51.8-88.8 61-11.4 9.4 33.4 23 24.2 41.4-8.8 16.6-15.8 39.8-15.8 39.8l-56.8-25.6-105.8-12.4s-58 9.8-72.2 57c-6 20-9.6 32.6-9.6 32.6l-122.8-27.6-31.6-65.2-168-20s-49.4-25.2-52.4-25.2c-17.6 0-11.6 18.6 16 74.2 53.8 28.4 244 121.8 244 121.8l56.2 81.2-.2 2-60.6 6.6c-22.2-48-70.8-81.2-127-81.2-77.4 0-140 62.8-140 140s62.6 140 140 140c58.8 0 109-36.2 129.8-87.6l61.2-6.6 23.4 28h252.4c-10.2-22.6-15.8-47.6-15.8-73.8v-.4l42.6-22.8c-1.2 7.6-2 15.2-2 23.2 0 77.4 62.6 140 140 140s140-62.8 140-140-62.2-140-139.6-140zm-632 216.6c-42.2 0-76.4-34.2-76.4-76.4s34.2-76.4 76.4-76.4 76.4 34.2 76.4 76.4c.2 42.2-34.2 76.4-76.4 76.4zm632 0c-42.2 0-76.4-34.2-76.4-76.4s34.2-76.4 76.4-76.4 76.4 34.2 76.4 76.4-34.2 76.4-76.4 76.4z"/></svg>