<svg xmlns="http://www.w3.org/2000/svg" viewBox="0 0 1024 1024"><path d="M594.8 440.733c-23.2 5-49.4-4.6-67.6-25-31.8-35.6-29.8-83.8 11.8-121s89.8-33.8 121.6 1.8c18.2 20.4 25 47.4 17.4 70 27.2-10.4 55.4.4 77.6 25.4 48.8 54.6 25.8 107.2-7.4 136.8-33.2 29.8-88 46.8-136.8-7.8-22.2-25.2-29.8-54.4-16.6-80.2zm28.6-51.8c16.2-14.4 20.6-35.2 2.2-55.6-17-19-39.2-18.4-55.4-3.8-16.2 14.4-19.4 36.6-2.4 55.6 18.4 20.2 39.4 18.4 55.6 3.8zm92 102.8c19.2-17.2 21.2-42.2 1.2-64.4-12.4-13.8-40.8-29.2-65.4-7.2s-12.4 51.8 0 65.8c20 22 45 22.8 64.2 5.8zM512 66.933c-257.6 0-466.4 208.8-466.4 466.4s208.8 466.4 466.4 466.4c257.6 0 466.4-208.8 466.4-466.4S769.6 66.933 512 66.933zm-229.6 210.2c-1.4 1.4-130.8 133.6-94.8 309.2 2.8 14.2-6.2 28-20.4 31-1.8.4-3.6.6-5.2.6-12.2 0-23.2-8.6-25.6-21-41.8-204 103-350.8 109.2-357 10.2-10.2 26.8-10.2 37.2.2 10 10.2 9.8 26.8-.4 37zm473.4 348.8c-100 59.2-236.2 13.8-304.2-101.2s-42.4-256.2 57.6-315.4c100-59.2 236-13.8 304.2 101.2 68 115 42.2 256.2-57.6 315.4z"/></svg>