<!-- Generated by IcoMoon.io -->
<svg version="1.1" xmlns="http://www.w3.org/2000/svg" width="24" height="24" viewBox="0 0 24 24">
<title>billiards</title>
<path d="M13.941 9.83c-0.544 0.117-1.158-0.108-1.584-0.586-0.745-0.834-0.698-1.964 0.277-2.836s2.105-0.792 2.85 0.042c0.427 0.478 0.586 1.111 0.408 1.641 0.638-0.244 1.298 0.009 1.819 0.595 1.144 1.28 0.605 2.512-0.173 3.206-0.778 0.698-2.063 1.097-3.206-0.183-0.52-0.591-0.698-1.275-0.389-1.88zM14.611 8.616c0.38-0.338 0.483-0.825 0.052-1.303-0.398-0.445-0.919-0.431-1.298-0.089-0.38 0.338-0.455 0.858-0.056 1.303 0.431 0.473 0.923 0.431 1.303 0.089zM16.767 11.025c0.45-0.403 0.497-0.989 0.028-1.509-0.291-0.323-0.956-0.684-1.533-0.169s-0.291 1.214 0 1.542c0.469 0.516 1.055 0.534 1.505 0.136z"></path>
<path d="M12 1.069c-6.038 0-10.931 4.894-10.931 10.931s4.894 10.931 10.931 10.931c6.038 0 10.931-4.894 10.931-10.931s-4.894-10.931-10.931-10.931zM6.619 5.995c-0.033 0.033-3.066 3.131-2.222 7.247 0.066 0.333-0.145 0.656-0.478 0.727-0.042 0.009-0.084 0.014-0.122 0.014-0.286 0-0.544-0.202-0.6-0.492-0.98-4.781 2.414-8.222 2.559-8.367 0.239-0.239 0.628-0.239 0.872 0.005 0.234 0.239 0.23 0.628-0.009 0.867zM17.714 14.17c-2.344 1.387-5.536 0.323-7.13-2.372s-0.994-6.005 1.35-7.392c2.344-1.388 5.531-0.323 7.13 2.372 1.594 2.695 0.989 6.005-1.35 7.392z"></path>
</svg>
