<!-- Generated by IcoMoon.io -->
<svg version="1.1" xmlns="http://www.w3.org/2000/svg" width="24" height="24" viewBox="0 0 24 24">
<title>binoculars</title>
<path d="M3.161 12.442c0.088-0.796 0.707-1.414 1.503-1.503 0.177 0 0.354 0.088 0.354 0.265s-0.088 0.265-0.354 0.354c-0.442 0-0.884 0.354-0.884 0.884 0 0.265-0.265 0.442-0.442 0.354s-0.177-0.177-0.177-0.354z"></path>
<path d="M18.099 11.028c-0.796 0-1.414 0.619-1.503 1.503 0 0.088 0 0.265 0.177 0.354 0.177 0.177 0.442 0 0.442-0.354 0-0.442 0.442-0.884 0.884-0.884 0.177 0 0.354-0.088 0.354-0.354 0-0.177-0.088-0.265-0.354-0.265z"></path>
<path d="M16.95 4.31c-0.442-0.796-1.503-1.237-2.563-0.972-0.972 0.265-1.503 1.061-1.503 1.945 0.884-0.707 1.945-1.061 3.094-1.061 0.354 0 0.707 0 0.972 0.088z"></path>
<path d="M21.016 8.641l-0.707-0.53c-0.265-0.442-0.53-0.884-0.884-1.414-0.442-0.707-1.061-1.237-1.856-1.503-0.088 0-0.088 0-0.088-0.088-0.442-0.177-0.884-0.265-1.414-0.265-1.237 0-2.298 0.53-3.005 1.326-0.177 0.354-0.442 0.619-0.619 0.884-0.177 0-0.354-0.088-0.619-0.088-0.177 0-0.442 0-0.619 0.088-0.177-0.265-0.354-0.53-0.53-0.796 0 0 0 0 0 0s0 0 0-0.088v0c-0.619-0.796-1.68-1.326-2.917-1.326-0.53 0-1.061 0.088-1.503 0.265 0 0 0 0 0 0-0.088 0-0.088 0.088-0.177 0.088-0.707 0.354-1.326 0.796-1.768 1.503-0.442 0.619-0.796 1.149-1.149 1.768l-0.265 0.177c-1.591 0.796-2.652 2.475-2.652 4.331 0 2.74 2.21 4.95 4.95 4.95 2.387 0 4.331-1.68 4.862-3.889l0.442-2.917c0.354 0.442 0.796 0.707 1.414 0.707 0.707 0 1.237-0.354 1.591-0.972l0.442 3.182c0.442 2.21 2.475 3.889 4.862 3.889 2.74 0 4.95-2.21 4.95-4.95-0.088-1.856-1.149-3.447-2.74-4.331zM5.194 16.243c-1.768 0-3.182-1.414-3.182-3.182s1.414-3.182 3.182-3.182 3.182 1.414 3.182 3.182c0.088 1.768-1.414 3.182-3.182 3.182zM12 10.939c-0.442 0-0.884-0.354-0.884-0.884 0-0.442 0.354-0.884 0.884-0.884 0.442 0 0.884 0.354 0.884 0.884s-0.442 0.884-0.884 0.884zM18.718 16.243c-1.768 0-3.182-1.414-3.182-3.182s1.414-3.182 3.182-3.182 3.182 1.414 3.182 3.182-1.414 3.182-3.182 3.182z"></path>
<path d="M10.674 5.105c0-0.088 0-0.088 0-0.177-0.088-0.796-0.707-1.414-1.591-1.68-0.884-0.177-1.768 0.177-2.21 0.796 0 0-0.088 0.088-0.088 0.088 0 0.088-0.088 0.088-0.088 0.177 0.354-0.088 0.707-0.177 1.061-0.177 1.149 0 2.21 0.354 3.005 1.061-0.088 0-0.088 0-0.088-0.088z"></path>
</svg>
