<svg xmlns="http://www.w3.org/2000/svg" viewBox="0 0 1024 1024"><path d="M134.856 552.189c3.77-33.942 30.172-60.344 64.114-64.114 7.54 0 15.086 3.77 15.086 11.316s-3.77 11.316-15.086 15.086c-18.856 0-37.712 15.086-37.712 37.712 0 11.316-11.316 18.856-18.856 15.086s-7.54-7.54-7.54-15.086zm637.37-60.344c-33.942 0-60.344 26.402-64.114 64.114 0 3.77 0 11.316 7.54 15.086 7.54 7.54 18.856 0 18.856-15.086 0-18.856 18.856-37.712 37.712-37.712 7.54 0 15.086-3.77 15.086-15.086 0-7.54-3.77-11.316-15.086-11.316zm-49.028-286.628c-18.856-33.942-64.114-52.798-109.372-41.488-41.488 11.316-64.114 45.258-64.114 82.97 37.712-30.172 82.97-45.258 131.998-45.258 15.086 0 30.172 0 41.488 3.77zm173.486 184.802l-30.172-22.626c-11.316-18.856-22.626-37.712-37.712-60.344-18.856-30.172-45.258-52.798-79.2-64.114-3.77 0-3.77 0-3.77-3.77-18.856-7.54-37.712-11.316-60.344-11.316-52.798 0-98.056 22.626-128.228 56.574-7.54 15.086-18.856 26.402-26.402 37.712-7.54 0-15.086-3.77-26.402-3.77-7.54 0-18.856 0-26.402 3.77-7.54-11.316-15.086-22.626-22.626-33.942s0 0 0-3.77c-26.402-33.942-71.66-56.574-124.458-56.574-22.626 0-45.258 3.77-64.114 11.316-3.77 0-3.77 3.77-7.54 3.77-30.172 15.086-56.574 33.942-75.43 64.114-18.856 26.402-33.942 49.028-49.028 75.43l-11.316 7.54C55.656 423.961 10.398 495.621 10.398 574.821c0 116.912 94.286 211.198 211.198 211.198 101.826 0 184.802-71.66 207.428-165.94l18.856-124.458c15.086 18.856 33.942 30.172 60.344 30.172 30.172 0 52.798-15.086 67.884-41.488l18.856 135.774c18.856 94.286 105.602 165.94 207.428 165.94 116.912 0 211.198-94.286 211.198-211.198-3.77-79.2-49.028-147.084-116.912-184.802zm-675.082 324.34c-75.43 0-135.774-60.344-135.774-135.774s60.344-135.774 135.774-135.774 135.774 60.344 135.774 135.774c3.77 75.43-60.344 135.774-135.774 135.774zM512 488.075c-18.856 0-37.712-15.086-37.712-37.712 0-18.856 15.086-37.712 37.712-37.712 18.856 0 37.712 15.086 37.712 37.712S530.856 488.075 512 488.075zm286.628 226.284c-75.43 0-135.774-60.344-135.774-135.774s60.344-135.774 135.774-135.774 135.774 60.344 135.774 135.774-60.344 135.774-135.774 135.774zm-343.202-475.2v-7.54c-3.77-33.942-30.172-60.344-67.884-71.66-37.712-7.54-75.43 7.54-94.286 33.942l-3.77 3.77c0 3.77-3.77 3.77-3.77 7.54 15.086-3.77 30.172-7.54 45.258-7.54 49.028 0 94.286 15.086 128.228 45.258-3.77 0-3.77 0-3.77-3.77z"/></svg>