<!-- Generated by IcoMoon.io -->
<svg version="1.1" xmlns="http://www.w3.org/2000/svg" width="24" height="24" viewBox="0 0 24 24">
<title>biohazard</title>
<path d="M20.933 10.817c-0.817-0.692-1.8-1.158-2.842-1.358 0.142-0.525 0.208-1.075 0.208-1.625 0-2.842-1.917-5.35-4.658-6.092-0.058-0.017-0.125 0.017-0.142 0.075s0.008 0.125 0.075 0.15c1.767 0.658 2.958 2.375 2.958 4.258 0 2.092-1.408 3.9-3.433 4.408h-0.017c-0.017 0-0.042 0.008-0.058 0.017-0.683 0.158-1.4 0.158-2.083 0-0.017-0.008-0.042-0.017-0.067-0.017h-0.017c-2.025-0.508-3.433-2.325-3.433-4.408 0-1.892 1.192-3.6 2.958-4.258 0.058-0.025 0.092-0.083 0.075-0.15-0.017-0.058-0.083-0.092-0.142-0.075-2.733 0.733-4.65 3.242-4.65 6.083 0 0.55 0.075 1.1 0.208 1.625-1.042 0.2-2.025 0.675-2.842 1.358-2.175 1.833-2.867 4.908-1.675 7.492 0.025 0.058 0.092 0.083 0.15 0.058s0.092-0.092 0.067-0.15c-0.633-1.783-0.083-3.792 1.367-5.008 0.817-0.683 1.858-1.067 2.925-1.067 1.35 0 2.617 0.592 3.483 1.625 0.783 0.933 1.15 2.108 1.050 3.317-0.108 1.208-0.675 2.308-1.608 3.092-0.817 0.683-1.858 1.067-2.917 1.067-0.783 0-1.567-0.2-2.242-0.592-0.058-0.033-0.125-0.017-0.158 0.042-0.033 0.050-0.017 0.125 0.033 0.158 1.058 0.733 2.308 1.125 3.608 1.125 1.483 0 2.925-0.525 4.058-1.475 0.3-0.25 0.583-0.533 0.825-0.842 0.25 0.3 0.525 0.583 0.825 0.842 1.133 0.95 2.575 1.475 4.058 1.475 1.3 0 2.542-0.392 3.608-1.125 0.050-0.033 0.067-0.108 0.033-0.158s-0.1-0.067-0.158-0.042c-0.683 0.383-1.458 0.592-2.242 0.592-1.067 0-2.1-0.375-2.925-1.067-0.933-0.783-1.5-1.875-1.608-3.092-0.108-1.208 0.267-2.392 1.050-3.317 0.867-1.033 2.133-1.625 3.483-1.625 1.067 0 2.1 0.375 2.925 1.067 1.45 1.217 1.992 3.225 1.367 5.008-0.025 0.058 0.008 0.125 0.067 0.15s0.125 0 0.15-0.058c1.167-2.583 0.475-5.658-1.7-7.483zM13.017 13.108c0 0.575-0.467 1.033-1.033 1.033-0.575 0-1.033-0.467-1.033-1.033 0-0.575 0.467-1.033 1.033-1.033s1.033 0.467 1.033 1.033z"></path>
<path d="M9.058 17.817c0.017 0 0.025 0 0.042-0.008 0.033-0.008 0.058-0.042 0.075-0.075 0.133-0.417 0.183-0.842 0.158-1.275 0-0.033-0.017-0.067-0.042-0.083-0.775-0.642-1.3-1.533-1.475-2.525-0.008-0.033-0.025-0.058-0.050-0.075-0.367-0.233-0.758-0.4-1.183-0.492-0.033-0.008-0.075 0-0.1 0.025s-0.042 0.058-0.042 0.092c0.092 1.783 1.050 3.425 2.567 4.392 0.008 0.025 0.025 0.025 0.050 0.025z"></path>
<path d="M17.392 13.283c-0.425 0.092-0.825 0.25-1.183 0.492-0.025 0.017-0.050 0.050-0.050 0.075-0.175 0.983-0.7 1.883-1.475 2.525-0.025 0.017-0.042 0.050-0.042 0.083-0.025 0.433 0.025 0.867 0.158 1.275 0.008 0.033 0.042 0.067 0.075 0.075 0.017 0.008 0.025 0.008 0.042 0.008 0.025 0 0.042-0.008 0.067-0.017 1.508-0.967 2.467-2.608 2.567-4.392 0-0.033-0.017-0.075-0.042-0.092-0.042-0.025-0.075-0.042-0.117-0.033z"></path>
<path d="M9.267 8.308c-0.008 0.033 0 0.067 0.025 0.1 0.258 0.317 0.575 0.592 0.925 0.8 0.033 0.017 0.075 0.025 0.108 0.008 1.050-0.45 2.267-0.45 3.317 0 0.017 0.008 0.033 0.008 0.050 0.008s0.042-0.008 0.058-0.017c0.358-0.208 0.667-0.483 0.925-0.8 0.025-0.025 0.033-0.067 0.025-0.1s-0.025-0.067-0.058-0.083c-0.808-0.442-1.733-0.675-2.658-0.675s-1.85 0.233-2.658 0.675c-0.033 0.017-0.050 0.050-0.058 0.083z"></path>
</svg>
