<!-- Generated by IcoMoon.io -->
<svg version="1.1" xmlns="http://www.w3.org/2000/svg" width="24" height="24" viewBox="0 0 24 24">
<title>boat</title>
<path d="M1.73 16.106c-0.112 0-0.178 0-0.188 0-0.080 0-0.141 0.066-0.141 0.141 0 0.080 0.066 0.141 0.141 0.141 0 0 0 0 0 0 0.483 0 9.408-0.009 14.677-0.398 0.211-0.009 0.427-0.028 0.638-0.052 1.252-0.108 2.231-0.234 2.756-0.398 0.075-0.023 0.117-0.103 0.094-0.178-0.009-0.028-0.028-0.056-0.052-0.070 0.755-0.389 1.481-1.017 2.133-1.589-4.964 0.975-18.098 1.336-20.484 1.392l0.427 1.013z"></path>
<path d="M14.475 7.753h-4.42v-1.589h-0.178v1.589h-0.267v-3.947h-0.173v3.947h-1.106v0.352h6.145z"></path>
<path d="M0.928 14.845c0.173-0.005 17.348-0.375 21.745-1.608 0.005 0 0.009-0.005 0.014-0.005 0.066-0.028 0.103-0.098 0.084-0.169-0.014-0.052-0.052-0.084-0.098-0.098l0.966-0.75-0.3-0.38h-0.553l-0.216-0.23c-0.164-0.173-0.398-0.272-0.638-0.272h-4.167c-0.239 0-0.473 0.098-0.638 0.272l-0.234 0.244h-0.478l-0.9 0.253c-0.014 0.005-0.023 0.005-0.038 0.005h-0.469v-0.286h0.445l0.661-0.183-1.186-2.897h0.492v-0.394h-7.744v0.394h0.183l-0.211 4.12-0.431 0.38-0.113-0.103c-0.173-0.164-0.413-0.253-0.652-0.239l-4.162 0.22c-0.239 0.014-0.469 0.127-0.623 0.309l-0.206 0.239-0.38 0.019c-0.178 0.009-0.295 0.192-0.225 0.361l0.216 0.511c-0.089 0-0.141 0.005-0.15 0.005-0.080 0-0.141 0.066-0.141 0.145 0 0.061 0.037 0.108 0.089 0.131 0.019 0 0.038 0.005 0.056 0.005 0 0 0 0 0 0zM22.448 11.728l0.108 0.113-0.905 0.005v-0.333h0.281c0.197-0.005 0.384 0.075 0.516 0.216zM18.22 11.85v-0.342h1.542v0.337l-1.542 0.005zM19.936 11.508h1.542v0.333l-1.542 0.005v-0.337zM17.255 11.728c0.131-0.141 0.319-0.22 0.516-0.22h0.281v0.342l-0.919 0.005 0.122-0.127zM13.247 12.112v-0.286h0.487v0.286h-0.487zM9.506 11.255v-2.006h1.753v2.006h-1.753zM14.611 12.112h-0.473v-0.286h0.473v0.286zM11.559 11.255v-2.006h3.211l0.82 2.006h-4.031zM6.459 13.069c0.192-0.009 0.384 0.061 0.525 0.192l0.098 0.094-0.014 0.014-0.877 0.047-0.019-0.333 0.286-0.014zM2.77 13.594l-0.019-0.333 1.542-0.080 0.019 0.333-1.542 0.080zM4.481 13.505l-0.019-0.333 1.542-0.080 0.019 0.333-1.542 0.080zM1.795 13.538c0.127-0.145 0.309-0.239 0.502-0.248l0.281-0.014 0.019 0.333-0.9 0.047 0.098-0.117z"></path>
</svg>
