<svg xmlns="http://www.w3.org/2000/svg" viewBox="0 0 1024 1024"><path d="M73.8 708.533h-8c-3.4 0-6 2.8-6 6 0 3.4 2.8 6 6 6 20.6 0 401.4-.4 626.2-17 9-.4 18.2-1.2 27.2-2.2 53.4-4.6 95.2-10 117.6-17 3.2-1 5-4.4 4-7.6-.4-1.2-1.2-2.4-2.2-3 32.2-16.6 63.2-43.4 91-67.8-211.8 41.6-772.2 57-874 59.4l18.2 43.2zm543.8-356.4H429v-67.8h-7.6v67.8H410v-168.4h-7.4v168.4h-47.2v15h262.2zm-578 302.6c7.4-.2 740.2-16 927.8-68.6.2 0 .4-.2.6-.2 2.8-1.2 4.4-4.2 3.6-7.2-.6-2.2-2.2-3.6-4.2-4.2l41.2-32-12.8-16.2h-23.6l-9.2-9.8c-7-7.4-17-11.6-27.2-11.6H758c-10.2 0-20.2 4.2-27.2 11.6l-10 10.4h-20.4l-38.4 10.8c-.6.2-1 .2-1.6.2h-20v-12.2h19l28.2-7.8-50.6-123.6h21v-16.8H327.6v16.8h7.8l-9 175.8-18.4 16.2-4.8-4.4c-7.4-7-17.6-10.8-27.8-10.2l-177.6 9.4c-10.2.6-20 5.4-26.6 13.2l-8.8 10.2-16.2.8c-7.6.4-12.6 8.2-9.6 15.4l9.2 21.8c-3.8 0-6 .2-6.4.2-3.4 0-6 2.8-6 6.2 0 2.6 1.6 4.6 3.8 5.6.8 0 1.6.2 2.4.2zm918.2-133l4.6 4.8-38.6.2v-14.2h12c8.4-.2 16.4 3.2 22 9.2zm-180.4 5.2v-14.6h65.8v14.4l-65.8.2zm73.2-14.6h65.8v14.2l-65.8.2v-14.4zm-114.4 9.4c5.6-6 13.6-9.4 22-9.4h12v14.6l-39.2.2 5.2-5.4zm-171 16.4v-12.2H586v12.2h-20.8zm-159.6-36.6v-85.6h74.8v85.6h-74.8zm217.8 36.6h-20.2v-12.2h20.2v12.2zm-130.2-36.6v-85.6h137l35 85.6h-172zm-217.6 77.4c8.2-.4 16.4 2.6 22.4 8.2l4.2 4-.6.6-37.4 2-.8-14.2 12.2-.6zm-157.4 22.4l-.8-14.2 65.8-3.4.8 14.2-65.8 3.4zm73-3.8l-.8-14.2 65.8-3.4.8 14.2-65.8 3.4zm-114.6 1.4c5.4-6.2 13.2-10.2 21.4-10.6l12-.6.8 14.2-38.4 2 4.2-5z"/></svg>