<svg xmlns="http://www.w3.org/2000/svg" viewBox="0 0 1024 1024"><path d="M327.111 890.311c0 23.467 19.2 42.311 42.311 42.311H540.8c23.467 0 42.311-19.2 42.311-42.311V764.089h-256v126.222zm-82.489-760.178H72.889c-23.467 0-42.311 19.2-42.311 42.311v127.644h256.356V172.444c0-23.467-19.2-42.311-42.311-42.311zM30.578 340.622h256.356v383.644H30.578V340.622zm0 549.689c0 23.467 19.2 42.311 42.311 42.311h171.378c23.467 0 42.311-19.2 42.311-42.311V764.089h-256v126.222zM992 821.333L947.556 649.6 807.112 133.333c-6.4-23.822-30.578-37.689-54.4-31.644l-172.444 44.444c-7.111-7.822-16.356-12.8-26.667-14.222a40.809 40.809 0 0 0-13.156-2.133H369.067c-23.467 0-42.311 19.2-42.311 42.311v127.644h213.333l9.6 40.533H327.111V723.91h256V482.488l27.378 116.267 80 299.022c5.333 19.911 23.822 33.778 44.444 33.067 3.911.356 7.822.356 11.733 0l215.111-57.6c11.378-3.2 21.333-10.667 27.022-20.978 4.622-9.244 6.044-20.622 3.2-30.933zM602.311 233.955l129.067-34.844 23.111 86.044-128.711 34.844-23.467-86.044zm115.556 430.222l-68.978-258.133L777.956 371.2l68.978 258.133-129.067 34.844zm44.444 171.734L739.2 749.867l129.067-34.844 23.111 86.044-129.067 34.844z"/></svg>