<!-- Generated by IcoMoon.io -->
<svg version="1.1" xmlns="http://www.w3.org/2000/svg" width="24" height="24" viewBox="0 0 24 24">
<title>books</title>
<path d="M7.667 20.367c0 0.55 0.45 0.992 0.992 0.992h4.017c0.55 0 0.992-0.45 0.992-0.992v-2.958h-6v2.958z"></path>
<path d="M5.733 2.55h-4.025c-0.55 0-0.992 0.45-0.992 0.992v2.992h6.008v-2.992c0-0.55-0.45-0.992-0.992-0.992z"></path>
<path d="M0.717 7.483h6.008v8.992h-6.008v-8.992z"></path>
<path d="M0.717 20.367c0 0.55 0.45 0.992 0.992 0.992h4.017c0.55 0 0.992-0.45 0.992-0.992v-2.958h-6v2.958z"></path>
<path d="M23.25 18.75l-1.042-4.025-3.292-12.1c-0.15-0.558-0.717-0.883-1.275-0.742l-4.042 1.042c-0.167-0.183-0.383-0.3-0.625-0.333-0.1-0.033-0.2-0.050-0.308-0.050h-4.017c-0.55 0-0.992 0.45-0.992 0.992v2.992h5l0.225 0.95h-5.217v8.992h6v-5.658l0.642 2.725 1.875 7.008c0.125 0.467 0.558 0.792 1.042 0.775 0.092 0.008 0.183 0.008 0.275 0l5.042-1.35c0.267-0.075 0.5-0.25 0.633-0.492 0.108-0.217 0.142-0.483 0.075-0.725zM14.117 4.983l3.025-0.817 0.542 2.017-3.017 0.817-0.55-2.017zM16.825 15.067l-1.617-6.050 3.025-0.817 1.617 6.050-3.025 0.817zM17.867 19.092l-0.542-2.017 3.025-0.817 0.542 2.017-3.025 0.817z"></path>
</svg>
