<!-- Generated by IcoMoon.io -->
<svg version="1.1" xmlns="http://www.w3.org/2000/svg" width="24" height="24" viewBox="0 0 24 24">
<title>book</title>
<path d="M4.038 23.625h13.739c0.802 0 1.453-0.651 1.453-1.453v-15.258c0-0.401-0.325-0.727-0.727-0.727 0 0 0 0 0 0h-12.317c-0.036 0-0.108 0.006-0.176 0.010l-1.973-0.010c-1.219 0-2.21-0.931-2.21-2.149 0-1.219 0.961-2.21 2.18-2.21h16.711v16.711c0 0.401 0.291 0.727 0.693 0.727s0.76-0.326 0.76-0.727v-17.437c0-0.401-0.359-0.727-0.76-0.727h-17.373c-2.005 0-3.628 1.612-3.658 3.61l-0.006-0.007v15.984c0 2.023 1.641 3.663 3.663 3.663z"></path>
</svg>
