<!-- Generated by IcoMoon.io -->
<svg version="1.1" xmlns="http://www.w3.org/2000/svg" width="24" height="24" viewBox="0 0 24 24">
<title>bowling</title>
<path d="M12 1.017c-6.066 0-10.983 4.917-10.983 10.983s4.917 10.983 10.983 10.983c6.066 0 10.983-4.917 10.983-10.983s-4.917-10.983-10.983-10.983zM6.595 5.972c-0.033 0.028-3.080 3.145-2.236 7.28 0.070 0.333-0.145 0.661-0.483 0.731-0.042 0.009-0.084 0.014-0.127 0.014-0.286 0-0.544-0.202-0.605-0.492-0.984-4.8 2.428-8.259 2.573-8.405 0.244-0.239 0.633-0.239 0.872 0.005 0.248 0.234 0.244 0.623 0.005 0.867zM15.056 10.631c-0.478 0.478-1.359 0.38-1.969-0.23-0.605-0.609-0.708-1.486-0.23-1.964 0.478-0.483 1.359-0.38 1.969 0.23 0.605 0.6 0.708 1.481 0.23 1.964zM15.497 6.834c-0.478 0.478-1.359 0.38-1.964-0.23-0.605-0.605-0.708-1.486-0.23-1.969 0.478-0.478 1.359-0.38 1.964 0.23 0.609 0.609 0.712 1.491 0.23 1.969zM19.125 9.661c-0.478 0.478-1.359 0.38-1.969-0.23-0.605-0.605-0.708-1.486-0.23-1.964s1.359-0.38 1.969 0.23c0.605 0.605 0.708 1.481 0.23 1.964z"></path>
</svg>
