<svg xmlns="http://www.w3.org/2000/svg" viewBox="0 0 1024 1024"><path d="M972.8 613.333c0-44.8-22.4-80-54.4-105.6-6.4 12.8-12.8 25.6-25.6 35.2-28.8 28.8-67.2 41.6-121.6 41.6h-12.8c-3.2 0-6.4-3.2-6.4-6.4s3.2-6.4 6.4-6.4c112 3.2 144-51.2 156.8-99.2 3.2-9.6 3.2-16 3.2-25.6 0-54.4-35.2-102.4-80-121.6 3.2-6.4 3.2-16 3.2-22.4 0-57.6-48-105.6-105.6-105.6h-3.2c-12.8-44.8-51.2-80-102.4-80-57.6 0-105.6 48-105.6 105.6v614.4c0 64 54.4 118.4 118.4 118.4 48 0 89.6-28.8 105.6-70.4-19.2-6.4-35.2-19.2-48-35.2-6.4 0-9.6 3.2-16 3.2-12.8 0-25.6-3.2-38.4-9.6-3.2-3.2-3.2-6.4-3.2-9.6 3.2-3.2 6.4-3.2 9.6-3.2 16 9.6 35.2 12.8 51.2 6.4 12.8-6.4 22.4-16 25.6-28.8 0-3.2 6.4-6.4 9.6-6.4s6.4 6.4 6.4 9.6c-3.2 16-16 28.8-28.8 35.2 12.8 19.2 32 28.8 48 28.8 6.4 0 16 3.2 22.4 0 57.6-6.4 105.6-57.6 105.6-118.4 0-6.4 0-16-3.2-22.4 48-22.4 83.2-67.2 83.2-121.6zm-230.4-172.8c-25.6 0-57.6-9.6-83.2-57.6-3.2-3.2 0-9.6 3.2-9.6 3.2-3.2 9.6 0 9.6 3.2 28.8 57.6 64 51.2 92.8 48h6.4c3.2 0 6.4 3.2 9.6 6.4 0 3.2-3.2 6.4-6.4 9.6h-32zm-348.8-326.4c-48 0-89.6 35.2-102.4 80H288c-57.6 0-105.6 48-105.6 105.6 0 6.4 0 16 3.2 22.4-48 19.2-80 67.2-80 121.6 0 16 3.2 28.8 6.4 41.6 19.2-9.6 38.4-16 57.6-19.2 35.2-3.2 64 9.6 83.2 22.4 9.6-16 25.6-25.6 44.8-32 3.2 0 6.4 0 9.6 6.4s0 6.4-6.4 9.6c-19.2 3.2-32 16-38.4 32-6.4 12.8-6.4 25.6 0 38.4 3.2 3.2 0 9.6-3.2 9.6H256c-3.2 0-6.4 0-6.4-3.2-9.6-12.8-9.6-32-3.2-48-32-19.2-76.8-32-128-3.2-28.8 19.2-67.2 64-67.2 115.2 0 54.4 32 102.4 80 121.6 0 6.4-3.2 16-3.2 22.4 0 64 54.4 118.4 118.4 118.4 6.4 0 12.8 0 19.2-3.2 16 48 60.8 80 112 80 64 0 118.4-54.4 118.4-118.4v-614.4c0-57.6-44.8-105.6-102.4-105.6zm-28.8 636.8c-6.4 0-9.6 0-9.6-3.2-22.4-60.8-57.6-60.8-86.4-60.8h-6.4c-3.2 0-6.4-3.2-6.4-6.4s3.2-6.4 6.4-6.4h6.4c28.8 0 73.6 0 99.2 70.4 3.2 0 0 3.2-3.2 6.4zm-22.4-412.8c-9.6 6.4-22.4 9.6-32 9.6s-16-3.2-22.4-6.4c-6.4 0-6.4-6.4-6.4-9.6s6.4-3.2 9.6-3.2c12.8 6.4 28.8 3.2 41.6-3.2 6.4-3.2 19.2-12.8 22.4-28.8 0-3.2 3.2-6.4 9.6-6.4 3.2 0 6.4 3.2 6.4 9.6-3.2 16-12.8 32-28.8 38.4z"/></svg>