<!-- Generated by IcoMoon.io -->
<svg version="1.1" xmlns="http://www.w3.org/2000/svg" width="24" height="24" viewBox="0 0 24 24">
<title>brain</title>
<path d="M22.8 13.875c0-1.050-0.525-1.875-1.275-2.475-0.15 0.3-0.3 0.6-0.6 0.825-0.675 0.675-1.575 0.975-2.85 0.975-0.075 0-0.15 0-0.3 0-0.075 0-0.15-0.075-0.15-0.15s0.075-0.15 0.15-0.15c2.625 0.075 3.375-1.2 3.675-2.325 0.075-0.225 0.075-0.375 0.075-0.6 0-1.275-0.825-2.4-1.875-2.85 0.075-0.15 0.075-0.375 0.075-0.525 0-1.35-1.125-2.475-2.475-2.475 0 0-0.075 0-0.075 0-0.3-1.050-1.2-1.875-2.4-1.875-1.35 0-2.475 1.125-2.475 2.475v2.775c0 0.975 0 11.625 0 11.625 0 1.5 1.275 2.775 2.775 2.775 1.125 0 2.1-0.675 2.475-1.65-0.45-0.15-0.825-0.45-1.125-0.825-0.15 0-0.225 0.075-0.375 0.075-0.3 0-0.6-0.075-0.9-0.225-0.075-0.075-0.075-0.15-0.075-0.225 0.075-0.075 0.15-0.075 0.225-0.075 0.375 0.225 0.825 0.3 1.2 0.15 0.3-0.15 0.525-0.375 0.6-0.675 0-0.075 0.15-0.15 0.225-0.15s0.15 0.15 0.15 0.225c-0.075 0.375-0.375 0.675-0.675 0.825 0.3 0.45 0.75 0.675 1.125 0.675 0.15 0 0.375 0.075 0.525 0 1.35-0.15 2.475-1.35 2.475-2.775 0-0.15 0-0.375-0.075-0.525 1.125-0.525 1.95-1.575 1.95-2.85zM17.4 9.825c-0.6 0-1.35-0.225-1.95-1.35-0.075-0.075 0-0.225 0.075-0.225 0.075-0.075 0.225 0 0.225 0.075 0.675 1.35 1.5 1.2 2.175 1.125 0.075 0 0.075 0 0.15 0s0.15 0.075 0.225 0.15c0 0.075-0.075 0.15-0.15 0.225-0.075 0-0.075 0-0.15 0-0.225 0-0.375 0-0.6 0z"></path>
<path d="M9.225 2.175c-1.125 0-2.1 0.825-2.4 1.875 0 0-0.075 0-0.075 0-1.35 0-2.475 1.125-2.475 2.475 0 0.15 0 0.375 0.075 0.525-1.125 0.45-1.875 1.575-1.875 2.85 0 0.375 0.075 0.675 0.15 0.975 0.45-0.225 0.9-0.375 1.35-0.45 0.825-0.075 1.5 0.225 1.95 0.525 0.225-0.375 0.6-0.6 1.050-0.75 0.075 0 0.15 0 0.225 0.15s0 0.15-0.15 0.225c-0.45 0.075-0.75 0.375-0.9 0.75-0.15 0.3-0.15 0.6 0 0.9 0.075 0.075 0 0.225-0.075 0.225 0 0-0.075 0-0.075 0-0.075 0-0.15 0-0.15-0.075-0.225-0.3-0.225-0.75-0.075-1.125-0.75-0.45-1.8-0.75-3-0.075-0.675 0.45-1.575 1.5-1.575 2.7 0 1.275 0.75 2.4 1.875 2.85 0 0.15-0.075 0.375-0.075 0.525 0 1.5 1.275 2.775 2.775 2.775 0.15 0 0.3 0 0.45-0.075 0.375 1.125 1.425 1.875 2.625 1.875 1.5 0 2.775-1.275 2.775-2.775v-14.4c0-1.35-1.050-2.475-2.4-2.475zM8.55 17.1c0 0 0 0 0 0-0.15 0-0.225 0-0.225-0.075-0.525-1.425-1.35-1.425-2.025-1.425-0.075 0-0.075 0-0.15 0s-0.15-0.075-0.15-0.15c0-0.075 0.075-0.15 0.15-0.15 0 0 0 0 0 0 0.075 0 0.075 0 0.15 0 0.675 0 1.725 0 2.325 1.65 0.075 0 0 0.075-0.075 0.15zM8.025 7.425c-0.225 0.15-0.525 0.225-0.75 0.225s-0.375-0.075-0.525-0.15c-0.15 0-0.15-0.15-0.15-0.225s0.15-0.075 0.225-0.075c0.3 0.15 0.675 0.075 0.975-0.075 0.15-0.075 0.45-0.3 0.525-0.675 0-0.075 0.075-0.15 0.225-0.15 0.075 0 0.15 0.075 0.15 0.225-0.075 0.375-0.3 0.75-0.675 0.9z"></path>
</svg>
