<!-- Generated by IcoMoon.io -->
<svg version="1.1" xmlns="http://www.w3.org/2000/svg" width="24" height="24" viewBox="0 0 24 24">
<title>bridge</title>
<path d="M1.153 12.389c0 0 0 0 0 0 1.397 0 2.531 1.13 2.531 2.527v2.33h2.325v-2.33c0-1.397 1.13-2.527 2.527-2.527s2.527 1.13 2.527 2.527v2.33h2.325v-2.33c0-1.397 1.13-2.527 2.527-2.527s2.527 1.13 2.527 2.527v2.33h2.325v-2.33c0-1.397 1.13-2.527 2.527-2.527 0.019 0 0.038 0 0.056 0v-3.469h-22.195v3.469z"></path>
<path d="M1.125 7.322h22.219v0.745h-22.219v-0.745z"></path>
</svg>
