<!-- Generated by IcoMoon.io -->
<svg version="1.1" xmlns="http://www.w3.org/2000/svg" width="24" height="24" viewBox="0 0 24 24">
<title>bridge-alt</title>
<path d="M23.452 12.689h-0.122c-0.572-0.337-1.72-1.059-2.653-1.884-0.741-0.656-1.392-1.477-1.814-2.048v-1.327h-1.237v0.759c-0.881 0.375-2.939 1.106-5.616 1.106-2.634 0-4.669-0.708-5.573-1.088v-0.778h-1.238v1.266c-0.417 0.577-1.092 1.43-1.861 2.114-0.928 0.825-2.081 1.542-2.653 1.884h-0.080c-0.23 0-0.412 0.183-0.412 0.412s0.183 0.412 0.412 0.412h4.589v1.903h1.237v-1.908h11.194v1.908h1.237v-1.908h4.589c0.23 0 0.413-0.183 0.413-0.412s-0.183-0.413-0.413-0.413zM22.538 12.689h-0.928v-0.623c0.333 0.239 0.652 0.445 0.928 0.623zM21.408 11.92v0.769h-0.848v-1.439c0.277 0.234 0.563 0.459 0.848 0.67zM20.353 11.067v1.622h-0.848v-2.48c0.258 0.291 0.544 0.586 0.848 0.858zM7.908 9.155c0.267 0.075 0.558 0.145 0.867 0.211-0.009 0.014-0.019 0.033-0.019 0.056v3.267h-0.848v-3.534zM7.702 12.689h-0.848v-3.872c0.248 0.089 0.53 0.183 0.848 0.277v3.595zM8.958 9.408c0.272 0.056 0.553 0.103 0.853 0.145v3.136h-0.848v-3.267c0-0.005-0.005-0.009-0.005-0.014zM10.017 9.581c0.272 0.037 0.553 0.066 0.848 0.084v3.023h-0.848v-3.108zM11.067 9.68c0.277 0.019 0.558 0.028 0.848 0.028v2.981h-0.848v-3.009zM12.122 9.708c0.291 0 0.572-0.014 0.848-0.028v3.009h-0.848v-2.981zM13.177 9.666c0.295-0.023 0.577-0.052 0.848-0.089v3.112h-0.848v-3.023zM14.231 9.548c0.3-0.042 0.581-0.094 0.853-0.15 0 0.009-0.005 0.014-0.005 0.023v3.267h-0.848v-3.141zM15.263 9.361c0.309-0.066 0.6-0.141 0.872-0.216v3.539h-0.848v-3.262c0-0.023-0.009-0.042-0.023-0.061zM16.341 9.089c0.319-0.094 0.6-0.188 0.848-0.281v3.881h-0.848v-3.6zM4.537 10.181v2.508h-0.848v-1.645c0.305-0.277 0.586-0.572 0.848-0.863zM3.483 11.227v1.462h-0.848v-0.792c0.286-0.206 0.572-0.436 0.848-0.67zM2.428 12.047v0.642h-0.952c0.286-0.183 0.614-0.398 0.952-0.642zM4.744 12.689v-2.747c0.164-0.192 0.314-0.38 0.455-0.558v3.305h-0.455zM6.436 8.658c0.066 0.028 0.136 0.056 0.211 0.084v3.947h-0.211v-4.031zM17.395 12.689v-3.956c0.080-0.033 0.159-0.061 0.23-0.094v4.050h-0.23zM18.862 9.441c0.131 0.169 0.277 0.347 0.436 0.534v2.714h-0.436v-3.248z"></path>
</svg>
