<!-- Generated by IcoMoon.io -->
<svg version="1.1" xmlns="http://www.w3.org/2000/svg" width="24" height="24" viewBox="0 0 24 24">
<title>briefcase</title>
<path d="M21.556 4.743h-5.461v-1.365c0-0.754-0.611-1.365-1.365-1.365h-5.461c-0.754 0-1.365 0.611-1.365 1.365v1.365h-5.461c-0.754 0-1.365 0.611-1.365 1.365v2.73c7.542 2.287 14.816 2.299 21.843 0v-2.73c0-0.754-0.611-1.365-1.365-1.365zM9.27 3.689h5.461v1.365h-5.461v-1.365zM14.124 12.948c0.053 1.066-1.231 0.982-1.983 0.982h-0.513c-0.754 0-1.763 0-1.727-1.044v-1.365c-2.944-0.105-6.656-0.81-8.823-1.578v8.191c0 0.754 0.611 1.365 1.365 1.365h19.113c0.754 0 1.365-0.611 1.365-1.365v-8.191c-3.351 0.975-6.342 1.583-8.797 1.643v1.363zM12.917 13.224h-1.748c-0.141 0-0.256-0.115-0.256-0.256v-1.109c0-0.141 0.115-0.256 0.256-0.256h1.748c0.141 0 0.256 0.115 0.256 0.256v1.109c0 0.141-0.115 0.256-0.256 0.256z"></path>
</svg>
