<svg xmlns="http://www.w3.org/2000/svg" viewBox="0 0 1024 1024"><path d="M919.736 223.699H686.743v-58.247c0-32.188-26.059-58.247-58.247-58.247H395.503c-32.188 0-58.247 26.059-58.247 58.247v58.247H104.263c-32.188 0-58.247 26.059-58.247 58.247v116.496c321.795 97.591 632.147 98.102 931.968 0V281.946c0-32.188-26.059-58.247-58.247-58.247zm-524.232-44.962h232.993v58.247H395.504v-58.247zm207.138 395.064c2.248 45.473-52.524 41.899-84.615 41.899h-21.869c-32.188 0-75.211 0-73.678-44.553V512.9c-125.591-4.496-283.984-34.541-376.465-67.342v349.489c0 32.188 26.059 58.247 58.247 58.247h815.474c32.188 0 58.247-26.059 58.247-58.247V445.558c-142.964 41.592-270.599 67.549-375.341 70.101v58.147zm-51.505 11.752h-74.6c-6.029 0-10.932-4.905-10.932-10.932v-47.315c0-6.029 4.905-10.932 10.932-10.932h74.6c6.029 0 10.932 4.905 10.932 10.932v47.315c0 6.029-4.905 10.932-10.932 10.932z"/></svg>