<svg xmlns="http://www.w3.org/2000/svg" viewBox="0 0 1024 1024"><path d="M64 1045.333h832c35.328 0 64-28.672 64-64v-384c0-35.328-28.672-64-64-64H704c-35.328 0-64 28.672-64 64v-512c0-35.328-28.672-64-64-64H384c-35.328 0-64 28.672-64 64v256c0-35.328-28.672-64-64-64H64c-35.328 0-64 28.672-64 64v640c0 35.328 28.672 64 64 64zm0-64v-128h64v128H64zm64-384v64H64v-64h64zm-64-64v-64h64v64H64zm64 192v64H64v-64h64zm64-64v-64h64v64h-64zm64 64v64h-64v-64h64zm-64-192v-64h64v64h-64zm0 448v-128h64v128h-64zm64-576h-64v-64h64v64zm-128 0H64v-64h64v64zm384 576v-128h64v128h-64zm-64-640v64h-64v-64h64zm-64-64v-64h64v64h-64zm64 192v64h-64v-64h64zm0 128v64h-64v-64h64zm0 128v64h-64v-64h64zm64-64v-64h64v64h-64zm64 64v64h-64v-64h64zm-64-192v-64h64v64h-64zm0-128v-64h64v64h-64zm0-128v-64h64v64h-64zm64-128h-64v-64h64v64zm-128 0h-64v-64h64v64zm-64 704h64v128h-64v-128zm384-64h-64v-64h64v64zm64-64h64v64h-64v-64zm0 128h64v128h-64v-128zm64-192h-64v-64h64v64zm-128 0h-64v-64h64v64zm-64 192h64v128h-64v-128z"/></svg>