<!-- Generated by IcoMoon.io -->
<svg version="1.1" xmlns="http://www.w3.org/2000/svg" width="24" height="24" viewBox="0 0 24 24">
<title>building</title>
<path d="M1.5 24h19.5c0.828 0 1.5-0.672 1.5-1.5v-9c0-0.828-0.672-1.5-1.5-1.5h-4.5c-0.828 0-1.5 0.672-1.5 1.5v-12c0-0.828-0.672-1.5-1.5-1.5h-4.5c-0.828 0-1.5 0.672-1.5 1.5v6c0-0.828-0.672-1.5-1.5-1.5h-4.5c-0.828 0-1.5 0.672-1.5 1.5v15c0 0.828 0.672 1.5 1.5 1.5zM1.5 22.5v-3h1.5v3h-1.5zM3 13.5v1.5h-1.5v-1.5h1.5zM1.5 12v-1.5h1.5v1.5h-1.5zM3 16.5v1.5h-1.5v-1.5h1.5zM4.5 15v-1.5h1.5v1.5h-1.5zM6 16.5v1.5h-1.5v-1.5h1.5zM4.5 12v-1.5h1.5v1.5h-1.5zM4.5 22.5v-3h1.5v3h-1.5zM6 9h-1.5v-1.5h1.5v1.5zM3 9h-1.5v-1.5h1.5v1.5zM12 22.5v-3h1.5v3h-1.5zM10.5 7.5v1.5h-1.5v-1.5h1.5zM9 6v-1.5h1.5v1.5h-1.5zM10.5 10.5v1.5h-1.5v-1.5h1.5zM10.5 13.5v1.5h-1.5v-1.5h1.5zM10.5 16.5v1.5h-1.5v-1.5h1.5zM12 15v-1.5h1.5v1.5h-1.5zM13.5 16.5v1.5h-1.5v-1.5h1.5zM12 12v-1.5h1.5v1.5h-1.5zM12 9v-1.5h1.5v1.5h-1.5zM12 6v-1.5h1.5v1.5h-1.5zM13.5 3h-1.5v-1.5h1.5v1.5zM10.5 3h-1.5v-1.5h1.5v1.5zM9 19.5h1.5v3h-1.5v-3zM18 18h-1.5v-1.5h1.5v1.5zM19.5 16.5h1.5v1.5h-1.5v-1.5zM19.5 19.5h1.5v3h-1.5v-3zM21 15h-1.5v-1.5h1.5v1.5zM18 15h-1.5v-1.5h1.5v1.5zM16.5 19.5h1.5v3h-1.5v-3z"></path>
</svg>
