<!-- Generated by IcoMoon.io -->
<svg version="1.1" xmlns="http://www.w3.org/2000/svg" width="24" height="24" viewBox="0 0 24 24">
<title>bus-alt</title>
<path d="M23.77 4.852v2.925c0 0.127-0.103 0.23-0.23 0.23h-1.341c-0.127 0-0.23-0.103-0.23-0.23v-2.925c0-0.122 0.094-0.216 0.211-0.23v-0.178c0-0.159-0.131-0.291-0.291-0.291h-0.473v10.172h0.267v2.105h-0.267v2.063h0.281c0.113 0 0.202 0.089 0.202 0.202v1.655c0 0.112-0.089 0.202-0.202 0.202h-0.675v1.533c0 0.314-0.253 0.567-0.567 0.567h-1.678c-0.314 0-0.567-0.253-0.567-0.567v-1.533h-12.413v1.533c0 0.314-0.253 0.567-0.567 0.567h-1.678c-0.314 0-0.567-0.253-0.567-0.567v-1.533h-0.675c-0.112 0-0.202-0.089-0.202-0.202v-1.655c0-0.113 0.089-0.202 0.202-0.202h0.281v-2.063h-0.267v-2.105h0.267v-10.172h-0.473c-0.159 0-0.291 0.131-0.291 0.291v0.178c0.117 0.009 0.211 0.108 0.211 0.23v2.925c0 0.127-0.103 0.23-0.23 0.23h-1.341c-0.127 0-0.23-0.103-0.23-0.23v-2.925c0-0.127 0.103-0.23 0.23-0.23h1.013v-0.173c0-0.352 0.286-0.637 0.638-0.637h0.473v-0.891c0-0.97 0.788-1.758 1.758-1.758h15.305c0.97 0 1.758 0.787 1.758 1.758v0.891h0.478c0.352 0 0.638 0.286 0.638 0.637v0.173h1.012c0.127 0 0.23 0.103 0.23 0.23zM6.272 3.483h11.466v-1.42h-11.466v1.42zM9.323 16.973h-5.405v1.448h5.405v-1.448zM20.091 16.973h-5.405v1.448h5.405v-1.448zM19.655 12.286c0.225 0 0.413-0.183 0.413-0.412v-6.97c0-0.225-0.183-0.412-0.413-0.412h-15.3c-0.225 0-0.412 0.183-0.412 0.412v6.97c0 0.225 0.183 0.412 0.412 0.412h15.3zM15.459 18.192h1.697v-0.989h-1.697v0.989zM6.848 18.192h1.697v-0.989h-1.697v0.989zM17.62 18.192h1.697v-0.989h-1.697v0.989zM4.692 18.192h1.697v-0.989h-1.697v0.989z"></path>
</svg>
