<svg xmlns="http://www.w3.org/2000/svg" viewBox="0 0 1024 1024"><path d="M1014.2 228.333v124.8c0 5.4-4.4 9.8-9.8 9.8h-57.2c-5.4 0-9.8-4.4-9.8-9.8v-124.8c0-5.2 4-9.2 9-9.8v-7.6c0-6.8-5.6-12.4-12.4-12.4h-20.2v434h11.4v89.8h-11.4v88h12c4.8 0 8.6 3.8 8.6 8.6v70.6c0 4.8-3.8 8.6-8.6 8.6H897v65.4c0 13.4-10.8 24.2-24.2 24.2h-71.6c-13.4 0-24.2-10.8-24.2-24.2v-65.4H247.4v65.4c0 13.4-10.8 24.2-24.2 24.2h-71.6c-13.4 0-24.2-10.8-24.2-24.2v-65.4H98.6c-4.8 0-8.6-3.8-8.6-8.6v-70.6c0-4.8 3.8-8.6 8.6-8.6h12v-88H99.2v-89.8h11.4v-434H90.4c-6.8 0-12.4 5.6-12.4 12.4v7.6c5 .4 9 4.6 9 9.8v124.8c0 5.4-4.4 9.8-9.8 9.8H20c-5.4 0-9.8-4.4-9.8-9.8v-124.8c0-5.4 4.4-9.8 9.8-9.8h43.2v-7.4c0-15 12.2-27.2 27.2-27.2h20.2v-38c0-41.4 33.6-75 75-75h653c41.4 0 75 33.6 75 75v38H934c15 0 27.2 12.2 27.2 27.2v7.4h43.2c5.4 0 9.8 4.4 9.8 9.8zm-746.6-58.4h489.2v-60.6H267.6v60.6zm130.2 575.6H167.2v61.8h230.6v-61.8zm459.4 0H626.6v61.8h230.6v-61.8zm-18.6-200c9.6 0 17.6-7.8 17.6-17.6v-297.4c0-9.6-7.8-17.6-17.6-17.6H185.8c-9.6 0-17.6 7.8-17.6 17.6v297.4c0 9.6 7.8 17.6 17.6 17.6h652.8zm-179 252H732v-42.2h-72.4v42.2zm-367.4 0h72.4v-42.2h-72.4v42.2zm459.6 0h72.4v-42.2h-72.4v42.2zm-551.6 0h72.4v-42.2h-72.4v42.2z"/></svg>