<svg xmlns="http://www.w3.org/2000/svg" viewBox="0 0 1024 1024"><path d="M426 687.333c0 11.8-2.6 23-7.2 33-12.6 27.8-40.6 47.4-73.2 47.4s-60.6-19.4-73.2-47.4c-4.6-10-7.2-21.2-7.2-33 0-44.4 36-80.4 80.4-80.4s80.4 36 80.4 80.4zm-42.6 0c0-20.8-17-37.8-37.8-37.8s-37.8 17-37.8 37.8c0 20.8 17 37.8 37.8 37.8 21 0 37.8-17 37.8-37.8zm623.4-381.4c-1.4-12.6-12-22-24.6-22h-880c-26.4 0-46 20.8-47.4 47.2v11.4h-31c-7.4 0-13.4 5.4-14.2 12-5.8 1.4-11 21.2-11.4 39.8V397.133c.4 19.4 6 40 12.2 40 1.6 0 8 .2 8-1.4v-79.6c0-.4-.4-.6-.8-1 .6-3 3.2-5.2 6.4-5.2h31.2v230.4h-5.4v47.4h5.4v46.4h-5.4v32.8c0 7.4 6 13.6 13.6 13.6h1.2v-.2c.4 0 .8.2 1 .2h195c-4-10.2-6.2-21.4-6.2-33 0-50.6 41.2-91.6 91.6-91.6 50.6 0 91.6 41.2 91.6 91.6 0 11.6-2.2 22.8-6.2 33H672c-4-10.2-6.2-21.4-6.2-33 0-50.6 41.2-91.6 91.6-91.6 50.6 0 91.6 41.2 91.6 91.6 0 11.6-2.2 22.8-6.2 33H902l110.4-32.4c5.8-1.6 9.8-7 9.8-13v-233.8l-15.4-135.4zm-798.4 318.2c0 6.2-5 11.4-11.4 11.4h-90.6c-6.2 0-11.4-5-11.4-11.4v-23.4c0-5 3.4-9.6 8.2-11l90.6-26c1-.2 2-.4 3.2-.4 6.2 0 11.4 5 11.4 11.4v49.4zm0-119.2c0 5-3.4 9.6-8.2 11l-90.6 26c-1 .2-2 .4-3.2.4-6.2 0-11.4-5-11.4-11.4v-153.6c0-6.2 5-11.4 11.4-11.4H197c6.2 0 11.4 5 11.4 11.4v127.6zm196-26.4H294.6v-128.4h109.8v128.4zm128.2 217.6h-54.4c-6.8 0-12.4-5.6-12.4-12.4v-290c0-6.8 5.6-12.4 12.4-12.4h54.4v314.8zm84.2-12.6c0 6.8-5.6 12.4-12.4 12.4H550v-314.6h54.4c6.8 0 12.4 5.6 12.4 12.4v289.8zm172.6-205H679.6v-128.4h109.8v128.4zm62.8-128.4H962v128.4H852.2v-128.4zm142.8 288.6H864.6v-12.4H995v12.4zm0-30.4H864.6v-12.4H995v12.4zm0-30.4H864.6v-12.4H995v12.4zm0-30.4H864.6v-12.4H995v12.4zm-157.4 139.8c0 11.8-2.6 23-7.2 33-12.6 27.8-40.6 47.4-73.2 47.4s-60.6-19.4-73.2-47.4c-4.6-10-7.2-21.2-7.2-33 0-44.4 36-80.4 80.4-80.4 44.6 0 80.4 36 80.4 80.4zm-42.6 0c0-20.8-17-37.8-37.8-37.8s-37.8 17-37.8 37.8c0 20.8 17 37.8 37.8 37.8 21 0 37.8-17 37.8-37.8z"/></svg>