<!-- Generated by IcoMoon.io -->
<svg version="1.1" xmlns="http://www.w3.org/2000/svg" width="24" height="24" viewBox="0 0 24 24">
<title>bus</title>
<path d="M9.984 15.609c0 0.277-0.061 0.539-0.169 0.773-0.295 0.652-0.952 1.111-1.716 1.111s-1.42-0.455-1.716-1.111c-0.108-0.234-0.169-0.497-0.169-0.773 0-1.041 0.844-1.884 1.884-1.884s1.884 0.844 1.884 1.884zM8.986 15.609c0-0.487-0.398-0.886-0.886-0.886s-0.886 0.398-0.886 0.886c0 0.487 0.398 0.886 0.886 0.886 0.492 0 0.886-0.398 0.886-0.886zM23.597 6.67c-0.033-0.295-0.281-0.516-0.577-0.516h-20.625c-0.619 0-1.078 0.487-1.111 1.106v0.267h-0.727c-0.173 0-0.314 0.127-0.333 0.281-0.136 0.033-0.258 0.497-0.267 0.933 0 0.005 0 0.009 0 0.014s0 0.009 0 0.019c0 0.005 0 0.009 0 0.019 0 0.005 0 0.009 0 0.014 0.009 0.455 0.141 0.938 0.286 0.938 0.038 0 0.188 0.005 0.188-0.033v-1.866c0-0.009-0.009-0.014-0.019-0.023 0.014-0.070 0.075-0.122 0.15-0.122h0.731v5.4h-0.127v1.111h0.127v1.087h-0.127v0.769c0 0.173 0.141 0.319 0.319 0.319h0.028v-0.005c0.009 0 0.019 0.005 0.023 0.005h4.57c-0.094-0.239-0.145-0.502-0.145-0.773 0-1.186 0.966-2.147 2.147-2.147 1.186 0 2.147 0.966 2.147 2.147 0 0.272-0.052 0.534-0.145 0.773h5.639c-0.094-0.239-0.145-0.502-0.145-0.773 0-1.186 0.966-2.147 2.147-2.147 1.186 0 2.147 0.966 2.147 2.147 0 0.272-0.052 0.534-0.145 0.773h1.387l2.588-0.759c0.136-0.037 0.23-0.164 0.23-0.305v-5.48l-0.361-3.173zM4.884 14.128c0 0.145-0.117 0.267-0.267 0.267h-2.123c-0.145 0-0.267-0.117-0.267-0.267v-0.548c0-0.117 0.080-0.225 0.192-0.258l2.123-0.609c0.023-0.005 0.047-0.009 0.075-0.009 0.145 0 0.267 0.117 0.267 0.267v1.158zM4.884 11.334c0 0.117-0.080 0.225-0.192 0.258l-2.123 0.609c-0.023 0.005-0.047 0.009-0.075 0.009-0.145 0-0.267-0.117-0.267-0.267v-3.6c0-0.145 0.117-0.267 0.267-0.267h2.123c0.145 0 0.267 0.117 0.267 0.267v2.991zM9.478 10.716h-2.573v-3.009h2.573v3.009zM12.483 15.816h-1.275c-0.159 0-0.291-0.131-0.291-0.291v-6.797c0-0.159 0.131-0.291 0.291-0.291h1.275v7.378zM14.456 15.52c0 0.159-0.131 0.291-0.291 0.291h-1.275v-7.373h1.275c0.159 0 0.291 0.131 0.291 0.291v6.792zM18.502 10.716h-2.573v-3.009h2.573v3.009zM19.973 7.706h2.573v3.009h-2.573v-3.009zM23.32 14.47h-3.056v-0.291h3.056v0.291zM23.32 13.758h-3.056v-0.291h3.056v0.291zM23.32 13.045h-3.056v-0.291h3.056v0.291zM23.32 12.333h-3.056v-0.291h3.056v0.291zM19.631 15.609c0 0.277-0.061 0.539-0.169 0.773-0.295 0.652-0.952 1.111-1.716 1.111s-1.42-0.455-1.716-1.111c-0.108-0.234-0.169-0.497-0.169-0.773 0-1.041 0.844-1.884 1.884-1.884 1.045 0 1.884 0.844 1.884 1.884zM18.633 15.609c0-0.487-0.398-0.886-0.886-0.886s-0.886 0.398-0.886 0.886c0 0.487 0.398 0.886 0.886 0.886 0.492 0 0.886-0.398 0.886-0.886z"></path>
</svg>
