<svg xmlns="http://www.w3.org/2000/svg" viewBox="0 0 1024 1024"><path d="M564.912 857.421v-92.596h-39.684v89.29c9.922 3.308 23.15 3.308 39.684 3.308zm79.368 6.614v-99.21h-39.684v95.904c13.228 3.308 26.456 3.308 39.684 3.308zm82.676 9.922V764.825h-39.684v102.518c13.228 3.308 26.456 6.614 39.684 6.614zm-555.58-72.756s-6.614-16.536-3.308-26.456c0 0-19.842-16.536-9.922-33.07l16.536-9.922v-16.536s82.676-56.22 337.316-56.22 337.316 56.22 337.316 56.22v16.536l16.536 9.922c9.922 16.536-9.922 33.07-9.922 33.07 3.308 9.922-3.308 26.456-3.308 26.456l3.308 85.982c85.982-89.29 142.202-214.956 142.202-353.852 0-267.868-208.342-482.826-466.29-492.746 0 3.308-3.308 3.308-3.308 3.308 0 9.922 9.922 16.536 9.922 16.536 6.614 0 13.228 13.228 13.228 13.228v6.614h-79.368v-6.614s3.308-13.228 13.228-13.228c0 0 9.922-6.614 9.922-16.536l-3.308-3.308c-261.254 9.922-466.29 228.184-466.29 492.746 0 135.588 52.912 257.948 142.202 347.238l3.308-79.368zm287.712-664.71c3.308-3.308-23.15-13.228 0-19.842s33.07-9.922 49.606-9.922 26.456 0 49.606 9.922-3.308 16.536 0 19.842c3.308 3.308 0 9.922 0 9.922v49.606c3.308 0 9.922 6.614 9.922 6.614s6.614 6.614 0 9.922v13.228s-36.378-6.614-59.526-6.614c-19.842 0-59.526 6.614-59.526 6.614v-13.228c-6.614-3.308 0-9.922 0-9.922s3.308-6.614 6.614-6.614v-49.606c3.308 0 0-6.614 3.308-9.922zm-42.992 142.202v-13.228s19.842-19.842 92.596-19.842 92.596 19.842 92.596 19.842v13.228c0 9.922 3.308 13.228 3.308 19.842s-92.596 0-95.904 0c-3.308 0-95.904 6.614-95.904 0s3.308-9.922 3.308-19.842zM244.132 480.421c3.308 0 9.922-6.614 23.15-13.228 0-3.308 3.308-6.614 3.308-6.614 6.614-3.308 29.764-145.51 234.798-145.51s231.492 142.202 234.798 145.51c3.308 0 3.308 3.308 3.308 3.308 19.842 6.614 26.456 13.228 29.764 16.536 9.922 3.308 9.922 39.684 9.922 39.684l-271.176-9.922-277.79 13.228s-3.308-36.378 9.922-42.992zm-26.458 92.596c19.842-6.614 95.904-23.15 291.018-23.15s271.176 16.536 291.018 23.15c19.842 6.614-3.308 16.536-3.308 19.842s-3.308 6.614-3.308 6.614v16.536s6.614 16.536 0 19.842c0 0-69.448-16.536-284.404-16.536s-284.404 16.536-284.404 16.536c-6.614-3.308 0-19.842 0-19.842v-16.536s-3.308-3.308-3.308-6.614c0 0-26.456-13.228-3.308-19.842zM766.64 880.571c16.536 3.308 29.764 3.308 39.684 6.614v-122.36H766.64v115.746zm-281.096-23.15v-92.596H445.86v92.596h39.684zM512 953.325H257.36c76.062 46.298 162.044 76.062 254.64 76.062s181.886-26.456 254.64-76.062H512zm-307.554-66.14c13.228-3.308 26.456-3.308 42.992-6.614V764.825h-42.992v122.36zM323.5 870.649V764.825h-39.684v109.132c13.228 0 26.456 0 39.684-3.308zm79.368-6.614v-99.21h-39.684v99.21h39.684z"/></svg>