<!-- Generated by IcoMoon.io -->
<svg version="1.1" xmlns="http://www.w3.org/2000/svg" width="24" height="24" viewBox="0 0 24 24">
<title>ca-capitol</title>
<path d="M13.24 19.596v-2.17h-0.93v2.093c0.233 0.078 0.543 0.078 0.93 0.078z"></path>
<path d="M15.1 19.751v-2.325h-0.93v2.248c0.31 0.078 0.62 0.078 0.93 0.078z"></path>
<path d="M17.038 19.983v-2.558h-0.93v2.403c0.31 0.078 0.62 0.155 0.93 0.155z"></path>
<path d="M4.017 18.278c0 0-0.155-0.388-0.078-0.62 0 0-0.465-0.388-0.233-0.775l0.388-0.233v-0.388c0 0 1.938-1.318 7.906-1.318s7.906 1.318 7.906 1.318v0.388l0.388 0.233c0.233 0.388-0.233 0.775-0.233 0.775 0.078 0.233-0.078 0.62-0.078 0.62l0.078 2.015c2.015-2.093 3.333-5.038 3.333-8.293 0-6.278-4.883-11.316-10.929-11.549 0 0.078-0.078 0.078-0.078 0.078 0 0.233 0.233 0.388 0.233 0.388 0.155 0 0.31 0.31 0.31 0.31v0.155h-1.86v-0.155c0 0 0.078-0.31 0.31-0.31 0 0 0.233-0.155 0.233-0.388 0 0 0 0-0.078-0.078-6.123 0.233-10.929 5.348-10.929 11.549 0 3.178 1.24 6.046 3.333 8.138l0.078-1.86zM10.76 2.699c0.078-0.078-0.543-0.31 0-0.465s0.775-0.233 1.163-0.233c0.388 0 0.62 0 1.163 0.233s-0.078 0.388 0 0.465c0.078 0.078 0 0.233 0 0.233v1.163c0.078 0 0.233 0.155 0.233 0.155s0.155 0.155 0 0.233v0.31c0 0-0.853-0.155-1.395-0.155-0.465 0-1.395 0.155-1.395 0.155v-0.31c-0.155-0.078 0-0.233 0-0.233s0.078-0.155 0.155-0.155v-1.163c0.078 0 0-0.155 0.078-0.233zM9.752 6.032c0-0.233 0-0.31 0-0.31s0.465-0.465 2.17-0.465v0c1.705 0 2.17 0.465 2.17 0.465s0 0.078 0 0.31c0 0.233 0.078 0.31 0.078 0.465s-2.17 0-2.248 0c-0.078 0-2.248 0.155-2.248 0s0.078-0.233 0.078-0.465zM5.722 10.76c0.078 0 0.233-0.155 0.543-0.31 0-0.078 0.078-0.155 0.078-0.155 0.155-0.078 0.698-3.41 5.503-3.41s5.426 3.333 5.503 3.41c0.078 0 0.078 0.078 0.078 0.078 0.465 0.155 0.62 0.31 0.698 0.388 0.233 0.078 0.233 0.93 0.233 0.93l-6.356-0.233-6.511 0.31c0 0-0.078-0.853 0.233-1.008zM5.102 12.93c0.465-0.155 2.248-0.543 6.821-0.543s6.356 0.388 6.821 0.543c0.465 0.155-0.078 0.388-0.078 0.465s-0.078 0.155-0.078 0.155v0.388c0 0 0.155 0.388 0 0.465 0 0-1.628-0.388-6.666-0.388s-6.666 0.388-6.666 0.388c-0.155-0.078 0-0.465 0-0.465v-0.388c0 0-0.078-0.078-0.078-0.155 0 0-0.62-0.31-0.078-0.465z"></path>
<path d="M17.968 20.138c0.388 0.078 0.698 0.078 0.93 0.155v-2.868h-0.93v2.713z"></path>
<path d="M11.38 19.596v-2.17h-0.93v2.17c0.31 0 0.62 0 0.93 0z"></path>
<path d="M12 21.844h-5.968c1.783 1.085 3.798 1.783 5.968 1.783s4.263-0.62 5.968-1.783h-5.968z"></path>
<path d="M4.792 20.293c0.31-0.078 0.62-0.078 1.008-0.155v-2.713h-1.008c0 0 0 2.868 0 2.868z"></path>
<path d="M7.582 19.906v-2.48h-0.93v2.558c0.31 0 0.62 0 0.93-0.078z"></path>
<path d="M9.442 19.751v-2.325h-0.93v2.325c0.31 0 0.62 0 0.93 0z"></path>
</svg>
