<svg xmlns="http://www.w3.org/2000/svg" viewBox="0 0 1024 1024"><path d="M512 48.088c-80.29 0-157.095 20.945-223.42 55.855 55.855 0 108.22 0 160.585 3.49 3.49 90.765 6.98 185.02 10.475 279.275 108.22 101.24 233.895 202.475 352.59 303.715 17.455 13.965 41.89 31.42 48.875 45.385s6.98 31.42 13.965 41.89c3.49 10.475 13.965 10.475 20.945 20.945v20.945c59.345-80.29 97.745-178.04 97.745-286.26 0-272.295-216.44-485.245-481.755-485.245zm164.075 904.16c20.945-38.4-24.435-55.855-45.385-69.82-6.98-3.49-17.455 3.49-24.435 3.49-6.98-10.475 3.49-10.475 0-20.945-17.455-17.455-31.42-3.49-52.365-10.475-17.455-6.98-34.91-31.42-55.855-34.91-6.98 0-10.475 3.49-13.965 3.49-20.945 0-38.4-10.475-59.345-13.965-10.475-20.945-6.98-62.835-31.42-66.33 0-38.4-45.385-34.91-45.385-73.31-13.965-13.965-31.42-24.435-38.4-52.365 3.49-6.98 10.475 0 17.455-3.49 3.49-24.435-17.455-31.42-34.91-31.42-10.475-20.945-31.42-55.855-17.455-69.82 13.965-3.49 13.965 20.945 27.93 20.945 20.945 20.945 0-13.965 0-24.435 0-6.98 17.455-17.455 17.455-24.435-3.49-10.475-31.42 0-34.91-13.965-6.98 24.435-38.4 20.945-52.365 13.965-3.49-10.475 10.475-10.475 10.475-17.455-10.475-17.455-24.435-24.435-34.91-38.4 3.49-17.455-13.965-20.945-20.945-34.91-3.49-27.93 10.475-52.365-3.49-73.31 13.965-31.42-31.42-24.435-31.42-62.835 10.475-17.455 17.455-38.4 24.435-55.855-3.49-6.98 0-10.475-3.49-13.965C86.1 271.508 33.735 393.688 33.735 526.348c0 265.315 216.44 481.755 481.755 481.755 62.835 0 125.675-13.965 181.53-34.91-6.98-10.475-13.965-13.965-20.945-20.945z"/></svg>