<!-- Generated by IcoMoon.io -->
<svg version="1.1" xmlns="http://www.w3.org/2000/svg" width="24" height="24" viewBox="0 0 24 24">
<title>ca-state</title>
<path d="M12 0.627c-1.882 0-3.682 0.491-5.236 1.309 1.309 0 2.536 0 3.764 0.082 0.082 2.127 0.164 4.336 0.246 6.546 2.536 2.373 5.482 4.746 8.264 7.118 0.409 0.327 0.982 0.736 1.146 1.064s0.164 0.736 0.327 0.982c0.082 0.246 0.327 0.246 0.491 0.491 0 0.164 0 0.327 0 0.491 1.391-1.882 2.291-4.173 2.291-6.709 0-6.382-5.073-11.373-11.291-11.373z"></path>
<path d="M15.846 21.818c0.491-0.9-0.573-1.309-1.064-1.636-0.164-0.082-0.409 0.082-0.573 0.082-0.164-0.246 0.082-0.246 0-0.491-0.409-0.409-0.736-0.082-1.227-0.246-0.409-0.164-0.818-0.736-1.309-0.818-0.164 0-0.246 0.082-0.327 0.082-0.491 0-0.9-0.246-1.391-0.327-0.246-0.491-0.164-1.473-0.736-1.555 0-0.9-1.064-0.818-1.064-1.718-0.327-0.327-0.736-0.573-0.9-1.227 0.082-0.164 0.246 0 0.409-0.082 0.082-0.573-0.409-0.736-0.818-0.736-0.246-0.491-0.736-1.309-0.409-1.636 0.327-0.082 0.327 0.491 0.655 0.491 0.491 0.491 0-0.327 0-0.573 0-0.164 0.409-0.409 0.409-0.573-0.082-0.246-0.736 0-0.818-0.327-0.164 0.573-0.9 0.491-1.227 0.327-0.082-0.246 0.246-0.246 0.246-0.409-0.246-0.409-0.573-0.573-0.818-0.9 0.082-0.409-0.327-0.491-0.491-0.818-0.082-0.655 0.246-1.227-0.082-1.718 0.327-0.736-0.736-0.573-0.736-1.473 0.246-0.409 0.409-0.9 0.573-1.309-0.082-0.164 0-0.246-0.082-0.327-2.046 1.964-3.273 4.827-3.273 7.937 0 6.218 5.073 11.291 11.291 11.291 1.473 0 2.946-0.327 4.255-0.818-0.164-0.246-0.327-0.327-0.491-0.491z"></path>
</svg>
