<!-- Generated by IcoMoon.io -->
<svg version="1.1" xmlns="http://www.w3.org/2000/svg" width="24" height="24" viewBox="0 0 24 24">
<title>cal-bear</title>
<path d="M1.584 8.602l1.32-0.961 1.33 0.947-0.506-1.552 1.312-0.972-1.632 0.001-0.52-1.547-0.503 1.552-1.632 0.017 1.321 0.958z"></path>
<path d="M12.235 17.26c-8.882 0-12.235 1.409-12.235 1.409h24c0 0-3.448-1.409-11.765-1.409z"></path>
<path d="M4.552 9.424c-0.031 0.034-0.061 0.066-0.088 0.095-0.077 0.085-0.125 0.143-0.125 0.143 0-0.060-0.030-0.12-0.109-0.188-0.355-0.311-0.488-0.133-0.622-0.089s-0.178 0.444-0.178 0.444-0.222-0.222-0.488-0.133c-0.266 0.089-0.355 0.4-0.311 0.577s-0.755 0.799-0.799 1.153c-0.044 0.355 0.044 0.4-0.044 0.577s-1.021 1.109-1.021 1.109 0.799 0.888 1.242 0.888c0.444 0 1.73-0.222 1.73-0.222s0.844 0.311 1.198 0.044c0.146-0.11 0.377-0.335 0.55-0.616 0.156-0.091 0.306-0.184 0.427-0.271 0.307-0.102 0.599-0.061 0.719-0.036 0.002 0 0.006 0.001 0.007 0.001 0.013 0.002 0.024 0.005 0.032 0.007-0.008-0.002-0.019-0.005-0.032-0.007l0.042 0.023c0 0 0 0 0.001-0.001 0 0 0 0-0.001 0.001v0c-0.304 0.329-0.39 1.721-0.39 1.721-0.844 0.932-0.755 1.375-0.932 1.597s-0.533 0-0.799 0c-0.266 0-0.488 0.266-0.666 0.488s0.266 0.178 0.266 0.178h2.174c0.178-0.222 0.488-0.666 1.286-1.021 0.602-0.268 1.38-1.014 1.822-1.48v0c0.002-0.002 0.005-0.005 0.007-0.007 0.029 0.024 0.056 0.047 0.083 0.068v0c0.094 0.077 0.174 0.14 0.226 0.174 0 0 0 0 0 0 0.176 0.17 0.522 0.496 0.836 0.736 0.444 0.341 0.4 0.438 0.355 0.68-0.044 0.244-0.355 0.049-0.71 0.146s-0.4 0.535-0.4 0.535h1.686c0 0 0.666-0.779 0.844-1.216 0.144-0.354-0.265-1.123-0.426-1.403 0 0 0 0 0 0-0.034-0.066-0.060-0.137-0.079-0.211v0c-0.007-0.026-0.013-0.052-0.018-0.078 0.742 0.161 1.426 0.096 1.768-0.076 0.086-0.043 0.166-0.097 0.239-0.157 0.008-0.007 0.019-0.013 0.028-0.020 0.020 0.005 0.038 0.012 0.056 0.018 0.059 0.023 0.103 0.053 0.137 0.086 0.022 0.022 0.040 0.046 0.053 0.070v0.002l-0.001 0.006c-0.002 0.006-0.006 0.011-0.008 0.017-0.505 0.918-0.060 2.134-0.060 2.419 0 0.311-0.133 0.133-0.133 0.133-0.577-0.133-0.732 0.022-0.732 0.022-0.533 0.222-0.311 0.577-0.311 0.577h2.53c0 0 0.089-0.133 0.044-0.4s0.044-0.355 0.4-0.444c0.191-0.048 0.835-1.042 1.402-1.654 0.029-0.031 0.058-0.062 0.086-0.091 0.002 0.002 0.005 0.005 0.007 0.007 0.023 0.022 0.046 0.047 0.067 0.077 0.209 0.295 0.352 1.002 0.552 1.064 0.084 0.047 0.184 0.086 0.305 0.109 0.71 0.138 1.753 0.481 1.487 0.619s-0.466-0.252-0.91 0.115-0.311 0.596-0.311 0.596h1.997c0 0 0.266-0.964 0.444-1.285s0.044-0.367-0.311-0.78c-0.355-0.413-0.404-0.964-0.444-2.249-0.004-0.13-0.024-0.269-0.054-0.413v0c-0.077-0.348-0.221-0.719-0.359-1.002-0.138-0.284-0.269-0.482-0.314-0.482 0 0 0.002-0.029 0.006-0.073 0.004-0.050 0.008-0.12 0.012-0.191 0.002-0.071 0.004-0.143 0.001-0.197-0.006-0.108-0.151-0.442-0.414-0.58-0.445-0.234 0.080 0.282-0.586-0.472-0.666-0.755-2.086-1.242-3.816-1.42-0.673-0.070-1.326-0.050-1.904-0.002-0.889 0.074-1.6 0.218-1.934 0.224-0.007 0-0.016 0-0.022 0-0.533 0-1.198-0.577-2.086-0.71-0.060-0.008-0.119-0.013-0.176-0.013-0.812-0.004-1.528 0.791-2.396 1.122-0.227 0.086-0.436 0.196-0.628 0.32 0 0 0 0 0 0-0.239-0.071-0.725 0.397-1.004 0.697zM6.692 12.911c0 0-0.001 0-0.001 0 0.001 0 0.001 0 0.001 0v0z"></path>
</svg>
