<svg xmlns="http://www.w3.org/2000/svg" viewBox="0 0 1024 1024"><path d="M67.584 388.335l56.32-41.011 56.73 40.397-21.606-66.202 55.962-41.472-69.632.051-22.17-65.997-21.453 66.202-69.632.717 56.371 40.858zm454.451 369.408C143.053 757.743 0 817.852 0 817.852h1024s-147.098-60.109-501.965-60.109zM194.202 423.407a944.221 944.221 0 0 0-3.738 4.045c-3.277 3.635-5.325 6.093-5.325 6.093 0-2.56-1.28-5.12-4.659-8.038-15.155-13.261-20.838-5.683-26.522-3.789s-7.578 18.944-7.578 18.944-9.472-9.472-20.838-5.683c-11.366 3.789-15.155 17.05-13.261 24.627s-32.205 34.099-34.099 49.203c-1.894 15.155 1.894 17.05-1.894 24.627s-43.571 47.309-43.571 47.309 34.099 37.888 52.992 37.888c18.944 0 73.83-9.472 73.83-9.472s35.994 13.261 51.098 1.894c6.246-4.71 16.077-14.285 23.45-26.266 6.656-3.891 13.056-7.834 18.227-11.571 13.107-4.352 25.549-2.611 30.669-1.536.102 0 .256.051.307.051l1.792.973.051-.051-.051.051c-12.954 14.029-16.64 73.421-16.64 73.421-35.994 39.782-32.205 58.675-39.782 68.147s-22.733 0-34.099 0c-11.366 0-20.838 11.366-28.416 20.838s11.366 7.578 11.366 7.578h92.774c7.578-9.472 20.838-28.416 54.886-43.571 25.702-11.418 58.88-43.264 77.722-63.13l.307-.307a483.724 483.724 0 0 0 3.533 2.918c3.994 3.277 7.424 5.99 9.626 7.424 7.526 7.27 22.272 21.146 35.686 31.386 18.944 14.541 17.05 18.688 15.155 29.03-1.894 10.394-15.155 2.099-30.31 6.246s-17.05 22.835-17.05 22.835h71.936s28.416-33.229 35.994-51.866c6.144-15.104-11.315-47.923-18.176-59.853-1.434-2.816-2.56-5.837-3.379-9.011a39.142 39.142 0 0 1-.768-3.328c31.642 6.861 60.826 4.096 75.418-3.226 3.686-1.843 7.066-4.147 10.189-6.707.358-.307.819-.563 1.178-.87.87.205 1.638.512 2.406.768 2.509.973 4.403 2.253 5.837 3.686a13.38 13.38 0 0 1 2.253 2.97v.102l-.051.256c-.102.256-.256.461-.358.717-21.555 39.168-2.56 91.034-2.56 103.219 0 13.261-5.683 5.683-5.683 5.683-24.627-5.683-31.232.922-31.232.922-22.733 9.472-13.261 24.627-13.261 24.627h107.93s3.789-5.683 1.894-17.05 1.894-15.155 17.05-18.944c8.141-2.048 35.635-44.442 59.802-70.554 1.229-1.331 2.458-2.662 3.686-3.891l.307.307a23.005 23.005 0 0 1 2.867 3.277c8.909 12.595 15.002 42.752 23.552 45.414 3.584 1.997 7.834 3.686 13.005 4.659 30.31 5.888 74.803 20.531 63.437 26.419s-19.866-10.752-38.81 4.915-13.261 25.446-13.261 25.446h85.197s11.366-41.114 18.944-54.835 1.894-15.667-13.261-33.28-17.254-41.114-18.944-95.949c-.154-5.53-1.024-11.469-2.304-17.613-3.277-14.848-9.421-30.669-15.309-42.752-5.888-12.134-11.469-20.582-13.414-20.582 0 0 .102-1.229.256-3.123.154-2.15.358-5.12.512-8.141.102-3.021.154-6.093.051-8.397-.256-4.608-6.451-18.842-17.664-24.73-18.995-9.984 3.43 12.032-24.986-20.122-28.416-32.205-88.986-52.992-162.816-60.57-28.723-2.97-56.576-2.15-81.254-.102-37.939 3.174-68.25 9.318-82.534 9.574h-.922c-22.733 0-51.098-24.627-88.986-30.31-2.56-.358-5.069-.563-7.526-.563-34.662-.154-65.178 33.741-102.246 47.872-9.677 3.686-18.586 8.346-26.778 13.67-10.189-3.021-30.925 16.947-42.854 29.747zm91.34 148.787h-.051.051z"/></svg>