<svg xmlns="http://www.w3.org/2000/svg" viewBox="0 0 1024 1024"><path d="M257.6 750.799h512.91V422.545H257.6v328.254zm324.158-274.908h94.376v90.266h-90.266v-90.266zm-131.31 0h90.266v90.266h-90.266v-90.266zm-131.296 0h90.266v90.266h-90.266v-90.266zm0 127.2h90.266v90.266h-90.266v-90.266zM512 24.533c-274.922 0-500.594 229.782-500.594 508.8s225.672 508.8 500.594 508.8 500.594-229.782 500.594-508.8S786.922 24.533 512 24.533zm73.854 131.31c0-16.412 12.316-28.728 28.728-28.728s28.728 12.316 28.728 28.728v143.612c0 16.412-12.316 28.728-28.728 28.728s-28.728-12.316-28.728-28.728V155.843zm-209.26 0c0-16.412 12.316-28.728 28.728-28.728s28.728 12.316 28.728 28.728v143.612c0 16.412-12.316 28.728-28.728 28.728s-28.728-12.316-28.728-28.728V155.843zm471.866 672.92H179.636V246.109h172.34v73.854c0 28.728 24.618 53.346 53.346 53.346s53.346-24.618 53.346-53.346v-73.854H561.25v73.854c0 28.728 24.618 53.346 53.346 53.346s53.346-24.618 53.346-53.346v-73.854h180.546v582.654z"/></svg>