<!-- Generated by IcoMoon.io -->
<svg version="1.1" xmlns="http://www.w3.org/2000/svg" width="24" height="24" viewBox="0 0 24 24">
<title>cal</title>
<path d="M6.038 17.097h12.021v-7.693h-12.021v7.693zM13.635 10.654h2.212v2.116h-2.116v-2.116zM10.557 10.654h2.116v2.116h-2.116c0 0 0-2.116 0-2.116zM7.48 10.654h2.116v2.116h-2.116v-2.116zM7.48 13.635h2.116v2.116h-2.116v-2.116z"></path>
<path d="M12 0.075c-6.443 0-11.733 5.386-11.733 11.925s5.289 11.925 11.733 11.925c6.443 0 11.733-5.386 11.733-11.925s-5.289-11.925-11.733-11.925zM13.731 3.153c0-0.385 0.289-0.673 0.673-0.673s0.673 0.289 0.673 0.673v3.366c0 0.385-0.289 0.673-0.673 0.673s-0.673-0.289-0.673-0.673v-3.366zM8.826 3.153c0-0.385 0.289-0.673 0.673-0.673s0.673 0.289 0.673 0.673v3.366c0 0.385-0.289 0.673-0.673 0.673s-0.673-0.289-0.673-0.673v-3.366zM19.886 18.924h-15.676v-13.656h4.039v1.731c0 0.673 0.577 1.25 1.25 1.25s1.25-0.577 1.25-1.25v-1.731h2.404v1.731c0 0.673 0.577 1.25 1.25 1.25s1.25-0.577 1.25-1.25v-1.731h4.232v13.656z"></path>
</svg>
