<!-- Generated by IcoMoon.io -->
<svg version="1.1" xmlns="http://www.w3.org/2000/svg" width="24" height="24" viewBox="0 0 24 24">
<title>calculator</title>
<path d="M4.5 24h15c0.828 0 1.5-0.672 1.5-1.5v-21c0-0.828-0.672-1.5-1.5-1.5h-15c-0.828 0-1.5 0.672-1.5 1.5v21c0 0.828 0.672 1.5 1.5 1.5zM16.5 16.5c-0.828 0-1.5-0.672-1.5-1.5s0.672-1.5 1.5-1.5 1.5 0.672 1.5 1.5c0 0.828-0.672 1.5-1.5 1.5zM18 19.5c0 0.828-0.672 1.5-1.5 1.5s-1.5-0.672-1.5-1.5c0-0.828 0.672-1.5 1.5-1.5s1.5 0.672 1.5 1.5zM16.5 12c-0.828 0-1.5-0.672-1.5-1.5s0.672-1.5 1.5-1.5 1.5 0.672 1.5 1.5c0 0.828-0.672 1.5-1.5 1.5zM6 6v-3h12v3h-12zM12 16.5c-0.828 0-1.5-0.672-1.5-1.5s0.672-1.5 1.5-1.5 1.5 0.672 1.5 1.5c0 0.828-0.672 1.5-1.5 1.5zM13.5 19.5c0 0.828-0.672 1.5-1.5 1.5s-1.5-0.672-1.5-1.5c0-0.828 0.672-1.5 1.5-1.5s1.5 0.672 1.5 1.5zM12 12c-0.828 0-1.5-0.672-1.5-1.5s0.672-1.5 1.5-1.5 1.5 0.672 1.5 1.5c0 0.828-0.672 1.5-1.5 1.5zM7.5 9c0.828 0 1.5 0.672 1.5 1.5s-0.672 1.5-1.5 1.5-1.5-0.672-1.5-1.5c0-0.828 0.672-1.5 1.5-1.5zM7.5 13.5c0.828 0 1.5 0.672 1.5 1.5s-0.672 1.5-1.5 1.5-1.5-0.672-1.5-1.5c0-0.828 0.672-1.5 1.5-1.5zM7.5 18c0.828 0 1.5 0.672 1.5 1.5s-0.672 1.5-1.5 1.5-1.5-0.672-1.5-1.5c0-0.828 0.672-1.5 1.5-1.5z"></path>
</svg>
