<svg xmlns="http://www.w3.org/2000/svg" viewBox="0 0 1024 1024"><path d="M192 1045.333h640c35.328 0 64-28.672 64-64v-896c0-35.328-28.672-64-64-64H192c-35.328 0-64 28.672-64 64v896c0 35.328 28.672 64 64 64zm512-320c-35.328 0-64-28.672-64-64s28.672-64 64-64 64 28.672 64 64-28.672 64-64 64zm64 128c0 35.328-28.672 64-64 64s-64-28.672-64-64 28.672-64 64-64 64 28.672 64 64zm-64-320c-35.328 0-64-28.672-64-64s28.672-64 64-64 64 28.672 64 64-28.672 64-64 64zm-448-256v-128h512v128H256zm256 448c-35.328 0-64-28.672-64-64s28.672-64 64-64 64 28.672 64 64-28.672 64-64 64zm64 128c0 35.328-28.672 64-64 64s-64-28.672-64-64 28.672-64 64-64 64 28.672 64 64zm-64-320c-35.328 0-64-28.672-64-64s28.672-64 64-64 64 28.672 64 64-28.672 64-64 64zm-192-128c35.328 0 64 28.672 64 64s-28.672 64-64 64-64-28.672-64-64 28.672-64 64-64zm0 192c35.328 0 64 28.672 64 64s-28.672 64-64 64-64-28.672-64-64 28.672-64 64-64zm0 192c35.328 0 64 28.672 64 64s-28.672 64-64 64-64-28.672-64-64 28.672-64 64-64z"/></svg>