<svg xmlns="http://www.w3.org/2000/svg" viewBox="0 0 1024 1024"><path d="M710.882 180.509v92.953c0 37.873-30.807 68.591-68.591 68.591-37.873 0-68.635-30.718-68.635-68.591v-92.953H443.199v92.953c0 37.873-30.718 68.591-68.591 68.591s-68.591-30.718-68.591-68.591v-92.953H89.097v742.517h848.612V180.509H710.893zm129.039 640.876H186.862v-414.56h653.059v414.56zM374.562 290.887c20.324 0 36.875-16.463 36.875-36.875V69.849c0-20.368-16.507-36.875-36.875-36.875s-36.875 16.463-36.875 36.875v184.205c.044 20.324 16.507 36.831 36.875 36.831zm267.728-.088c20.29 0 36.753-16.507 36.753-36.831V69.929c0-20.324-16.463-36.831-36.753-36.831-20.368 0-36.831 16.463-36.831 36.831v184.039c0 20.324 16.463 36.831 36.831 36.831zM266.681 471.852h116.945v116.901H266.681V471.852zm0 162.376h116.945v116.945H266.681V634.228zm167.454-162.376H551.08v116.901H434.135V471.852zm167.287 0h116.945v116.901H601.422V471.852z"/></svg>