<!-- Generated by IcoMoon.io -->
<svg version="1.1" xmlns="http://www.w3.org/2000/svg" width="24" height="24" viewBox="0 0 24 24">
<title>calendar</title>
<path d="M16.661 3.731v2.179c0 0.888-0.722 1.608-1.608 1.608-0.888 0-1.609-0.72-1.609-1.608v-2.179h-3.058v2.179c0 0.888-0.72 1.608-1.608 1.608s-1.608-0.72-1.608-1.608v-2.179h-5.084v17.403h19.889v-17.403h-5.316zM19.686 18.751h-15.306v-9.716h15.306v9.716z"></path>
<path d="M8.779 6.318c0.476 0 0.864-0.386 0.864-0.864v-4.316c0-0.477-0.387-0.864-0.864-0.864s-0.864 0.386-0.864 0.864v4.317c0.001 0.476 0.387 0.863 0.864 0.863z"></path>
<path d="M15.054 6.316c0.476 0 0.861-0.387 0.861-0.863v-4.313c0-0.476-0.386-0.863-0.861-0.863-0.477 0-0.863 0.386-0.863 0.863v4.313c0 0.476 0.386 0.863 0.863 0.863z"></path>
<path d="M6.25 10.559h2.741v2.74h-2.741v-2.74z"></path>
<path d="M6.25 14.365h2.741v2.741h-2.741v-2.741z"></path>
<path d="M10.175 10.559h2.741v2.74h-2.741v-2.74z"></path>
<path d="M14.096 10.559h2.741v2.74h-2.741v-2.74z"></path>
</svg>
