<svg xmlns="http://www.w3.org/2000/svg" viewBox="0 0 1024 1024"><path d="M512 42.133c-265.787 0-481.108 222.048-481.108 491.2s215.321 491.2 481.108 491.2c265.787 0 481.108-218.686 481.108-491.2S777.787 42.133 512 42.133zm-6.73 396.998c63.923 13.457 104.297 74.015 90.837 137.941l-53.831-10.092c6.73-37.009-13.457-67.288-47.101-74.015l10.092-53.831zm201.864 400.36c-30.279 33.644-63.923 74.015-63.923 74.015s-74.015 84.11-211.956-80.745c-67.288-77.38-107.659-134.576-131.211-171.585-30.279-43.736-53.831-90.837-97.567-185.042C115.002 281 222.664 250.721 222.664 250.721s50.466-13.457 94.202-26.914 80.745 60.558 80.745 60.558 63.923 100.932 30.279 134.576c-37.009 37.009-77.38 50.466-70.653 87.475 3.365 20.187 20.187 57.196 40.374 94.202 23.552 40.374 50.466 67.288 67.288 77.38 30.279 20.187 60.558-10.092 111.024-26.914 43.736-16.822 107.659 87.475 107.659 87.475s53.831 67.288 23.552 100.932zm6.73-238.87l-67.288-13.457c20.187-94.202-40.374-181.677-131.211-201.864l13.457-70.653c127.846 26.914 211.956 154.763 185.042 285.974zm137.938 26.914l-74.015-16.822c33.644-164.855-70.653-326.345-235.508-359.989l16.822-74.015c201.864 43.736 333.075 245.6 292.701 450.826z"/></svg>