<!-- Generated by IcoMoon.io -->
<svg version="1.1" xmlns="http://www.w3.org/2000/svg" width="24" height="24" viewBox="0 0 24 24">
<title>camera</title>
<path d="M22.063 6.25h-2.875c0 0-0.831 0-1.438-1.438-0.31-0.732-0.645-1.438-1.438-1.438h-5.75c-0.793 0-1.139 0.701-1.438 1.438-0.584 1.438-1.438 1.438-1.438 1.438h-1.438c0-0.793-0.645-1.438-1.438-1.438h-1.438c-0.793 0-1.438 0.645-1.438 1.438-0.793 0-1.438 0.645-1.438 1.438v2.875h7.985c0.997-1.712 2.83-2.875 4.953-2.875s3.955 1.163 4.953 2.875h5.11v-2.875c0-0.793-0.645-1.438-1.438-1.438zM5.531 9.125h-2.875c-0.398 0-0.719-0.321-0.719-0.719s0.321-0.719 0.719-0.719h2.875c0.398 0 0.719 0.321 0.719 0.719s-0.321 0.719-0.719 0.719zM9.125 13.438c0 2.381 1.932 4.313 4.313 4.313s4.313-1.932 4.313-4.313-1.932-4.313-4.313-4.313-4.313 1.932-4.313 4.313zM19.188 13.438c0 3.176-2.574 5.75-5.75 5.75s-5.75-2.574-5.75-5.75c0-0.499 0.083-0.977 0.202-1.438h-7.39v7.188c0 0.793 0.645 1.438 1.438 1.438h20.125c0.793 0 1.438-0.645 1.438-1.438v-7.188h-4.515c0.119 0.46 0.202 0.939 0.202 1.438z"></path>
</svg>
