<svg xmlns="http://www.w3.org/2000/svg" viewBox="0 0 1024 1024"><path d="M941.338 287.997H818.672s-35.458 0-61.336-61.336c-13.227-31.242-27.504-61.336-61.336-61.336H450.664c-33.832 0-48.588 29.9-61.336 61.336-24.916 61.336-61.336 61.336-61.336 61.336h-61.336c0-33.832-27.504-61.336-61.336-61.336h-61.336c-33.832 0-61.336 27.504-61.336 61.336-33.832 0-61.336 27.504-61.336 61.336v122.666h340.692c42.55-73.027 120.752-122.666 211.314-122.666s168.762 49.642 211.314 122.666h218.02V349.333c0-33.832-27.504-61.336-61.336-61.336zm-705.34 122.67H113.332c-16.962 0-30.666-13.704-30.666-30.666s13.704-30.666 30.666-30.666h122.666c16.962 0 30.666 13.704 30.666 30.666s-13.704 30.666-30.666 30.666zm153.336 184.002c0 101.586 82.416 184.002 184.002 184.002s184.002-82.416 184.002-184.002-82.416-184.002-184.002-184.002-184.002 82.416-184.002 184.002zm429.334 0c0 135.508-109.826 245.336-245.336 245.336S327.996 730.179 327.996 594.669c0-21.277 3.546-41.688 8.627-61.336H21.329v306.668c0 33.832 27.504 61.336 61.336 61.336h858.671c33.832 0 61.336-27.504 61.336-61.336V533.333H810.044c5.08 19.646 8.627 40.058 8.627 61.336z"/></svg>