<svg xmlns="http://www.w3.org/2000/svg" viewBox="0 0 1024 1024"><path d="M340.622 819.2c-61.511-26.311-115.556-49.422-169.244-72.533-24.533-10.311-43.378-25.956-47.644-54.044-3.911-26.311 4.622-48.356 24.889-65.067 21.689-17.422 46.222-18.489 71.467-7.467 91.733 39.467 183.467 79.644 275.911 118.044 12.8 5.333 31.289 6.044 44.089 1.067 94.222-35.911 187.733-74.667 281.956-110.578 52.267-19.911 99.556 17.067 93.156 70.756-3.2 26.667-18.489 44.089-43.022 54.044-46.933 18.844-93.867 37.333-140.8 56.178-10.311 4.267-20.267 8.533-35.911 15.289 61.156 26.311 117.689 50.133 173.867 75.378 39.467 17.778 52.978 52.978 36.622 89.956-16 36.622-52.978 49.422-94.578 31.644-89.244-38.4-178.489-76.8-267.733-115.911-18.133-8.178-33.778-9.244-52.978-1.422-89.956 36.978-180.622 72.178-270.933 108.089-44.444 17.422-78.933 4.978-95.289-34.133-16-38.756.711-72.889 44.8-90.667 54.044-21.689 108.8-43.378 171.378-68.622zm114.489-128.711c-44.8-22.044-83.911-37.689-119.467-59.378-75.733-46.222-93.156-128-48-204.089 36.267-64.711 16.711-89.956 31.644-121.6 11.378 6.044 38.044 49.778 56.889 60.089-2.133-31.644-21.333-98.489 15.644-198.4 16.356-44.089 67.2-102.4 118.044-109.511-26.311 44.089-20.622 97.778 1.778 125.511 18.489 22.756 51.911 54.756 60.444 76.444 22.4-46.933 70.4-76.089 72.889-74.311-28.444 49.067-1.778 104.533 27.022 138.311 19.2 22.4 32.711 49.778 49.067 75.022 10.311-13.156 22.4-28.444 33.067-42.311 14.933 56.178 54.756 66.489 43.378 164.622S658.132 663.821 609.421 687.644c24.178-55.467 37.689-108.089-21.333-145.422-35.911-22.756-103.822-15.289-132.267 11.378-32 29.511-33.422 66.844-.711 136.889z"/></svg>