<!-- Generated by IcoMoon.io -->
<svg version="1.1" xmlns="http://www.w3.org/2000/svg" width="24" height="24" viewBox="0 0 24 24">
<title>campfire</title>
<path d="M7.983 18.7c-1.442-0.617-2.708-1.158-3.967-1.7-0.575-0.242-1.017-0.608-1.117-1.267-0.092-0.617 0.108-1.133 0.583-1.525 0.508-0.408 1.083-0.433 1.675-0.175 2.15 0.925 4.3 1.867 6.467 2.767 0.3 0.125 0.733 0.142 1.033 0.025 2.208-0.842 4.4-1.75 6.608-2.592 1.225-0.467 2.333 0.4 2.183 1.658-0.075 0.625-0.433 1.033-1.008 1.267-1.1 0.442-2.2 0.875-3.3 1.317-0.242 0.1-0.475 0.2-0.842 0.358 1.433 0.617 2.758 1.175 4.075 1.767 0.925 0.417 1.242 1.242 0.858 2.108-0.375 0.858-1.242 1.158-2.217 0.742-2.092-0.9-4.183-1.8-6.275-2.717-0.425-0.192-0.792-0.217-1.242-0.033-2.108 0.867-4.233 1.692-6.35 2.533-1.042 0.408-1.85 0.117-2.233-0.8-0.375-0.908 0.017-1.708 1.050-2.125 1.267-0.508 2.55-1.017 4.017-1.608z"></path>
<path d="M10.667 15.683c-1.050-0.517-1.967-0.883-2.8-1.392-1.775-1.083-2.183-3-1.125-4.783 0.85-1.517 0.392-2.108 0.742-2.85 0.267 0.142 0.892 1.167 1.333 1.408-0.050-0.742-0.5-2.308 0.367-4.65 0.383-1.033 1.575-2.4 2.767-2.567-0.617 1.033-0.483 2.292 0.042 2.942 0.433 0.533 1.217 1.283 1.417 1.792 0.525-1.1 1.65-1.783 1.708-1.742-0.667 1.15-0.042 2.45 0.633 3.242 0.45 0.525 0.767 1.167 1.15 1.758 0.242-0.308 0.525-0.667 0.775-0.992 0.35 1.317 1.283 1.558 1.017 3.858s-3.267 3.35-4.408 3.908c0.567-1.3 0.883-2.533-0.5-3.408-0.842-0.533-2.433-0.358-3.1 0.267-0.75 0.692-0.783 1.567-0.017 3.208z"></path>
</svg>
