<svg xmlns="http://www.w3.org/2000/svg" viewBox="0 0 1024 1024"><path d="M694.4 667.733S943.289 557.511 992 334.222c0 0-273.422 36.978-390.4 200.889 0 0 55.467-273.778-88.178-502.756 0 0-.356-.711-1.067-.711s-1.422.356-1.422.356c-151.467 224.711-88.178 502.756-88.178 502.756C305.422 370.845 31.999 334.223 31.999 334.223 80.71 557.867 341.688 662.401 341.688 662.401c-228.622 4.622-309.689 92.444-309.689 92.444 128.356 91.378 340.267 50.133 340.267 50.133-88.178 69.333-64.711 138.311-64.711 138.311 112-9.956 163.556-70.044 174.222-83.911v145.778c0 16.711 13.511 30.222 30.222 30.222s30.222-13.511 30.222-30.222V859.378c10.667 14.222 61.867 74.311 174.222 83.911 0 0 23.467-69.333-64.711-138.311 0 0 211.911 41.244 340.267-50.133 0 0-65.422-94.933-297.6-87.111z"/></svg>