<!-- Generated by IcoMoon.io -->
<svg version="1.1" xmlns="http://www.w3.org/2000/svg" width="24" height="24" viewBox="0 0 24 24">
<title>cannabis</title>
<path d="M16.275 15.15c0 0 5.833-2.583 6.975-7.817 0 0-6.408 0.867-9.15 4.708 0 0 1.3-6.417-2.067-11.783 0 0-0.008-0.017-0.025-0.017s-0.033 0.008-0.033 0.008c-3.55 5.267-2.067 11.783-2.067 11.783-2.75-3.842-9.158-4.7-9.158-4.7 1.142 5.242 7.258 7.692 7.258 7.692-5.358 0.108-7.258 2.167-7.258 2.167 3.008 2.142 7.975 1.175 7.975 1.175-2.067 1.625-1.517 3.242-1.517 3.242 2.625-0.233 3.833-1.642 4.083-1.967v3.417c0 0.392 0.317 0.708 0.708 0.708s0.708-0.317 0.708-0.708v-3.417c0.25 0.333 1.45 1.742 4.083 1.967 0 0 0.55-1.625-1.517-3.242 0 0 4.967 0.967 7.975-1.175 0 0-1.533-2.225-6.975-2.042z"></path>
</svg>
