<!-- Generated by IcoMoon.io -->
<svg version="1.1" xmlns="http://www.w3.org/2000/svg" width="24" height="24" viewBox="0 0 24 24">
<title>capitol</title>
<path d="M5.237 13.388c-0.013 0.039 0.074 0.128 0.074 0.128v0.403c0 0-0.168 0.401 0 0.46 0 0 1.609-0.368 6.61-0.368s6.61 0.368 6.61 0.368c0.17-0.059 0-0.46 0-0.46v-0.403c0 0 0.090-0.089 0.076-0.128-0.016-0.039 0.576-0.295 0.087-0.452-0.488-0.159-2.261-0.55-6.773-0.55s-6.284 0.391-6.772 0.55c-0.488 0.157 0.102 0.413 0.088 0.452z"></path>
<path d="M10.567 4.324c0 0-0.163 0.15 0 0.227v0.325c0 0 0.876-0.148 1.354-0.148s1.355 0.148 1.355 0.148v-0.325c0.163-0.077 0-0.227 0-0.227s-0.102-0.121-0.183-0.166v-1.132c0 0 0.040-0.167 0-0.257-0.041-0.092 0.55-0.288 0-0.498-0.551-0.212-0.775-0.242-1.172-0.242s-0.621 0.030-1.171 0.242 0.041 0.406 0 0.498c-0.040 0.091 0 0.257 0 0.257v1.132c-0.081 0.045-0.183 0.166-0.183 0.166z"></path>
<path d="M12.864 1.323c0 0-0.102-0.311-0.286-0.322 0 0-0.235-0.167-0.224-0.386 0 0 0.070-0.029 0.070-0.156l-0.203-0.248h-0.555l-0.204 0.249c0 0.127 0.072 0.156 0.072 0.156 0.010 0.219-0.224 0.386-0.224 0.386-0.182 0.011-0.285 0.322-0.285 0.322v0.184h1.837v-0.185z"></path>
<path d="M11.933 6.53c0.063 0.004 2.232 0.135 2.232-0.001 0-0.142-0.062-0.248-0.093-0.449s0-0.28 0-0.28-0.441-0.43-2.129-0.43h-0.022c-1.689 0-2.129 0.43-2.129 0.43s0.031 0.078 0 0.28c-0.030 0.202-0.092 0.307-0.092 0.449 0 0.136 2.167 0.004 2.232 0.001z"></path>
<path d="M11.987 11.445l6.445 0.301c0 0 0.047-0.86-0.212-0.95-0.111-0.037-0.28-0.197-0.72-0.38-0.020-0.048-0.048-0.089-0.090-0.105-0.143-0.055-0.693-3.366-5.49-3.366s-5.347 3.311-5.489 3.366c-0.060 0.022-0.093 0.096-0.112 0.173-0.328 0.154-0.468 0.28-0.565 0.313-0.261 0.091-0.213 0.95-0.213 0.95l6.446-0.302z"></path>
<path d="M19.844 20.445l-0.049-2.233c0 0 0.163-0.356 0.059-0.612 0 0 0.468-0.358 0.204-0.734l-0.346-0.217 0.021-0.415c0 0-1.913-1.285-7.812-1.307-5.899 0.021-7.813 1.307-7.813 1.307l0.021 0.415-0.348 0.217c-0.263 0.376 0.205 0.734 0.205 0.734-0.103 0.256 0.062 0.612 0.062 0.612l-0.054 2.354c-0.48 0.481 0.138 1.18 0.138 1.18h15.704c0.002 0.001 0.745-0.826 0.006-1.3zM18.88 17.412v2.771c-0.275-0.050-0.597-0.097-0.944-0.146v-2.626h0.944zM16.967 17.412v2.503c-0.309-0.035-0.626-0.070-0.944-0.102v-2.401h0.944zM15.098 17.412v2.309c-0.327-0.031-0.642-0.059-0.943-0.086v-2.223h0.943zM13.23 17.412v2.145c-0.396-0.032-0.726-0.058-0.944-0.074v-2.070h0.944zM11.361 17.412v2.096c-0.255 0.019-0.577 0.045-0.942 0.076v-2.172h0.942zM9.494 17.412v2.253c-0.305 0.027-0.621 0.058-0.944 0.088v-2.34h0.944zM7.626 17.412v2.435c-0.323 0.034-0.637 0.071-0.944 0.109v-2.543h0.944zM5.835 17.412v2.654c-0.376 0.055-0.707 0.109-0.983 0.165v-2.819h0.983z"></path>
</svg>
