<svg xmlns="http://www.w3.org/2000/svg" viewBox="0 0 1024 1024"><path d="M223.438 592.533c-.554 1.662 3.166 5.461 3.166 5.461v17.174s-7.164 17.095 0 19.629c0 0 68.659-15.712 282.032-15.712 213.414 0 282.032 15.712 282.032 15.712 7.241-2.532 0-19.629 0-19.629v-17.174s3.839-3.799 3.246-5.461c-.674-1.662 24.575-12.584 3.72-19.274-20.811-6.767-96.478-23.467-289-23.467s-268.105 16.701-288.96 23.467c-20.811 6.686 4.354 17.61 3.757 19.274zM450.86 205.83s-6.965 6.412 0 9.695v13.849s37.357-6.331 57.776-6.331c20.459 0 57.816 6.331 57.816 6.331v-13.849c6.965-3.283 0-9.695 0-9.695s-4.354-5.146-7.797-7.083v-48.279s1.702-7.123 0-10.963c-1.74-3.916 23.467-12.268 0-21.25-23.504-9.062-33.083-10.328-50.019-10.328-16.978 0-26.515 1.265-49.977 10.328s1.74 17.333 0 21.25c-1.702 3.879 0 10.963 0 10.963v48.279c-3.444 1.94-7.797 7.083-7.797 7.083zm97.983-128.055s-4.354-13.257-12.188-13.732c0 0-10.011-7.123-9.578-16.463 0 0 3.006-1.225 3.006-6.649l-8.667-10.567h-23.664l-8.707 10.607c0 5.421 3.088 6.649 3.088 6.649.436 9.341-9.578 16.463-9.578 16.463-7.757.474-12.151 13.732-12.151 13.732v7.834h78.393v-7.874zm-39.693 222.16c2.691.159 95.253 5.78 95.253-.04 0-6.053-2.651-10.567-3.958-19.155-1.344-8.627 0-11.951 0-11.951s-18.795-18.362-90.858-18.362h-.951c-72.062 0-90.82 18.362-90.82 18.362s1.344 3.324 0 11.951c-1.265 8.627-3.916 13.099-3.916 19.155 0 5.817 92.479.159 95.253.04zm2.296 209.734l274.99 12.86s2.018-36.686-9.062-40.523c-4.75-1.584-11.951-8.389-30.71-16.227-.87-2.058-2.058-3.799-3.839-4.471-6.093-2.336-29.562-143.609-234.229-143.609S280.459 458.972 274.407 461.308c-2.572.951-3.958 4.116-4.787 7.4-14.008 6.568-19.983 11.951-24.101 13.336-11.12 3.879-9.099 40.523-9.099 40.523l275.029-12.902zM846.665 893.64l-2.098-95.29s6.965-15.196 2.532-26.118c0 0 19.983-15.274 8.707-31.302l-14.759-9.259.911-17.689s-81.639-54.848-333.319-55.757c-251.682.911-333.359 55.757-333.359 55.757l.911 17.689-14.839 9.259c-11.239 16.027 8.744 31.302 8.744 31.302-4.391 10.921 2.651 26.118 2.651 26.118l-2.296 100.436c-20.499 20.539 5.898 50.337 5.898 50.337h670.044c.077.04 31.776-35.259.277-55.48zm-41.117-129.401v118.244c-11.754-2.136-25.485-4.153-40.287-6.212v-112.03h40.287zm-81.638 0v106.806a3431.042 3431.042 0 0 0-40.287-4.354V764.238h40.287zm-79.736 0v98.535a9056.084 9056.084 0 0 0-40.247-3.68v-94.856h40.247zm-79.699 0v91.532c-16.897-1.344-30.986-2.492-40.287-3.166V764.28h40.287zm-79.741 0v89.433c-10.881.83-24.615 1.94-40.207 3.246v-92.68h40.207zm-79.659 0v96.122c-13.022 1.148-26.475 2.454-40.287 3.757v-99.842h40.287zm-79.699 0v103.878c-13.772 1.462-27.184 3.046-40.287 4.632V764.24h40.287zm-76.417 0v113.218c-16.027 2.336-30.154 4.632-41.945 7.046V764.242h41.945z"/></svg>