<svg xmlns="http://www.w3.org/2000/svg" viewBox="0 0 1024 1024"><path d="M989.6 376.733v21.6c0 15.4-12.6 28-28 28H924c-2 0-4-.2-6-.6l-5.8 27.2 33.2 46.8c9.6 13.6 14.4 30 13.6 46.6l-9 193c-.6 11.4-8 21-18 24.8v71.4c0 15-12.2 27.2-27.2 27.2h-48.2c-15 0-27.2-12.2-27.2-27.2v-64c-206.2 10.8-412.4 10.8-618.6 0v64c0 15-12.2 27.2-27.2 27.2h-48c-15 0-27.2-12.2-27.2-27.2v-71.4c-10.2-3.8-17.6-13.4-18-24.8l-9.2-193.2c-.8-16.6 4-33 13.6-46.6l33.2-46.8-5.8-27.2c-2 .4-4 .6-6 .6H78.8c-15.4 0-28-12.6-28-28v-21.6c0-15.4 12.6-28 28-28h37.6c15.4 0 28 12.6 28 28v21.6c0 5.6-1.8 11-4.6 15.4l3.8 17.6 16-22.4 86-210.4c4.2-10.6 14.6-17.4 25.8-17.4h498c11.4 0 21.6 6.8 25.8 17.4l86 210.4 16 22.4 3.8-17.6c-2.8-4.4-4.6-9.6-4.6-15.4v-21.6c0-15.4 12.6-28 28-28H962c15 .2 27.6 12.6 27.6 28.2zm-166.8 48.4l-76.2-180c-.4-1-1.2-1.6-2.4-1.6h-448c-1 0-2 .6-2.4 1.8l-76.2 179.8h605.2zm-648.2 193.4c27.6 0 50-22.4 50-50s-22.4-50-50-50-50 22.4-50 50c-.2 27.4 22.2 50 50 50zm243.4 105.6c-79.6-1.4-159.2-4.8-238.6-9.8v20.2c79.4 5 159 8.2 238.6 9.8v-20.2zm265.2-58.2c1.8 0 3.8-.6 5.2-1.6 29.2-19.2 50-48 61.4-87.4 1.8-6-2.8-12-9-12H299.6c-6.2 0-10.6 6-9 12 11.2 39.4 32 68.2 61.4 87.4 1.6 1 3.4 1.6 5.2 1.6h326zm45.2-81.4H312v9.8h416.6v-9.8zm-18.8 28.2H330.8v9.4h378.6v-9.4zm-19 28.2H349.8v8.8h340.8v-8.8zm170.2 73.4c-79.4 5-159 8.2-238.6 9.8v20.2c79.6-1.4 159.2-4.8 238.6-9.8v-20.2zm5-196c-27.6 0-50 22.4-50 50s22.4 50 50 50 50-22.4 50-50c.2-27.6-22.2-50-50-50z"/></svg>