<!-- Generated by IcoMoon.io -->
<svg version="1.1" xmlns="http://www.w3.org/2000/svg" width="24" height="24" viewBox="0 0 24 24">
<title>car-alt</title>
<path d="M23.194 8.33v0.506c0 0.361-0.295 0.656-0.656 0.656h-0.881c-0.047 0-0.094-0.005-0.141-0.014l-0.136 0.638 0.778 1.097c0.225 0.319 0.337 0.703 0.319 1.092l-0.211 4.523c-0.014 0.267-0.188 0.492-0.422 0.581v1.673c0 0.352-0.286 0.637-0.638 0.637h-1.13c-0.352 0-0.638-0.286-0.638-0.637v-1.5c-4.833 0.253-9.666 0.253-14.498 0v1.5c0 0.352-0.286 0.637-0.637 0.637h-1.125c-0.352 0-0.638-0.286-0.638-0.637v-1.673c-0.239-0.089-0.413-0.314-0.422-0.581l-0.216-4.528c-0.019-0.389 0.094-0.773 0.319-1.092l0.778-1.097-0.136-0.637c-0.047 0.009-0.094 0.014-0.141 0.014h-0.877c-0.361 0-0.656-0.295-0.656-0.656v-0.506c0-0.361 0.295-0.656 0.656-0.656h0.881c0.361 0 0.656 0.295 0.656 0.656v0.506c0 0.131-0.042 0.258-0.108 0.361l0.089 0.412 0.375-0.525 2.016-4.931c0.098-0.248 0.342-0.408 0.605-0.408h11.672c0.267 0 0.506 0.159 0.605 0.408l2.016 4.931 0.375 0.525 0.089-0.412c-0.066-0.103-0.108-0.225-0.108-0.361v-0.506c0-0.361 0.295-0.656 0.656-0.656h0.881c0.352 0.005 0.647 0.295 0.647 0.661zM19.284 9.464l-1.786-4.219c-0.009-0.023-0.028-0.038-0.056-0.038h-10.5c-0.023 0-0.047 0.014-0.056 0.042l-1.786 4.214h14.184zM4.092 13.997c0.647 0 1.172-0.525 1.172-1.172s-0.525-1.172-1.172-1.172c-0.647 0-1.172 0.525-1.172 1.172-0.005 0.642 0.52 1.172 1.172 1.172zM9.797 16.472c-1.866-0.033-3.731-0.112-5.592-0.23 0 0.159 0 0.314 0 0.473 1.861 0.117 3.727 0.192 5.592 0.23 0-0.159 0-0.314 0-0.473zM16.013 15.108c0.042 0 0.089-0.014 0.122-0.038 0.684-0.45 1.172-1.125 1.439-2.048 0.042-0.141-0.066-0.281-0.211-0.281h-10.341c-0.145 0-0.248 0.141-0.211 0.281 0.263 0.923 0.75 1.598 1.439 2.048 0.037 0.023 0.080 0.038 0.122 0.038h7.641zM17.072 13.2h-9.759v0.23h9.764v-0.23zM16.631 13.861h-8.878v0.22h8.873v-0.22zM16.186 14.522h-7.988v0.206h7.988v-0.206zM20.175 16.242c-1.861 0.117-3.727 0.192-5.592 0.23 0 0.159 0 0.314 0 0.473 1.866-0.033 3.731-0.112 5.592-0.23 0-0.155 0-0.314 0-0.473zM20.292 11.648c-0.647 0-1.172 0.525-1.172 1.172s0.525 1.172 1.172 1.172c0.647 0 1.172-0.525 1.172-1.172 0.005-0.647-0.52-1.172-1.172-1.172z"></path>
</svg>
