<svg xmlns="http://www.w3.org/2000/svg" viewBox="0 0 1024 1024"><path d="M65 557.533h-7.2c1.8-30.6 25-51 56-64.6 3 1.6 5.2 3.8 5.8 7.2 2 12-14 31.8-26.2 44.8-7.2 8-17.6 12.6-28.4 12.6zm215.4 90.6c0-46.2-37.4-83.6-83.6-83.6s-83.6 37.4-83.6 83.6c0 7.2 1 14.2 2.8 20.8 9.2 36 42 62.8 80.8 62.8 39 0 71.6-26.8 80.8-62.8 1.8-6.8 2.8-13.6 2.8-20.8zm-83.6 39.2c-21.8 0-39.2-17.6-39.2-39.2s17.6-39.2 39.2-39.2c21.8 0 39.2 17.6 39.2 39.2s-17.6 39.2-39.2 39.2zm676.8-39.2c0-46.2-37.4-83.6-83.6-83.6s-83.6 37.4-83.6 83.6c0 7.2 1 14.2 2.8 20.8 9.2 36 42 62.8 80.8 62.8 39 0 71.8-26.8 81-63.2 1.6-6.6 2.6-13.4 2.6-20.4zm-83.8 39.2c-21.8 0-39.2-17.6-39.2-39.2s17.6-39.2 39.2-39.2c21.8 0 39.2 17.6 39.2 39.2s-17.4 39.2-39.2 39.2zm164.8-140.4c2.6 4.4 3 5.6 5.6 10h31.4v-46h-15l-22 36zm50.2 28.4l-5.4-5.8h-39.2c-4.6 0-8.8-2.4-11-6.4l-5.6-10c-2.2-4-2.2-8.8.2-12.6l21.8-36c2.2-3.8 6.4-6 10.8-6h15v-18c0-8-6.6-14.6-14.6-14.6H908c-12.4 0-24-6.2-30.6-16.8-25.8-41.2-116.6-142.6-378.6-119.4-30.4 2.6-59.8 12.6-85.2 29.2-45.6 29.6-86.4 65.6-123 106.8 0 0-94.8-2.8-163.4 21.8 3 3.6 4.2 7.4 4.8 10.4 1.6 8.6.2 24-29.2 55.6-9.8 10.4-23.6 16.4-37.8 16.4H46l-14.2 11.4c-6.6 5.4-10.4 13.4-10.4 21.8v42c0 7.4 5.6 13.6 13 14.4l68.4 7.4c-1.2-6.2-2-12.6-2-19 0-53 43.2-96.2 96.2-96.2s96.2 43.2 96.2 96.2c0 7.2-.8 14-2.4 20.6h405.6c-1.4-6.6-2.4-13.6-2.4-20.6 0-53 43.2-96.2 96.2-96.2s96.2 43.2 96.2 96.2c0 6.2-.6 12.2-1.8 18l111.8-16.2c7.2-1 12.4-7.2 12.4-14.4v-50.4c-.4-3.4-1.6-7-4-9.6zm-455.6-103.8l-206.2 5.4 81.4-76.2c21.8-20.4 50.6-31.8 80.6-31.8h55.4l-11.2 102.6zm190.4-5l-144.8 3.8 5-101.6h85.8c86 64.4 54 97.8 54 97.8z"/></svg>