<!-- Generated by IcoMoon.io -->
<svg version="1.1" xmlns="http://www.w3.org/2000/svg" width="24" height="24" viewBox="0 0 24 24">
<title>car</title>
<path d="M1.523 12.567h-0.169c0.042-0.717 0.586-1.195 1.313-1.514 0.070 0.037 0.122 0.089 0.136 0.169 0.047 0.281-0.328 0.745-0.614 1.050-0.169 0.188-0.413 0.295-0.666 0.295zM6.572 14.691c0-1.083-0.877-1.959-1.959-1.959s-1.959 0.877-1.959 1.959c0 0.169 0.023 0.333 0.066 0.487 0.216 0.844 0.984 1.472 1.894 1.472 0.914 0 1.678-0.628 1.894-1.472 0.042-0.159 0.066-0.319 0.066-0.487zM4.613 15.609c-0.511 0-0.919-0.413-0.919-0.919s0.412-0.919 0.919-0.919c0.511 0 0.919 0.413 0.919 0.919s-0.412 0.919-0.919 0.919zM20.475 14.691c0-1.083-0.877-1.959-1.959-1.959s-1.959 0.877-1.959 1.959c0 0.169 0.023 0.333 0.066 0.487 0.216 0.844 0.984 1.472 1.894 1.472 0.914 0 1.683-0.628 1.898-1.481 0.038-0.155 0.061-0.314 0.061-0.478zM18.511 15.609c-0.511 0-0.919-0.413-0.919-0.919s0.413-0.919 0.919-0.919c0.511 0 0.919 0.413 0.919 0.919s-0.408 0.919-0.919 0.919zM22.373 12.319c0.061 0.103 0.070 0.131 0.131 0.234h0.736v-1.078h-0.352l-0.516 0.844zM23.55 12.984l-0.127-0.136h-0.919c-0.108 0-0.206-0.056-0.258-0.15l-0.131-0.234c-0.052-0.094-0.052-0.206 0.005-0.295l0.511-0.844c0.052-0.089 0.15-0.141 0.253-0.141h0.352v-0.422c0-0.188-0.155-0.342-0.342-0.342h-1.613c-0.291 0-0.563-0.145-0.717-0.394-0.605-0.966-2.733-3.342-8.873-2.798-0.713 0.061-1.402 0.295-1.997 0.684-1.069 0.694-2.025 1.537-2.883 2.503 0 0-2.222-0.066-3.83 0.511 0.070 0.084 0.098 0.173 0.112 0.244 0.038 0.202 0.005 0.563-0.684 1.303-0.23 0.244-0.553 0.384-0.886 0.384h-0.445l-0.333 0.267c-0.155 0.127-0.244 0.314-0.244 0.511v0.984c0 0.173 0.131 0.319 0.305 0.337l1.603 0.173c-0.028-0.145-0.047-0.295-0.047-0.445 0-1.242 1.013-2.255 2.255-2.255s2.255 1.012 2.255 2.255c0 0.169-0.019 0.328-0.056 0.483h9.506c-0.033-0.155-0.056-0.319-0.056-0.483 0-1.242 1.013-2.255 2.255-2.255s2.255 1.012 2.255 2.255c0 0.145-0.014 0.286-0.042 0.422l2.62-0.38c0.169-0.023 0.291-0.169 0.291-0.338v-1.181c-0.009-0.080-0.037-0.164-0.094-0.225zM12.872 10.552l-4.833 0.127 1.908-1.786c0.511-0.478 1.186-0.745 1.889-0.745h1.298l-0.263 2.405zM17.334 10.434l-3.394 0.089 0.117-2.381h2.011c2.016 1.509 1.266 2.292 1.266 2.292z"></path>
</svg>
