<!-- Generated by IcoMoon.io -->
<svg version="1.1" xmlns="http://www.w3.org/2000/svg" width="24" height="24" viewBox="0 0 24 24">
<title>caret-fill-two-down</title>
<path d="M12.799 1.6c-6.186 0-11.2 5.014-11.2 11.2s5.016 11.199 11.2 11.199 11.201-5.014 11.201-11.2-5.014-11.199-11.2-11.199zM18.284 14.091l-5.018 4.438c-0.15 0.15-0.346 0.222-0.543 0.219-0.198 0.002-0.395-0.069-0.544-0.219l-5.018-4.438c-0.294-0.294-0.294-0.773 0-1.067s0.772-0.294 1.067 0l4.494 3.975 4.494-3.975c0.294-0.294 0.773-0.294 1.067 0s0.297 0.771 0.002 1.067zM18.284 8.712l-5.018 4.438c-0.15 0.15-0.346 0.222-0.543 0.219-0.198 0.001-0.395-0.069-0.544-0.219l-5.018-4.438c-0.294-0.294-0.294-0.772 0-1.067 0.294-0.295 0.772-0.295 1.067-0.002l4.494 3.975 4.494-3.975c0.294-0.294 0.773-0.294 1.067 0s0.297 0.772 0.002 1.068z"></path>
</svg>
