<!-- Generated by IcoMoon.io -->
<svg version="1.1" xmlns="http://www.w3.org/2000/svg" width="24" height="24" viewBox="0 0 24 24">
<title>caret-two-left</title>
<path d="M6.221 12.516l4.438 5.018c0.294 0.294 0.773 0.294 1.067 0s0.294-0.773 0-1.067l-3.975-4.494 3.975-4.494c0.294-0.294 0.294-0.772 0-1.067s-0.772-0.294-1.067 0l-4.438 5.016c-0.15 0.15-0.221 0.347-0.219 0.543-0.002 0.197 0.069 0.394 0.219 0.544zM17.106 6.411c-0.294-0.294-0.773-0.294-1.067 0l-4.44 5.018c-0.15 0.15-0.222 0.346-0.219 0.543-0.002 0.197 0.069 0.395 0.219 0.544l4.439 5.018c0.294 0.294 0.773 0.294 1.067 0s0.294-0.773 0-1.067l-3.975-4.494 3.975-4.494c0.295-0.295 0.295-0.774 0.002-1.068z"></path>
</svg>
