<!-- Generated by IcoMoon.io -->
<svg version="1.1" xmlns="http://www.w3.org/2000/svg" width="24" height="24" viewBox="0 0 24 24">
<title>caret-line-two-down</title>
<path d="M17.217 13.023l-4.494 3.975-4.494-3.975c-0.294-0.294-0.773-0.294-1.067 0s-0.294 0.773 0 1.067l5.018 4.438c0.15 0.15 0.346 0.222 0.543 0.219 0.197 0.003 0.395-0.069 0.543-0.219l5.018-4.438c0.294-0.294 0.294-0.773 0-1.067s-0.773-0.294-1.067 0zM17.217 7.644l-4.494 3.975-4.494-3.975c-0.296-0.294-0.774-0.294-1.068 0s-0.294 0.772 0 1.066l5.018 4.439c0.15 0.15 0.346 0.222 0.543 0.219 0.197 0.003 0.395-0.069 0.543-0.219l5.018-4.439c0.294-0.294 0.294-0.772 0-1.066s-0.771-0.294-1.065 0zM12.804 1.608c-6.183 0-11.196 5.013-11.196 11.196s5.013 11.196 11.196 11.196 11.196-5.013 11.196-11.196-5.013-11.196-11.196-11.196zM12.804 22.5c-5.346 0-9.696-4.35-9.696-9.696s4.35-9.696 9.696-9.696 9.696 4.35 9.696 9.696-4.35 9.696-9.696 9.696z"></path>
</svg>
