<svg xmlns="http://www.w3.org/2000/svg" viewBox="0 0 1024 1024"><path d="M729.024 462.933L544 647.957 358.976 462.933c-12.48-12.48-32.768-12.48-45.248 0s-12.48 32.768 0 45.248L521.28 715.733c6.272 6.272 14.528 9.408 22.72 9.344 8.256 0 16.448-3.072 22.72-9.344l207.552-207.552c12.48-12.48 12.48-32.768 0-45.248s-32.768-12.48-45.248 0zM546.304 89.877c-263.808 0-477.696 213.888-477.696 477.696-.064 263.872 213.824 477.76 477.696 477.76 263.808 0 477.696-213.888 477.696-477.696 0-263.872-213.888-477.76-477.696-477.76zm0 891.456c-228.096 0-413.696-185.6-413.696-413.696s185.6-413.696 413.696-413.696C774.4 153.877 960 339.477 960 567.637c0 228.096-185.6 413.696-413.696 413.696z"/></svg>