<!-- Generated by IcoMoon.io -->
<svg version="1.1" xmlns="http://www.w3.org/2000/svg" width="24" height="24" viewBox="0 0 24 24">
<title>caret-fill-right</title>
<path d="M12.75 1.5c-6.213 0-11.25 5.037-11.25 11.25s5.037 11.25 11.25 11.25 11.25-5.037 11.25-11.25-5.037-11.25-11.25-11.25zM16.275 13.283l-4.864 4.865c-0.293 0.293-0.768 0.293-1.060 0s-0.293-0.768 0-1.061l4.337-4.337-4.336-4.337c-0.293-0.293-0.293-0.768 0-1.060s0.768-0.293 1.060 0l4.864 4.864c0.147 0.147 0.221 0.341 0.219 0.533 0 0.194-0.072 0.386-0.219 0.533z"></path>
</svg>
