<svg xmlns="http://www.w3.org/2000/svg" viewBox="0 0 1024 1024"><path d="M694.4 542.613L486.848 335.061c-12.48-12.48-32.768-12.48-45.248 0s-12.48 32.768 0 45.248l185.024 185.024L441.6 750.357c-12.48 12.48-12.48 32.768 0 45.248s32.768 12.48 45.248 0L694.4 588.053c6.272-6.272 9.408-14.528 9.344-22.72 0-8.256-3.072-16.448-9.344-22.72zM546.304 89.941c-263.808 0-477.696 213.888-477.696 477.696s213.888 477.696 477.696 477.696S1024 831.445 1024 567.637 810.112 89.941 546.304 89.941zm0 891.392c-228.096 0-413.696-185.6-413.696-413.696s185.6-413.696 413.696-413.696S960 339.541 960 567.637 774.4 981.333 546.304 981.333z"/></svg>