<svg xmlns="http://www.w3.org/2000/svg" viewBox="0 0 1024 1024"><path d="M758.592 511.317l-189.376-214.08c-12.544-12.544-32.96-12.544-45.504 0s-12.544 32.96 0 45.504l169.6 191.744-169.6 191.744c-12.544 12.544-12.544 32.96 0 45.504s32.96 12.544 45.504 0l189.376-214.08c6.4-6.4 9.472-14.784 9.344-23.168.064-8.384-2.944-16.768-9.344-23.168zm-464.448 260.48c12.544 12.544 32.96 12.544 45.504 0l189.376-214.08c6.4-6.4 9.472-14.784 9.344-23.168.128-8.384-2.944-16.832-9.344-23.168L339.712 297.237c-12.544-12.544-32.96-12.544-45.504 0s-12.544 32.96 0 45.504l169.6 191.744-169.6 191.744c-12.608 12.608-12.608 33.024-.064 45.568z"/></svg>