<!-- Generated by IcoMoon.io -->
<svg version="1.1" xmlns="http://www.w3.org/2000/svg" width="24" height="24" viewBox="0 0 24 24">
<title>caret-two-right</title>
<path d="M17.779 11.484l-4.438-5.018c-0.294-0.294-0.773-0.294-1.067 0s-0.294 0.772 0 1.067l3.975 4.494-3.975 4.494c-0.294 0.294-0.294 0.773 0 1.067s0.773 0.294 1.067 0l4.438-5.018c0.15-0.15 0.222-0.346 0.219-0.543 0.002-0.197-0.069-0.393-0.219-0.543zM6.894 17.589c0.294 0.294 0.772 0.294 1.067 0l4.439-5.018c0.15-0.15 0.222-0.346 0.219-0.543 0.003-0.197-0.069-0.395-0.219-0.543l-4.437-5.019c-0.294-0.294-0.772-0.294-1.067 0s-0.294 0.772 0 1.067l3.975 4.494-3.975 4.494c-0.295 0.296-0.295 0.774-0.002 1.068z"></path>
</svg>
