<svg xmlns="http://www.w3.org/2000/svg" viewBox="0 0 1024 1024"><path d="M790.592 543.317l-189.376-214.08c-12.544-12.544-32.96-12.544-45.504 0s-12.544 32.96 0 45.504l169.6 191.744-169.6 191.744c-12.544 12.544-12.544 32.96 0 45.504s32.96 12.544 45.504 0l189.376-214.08c6.4-6.4 9.472-14.784 9.344-23.168.064-8.384-2.944-16.768-9.344-23.168zm-220.16 23.168c.128-8.384-2.944-16.832-9.344-23.168l-189.376-214.08c-12.544-12.544-32.96-12.544-45.504 0s-12.544 32.96 0 45.504l169.6 191.744-169.6 191.744c-12.544 12.544-12.544 32.96 0 45.504s32.96 12.544 45.504 0l189.376-214.08c6.4-6.336 9.472-14.72 9.344-23.168zM544 85.333c-265.088 0-480 214.912-480 480s214.912 480 480 480 480-214.912 480-480-214.912-480-480-480zm0 896c-229.376 0-416-186.624-416-416s186.624-416 416-416 416 186.624 416 416-186.624 416-416 416z"/></svg>