<!-- Generated by IcoMoon.io -->
<svg version="1.1" xmlns="http://www.w3.org/2000/svg" width="24" height="24" viewBox="0 0 24 24">
<title>caret-two-up</title>
<path d="M17.589 10.659l-5.018-4.438c-0.15-0.15-0.346-0.222-0.543-0.219-0.198-0.003-0.395 0.069-0.544 0.219l-5.018 4.438c-0.294 0.294-0.294 0.773 0 1.067s0.772 0.294 1.067 0l4.494-3.976 4.494 3.976c0.294 0.294 0.773 0.294 1.067 0 0.297-0.294 0.297-0.771 0.002-1.067zM12.572 11.599c-0.15-0.15-0.346-0.222-0.543-0.219-0.198-0.003-0.395 0.069-0.544 0.219l-5.018 4.439c-0.294 0.294-0.294 0.773 0 1.067s0.772 0.294 1.067 0l4.494-3.975 4.494 3.975c0.294 0.294 0.773 0.294 1.067 0s0.294-0.773 0-1.067l-5.016-4.438z"></path>
</svg>
