<svg xmlns="http://www.w3.org/2000/svg" viewBox="0 0 1024 1024"><path d="M568.384 318.741c-6.4-6.4-14.784-9.472-23.168-9.344-8.448-.128-16.832 2.944-23.232 9.344l-214.08 189.376c-12.544 12.544-12.544 32.96 0 45.504s32.96 12.544 45.504 0l191.744-169.664 191.744 169.664c12.544 12.544 32.96 12.544 45.504 0s12.544-32.96 0-45.504L568.384 318.741zm0 229.504c-6.4-6.4-14.784-9.472-23.168-9.344-8.448-.128-16.832 2.944-23.232 9.344l-214.08 189.376c-12.544 12.544-12.544 32.96 0 45.504s32.96 12.544 45.504 0l191.744-169.6 191.744 169.6c12.544 12.544 32.96 12.544 45.504 0s12.544-32.96 0-45.504L568.384 548.245zm-22.08-458.304c-263.808 0-477.696 213.888-477.696 477.696s213.888 477.696 477.696 477.696S1024 831.445 1024 567.637 810.112 89.941 546.304 89.941zm0 891.392c-228.096 0-413.696-185.6-413.696-413.696s185.6-413.696 413.696-413.696S960 339.541 960 567.637 774.4 981.333 546.304 981.333z"/></svg>