<svg xmlns="http://www.w3.org/2000/svg" viewBox="0 0 1024 1024"><path d="M546.112 89.621c-263.936 0-477.888 213.952-477.888 477.888s214.016 477.824 477.888 477.824S1024 831.381 1024 567.445 810.048 89.621 546.112 89.621zm233.984 532.928l-214.08 189.376c-6.4 6.4-14.784 9.472-23.168 9.344-8.448.064-16.832-2.944-23.232-9.344l-214.08-189.376c-12.544-12.544-12.544-32.96 0-45.504s32.96-12.544 45.504 0l191.744 169.6 191.744-169.6c12.544-12.544 32.96-12.544 45.504 0s12.672 32.896.064 45.504zm0-229.504l-214.08 189.376c-6.4 6.4-14.784 9.472-23.168 9.344-8.448.064-16.832-2.944-23.232-9.344l-214.08-189.376c-12.544-12.544-12.544-32.96 0-45.504 12.544-12.608 32.96-12.608 45.504-.064l191.744 169.6 191.744-169.6c12.544-12.544 32.96-12.544 45.504 0s12.672 32.96.064 45.568z"/></svg>