<!-- Generated by IcoMoon.io -->
<svg version="1.1" xmlns="http://www.w3.org/2000/svg" width="24" height="24" viewBox="0 0 24 24">
<title>caret-fill-up</title>
<path d="M12.75 24c6.213 0 11.25-5.037 11.25-11.25s-5.037-11.25-11.25-11.25-11.25 5.037-11.25 11.25 5.037 11.25 11.25 11.25zM7.353 14.090l4.864-4.864c0.147-0.147 0.339-0.219 0.533-0.219s0.386 0.072 0.533 0.219l4.865 4.864c0.293 0.293 0.293 0.768 0 1.061s-0.768 0.293-1.061 0l-4.337-4.337-4.337 4.337c-0.293 0.293-0.768 0.293-1.060 0s-0.293-0.768 0-1.061z"></path>
</svg>
