<!-- Generated by IcoMoon.io -->
<svg version="1.1" xmlns="http://www.w3.org/2000/svg" width="24" height="24" viewBox="0 0 24 24">
<title>care-tweezers</title>
<path d="M23.745 2.422c-0.368-0.336-0.466 0.114-0.612 0.433-1.013 2.216-3.971 5.266-7.065 8.359-2.779 2.779-4.876 4.589-7.037 5.889-2.427 1.457-3.489 1.663-3.592 1.56-0.498-0.498 1.539-5.044 7.281-10.792 3.099-3.093 6.138-5.959 8.354-6.972 0.32-0.146 0.591-0.276 0.488-0.477-0.163-0.314-0.482-0.406-0.802-0.26-2.378 1.084-5.688 3.565-8.934 6.81-2.053 2.048-5.022 5.428-6.523 8.197l0.011-0.092c0 0-3.142 5.093-4.881 7.319-0.341 0.439-0.493 0.921-0.293 1.121 0.092 0.092 0.173 0.141 0.255 0.163 0 0.108 0.087 0.173 0.173 0.26 0.157 0.157 0.612-0.022 1.040-0.374 1.539-1.262 6.772-4.719 7.211-4.957 2.313-1.262 5.282-3.63 8.148-6.496 3.24-3.24 5.824-6.599 6.913-8.982 0.152-0.314 0.033-0.563-0.135-0.71zM4.231 20.305c-0.32 0-0.574-0.26-0.574-0.574s0.26-0.574 0.574-0.574 0.574 0.26 0.574 0.574-0.255 0.574-0.574 0.574z"></path>
</svg>
