<!-- Generated by IcoMoon.io -->
<svg version="1.1" xmlns="http://www.w3.org/2000/svg" width="24" height="24" viewBox="0 0 24 24">
<title>caret-line-right</title>
<path d="M16.275 12.217l-4.864-4.865c-0.293-0.293-0.768-0.293-1.060 0s-0.293 0.768 0 1.061l4.337 4.337-4.336 4.337c-0.293 0.293-0.293 0.768 0 1.061s0.768 0.293 1.060 0l4.864-4.865c0.147-0.147 0.221-0.341 0.219-0.533 0-0.194-0.072-0.386-0.219-0.533zM12.804 1.608c-6.183 0-11.196 5.013-11.196 11.196s5.013 11.196 11.196 11.196 11.196-5.013 11.196-11.196-5.013-11.196-11.196-11.196zM12.804 22.5c-5.346 0-9.696-4.35-9.696-9.696s4.35-9.696 9.696-9.696 9.696 4.35 9.696 9.696-4.35 9.696-9.696 9.696z"></path>
</svg>
