<svg xmlns="http://www.w3.org/2000/svg" viewBox="0 0 1024 1024"><path d="M646.4 335.061c-12.48-12.48-32.768-12.48-45.248 0L393.6 542.613c-6.272 6.272-9.344 14.464-9.344 22.72s3.072 16.448 9.344 22.72l207.552 207.552c12.48 12.48 32.768 12.48 45.248 0s12.48-32.768 0-45.248L461.376 565.333 646.4 380.309c12.48-12.48 12.48-32.768 0-45.248zM544 85.333c-265.088 0-480 214.912-480 480s214.912 480 480 480 480-214.912 480-480-214.912-480-480-480zm0 896c-229.376 0-416-186.624-416-416s186.624-416 416-416 416 186.624 416 416-186.624 416-416 416z"/></svg>