<svg xmlns="http://www.w3.org/2000/svg" viewBox="0 0 1024 1024"><path d="M546.304 89.877c-263.808 0-477.696 213.888-477.696 477.696-.064 263.872 213.824 477.76 477.696 477.76 263.808 0 477.696-213.888 477.696-477.696 0-263.872-213.888-477.76-477.696-477.76zm-13.952 711.552c-12.544 12.544-32.96 12.544-45.504 0l-189.44-214.08c-6.4-6.4-9.472-14.848-9.344-23.232-.064-8.384 2.944-16.768 9.344-23.168l189.376-214.08c12.544-12.544 32.96-12.544 45.504 0s12.544 32.96 0 45.504l-169.6 191.744 169.6 191.744c12.608 12.608 12.608 33.024.064 45.568zm229.504-45.504c12.544 12.544 12.544 32.96 0 45.504s-32.96 12.544-45.504 0l-189.44-214.08c-6.4-6.4-9.472-14.848-9.344-23.232-.064-8.384 2.944-16.768 9.344-23.168l189.376-214.08c12.544-12.544 32.96-12.544 45.504 0s12.544 32.96 0 45.504l-169.6 191.744 169.664 191.808z"/></svg>