<!-- Generated by IcoMoon.io -->
<svg version="1.1" xmlns="http://www.w3.org/2000/svg" width="24" height="24" viewBox="0 0 24 24">
<title>caret-line-two-up</title>
<path d="M13.322 6.971c-0.15-0.15-0.346-0.222-0.543-0.219-0.198-0.003-0.395 0.069-0.544 0.219l-5.018 4.438c-0.294 0.294-0.294 0.773 0 1.067s0.772 0.294 1.067 0l4.494-3.976 4.494 3.976c0.294 0.294 0.773 0.294 1.067 0s0.294-0.772 0-1.067l-5.016-4.438zM13.322 12.35c-0.15-0.15-0.346-0.222-0.543-0.219-0.198-0.003-0.395 0.069-0.544 0.219l-5.018 4.438c-0.294 0.294-0.294 0.773 0 1.067s0.772 0.294 1.067 0l4.494-3.975 4.494 3.975c0.294 0.294 0.773 0.294 1.067 0s0.294-0.773 0-1.067l-5.016-4.438zM12.804 1.608c-6.183 0-11.196 5.013-11.196 11.196s5.013 11.196 11.196 11.196 11.196-5.013 11.196-11.196-5.013-11.196-11.196-11.196zM12.804 22.5c-5.346 0-9.696-4.35-9.696-9.696s4.35-9.696 9.696-9.696 9.696 4.35 9.696 9.696-4.35 9.696-9.696 9.696z"></path>
</svg>
