<!-- Generated by IcoMoon.io -->
<svg version="1.1" xmlns="http://www.w3.org/2000/svg" width="24" height="24" viewBox="0 0 24 24">
<title>caret-fill-two-left</title>
<path d="M12.804 1.607c-6.183 0-11.196 5.013-11.196 11.196-0.001 6.185 5.011 11.197 11.196 11.197 6.183 0 11.196-5.013 11.196-11.196 0-6.184-5.013-11.197-11.196-11.197zM12.477 18.284c-0.294 0.294-0.773 0.294-1.067 0l-4.44-5.018c-0.15-0.15-0.222-0.348-0.219-0.544-0.002-0.197 0.069-0.393 0.219-0.543l4.438-5.018c0.294-0.294 0.773-0.294 1.067 0s0.294 0.772 0 1.067l-3.975 4.494 3.975 4.494c0.295 0.296 0.295 0.774 0.002 1.068zM17.856 17.217c0.294 0.294 0.294 0.773 0 1.067s-0.773 0.294-1.067 0l-4.44-5.018c-0.15-0.15-0.222-0.348-0.219-0.544-0.001-0.197 0.069-0.393 0.219-0.543l4.438-5.018c0.294-0.294 0.773-0.294 1.067 0s0.294 0.772 0 1.067l-3.975 4.494 3.977 4.495z"></path>
</svg>
