<!-- Generated by IcoMoon.io -->
<svg version="1.1" xmlns="http://www.w3.org/2000/svg" width="24" height="24" viewBox="0 0 24 24">
<title>caret-line-left</title>
<path d="M15.15 7.353c-0.293-0.293-0.768-0.293-1.061 0l-4.864 4.864c-0.147 0.147-0.219 0.339-0.219 0.533s0.072 0.386 0.219 0.533l4.864 4.865c0.293 0.293 0.768 0.293 1.061 0s0.293-0.768 0-1.061l-4.336-4.337 4.336-4.337c0.293-0.293 0.293-0.768 0-1.060zM12.75 1.5c-6.213 0-11.25 5.037-11.25 11.25s5.037 11.25 11.25 11.25 11.25-5.037 11.25-11.25-5.037-11.25-11.25-11.25zM12.75 22.5c-5.376 0-9.75-4.374-9.75-9.75s4.374-9.75 9.75-9.75 9.75 4.374 9.75 9.75-4.374 9.75-9.75 9.75z"></path>
</svg>
