<svg xmlns="http://www.w3.org/2000/svg" viewBox="0 0 1024 1024"><path d="M1013.136 124.658c-15.718-14.331-19.879 4.854-26.12 18.492-43.225 94.541-169.434 224.679-301.421 356.666C567.014 618.397 477.559 695.601 385.33 751.077c-103.556 62.18-148.861 70.963-153.253 66.572-21.266-21.266 65.647-215.202 310.667-460.453C674.963 225.209 804.638 102.93 899.179 59.704c13.638-6.241 25.195-11.789 20.804-20.341-6.935-13.407-20.572-17.336-34.21-11.095-101.475 46.23-242.709 152.098-381.168 290.557-87.606 87.375-214.277 231.614-278.306 349.732l.462-3.93S92.693 881.909 18.494 976.912c-14.563 18.723-21.035 39.296-12.482 47.848 3.93 3.93 7.397 6.01 10.864 6.935 0 4.623 3.698 7.397 7.397 11.095 6.703 6.703 26.12-.925 44.381-15.949 65.647-53.858 288.939-201.333 307.662-211.503 98.702-53.858 225.372-154.871 347.651-277.15 138.228-138.228 248.488-281.542 294.949-383.249 6.472-13.407 1.387-24.04-5.779-30.281zm-832.607 763.03c-13.638 0-24.502-11.095-24.502-24.502s11.095-24.502 24.502-24.502 24.502 11.095 24.502 24.502-10.864 24.502-24.502 24.502z"/></svg>