<!-- Generated by IcoMoon.io -->
<svg version="1.1" xmlns="http://www.w3.org/2000/svg" width="24" height="24" viewBox="0 0 24 24">
<title>caret-fill-two-right</title>
<path d="M12.804 1.608c-6.183 0-11.196 5.013-11.196 11.196s5.013 11.196 11.196 11.196 11.196-5.013 11.196-11.196-5.013-11.196-11.196-11.196zM7.644 18.339c-0.294-0.294-0.294-0.773 0-1.067l3.975-4.494-3.975-4.494c-0.294-0.296-0.294-0.774 0-1.068s0.772-0.294 1.066 0l4.439 5.018c0.15 0.15 0.222 0.346 0.219 0.543 0.005 0.198-0.068 0.395-0.218 0.544l-4.438 5.018c-0.296 0.295-0.773 0.295-1.068 0zM18.529 13.322l-4.438 5.018c-0.294 0.294-0.773 0.294-1.067 0s-0.294-0.773 0-1.067l3.975-4.494-3.975-4.494c-0.294-0.294-0.294-0.772 0-1.067s0.773-0.294 1.067 0l4.438 5.018c0.15 0.15 0.222 0.347 0.219 0.543 0.002 0.197-0.069 0.393-0.219 0.543z"></path>
</svg>
