<!-- Generated by IcoMoon.io -->
<svg version="1.1" xmlns="http://www.w3.org/2000/svg" width="24" height="24" viewBox="0 0 24 24">
<title>caret-line-down</title>
<path d="M17.087 10.35l-4.337 4.336-4.337-4.336c-0.293-0.293-0.768-0.293-1.060 0s-0.293 0.768 0 1.060l4.864 4.864c0.147 0.147 0.341 0.221 0.533 0.219 0.194 0 0.386-0.072 0.533-0.219l4.865-4.864c0.293-0.293 0.293-0.768 0-1.060s-0.768-0.293-1.061 0zM12.804 1.607c-6.183 0-11.196 5.013-11.196 11.196-0.001 6.185 5.011 11.197 11.196 11.197 6.183 0 11.196-5.013 11.196-11.196 0-6.184-5.013-11.197-11.196-11.197zM12.804 22.5c-5.346 0-9.696-4.35-9.696-9.696s4.35-9.696 9.696-9.696c5.346-0.002 9.696 4.348 9.696 9.696 0 5.346-4.35 9.696-9.696 9.696z"></path>
</svg>
