<svg xmlns="http://www.w3.org/2000/svg" viewBox="0 0 1024 1024"><path d="M546.304 89.941c-263.808 0-477.696 213.888-477.696 477.696s213.888 477.696 477.696 477.696S1024 831.445 1024 567.637 810.112 89.941 546.304 89.941zm-220.16 713.856c-12.544-12.544-12.544-32.96 0-45.504l169.6-191.744-169.6-191.744c-12.544-12.608-12.544-33.024 0-45.568s32.96-12.544 45.504 0l189.376 214.08c6.4 6.4 9.472 14.784 9.344 23.168.192 8.448-2.88 16.832-9.28 23.232l-189.376 214.08c-12.608 12.608-32.96 12.608-45.568 0zm464.448-214.08l-189.376 214.08c-12.544 12.544-32.96 12.544-45.504 0s-12.544-32.96 0-45.504l169.6-191.744-169.6-191.744c-12.544-12.544-12.544-32.96 0-45.504s32.96-12.544 45.504 0l189.376 214.08c6.4 6.4 9.472 14.784 9.344 23.168.064 8.384-2.944 16.768-9.344 23.168z"/></svg>