<svg xmlns="http://www.w3.org/2000/svg" viewBox="0 0 1024 1024"><path d="M568.72 416.933c-6.272-6.272-14.464-9.344-22.72-9.344s-16.448 3.072-22.72 9.344L315.728 624.485c-12.48 12.48-12.48 32.768 0 45.248s32.768 12.48 45.248 0L546 484.709l185.024 185.024c12.48 12.48 32.768 12.48 45.248 0s12.48-32.768 0-45.248L568.72 416.933zM548.112 91.621c-263.936 0-477.888 213.952-477.888 477.888s214.016 477.824 477.888 477.824S1026 833.381 1026 569.445 812.048 91.621 548.112 91.621zm0 891.712c-228.224 0-413.888-185.664-413.888-413.888s185.664-413.888 413.888-413.888S962 341.285 962 569.445 776.336 983.333 548.112 983.333z"/></svg>