<svg xmlns="http://www.w3.org/2000/svg" viewBox="0 0 1024 1024"><path d="M750.464 476.117l-214.08-189.376c-6.4-6.4-14.784-9.472-23.168-9.344-8.448-.128-16.832 2.944-23.232 9.344l-214.08 189.376c-12.544 12.544-12.544 32.96 0 45.504s32.96 12.544 45.504 0l191.744-169.664 191.744 169.664c12.544 12.544 32.96 12.544 45.504 0 12.672-12.544 12.672-32.896.064-45.504zm-214.08 40.128c-6.4-6.4-14.784-9.472-23.168-9.344-8.448-.128-16.832 2.944-23.232 9.344l-214.08 189.376c-12.544 12.544-12.544 32.96 0 45.504s32.96 12.544 45.504 0l191.744-169.6 191.744 169.6c12.544 12.544 32.96 12.544 45.504 0s12.544-32.96 0-45.504L536.384 516.245z"/></svg>