<!-- Generated by IcoMoon.io -->
<svg version="1.1" xmlns="http://www.w3.org/2000/svg" width="24" height="24" viewBox="0 0 24 24">
<title>caret-line-up</title>
<path d="M13.329 9.272c-0.147-0.147-0.339-0.219-0.533-0.219s-0.386 0.072-0.533 0.219l-4.865 4.864c-0.293 0.293-0.293 0.768 0 1.061s0.768 0.293 1.061 0l4.337-4.337 4.337 4.337c0.293 0.293 0.768 0.293 1.061 0s0.293-0.768 0-1.061l-4.865-4.864zM12.846 1.647c-6.186 0-11.2 5.014-11.2 11.2s5.016 11.199 11.2 11.199 11.201-5.014 11.201-11.2-5.014-11.199-11.2-11.199zM12.846 22.547c-5.349 0-9.7-4.352-9.7-9.7s4.351-9.7 9.7-9.7 9.701 4.353 9.701 9.7-4.352 9.7-9.7 9.7z"></path>
</svg>
