<!-- Generated by IcoMoon.io -->
<svg version="1.1" xmlns="http://www.w3.org/2000/svg" width="24" height="24" viewBox="0 0 24 24">
<title>caret-line-two-left</title>
<path d="M8.5 12.721l3.975-4.494c0.294-0.294 0.294-0.772 0-1.067s-0.772-0.294-1.067 0l-4.438 5.018c-0.15 0.15-0.222 0.346-0.219 0.543-0.002 0.197 0.069 0.395 0.219 0.544l4.438 5.018c0.294 0.294 0.773 0.294 1.067 0s0.294-0.773 0-1.067l-3.975-4.495zM17.856 7.161c-0.294-0.294-0.773-0.294-1.067 0l-4.44 5.018c-0.15 0.15-0.222 0.346-0.219 0.543-0.001 0.197 0.069 0.395 0.219 0.544l4.438 5.018c0.294 0.294 0.773 0.294 1.067 0s0.294-0.773 0-1.067l-3.975-4.494 3.975-4.494c0.295-0.296 0.295-0.774 0.002-1.068zM12.75 1.5c-6.213 0-11.25 5.037-11.25 11.25s5.037 11.25 11.25 11.25 11.25-5.037 11.25-11.25-5.037-11.25-11.25-11.25zM12.75 22.5c-5.376 0-9.75-4.374-9.75-9.75s4.374-9.75 9.75-9.75 9.75 4.374 9.75 9.75-4.374 9.75-9.75 9.75z"></path>
</svg>
