<!-- Generated by IcoMoon.io -->
<svg version="1.1" xmlns="http://www.w3.org/2000/svg" width="24" height="24" viewBox="0 0 24 24">
<title>caret-fill-two-up</title>
<path d="M12.75 1.5c-6.213 0-11.25 5.037-11.25 11.25s5.037 11.25 11.25 11.25 11.25-5.037 11.25-11.25-5.037-11.25-11.25-11.25zM18.339 17.856c-0.294 0.294-0.773 0.294-1.067 0l-4.494-3.975-4.494 3.975c-0.294 0.294-0.772 0.294-1.067 0s-0.294-0.773 0-1.067l5.018-4.439c0.15-0.15 0.347-0.222 0.543-0.219 0.197-0.005 0.393 0.068 0.543 0.218l5.018 4.438c0.295 0.296 0.295 0.773 0 1.068zM18.339 12.477c-0.294 0.294-0.773 0.294-1.067 0l-4.495-3.977-4.494 3.977c-0.294 0.294-0.773 0.294-1.067 0s-0.294-0.773 0-1.067l5.018-4.438c0.15-0.15 0.346-0.222 0.543-0.219 0.198-0.005 0.395 0.067 0.544 0.217l5.018 4.438c0.295 0.296 0.295 0.773 0 1.068z"></path>
</svg>
