<!-- Generated by IcoMoon.io -->
<svg version="1.1" xmlns="http://www.w3.org/2000/svg" width="24" height="24" viewBox="0 0 24 24">
<title>caret-two-down</title>
<path d="M16.467 12.273l-4.494 3.975-4.494-3.975c-0.294-0.294-0.772-0.294-1.067 0s-0.294 0.773 0 1.067l5.018 4.438c0.15 0.15 0.346 0.222 0.543 0.219 0.197 0.003 0.393-0.067 0.543-0.217l5.018-4.438c0.294-0.294 0.294-0.773 0-1.066s-0.773-0.296-1.067-0.002zM17.534 6.894c-0.294-0.294-0.773-0.294-1.067 0l-4.494 3.975-4.494-3.975c-0.295-0.294-0.774-0.294-1.068 0s-0.294 0.772 0 1.067l5.018 4.439c0.15 0.15 0.346 0.222 0.543 0.219 0.197 0.003 0.395-0.069 0.543-0.219l5.018-4.439c0.297-0.294 0.297-0.771 0.002-1.067z"></path>
</svg>
