<!-- Generated by IcoMoon.io -->
<svg version="1.1" xmlns="http://www.w3.org/2000/svg" width="24" height="24" viewBox="0 0 24 24">
<title>caret-fill-down</title>
<path d="M12.75 1.5c-6.213 0-11.25 5.037-11.25 11.25s5.037 11.25 11.25 11.25 11.25-5.037 11.25-11.25-5.037-11.25-11.25-11.25zM18.147 11.411l-4.865 4.864c-0.147 0.147-0.341 0.221-0.533 0.219-0.194 0-0.386-0.072-0.533-0.219l-4.865-4.864c-0.293-0.293-0.293-0.768 0-1.060s0.768-0.293 1.061 0l4.337 4.337 4.337-4.336c0.293-0.293 0.768-0.293 1.061 0s0.293 0.768 0 1.060z"></path>
</svg>
