<!-- Generated by IcoMoon.io -->
<svg version="1.1" xmlns="http://www.w3.org/2000/svg" width="24" height="24" viewBox="0 0 24 24">
<title>cart-delivered</title>
<path d="M7.3 17h12.6c0.4 0 0.7-0.2 0.8-0.6l2.4-9.6c0.1-0.4-0.2-0.9-0.6-1s-0.9 0.2-1 0.6l-2.2 9h-11.4l-3-9.6c0 0 0 0 0 0l-0.8-2.6c-0.1-0.3-0.4-0.5-0.8-0.5h-2.5c-0.4 0-0.8 0.3-0.8 0.7s0.4 0.8 0.8 0.8h2l3.5 11.3c-1.4 0.4-2.2 1.5-2.2 2.6 0 1.2 0.9 2.5 2.5 2.7 0.3 1 1.2 1.7 2.3 1.7 1 0 1.9-0.7 2.2-1.6h4.1c0.3 0.9 1.2 1.6 2.2 1.6s1.9-0.7 2.2-1.6h0.9c0.4 0 0.8-0.4 0.8-0.8s-0.4-0.8-0.8-0.8h-0.9c-0.3-0.9-1.2-1.6-2.2-1.6s-1.9 0.7-2.2 1.6h-4.1c-0.3-0.9-1.2-1.6-2.2-1.6s-1.9 0.6-2.2 1.5c-0.7-0.2-1-0.6-1-1.1s0.5-1.1 1.6-1.1zM17.5 19.3c0.5 0 0.9 0.4 0.9 0.9s-0.4 0.9-0.9 0.9c-0.5 0-0.9-0.4-0.9-0.9 0.1-0.5 0.4-0.9 0.9-0.9zM8.9 19.3c0.5 0 0.9 0.4 0.9 0.9s-0.4 0.9-0.9 0.9c-0.5 0-0.9-0.4-0.9-0.9s0.4-0.9 0.9-0.9z"></path>
<path d="M13.5 13.8c3.1 0 5.6-2.5 5.6-5.6s-2.5-5.6-5.6-5.6c-3 0.1-5.5 2.6-5.5 5.6 0 3.1 2.5 5.6 5.5 5.6zM10.2 8.3l0.7-0.9c0.2-0.2 0.4-0.2 0.5 0l1.6 1.5 2.6-3.2c0.2-0.2 0.4-0.2 0.5 0l0.8 0.8c0.1 0.2 0.1 0.5 0 0.7l-3.6 4.2c-0.2 0.2-0.4 0.2-0.5 0l-2.5-2.5c-0.3-0.2-0.3-0.5-0.1-0.6z"></path>
</svg>
