<svg xmlns="http://www.w3.org/2000/svg" viewBox="0 0 1024 1024"><path d="M311.467 746.666h537.6c17.067 0 29.867-8.533 34.133-25.6l102.4-409.6c4.267-17.067-8.533-38.4-25.6-42.667s-38.4 8.533-42.667 25.6l-93.867 384h-486.4l-128-409.6-34.133-110.933c-4.267-12.8-17.067-21.333-34.133-21.333H34.133C17.066 136.533 0 149.333 0 166.4s17.067 34.133 34.133 34.133h85.333l149.333 482.133c-59.733 17.067-93.867 64-93.867 110.933 0 51.2 38.4 106.667 106.667 115.2 12.8 42.667 51.2 72.533 98.133 72.533 42.667 0 81.067-29.867 93.867-68.267h174.933c12.8 38.4 51.2 68.267 93.867 68.267s81.067-29.867 93.867-68.267h38.4c17.067 0 34.133-17.067 34.133-34.133s-17.067-34.133-34.133-34.133h-38.4c-12.8-38.4-51.2-68.267-93.867-68.267s-81.067 29.867-93.867 68.267H473.599c-12.8-38.4-51.2-68.267-93.867-68.267s-81.067 25.6-93.867 64c-29.867-8.533-42.667-25.6-42.667-46.933s21.333-46.933 68.267-46.933zm435.2 98.134c21.333 0 38.4 17.067 38.4 38.4s-17.067 38.4-38.4 38.4-38.4-17.067-38.4-38.4c4.267-21.333 17.067-38.4 38.4-38.4zm-366.934 0c21.333 0 38.4 17.067 38.4 38.4s-17.067 38.4-38.4 38.4-38.4-17.067-38.4-38.4 17.067-38.4 38.4-38.4zM576 610.133c132.267 0 238.933-106.667 238.933-238.933S708.266 132.267 576 132.267C448 136.534 341.333 243.2 341.333 371.2 341.333 503.467 448 610.133 576 610.133zM435.2 375.466l29.867-38.4c8.533-8.533 17.067-8.533 21.333 0l68.267 64L665.6 264.533c8.533-8.533 17.067-8.533 21.333 0l34.133 34.133c4.267 8.533 4.267 21.333 0 29.867l-153.6 179.2c-8.533 8.533-17.067 8.533-21.333 0L439.466 401.066c-12.8-8.533-12.8-21.333-4.267-25.6z"/></svg>