<!-- Generated by IcoMoon.io -->
<svg version="1.1" xmlns="http://www.w3.org/2000/svg" width="24" height="24" viewBox="0 0 24 24">
<title>casino</title>
<path d="M21.816 14.803v-6.488c0.413-0.141 0.708-0.53 0.708-0.989 0-0.577-0.469-1.041-1.041-1.041-0.577 0-1.045 0.469-1.045 1.041 0 0.459 0.295 0.848 0.708 0.989v6.483h-0.764v-1.148h-1.261v5.091h1.261v-1.148h2.198v-2.794h-0.764z"></path>
<path d="M4.298 20.545h13.837c0.403 0 0.736-0.333 0.736-0.736v-13.688c0-0.403-0.328-0.736-0.736-0.736h-1.359c-0.173-2.916-2.597-5.227-5.559-5.227s-5.386 2.311-5.559 5.231h-1.359c-0.403 0-0.736 0.328-0.736 0.736v13.688c0 0.403 0.333 0.731 0.736 0.731zM13.659 8.663h4.055v7.617h-4.055v-7.617zM9.188 8.663h4.055v7.617h-4.055v-7.617zM4.72 8.663h4.055v7.617h-4.055v-7.617z"></path>
<path d="M12.848 10.059c-0.052 0-0.108 0.033-0.164 0.103-0.056 0.066-0.127 0.103-0.206 0.103-0.094 0-0.281-0.042-0.567-0.122s-0.516-0.122-0.68-0.122c-0.394 0-0.741 0.159-1.036 0.483l0.033-0.384-0.337-0.028-0.197 1.598 0.328 0.047c0.019-0.375 0.141-0.567 0.366-0.567 0.169 0 0.422 0.037 0.759 0.117s0.6 0.117 0.787 0.117c0.281 0 0.525-0.122 0.741-0.361s0.323-0.506 0.323-0.797c-0.005-0.127-0.052-0.188-0.15-0.188z"></path>
<path d="M11.948 11.653c-0.103 0.202-0.295 0.469-0.572 0.802-0.309 0.37-0.511 0.638-0.614 0.802-0.192 0.314-0.286 0.619-0.286 0.923 0 0.286 0.080 0.525 0.234 0.722 0.173 0.216 0.394 0.323 0.67 0.323 0.239 0 0.431-0.094 0.572-0.281 0.131-0.164 0.192-0.37 0.192-0.623 0-0.136-0.019-0.333-0.061-0.595s-0.061-0.464-0.061-0.595c0-0.436 0.145-0.97 0.431-1.598l-0.506 0.122z"></path>
<path d="M17.189 10.059c-0.052 0-0.108 0.033-0.164 0.103-0.056 0.066-0.127 0.103-0.206 0.103-0.094 0-0.281-0.042-0.567-0.122s-0.516-0.122-0.68-0.122c-0.394 0-0.741 0.159-1.036 0.483l0.033-0.384-0.337-0.028-0.197 1.598 0.328 0.047c0.019-0.375 0.141-0.567 0.366-0.567 0.169 0 0.422 0.037 0.759 0.117s0.6 0.117 0.787 0.117c0.281 0 0.525-0.122 0.741-0.361s0.323-0.506 0.323-0.797c-0.005-0.127-0.052-0.188-0.15-0.188z"></path>
<path d="M16.284 11.653c-0.103 0.202-0.295 0.469-0.572 0.802-0.309 0.37-0.511 0.638-0.614 0.802-0.192 0.314-0.286 0.619-0.286 0.923 0 0.286 0.080 0.525 0.234 0.722 0.173 0.216 0.394 0.323 0.67 0.323 0.239 0 0.431-0.094 0.572-0.281 0.131-0.164 0.192-0.37 0.192-0.623 0-0.136-0.019-0.333-0.061-0.595s-0.061-0.464-0.061-0.595c0-0.436 0.145-0.97 0.431-1.598l-0.506 0.122z"></path>
<path d="M8.292 10.059c-0.052 0-0.108 0.033-0.164 0.103-0.056 0.066-0.127 0.103-0.206 0.103-0.094 0-0.281-0.042-0.567-0.122s-0.516-0.122-0.68-0.122c-0.394 0-0.741 0.159-1.036 0.483l0.033-0.384-0.338-0.028-0.197 1.598 0.328 0.047c0.019-0.375 0.141-0.567 0.366-0.567 0.169 0 0.422 0.037 0.759 0.117s0.6 0.117 0.788 0.117c0.281 0 0.525-0.122 0.741-0.361s0.323-0.506 0.323-0.797c-0.005-0.127-0.052-0.188-0.15-0.188z"></path>
<path d="M7.392 11.653c-0.103 0.202-0.295 0.469-0.572 0.802-0.309 0.37-0.511 0.638-0.614 0.802-0.192 0.314-0.286 0.619-0.286 0.923 0 0.286 0.080 0.525 0.234 0.722 0.173 0.216 0.394 0.323 0.67 0.323 0.239 0 0.431-0.094 0.572-0.281 0.131-0.164 0.192-0.37 0.192-0.623 0-0.136-0.019-0.333-0.061-0.595s-0.061-0.464-0.061-0.595c0-0.436 0.145-0.97 0.431-1.598l-0.506 0.122z"></path>
<path d="M18.909 21.014h-15.384c-0.389 0-0.703 0.319-0.703 0.703v1.195c0 0.389 0.319 0.703 0.703 0.703h15.384c0.389 0 0.703-0.319 0.703-0.703v-1.195c0-0.384-0.319-0.703-0.703-0.703zM4.603 22.852c-0.272 0-0.492-0.22-0.492-0.492s0.22-0.492 0.492-0.492c0.272 0 0.492 0.22 0.492 0.492s-0.22 0.492-0.492 0.492zM6.441 22.852c-0.272 0-0.492-0.22-0.492-0.492s0.22-0.492 0.492-0.492c0.272 0 0.492 0.22 0.492 0.492-0.005 0.272-0.225 0.492-0.492 0.492zM8.273 22.852c-0.272 0-0.492-0.22-0.492-0.492s0.22-0.492 0.492-0.492c0.272 0 0.492 0.22 0.492 0.492s-0.22 0.492-0.492 0.492z"></path>
</svg>
