<svg xmlns="http://www.w3.org/2000/svg" viewBox="0 0 1024 1024"><path d="M930.8 652.933v-276.8c17.6-6 30.2-22.6 30.2-42.2 0-24.6-20-44.4-44.4-44.4-24.6 0-44.6 20-44.6 44.4 0 19.6 12.6 36.2 30.2 42.2v276.6h-32.6v-49h-53.8v217.2h53.8v-49h93.8v-119.2h-32.6zm-747.4 245h590.4c17.2 0 31.4-14.2 31.4-31.4v-584c0-17.2-14-31.4-31.4-31.4h-58c-7.4-124.4-110.8-223-237.2-223s-229.8 98.6-237.2 223.2h-58c-17.2 0-31.4 14-31.4 31.4v584c0 17.2 14.2 31.2 31.4 31.2zm399.4-507h173v325h-173v-325zm-190.8 0h173v325H392v-325zm-190.6 0h173v325h-173v-325zm346.8 59.6c-2.2 0-4.6 1.4-7 4.4-2.4 2.8-5.4 4.4-8.8 4.4-4 0-12-1.8-24.2-5.2s-22-5.2-29-5.2c-16.8 0-31.6 6.8-44.2 20.6l1.4-16.4-14.4-1.2-8.4 68.2 14 2c.8-16 6-24.2 15.6-24.2 7.2 0 18 1.6 32.4 5s25.6 5 33.6 5c12 0 22.4-5.2 31.6-15.4s13.8-21.6 13.8-34c-.2-5.4-2.2-8-6.4-8zm-38.4 68c-4.4 8.6-12.6 20-24.4 34.2-13.2 15.8-21.8 27.2-26.2 34.2-8.2 13.4-12.2 26.4-12.2 39.4 0 12.2 3.4 22.4 10 30.8 7.4 9.2 16.8 13.8 28.6 13.8 10.2 0 18.4-4 24.4-12 5.6-7 8.2-15.8 8.2-26.6 0-5.8-.8-14.2-2.6-25.4s-2.6-19.8-2.6-25.4c0-18.6 6.2-41.4 18.4-68.2l-21.6 5.2zm223.6-68c-2.2 0-4.6 1.4-7 4.4-2.4 2.8-5.4 4.4-8.8 4.4-4 0-12-1.8-24.2-5.2s-22-5.2-29-5.2c-16.8 0-31.6 6.8-44.2 20.6l1.4-16.4-14.4-1.2-8.4 68.2 14 2c.8-16 6-24.2 15.6-24.2 7.2 0 18 1.6 32.4 5s25.6 5 33.6 5c12 0 22.4-5.2 31.6-15.4s13.8-21.6 13.8-34c-.2-5.4-2.2-8-6.4-8zm-38.6 68c-4.4 8.6-12.6 20-24.4 34.2-13.2 15.8-21.8 27.2-26.2 34.2-8.2 13.4-12.2 26.4-12.2 39.4 0 12.2 3.4 22.4 10 30.8 7.4 9.2 16.8 13.8 28.6 13.8 10.2 0 18.4-4 24.4-12 5.6-7 8.2-15.8 8.2-26.6 0-5.8-.8-14.2-2.6-25.4s-2.6-19.8-2.6-25.4c0-18.6 6.2-41.4 18.4-68.2l-21.6 5.2zm-341-68c-2.2 0-4.6 1.4-7 4.4-2.4 2.8-5.4 4.4-8.8 4.4-4 0-12-1.8-24.2-5.2s-22-5.2-29-5.2c-16.8 0-31.6 6.8-44.2 20.6l1.4-16.4-14.4-1.2-8.4 68.2 14 2c.8-16 6-24.2 15.6-24.2 7.2 0 18 1.6 32.4 5s25.6 5 33.6 5c12 0 22.4-5.2 31.6-15.4s13.8-21.6 13.8-34c-.2-5.4-2.2-8-6.4-8zm-38.4 68c-4.4 8.6-12.6 20-24.4 34.2-13.2 15.8-21.8 27.2-26.2 34.2-8.2 13.4-12.2 26.4-12.2 39.4 0 12.2 3.4 22.4 10 30.8 7.4 9.2 16.8 13.8 28.6 13.8 10.2 0 18.4-4 24.4-12 5.6-7 8.2-15.8 8.2-26.6 0-5.8-.8-14.2-2.6-25.4s-2.6-19.8-2.6-25.4c0-18.6 6.2-41.4 18.4-68.2l-21.6 5.2zm491.4 399.4H150.4c-16.6 0-30 13.6-30 30v51c0 16.6 13.6 30 30 30h656.4c16.6 0 30-13.6 30-30v-51c0-16.4-13.6-30-30-30zm-610.4 78.4c-11.6 0-21-9.4-21-21s9.4-21 21-21 21 9.4 21 21-9.4 21-21 21zm78.4 0c-11.6 0-21-9.4-21-21s9.4-21 21-21 21 9.4 21 21c-.2 11.6-9.6 21-21 21zm78.2 0c-11.6 0-21-9.4-21-21s9.4-21 21-21 21 9.4 21 21-9.4 21-21 21z"/></svg>