<svg xmlns="http://www.w3.org/2000/svg" viewBox="0 0 1024 1024"><path d="M512 45.329c-265.877 0-481.272 218.76-481.272 488.004S246.123 1021.337 512 1021.337c265.877 0 481.272-218.76 481.272-488.004S777.877 45.329 512 45.329zM256.219 604.01c20.193 20.193 43.751 30.291 70.677 30.291 16.828 0 30.291-3.365 43.751-13.463s23.558-20.193 30.291-33.656h90.87c-10.098 37.021-33.656 67.311-63.944 87.504s-63.944 33.656-104.332 33.656c-50.484 0-90.87-16.828-124.525-50.484s-50.484-77.407-50.484-127.891 16.828-90.87 50.484-127.891c33.656-33.656 77.407-53.849 124.525-53.849 40.386 0 74.042 10.098 104.332 33.656s50.484 50.484 63.944 87.504h-90.87c-6.73-16.828-16.828-26.923-33.656-37.021-13.463-6.73-30.291-13.463-47.118-13.463-26.923 0-50.484 10.098-67.311 30.291s-26.923 50.484-26.923 77.407c0 30.291 10.098 57.214 30.291 77.407zM814.9 674.686c-30.291 20.193-63.944 33.656-104.332 33.656-50.484 0-90.87-16.828-124.525-50.484s-50.484-77.407-50.484-127.891c0-50.484 16.828-90.87 50.484-127.891 33.656-33.656 77.407-53.849 124.525-53.849 40.386 0 74.042 10.098 104.332 33.656s50.484 50.484 63.944 87.504h-90.87c-6.73-16.828-16.828-26.923-33.656-37.021-13.463-6.73-30.291-13.463-47.118-13.463-26.923 0-50.484 10.098-67.311 30.291s-26.923 50.484-26.923 77.407c0 30.291 10.098 57.214 30.291 77.407s43.751 30.291 70.677 30.291c16.828 0 30.291-3.365 43.751-13.463s23.558-20.193 30.291-33.656h90.87c-13.463 37.021-33.656 67.311-63.944 87.504z"/></svg>