<!-- Generated by IcoMoon.io -->
<svg version="1.1" xmlns="http://www.w3.org/2000/svg" width="24" height="24" viewBox="0 0 24 24">
<title>cc-copyright</title>
<path d="M12 0.562c-6.231 0-11.28 5.127-11.28 11.438s5.048 11.438 11.28 11.438c6.231 0 11.28-5.127 11.28-11.438s-5.048-11.438-11.28-11.438zM6.005 13.656c0.473 0.473 1.025 0.71 1.656 0.71 0.394 0 0.71-0.079 1.025-0.316s0.552-0.473 0.71-0.789h2.13c-0.237 0.868-0.789 1.578-1.499 2.051s-1.499 0.789-2.445 0.789c-1.183 0-2.13-0.394-2.919-1.183s-1.183-1.814-1.183-2.997 0.394-2.13 1.183-2.997c0.789-0.789 1.814-1.262 2.919-1.262 0.947 0 1.735 0.237 2.445 0.789s1.183 1.183 1.499 2.051h-2.13c-0.158-0.394-0.394-0.631-0.789-0.868-0.316-0.158-0.71-0.316-1.104-0.316-0.631 0-1.183 0.237-1.578 0.71s-0.631 1.183-0.631 1.814c0 0.71 0.237 1.341 0.71 1.814zM19.099 15.313c-0.71 0.473-1.499 0.789-2.445 0.789-1.183 0-2.13-0.394-2.919-1.183s-1.183-1.814-1.183-2.997c0-1.183 0.394-2.13 1.183-2.997 0.789-0.789 1.814-1.262 2.919-1.262 0.947 0 1.735 0.237 2.445 0.789s1.183 1.183 1.499 2.051h-2.13c-0.158-0.394-0.394-0.631-0.789-0.868-0.316-0.158-0.71-0.316-1.104-0.316-0.631 0-1.183 0.237-1.578 0.71s-0.631 1.183-0.631 1.814c0 0.71 0.237 1.341 0.71 1.814s1.025 0.71 1.656 0.71c0.394 0 0.71-0.079 1.025-0.316s0.552-0.473 0.71-0.789h2.13c-0.316 0.868-0.789 1.578-1.499 2.051z"></path>
</svg>
