<svg xmlns="http://www.w3.org/2000/svg" viewBox="0 0 789 1024"><path d="M594.842 414.447c-4.813 2.458-12.186 7.782-11.366 9.216l36.045 65.434a11.522 11.522 0 0 1 1.422 5.581c0 6.441-5.221 11.662-11.662 11.662a11.66 11.66 0 0 1-10.21-6.021l-.03-.06-37.274-67.789c-5.837-10.24-31.846-5.12-50.176 5.222-4.6 2.746-8.568 5.899-12.069 9.509l-.014.015 36.25 65.638a11.522 11.522 0 0 1 1.422 5.581c0 6.441-5.221 11.662-11.662 11.662a11.66 11.66 0 0 1-10.21-6.021l-.03-.06-37.171-67.584c-12.698-6.861-35.738-2.97-49.459 4.506-4.945 2.728-9.146 6.145-12.65 10.183l-.048.057 35.84 65.024a11.522 11.522 0 0 1 1.422 5.581c0 6.441-5.221 11.662-11.662 11.662a11.66 11.66 0 0 1-10.21-6.021l-.03-.06-90.214-163.84c-8.428-15.286-24.438-25.468-42.827-25.468a48.537 48.537 0 0 0-21.762 5.116l.282-.128c-13.931 8.717-23.06 23.978-23.06 41.371 0 8.85 2.364 17.148 6.494 24.298l-.125-.235 150.118 271.258-51.814-32.256c-24.269-15.462-60.006-10.24-74.445 15.155-4.231 7.101-6.732 15.659-6.732 24.801 0 5.79 1.003 11.345 2.845 16.502l-.107-.343c4.696 14.03 14.076 25.435 26.245 32.617l.276.151 181.965 107.93c30.72 18.944 93.798 58.47 202.854-1.536 138.24-76.083 95.334-187.392 76.083-224.051L663.552 448.959c-15.258-27.648-43.008-47.616-68.71-34.509zm-94.413 500.531v57.242c-.058 19.092-15.519 34.553-34.606 34.611H73.113c-19.092-.058-34.553-15.519-34.611-34.606V94.446c.058-19.092 15.519-34.553 34.606-34.611h62.06c5.939 0 7.27 2.56 7.27 3.891.116 10.544 8.69 19.046 19.25 19.046h215.553c10.632 0 19.251-8.619 19.251-19.251 0-1.331 1.434-3.891 7.373-3.891h61.952c19.092.058 34.553 15.519 34.611 34.606v305.977c11.19-5.585 24.193-9.591 37.908-11.306l.594-.061v-294.4c0-40.38-32.734-73.114-73.114-73.114H73.112c-40.38 0-73.114 32.734-73.114 73.114v877.773c0 40.38 32.734 73.114 73.114 73.114h392.704c40.38 0 73.114-32.734 73.114-73.114v-44.032c-14.725-3.477-27.562-8.011-39.732-13.729l1.229.519z"/></svg>