<!-- Generated by IcoMoon.io -->
<svg version="1.1" xmlns="http://www.w3.org/2000/svg" width="18" height="24" viewBox="0 0 18 24">
<title>cellphone-touch</title>
<path d="M13.942 9.214c-0.113 0.058-0.286 0.182-0.266 0.216l0.845 1.534c0.021 0.038 0.033 0.083 0.033 0.131 0 0.151-0.122 0.273-0.273 0.273-0.103 0-0.193-0.057-0.239-0.141l-0.001-0.001-0.874-1.589c-0.137-0.24-0.746-0.12-1.176 0.122-0.108 0.064-0.201 0.138-0.283 0.223l-0 0 0.85 1.538c0.021 0.038 0.033 0.083 0.033 0.131 0 0.151-0.122 0.273-0.273 0.273-0.103 0-0.193-0.057-0.239-0.141l-0.001-0.001-0.871-1.584c-0.298-0.161-0.838-0.070-1.159 0.106-0.116 0.064-0.214 0.144-0.296 0.239l-0.001 0.001 0.84 1.524c0.021 0.038 0.033 0.083 0.033 0.131 0 0.151-0.122 0.273-0.273 0.273-0.103 0-0.193-0.057-0.239-0.141l-0.001-0.001-2.114-3.84c-0.198-0.358-0.573-0.597-1.004-0.597-0.183 0-0.357 0.043-0.51 0.12l0.007-0.003c-0.327 0.204-0.54 0.562-0.54 0.97 0 0.207 0.055 0.402 0.152 0.569l-0.003-0.006 3.518 6.358-1.214-0.756c-0.569-0.362-1.406-0.24-1.745 0.355-0.099 0.166-0.158 0.367-0.158 0.581 0 0.136 0.024 0.266 0.067 0.387l-0.003-0.008c0.11 0.329 0.33 0.596 0.615 0.764l0.006 0.004 4.265 2.53c0.72 0.444 2.198 1.37 4.754-0.036 3.24-1.783 2.234-4.392 1.783-5.251l-2.434-4.447c-0.358-0.648-1.008-1.116-1.61-0.809z"></path>
<path d="M11.729 20.945v1.342c-0.001 0.447-0.364 0.81-0.811 0.811h-9.204c-0.447-0.001-0.81-0.364-0.811-0.811v-20.573c0.001-0.447 0.364-0.81 0.811-0.811h1.455c0.139 0 0.17 0.060 0.17 0.091 0.003 0.247 0.204 0.446 0.451 0.446 0 0 0 0 0 0h5.052c0.249 0 0.451-0.202 0.451-0.451v0c0-0.031 0.034-0.091 0.173-0.091h1.452c0.447 0.001 0.81 0.364 0.811 0.811v7.171c0.262-0.131 0.567-0.225 0.888-0.265l0.014-0.001v-6.9c0-0.946-0.767-1.714-1.714-1.714v0h-9.204c-0.946 0-1.714 0.767-1.714 1.714v0 20.573c0 0.946 0.767 1.714 1.714 1.714v0h9.204c0.946 0 1.714-0.767 1.714-1.714v-1.032c-0.345-0.081-0.646-0.188-0.931-0.322l0.029 0.012z"></path>
</svg>
