<!-- Generated by IcoMoon.io -->
<svg version="1.1" xmlns="http://www.w3.org/2000/svg" width="24" height="24" viewBox="0 0 24 24">
<title>certificate-click</title>
<path d="M12.602 13.642c0.025 0.119 0.039 0.256 0.039 0.396 0 0.053-0.002 0.106-0.006 0.158l0-0.007c0.152 0.275 0.241 0.602 0.241 0.951 0 0.025-0 0.050-0.001 0.075l0-0.004c-0.001 0.069-0.006 0.135-0.015 0.201l0.001-0.009h1.896l-0.029-1.762z"></path>
<path d="M0 0.72v14.683h2.498c-0.009-0.062-0.015-0.136-0.017-0.211l-0-0.003c-0-0.012-0-0.026-0-0.040 0-0.364 0.096-0.705 0.265-0.999l-0.005 0.010c-0.003-0.042-0.005-0.090-0.005-0.139 0-0.137 0.014-0.27 0.041-0.399l-0.002 0.013h-0.914c-0.265 0-0.48-0.215-0.48-0.48v0-10.56c0-0.265 0.215-0.48 0.48-0.48v0h19.382c0.265 0 0.48 0.215 0.48 0.48v0 10.558c0 0.265-0.215 0.48-0.48 0.48v0h-1.286l1.987 1.762h0.96v-14.674z"></path>
<path d="M2.35 3.070v9.6h0.895c0.074-0.087 0.153-0.166 0.237-0.238l0.003-0.002c0.101-0.359 0.287-0.666 0.537-0.909l0-0c0.237-0.238 0.533-0.417 0.864-0.515l0.014-0.004c0.212-0.256 0.482-0.456 0.791-0.583l0.013-0.005c0.224-0.095 0.484-0.15 0.757-0.15 0.106 0 0.209 0.008 0.31 0.024l-0.011-0.001c0.282-0.147 0.616-0.233 0.97-0.233 0.335 0 0.652 0.077 0.934 0.215l-0.013-0.006c0.067-0.008 0.145-0.012 0.224-0.012 0.651 0 1.233 0.293 1.622 0.755l0.003 0.003c0.682 0.217 1.205 0.752 1.403 1.425l0.004 0.015c0.080 0.068 0.152 0.141 0.219 0.218l0.002 0.003h2.594l-0.017-1.046c-0-0.007-0-0.015-0-0.023 0-0.648 0.525-1.174 1.174-1.174 0.3 0 0.574 0.113 0.781 0.298l-0.001-0.001 2.194 1.946h1.901v-9.6zM18.6 9.725h-14.098c-0.27 0-0.488-0.219-0.488-0.488s0.219-0.488 0.488-0.488v0h14.098c0.27 0 0.488 0.219 0.488 0.488s-0.219 0.488-0.488 0.488v0zM18.6 7.565h-14.098c-0.27 0-0.49-0.219-0.49-0.49s0.219-0.49 0.49-0.49v0h14.098c0.272 0 0.493 0.221 0.493 0.493s-0.221 0.493-0.493 0.493v0zM18.6 5.405h-14.098c-0.27 0-0.49-0.219-0.49-0.49s0.219-0.49 0.49-0.49v0h14.098c0.274 0 0.497 0.222 0.497 0.497s-0.222 0.497-0.497 0.497v0z"></path>
<path d="M20.702 23.261c-0.074-0.001-0.138-0.042-0.172-0.102l-0.001-0.001-1.894-3.502-2.462 2.546c-0.036 0.037-0.086 0.059-0.141 0.059-0.026 0-0.051-0.005-0.074-0.014l0.001 0c-0.068-0.028-0.116-0.092-0.12-0.168l-0-0-0.178-10.471c-0-0.001-0-0.002-0-0.003 0-0.109 0.088-0.197 0.197-0.197 0.050 0 0.095 0.018 0.13 0.049l-0-0 7.946 7.039c0.040 0.036 0.065 0.088 0.065 0.147 0 0.025-0.005 0.049-0.013 0.071l0-0.001c-0.029 0.073-0.098 0.124-0.18 0.127h-0l-3.317 0.055 1.793 3.317c0.014 0.027 0.023 0.059 0.023 0.093 0 0.074-0.041 0.139-0.101 0.173l-0.001 0.001-1.409 0.758c-0.027 0.015-0.059 0.024-0.094 0.024 0 0-0 0-0 0v0z"></path>
<path d="M11.909 15.197c0-0.37-0.154-0.682-0.372-0.761 0.083-0.126 0.133-0.28 0.133-0.447 0-0.136-0.033-0.264-0.091-0.376l0.002 0.005c-0.139-0.348-0.413-0.566-0.648-0.552v0c0.3-0.463-0.583-1.361-1.061-1.102 0.017-0.24-0.206-0.504-0.55-0.648s-0.689-0.113-0.845 0.060c-0.204-0.48-1.354-0.451-1.502 0.043-0.372-0.418-1.464-0.034-1.44 0.542-0.206-0.108-0.547 0-0.816 0.257s-0.398 0.636-0.262 0.84v0c-0.24-0.017-0.509 0.202-0.653 0.547-0.058 0.109-0.092 0.239-0.092 0.377 0 0.163 0.048 0.315 0.13 0.443l-0.002-0.003c-0.218 0.079-0.379 0.389-0.377 0.758s0.17 0.682 0.391 0.756c-0.178 0.151-0.211 0.504-0.067 0.852s0.442 0.588 0.682 0.547c-0.106 0.209 0 0.55 0.264 0.814 0.15 0.176 0.372 0.288 0.62 0.288 0.053 0 0.105-0.005 0.156-0.015l-0.005 0.001c-0.022 0.547 1.068 0.96 1.416 0.538 0.050 0.24 0.362 0.389 0.751 0.396s0.691-0.158 0.766-0.382c0.151 0.178 0.499 0.218 0.847 0.084s0.574-0.401 0.564-0.634c0.047 0.010 0.101 0.015 0.156 0.015 0.246 0 0.467-0.11 0.616-0.283l0.001-0.001c0.269-0.259 0.374-0.602 0.271-0.811 0.24 0.043 0.533-0.185 0.686-0.542s0.113-0.698-0.062-0.852c0.218-0.072 0.386-0.382 0.394-0.754zM7.68 17.28c-1.148 0-2.078-0.931-2.078-2.078v0c0.103-2.753 4.054-2.75 4.157 0 0 1.148-0.931 2.078-2.078 2.078v0z"></path>
<path d="M10.488 19.351c-0.222 0.273-0.509 0.485-0.838 0.612l-0.014 0.005c-0.147 0.060-0.318 0.105-0.496 0.128l-0.011 0.001c0.106 0.671 0.417 1.256 0.866 1.701l0 0 0.528-1.186 1.282 0.314s-0.77-0.96-0.876-1.781c-0.127 0.081-0.273 0.15-0.428 0.2l-0.014 0.004z"></path>
<path d="M5.7 19.968c-0.339-0.134-0.622-0.346-0.839-0.613l-0.003-0.004-0.041-0.019c-0.157-0.056-0.293-0.123-0.418-0.204l0.008 0.005-0.086-0.041c-0.077 0.821-0.883 1.836-0.883 1.836l1.279-0.314 0.528 1.186c0.453-0.449 0.765-1.039 0.867-1.699l0.002-0.017c-0.156-0.026-0.294-0.066-0.426-0.12l0.013 0.005z"></path>
</svg>
