<svg xmlns="http://www.w3.org/2000/svg" viewBox="0 0 1024 1024"><path d="M736 638.933c6.4-3.2 12.8-3.2 19.2-3.2 9.6 0 22.4-9.6 32-22.4s12.8-25.6 9.6-35.2c-9.6-25.6 6.4-64 32-76.8 9.6-6.4 16-19.2 16-32 3.2-16 0-28.8-9.6-38.4-19.2-19.2-25.6-57.6-9.6-83.2 6.4-9.6 6.4-25.6 0-38.4s-12.8-22.4-25.6-28.8c-28.8-9.6-51.2-41.6-48-70.4 0-9.6-6.4-22.4-16-32s-22.4-16-35.2-12.8c-28.8 6.4-64-12.8-73.6-38.4-6.4-9.6-16-19.2-32-22.4-12.8-3.2-28.8-3.2-38.4 3.2-22.4 19.2-60.8 19.2-83.2 0-9.6-6.4-22.4-9.6-38.4-3.2-12.8 3.2-25.6 12.8-32 22.4-9.6 25.6-48 44.8-73.6 38.4-9.6 0-22.4 3.2-35.2 12.8-9.6 3.2-19.2 16-19.2 28.8 3.2 28.8-19.2 60.8-48 67.2-9.6 6.4-19.2 16-25.6 28.8s-6.4 28.8 0 38.4c16 25.6 9.6 64-9.6 83.2-6.4 9.6-9.6 22.4-9.6 35.2 3.2 12.8 9.6 25.6 16 32 25.6 12.8 38.4 51.2 28.8 80-3.2 9.6 0 25.6 9.6 35.2 9.6 12.8 19.2 19.2 32 22.4 6.4 0 12.8 3.2 22.4 6.4L160 952.533l121.6-28.8 67.2 105.6 121.6-294.4 3.2 3.2c6.4 9.6 19.2 12.8 35.2 12.8s28.8-3.2 35.2-12.8l6.4-6.4 121.6 297.6 67.2-105.6 121.6 28.8-124.8-313.6zm-432-211.2c0-115.2 92.8-208 208-208s208 92.8 208 208-92.8 208-208 208-208-92.8-208-208zm373.29-39.046c21.525 91.157-34.923 182.504-126.081 204.029S368.705 557.793 347.18 466.635c-21.525-91.157 34.923-182.504 126.081-204.029s182.504 34.923 204.029 126.081z"/></svg>