<svg xmlns="http://www.w3.org/2000/svg" viewBox="0 0 1024 1024"><path d="M716.8 645.333c6.4-3.2 32-12.8 38.4-12.8 9.6 0 22.4-9.6 32-22.4s12.8-25.6 9.6-35.2c-9.6-25.6 6.4-64 32-76.8 9.6-6.4 16-19.2 16-32 3.2-16 0-28.8-9.6-38.4-19.2-19.2-25.6-57.6-9.6-83.2 6.4-9.6 6.4-25.6 0-38.4s-12.8-22.4-25.6-28.8c-28.8-9.6-51.2-41.6-48-70.4 0-9.6-6.4-22.4-16-32s-22.4-16-35.2-12.8c-28.8 6.4-64-12.8-73.6-38.4-6.4-9.6-16-19.2-32-22.4-12.8-3.2-28.8-3.2-38.4 3.2-22.4 19.2-60.8 19.2-83.2 0-9.6-6.4-22.4-9.6-38.4-3.2-12.8 3.2-25.6 12.8-32 22.4-9.6 25.6-48 44.8-73.6 38.4-9.6 0-22.4 3.2-35.2 12.8-9.6 6.4-19.2 19.2-19.2 32 3.2 28.8-19.2 60.8-48 67.2-9.6 6.4-19.2 16-25.6 28.8s-6.4 28.8 0 38.4c16 25.6 9.6 64-9.6 83.2-6.4 9.6-9.6 22.4-9.6 35.2 3.2 12.8 9.6 25.6 16 32 25.6 12.8 38.4 51.2 28.8 80-3.2 9.6 0 25.6 9.6 35.2 9.6 12.8 19.2 19.2 32 22.4 6.4 0 32 16 38.4 19.2l-147.2 304 121.6-28.8 67.2 105.6 121.6-297.6 3.2 6.4c6.4 9.6 19.2 12.8 35.2 12.8s28.8-3.2 35.2-12.8l6.4-6.4 121.6 297.6 67.2-105.6 121.6 28.8-144-307.2zm-188.8-96c-9.6 9.6-25.6 19.2-32 19.2-12.8 0-25.6-3.2-32-12.8-9.6-9.6-102.4-102.4-102.4-105.6-9.6-9.6-9.6-19.2 3.2-32l25.6-25.6c9.6-9.6 22.4-6.4 28.8 3.2l80 80s176-185.6 179.2-192c9.6-9.6 19.2-9.6 32 0 3.2 3.2 19.2 16 19.2 19.2 3.2 9.6 6.4 22.4-3.2 32 0-3.2-195.2 208-198.4 214.4z"/></svg>