<!-- Generated by IcoMoon.io -->
<svg version="1.1" xmlns="http://www.w3.org/2000/svg" width="24" height="24" viewBox="0 0 24 24">
<title>certificate-check</title>
<path d="M16.8 14.625c0.15-0.075 0.75-0.3 0.9-0.3 0.225 0 0.525-0.225 0.75-0.525s0.3-0.6 0.225-0.825c-0.225-0.6 0.15-1.5 0.75-1.8 0.225-0.15 0.375-0.45 0.375-0.75 0.075-0.375 0-0.675-0.225-0.9-0.45-0.45-0.6-1.35-0.225-1.95 0.15-0.225 0.15-0.6 0-0.9s-0.3-0.525-0.6-0.675c-0.675-0.225-1.2-0.975-1.125-1.65 0-0.225-0.15-0.525-0.375-0.75s-0.525-0.375-0.825-0.3c-0.675 0.15-1.5-0.3-1.725-0.9-0.15-0.225-0.375-0.45-0.75-0.525-0.3-0.075-0.675-0.075-0.9 0.075-0.525 0.45-1.425 0.45-1.95 0-0.225-0.15-0.525-0.225-0.9-0.075-0.3 0.075-0.6 0.3-0.75 0.525-0.225 0.6-1.125 1.050-1.725 0.9-0.225 0-0.525 0.075-0.825 0.3-0.225 0.15-0.45 0.45-0.45 0.75 0.075 0.675-0.45 1.425-1.125 1.575-0.225 0.15-0.45 0.375-0.6 0.675s-0.15 0.675 0 0.9c0.375 0.6 0.225 1.5-0.225 1.95-0.15 0.225-0.225 0.525-0.225 0.825 0.075 0.3 0.225 0.6 0.375 0.75 0.6 0.3 0.9 1.2 0.675 1.875-0.075 0.225 0 0.6 0.225 0.825 0.225 0.3 0.45 0.45 0.75 0.525 0.15 0 0.75 0.375 0.9 0.45l-3.45 7.125 2.85-0.675 1.575 2.475 2.85-6.975c0 0 0.075 0.15 0.075 0.15 0.15 0.225 0.45 0.3 0.825 0.3s0.675-0.075 0.825-0.3c0.075-0.075 0.075-0.075 0.15-0.15l2.85 6.975 1.575-2.475 2.85 0.675-3.375-7.2zM12.375 12.375c-0.225 0.225-0.6 0.45-0.75 0.45-0.3 0-0.6-0.075-0.75-0.3-0.225-0.225-2.4-2.4-2.4-2.475-0.225-0.225-0.225-0.45 0.075-0.75 0.075-0.075 0.45-0.45 0.6-0.6 0.225-0.225 0.525-0.15 0.675 0.075 0.075 0.075 1.875 1.875 1.875 1.875s4.125-4.35 4.2-4.5c0.225-0.225 0.45-0.225 0.75 0 0.075 0.075 0.45 0.375 0.45 0.45 0.075 0.225 0.15 0.525-0.075 0.75 0-0.075-4.575 4.875-4.65 5.025z"></path>
</svg>
