<svg xmlns="http://www.w3.org/2000/svg" viewBox="0 0 1024 1024"><path d="M537.702 603.375c1.065 5.082 1.675 10.921 1.675 16.903 0 2.268-.088 4.515-.26 6.739l.018-.295c6.481 11.724 10.295 25.702 10.295 40.572 0 1.073-.02 2.141-.059 3.204l.005-.154a70.665 70.665 0 0 1-.656 8.558l.042-.366h80.896l-1.229-75.162zM0 52.053v626.483h106.598c-.368-2.645-.625-5.797-.714-8.991l-.003-.123a81.39 81.39 0 0 1-.017-1.707c0-15.517 4.109-30.075 11.298-42.644l-.222.421a80.862 80.862 0 0 1-.211-5.93c0-5.838.599-11.536 1.738-17.036l-.094.541H79.359c-11.311 0-20.48-9.169-20.48-20.48v-450.56c0-11.311 9.169-20.48 20.48-20.48h826.982c11.311 0 20.48 9.169 20.48 20.48v450.458c0 11.311-9.169 20.48-20.48 20.48h-54.886l84.787 75.162h40.96V52.053zm100.25 100.25v409.6h38.195a86.87 86.87 0 0 1 10.116-10.137l.124-.103c4.292-15.317 12.263-28.426 22.918-38.791l.02-.019c10.126-10.147 22.747-17.8 36.864-21.963l.614-.155c9.066-10.909 20.584-19.467 33.729-24.878l.575-.21c9.547-4.043 20.648-6.393 32.298-6.393 4.503 0 8.924.351 13.237 1.027l-.478-.062c12.031-6.278 26.275-9.961 41.38-9.961 14.293 0 27.816 3.298 39.85 9.174l-.538-.237c2.862-.321 6.179-.505 9.539-.505 27.767 0 52.61 12.516 69.197 32.214l.112.137c29.087 9.271 51.409 32.066 59.845 60.801l.161.639a82.72 82.72 0 0 1 9.326 9.307l.095.114h110.694l-.717-44.646c-.006-.296-.01-.645-.01-.995 0-27.655 22.419-50.074 50.074-50.074 12.804 0 24.485 4.806 33.339 12.711l-.049-.043 93.594 83.046h81.101v-409.6zM793.6 436.258H192.102c-11.509 0-20.838-9.33-20.838-20.838s9.33-20.838 20.838-20.838H793.6c11.509 0 20.838 9.33 20.838 20.838s-9.33 20.838-20.838 20.838zm0-92.16H192.102c-11.537 0-20.89-9.353-20.89-20.89s9.353-20.89 20.89-20.89H793.6c11.622 0 21.043 9.421 21.043 21.043s-9.421 21.043-21.043 21.043zm0-92.16H192.102c-11.537 0-20.89-9.353-20.89-20.89s9.353-20.89 20.89-20.89H793.6c11.707 0 21.197 9.49 21.197 21.197s-9.49 21.197-21.197 21.197zm89.702 761.856a8.5 8.5 0 0 1-7.351-4.36l-.022-.043-80.794-149.402-105.062 108.646a8.376 8.376 0 0 1-6.015 2.538 8.376 8.376 0 0 1-3.155-.613l.056.02c-2.902-1.191-4.944-3.921-5.119-7.147l-.001-.021-7.578-446.771-.001-.133a8.397 8.397 0 0 1 13.937-6.31l-.009-.008 339.046 300.339a8.38 8.38 0 0 1 2.793 6.253 8.36 8.36 0 0 1-.56 3.02l.019-.057c-1.257 3.112-4.198 5.295-7.664 5.427h-.016l-141.517 2.355 76.493 141.517a8.385 8.385 0 0 1 .973 3.948 8.496 8.496 0 0 1-4.31 7.397l-.042.022-60.109 32.358a8.199 8.199 0 0 1-3.992 1.024h-.001zM508.109 669.73c0-15.77-6.554-29.082-15.872-32.461 3.545-5.374 5.656-11.967 5.656-19.052 0-5.791-1.41-11.252-3.904-16.06l.092.194c-5.939-14.848-17.613-24.166-27.648-23.552 12.8-19.763-24.883-58.061-45.261-47.002.717-10.24-8.806-21.504-23.45-27.648s-29.389-4.813-36.045 2.56c-8.704-20.48-57.754-19.251-64.102 1.843-15.872-17.818-62.464-1.434-61.44 23.142-8.806-4.608-23.347 0-34.816 10.957s-16.998 27.136-11.162 35.84c-10.24-.717-21.709 8.602-27.853 23.347-2.47 4.667-3.92 10.201-3.92 16.074a34.759 34.759 0 0 0 5.539 18.88l-.083-.138c-9.318 3.379-16.179 16.589-16.077 32.358s7.27 29.082 16.691 32.256c-7.578 6.451-9.011 21.504-2.867 36.352s18.842 25.088 29.082 23.347c-4.506 8.909 0 23.45 11.264 34.714 6.39 7.53 15.861 12.276 26.44 12.276 2.274 0 4.497-.219 6.648-.638l-.218.035c-.922 23.347 45.568 40.96 60.416 22.938 2.15 10.24 15.462 16.589 32.051 16.896s29.491-6.758 32.666-16.282c6.451 7.578 21.299 9.318 36.147 3.584s24.474-17.101 24.064-27.034c2.005.412 4.309.648 6.668.648 10.506 0 19.919-4.681 26.266-12.071l.039-.046c11.469-11.059 15.974-25.702 11.571-34.611 10.24 1.843 22.733-7.885 29.286-23.142s4.813-29.798-2.662-36.352c9.318-3.072 16.486-16.282 16.794-32.154zM327.68 758.613c-48.976 0-88.678-39.703-88.678-88.678 4.403-117.453 172.954-117.35 177.357 0 0 48.976-39.703 88.678-88.678 88.678zm119.808 88.371c-9.46 11.657-21.718 20.688-35.767 26.118l-.585.199c-6.27 2.555-13.564 4.495-21.157 5.482l-.449.048c4.515 28.63 17.794 53.573 36.958 72.594l.008.008 22.528-50.586 54.682 13.414s-32.87-40.96-37.376-75.981c-5.418 3.452-11.656 6.405-18.262 8.542l-.58.162zM243.2 873.301c-14.453-5.736-26.556-14.745-35.816-26.156l-.126-.161-1.741-.819c-6.701-2.389-12.481-5.257-17.854-8.705l.343.206-3.686-1.741c-3.277 35.021-37.683 78.336-37.683 78.336l54.579-13.414 22.528 50.586c19.314-19.174 32.649-44.346 36.977-72.489l.092-.727c-6.638-1.106-12.557-2.815-18.17-5.117l.557.202z"/></svg>