<!-- Generated by IcoMoon.io -->
<svg version="1.1" xmlns="http://www.w3.org/2000/svg" width="24" height="24" viewBox="0 0 24 24">
<title>charge-cycle</title>
<path d="M16.725 10.95c-1.35 0-2.325 0-3.675 0 0 0 2.25-3.375 3.375-4.95-1.575 0-4.050 0-5.55 0.075-0.075 0.15-3.225 7.125-3.375 7.35 1.2 0 2.325 0 3.45 0l-2.1 5.325c0 0 4.875-4.8 7.875-7.8z"></path>
<path d="M21.225 18c-0.15 0-1.275 0.225-1.275 0.225 3-3.825 2.85-9.525-0.525-13.125-1.8-2.025-4.35-3.15-7.050-3.225-2.625-0.075-5.25 0.825-7.2 2.7-2.025 1.8-3.15 4.35-3.225 7.050s0.825 5.325 2.7 7.275c1.875 2.1 4.65 3.225 7.425 3.225h0.075c0.225 0 0.375-0.15 0.375-0.375s-0.15-0.375-0.375-0.375c-2.7 0.075-5.175-1.050-6.975-3-1.725-1.875-2.55-4.2-2.475-6.75 0.075-2.475 1.2-4.8 3-6.525 1.875-1.725 4.2-2.55 6.75-2.475 2.475 0.075 4.8 1.2 6.525 3 3.15 3.375 3.3 8.625 0.45 12.225 0 0 0-0.975 0-1.125s-0.15-0.45-0.45-0.375c-0.3 0-0.375 0.3-0.375 0.45s0.15 2.55 0.15 2.55 2.55-0.525 2.7-0.525c0.15 0 0.375-0.225 0.3-0.525-0.075-0.225-0.3-0.3-0.525-0.3z"></path>
</svg>
