<!-- Generated by IcoMoon.io -->
<svg version="1.1" xmlns="http://www.w3.org/2000/svg" width="24" height="24" viewBox="0 0 24 24">
<title>charge-units</title>
<path d="M15.6 7.725c-1.2 0-3.15 0-4.425 0-0.075 0.15-2.55 5.625-2.625 5.775 0.975 0 1.8 0 2.7 0l-1.65 4.2c0.075 0 3.825-3.75 6.225-6.075-1.050 0-1.8 0-2.85 0 0 0 1.725-2.7 2.625-3.9z"></path>
<path d="M21.825 9.975c-0.975 0-1.8 0.75-1.875 1.8h-1.5c-0.15 0-0.225 0.075-0.225 0.225s0.075 0.225 0.225 0.225h1.5c0.15 0.9 0.9 1.65 1.875 1.65 1.050 0 1.875-0.825 1.875-1.875s-0.825-2.025-1.875-2.025z"></path>
<path d="M17.475 3.75c-0.75 0.75-0.75 1.875-0.075 2.625l-1.050 1.050c-0.075 0.075-0.075 0.225 0 0.3s0.225 0.075 0.3 0l1.050-1.050c0.75 0.525 1.8 0.525 2.475-0.15 0.75-0.75 0.75-1.95 0-2.7s-1.95-0.825-2.7-0.075z"></path>
<path d="M13.95 21.675c0-0.975-0.75-1.8-1.8-1.875v-1.5c0-0.15-0.075-0.225-0.225-0.225s-0.225 0.075-0.225 0.225v1.5c-0.9 0.15-1.65 0.9-1.65 1.875 0 1.050 0.825 1.875 1.875 1.875s2.025-0.825 2.025-1.875z"></path>
<path d="M10.050 2.25c0 0.975 0.75 1.8 1.8 1.875v1.5c0 0.15 0.075 0.225 0.225 0.225s0.225-0.075 0.225-0.225v-1.5c0.9-0.15 1.65-0.9 1.65-1.875 0-1.050-0.825-1.875-1.875-1.875-1.2 0-2.025 0.825-2.025 1.875z"></path>
<path d="M20.325 17.625c-0.75-0.75-1.875-0.75-2.625-0.075l-1.050-1.050c-0.075-0.075-0.225-0.075-0.3 0s-0.075 0.225 0 0.3l1.050 1.050c-0.525 0.75-0.525 1.8 0.15 2.475 0.75 0.75 1.95 0.75 2.7 0 0.825-0.75 0.825-1.95 0.075-2.7z"></path>
<path d="M2.325 9.975c0.975 0 1.8 0.75 1.875 1.8h1.5c0.15 0 0.225 0.075 0.225 0.225s-0.075 0.225-0.225 0.225h-1.5c-0.15 0.9-0.9 1.65-1.875 1.65-1.050 0-1.875-0.825-1.875-1.875s0.825-2.025 1.875-2.025z"></path>
<path d="M6.6 3.75c0.75 0.75 0.75 1.875 0.075 2.625l1.050 1.050c0.075 0.075 0.075 0.225 0 0.3s-0.225 0.075-0.3 0l-1.050-1.125c-0.75 0.525-1.8 0.525-2.475-0.15-0.75-0.75-0.75-1.95 0-2.7s1.95-0.75 2.7 0z"></path>
<path d="M3.825 17.625c0.75-0.75 1.875-0.75 2.625-0.075l1.050-1.050c0.075-0.075 0.225-0.075 0.3 0s0.075 0.225 0 0.3l-1.050 1.050c0.525 0.75 0.525 1.8-0.15 2.475-0.75 0.75-1.95 0.75-2.7 0s-0.825-1.95-0.075-2.7z"></path>
</svg>
