<svg xmlns="http://www.w3.org/2000/svg" viewBox="0 0 1024 1024"><path d="M665.6 350.933H476.8c-3.2 6.4-108.8 240-112 246.4H480l-70.4 179.2c3.2 0 163.2-160 265.6-259.2H553.6s73.6-115.2 112-166.4zm265.6 96c-41.6 0-76.8 32-80 76.8h-64c-6.4 0-9.6 3.2-9.6 9.6s3.2 9.6 9.6 9.6h64c6.4 38.4 38.4 70.4 80 70.4 44.8 0 80-35.2 80-80s-35.2-86.4-80-86.4zm-185.6-265.6c-32 32-32 80-3.2 112l-44.8 44.8c-3.2 3.2-3.2 9.6 0 12.8s9.6 3.2 12.8 0l44.8-44.8c32 22.4 76.8 22.4 105.6-6.4 32-32 32-83.2 0-115.2s-83.2-35.2-115.2-3.2zm-150.4 764.8c0-41.6-32-76.8-76.8-80v-64c0-6.4-3.2-9.6-9.6-9.6s-9.6 3.2-9.6 9.6v64c-38.4 6.4-70.4 38.4-70.4 80 0 44.8 35.2 80 80 80s86.4-35.2 86.4-80zm-166.4-828.8c0 41.6 32 76.8 76.8 80v64c0 6.4 3.2 9.6 9.6 9.6s9.6-3.2 9.6-9.6v-64c38.4-6.4 70.4-38.4 70.4-80 0-44.8-35.2-80-80-80-51.2 0-86.4 35.2-86.4 80zm438.4 656c-32-32-80-32-112-3.2l-44.8-44.8c-3.2-3.2-9.6-3.2-12.8 0s-3.2 9.6 0 12.8l44.8 44.8c-22.4 32-22.4 76.8 6.4 105.6 32 32 83.2 32 115.2 0 35.2-32 35.2-83.2 3.2-115.2zm-768-326.4c41.6 0 76.8 32 80 76.8h64c6.4 0 9.6 3.2 9.6 9.6s-3.2 9.6-9.6 9.6h-64c-6.4 38.4-38.4 70.4-80 70.4-44.8 0-80-35.2-80-80s35.2-86.4 80-86.4zm182.4-265.6c32 32 32 80 3.2 112l44.8 44.8c3.2 3.2 3.2 9.6 0 12.8s-9.6 3.2-12.8 0l-44.8-48c-32 22.4-76.8 22.4-105.6-6.4-32-32-32-83.2 0-115.2s83.2-32 115.2 0zm-118.4 592c32-32 80-32 112-3.2l44.8-44.8c3.2-3.2 9.6-3.2 12.8 0s3.2 9.6 0 12.8l-44.8 44.8c22.4 32 22.4 76.8-6.4 105.6-32 32-83.2 32-115.2 0s-35.2-83.2-3.2-115.2z"/></svg>