<svg xmlns="http://www.w3.org/2000/svg" viewBox="0 0 1024 1024"><path d="M1013.383 495.282c0-164.95-222.975-299.155-497.135-299.155-274.199 0-497.174 134.239-497.174 299.155 0 79.694 52.075 154.83 146.678 211.614l8.652 5.216-.968 9.964c-3.475 38.785-22.176 98.934-100.48 120.41a382.562 382.562 0 0 0 68.491 6.216c75.097 0 142.157-22.754 199.214-67.601l5.911-4.56 7.223 1.429c11.744 2.514 23.871 4.326 35.849 6.255.039.578.039 1.156.078 1.702 38.629 5.56 78.072 8.574 117.979 8.574 237.999 0 437.681-99.707 491.531-233.407.578.234 1.195.383 1.741.617 7.996-21.403 12.4-43.611 12.4-66.443zm-468.587-84.91c44.618 0 80.662 36.083 80.662 80.701 0 44.657-36.044 80.74-80.662 80.74-44.657 0-80.701-36.083-80.701-80.74 0-44.618 36.005-80.701 80.701-80.701zm-292.622 80.701c0-44.618 36.122-80.701 80.701-80.701s80.813 36.083 80.813 80.701c0 44.657-36.234 80.74-80.813 80.74s-80.701-36.044-80.701-80.74zm504.509 80.735c-19.084 0-35.888-7.574-49.639-18.506-2.585-2.163-4.904-4.716-7.262-7.223-14.29-14.29-23.871-33.03-23.871-55.011 0-44.618 36.195-80.701 80.813-80.701 44.54 0 80.701 36.083 80.701 80.701 0 17.655-6.762 33.069-16.382 46.359-14.797 20.318-37.434 34.381-64.358 34.381z"/></svg>