<!-- Generated by IcoMoon.io -->
<svg version="1.1" xmlns="http://www.w3.org/2000/svg" width="24" height="24" viewBox="0 0 24 24">
<title>chat-bubble</title>
<path fill="#000" d="M23.751 11.108c0-3.866-5.226-7.011-11.652-7.011s-11.653 3.146-11.653 7.011c0 1.868 1.221 3.629 3.438 4.96l0.203 0.122-0.023 0.234c-0.081 0.909-0.52 2.319-2.355 2.822 0.474 0.087 1.020 0.146 1.605 0.146 1.76 0 3.332-0.533 4.669-1.584l0.139-0.107 0.169 0.033c0.275 0.059 0.559 0.101 0.84 0.147 0.001 0.014 0.001 0.027 0.002 0.040 0.905 0.13 1.83 0.201 2.765 0.201 5.578 0 10.258-2.337 11.52-5.47 0.014 0.005 0.028 0.009 0.041 0.014 0.187-0.502 0.291-1.022 0.291-1.557zM12.769 9.118c1.046 0 1.891 0.846 1.891 1.891s-0.845 1.892-1.891 1.892c-1.047 0-1.891-0.846-1.891-1.892s0.844-1.891 1.891-1.891zM5.91 11.010c0-1.046 0.847-1.891 1.891-1.891s1.894 0.846 1.894 1.891c0 1.047-0.849 1.892-1.894 1.892s-1.891-0.845-1.891-1.892zM17.735 12.902c-0.447 0-0.841-0.178-1.163-0.434-0.061-0.051-0.115-0.111-0.17-0.169v0c-0.335-0.335-0.559-0.774-0.559-1.289 0-1.046 0.848-1.891 1.894-1.891 1.044 0 1.891 0.846 1.891 1.891 0 0.414-0.158 0.775-0.384 1.087-0.347 0.476-0.877 0.806-1.508 0.806z"></path>
</svg>
