<!-- Generated by IcoMoon.io -->
<svg version="1.1" xmlns="http://www.w3.org/2000/svg" width="24" height="24" viewBox="0 0 24 24">
<title>chat-bubbles</title>
<path d="M8.982 8.737c0 0.721-0.584 1.305-1.305 1.305s-1.305-0.584-1.305-1.305c0-0.721 0.584-1.305 1.305-1.305s1.305 0.584 1.305 1.305z"></path>
<path d="M12.326 8.737c0 0.721-0.584 1.305-1.305 1.305s-1.305-0.584-1.305-1.305c0-0.721 0.584-1.305 1.305-1.305s1.305 0.584 1.305 1.305z"></path>
<path d="M13.632 9.716c0.245 0.163 0.489 0.326 0.816 0.326 0.408 0 0.816-0.245 1.061-0.571 0.163-0.245 0.245-0.489 0.245-0.734 0-0.734-0.571-1.305-1.305-1.305s-1.305 0.571-1.305 1.305c0 0.326 0.163 0.653 0.408 0.897 0 0.082 0.082 0.082 0.082 0.082z"></path>
<path d="M12 0.416c-6.282 0-11.421 5.14-11.421 11.584s5.14 11.666 11.421 11.666c6.282 0 11.421-5.221 11.421-11.666s-5.14-11.584-11.421-11.584zM8.574 13.468c-0.163 0-0.408-0.082-0.571-0.082h-0.082l-0.082 0.082c-0.979 0.653-2.040 0.979-3.263 0.979-0.408 0-0.734 0-1.061-0.082 1.224-0.326 1.55-1.305 1.632-1.958v-0.163l-0.163-0.082c-1.55-0.897-2.366-2.121-2.366-3.426 0-2.61 3.589-4.813 7.995-4.813s7.995 2.121 7.995 4.813c0 0.326-0.082 0.734-0.163 1.061 0 0 0 0 0 0-0.897 2.121-4.079 3.753-7.913 3.753-0.734 0.082-1.305 0-1.958-0.082 0 0 0 0 0 0zM17.14 17.058c-0.653 0.163-1.305 0.245-2.040 0.245-2.937 0-5.384-1.224-6.037-2.937 0.571 0.082 1.142 0.082 1.713 0.082 3.997 0 7.342-1.713 8.239-4.079 1.468 0.734 2.366 1.795 2.366 3.018 0 1.061-0.734 2.040-1.876 2.774 0.082 0.653 0.408 1.468 2.121 1.387 0 0-2.447 1.142-4.487-0.489z"></path>
</svg>
