<!-- Generated by IcoMoon.io -->
<svg version="1.1" xmlns="http://www.w3.org/2000/svg" width="24" height="24" viewBox="0 0 24 24">
<title>chat</title>
<path d="M21.236 17.638c1.432-0.862 2.322-2.062 2.322-3.39 0-1.511-1.153-2.854-2.947-3.723-1.126 2.856-5.253 4.982-10.16 4.982-0.712 0-1.416-0.049-2.109-0.137 0.82 2.077 3.865 3.619 7.498 3.619 0.871 0 1.711-0.089 2.493-0.253 2.515 1.976 5.478 0.606 5.478 0.606-2.025 0.121-2.503-0.912-2.575-1.703z"></path>
<path d="M20.092 8.574c0-3.262-4.411-5.917-9.833-5.917s-9.833 2.655-9.833 5.917c0 1.575 1.030 3.061 2.901 4.185l0.171 0.103-0.020 0.196c-0.069 0.767-0.439 1.957-1.988 2.382 0.401 0.072 0.862 0.123 1.356 0.123 1.485 0 2.811-0.449 3.941-1.337l0.116-0.090 0.143 0.028c0.232 0.050 0.472 0.086 0.709 0.123 0.001 0.011 0.001 0.022 0.002 0.032 0.763 0.11 1.543 0.17 2.333 0.17 4.706 0 8.657-1.971 9.721-4.617 0.011 0.005 0.023 0.008 0.034 0.013 0.159-0.423 0.246-0.861 0.246-1.313zM10.824 6.895c0.883 0 1.596 0.713 1.596 1.596s-0.713 1.596-1.596 1.596-1.596-0.713-1.596-1.596 0.713-1.596 1.596-1.596zM5.038 8.491c0-0.883 0.714-1.596 1.596-1.596s1.598 0.713 1.598 1.596-0.716 1.596-1.598 1.596-1.596-0.713-1.596-1.596zM15.016 10.086c-0.378 0-0.709-0.149-0.982-0.366-0.053-0.042-0.097-0.093-0.145-0.143v0c-0.282-0.282-0.473-0.654-0.473-1.087 0-0.883 0.716-1.596 1.599-1.596 0.881 0 1.596 0.713 1.596 1.596 0 0.349-0.135 0.654-0.324 0.916-0.291 0.402-0.739 0.679-1.271 0.679z"></path>
</svg>
