<svg xmlns="http://www.w3.org/2000/svg" viewBox="0 0 1024 1024"><path d="M383.214 394.103c0 30.757-24.933 55.69-55.69 55.69s-55.69-24.933-55.69-55.69c0-30.757 24.933-55.69 55.69-55.69s55.69 24.933 55.69 55.69zm142.711 0c0 30.757-24.933 55.69-55.69 55.69s-55.69-24.933-55.69-55.69c0-30.757 24.933-55.69 55.69-55.69s55.69 24.933 55.69 55.69zm55.69 41.77c10.44 6.96 20.885 13.925 34.805 13.925 17.405 0 34.805-10.44 45.25-24.365 6.96-10.44 10.44-20.885 10.44-31.325 0-31.325-24.365-55.69-55.69-55.69s-55.69 24.365-55.69 55.69c0 13.925 6.96 27.845 17.405 38.29 0 3.48 3.48 3.48 3.48 3.48zM512 39.071c-268.016 0-487.301 219.286-487.301 494.262S243.985 1031.075 512 1031.075c268.016 0 487.301-222.766 487.301-497.742S780.015 39.071 512 39.071zM365.81 595.988c-6.96 0-17.405-3.48-24.365-3.48h-3.48l-3.48 3.48c-41.77 27.845-87.02 41.77-139.23 41.77-17.405 0-31.325 0-45.25-3.48 52.21-13.925 66.135-55.69 69.615-83.536v-6.96l-6.96-3.48c-66.135-38.29-100.94-90.5-100.94-146.19 0-111.381 153.151-205.361 341.111-205.361s341.111 90.5 341.111 205.361c0 13.925-3.48 31.325-6.96 45.25-38.29 90.5-174.036 160.111-337.631 160.111-31.325 3.48-55.69 0-83.536-3.48zm365.476 153.15c-27.845 6.96-55.69 10.44-87.02 10.44-125.305 0-229.726-52.21-257.571-125.305 24.365 3.48 48.73 3.48 73.095 3.48 170.555 0 313.266-73.095 351.551-174.036 62.655 31.325 100.94 76.575 100.94 128.786 0 45.25-31.325 87.02-80.055 118.345 3.48 27.845 17.405 62.655 90.5 59.171 0 0-104.421 48.73-191.44-20.885z"/></svg>