<svg xmlns="http://www.w3.org/2000/svg" viewBox="0 0 1024 1024"><path d="M514.604 37.337c-273.914 0-495.996 222.082-495.996 495.996s222.082 495.996 495.996 495.996S1010.6 807.247 1010.6 533.333 788.518 37.337 514.604 37.337zm229.77 358.79L506.792 759.259c-.062.062-.186.124-.186.186-1.24 1.86-1.922 3.968-3.472 5.704-2.17 2.356-4.96 3.596-7.44 5.394-.62.434-1.24.93-1.922 1.364-3.844 2.418-7.812 4.03-12.152 5.084-1.426.372-2.728.744-4.216.992-3.534.496-6.882.496-10.416.124-2.48-.186-4.836-.496-7.254-1.116-2.48-.682-4.774-1.736-7.13-2.852-1.984-.93-4.092-1.178-5.952-2.356-1.364-.868-2.108-2.232-3.286-3.286-.496-.434-1.116-.558-1.612-.992L303.432 639.599c-17.608-16.306-18.662-43.772-2.418-61.318s43.71-18.662 61.318-2.418l100.13 92.628L671.71 348.635c13.144-20.026 39.99-25.668 60.078-12.586 20.088 13.144 25.73 40.052 12.586 60.078z"/></svg>