<!-- Generated by IcoMoon.io -->
<svg version="1.1" xmlns="http://www.w3.org/2000/svg" width="24" height="24" viewBox="0 0 24 24">
<title>check-list</title>
<path d="M8.029 0.208h7.942v2.647h-7.942v-2.647z"></path>
<path d="M20.664 3.096c0-0.722-0.602-1.324-1.324-1.324h-2.046v1.324c0 0.722-0.602 1.324-1.324 1.324h-7.942c-0.722 0-1.324-0.602-1.324-1.324v-1.324h-2.046c-0.722 0-1.324 0.602-1.324 1.324v17.327c0 0.722 0.602 1.324 1.324 1.324h10.589v-3.971c0-0.722 0.602-1.324 1.324-1.324h3.971v-13.357zM9.954 16.091l-3.971-4.813 0.482-0.602 3.369 2.046 7.1-6.498 0.602 0.481-7.581 9.386z"></path>
<path d="M16.933 18.137v3.971l3.971-3.971z"></path>
</svg>
