<!-- Generated by IcoMoon.io -->
<svg version="1.1" xmlns="http://www.w3.org/2000/svg" width="24" height="24" viewBox="0 0 24 24">
<title>check-line</title>
<path d="M12.063 0c-6.627 0-12 5.373-12 12s5.373 12 12 12 12-5.373 12-12-5.373-12-12-12zM12.063 22.5c-5.79 0-10.5-4.71-10.5-10.5s4.71-10.5 10.5-10.5 10.5 4.71 10.5 10.5-4.711 10.5-10.5 10.5zM17.319 7.227c-0.485-0.318-1.136-0.182-1.453 0.304l-5.064 7.739-2.421-2.241c-0.426-0.393-1.091-0.367-1.485 0.058s-0.367 1.089 0.059 1.484l3.346 3.096c0.012 0.011 0.027 0.014 0.039 0.024 0.030 0.024 0.048 0.057 0.080 0.079 0.045 0.030 0.096 0.036 0.144 0.057 0.057 0.027 0.113 0.053 0.173 0.069 0.059 0.015 0.115 0.023 0.175 0.027 0.086 0.009 0.168 0.009 0.252-0.003 0.034-0.006 0.067-0.015 0.102-0.024 0.103-0.026 0.199-0.066 0.294-0.123 0.017-0.010 0.030-0.023 0.046-0.033 0.062-0.042 0.127-0.073 0.18-0.131 0.038-0.040 0.054-0.093 0.084-0.138 0.002-0.002 0.005-0.003 0.005-0.005l5.748-8.786c0.318-0.486 0.181-1.137-0.303-1.455z"></path>
</svg>
