<svg xmlns="http://www.w3.org/2000/svg" viewBox="0 0 1024 1024"><path d="M514.688 21.333c-282.752 0-512 229.248-512 512s229.248 512 512 512 512-229.248 512-512-229.248-512-512-512zm0 960c-247.04 0-448-200.96-448-448s200.96-448 448-448 448 200.96 448 448-201.024 448-448 448zm224.256-651.648c-20.672-13.568-48.448-7.744-62.016 12.992L460.864 672.853l-103.296-95.616c-18.176-16.768-46.528-15.68-63.36 2.496s-15.68 46.464 2.496 63.296l142.784 132.096c.512.448 1.152.576 1.664 1.024 1.28 1.024 2.048 2.432 3.392 3.392 1.92 1.28 4.096 1.536 6.144 2.432 2.432 1.152 4.8 2.24 7.36 2.944 2.496.64 4.928.96 7.488 1.152 3.648.384 7.168.384 10.752-.128 1.472-.256 2.88-.64 4.352-1.024 4.416-1.088 8.512-2.816 12.544-5.248.704-.448 1.28-.96 1.984-1.408 2.624-1.792 5.44-3.136 7.68-5.568 1.6-1.728 2.304-3.968 3.584-5.888.064-.064.192-.128.192-.192l245.248-374.848c13.568-20.736 7.744-48.512-12.928-62.08z"/></svg>