<svg xmlns="http://www.w3.org/2000/svg" viewBox="0 0 1024 1024"><path d="M342.576 30.199h338.846v112.948H342.576V30.199zm539.086 123.22c0-30.794-25.68-56.474-56.474-56.474h-87.29v56.474c0 30.794-25.68 56.474-56.474 56.474H342.578c-30.794 0-56.474-25.68-56.474-56.474V96.945h-87.29c-30.794 0-56.474 25.68-56.474 56.474v739.304c0 30.794 25.68 56.474 56.474 56.474H650.61V779.773c0-30.794 25.68-56.474 56.474-56.474h169.424v-569.88zM424.71 707.893L255.286 502.539l20.544-25.68 143.764 87.29L722.51 286.913l25.68 20.544-323.438 400.456zm297.78 87.29v169.424l169.424-169.424z"/></svg>