<svg xmlns="http://www.w3.org/2000/svg" viewBox="0 0 1024 1024"><path d="M442.819 833.201c1.251 1.001 2.002 2.377 3.315 3.315 1.877 1.251 4.003 1.501 6.005 2.377 2.377 1.126 4.691 2.189 7.193 2.877 2.439.626 4.816.938 7.318 1.126 3.565.375 7.006.375 10.509-.125 1.439-.25 2.815-.626 4.253-1.001 4.316-1.063 8.319-2.752 12.26-5.129.688-.438 1.251-.938 1.939-1.376 2.565-1.751 5.317-3.065 7.506-5.442 1.564-1.689 2.252-3.878 3.503-5.755.063-.063.188-.125.188-.188l372.74-597.422c13.261-20.204 7.569-47.351-12.698-60.612s-47.351-7.569-60.612 12.698l-344.279 551.76-190.404-185.213c-17.764-16.451-45.412-15.387-61.863 2.377-16.388 17.764-15.325 45.474 2.439 61.863l229.061 222.868c.438.438 1.063.563 1.626 1.001z"/></svg>