<!-- Generated by IcoMoon.io -->
<svg version="1.1" xmlns="http://www.w3.org/2000/svg" width="24" height="24" viewBox="0 0 24 24">
<title>check-mark</title>
<path d="M10.379 19.028c0.029 0.023 0.047 0.056 0.078 0.078 0.044 0.029 0.094 0.035 0.141 0.056 0.056 0.026 0.11 0.051 0.169 0.067 0.057 0.015 0.113 0.022 0.172 0.026 0.084 0.009 0.164 0.009 0.246-0.003 0.034-0.006 0.066-0.015 0.1-0.023 0.101-0.025 0.195-0.064 0.287-0.12 0.016-0.010 0.029-0.022 0.045-0.032 0.060-0.041 0.125-0.072 0.176-0.128 0.037-0.040 0.053-0.091 0.082-0.135 0.001-0.001 0.004-0.003 0.004-0.004l8.736-14.002c0.311-0.474 0.177-1.11-0.298-1.421s-1.11-0.177-1.421 0.298l-8.069 12.932-4.463-4.341c-0.416-0.386-1.064-0.361-1.45 0.056-0.384 0.416-0.359 1.066 0.057 1.45l5.369 5.223c0.010 0.010 0.025 0.013 0.038 0.023z"></path>
</svg>
