<!-- Generated by IcoMoon.io -->
<svg version="1.1" xmlns="http://www.w3.org/2000/svg" width="24" height="24" viewBox="0 0 24 24">
<title>chemical-hazard</title>
<path d="M4.817 15.233c-0.117-0.217-0.342-0.35-0.592-0.35-0.117 0-0.225 0.025-0.325 0.083l-2.2 1.225c-0.325 0.183-0.558 0.483-0.667 0.842-0.1 0.358-0.058 0.742 0.125 1.067l1.983 3.575c0.25 0.442 0.717 0.717 1.233 0.717 0.233 0 0.467-0.058 0.675-0.175l2.2-1.225c0.158-0.083 0.267-0.233 0.317-0.4 0.050-0.175 0.025-0.358-0.058-0.508l-2.692-4.85z"></path>
<path d="M13.367 16.558c0 0.902-0.604 1.633-1.35 1.633s-1.35-0.731-1.35-1.633c0-0.902 0.604-1.633 1.35-1.633s1.35 0.731 1.35 1.633z"></path>
<path d="M17.925 15.092c-0.083-0.283-0.267-0.517-0.525-0.667l-0.25-0.142v-0.033c0-0.408-0.042-0.817-0.108-1.208l-0.017-0.075 0.075 0.008c0.042 0.008 0.083 0.008 0.117 0.008 0.75 0 1.433-0.825 1.7-2.058l0.008-0.042 0.042-0.008c0.45-0.058 0.792-0.45 0.792-0.908v-0.375c0-0.458-0.342-0.85-0.8-0.908l-0.042-0.008-0.008-0.042c-0.242-1.075-0.8-1.833-1.442-1.983l-0.042-0.008v-0.042c-0.075-1.908-1.65-3.4-3.567-3.4h-0.733v-1.058c0-0.508-0.408-0.917-0.917-0.917h-0.392c-0.508 0-0.917 0.408-0.917 0.917v1.058h-0.733c-1.917 0-3.492 1.5-3.592 3.408v0.042l-0.042 0.008c-0.633 0.175-1.167 0.933-1.408 1.975l-0.008 0.042h-0.042c-0.475 0.042-0.842 0.442-0.842 0.908v0.392c0 0.467 0.367 0.867 0.833 0.908h0.042l0.008 0.042c0.267 1.225 0.95 2.050 1.692 2.050 0.025 0 0.058 0 0.083 0l0.075-0.008-0.008 0.075c-0.067 0.392-0.1 0.8-0.108 1.208v0.033l-0.25 0.142c-0.533 0.3-0.725 0.967-0.433 1.5l1.583 2.85c0.208 0.375 0.625 0.6 1.058 0.567l0.042 0.008 0.017 0.017c0.908 0.858 2 1.317 3.142 1.317 1.15 0 2.233-0.458 3.142-1.317l0.017-0.017h0.025c0.433 0.033 0.85-0.183 1.058-0.567l1.583-2.85c0.142-0.258 0.175-0.558 0.092-0.842zM7.8 11.983h-0.5c-0.7 0-1.275-0.575-1.275-1.275v-2.033c0-0.708 0.575-1.275 1.275-1.275h2.742c0.65 0 1.175 0.525 1.175 1.175-0.008 1.875-1.533 3.408-3.417 3.408zM12.017 19.475c-1.342 0-2.442-1.308-2.442-2.917s1.092-2.917 2.442-2.917c1.342 0 2.442 1.308 2.442 2.917s-1.1 2.917-2.442 2.917zM16.233 11.983c-1.883 0-3.408-1.533-3.408-3.417 0-0.65 0.525-1.175 1.175-1.175h2.742c0.7 0 1.275 0.575 1.275 1.275v2.033c0 0.708-0.575 1.283-1.275 1.283h-0.508z"></path>
<path d="M23 17.033c-0.1-0.358-0.342-0.658-0.667-0.842l-2.2-1.225c-0.1-0.050-0.208-0.083-0.325-0.083-0.242 0-0.475 0.133-0.592 0.342l-2.692 4.85c-0.183 0.325-0.067 0.733 0.258 0.917l2.2 1.225c0.208 0.117 0.442 0.175 0.675 0.175 0.508 0 0.983-0.275 1.233-0.717l1.983-3.575c0.183-0.325 0.225-0.708 0.125-1.067z"></path>
</svg>
