<svg xmlns="http://www.w3.org/2000/svg" viewBox="0 0 1024 1024"><path d="M205.511 671.289c-4.978-9.244-14.578-14.933-25.244-14.933-4.978 0-9.6 1.067-13.867 3.556l-93.867 52.267c-13.867 7.822-23.822 20.622-28.444 35.911-4.267 15.289-2.489 31.644 5.333 45.511l84.622 152.533c10.667 18.844 30.578 30.578 52.622 30.578 9.956 0 19.911-2.489 28.8-7.467l93.867-52.267c6.756-3.556 11.378-9.956 13.511-17.067a28.594 28.594 0 0 0-2.489-21.689L205.511 671.289zm364.8 56.533c0 38.488-25.788 69.689-57.6 69.689s-57.6-31.201-57.6-69.689c0-38.488 25.788-69.689 57.6-69.689s57.6 31.201 57.6 69.689zM764.8 665.244c-3.556-12.089-11.378-22.044-22.4-28.444l-10.667-6.044v-1.422c0-17.422-1.778-34.844-4.622-51.556l-.711-3.2 3.2.356c1.778.356 3.556.356 4.978.356 32 0 61.156-35.2 72.533-87.822l.356-1.778 1.778-.356c19.2-2.489 33.778-19.2 33.778-38.756v-16c0-19.556-14.578-36.267-34.133-38.756l-1.778-.356-.356-1.778c-10.311-45.867-34.133-78.222-61.511-84.622l-1.778-.356v-1.778c-3.2-81.422-70.4-145.067-152.178-145.067H560v-45.156a38.998 38.998 0 0 0-39.111-39.111h-16.711a38.998 38.998 0 0 0-39.111 39.111v45.156h-31.289c-81.778 0-148.978 64-153.244 145.422v1.778l-1.778.356c-27.022 7.467-49.778 39.822-60.089 84.267l-.356 1.778h-1.778c-20.267 1.778-35.911 18.844-35.911 38.756v16.711c0 19.911 15.644 36.978 35.556 38.756h1.778l.356 1.778c11.378 52.267 40.533 87.467 72.178 87.467h3.556l3.2-.356-.356 3.2c-2.844 16.711-4.267 34.133-4.622 51.556v1.422l-10.667 6.044c-22.756 12.8-30.933 41.244-18.489 64l67.556 121.6c8.889 16 26.667 25.6 45.156 24.178l1.778.356.711.711c38.756 36.622 85.333 56.178 134.044 56.178 49.067 0 95.289-19.556 134.044-56.178l.711-.711h1.067c18.489 1.422 36.267-7.822 45.156-24.178l67.556-121.6c6.044-11.022 7.467-23.822 3.911-35.911zm-432-132.622h-21.333c-29.867 0-54.4-24.533-54.4-54.4v-86.756c0-30.222 24.533-54.4 54.4-54.4h116.978c27.733 0 50.133 22.4 50.133 50.133-.356 80-65.422 145.422-145.778 145.422zm179.911 319.644c-57.244 0-104.178-55.822-104.178-124.444s46.578-124.444 104.178-124.444c57.244 0 104.178 55.822 104.178 124.444s-46.933 124.444-104.178 124.444zm179.911-319.644c-80.356 0-145.422-65.422-145.422-145.778 0-27.733 22.4-50.133 50.133-50.133h116.978c29.867 0 54.4 24.533 54.4 54.4v86.756c0 30.222-24.533 54.756-54.4 54.756h-21.689zm288.711 215.467c-4.267-15.289-14.578-28.089-28.444-35.911l-93.867-52.267c-4.267-2.133-8.889-3.556-13.867-3.556-10.311 0-20.267 5.689-25.244 14.578L705.067 877.866c-7.822 13.867-2.844 31.289 11.022 39.111l93.867 52.267c8.889 4.978 18.844 7.467 28.8 7.467 21.689 0 41.956-11.733 52.622-30.578L976 793.6c7.822-13.867 9.6-30.222 5.333-45.511z"/></svg>