<svg xmlns="http://www.w3.org/2000/svg" viewBox="0 0 1024 1024"><path d="M512 777.955c-48.711 0-92.8-13.156-132.622-39.111-39.822-26.311-69.689-59.733-89.6-100.978L93.511 294.399c-40.889 73.244-59.733 155.378-59.733 238.933 0 119.467 38.756 224 116.622 312.889s174.578 142.222 290.489 159.644l138.667-240c-13.867 4.267-36.978 12.089-67.556 12.089zM361.6 339.911c44.089-34.133 94.222-45.867 150.4-45.867h411.022c-42.311-72.178-99.911-133.333-172.8-175.644S598.044 54.756 512 54.756c-74.667 0-144.356 16-209.067 47.644s-124.8 77.867-168.533 137.244l138.667 233.6c13.511-53.333 44.444-98.844 88.533-133.333zm592.711 14.222H676.267c48.711 48.711 80.356 110.933 80.356 179.2.356 50.133-14.578 98.844-43.022 140.089l-196.267 338.133c130.844-1.422 242.133-48.711 334.222-141.867 92.089-93.511 138.311-205.511 138.311-336.356.356-61.156-9.956-125.156-35.556-179.2zM691.2 533.333c0 98.969-80.231 179.2-179.2 179.2s-179.2-80.231-179.2-179.2 80.231-179.2 179.2-179.2 179.2 80.231 179.2 179.2z"/></svg>