<!-- Generated by IcoMoon.io -->
<svg version="1.1" xmlns="http://www.w3.org/2000/svg" width="24" height="24" viewBox="0 0 24 24">
<title>chrome</title>
<path d="M12 17.733c-1.142 0-2.175-0.308-3.108-0.917-0.933-0.617-1.633-1.4-2.1-2.367l-4.6-8.050c-0.958 1.717-1.4 3.642-1.4 5.6 0 2.8 0.908 5.25 2.733 7.333s4.092 3.333 6.808 3.742l3.25-5.625c-0.325 0.1-0.867 0.283-1.583 0.283z"></path>
<path d="M8.475 7.467c1.033-0.8 2.208-1.075 3.525-1.075h9.633c-0.992-1.692-2.342-3.125-4.050-4.117s-3.567-1.492-5.583-1.492c-1.75 0-3.383 0.375-4.9 1.117s-2.925 1.825-3.95 3.217l3.25 5.475c0.317-1.25 1.042-2.317 2.075-3.125z"></path>
<path d="M22.367 7.8h-6.517c1.142 1.142 1.883 2.6 1.883 4.2 0.008 1.175-0.342 2.317-1.008 3.283l-4.6 7.925c3.067-0.033 5.675-1.142 7.833-3.325 2.158-2.192 3.242-4.817 3.242-7.883 0.008-1.433-0.233-2.933-0.833-4.2z"></path>
<path d="M16.2 12c0 2.32-1.88 4.2-4.2 4.2s-4.2-1.88-4.2-4.2c0-2.32 1.88-4.2 4.2-4.2s4.2 1.88 4.2 4.2z"></path>
</svg>
