<!-- Generated by IcoMoon.io -->
<svg version="1.1" xmlns="http://www.w3.org/2000/svg" width="24" height="24" viewBox="0 0 24 24">
<title>church</title>
<path d="M7.959 1.453v21.802h8.17v-17.344c0-0.239-0.117-0.459-0.314-0.591l-6.792-4.458c-0.459-0.305-1.064 0.033-1.064 0.591zM9.605 9.211c0-0.211 0.169-0.389 0.38-0.389h1.439v-1.275c0-0.211 0.169-0.389 0.38-0.389h0.478c0.211 0 0.38 0.173 0.38 0.389v1.28h1.439c0.211 0 0.38 0.173 0.38 0.389v0.544c0 0.211-0.169 0.389-0.38 0.389h-1.439v3.539c0 0.211-0.169 0.389-0.38 0.389h-0.478c-0.211 0-0.38-0.173-0.38-0.389v-3.548h-1.439c-0.211 0-0.38-0.173-0.38-0.389v-0.539z"></path>
<path d="M23.822 12.366v1.144l-7.111-2.573v-1.622l6.68 2.395c0.258 0.112 0.431 0.37 0.431 0.656z"></path>
<path d="M23.822 22.552c0 0.389-0.309 0.703-0.689 0.703h-1.777v-5.55c0-0.38-0.286-0.703-0.656-0.722-0.398-0.019-0.722 0.305-0.722 0.703v5.569h-3.267v-10.8l7.111 2.573v7.523z"></path>
<path d="M0.698 11.714l6.727-2.395v1.622l-7.163 2.569v-1.144c0-0.286 0.173-0.544 0.436-0.652z"></path>
<path d="M7.425 23.255h-3.314v-5.55c0-0.38-0.286-0.703-0.656-0.722-0.398-0.019-0.722 0.305-0.722 0.703v5.569h-1.781c-0.38 0-0.689-0.314-0.689-0.703v-7.528l7.158-2.573v10.805z"></path>
</svg>
