<svg xmlns="http://www.w3.org/2000/svg" viewBox="0 0 1024 1024"><path d="M57.6 219.733h32v-51.2c0-9.6 6.4-16 16-16h99.2c9.6 0 19.2 6.4 19.2 16v48h32c9.6 0 16 6.4 16 16v262.4h28.8v-99.2c0-9.6 6.4-16 16-16H384c9.6 0 16 6.4 16 16v99.2h35.2v-326.4c0-9.6 6.4-16 16-16h48v-99.2c0-9.6 6.4-16 16-16h198.4c9.6 0 16 6.4 16 16v99.2h48c9.6 0 16 6.4 16 16v428.8h32v-19.2c0-9.6 6.4-16 16-16h99.2c9.6 0 16 6.4 16 16v19.2h16c9.6 0 16 6.4 16 16v393.6c0 9.6-6.4 16-16 16H57.6c-9.6 0-16-6.4-16-16v-771.2c0-9.6 6.4-16 16-16zm851.2 729.6H960v-32h-48c-9.6 0-16 6.4-16 16-3.2 9.6 3.2 16 12.8 16zm0-64H960v-32h-48c-9.6 0-16 6.4-16 16-3.2 6.4 3.2 16 12.8 16zm0-67.2H960v-32h-48c-9.6 0-16 6.4-16 16-3.2 9.6 3.2 16 12.8 16zm0-67.2h48v-32h-48c-9.6 0-16 6.4-16 16s6.4 16 16 16zm0-64h48v-32h-48c-9.6 0-16 6.4-16 16s6.4 16 16 16zm-393.6-470.4c0-3.2-3.2-9.6-9.6-9.6-3.2 0-9.6 3.2-9.6 9.6v268.8c0 3.2 3.2 9.6 9.6 9.6 3.2 0 9.6-3.2 9.6-9.6v-268.8zm73.6-137.6c0-3.2-3.2-9.6-9.6-9.6s-9.6 3.2-9.6 9.6v70.4c0 3.2 3.2 9.6 9.6 9.6s9.6-3.2 9.6-9.6v-70.4zm0 137.6c0-3.2-3.2-9.6-9.6-9.6s-9.6 3.2-9.6 9.6v268.8c0 3.2 3.2 9.6 9.6 9.6s9.6-3.2 9.6-9.6v-268.8zm169.6 713.6c0 9.6 6.4 16 16 16s16-6.4 16-16v-32c0-9.6-6.4-16-16-16s-16 6.4-16 16v32zm0-99.2c0 9.6 6.4 16 16 16s16-6.4 16-16v-32c0-9.6-6.4-16-16-16s-16 6.4-16 16v32zm0-99.2c0 9.6 6.4 16 16 16s16-6.4 16-16v-32c0-9.6-6.4-16-16-16s-16 6.4-16 16v32zm-22.4-160v-355.2c0-3.2-3.2-9.6-9.6-9.6s-9.6 3.2-9.6 9.6v355.2c0 3.2 3.2 9.6 9.6 9.6s9.6-3.2 9.6-9.6zm-44.8 358.4c0 9.6 6.4 16 16 16s16-6.4 16-16v-32c0-9.6-6.4-16-16-16s-16 6.4-16 16v32zm0-99.2c0 9.6 6.4 16 16 16s16-6.4 16-16v-32c0-9.6-6.4-16-16-16s-16 6.4-16 16v32zm0-99.2c0 9.6 6.4 16 16 16s16-6.4 16-16v-32c0-9.6-6.4-16-16-16s-16 6.4-16 16v32zm-44.8-246.4c0 3.2 3.2 9.6 9.6 9.6s9.6-3.2 9.6-9.6v-268.8c0-3.2-3.2-9.6-9.6-9.6s-9.6 3.2-9.6 9.6v268.8zm0-336c0 3.2 3.2 9.6 9.6 9.6s9.6-3.2 9.6-9.6v-70.4c0-3.2-3.2-9.6-9.6-9.6s-9.6 3.2-9.6 9.6v70.4zM272 990.933h48v-416c0-12.8 9.6-22.4 22.4-22.4s22.4 9.6 22.4 22.4v416h28.8v-416c0-12.8 9.6-22.4 22.4-22.4s22.4 9.6 22.4 22.4v416h28.8v-416c0-12.8 9.6-22.4 22.4-22.4s22.4 12.8 22.4 25.6v416h32v-416c0-12.8 9.6-22.4 22.4-22.4s22.4 9.6 22.4 22.4v416h48v-467.2H272v464zm-102.4-64h57.6v-28.8h-57.6v28.8zm0-86.4h57.6v-28.8h-57.6v28.8zm0-86.4h57.6v-28.8h-57.6v28.8zm0-86.4h57.6v-28.8h-57.6v28.8zm0-86.4h57.6v-28.8h-57.6v28.8zm0-86.4h57.6v-28.8h-57.6v28.8zm0-86.4h57.6v-28.8h-57.6v28.8zm0-86.4h57.6v-28.8h-57.6v28.8zm-83.2 604.8H144v-28.8H86.4v28.8zm0-86.4H144v-28.8H86.4v28.8zm0-86.4H144v-28.8H86.4v28.8zm0-86.4H144v-28.8H86.4v28.8zm0-86.4H144v-28.8H86.4v28.8zm0-86.4H144v-28.8H86.4v28.8zm0-86.4H144v-28.8H86.4v28.8zm0-86.4H144v-28.8H86.4v28.8z"/></svg>