<!-- Generated by IcoMoon.io -->
<svg version="1.1" xmlns="http://www.w3.org/2000/svg" width="24" height="24" viewBox="0 0 24 24">
<title>city</title>
<path d="M1.35 4.65h0.75v-1.2c0-0.225 0.15-0.375 0.375-0.375h2.325c0.225 0 0.45 0.15 0.45 0.375v1.125h0.75c0.225 0 0.375 0.15 0.375 0.375v6.15h0.675v-2.325c0-0.225 0.15-0.375 0.375-0.375h1.575c0.225 0 0.375 0.15 0.375 0.375v2.325h0.825v-7.65c0-0.225 0.15-0.375 0.375-0.375h1.125v-2.325c0-0.225 0.15-0.375 0.375-0.375h4.65c0.225 0 0.375 0.15 0.375 0.375v2.325h1.125c0.225 0 0.375 0.15 0.375 0.375v10.050h0.75v-0.45c0-0.225 0.15-0.375 0.375-0.375h2.325c0.225 0 0.375 0.15 0.375 0.375v0.45h0.375c0.225 0 0.375 0.15 0.375 0.375v9.225c0 0.225-0.15 0.375-0.375 0.375h-9.75c0 0 0 0 0 0s0 0 0 0h-1.65c0 0 0 0 0 0s0 0 0 0h-1.65c0 0 0 0 0 0s0 0 0 0h-1.65c0 0 0 0 0 0s0 0 0 0h-6.75c-0.225 0-0.375-0.15-0.375-0.375v-18.075c0-0.225 0.15-0.375 0.375-0.375zM21.3 21.75h1.2v-0.75h-1.125c-0.225 0-0.375 0.15-0.375 0.375-0.075 0.225 0.075 0.375 0.3 0.375zM21.3 20.25h1.2v-0.75h-1.125c-0.225 0-0.375 0.15-0.375 0.375-0.075 0.15 0.075 0.375 0.3 0.375zM21.3 18.675h1.2v-0.75h-1.125c-0.225 0-0.375 0.15-0.375 0.375-0.075 0.225 0.075 0.375 0.3 0.375zM21.3 17.1h1.125v-0.75h-1.125c-0.225 0-0.375 0.15-0.375 0.375s0.15 0.375 0.375 0.375zM21.3 15.6h1.125v-0.75h-1.125c-0.225 0-0.375 0.15-0.375 0.375s0.15 0.375 0.375 0.375zM12.075 4.575c0-0.075-0.075-0.225-0.225-0.225-0.075 0-0.225 0.075-0.225 0.225v6.3c0 0.075 0.075 0.225 0.225 0.225 0.075 0 0.225-0.075 0.225-0.225v-6.3zM13.8 1.35c0-0.075-0.075-0.225-0.225-0.225s-0.225 0.075-0.225 0.225v1.65c0 0.075 0.075 0.225 0.225 0.225s0.225-0.075 0.225-0.225v-1.65zM13.8 4.575c0-0.075-0.075-0.225-0.225-0.225s-0.225 0.075-0.225 0.225v6.3c0 0.075 0.075 0.225 0.225 0.225s0.225-0.075 0.225-0.225v-6.3zM17.775 21.3c0 0.225 0.15 0.375 0.375 0.375s0.375-0.15 0.375-0.375v-0.75c0-0.225-0.15-0.375-0.375-0.375s-0.375 0.15-0.375 0.375v0.75zM17.775 18.975c0 0.225 0.15 0.375 0.375 0.375s0.375-0.15 0.375-0.375v-0.75c0-0.225-0.15-0.375-0.375-0.375s-0.375 0.15-0.375 0.375v0.75zM17.775 16.65c0 0.225 0.15 0.375 0.375 0.375s0.375-0.15 0.375-0.375v-0.75c0-0.225-0.15-0.375-0.375-0.375s-0.375 0.15-0.375 0.375v0.75zM17.25 12.9v-8.325c0-0.075-0.075-0.225-0.225-0.225s-0.225 0.075-0.225 0.225v8.325c0 0.075 0.075 0.225 0.225 0.225s0.225-0.075 0.225-0.225zM16.2 21.3c0 0.225 0.15 0.375 0.375 0.375s0.375-0.15 0.375-0.375v-0.75c0-0.225-0.15-0.375-0.375-0.375s-0.375 0.15-0.375 0.375v0.75zM16.2 18.975c0 0.225 0.15 0.375 0.375 0.375s0.375-0.15 0.375-0.375v-0.75c0-0.225-0.15-0.375-0.375-0.375s-0.375 0.15-0.375 0.375v0.75zM16.2 16.65c0 0.225 0.15 0.375 0.375 0.375s0.375-0.15 0.375-0.375v-0.75c0-0.225-0.15-0.375-0.375-0.375s-0.375 0.15-0.375 0.375v0.75zM15.15 10.875c0 0.075 0.075 0.225 0.225 0.225s0.225-0.075 0.225-0.225v-6.3c0-0.075-0.075-0.225-0.225-0.225s-0.225 0.075-0.225 0.225v6.3zM15.15 3c0 0.075 0.075 0.225 0.225 0.225s0.225-0.075 0.225-0.225v-1.65c0-0.075-0.075-0.225-0.225-0.225s-0.225 0.075-0.225 0.225v1.65zM6.375 22.725h1.125v-9.75c0-0.3 0.225-0.525 0.525-0.525s0.525 0.225 0.525 0.525v9.75h0.675v-9.75c0-0.3 0.225-0.525 0.525-0.525s0.525 0.225 0.525 0.525v9.75h0.675v-9.75c0-0.3 0.225-0.525 0.525-0.525s0.525 0.3 0.525 0.6v9.75h0.75v-9.75c0-0.3 0.225-0.525 0.525-0.525s0.525 0.225 0.525 0.525v9.75h1.125v-10.95h-8.55v10.875zM3.975 21.225h1.35v-0.675h-1.35v0.675zM3.975 19.2h1.35v-0.675h-1.35v0.675zM3.975 17.175h1.35v-0.675h-1.35v0.675zM3.975 15.15h1.35v-0.675h-1.35v0.675zM3.975 13.125h1.35v-0.675h-1.35v0.675zM3.975 11.1h1.35v-0.675h-1.35v0.675zM3.975 9.075h1.35v-0.675h-1.35v0.675zM3.975 7.050h1.35v-0.675h-1.35v0.675zM2.025 21.225h1.35v-0.675h-1.35v0.675zM2.025 19.2h1.35v-0.675h-1.35v0.675zM2.025 17.175h1.35v-0.675h-1.35v0.675zM2.025 15.15h1.35v-0.675h-1.35v0.675zM2.025 13.125h1.35v-0.675h-1.35v0.675zM2.025 11.1h1.35v-0.675h-1.35v0.675zM2.025 9.075h1.35v-0.675h-1.35v0.675zM2.025 7.050h1.35v-0.675h-1.35v0.675z"></path>
</svg>
