<!-- Generated by IcoMoon.io -->
<svg version="1.1" xmlns="http://www.w3.org/2000/svg" width="24" height="24" viewBox="0 0 24 24">
<title>clipboard</title>
<path d="M8.16 0.927h7.769v2.59h-7.769v-2.59z"></path>
<path d="M20.394 3.695c0-0.714-0.536-1.25-1.25-1.25h-1.965v1.25c0 0.714-0.536 1.25-1.25 1.25h-7.769c-0.714 0-1.25-0.536-1.25-1.25v-1.25h-1.965c-0.714 0-1.34 0.625-1.34 1.25v16.789c0 0.714 0.536 1.25 1.25 1.25h10.27v-3.84c0-0.714 0.536-1.25 1.25-1.25h3.84v-12.949zM12.179 15.929h-5.805c-0.536 0-0.982-0.357-0.982-0.714s0.447-0.714 0.982-0.714h5.805c0.536 0 0.982 0.357 0.982 0.714s-0.447 0.714-0.982 0.714zM17.537 12.447h-11.163c-0.536 0-0.982-0.357-0.982-0.804s0.447-0.804 0.982-0.804h11.163c0.536 0 0.982 0.357 0.982 0.804s-0.447 0.804-0.982 0.804zM17.537 8.696h-11.163c-0.536 0-0.982-0.357-0.982-0.804s0.447-0.804 0.982-0.804h11.163c0.536 0 0.982 0.357 0.982 0.804s-0.447 0.804-0.982 0.804z"></path>
<path d="M16.733 18.072v3.929l3.84-3.929z"></path>
</svg>
