<svg xmlns="http://www.w3.org/2000/svg" viewBox="0 0 1024 1024"><path d="M348.164 60.869h331.483v110.494H348.164V60.869zm521.994 118.118c0-30.478-22.863-53.341-53.341-53.341h-83.828v53.341c0 30.478-22.863 53.341-53.341 53.341H348.165c-30.478 0-53.341-22.863-53.341-53.341v-53.341h-83.828c-30.478 0-57.153 26.675-57.153 53.341v716.316c0 30.478 22.863 53.341 53.341 53.341h438.174V784.808c0-30.478 22.863-53.341 53.341-53.341h163.836V178.986zM519.624 700.981H271.96c-22.863 0-41.914-15.239-41.914-30.478s19.051-30.478 41.914-30.478h247.664c22.863 0 41.914 15.239 41.914 30.478s-19.051 30.478-41.914 30.478zm228.604-148.597H271.952c-22.863 0-41.914-15.239-41.914-34.29s19.051-34.29 41.914-34.29h476.276c22.863 0 41.914 15.239 41.914 34.29s-19.051 34.29-41.914 34.29zm0-160.024H271.952c-22.863 0-41.914-15.239-41.914-34.29s19.051-34.29 41.914-34.29h476.276c22.863 0 41.914 15.239 41.914 34.29s-19.051 34.29-41.914 34.29zm-34.29 400.064v167.648l163.836-167.648z"/></svg>