<!-- Generated by IcoMoon.io -->
<svg version="1.1" xmlns="http://www.w3.org/2000/svg" width="24" height="24" viewBox="0 0 24 24">
<title>clock</title>
<path d="M12 2.925c-5.025 0-9.075 4.050-9.075 9.075s4.050 9.075 9.075 9.075 9.075-4.050 9.075-9.075-4.050-9.075-9.075-9.075zM15.825 15c-0.15 0.15-0.45 0.225-0.675 0.075l-2.625-2.1c-0.15 0.075-0.3 0.15-0.525 0.15-0.6 0-1.125-0.525-1.125-1.125 0-0.45 0.3-0.825 0.675-0.975v-5.7c0-0.225 0.225-0.45 0.45-0.45s0.45 0.225 0.45 0.45v5.625c0.375 0.15 0.675 0.525 0.675 0.975 0 0.075 0 0.15 0 0.225l2.625 2.1c0.225 0.225 0.225 0.525 0.075 0.75z"></path>
<path d="M12.375 12c0 0.207-0.168 0.375-0.375 0.375s-0.375-0.168-0.375-0.375c0-0.207 0.168-0.375 0.375-0.375s0.375 0.168 0.375 0.375z"></path>
</svg>
