<svg xmlns="http://www.w3.org/2000/svg" viewBox="0 0 1024 1024"><path d="M512 146.133c-214.4 0-387.2 172.8-387.2 387.2s172.8 387.2 387.2 387.2 387.2-172.8 387.2-387.2-172.8-387.2-387.2-387.2zm163.2 515.2c-6.4 6.4-19.2 9.6-28.8 3.2l-112-89.6c-6.4 3.2-12.8 6.4-22.4 6.4-25.6 0-48-22.4-48-48 0-19.2 12.8-35.2 28.8-41.6v-243.2c0-9.6 9.6-19.2 19.2-19.2s19.2 9.6 19.2 19.2v240c16 6.4 28.8 22.4 28.8 41.6v9.6l112 89.6c9.6 9.6 9.6 22.4 3.2 32zm-147.2-128c0 8.837-7.163 16-16 16s-16-7.163-16-16 7.163-16 16-16 16 7.163 16 16z"/></svg>