<svg xmlns="http://www.w3.org/2000/svg" viewBox="0 0 1024 1024"><path d="M543.467 92.801c-260.669 0-471.998 211.329-471.998 471.998s211.329 471.998 471.998 471.998 471.998-211.329 471.998-471.998S804.136 92.801 543.467 92.801zm218.692 297.8L586.764 565.996l155.193 173.003c12.272 12.272 12.272 32.222 0 44.494s-32.222 12.272-44.494 0L542.27 610.49 369.267 783.493c-12.272 12.272-32.222 12.272-44.494 0s-12.272-32.222 0-44.494l175.395-175.395-155.193-173.003c-12.272-12.272-12.272-32.222 0-44.494s32.222-12.272 44.494 0L544.662 519.11l173.003-173.003c12.272-12.272 32.222-12.272 44.494 0s12.272 32.222 0 44.494z"/></svg>