<!-- Generated by IcoMoon.io -->
<svg version="1.1" xmlns="http://www.w3.org/2000/svg" width="24" height="24" viewBox="0 0 24 24">
<title>close-line</title>
<path d="M12.75 1.5c-6.213 0-11.25 5.037-11.25 11.25s5.037 11.25 11.25 11.25 11.25-5.037 11.25-11.25-5.037-11.25-11.25-11.25zM12.75 22.5c-5.376 0-9.75-4.374-9.75-9.75s4.374-9.75 9.75-9.75 9.75 4.374 9.75 9.75-4.374 9.75-9.75 9.75zM16.902 7.538l-4.123 4.124-3.698-4.124c-0.293-0.293-0.768-0.293-1.060 0s-0.293 0.768 0 1.061l3.699 4.123-4.18 4.181c-0.293 0.293-0.293 0.768 0 1.061s0.768 0.293 1.060 0l4.124-4.123 3.699 4.123c0.293 0.293 0.768 0.293 1.061 0s0.293-0.768 0-1.061l-3.701-4.123 4.181-4.181c0.293-0.293 0.293-0.768 0-1.061s-0.768-0.293-1.061 0z"></path>
</svg>
