<!-- Generated by IcoMoon.io -->
<svg version="1.1" xmlns="http://www.w3.org/2000/svg" width="24" height="24" viewBox="0 0 24 24">
<title>close-mark</title>
<path d="M6.432 17.568c0.312 0.312 0.82 0.312 1.133 0l4.435-4.435 4.435 4.435c0.312 0.312 0.82 0.312 1.133 0s0.312-0.82 0-1.133l-4.435-4.435 4.435-4.435c0.312-0.312 0.312-0.82 0-1.133s-0.82-0.312-1.133 0l-4.435 4.435-4.435-4.435c-0.312-0.312-0.82-0.312-1.133 0s-0.312 0.82 0 1.133l4.435 4.435-4.435 4.435c-0.312 0.312-0.312 0.82 0 1.133z"></path>
</svg>
