<!-- Generated by IcoMoon.io -->
<svg version="1.1" xmlns="http://www.w3.org/2000/svg" width="24" height="24" viewBox="0 0 24 24">
<title>close-fill</title>
<path d="M12.738 1.675c-6.109 0-11.062 4.953-11.062 11.062s4.953 11.062 11.062 11.062 11.062-4.953 11.062-11.062-4.953-11.062-11.062-11.062zM17.863 8.655l-4.111 4.111 3.637 4.055c0.288 0.288 0.288 0.755 0 1.043s-0.755 0.288-1.043 0l-3.637-4.055-4.055 4.055c-0.288 0.288-0.755 0.288-1.043 0s-0.288-0.755 0-1.043l4.111-4.111-3.637-4.055c-0.288-0.288-0.288-0.755 0-1.043s0.755-0.288 1.043 0l3.637 4.055 4.055-4.055c0.288-0.288 0.755-0.288 1.043 0s0.288 0.755 0 1.043z"></path>
</svg>
