<svg xmlns="http://www.w3.org/2000/svg" viewBox="0 0 1024 1024"><path d="M866.335 320.733h-21.26c-28.345-99.215-116.93-170.08-226.775-170.08-74.41 0-141.735 35.435-184.255 92.125-17.715-7.085-38.975-7.085-56.695-7.085-81.495 0-148.82 49.605-177.165 116.93-17.715-7.085-35.435-10.63-56.695-10.63-77.955 0-138.19 63.78-138.19 138.19s56.695 134.645 127.56 138.19h269.295l21.26 85.04H356.09c-28.345 0-53.15 21.26-53.15 49.605 0 14.175 7.085 28.345 17.715 35.435L508.45 962.078c10.63 10.63 24.805 14.175 35.435 14.175 14.175 0 28.345-3.545 35.435-14.175l187.795-173.625c10.63-10.63 17.715-21.26 17.715-35.435 0-28.345-24.805-49.605-53.15-49.605h-67.325l21.26-85.04H859.24c81.495 0 148.82-67.325 148.82-148.82 7.085-81.495-60.235-148.82-141.735-148.82zm-219.69 297.64l-35.435 127.56h124.015c7.085 0 10.63 3.545 10.63 7.085 0 0 0 3.545-3.545 3.545L554.515 930.188s-3.545 3.545-7.085 3.545-7.085-3.545-7.085-3.545L352.55 756.563l-3.545-3.545c0-3.545 3.545-7.085 10.63-7.085H483.65l-35.435-127.56-49.605-180.71h297.64l-49.605 180.71z"/></svg>