<svg xmlns="http://www.w3.org/2000/svg" viewBox="0 0 1024 1024"><path d="M524.8 910.933v-291.2c0-9.6-9.6-19.2-19.2-19.2s-19.2 9.6-19.2 19.2v291.2c-22.4 6.4-38.4 28.8-38.4 51.2 0 28.8 25.6 54.4 54.4 54.4s54.4-25.6 54.4-54.4c3.2-22.4-12.8-41.6-32-51.2zm-316.8 0h99.2c60.8 0 99.2-41.6 99.2-105.6v-144c0-9.6-6.4-16-16-16s-16 6.4-16 16v144c0 28.8-9.6 73.6-67.2 73.6H208c-6.4-22.4-28.8-38.4-51.2-38.4-28.8 0-54.4 25.6-54.4 54.4s22.4 54.4 54.4 54.4c25.6 0 44.8-16 51.2-38.4zm393.6-252.8v144c0 64 38.4 105.6 99.2 105.6H800c6.4 22.4 28.8 38.4 51.2 38.4 28.8 0 54.4-25.6 54.4-54.4s-25.6-54.4-54.4-54.4c-25.6 0-44.8 16-51.2 38.4h-96c-60.8 0-67.2-44.8-67.2-73.6v-144c0-9.6-6.4-16-16-16s-19.2 9.6-19.2 16zm192 96h-51.2c-16 0-28.8-12.8-28.8-28.8s12.8-28.8 28.8-28.8h51.2c22.4 0 57.6-6.4 89.6-22.4 38.4-19.2 60.8-51.2 67.2-89.6s0-73.6-22.4-102.4c-22.4-32-57.6-54.4-96-60.8 0 0-9.6-3.2-12.8-3.2-19.2-3.2-19.2-19.2-16-28.8s6.4-12.8 6.4-12.8 9.6-19.2 9.6-41.6c0-28.8-12.8-51.2-38.4-70.4-67.2-48-131.2 0-131.2 0s-3.2 3.2-12.8 9.6c-9.6 6.4-22.4 0-25.6-3.2s-6.4-12.8-6.4-12.8-16-28.8-51.2-57.6c-44.8-35.2-96-48-150.4-41.6-60.8 6.4-112 35.2-140.8 76.8-25.6 35.2-35.2 73.6-28.8 118.4v3.2c3.2 16 0 22.4-16 25.6l-6.4 3.2s-35.2 12.8-73.6 41.6c-41.6 28.8-67.2 73.6-67.2 124.8 0 41.6 19.2 70.4 38.4 89.6 32 32 76.8 51.2 121.6 51.2h44.8c16 0 28.8 12.8 28.8 28.8s-12.8 28.8-28.8 28.8h-44.8c-60.8 0-121.6-25.6-163.2-70.4-35.2-38.4-54.4-83.2-54.4-131.2 3.2-70.4 35.2-131.2 92.8-176 25.6-19.2 48-32 67.2-41.6-3.2-48 9.6-96 41.6-137.6 41.6-54.4 105.6-89.6 182.4-99.2 73.6-9.6 140.8 6.4 198.4 54.4 19.2 16 35.2 35.2 48 48 9.6-3.2 22.4-9.6 35.2-12.8 35.2-9.6 86.4-9.6 140.8 28.8s67.2 89.6 64 124.8c0 12.8-3.2 22.4-3.2 32 41.6 12.8 76.8 41.6 102.4 73.6 32 41.6 41.6 92.8 32 147.2-9.6 57.6-41.6 102.4-96 131.2-57.6 28.8-108.8 32-124.8 32z"/></svg>