<!-- Generated by IcoMoon.io -->
<svg version="1.1" xmlns="http://www.w3.org/2000/svg" width="24" height="24" viewBox="0 0 24 24">
<title>cloud-network</title>
<path d="M13.2 7.2c-1.2 0-2.3 0.8-2.7 1.9-0.3-0.1-0.5-0.2-0.7-0.2-1 0-1.7 0.8-1.7 1.7 0 0 0 0 0 0-1.1 0.1-2 1.1-2 2.2 0 1.2 1 2.2 2.2 2.2h7.4c1.2 0 2.2-1 2.2-2.2 0-1.1-0.8-2-1.8-2.2 0-0.2 0.1-0.4 0.1-0.5 0-1.6-1.4-2.9-3-2.9z"></path>
<path d="M6.6 19c-0.2 0-0.4 0-0.6 0.1l0.1-0.1-3.5-6.3-0.1 0.1c0.4-0.3 0.6-0.7 0.6-1.2s-0.3-1-0.6-1.2l0.1 0.1 3.5-6.3-0.1-0.1c0.2 0.1 0.4 0.1 0.6 0.1 0.8 0 1.4-0.6 1.4-1.4s-0.6-1.5-1.4-1.5c-0.9 0-1.5 0.7-1.5 1.5 0 0.5 0.3 1 0.6 1.2l-0.1-0.1-3.5 6.3 0.1 0.1c-0.2-0.1-0.4-0.1-0.6-0.1-0.8 0-1.5 0.7-1.5 1.5s0.7 1.5 1.5 1.5c0.2 0 0.4 0 0.6-0.1l-0.1 0.1 3.5 6.3 0.1-0.1c-0.4 0.3-0.6 0.7-0.6 1.2 0 0.8 0.7 1.5 1.5 1.5 0.8-0.1 1.4-0.8 1.4-1.6s-0.6-1.5-1.4-1.5z"></path>
<path d="M22.3 10.2c-0.2 0-0.4 0-0.6 0.1l0.1-0.1-3.5-6.3-0.1 0.1c0.4-0.3 0.6-0.7 0.6-1.2 0-0.8-0.7-1.5-1.5-1.5s-1.4 0.7-1.4 1.5c0 0.8 0.7 1.5 1.5 1.5 0.2 0 0.4 0 0.6-0.1l-0.1 0.1 3.5 6.3 0.1-0.1c-0.4 0.3-0.6 0.7-0.6 1.2s0.3 1 0.6 1.2l-0.1-0.1-3.5 6.3 0.1 0.1c-0.2-0.1-0.4-0.1-0.6-0.1-0.8 0-1.5 0.7-1.5 1.5s0.7 1.5 1.5 1.5 1.5-0.7 1.5-1.5c0-0.5-0.3-1-0.6-1.2l0.1 0.1 3.5-6.3-0.2-0.2c0.2 0.1 0.4 0.1 0.6 0.1 0.8 0 1.5-0.7 1.5-1.5s-0.7-1.4-1.5-1.4z"></path>
<path d="M8 2.5v0.6h7.9v-0.6z"></path>
<path d="M8 20.2v0.6h7.9v-0.6z"></path>
</svg>
