<!-- Generated by IcoMoon.io -->
<svg version="1.1" xmlns="http://www.w3.org/2000/svg" width="24" height="24" viewBox="0 0 24 24">
<title>cloud-download</title>
<path d="M20.305 7.017c-0.166 0-0.332 0-0.498 0-0.664-2.325-2.741-3.986-5.315-3.986-1.744 0-3.322 0.831-4.318 2.159-0.415-0.166-0.913-0.166-1.329-0.166-1.91 0-3.488 1.163-4.152 2.741-0.415-0.166-0.831-0.249-1.329-0.249-1.827 0-3.239 1.495-3.239 3.239s1.329 3.156 2.99 3.239c0 0 0.083 0 0.083 0h6.229l0.498 1.993h-1.578c-0.664 0-1.246 0.498-1.246 1.163 0 0.332 0.166 0.664 0.415 0.831l4.401 4.069c0.249 0.249 0.581 0.332 0.831 0.332 0.332 0 0.664-0.083 0.831-0.332l4.401-4.069c0.249-0.249 0.415-0.498 0.415-0.831 0-0.664-0.581-1.163-1.246-1.163h-1.578l0.498-1.993h3.82c0 0 0.083 0 0.083 0 0.083 0 0.083 0 0.166 0 1.91 0 3.488-1.578 3.488-3.488 0.166-1.91-1.412-3.488-3.322-3.488zM15.156 13.993l-0.831 2.99h2.907c0.166 0 0.249 0.083 0.249 0.166 0 0 0 0.083-0.083 0.083l-4.401 4.069c0 0-0.083 0.083-0.166 0.083s-0.166-0.083-0.166-0.083l-4.401-4.069c0 0-0.083-0.083-0.083-0.083 0-0.083 0.083-0.166 0.249-0.166h2.907l-0.831-2.99-1.163-4.235h6.976l-1.163 4.235z"></path>
</svg>
