<svg xmlns="http://www.w3.org/2000/svg" viewBox="0 0 1024 1024"><path d="M867.962 351.645h-18.538C823.466 255.239 734.48 181.081 626.95 181.081c-74.158 0-140.902 37.082-181.688 88.992-18.538-7.414-37.082-7.414-55.62-7.414-77.868 0-148.316 48.206-174.274 114.944-18.538-7.414-33.372-11.124-55.62-11.124-77.868 0-137.192 63.034-137.192 137.192s55.62 129.778 126.068 137.192h270.68L352.56 881.881h407.872l-66.744-237.308h177.984c81.572 0 148.316-66.744 148.316-148.316-3.71-81.572-70.448-144.612-152.026-144.612zM741.894 537.043H619.53l29.662 107.53 51.91 196.522H404.47l55.62-196.522 29.662-107.53H367.388c-7.414 0-11.124-3.71-11.124-7.414 0 0 0-3.71 3.71-3.71l185.398-174.274s3.71-3.71 7.414-3.71 7.414 0 7.414 3.71l185.398 174.274 3.71 3.71c0 3.71-3.71 7.414-7.414 7.414z"/></svg>