<!-- Generated by IcoMoon.io -->
<svg version="1.1" xmlns="http://www.w3.org/2000/svg" width="24" height="24" viewBox="0 0 24 24">
<title>cloud-gear</title>
<path d="M20.184 15.528c-0.451-0.043-0.797-0.384-0.984-0.782-0.106-0.466 0.014-0.912 0.418-1.171 0.082-0.067 0.173-0.211 0.038-0.374-0.197-0.322-0.475-0.576-0.672-0.902-0.067-0.082-0.293-0.106-0.374-0.038-0.331 0.269-0.874 0.37-1.234 0.182-0.437-0.197-0.619-0.667-0.571-1.118 0.014-0.149-0.043-0.307-0.197-0.322-0.37-0.11-0.744-0.149-1.128-0.11-0.149-0.014-0.24 0.13-0.254 0.278-0.043 0.451-0.317 0.878-0.782 0.984-0.389 0.115-0.912-0.014-1.171-0.418-0.067-0.082-0.211-0.173-0.374-0.038-0.322 0.197-0.653 0.466-0.907 0.744-0.091 0.144-0.106 0.293-0.038 0.374 0.346 0.336 0.37 0.874 0.182 1.234s-0.667 0.619-1.118 0.571c-0.149-0.014-0.307 0.043-0.322 0.197-0.11 0.37-0.149 0.744-0.11 1.128-0.014 0.149 0.13 0.24 0.278 0.254 0.451 0.043 0.806 0.307 0.984 0.782 0.106 0.466-0.014 0.912-0.418 1.171-0.082 0.067-0.173 0.211-0.038 0.374 0.197 0.322 0.475 0.576 0.672 0.902 0.144 0.091 0.293 0.106 0.374 0.038 0.331-0.269 0.874-0.37 1.234-0.182 0.437 0.197 0.619 0.667 0.571 1.118-0.014 0.149 0.043 0.307 0.197 0.322 0.226 0.024 0.374 0.038 0.6 0.058 0.149 0.014 0.374 0.038 0.528 0.053 0.149 0.014 0.24-0.13 0.254-0.278 0.043-0.451 0.317-0.878 0.782-0.984 0.389-0.115 0.912 0.014 1.171 0.418 0.067 0.082 0.211 0.173 0.374 0.038 0.322-0.197 0.653-0.466 0.907-0.744 0.091-0.144 0.106-0.293 0.038-0.374-0.346-0.336-0.37-0.874-0.182-1.234s0.667-0.619 1.046-0.581l0.077 0.010c0.149 0.014 0.307-0.043 0.322-0.197 0.038-0.374 0.072-0.754 0.11-1.128 0.010-0.149-0.13-0.24-0.283-0.254zM17.774 16.128c-0.125 1.277-1.205 2.237-2.558 2.102-1.277-0.125-2.227-1.282-2.102-2.558s1.282-2.227 2.558-2.102c1.277 0.12 2.227 1.277 2.102 2.558z"></path>
<path d="M23.016 9.811c-0.605-0.83-1.435-1.435-2.419-1.738 0.077-0.226 0.077-0.451 0.077-0.754 0-0.83-0.226-2.040-1.512-2.947s-2.491-0.835-3.322-0.682c-0.302 0.077-0.605 0.149-0.83 0.302-0.226-0.302-0.605-0.754-1.133-1.133-1.358-1.056-2.947-1.512-4.685-1.286-1.661 0.226-3.25 1.056-4.157 2.342-0.754 0.984-1.056 2.117-0.984 3.326-0.451 0.149-0.984 0.451-1.589 0.907-1.435 1.133-2.194 2.568-2.194 4.157 0 1.133 0.379 2.266 1.286 3.096 0.984 1.056 2.419 1.661 3.854 1.661h1.056c0.379 0 0.682-0.302 0.682-0.682s-0.302-0.682-0.682-0.682h-1.056c-1.056 0-2.117-0.451-2.87-1.21-0.379-0.446-0.907-1.128-0.907-2.112 0-1.21 0.605-2.266 1.661-3.096 0.83-0.682 1.622-0.941 1.622-0.941s0.24-0.091 0.384-0.144c0.149-0.053 0.37-0.211 0.293-0.533-0.019-0.072-0.029-0.12-0.029-0.12-0.226-0.984 0-1.963 0.605-2.794 0.754-0.984 1.963-1.661 3.326-1.814 1.358-0.149 2.568 0.149 3.552 0.984 0.826 0.6 1.205 1.358 1.205 1.358s0.077 0.149 0.149 0.302c0.077 0.149 0.379 0.226 0.605 0.077s0.302-0.226 0.302-0.226 1.512-1.133 3.096 0c0.605 0.451 0.907 0.984 0.907 1.661 0 0.528-0.226 0.984-0.226 0.984s-0.077 0.149-0.149 0.302c-0.077 0.226-0.077 0.605 0.379 0.682 0.077 0 0.302 0.077 0.302 0.077 0.907 0.149 1.738 0.682 2.266 1.435 0.528 0.682 0.682 1.512 0.528 2.419-0.077 0.605-0.35 1.162-0.754 1.512-0.274 0.235-0.379 0.677-0.115 1.013 0.25 0.322 0.739 0.355 1.022 0.12 0.682-0.605 1.056-1.435 1.286-2.342 0.226-1.291-0.077-2.501-0.835-3.485z"></path>
<path d="M13.973 21.619c-2.774-0.442-4.838-2.933-4.795-5.803 0.038-2.808 2.016-5.155 4.714-5.626l0.077 1.214 2.342-2.088-2.578-1.608 0.077 1.224c-1.584 0.245-3.038 1.056-4.114 2.28-1.109 1.267-1.733 2.894-1.757 4.589-0.024 1.709 0.562 3.365 1.646 4.666 1.075 1.286 2.568 2.141 4.2 2.395 0.029 0.005 0.058 0.005 0.086 0.010 0.005 0 0.005 0 0.010 0 0.302 0 0.566-0.226 0.61-0.533 0.053-0.346-0.182-0.667-0.518-0.72z"></path>
</svg>
