<svg xmlns="http://www.w3.org/2000/svg" viewBox="0 0 1024 1024"><path d="M861.184 683.861c-19.251-1.843-33.997-16.384-41.984-33.382-4.506-19.866.614-38.912 17.818-49.971 3.482-2.867 7.373-9.011 1.638-15.974-8.397-13.722-20.275-24.576-28.672-38.502-2.867-3.482-12.493-4.506-15.974-1.638-14.131 11.469-37.274 15.77-52.634 7.782-18.637-8.397-26.419-28.467-24.371-47.718.614-6.349-1.843-13.107-8.397-13.722-15.77-4.71-31.744-6.349-48.128-4.71-6.349-.614-10.24 5.53-10.854 11.878-1.843 19.251-13.517 37.478-33.382 41.984-16.589 4.915-38.912-.614-49.971-17.818-2.867-3.482-9.011-7.373-15.974-1.638-13.722 8.397-27.853 19.866-38.707 31.744-3.891 6.144-4.506 12.493-1.638 15.974 14.746 14.336 15.77 37.274 7.782 52.634s-28.467 26.419-47.718 24.371c-6.349-.614-13.107 1.843-13.722 8.397-4.71 15.77-6.349 31.744-4.71 48.128-.614 6.349 5.53 10.24 11.878 10.854 19.251 1.843 34.406 13.107 41.984 33.382 4.506 19.866-.614 38.912-17.818 49.971-3.482 2.867-7.373 9.011-1.638 15.974 8.397 13.722 20.275 24.576 28.672 38.502 6.144 3.891 12.493 4.506 15.974 1.638 14.131-11.469 37.274-15.77 52.634-7.782 18.637 8.397 26.419 28.467 24.371 47.718-.614 6.349 1.843 13.107 8.397 13.722a1085.73 1085.73 0 0 0 25.6 2.458c6.349.614 15.974 1.638 22.528 2.253 6.349.614 10.24-5.53 10.854-11.878 1.843-19.251 13.517-37.478 33.382-41.984 16.589-4.915 38.912.614 49.971 17.818 2.867 3.482 9.011 7.373 15.974 1.638 13.722-8.397 27.853-19.866 38.707-31.744 3.891-6.144 4.506-12.493 1.638-15.974-14.746-14.336-15.77-37.274-7.782-52.634s28.467-26.419 44.646-24.781l3.277.41c6.349.614 13.107-1.843 13.722-8.397 1.638-15.974 3.072-32.154 4.71-48.128.41-6.349-5.53-10.24-12.083-10.854zm-102.81 25.6c-5.325 54.477-51.405 95.437-109.158 89.702-54.477-5.325-95.027-54.682-89.702-109.158s54.682-95.027 109.158-89.702c54.477 5.12 95.027 54.477 89.702 109.158zm223.642-269.517c-25.805-35.43-61.235-61.235-103.219-74.138 3.277-9.626 3.277-19.251 3.277-32.154 0-35.43-9.626-87.04-64.512-125.747S711.271 172.27 675.84 178.823c-12.902 3.277-25.805 6.349-35.43 12.902-9.626-12.902-25.805-32.154-48.333-48.333C534.119 98.336 466.33 78.88 392.192 88.506c-70.861 9.626-138.65 45.056-177.357 99.942-32.154 41.984-45.056 90.317-41.984 141.926-19.251 6.349-41.984 19.251-67.789 38.707-61.235 48.333-93.594 109.568-93.594 177.357 0 48.333 16.179 96.666 54.886 132.096 41.984 45.056 103.219 70.861 164.454 70.861h45.056c16.179 0 29.082-12.902 29.082-29.082s-12.902-29.082-29.082-29.082h-45.056c-45.056 0-90.317-19.251-122.47-51.61-16.179-19.046-38.707-48.128-38.707-90.112 0-51.61 25.805-96.666 70.861-132.096 35.43-29.082 69.222-40.141 69.222-40.141s10.24-3.891 16.384-6.144c6.349-2.253 15.77-9.011 12.493-22.733-.819-3.072-1.229-5.12-1.229-5.12-9.626-41.984 0-83.763 25.805-119.194 32.154-41.984 83.763-70.861 141.926-77.414 57.958-6.349 109.568 6.349 151.552 41.984 35.226 25.6 51.405 57.958 51.405 57.958s3.277 6.349 6.349 12.902c3.277 6.349 16.179 9.626 25.805 3.277s12.902-9.626 12.902-9.626 64.512-48.333 132.096 0c25.805 19.251 38.707 41.984 38.707 70.861 0 22.528-9.626 41.984-9.626 41.984s-3.277 6.349-6.349 12.902c-3.277 9.626-3.277 25.805 16.179 29.082 3.277 0 12.902 3.277 12.902 3.277 38.707 6.349 74.138 29.082 96.666 61.235 22.528 29.082 29.082 64.512 22.528 103.219-3.277 25.805-14.95 49.562-32.154 64.512-11.674 10.035-16.179 28.877-4.915 43.213 10.65 13.722 31.539 15.155 43.622 5.12 29.082-25.805 45.056-61.235 54.886-99.942 9.626-55.091-3.277-106.701-35.635-148.685zM596.173 943.752C477.799 924.91 389.735 818.619 391.578 696.149c1.638-119.808 86.016-219.955 201.114-240.026l3.277 51.814 99.942-89.088-109.978-68.608 3.277 52.224c-67.584 10.445-129.638 45.056-175.514 97.28-47.309 54.067-73.933 123.494-74.957 195.789-1.024 72.909 23.962 143.565 70.246 199.066 45.875 54.886 109.568 91.341 179.2 102.195 1.229.205 2.458.205 3.686.41h.41c12.902 0 24.166-9.626 26.01-22.733 2.253-14.746-7.782-28.467-22.118-30.72z"/></svg>