<!-- Generated by IcoMoon.io -->
<svg version="1.1" xmlns="http://www.w3.org/2000/svg" width="24" height="24" viewBox="0 0 24 24">
<title>cloud-sync</title>
<path d="M14.925 19.275c-0.15-0.15-0.45-0.225-0.675 0.075l-1.5 1.575c0 0 0-0.525 0-1.275 0 0 0 0 0 0 0-0.3 0-6.3 0-6.3l1.5 1.575c0.225 0.225 0.45 0.225 0.675 0.075l0.45-0.45c0.225-0.225 0.15-0.525-0.075-0.675l-2.55-2.7c-0.15-0.15-0.375-0.375-0.75-0.375s-0.6 0.225-0.75 0.375l-2.55 2.7c-0.15 0.15-0.225 0.525-0.075 0.675l0.45 0.45c0.15 0.15 0.45 0.225 0.675-0.075l1.5-1.575c0 0 0 0.525 0 1.275 0 0 0 0 0 0 0 0.3 0 6.3 0 6.3l-1.5-1.575c-0.225-0.225-0.45-0.225-0.675-0.075l-0.45 0.45c-0.225 0.225-0.15 0.525 0.075 0.675l2.55 2.7c0.15 0.15 0.375 0.375 0.75 0.375s0.6-0.225 0.75-0.375l2.55-2.7c0.15-0.15 0.225-0.525 0.075-0.675l-0.45-0.45z"></path>
<path d="M18.525 18.075h-1.2c-0.375 0-0.675-0.3-0.675-0.675s0.3-0.675 0.675-0.675h1.2c0.525 0 1.35-0.15 2.1-0.525 0.9-0.45 1.425-1.2 1.575-2.1s0-1.725-0.525-2.4c-0.525-0.75-1.35-1.275-2.25-1.425 0 0-0.225-0.075-0.3-0.075-0.45-0.075-0.45-0.45-0.375-0.675s0.15-0.3 0.15-0.3 0.225-0.45 0.225-0.975c0-0.675-0.3-1.2-0.9-1.65-1.575-1.125-3.075 0-3.075 0s-0.075 0.075-0.3 0.225c-0.225 0.15-0.525 0-0.6-0.075s-0.15-0.3-0.15-0.3-0.375-0.675-1.2-1.35c-1.050-0.825-2.25-1.125-3.525-0.975-1.425 0.15-2.625 0.825-3.3 1.8-0.6 0.825-0.825 1.725-0.675 2.775v0.075c0.075 0.375 0 0.525-0.375 0.6l-0.15 0.075c0 0-0.825 0.3-1.725 0.975-0.975 0.675-1.575 1.725-1.575 2.925 0 0.975 0.45 1.65 0.9 2.1 0.75 0.75 1.8 1.2 2.85 1.2h1.050c0.375 0 0.675 0.3 0.675 0.675s-0.3 0.675-0.675 0.675h-1.050c-1.425 0-2.85-0.6-3.825-1.65-0.825-0.9-1.275-1.95-1.275-3.075 0.075-1.65 0.825-3.075 2.175-4.125 0.6-0.45 1.125-0.75 1.575-0.975-0.075-1.125 0.225-2.25 0.975-3.225 0.975-1.275 2.475-2.1 4.275-2.325 1.725-0.225 3.3 0.15 4.65 1.275 0.45 0.375 0.825 0.825 1.125 1.125 0.225-0.075 0.525-0.225 0.825-0.3 0.825-0.225 2.025-0.225 3.3 0.675s1.575 2.1 1.5 2.925c0 0.3-0.075 0.525-0.075 0.75 0.975 0.3 1.8 0.975 2.4 1.725 0.75 0.975 0.975 2.175 0.75 3.45-0.225 1.35-0.975 2.4-2.25 3.075-1.35 0.675-2.55 0.75-2.925 0.75z"></path>
</svg>
