<!-- Generated by IcoMoon.io -->
<svg version="1.1" xmlns="http://www.w3.org/2000/svg" width="24" height="24" viewBox="0 0 24 24">
<title>cloud-services</title>
<path d="M12.3 20.85v-6.825c0-0.225-0.225-0.45-0.45-0.45s-0.45 0.225-0.45 0.45v6.825c-0.525 0.15-0.9 0.675-0.9 1.2 0 0.675 0.6 1.275 1.275 1.275s1.275-0.6 1.275-1.275c0.075-0.525-0.3-0.975-0.75-1.2z"></path>
<path d="M4.875 20.85h2.325c1.425 0 2.325-0.975 2.325-2.475v-3.375c0-0.225-0.15-0.375-0.375-0.375s-0.375 0.15-0.375 0.375v3.375c0 0.675-0.225 1.725-1.575 1.725h-2.325c-0.15-0.525-0.675-0.9-1.2-0.9-0.675 0-1.275 0.6-1.275 1.275s0.525 1.275 1.275 1.275c0.6 0 1.050-0.375 1.2-0.9z"></path>
<path d="M14.1 14.925v3.375c0 1.5 0.9 2.475 2.325 2.475h2.325c0.15 0.525 0.675 0.9 1.2 0.9 0.675 0 1.275-0.6 1.275-1.275s-0.6-1.275-1.275-1.275c-0.6 0-1.050 0.375-1.2 0.9h-2.25c-1.425 0-1.575-1.050-1.575-1.725v-3.375c0-0.225-0.15-0.375-0.375-0.375s-0.45 0.225-0.45 0.375z"></path>
<path d="M18.6 17.175h-1.2c-0.375 0-0.675-0.3-0.675-0.675s0.3-0.675 0.675-0.675h1.2c0.525 0 1.35-0.15 2.1-0.525 0.9-0.45 1.425-1.2 1.575-2.1s0-1.725-0.525-2.4c-0.525-0.75-1.35-1.275-2.25-1.425 0 0-0.225-0.075-0.3-0.075-0.45-0.075-0.45-0.45-0.375-0.675s0.15-0.3 0.15-0.3c0 0 0.225-0.45 0.225-0.975 0-0.675-0.3-1.2-0.9-1.65-1.575-1.125-3.075 0-3.075 0s-0.075 0.075-0.3 0.225c-0.225 0.15-0.525 0-0.6-0.075s-0.15-0.3-0.15-0.3c0 0-0.375-0.675-1.2-1.35-1.050-0.825-2.25-1.125-3.525-0.975-1.425 0.15-2.625 0.825-3.3 1.8-0.6 0.825-0.825 1.725-0.675 2.775v0.075c0.075 0.375 0 0.525-0.375 0.6l-0.15 0.075c0 0-0.825 0.3-1.725 0.975-0.975 0.675-1.575 1.725-1.575 2.925 0 0.975 0.45 1.65 0.9 2.1 0.75 0.75 1.8 1.2 2.85 1.2h1.050c0.375 0 0.675 0.3 0.675 0.675s-0.3 0.675-0.675 0.675h-1.050c-1.425 0-2.85-0.6-3.825-1.65-0.825-0.9-1.275-1.95-1.275-3.075 0.075-1.65 0.825-3.075 2.175-4.125 0.6-0.45 1.125-0.75 1.575-0.975-0.075-1.125 0.225-2.25 0.975-3.225 0.975-1.275 2.475-2.1 4.275-2.325 1.725-0.225 3.3 0.15 4.65 1.275 0.45 0.375 0.825 0.825 1.125 1.125 0.225-0.075 0.525-0.225 0.825-0.3 0.825-0.225 2.025-0.225 3.3 0.675s1.575 2.1 1.5 2.925c0 0.3-0.075 0.525-0.075 0.75 0.975 0.3 1.8 0.975 2.4 1.725 0.75 0.975 0.975 2.175 0.75 3.45-0.225 1.35-0.975 2.4-2.25 3.075-1.35 0.675-2.55 0.75-2.925 0.75z"></path>
</svg>
