<!-- Generated by IcoMoon.io -->
<svg version="1.1" xmlns="http://www.w3.org/2000/svg" width="24" height="24" viewBox="0 0 24 24">
<title>cloud-upload</title>
<path d="M20.343 7.742c-0.174 0-0.348 0-0.434 0-0.608-2.26-2.694-3.998-5.214-3.998-1.738 0-3.302 0.869-4.258 2.086-0.434-0.174-0.869-0.174-1.304-0.174-1.825 0-3.476 1.13-4.085 2.694-0.434-0.174-0.782-0.261-1.304-0.261-1.825 0-3.215 1.477-3.215 3.215s1.304 3.042 2.955 3.215c0 0 0.087 0 0.087 0h6.257l-1.564 5.649h9.559l-1.564-5.562h3.911c0 0 0.087 0 0.087 0 0.087 0 0.087 0 0.174 0 1.912 0 3.476-1.564 3.476-3.476-0.087-1.912-1.651-3.389-3.563-3.389zM17.388 12.087h-2.868l0.695 2.52 1.217 4.606h-6.952l1.304-4.606 0.695-2.52h-2.868c-0.174 0-0.261-0.087-0.261-0.174 0 0 0-0.087 0.087-0.087l4.345-4.085c0 0 0.087-0.087 0.174-0.087s0.174 0 0.174 0.087l4.345 4.085c0 0 0.087 0.087 0.087 0.087 0 0.087-0.087 0.174-0.174 0.174z"></path>
</svg>
