<svg xmlns="http://www.w3.org/2000/svg" viewBox="0 0 1024 1024"><path d="M563.2 328.533c-51.2 0-98.133 34.133-115.2 81.067-12.8-4.267-21.333-8.533-29.867-8.533-42.667 0-72.533 34.133-72.533 72.533-46.933 4.267-85.333 46.933-85.333 93.867 0 51.2 42.667 93.867 93.867 93.867h315.733c51.2 0 93.867-42.667 93.867-93.867 0-46.933-34.133-85.333-76.8-93.867 0-8.533 4.267-17.067 4.267-21.333 0-68.267-59.733-123.733-128-123.733zM281.6 832c-8.533 0-17.067 0-25.6 4.267l4.267-4.267-149.333-268.8-4.267 4.267c17.067-12.8 25.6-29.867 25.6-51.2s-12.8-42.667-25.6-51.2l4.267 4.267 149.333-268.8-4.267-4.267c8.533 4.267 17.067 4.267 25.6 4.267 34.133 0 59.733-25.6 59.733-59.733s-25.6-64-59.733-64c-38.4 0-64 29.867-64 64 0 21.333 12.8 42.667 25.6 51.2l-4.267-4.267L89.6 456.534l4.267 4.267c-8.533-4.267-17.067-4.267-25.6-4.267-34.133 0-64 29.867-64 64s29.867 64 64 64c8.533 0 17.067 0 25.6-4.267l-4.267 4.267 149.333 268.8 4.267-4.267c-17.067 12.8-25.6 29.867-25.6 51.2 0 34.133 29.867 64 64 64C315.733 960 341.333 930.134 341.333 896s-25.6-64-59.733-64zm669.867-375.467c-8.533 0-17.067 0-25.6 4.267l4.267-4.267-149.333-268.8-4.267 4.267c17.067-12.8 25.6-29.867 25.6-51.2 0-34.133-29.867-64-64-64s-59.733 29.867-59.733 64c0 34.133 29.867 64 64 64 8.533 0 17.067 0 25.6-4.267l-4.267 4.267 149.333 268.8 4.267-4.267c-17.067 12.8-25.6 29.867-25.6 51.2s12.8 42.667 25.6 51.2l-4.267-4.267-149.333 268.8 4.267 4.267c-8.533-4.267-17.067-4.267-25.6-4.267-34.133 0-64 29.867-64 64s29.867 64 64 64 64-29.867 64-64c0-21.333-12.8-42.667-25.6-51.2l4.267 4.267 149.333-268.8-8.533-8.533c8.533 4.267 17.067 4.267 25.6 4.267 34.133 0 64-29.867 64-64s-29.867-59.733-64-59.733zM341.333 128v25.6H678.4V128zm0 755.2v25.6H678.4v-25.6z"/></svg>