<!-- Generated by IcoMoon.io -->
<svg version="1.1" xmlns="http://www.w3.org/2000/svg" width="24" height="24" viewBox="0 0 24 24">
<title>code</title>
<path d="M4.575 11.85l3.375-3.075c0.45-0.375 0.45-0.75-0.15-1.35-0.525-0.6-0.825-0.6-1.275-0.225l-4.2 3.825c-0.225 0.225-0.375 0.45-0.375 0.75s0.075 0.6 0.3 0.75l4.2 4.125c0.45 0.45 0.825 0.375 1.425-0.15 0.45-0.45 0.675-0.825 0.15-1.35l-3.45-3.3z"></path>
<path d="M21.825 11.025l-4.2-3.825c-0.45-0.375-0.75-0.375-1.35 0.15-0.6 0.6-0.6 0.975-0.15 1.35l3.375 3.075-3.45 3.375c-0.525 0.525-0.3 0.9 0.15 1.35 0.525 0.525 0.9 0.6 1.425 0.15l4.2-4.125c0.225-0.225 0.3-0.525 0.3-0.75s-0.075-0.525-0.3-0.75z"></path>
<path d="M14.85 5.175l-0.675-0.225c-0.375-0.15-0.825 0.075-0.975 0.45l-4.425 12.45c-0.15 0.375 0.075 0.825 0.45 0.975l0.675 0.225c0.375 0.15 0.825-0.075 0.975-0.45l4.425-12.45c0.15-0.375-0.075-0.825-0.45-0.975z"></path>
</svg>
