<!-- Generated by IcoMoon.io -->
<svg version="1.1" xmlns="http://www.w3.org/2000/svg" width="24" height="24" viewBox="0 0 24 24">
<title>cofee</title>
<path d="M15.553 4.969c0.811-1.017 0.811-2.606 0-3.623-0.173-0.216-0.488-0.253-0.703-0.080s-0.253 0.488-0.080 0.703c0.516 0.642 0.516 1.73 0 2.377-0.816 1.017-0.816 2.606 0 3.623 0.098 0.122 0.244 0.188 0.389 0.188 0.108 0 0.22-0.038 0.314-0.108 0.216-0.173 0.253-0.487 0.080-0.703-0.52-0.642-0.52-1.73 0-2.377z"></path>
<path d="M12.389 4.969c0.816-1.017 0.816-2.606 0-3.623-0.173-0.216-0.488-0.253-0.703-0.080s-0.253 0.488-0.080 0.703c0.516 0.642 0.516 1.73 0 2.377-0.811 1.017-0.811 2.606 0 3.623 0.098 0.122 0.244 0.188 0.389 0.188 0.108 0 0.22-0.038 0.314-0.108 0.216-0.173 0.253-0.487 0.080-0.703-0.516-0.642-0.516-1.73 0-2.377z"></path>
<path d="M9.127 4.969c0.811-1.017 0.811-2.606 0-3.623-0.173-0.216-0.487-0.253-0.703-0.080s-0.248 0.488-0.080 0.703c0.516 0.642 0.516 1.73 0 2.377-0.816 1.017-0.816 2.606 0 3.623 0.098 0.122 0.244 0.188 0.389 0.188 0.108 0 0.22-0.038 0.314-0.108 0.216-0.173 0.253-0.487 0.080-0.703-0.52-0.642-0.52-1.73 0-2.377z"></path>
<path d="M23.259 21.206c-0.080-0.188-0.258-0.309-0.464-0.309h-21.998c-0.202 0-0.384 0.122-0.464 0.309s-0.033 0.403 0.108 0.544l1.12 1.12c0.661 0.661 1.542 1.027 2.475 1.027h15.516c0.933 0 1.814-0.366 2.475-1.027l1.12-1.12c0.145-0.145 0.188-0.361 0.112-0.544z"></path>
<path d="M23.034 11.517c-0.923-0.595-2.227-0.337-3.033-0.084v-0.769c0-0.834-0.675-1.505-1.5-1.505h-14.002c-0.825 0-1.5 0.675-1.5 1.5v0.998c0 3.567 1.969 6.806 5.142 8.447 0.098 0.052 0.202 0.066 0.305 0.052l0.005 0.005h6.178c0.080 0 0.155-0.019 0.23-0.056 0.975-0.506 1.837-1.162 2.564-1.931l0.169-0.033c0.262-0.052 6.408-1.256 6.408-4.491 0-0.998-0.328-1.716-0.966-2.133zM6.516 14.095c-0.633-1.416-0.642-2.831-0.689-3.525h1.369c-0.122 1.28 0.084 2.217 0.422 3.525h-1.102zM18.422 16.917c0.862-1.303 1.402-2.812 1.542-4.416 0.638-0.239 1.875-0.563 2.527-0.145 0.342 0.22 0.506 0.642 0.506 1.294 0 1.65-2.738 2.761-4.575 3.267z"></path>
</svg>
