<svg xmlns="http://www.w3.org/2000/svg" viewBox="0 0 1024 1024"><path d="M898.133 669.866c37.333-37.333 24.533-67.556-28.089-67.556H649.6c-52.622 0-71.111 15.289-71.111 67.911v223.644c0 52.622 30.578 65.067 67.556 28.089l92.089-92.089 162.489 162.489 67.556-67.556L805.69 762.309l92.444-92.444zm-520.889-67.555H153.955c-52.622 0-65.067 30.578-28.089 67.556l92.089 92.089L55.466 924.445l67.556 67.556 162.489-162.489 92.089 92.089c37.333 37.333 67.556 24.533 67.556-28.089V673.068c0-52.267-15.289-70.756-67.911-70.756zm.356-457.245l-92.089 92.089L123.022 74.666l-67.556 67.556 162.489 162.489-92.089 92.089c-37.333 37.333-24.533 67.556 28.089 67.556h220.444c52.622 0 71.111-15.289 71.111-67.911V172.801c-.356-52.622-30.578-65.067-67.911-27.733zm269.156 319.289H870.4c52.622 0 65.067-30.578 28.089-67.556L806.4 304.71l162.133-162.489-67.556-67.556-162.489 162.489-92.089-92.089c-37.333-37.333-67.556-24.533-67.556 28.089v220.444c0 52.267 15.289 70.756 67.911 70.756z"/></svg>