<!-- Generated by IcoMoon.io -->
<svg version="1.1" xmlns="http://www.w3.org/2000/svg" width="24" height="24" viewBox="0 0 24 24">
<title>collapse-all</title>
<path d="M21.050 15.2c0.875-0.875 0.575-1.583-0.658-1.583h-5.167c-1.233 0-1.667 0.358-1.667 1.592v5.242c0 1.233 0.717 1.525 1.583 0.658l2.158-2.158 3.808 3.808 1.583-1.583-3.808-3.808 2.167-2.167z"></path>
<path d="M8.842 13.617h-5.233c-1.233 0-1.525 0.717-0.658 1.583l2.158 2.158-3.808 3.808 1.583 1.583 3.808-3.808 2.158 2.158c0.875 0.875 1.583 0.575 1.583-0.658v-5.167c0-1.225-0.358-1.658-1.592-1.658z"></path>
<path d="M8.85 2.9l-2.158 2.158-3.808-3.808-1.583 1.583 3.808 3.808-2.158 2.158c-0.875 0.875-0.575 1.583 0.658 1.583h5.167c1.233 0 1.667-0.358 1.667-1.592v-5.242c-0.008-1.233-0.717-1.525-1.592-0.65z"></path>
<path d="M15.158 10.383h5.242c1.233 0 1.525-0.717 0.658-1.583l-2.158-2.158 3.8-3.808-1.583-1.583-3.808 3.808-2.158-2.158c-0.875-0.875-1.583-0.575-1.583 0.658v5.167c0 1.225 0.358 1.658 1.592 1.658z"></path>
</svg>
