<svg xmlns="http://www.w3.org/2000/svg" viewBox="0 0 1024 1024"><path d="M659.909 899.214c-27.244-11.679-38.921-38.921-42.814-62.279H403.014c-3.893 23.358-15.572 50.6-42.814 62.279-46.707 23.358-38.921 38.921-3.893 38.921H663.804c35.03 0 38.921-19.465-3.893-38.921zm291.923-770.685H72.161c-19.465 0-38.921 15.572-38.921 35.028v579.962c0 19.465 15.572 35.028 35.028 35.028h883.564c19.465 0 35.028-15.572 35.028-35.028V163.557c3.893-19.465-15.572-35.028-35.028-35.028zm-27.244 490.434H99.41v-428.16h829.071v428.16z"/></svg>