<!-- Generated by IcoMoon.io -->
<svg version="1.1" xmlns="http://www.w3.org/2000/svg" width="24" height="24" viewBox="0 0 24 24">
<title>compass</title>
<path d="M13.296 12.152c0 0.632-0.512 1.144-1.144 1.144s-1.144-0.512-1.144-1.144c0-0.632 0.512-1.144 1.144-1.144s1.144 0.512 1.144 1.144z"></path>
<path d="M7.655 7.655l1.83 4.269 2.439-2.439z"></path>
<path d="M12 0.412c-6.251 0-11.359 5.184-11.359 11.588s5.108 11.588 11.359 11.588 11.359-5.184 11.359-11.588c0-6.404-5.108-11.588-11.359-11.588zM9.408 14.897l-4.193-9.605 9.605 4.193 4.193 9.605-9.605-4.193z"></path>
</svg>
