<!-- Generated by IcoMoon.io -->
<svg version="1.1" xmlns="http://www.w3.org/2000/svg" width="24" height="24" viewBox="0 0 24 24">
<title>computer</title>
<path d="M15.467 20.575c-0.639-0.274-0.912-0.912-1.003-1.46h-5.018c-0.091 0.547-0.365 1.186-1.003 1.46-1.095 0.547-0.912 0.912-0.091 0.912s3.193 0 3.558 0c0 0 0.091 0 0.091 0 0.365 0 2.737 0 3.558 0s0.912-0.456-0.091-0.912z"></path>
<path d="M22.309 2.512h-20.617c-0.456 0-0.912 0.365-0.912 0.821v13.593c0 0.456 0.365 0.821 0.821 0.821h20.709c0.456 0 0.821-0.365 0.821-0.821v-13.593c0.091-0.456-0.365-0.821-0.821-0.821zM21.67 14.007h-19.34v-10.035h19.431v10.035z"></path>
</svg>
