<!-- Generated by IcoMoon.io -->
<svg version="1.1" xmlns="http://www.w3.org/2000/svg" width="24" height="24" viewBox="0 0 24 24">
<title>construction</title>
<path d="M10.097 1.578c0.091-0.272 0.634-0.634 0.997-0.634 0.906-0.091 0.725-0.091 1.541 0 0.272 0 0.997 0.362 1.088 0.634 0.362 1.359 0.725 2.628 1.088 3.988-1.994 0.272-3.806 0.272-5.71 0 0.272-1.359 0.634-2.719 0.997-3.988z"></path>
<path d="M8.284 8.284c2.537 0.362 4.713 0.362 7.25 0 0.362 1.269 0.725 2.447 0.997 3.716-3.353 0.906-5.891 0.906-9.244 0 0.272-1.269 0.634-2.537 0.997-3.716z"></path>
<path d="M21.516 19.613c0 0.453-0.272 0.816-0.544 0.816h-18.216c-0.272 0-0.544-0.362-0.544-0.816v-0.997c0-0.453 0.272-0.816 0.544-0.816h2.9c0.272-1.088 0.544-2.084 0.906-3.172 3.897 0.997 6.797 0.997 10.694 0 0.272 1.088 0.544 2.175 0.906 3.172h2.9c0.272 0 0.544 0.362 0.544 0.816-0.091 0.091-0.091 0.997-0.091 0.997z"></path>
</svg>
