<svg xmlns="http://www.w3.org/2000/svg" viewBox="0 0 1024 1024"><path d="M430.796 88.658c3.866-11.598 27.071-27.071 42.535-27.071 38.669-3.866 30.937-3.866 65.731 0 11.598 0 42.535 15.464 46.401 27.071 15.464 57.999 30.937 112.136 46.401 170.135-85.07 11.598-162.403 11.598-243.607 0 11.598-57.999 27.071-116.002 42.535-170.135zm-77.333 286.138c108.266 15.464 201.072 15.464 309.338 0 15.464 54.133 30.937 104.4 42.535 158.537-143.069 38.669-251.339 38.669-394.408 0 11.598-54.133 27.071-108.266 42.535-158.537zm564.543 483.339c0 19.33-11.598 34.803-23.196 34.803H117.597c-11.598 0-23.196-15.464-23.196-34.803V815.6c0-19.33 11.598-34.803 23.196-34.803h123.734c11.598-46.401 23.196-88.936 38.669-135.337 166.269 42.535 290.008 42.535 456.273 0 11.598 46.401 23.196 92.802 38.669 135.337h123.734c11.598 0 23.196 15.464 23.196 34.803-3.866 3.866-3.866 42.535-3.866 42.535z"/></svg>