<svg xmlns="http://www.w3.org/2000/svg" viewBox="0 0 1024 1024"><path d="M92.004 53.341c-33.12 0-60 26.88-60 60v839.988c0 33.12 26.88 60 60 60h60V53.341h-60zm719.992 0H212.004v959.988h599.992c33.12 0 60-26.88 60-60V113.341c0-33.12-26.88-60-60-60zM538.7 284.577c50.16 0 90.78 40.68 90.78 90.78 0 50.16-40.68 90.84-90.78 90.84-50.16 0-90.84-40.68-90.84-90.84s40.68-90.78 90.84-90.78zM392 701.749c0-110.04 66.54-199.196 148.558-199.196s148.558 89.22 148.558 199.196S392 811.729 392 701.749zm539.996-588.412h60v179.996h-60zm0 240h60v179.996h-60zm0 239.996h60v179.996h-60z"/></svg>