<!-- Generated by IcoMoon.io -->
<svg version="1.1" xmlns="http://www.w3.org/2000/svg" width="24" height="24" viewBox="0 0 24 24">
<title>contacts</title>
<path d="M2.156 0.75c-0.776 0-1.406 0.63-1.406 1.406v19.687c0 0.776 0.63 1.406 1.406 1.406h1.406v-22.5h-1.406zM19.031 0.75h-14.062v22.5h14.062c0.776 0 1.406-0.63 1.406-1.406v-19.687c0-0.776-0.63-1.406-1.406-1.406zM12.626 6.17c1.176 0 2.128 0.953 2.128 2.128 0 1.176-0.953 2.129-2.128 2.129-1.176 0-2.129-0.953-2.129-2.129s0.953-2.128 2.129-2.128zM9.188 15.947c0-2.579 1.56-4.669 3.482-4.669s3.482 2.091 3.482 4.669-6.964 2.578-6.964 0zM21.844 2.156h1.406v4.219h-1.406zM21.844 7.781h1.406v4.219h-1.406zM21.844 13.406h1.406v4.219h-1.406z"></path>
</svg>
