<!-- Generated by IcoMoon.io -->
<svg version="1.1" xmlns="http://www.w3.org/2000/svg" width="24" height="24" viewBox="0 0 24 24">
<title>contact-us</title>
<path fill="#000" d="M23.681 4.102c-0.044-0.677-0.58-1.212-1.256-1.256-0.029-0.002-0.058-0.009-0.088-0.009v0.009l-12.325-0.009c-0.029 0-0.057 0.008-0.088 0.009-0.685 0.045-1.226 0.592-1.259 1.281-0.001 0.020-0.007 0.042-0.007 0.064s0.006 0.041 0.007 0.061v8.765h15.015v-8.742c0.002-0.029 0.009-0.056 0.009-0.086s-0.008-0.058-0.009-0.088zM21.221 4.181l-5.048 4.299-5.046-4.299h10.094zM10.001 5.541c0.004 0 0.008 0 0.011 0v-0.554l3.315 2.822-3.325 3.129v-5.397zM10.682 11.681l3.343-3.327 2.148 1.878 2.162-1.892 3.326 3.341h-10.979zM22.347 10.937l-3.326-3.129 3.317-2.823v0.556c0.003 0 0.007 0 0.009 0v5.397z"></path>
<path fill="#000" d="M15.486 16.198c0 0-2.225-2.151-3.25-1.461-1.113 0.745-1.664 1.684-2.577 1.351-0.514-0.189-1.308-0.705-2.18-1.541v0.002c-0.753-0.756-1.422-1.596-1.633-2.090-0.384-0.894 0.527-1.492 1.212-2.642 0.635-1.063-1.631-3.171-1.631-3.171s-1.381-1.578-2.39-1.011c-1.009 0.568-2.191 1.233-2.191 1.233s-2.465 1.463 0.995 5.726c1.677 2.065 2.555 3.095 3.548 4.008l0.004-0.003c0.811 0.811 2.208 1.94 4.343 3.493 4.439 3.231 5.767 0.692 5.767 0.692s0.602-1.214 1.115-2.252c0.516-1.036-1.134-2.332-1.134-2.332z"></path>
</svg>
