<svg xmlns="http://www.w3.org/2000/svg" viewBox="0 0 1024 1024"><path d="M1010.402 196.346c-1.868-28.869-24.734-51.697-53.598-53.598-1.258-.07-2.478-.394-3.736-.394v.394l-525.862-.394c-1.22 0-2.446.324-3.736.394-29.226 1.906-52.308 25.274-53.706 54.64-.038.864-.286 1.798-.286 2.732 0 .896.254 1.76.286 2.624v373.977h640.65V203.748c.07-1.22.394-2.408.394-3.666 0-1.296-.324-2.478-.394-3.736zm-104.972 3.38L690.06 383.138 474.761 199.726H905.43zm-478.7 58.02h.47v-23.654l141.422 120.392-141.854 133.517V257.746zm29.048 261.997l142.647-141.962 91.668 80.13 92.246-80.707L924.23 519.743H455.778zm497.678-31.78L811.565 354.446l141.53-120.467v23.724h.394v230.255zM660.721 712.431s-94.94-91.776-138.657-62.334c-47.486 31.78-71 71.864-109.966 57.626-21.931-8.05-55.828-30.09-93.001-65.752v.07c-32.136-32.244-60.682-68.089-69.671-89.19-16.392-38.14 22.466-63.667 51.697-112.736 27.072-45.37-69.596-135.315-69.596-135.315s-58.922-67.334-101.953-43.14c-43.069 24.232-93.466 52.594-93.466 52.594S-69.08 376.663 78.562 558.563c71.54 88.11 109.032 132.043 151.383 171.01l.178-.108c34.582 34.582 94.222 82.792 185.317 149.045 189.378 137.864 246.075 29.512 246.075 29.512s25.668-51.8 47.594-96.09c22.034-44.182-48.388-99.508-48.388-99.508z"/></svg>