<svg xmlns="http://www.w3.org/2000/svg" viewBox="0 0 1024 1024"><path d="M616.192 761.941c0-.256.256-.512.256-.512.256-.512.512-1.024.768-1.792v-.256c1.536-5.12-.512-12.032-3.584-21.76-.256-1.024-.768-2.048-1.024-3.072s-.768-2.304-1.024-3.584c0-.512-.256-.768-.256-1.28-.256-1.024-.512-2.048-1.024-3.072-.256-.512-.256-1.024-.512-1.28-.512-1.536-.768-3.072-1.28-4.608-.512-1.792-1.024-3.84-1.28-5.632 0-.512-.256-1.024-.256-1.536l-.768-3.84c0-.512-.256-1.024-.256-1.792-.256-1.28-.256-2.56-.512-3.84 0-.512 0-1.024-.256-1.536 0-1.28-.256-2.816-.256-4.096v-1.024-4.864-.256c.256-5.376 1.024-10.496 2.048-15.36 2.816-11.52 8.448-21.76 16.128-29.696l.256-.256 3.84-3.84c1.536-1.28 2.816-2.304 4.352-3.584 1.28-1.024 2.816-2.048 4.352-2.816.256-.256.512-.256.768-.512 1.536-1.024 3.072-1.792 4.608-2.56h.256c1.792-.768 3.328-1.536 5.12-2.304.256-.256.768-.256 1.024-.256 1.536-.512 2.816-1.024 4.352-1.536.512-.256.768-.256 1.28-.512 3.584-1.024 7.424-2.048 11.52-2.56.512 0 1.024-.256 1.536-.256 1.536-.256 3.072-.256 4.608-.512.512 0 1.024 0 1.536-.256 2.048-.256 4.096-.256 6.144-.256h4.864c1.536 0 3.328.256 4.864.256h1.536c1.28 0 2.304 0 3.584.256 1.536 0 3.072.256 4.352.256h.512c1.024 0 2.048 0 3.072.256H712.704c.768 0 1.792 0 2.56-.256h.512c.768 0 1.536-.256 2.304-.256.768-.256 1.28-.256 2.048-.512.256 0 .256 0 .512-.256.512-.256 1.28-.512 1.792-.768h.256l1.536-.768.256-.256c.512-.256 1.024-.768 1.28-1.024l.256-.256c.256-.256.768-.768 1.024-1.28 0 0 0-.256.256-.256l.768-1.536c0-.256 0-.256.256-.512.256-.512.512-1.28.768-2.048.512-1.792.768-3.072.512-4.608-.256-4.864-3.84-8.192-10.24-11.52-5.632-2.816-13.056-5.632-22.272-9.472-1.536-.768-3.072-1.28-4.864-2.048-1.536-.768-3.328-1.536-4.864-2.304l-4.608-2.304c-1.536-.768-5.888-3.328-8.448-5.12-6.656-4.608-12.288-9.984-16.64-15.616-1.792-2.304-3.584-4.608-4.864-7.168-3.072-4.864-5.12-9.984-6.912-15.36-.768-2.56-1.28-5.376-1.792-8.192s-.768-5.376-.768-8.192c-.256-9.728 1.536-19.968 5.888-29.696.512-1.536 1.28-2.816 2.048-4.352 1.28-2.816 3.072-5.632 4.608-8.448 2.56-4.096 5.632-8.192 9.216-12.288 2.304-2.816 4.608-5.12 6.656-7.424 6.4-6.912 11.264-12.544 14.336-17.408a24.234 24.234 0 0 0 2.304-4.352c1.792-4.352 1.28-7.936-2.048-11.52-.512-.512-1.024-1.024-1.536-1.28l-.256-.256c-.512-.256-1.024-.768-1.536-1.024 0 0-.256 0-.256-.256l-1.536-.768h-.256c-.512-.256-1.024-.256-1.792-.512h-1.792-.256-.256c-.512 0-1.024 0-1.536.256h-.512c-.768 0-1.28.256-2.048.512h-.256c-.768.256-1.28.512-2.048.512-.256 0-.512.256-.512.256-.768.256-1.28.512-2.048.768h-.256c-.768.256-1.792.768-2.56 1.024-.256 0-.512.256-.768.256-.768.256-1.536.768-2.304 1.024-.256 0-.256.256-.512.256l-3.072 1.536c-.256.256-.512.256-.768.512-.768.512-1.792 1.024-2.56 1.536-.256.256-.512.256-.768.512-1.28.768-2.56 1.28-3.84 2.048-.768.512-1.792 1.024-2.56 1.536l-1.536.768c-1.28.768-2.56 1.536-4.096 2.304l-4.608 2.304c-.768.256-1.28.512-2.048 1.024s-1.792.768-2.56 1.024-1.792.768-2.56 1.024c-.512.256-1.28.512-1.792.768-1.024.256-2.048.768-3.072 1.024-.512.256-1.024.256-1.536.512-1.024.256-2.304.512-3.328 1.024-.256 0-.768.256-1.024.256-1.28.256-2.304.512-3.584.768-.256 0-.512.256-1.024.256-1.28.256-2.304.512-3.584.512h-.768c-1.28.256-2.304.256-3.584.256h-.768c-1.536 0-3.328.256-4.864.256h-.512c-1.792 0-3.584 0-5.632-.256-.512 0-1.024 0-1.536-.256-1.536-.256-3.072-.256-4.608-.512-.256 0-.768 0-1.024-.256-1.792-.256-3.584-.768-5.12-1.28-.512 0-.768-.256-1.28-.256-1.28-.512-2.816-.768-4.096-1.28-.512-.256-.768-.256-1.28-.512-1.536-.512-3.328-1.28-4.864-2.048-.256-.256-.512-.256-1.024-.512-1.28-.768-2.56-1.28-3.84-2.048-.512-.256-.768-.512-1.28-.768-1.536-1.024-3.072-2.048-4.352-3.072l-.256-.256-3.84-3.072-1.024-1.024c-1.28-1.024-2.304-2.304-3.328-3.328l-.512-.512c-1.28-1.28-2.304-2.816-3.584-4.352-.256-.512-.512-.768-1.024-1.28-1.024-1.28-1.792-2.56-2.56-3.84-.256-.256-.512-.768-.768-1.024-1.024-1.536-2.048-3.328-2.816-5.12-.256-.512-.512-.768-.512-1.28-.768-1.536-1.536-2.816-2.048-4.352-.256-.512-.512-1.024-.512-1.536-.768-1.792-1.536-3.84-2.304-5.888 0-.256-.256-.768-.256-1.024l-1.536-5.376c-.256-.512-.256-1.024-.512-1.792-.512-2.048-1.024-4.352-1.536-6.656-.256-.768-.256-1.792-.512-2.56 0-.768-.256-1.536-.256-2.048 0-.768-.256-1.28-.256-2.048-.256-.768-.256-1.536-.512-2.304 0-.256 0-.768-.256-1.024a234.97 234.97 0 0 0-.768-5.12c0-.768-.256-1.28-.256-2.048s-.256-1.536-.256-2.048-.256-1.024-.256-1.536c0-.768-.256-1.28-.256-2.048 0-.512-.256-1.024-.256-1.536s-.256-1.28-.512-1.792c0-.512-.256-1.024-.256-1.28-.256-.512-.256-1.024-.512-1.536 0-.512-.256-.768-.256-1.28-.256-.512-.256-1.024-.512-1.28-.256-.512-.256-.768-.512-1.28s-.256-.768-.512-1.28c-.256-.256-.256-.768-.512-1.024s-.256-.768-.512-1.024-.256-.512-.512-1.024l-.768-.768c-.256-.256-.512-.512-.512-.768l-.768-.768c-.256-.256-.512-.512-.768-.512-.256-.256-.512-.256-.768-.512s-.512-.256-.768-.512c-.256 0-.512-.256-1.024-.256-.256 0-.512-.256-1.024-.256h-2.048-.256c-8.704.256-12.032 3.84-14.592 12.288-1.792 6.656-3.072 16.128-5.376 29.44-.512 2.304-1.024 4.352-1.536 6.656-.256.512-.256 1.024-.512 1.792l-1.536 5.376c0 .256-.256.512-.256 1.024-.768 2.048-1.536 3.84-2.304 5.888-.256.512-.512 1.024-.512 1.28-.768 1.536-1.28 3.072-2.048 4.352-.256.512-.512.768-.512 1.28-1.024 1.792-1.792 3.328-2.816 5.12-.256.256-.512.768-.768 1.024-.768 1.28-1.792 2.56-2.816 3.84-.256.256-.512.768-.768 1.024-1.28 1.536-2.304 2.816-3.584 4.352l-.512.512c-1.024 1.28-2.304 2.304-3.584 3.584l-1.024 1.024c-1.28 1.024-2.56 2.304-3.84 3.328l-.256.256c-1.536 1.024-2.816 2.048-4.352 3.072-.512.256-.768.512-1.28.768-1.28.768-2.56 1.536-3.84 2.048-.256.256-.512.256-.768.512-1.536.768-3.072 1.536-4.864 2.048-.512.256-.768.256-1.28.512-1.28.512-2.816 1.024-4.096 1.28-.512 0-.768.256-1.28.256-1.792.512-3.328.768-5.12 1.28-.256 0-.768 0-1.024.256-1.536.256-3.072.512-4.608.512-.512 0-1.024 0-1.536.256-1.792.256-3.584.256-5.632.256h-1.024c-2.56 0-5.12-.256-7.68-.512a91.726 91.726 0 0 1-11.52-2.304c-.256 0-.512-.256-.768-.256-1.024-.256-2.048-.512-3.072-1.024-.512-.256-1.024-.256-1.536-.512-.768-.256-1.792-.512-2.56-1.024-.768-.256-1.28-.512-2.048-.768s-1.536-.512-2.304-1.024c-.768-.256-1.792-.768-2.56-1.28-.512-.256-1.28-.512-1.792-.768-1.536-.768-2.816-1.536-4.352-2.304s-2.816-1.536-4.096-2.304c-.256-.256-.768-.512-1.024-.512-1.024-.512-2.304-1.28-3.328-1.792-1.28-.768-2.56-1.28-3.584-2.048-.256-.256-.768-.256-1.024-.512-.768-.512-1.792-1.024-2.56-1.28-.256-.256-.512-.256-.768-.512l-3.072-1.536c-.256 0-.512-.256-.768-.256-.768-.512-1.536-.768-2.304-1.024-.256 0-.512-.256-.768-.256-.768-.512-1.792-.768-2.56-1.28-.256 0-.256 0-.512-.256-.768-.256-1.28-.512-2.048-.768-.256 0-.512-.256-.768-.256l-2.304-.768c-.768-.256-1.28-.256-2.048-.512h-.512c-.512 0-1.024-.256-1.792-.256h-.256c-.512 0-1.024 0-1.792.256h-.256c-.512 0-1.024.256-1.536.512h-.256l-1.536.768s-.256 0-.256.256c-.512.256-1.024.768-1.536 1.024l-.256.256c-.512.512-1.024 1.024-1.28 1.536-1.024 1.28-2.048 2.816-2.304 4.096-1.28 3.328-.768 6.4 1.28 10.24.768 1.536 1.792 3.072 3.072 4.608.512.768 1.28 1.536 2.048 2.56 3.584 4.352 8.448 9.472 13.824 15.616 1.024 1.28 2.304 2.56 3.328 3.84 6.912 7.936 12.288 16.384 15.872 25.088 2.304 5.632 4.096 11.52 4.864 17.152 2.048 12.8.512 25.344-4.608 36.864-.512 1.28-1.28 2.56-1.792 3.84-2.56 4.864-5.888 9.728-9.984 14.08-7.936 8.96-18.432 16.384-31.744 22.016-8.448 3.584-15.36 6.4-20.992 8.96-2.304 1.024-4.096 2.048-5.888 3.072-6.144 3.584-9.472 6.912-9.984 11.52-.256 1.28 0 2.816.256 4.352a32.23 32.23 0 0 0 .768 2.56c0 .256.256.512.256.768.256.512.512 1.024.768 1.28s.256.512.512.768.512.768 1.024 1.024c.256.256.512.256.512.512.256.256.768.512 1.024.768s.512.256.768.512 1.024.512 1.536.512c.256 0 .512.256.768.256.768.256 1.536.256 2.304.512h.256c1.024.256 1.792.256 2.816.256h9.728c1.024 0 2.048 0 3.328-.256h1.536c.768 0 1.792 0 2.816-.256 1.024 0 2.048-.256 3.328-.256h1.792c1.024 0 2.048 0 3.072-.256h1.536c1.536 0 3.072-.256 4.864-.256h4.864c2.048 0 3.84 0 5.888.256h1.536c1.536 0 2.816.256 4.352.512.512 0 1.28.256 1.792.256 1.28.256 2.56.256 3.584.512.512 0 1.28.256 1.792.256l3.84.768c.512 0 1.024.256 1.28.256 1.792.512 3.328 1.024 5.12 1.536 1.536.512 3.072 1.28 4.608 1.792.512.256.768.256 1.28.512 1.28.512 2.304 1.024 3.328 1.536.512.256.768.512 1.28.768 1.024.512 2.304 1.28 3.328 1.792.256.256.768.512 1.024.512 2.816 1.792 5.376 3.84 7.936 5.888l.256.256c1.024 1.024 2.304 2.048 3.328 3.072.256.256.512.512.512.768 1.024 1.024 1.792 2.048 2.816 3.072.256.256.256.512.512.512 1.024 1.28 2.048 2.56 2.816 3.84 2.048 2.816 3.584 5.632 5.12 8.704 0 .256.256.256.256.512.768 1.28 1.28 2.816 1.792 4.096 0 .256.256.512.256.768l.768 2.304c0 .256.256.768.256 1.024.512 1.28.768 2.816 1.28 4.096 0 .512.256 1.024.256 1.28.256.768.256 1.536.512 2.048 0 .512.256 1.024.256 1.536.256.768.256 1.792.512 2.56.256 1.024.256 2.048.512 2.816 0 .512 0 1.28.256 1.792 0 .768 0 1.536.256 2.048v11.264c0 1.024-.256 2.048-.256 3.072v1.28c-.256 1.536-.256 2.816-.512 4.352 0 .256-.256.768-.256 1.28-.256 1.024-.512 2.304-.768 3.584 0 .512-.256.768-.256 1.28-.256 1.536-.768 3.072-1.024 4.608-.512 1.792-1.024 3.328-1.28 4.864-6.4 22.272-11.776 34.048-2.56 39.68.768.512 1.28.768 2.304 1.28l2.304.768h.768c.512 0 1.024.256 1.536.256h1.536c.512 0 .768-.256 1.28-.256.256 0 .256 0 .512-.256.512-.256 1.28-.512 1.792-.768s1.024-.512 1.792-1.024c.256 0 .512-.256.512-.512.512-.256.768-.512 1.28-.768.256-.256.512-.256.768-.512s.768-.768 1.28-1.024l.768-.768 1.28-1.28.768-.768c.512-.512 1.024-1.024 1.536-1.792l.512-.512c.768-.768 1.28-1.536 2.048-2.56.256-.256.256-.512.512-.768.512-.768 1.024-1.28 1.536-2.048.256-.256.512-.768.768-1.024.512-.768 1.024-1.28 1.536-2.048.256-.512.768-.768 1.024-1.28l1.536-2.304c.256-.512.768-.768 1.024-1.28.768-.768 1.28-1.792 2.048-2.816 1.024-1.536 2.304-3.072 3.584-4.864 1.024-1.536 2.048-2.816 3.328-4.096 3.84-4.608 7.68-8.704 12.032-12.288 1.28-1.024 2.816-2.304 4.096-3.328 10.496-7.936 21.76-12.8 33.536-14.08 1.28-.256 2.816-.256 4.096-.512 1.28 0 2.816-.256 4.096-.256 5.632 0 11.008.768 16.384 2.048 4.096 1.024 8.192 2.56 12.032 4.352 2.56 1.28 5.12 2.816 7.68 4.352 1.28.768 2.56 1.792 3.84 2.56 2.56 1.792 4.864 3.84 7.424 5.888 4.864 4.352 9.216 9.472 13.568 15.104 1.024 1.28 2.048 2.56 2.816 4.096.256.512.512.768 1.024 1.28.512.768 1.28 1.792 1.792 2.56s1.28 1.792 1.792 2.56c.512.512.768 1.28 1.28 1.792.512.768 1.024 1.28 1.536 2.048.256.512.512.768.768 1.28.512.768 1.28 1.536 1.792 2.304 0 .256.256.256.256.512.768 1.024 1.28 1.792 2.048 2.56.256.256.512.512.512.768.512.512.768 1.024 1.28 1.536l.768.768 1.28 1.28.768.768 1.024 1.024.512.512c.512.512 1.024.768 1.28 1.024.256 0 .256.256.512.256.512.512 1.024.768 1.792 1.024.256 0 .256.256.512.256.512.256.768.256 1.28.512.256 0 .512 0 .768.256.512 0 .768.256 1.28.256H606.72c.512 0 1.28-.256 1.792-.256.256 0 .256 0 .512-.256.768-.256 1.28-.512 2.048-.768s1.536-.768 2.048-1.024c.256 0 .256-.256.512-.256.512-.256 1.024-.768 1.28-1.024s.512-.256.512-.512.512-.512.768-.768c-.256 1.024-.256.768 0 .512zm-61.184-200.192c-1.28 1.28-2.816 2.304-4.352 3.328-5.888 3.584-12.8 5.888-20.48 5.888-21.248 0-38.656-17.408-38.656-38.656 0-10.752 4.352-20.224 11.264-27.392l.256-.256c2.304-2.304 4.608-4.096 7.424-5.632 5.888-3.328 12.544-5.376 19.712-5.376 21.248 0 38.656 17.408 38.656 38.656 0 11.776-5.376 22.272-13.824 29.44zm-102.656 66.816c-4.352-3.072-7.936-7.424-9.728-12.544-.256-.512-.256-1.024-.512-1.536-.512-2.048-1.024-4.352-1.024-6.912 0-10.496 6.4-19.2 15.36-23.04 3.072-1.28 6.4-2.048 9.728-2.048 13.824 0 25.088 11.264 25.088 25.088S480 632.661 466.176 632.661c-3.584 0-6.656-.768-9.728-2.048-1.28-.256-2.816-1.024-4.096-2.048zm567.296 147.2c-2.56-83.968-98.816-269.056-155.648-382.72s-98.816-123.392-163.072-123.392c-60.16 0-89.856 77.824-93.44 142.336 5.376-.768 11.008-2.816 16.64-5.888 2.56-1.28 4.864-2.56 7.168-3.84 17.152-9.216 30.72-16.64 47.36-16.64 14.336 0 27.904 5.888 37.888 16.896 15.104 16.384 17.664 38.4 7.168 58.624-4.864 9.472-12.032 17.408-20.736 27.136a932.512 932.512 0 0 1-6.912 7.68c-9.728 11.008-13.568 22.528-11.52 32.512 2.304 9.984 11.008 18.432 24.32 24.32 4.096 1.792 7.936 3.328 11.52 4.864 11.264 4.608 20.992 8.448 29.696 15.104 17.408 13.312 24.064 33.792 18.176 54.784-4.352 15.104-14.336 26.624-28.16 33.024-10.752 4.864-21.504 5.376-29.696 5.376-5.376 0-11.008-.256-17.408-.768-3.072-.256-6.144-.256-9.728-.512h-3.072c-13.312 0-24.064 4.096-29.696 11.776-6.144 7.936-7.168 19.968-3.584 33.792 1.28 4.864 2.816 9.216 4.096 13.568 3.584 11.264 6.656 20.992 6.4 32 0 18.944-9.216 34.56-25.6 44.032 50.688 113.152 156.16 107.776 216.064 116.48 160 22.272 174.08-56.576 171.776-140.544zm-648.192-20.992c.256-10.752 3.072-20.48 6.656-32 1.28-4.096 2.56-8.192 3.84-12.8 3.84-13.824 2.56-25.856-3.584-33.792-5.888-7.68-16.384-11.776-29.696-11.776H345.6c-4.608.256-8.704.512-12.8.768-5.888.512-11.52.768-16.896.768-44.032 0-53.76-32-55.808-41.728-4.096-20.736 3.584-39.68 20.992-52.736 8.704-6.4 18.944-10.752 31.744-16.128 2.304-1.024 4.864-2.048 7.424-3.072 13.312-5.632 22.016-14.336 24.32-24.32s-1.792-21.504-11.52-32.512c-3.072-3.328-5.632-6.4-8.448-9.472-8.192-8.96-15.104-16.64-19.968-26.368-9.472-18.944-6.912-39.68 6.4-56.064 9.984-12.032 23.808-18.688 39.168-18.688 16.384 0 29.696 7.168 46.336 16.384 2.56 1.28 5.12 2.816 8.192 4.352 4.608 2.56 8.96 4.096 13.312 5.12-3.84-64.512-33.536-141.824-93.44-141.824-64.256 0-106.24 9.984-163.072 123.392S8.448 691.797 5.888 775.765s39.424 173.056 171.52 140.288c48.128-12.032 166.656-3.072 216.832-117.76-14.592-9.472-23.04-25.344-22.784-43.52zm143.36-444.928c16.896 0 32.256 7.68 42.752 20.224V163.413c0-19.456-16.128-35.584-35.584-35.584h-14.08c-19.456 0-35.584 16.128-35.584 35.584v166.144c11.008-12.288 26.112-19.712 42.496-19.712z"/></svg>