<!-- Generated by IcoMoon.io -->
<svg version="1.1" xmlns="http://www.w3.org/2000/svg" width="24" height="24" viewBox="0 0 24 24">
<title>coronavirus</title>
<path d="M14.442 17.358c0-0.006 0.006-0.012 0.006-0.012 0.006-0.012 0.012-0.024 0.018-0.042 0 0 0-0.006 0-0.006 0.036-0.12-0.012-0.282-0.084-0.51-0.006-0.024-0.018-0.048-0.024-0.072s-0.018-0.054-0.024-0.084c0-0.012-0.006-0.018-0.006-0.030-0.006-0.024-0.012-0.048-0.024-0.072-0.006-0.012-0.006-0.024-0.012-0.030-0.012-0.036-0.018-0.072-0.030-0.108-0.012-0.042-0.024-0.090-0.030-0.132 0-0.012-0.006-0.024-0.006-0.036-0.006-0.030-0.012-0.060-0.018-0.090 0-0.012-0.006-0.024-0.006-0.042-0.006-0.030-0.006-0.060-0.012-0.090 0-0.012 0-0.024-0.006-0.036 0-0.030-0.006-0.066-0.006-0.096 0-0.006 0-0.018 0-0.024 0-0.036 0-0.078 0-0.114 0 0 0-0.006 0-0.006 0.006-0.126 0.024-0.246 0.048-0.36 0.066-0.27 0.198-0.51 0.378-0.696 0 0 0.006-0.006 0.006-0.006 0.030-0.030 0.060-0.060 0.090-0.090 0 0 0 0 0 0 0.036-0.030 0.066-0.054 0.102-0.084 0 0 0 0 0 0 0.030-0.024 0.066-0.048 0.102-0.066 0.006-0.006 0.012-0.006 0.018-0.012 0.036-0.024 0.072-0.042 0.108-0.060 0 0 0 0 0.006 0 0.042-0.018 0.078-0.036 0.12-0.054 0.006-0.006 0.018-0.006 0.024-0.006 0.036-0.012 0.066-0.024 0.102-0.036 0.012-0.006 0.018-0.006 0.030-0.012 0.084-0.024 0.174-0.048 0.27-0.060 0.012 0 0.024-0.006 0.036-0.006 0.036-0.006 0.072-0.006 0.108-0.012 0.012 0 0.024 0 0.036-0.006 0.048-0.006 0.096-0.006 0.144-0.006 0.036 0 0.078 0 0.114 0s0.078 0.006 0.114 0.006c0.012 0 0.024 0 0.036 0 0.030 0 0.054 0 0.084 0.006 0.036 0 0.072 0.006 0.102 0.006 0.006 0 0.006 0 0.012 0 0.024 0 0.048 0 0.072 0.006 0.006 0 0.018 0 0.024 0 0.024 0 0.042 0 0.066 0 0.006 0 0.012 0 0.018 0 0.024 0 0.042 0 0.066 0 0 0 0.006 0 0.006 0 0.006 0 0.006 0 0.012 0 0.018 0 0.042 0 0.060 0 0.006 0 0.006 0 0.012 0 0.018 0 0.042 0 0.060-0.006 0.006 0 0.006 0 0.012 0 0.018 0 0.036-0.006 0.054-0.006 0 0 0 0 0 0 0.018-0.006 0.030-0.006 0.048-0.012 0.006 0 0.006 0 0.012-0.006 0.012-0.006 0.030-0.012 0.042-0.018 0 0 0.006 0 0.006 0 0.012-0.006 0.024-0.012 0.036-0.018 0 0 0.006-0.006 0.006-0.006 0.012-0.006 0.024-0.018 0.030-0.024 0 0 0.006-0.006 0.006-0.006 0.006-0.006 0.018-0.018 0.024-0.030 0 0 0-0.006 0.006-0.006 0.006-0.012 0.012-0.024 0.018-0.036 0-0.006 0-0.006 0.006-0.012 0.006-0.012 0.012-0.030 0.018-0.048 0.012-0.042 0.018-0.072 0.012-0.108-0.006-0.114-0.090-0.192-0.24-0.27-0.132-0.066-0.306-0.132-0.522-0.222-0.036-0.018-0.072-0.030-0.114-0.048-0.036-0.018-0.078-0.036-0.114-0.054s-0.072-0.036-0.108-0.054-0.138-0.078-0.198-0.12c-0.156-0.108-0.288-0.234-0.39-0.366-0.042-0.054-0.084-0.108-0.114-0.168-0.072-0.114-0.12-0.234-0.162-0.36-0.018-0.060-0.030-0.126-0.042-0.192s-0.018-0.126-0.018-0.192c-0.006-0.228 0.036-0.468 0.138-0.696 0.012-0.036 0.030-0.066 0.048-0.102 0.030-0.066 0.072-0.132 0.108-0.198 0.060-0.096 0.132-0.192 0.216-0.288 0.054-0.066 0.108-0.12 0.156-0.174 0.15-0.162 0.264-0.294 0.336-0.408 0.024-0.036 0.042-0.072 0.054-0.102 0.042-0.102 0.030-0.186-0.048-0.27 0 0 0 0 0 0-0.012-0.012-0.024-0.024-0.036-0.030 0 0-0.006-0.006-0.006-0.006-0.012-0.006-0.024-0.018-0.036-0.024 0 0-0.006 0-0.006-0.006-0.012-0.006-0.024-0.012-0.036-0.018 0 0 0 0-0.006 0-0.012-0.006-0.024-0.006-0.042-0.012 0 0-0.006 0-0.006 0-0.012 0-0.024 0-0.036 0 0 0 0 0-0.006 0 0 0-0.006 0-0.006 0-0.012 0-0.024 0-0.036 0.006-0.006 0-0.006 0-0.012 0-0.018 0-0.030 0.006-0.048 0.012 0 0-0.006 0-0.006 0-0.018 0.006-0.030 0.012-0.048 0.012-0.006 0-0.012 0.006-0.012 0.006-0.018 0.006-0.030 0.012-0.048 0.018 0 0-0.006 0-0.006 0-0.018 0.006-0.042 0.018-0.060 0.024-0.006 0-0.012 0.006-0.018 0.006-0.018 0.006-0.036 0.018-0.054 0.024-0.006 0-0.006 0.006-0.012 0.006-0.024 0.012-0.048 0.024-0.072 0.036-0.006 0.006-0.012 0.006-0.018 0.012-0.018 0.012-0.042 0.024-0.060 0.036-0.006 0.006-0.012 0.006-0.018 0.012-0.030 0.018-0.060 0.030-0.090 0.048-0.018 0.012-0.042 0.024-0.060 0.036-0.012 0.006-0.024 0.012-0.036 0.018-0.030 0.018-0.060 0.036-0.096 0.054 0 0 0 0 0 0s0 0 0 0c-0.036 0.018-0.072 0.036-0.108 0.054-0.018 0.006-0.030 0.012-0.048 0.024s-0.042 0.018-0.060 0.024c-0.018 0.006-0.042 0.018-0.060 0.024-0.012 0.006-0.030 0.012-0.042 0.018-0.024 0.006-0.048 0.018-0.072 0.024-0.012 0.006-0.024 0.006-0.036 0.012-0.024 0.006-0.054 0.012-0.078 0.024-0.006 0-0.018 0.006-0.024 0.006-0.030 0.006-0.054 0.012-0.084 0.018-0.006 0-0.012 0.006-0.024 0.006-0.030 0.006-0.054 0.012-0.084 0.012-0.006 0-0.012 0-0.018 0-0.030 0.006-0.054 0.006-0.084 0.006-0.006 0-0.012 0-0.018 0-0.036 0-0.078 0.006-0.114 0.006-0.006 0-0.006 0-0.012 0-0.042 0-0.084 0-0.132-0.006-0.012 0-0.024 0-0.036-0.006-0.036-0.006-0.072-0.006-0.108-0.012-0.006 0-0.018 0-0.024-0.006-0.042-0.006-0.084-0.018-0.12-0.030-0.012 0-0.018-0.006-0.030-0.006-0.030-0.012-0.066-0.018-0.096-0.030-0.012-0.006-0.018-0.006-0.030-0.012-0.036-0.012-0.078-0.030-0.114-0.048-0.006-0.006-0.012-0.006-0.024-0.012-0.030-0.018-0.060-0.030-0.090-0.048-0.012-0.006-0.018-0.012-0.030-0.018-0.036-0.024-0.072-0.048-0.102-0.072 0 0-0.006-0.006-0.006-0.006-0.030-0.024-0.060-0.048-0.090-0.072-0.006-0.006-0.018-0.018-0.024-0.024-0.030-0.024-0.054-0.054-0.078-0.078-0.006-0.006-0.006-0.006-0.012-0.012-0.030-0.030-0.054-0.066-0.084-0.102-0.006-0.012-0.012-0.018-0.024-0.030-0.024-0.030-0.042-0.060-0.060-0.090-0.006-0.006-0.012-0.018-0.018-0.024-0.024-0.036-0.048-0.078-0.066-0.12-0.006-0.012-0.012-0.018-0.012-0.030-0.018-0.036-0.036-0.066-0.048-0.102-0.006-0.012-0.012-0.024-0.012-0.036-0.018-0.042-0.036-0.090-0.054-0.138 0-0.006-0.006-0.018-0.006-0.024-0.012-0.042-0.024-0.084-0.036-0.126-0.006-0.012-0.006-0.024-0.012-0.042-0.012-0.048-0.024-0.102-0.036-0.156-0.006-0.018-0.006-0.042-0.012-0.060 0-0.018-0.006-0.036-0.006-0.048 0-0.018-0.006-0.030-0.006-0.048-0.006-0.018-0.006-0.036-0.012-0.054 0-0.006 0-0.018-0.006-0.024-0.006-0.042-0.012-0.084-0.018-0.12 0-0.018-0.006-0.030-0.006-0.048s-0.006-0.036-0.006-0.048c0-0.012-0.006-0.024-0.006-0.036 0-0.018-0.006-0.030-0.006-0.048 0-0.012-0.006-0.024-0.006-0.036s-0.006-0.030-0.012-0.042c0-0.012-0.006-0.024-0.006-0.030-0.006-0.012-0.006-0.024-0.012-0.036 0-0.012-0.006-0.018-0.006-0.030-0.006-0.012-0.006-0.024-0.012-0.030-0.006-0.012-0.006-0.018-0.012-0.030s-0.006-0.018-0.012-0.030c-0.006-0.006-0.006-0.018-0.012-0.024s-0.006-0.018-0.012-0.024c-0.006-0.006-0.006-0.012-0.012-0.024-0.006-0.006-0.012-0.012-0.018-0.018s-0.012-0.012-0.012-0.018c-0.006-0.006-0.012-0.012-0.018-0.018s-0.012-0.012-0.018-0.012c-0.006-0.006-0.012-0.006-0.018-0.012s-0.012-0.006-0.018-0.012c-0.006 0-0.012-0.006-0.024-0.006-0.006 0-0.012-0.006-0.024-0.006-0.006 0-0.018 0-0.024 0s-0.012 0-0.024 0c0 0-0.006 0-0.006 0-0.204 0.006-0.282 0.090-0.342 0.288-0.042 0.156-0.072 0.378-0.126 0.69-0.012 0.054-0.024 0.102-0.036 0.156-0.006 0.012-0.006 0.024-0.012 0.042-0.012 0.042-0.024 0.084-0.036 0.126 0 0.006-0.006 0.012-0.006 0.024-0.018 0.048-0.036 0.090-0.054 0.138-0.006 0.012-0.012 0.024-0.012 0.030-0.018 0.036-0.030 0.072-0.048 0.102-0.006 0.012-0.012 0.018-0.012 0.030-0.024 0.042-0.042 0.078-0.066 0.12-0.006 0.006-0.012 0.018-0.018 0.024-0.018 0.030-0.042 0.060-0.066 0.090-0.006 0.006-0.012 0.018-0.018 0.024-0.030 0.036-0.054 0.066-0.084 0.102-0.006 0.006-0.006 0.006-0.012 0.012-0.024 0.030-0.054 0.054-0.084 0.084-0.006 0.006-0.018 0.018-0.024 0.024-0.030 0.024-0.060 0.054-0.090 0.078 0 0-0.006 0.006-0.006 0.006-0.036 0.024-0.066 0.048-0.102 0.072-0.012 0.006-0.018 0.012-0.030 0.018-0.030 0.018-0.060 0.036-0.090 0.048-0.006 0.006-0.012 0.006-0.018 0.012-0.036 0.018-0.072 0.036-0.114 0.048-0.012 0.006-0.018 0.006-0.030 0.012-0.030 0.012-0.066 0.024-0.096 0.030-0.012 0-0.018 0.006-0.030 0.006-0.042 0.012-0.078 0.018-0.12 0.030-0.006 0-0.018 0-0.024 0.006-0.036 0.006-0.072 0.012-0.108 0.012-0.012 0-0.024 0-0.036 0.006-0.042 0.006-0.084 0.006-0.132 0.006-0.006 0-0.018 0-0.024 0-0.060 0-0.12-0.006-0.18-0.012-0.090-0.012-0.18-0.030-0.27-0.054-0.006 0-0.012-0.006-0.018-0.006-0.024-0.006-0.048-0.012-0.072-0.024-0.012-0.006-0.024-0.006-0.036-0.012-0.018-0.006-0.042-0.012-0.060-0.024-0.018-0.006-0.030-0.012-0.048-0.018s-0.036-0.012-0.054-0.024c-0.018-0.006-0.042-0.018-0.060-0.030-0.012-0.006-0.030-0.012-0.042-0.018-0.036-0.018-0.066-0.036-0.102-0.054s-0.066-0.036-0.096-0.054c-0.006-0.006-0.018-0.012-0.024-0.012-0.024-0.012-0.054-0.030-0.078-0.042-0.030-0.018-0.060-0.030-0.084-0.048-0.006-0.006-0.018-0.006-0.024-0.012-0.018-0.012-0.042-0.024-0.060-0.030-0.006-0.006-0.012-0.006-0.018-0.012-0.024-0.012-0.048-0.024-0.072-0.036-0.006 0-0.012-0.006-0.018-0.006-0.018-0.012-0.036-0.018-0.054-0.024-0.006 0-0.012-0.006-0.018-0.006-0.018-0.012-0.042-0.018-0.060-0.030-0.006 0-0.006 0-0.012-0.006-0.018-0.006-0.030-0.012-0.048-0.018-0.006 0-0.012-0.006-0.018-0.006-0.018-0.006-0.036-0.012-0.054-0.018 0 0 0 0 0 0-0.018-0.006-0.030-0.006-0.048-0.012-0.006 0-0.006 0-0.012 0-0.012 0-0.024-0.006-0.042-0.006 0 0-0.006 0-0.006 0s0 0 0 0c-0.012 0-0.024 0-0.042 0.006 0 0-0.006 0-0.006 0-0.012 0-0.024 0.006-0.036 0.012 0 0 0 0-0.006 0-0.012 0.006-0.024 0.012-0.036 0.018 0 0-0.006 0-0.006 0.006-0.012 0.006-0.024 0.018-0.036 0.024 0 0-0.006 0.006-0.006 0.006-0.012 0.012-0.024 0.024-0.030 0.036-0.024 0.030-0.048 0.066-0.054 0.096-0.030 0.078-0.018 0.15 0.030 0.24 0.018 0.036 0.042 0.072 0.072 0.108 0.012 0.018 0.030 0.036 0.048 0.060 0.084 0.102 0.198 0.222 0.324 0.366 0.024 0.030 0.054 0.060 0.078 0.090 0.162 0.186 0.288 0.384 0.372 0.588 0.054 0.132 0.096 0.27 0.114 0.402 0.048 0.3 0.012 0.594-0.108 0.864-0.012 0.030-0.030 0.060-0.042 0.090-0.060 0.114-0.138 0.228-0.234 0.33-0.186 0.21-0.432 0.384-0.744 0.516-0.198 0.084-0.36 0.15-0.492 0.21-0.054 0.024-0.096 0.048-0.138 0.072-0.144 0.084-0.222 0.162-0.234 0.27-0.006 0.030 0 0.066 0.006 0.102 0 0 0 0 0 0 0.006 0.024 0.012 0.042 0.018 0.060 0 0.006 0.006 0.012 0.006 0.018 0.006 0.012 0.012 0.024 0.018 0.030s0.006 0.012 0.012 0.018c0.006 0.006 0.012 0.018 0.024 0.024 0.006 0.006 0.012 0.006 0.012 0.012 0.006 0.006 0.018 0.012 0.024 0.018s0.012 0.006 0.018 0.012 0.024 0.012 0.036 0.012c0.006 0 0.012 0.006 0.018 0.006 0.018 0.006 0.036 0.006 0.054 0.012 0 0 0.006 0 0.006 0 0.024 0.006 0.042 0.006 0.066 0.006 0.006 0 0.018 0 0.024 0 0.018 0 0.036 0 0.054 0 0.006 0 0.006 0 0.006 0 0.012 0 0.024 0 0.036 0 0.006 0 0.012 0 0.024 0 0.024 0 0.048 0 0.078 0 0 0 0.006 0 0.006 0 0.024 0 0.048 0 0.078-0.006 0.012 0 0.024 0 0.036 0 0.018 0 0.042 0 0.066-0.006 0.024 0 0.048-0.006 0.078-0.006 0.012 0 0.030 0 0.042 0 0.024 0 0.048 0 0.072-0.006 0.012 0 0.024 0 0.036 0 0.036 0 0.072-0.006 0.114-0.006s0.078 0 0.114 0c0.048 0 0.090 0 0.138 0.006 0.012 0 0.024 0 0.036 0 0.036 0 0.066 0.006 0.102 0.012 0.012 0 0.030 0.006 0.042 0.006 0.030 0.006 0.060 0.006 0.084 0.012 0.012 0 0.030 0.006 0.042 0.006 0.030 0.006 0.060 0.012 0.090 0.018 0.012 0 0.024 0.006 0.030 0.006 0.042 0.012 0.078 0.024 0.12 0.036 0 0 0 0 0 0 0.036 0.012 0.072 0.030 0.108 0.042 0.012 0.006 0.018 0.006 0.030 0.012 0.030 0.012 0.054 0.024 0.078 0.036 0.012 0.006 0.018 0.012 0.030 0.018 0.024 0.012 0.054 0.030 0.078 0.042 0.006 0.006 0.018 0.012 0.024 0.012 0.066 0.042 0.126 0.090 0.186 0.138 0 0 0.006 0.006 0.006 0.006 0.024 0.024 0.054 0.048 0.078 0.072 0.006 0.006 0.012 0.012 0.012 0.018 0.024 0.024 0.042 0.048 0.066 0.072 0.006 0.006 0.006 0.012 0.012 0.012 0.024 0.030 0.048 0.060 0.066 0.090 0 0 0 0 0 0 0.048 0.066 0.084 0.132 0.12 0.204 0 0.006 0.006 0.006 0.006 0.012 0.018 0.030 0.030 0.066 0.042 0.096 0 0.006 0.006 0.012 0.006 0.018 0.006 0.018 0.012 0.036 0.018 0.054 0 0.006 0.006 0.018 0.006 0.024 0.012 0.030 0.018 0.066 0.030 0.096 0 0.012 0.006 0.024 0.006 0.030 0.006 0.018 0.006 0.036 0.012 0.048 0 0.012 0.006 0.024 0.006 0.036 0.006 0.018 0.006 0.042 0.012 0.060 0.006 0.024 0.006 0.048 0.012 0.066 0 0.012 0 0.030 0.006 0.042 0 0.018 0 0.036 0.006 0.048 0 0.012 0 0.030 0 0.042 0 0.024 0 0.048 0 0.072 0 0.012 0 0.030 0 0.042 0 0.024 0 0.048 0 0.072 0 0.012 0 0.024 0 0.036 0 0.024-0.006 0.048-0.006 0.072 0 0.012 0 0.018 0 0.030-0.006 0.036-0.006 0.066-0.012 0.102 0 0.006-0.006 0.018-0.006 0.030-0.006 0.024-0.012 0.054-0.018 0.084 0 0.012-0.006 0.018-0.006 0.030-0.006 0.036-0.018 0.072-0.024 0.108-0.012 0.042-0.024 0.078-0.030 0.114-0.15 0.522-0.276 0.798-0.060 0.93 0.018 0.012 0.030 0.018 0.054 0.030 0.018 0.006 0.036 0.012 0.054 0.018 0.006 0 0.012 0 0.018 0 0.012 0 0.024 0.006 0.036 0.006 0 0 0.006 0 0.006 0 0.006 0 0.012 0 0.012 0 0.006 0 0.012 0 0.018 0 0.012 0 0.018-0.006 0.030-0.006 0.006 0 0.006 0 0.012-0.006 0.012-0.006 0.030-0.012 0.042-0.018 0 0 0 0 0 0 0.012-0.006 0.024-0.012 0.042-0.024 0.006 0 0.012-0.006 0.012-0.012 0.012-0.006 0.018-0.012 0.030-0.018 0.006-0.006 0.012-0.006 0.018-0.012s0.018-0.018 0.030-0.024c0.006-0.006 0.012-0.012 0.018-0.018 0.012-0.012 0.018-0.018 0.030-0.030 0.006-0.006 0.012-0.012 0.018-0.018 0.012-0.012 0.024-0.024 0.036-0.042 0.006-0.006 0.006-0.006 0.012-0.012 0.018-0.018 0.030-0.036 0.048-0.060 0.006-0.006 0.006-0.012 0.012-0.018 0.012-0.018 0.024-0.030 0.036-0.048 0.006-0.006 0.012-0.018 0.018-0.024 0.012-0.018 0.024-0.030 0.036-0.048 0.006-0.012 0.018-0.018 0.024-0.030 0.012-0.018 0.024-0.036 0.036-0.054 0.006-0.012 0.018-0.018 0.024-0.030 0.018-0.018 0.030-0.042 0.048-0.066 0.024-0.036 0.054-0.072 0.084-0.114 0.024-0.036 0.048-0.066 0.078-0.096 0.090-0.108 0.18-0.204 0.282-0.288 0.030-0.024 0.066-0.054 0.096-0.078 0.246-0.186 0.51-0.3 0.786-0.33 0.030-0.006 0.066-0.006 0.096-0.012 0.030 0 0.066-0.006 0.096-0.006 0.132 0 0.258 0.018 0.384 0.048 0.096 0.024 0.192 0.060 0.282 0.102 0.060 0.030 0.12 0.066 0.18 0.102 0.030 0.018 0.060 0.042 0.090 0.060 0.060 0.042 0.114 0.090 0.174 0.138 0.114 0.102 0.216 0.222 0.318 0.354 0.024 0.030 0.048 0.060 0.066 0.096 0.006 0.012 0.012 0.018 0.024 0.030 0.012 0.018 0.030 0.042 0.042 0.060s0.030 0.042 0.042 0.060c0.012 0.012 0.018 0.030 0.030 0.042 0.012 0.018 0.024 0.030 0.036 0.048 0.006 0.012 0.012 0.018 0.018 0.030 0.012 0.018 0.030 0.036 0.042 0.054 0 0.006 0.006 0.006 0.006 0.012 0.018 0.024 0.030 0.042 0.048 0.060 0.006 0.006 0.012 0.012 0.012 0.018 0.012 0.012 0.018 0.024 0.030 0.036 0.006 0.006 0.012 0.012 0.018 0.018 0.012 0.012 0.018 0.018 0.030 0.030 0.006 0.006 0.012 0.012 0.018 0.018 0.012 0.012 0.018 0.018 0.024 0.024s0.012 0.012 0.012 0.012c0.012 0.012 0.024 0.018 0.030 0.024 0.006 0 0.006 0.006 0.012 0.006 0.012 0.012 0.024 0.018 0.042 0.024 0.006 0 0.006 0.006 0.012 0.006 0.012 0.006 0.018 0.006 0.030 0.012 0.006 0 0.012 0 0.018 0.006 0.012 0 0.018 0.006 0.030 0.006 0.006 0 0.012 0 0.018 0s0.006 0 0.012 0 0.018 0 0.024 0c0 0 0.006 0 0.006 0 0.012 0 0.030-0.006 0.042-0.006 0.006 0 0.006 0 0.012-0.006 0.018-0.006 0.030-0.012 0.048-0.018 0 0 0 0 0 0s0 0 0 0c0.018-0.006 0.036-0.018 0.048-0.024 0.006 0 0.006-0.006 0.012-0.006 0.012-0.006 0.024-0.018 0.030-0.024s0.012-0.006 0.012-0.012 0.012-0.012 0.018-0.018c-0.006 0.024-0.006 0.018 0 0.012zM13.008 12.666c-0.030 0.030-0.066 0.054-0.102 0.078-0.138 0.084-0.3 0.138-0.48 0.138-0.498 0-0.906-0.408-0.906-0.906 0-0.252 0.102-0.474 0.264-0.642 0 0 0.006-0.006 0.006-0.006 0.054-0.054 0.108-0.096 0.174-0.132 0.138-0.078 0.294-0.126 0.462-0.126 0.498 0 0.906 0.408 0.906 0.906 0 0.276-0.126 0.522-0.324 0.69zM10.602 14.232c-0.102-0.072-0.186-0.174-0.228-0.294-0.006-0.012-0.006-0.024-0.012-0.036-0.012-0.048-0.024-0.102-0.024-0.162 0-0.246 0.15-0.45 0.36-0.54 0.072-0.030 0.15-0.048 0.228-0.048 0.324 0 0.588 0.264 0.588 0.588s-0.264 0.588-0.588 0.588c-0.084 0-0.156-0.018-0.228-0.048-0.030-0.006-0.066-0.024-0.096-0.048z"></path>
<path d="M23.898 17.682c-0.060-1.968-2.316-6.306-3.648-8.97s-2.316-2.892-3.822-2.892c-1.41 0-2.106 1.824-2.19 3.336 0.126-0.018 0.258-0.066 0.39-0.138 0.060-0.030 0.114-0.060 0.168-0.090 0.402-0.216 0.72-0.39 1.11-0.39 0.336 0 0.654 0.138 0.888 0.396 0.354 0.384 0.414 0.9 0.168 1.374-0.114 0.222-0.282 0.408-0.486 0.636-0.048 0.054-0.102 0.114-0.162 0.18-0.228 0.258-0.318 0.528-0.27 0.762 0.054 0.234 0.258 0.432 0.57 0.57 0.096 0.042 0.186 0.078 0.27 0.114 0.264 0.108 0.492 0.198 0.696 0.354 0.408 0.312 0.564 0.792 0.426 1.284-0.102 0.354-0.336 0.624-0.66 0.774-0.252 0.114-0.504 0.126-0.696 0.126-0.126 0-0.258-0.006-0.408-0.018-0.072-0.006-0.144-0.006-0.228-0.012-0.024 0-0.048 0-0.072 0-0.312 0-0.564 0.096-0.696 0.276-0.144 0.186-0.168 0.468-0.084 0.792 0.030 0.114 0.066 0.216 0.096 0.318 0.084 0.264 0.156 0.492 0.15 0.75 0 0.444-0.216 0.81-0.6 1.032 1.188 2.652 3.66 2.526 5.064 2.73 3.75 0.522 4.080-1.326 4.026-3.294z"></path>
<path d="M8.706 17.19c0.006-0.252 0.072-0.48 0.156-0.75 0.030-0.096 0.060-0.192 0.090-0.3 0.090-0.324 0.060-0.606-0.084-0.792-0.138-0.18-0.384-0.276-0.696-0.276-0.024 0-0.048 0-0.072 0-0.108 0.006-0.204 0.012-0.3 0.018-0.138 0.012-0.27 0.018-0.396 0.018-1.032 0-1.26-0.75-1.308-0.978-0.096-0.486 0.084-0.93 0.492-1.236 0.204-0.15 0.444-0.252 0.744-0.378 0.054-0.024 0.114-0.048 0.174-0.072 0.312-0.132 0.516-0.336 0.57-0.57s-0.042-0.504-0.27-0.762c-0.072-0.078-0.132-0.15-0.198-0.222-0.192-0.21-0.354-0.39-0.468-0.618-0.222-0.444-0.162-0.93 0.15-1.314 0.234-0.282 0.558-0.438 0.918-0.438 0.384 0 0.696 0.168 1.086 0.384 0.060 0.030 0.12 0.066 0.192 0.102 0.108 0.060 0.21 0.096 0.312 0.12-0.090-1.512-0.786-3.324-2.19-3.324-1.506 0-2.49 0.234-3.822 2.892s-3.588 7.020-3.648 8.988 0.924 4.056 4.020 3.288c1.128-0.282 3.906-0.072 5.082-2.76-0.342-0.222-0.54-0.594-0.534-1.020z"></path>
<path d="M12.066 6.762c0.396 0 0.756 0.18 1.002 0.474v-3.906c0-0.456-0.378-0.834-0.834-0.834h-0.33c-0.456 0-0.834 0.378-0.834 0.834v3.894c0.258-0.288 0.612-0.462 0.996-0.462z"></path>
</svg>
