<svg xmlns="http://www.w3.org/2000/svg" viewBox="0 0 1024 1024"><path d="M669.952 539.477c7.68 0 52.48-12.032 52.736-41.984.256-19.968-73.472-96.512-73.472-117.504s2.048-44.544-1.792-79.872c-4.864-44.288-15.36-94.208-35.328-120.32-29.952-39.168-82.944-111.36-263.68-121.856C164.864 47.189-.256 205.397 24.576 432.725c9.472 87.552 40.704 131.072 78.848 226.56C150.528 776.277 69.12 848.469 69.12 848.469c45.568 11.264 146.688 21.248 310.784 176.128 0 0 14.08-82.688 49.664-154.112 35.584-71.168 68.864-51.968 134.912-51.968s79.872-33.28 65.024-78.848c-4.352-13.056 8.96-21.76 11.52-37.632 1.024-7.168 4.864-15.616-18.432-37.376-7.68-7.168-34.304-10.752-30.464-34.56 2.304-15.104 49.664-15.616 68.352-26.112 22.272-12.544 9.984-41.728 7.936-47.36s-6.144-17.152 1.536-17.152zm77.824 83.456c-16.896-4.096-33.792 6.144-37.888 23.04s6.144 33.792 23.04 37.888c16.896 4.096 33.792-6.144 37.888-23.04 4.352-16.896-6.144-33.792-23.04-37.888zm86.528-4.096c12.8 8.448 29.952 5.12 38.4-7.68s5.12-29.952-7.68-38.4c-12.8-8.448-29.952-5.12-38.4 7.68-8.448 12.544-4.864 29.952 7.68 38.4zm132.608 82.176c16.128 0 29.44-13.056 29.44-29.44 0-16.128-13.056-29.44-29.44-29.44s-29.44 13.056-29.44 29.44c0 16.128 13.056 29.44 29.44 29.44zm31.744-142.848c0 15.27-12.378 27.648-27.648 27.648s-27.648-12.378-27.648-27.648 12.378-27.648 27.648-27.648 27.648 12.378 27.648 27.648zM867.042 677.5c15.929 8.589 21.88 28.465 13.291 44.394s-28.465 21.88-44.394 13.291c-15.929-8.589-21.88-28.465-13.291-44.394s28.465-21.88 44.394-13.291zm135.454 114.393c0 18.946-15.358 34.304-34.304 34.304s-34.304-15.358-34.304-34.304 15.358-34.304 34.304-34.304 34.304 15.358 34.304 34.304z"/></svg>