<!-- Generated by IcoMoon.io -->
<svg version="1.1" xmlns="http://www.w3.org/2000/svg" width="24" height="24" viewBox="0 0 24 24">
<title>cover</title>
<path d="M4.050 12.702c-0.036-0.030-0.378-0.174-0.54-0.168-0.090 0-0.198 0.084-0.264 0.162-0.132 0.162-0.078 0.444 0.168 0.672 0.24 0.228 0.636 0.42 0.648 0.438 0.060 0.072-0.72-0.192-2.352-0.276-0.234-0.012-0.414-0.018-0.504-0.030-0.096-0.012-0.186 0.024-0.258 0.096s-0.114 0.174-0.126 0.282c-0.018 0.24 0.126 0.438 0.312 0.462l2.046 0.24c0.018 0.006 0.030 0.018 0.036 0.036 0.024 0.114 0.012 0.234-0.030 0.342-0.006 0.018-0.018 0.030-0.036 0.030l-2.694-0.138c-0.192-0.006-0.354 0.174-0.366 0.408v0.018c0 0.222 0.15 0.414 0.336 0.426l2.886 0.15c0.012 0 0.036 0.018 0.042 0.036 0.030 0.108 0.030 0.216-0.006 0.324-0.006 0.024-0.018 0.036-0.036 0.036h-2.634c-0.192 0-0.36 0.18-0.366 0.408-0.006 0.24 0.156 0.438 0.354 0.438h2.652c0.012 0 0.030 0.018 0.036 0.036 0.036 0.126 0.030 0.27-0.018 0.39-0.012 0.018-0.024 0.030-0.036 0.030h-2.052c-0.192 0-0.354 0.192-0.354 0.426v0.006c0 0.228 0.156 0.42 0.354 0.42h2.814c0.234 0.006 0.054-0.018 1.554-0.018 0.384 0 2.082 0.012 2.082-0.81s0-2.172 0-2.742c0.006-1.122-3.618-2.112-3.648-2.13z"></path>
<path d="M9.378 13.176l8.898-0.222c1.002 0 1.002-0.798 1.002-1.266 0-3.444-2.316-6.24-5.166-6.24s-5.166 2.796-5.166 6.24c0 0.528 0.054 1.044 0.156 1.536 0.084-0.030 0.174-0.048 0.276-0.048z"></path>
<path d="M20.478 13.716l-10.998 0.27c-0.552 0-1.002 0.45-1.002 1.002v2.394c0 0.552 0.45 1.002 1.002 1.002l11.178 0.402c1.77 0 3.12-1.074 3.12-2.538 0-1.458-1.206-2.532-3.3-2.532z"></path>
<path d="M22.032 10.044c0 0.245-0.199 0.444-0.444 0.444s-0.444-0.199-0.444-0.444c0-0.245 0.199-0.444 0.444-0.444s0.444 0.199 0.444 0.444z"></path>
<path d="M23.904 11.094c0 0.209-0.169 0.378-0.378 0.378s-0.378-0.169-0.378-0.378c0-0.209 0.169-0.378 0.378-0.378s0.378 0.169 0.378 0.378z"></path>
<path d="M22.308 12.324c0 0.321-0.261 0.582-0.582 0.582s-0.582-0.261-0.582-0.582c0-0.321 0.261-0.582 0.582-0.582s0.582 0.261 0.582 0.582z"></path>
</svg>
