<svg xmlns="http://www.w3.org/2000/svg" viewBox="0 0 1024 1024"><path d="M172.8 563.285c-1.536-1.28-16.128-7.424-23.04-7.168-3.84 0-8.448 3.584-11.264 6.912-5.632 6.912-3.328 18.944 7.168 28.672 10.24 9.728 27.136 17.92 27.648 18.688 2.56 3.072-30.72-8.192-100.352-11.776-9.984-.512-17.664-.768-21.504-1.28-4.096-.512-7.936 1.024-11.008 4.096s-4.864 7.424-5.376 12.032c-.768 10.24 5.376 18.688 13.312 19.712l87.296 10.24c.768.256 1.28.768 1.536 1.536 1.024 4.864.512 9.984-1.28 14.592-.256.768-.768 1.28-1.536 1.28l-114.944-5.888c-8.192-.256-15.104 7.424-15.616 17.408v.768c0 9.472 6.4 17.664 14.336 18.176l123.136 6.4c.512 0 1.536.768 1.792 1.536 1.28 4.608 1.28 9.216-.256 13.824-.256 1.024-.768 1.536-1.536 1.536H28.928c-8.192 0-15.36 7.68-15.616 17.408-.256 10.24 6.656 18.688 15.104 18.688h113.152c.512 0 1.28.768 1.536 1.536 1.536 5.376 1.28 11.52-.768 16.64-.512.768-1.024 1.28-1.536 1.28H53.248c-8.192 0-15.104 8.192-15.104 18.176v.256c0 9.728 6.656 17.92 15.104 17.92h120.064c9.984.256 2.304-.768 66.304-.768 16.384 0 88.832.512 88.832-34.56V654.165c.256-47.872-154.368-90.112-155.648-90.88zm227.328 20.224l379.648-9.472c42.752 0 42.752-34.048 42.752-54.016 0-146.944-98.816-266.24-220.416-266.24s-220.416 119.296-220.416 266.24c0 22.528 2.304 44.544 6.656 65.536a34.418 34.418 0 0 1 11.776-2.048zm473.6 23.04l-469.248 11.52c-23.552 0-42.752 19.2-42.752 42.752v102.144c0 23.552 19.2 42.752 42.752 42.752l476.928 17.152c75.52 0 133.12-45.824 133.12-108.288 0-62.208-51.456-108.032-140.8-108.032zm66.304-156.672c0 10.462-8.482 18.944-18.944 18.944s-18.944-8.482-18.944-18.944 8.482-18.944 18.944-18.944 18.944 8.482 18.944 18.944zm79.872 44.8c0 8.907-7.221 16.128-16.128 16.128s-16.128-7.221-16.128-16.128 7.221-16.128 16.128-16.128 16.128 7.221 16.128 16.128zm-68.096 52.48c0 13.714-11.118 24.832-24.832 24.832s-24.832-11.118-24.832-24.832 11.118-24.832 24.832-24.832 24.832 11.118 24.832 24.832z"/></svg>