<svg xmlns="http://www.w3.org/2000/svg" viewBox="0 0 1024 1024"><path d="M717.8 540.533l-18.2 35.6-461.4-.2-15.8-26.6-210.8.4c-.2 18.6.4 56.4.8 64 3 42.2 54.8 91.8 82.2 91.8h730.2c85.2-59.2 125.2-83.8 189.4-187l-296.4 22zM63 591.733H35.6v-14.6H63v14.6zm48.2 0H83.6v-14.6h27.6v14.6zm48.2 0h-27.6v-14.6h27.6v14.6zm53.6 0h-27.6v-14.6H213v14.6zm136.8 42.8h-59.2c-13.4 0-24.2-10.8-24.2-24.2H374c0 13.4-10.8 24.2-24.2 24.2zm118.4 0H409c-13.4 0-24.2-10.8-24.2-24.2h107.6c0 13.4-10.8 24.2-24.2 24.2zm118.2 0h-59.2c-13.4 0-24.2-10.8-24.2-24.2h107.6c0 13.4-10.8 24.2-24.2 24.2zm118.4 0h-59.2c-13.4 0-24.2-10.8-24.2-24.2H729c0 13.4-11 24.2-24.2 24.2zm167.4-46.4c-9.4 0-17-7-17-15.8s7.6-15.8 17-15.8 17 7.2 17 15.8-7.6 15.8-17 15.8zm-623.6-34l438 1.4 19.6-33.2 131.2-11-34.6-82.4H139.2l-15 100.2H234l14.6 25zm544.8-48.6h-40v-20h40v20zm-51-60.4h40.2v20h-40.2v-20zm-9 60.4h-40v-20h40v20zm-50.8-60.4h40v20h-40v-20zm-9 60.4h-40v-20h40v20zm-50.8-60.4h40v20h-40v-20zm-9 60.4h-40.2v-20h40.2v20zm-51-60.4h40v20h-40v-20zm-9 60.4h-40v-20h40v20zm-50.8-60.4h40v20h-40v-20zm-9 60.4h-40v-20h40v20zm-51-60.4h40.2v20H443v-20zm-8.8 60.4H394v-20h40.2v20zm-51-60.4h40v20h-40v-20zm-9 60.4h-40v-20h40v20zm-50.8-60.4h40v20h-40v-20zm-9 60.4h-40v-20h40v20zm-51-60.4h40.2v20h-40.2v-20zm-54.6 71.2H141l2.2-13.2h68.2l-2.6 13.2zm4.6-26.8h-67.8l2.2-13.4H216l-2.6 13.4zm5.8-27.4h-67.8l2.2-13.4h68.2l-2.6 13.4zm503.2-97.6H620.2l-3.2-23.4H179.4l-10 72.6h573l-20-49.2zm-485.4 7.6c0 2.8-2.4 5.2-5.2 5.2h-10.4c-2.8 0-5.2-2.4-5.2-5.2v-10.8c0-2.8 2.4-5.2 5.2-5.2h10.4c2.8 0 5.2 2.2 5.2 5.2v10.8zm39.4 0c0 2.8-2.4 5.2-5.2 5.2h-10.4c-2.8 0-5.2-2.4-5.2-5.2v-10.8c0-2.8 2.4-5.2 5.2-5.2h10.4c2.8 0 5.2 2.2 5.2 5.2v10.8zm39.4 0c0 2.8-2.4 5.2-5.2 5.2h-10.4c-2.8 0-5.2-2.4-5.2-5.2v-10.8c0-2.8 2.4-5.2 5.2-5.2h10.4c2.8 0 5.2 2.2 5.2 5.2v10.8zm39.2 0c0 2.8-2.4 5.2-5.2 5.2h-10.4c-2.8 0-5.2-2.4-5.2-5.2v-10.8c0-2.8 2.4-5.2 5.2-5.2h10.4c3 0 5.2 2.2 5.2 5.2v10.8zm39.4 0c0 2.8-2.4 5.2-5.2 5.2h-10.4c-2.8 0-5.2-2.4-5.2-5.2v-10.8c0-2.8 2.4-5.2 5.2-5.2h10.4c2.8 0 5.2 2.2 5.2 5.2v10.8zm39.4 0c0 2.8-2.4 5.2-5.2 5.2h-10.4c-2.8 0-5.2-2.4-5.2-5.2v-10.8c0-2.8 2.4-5.2 5.2-5.2h10.4c2.8 0 5.2 2.2 5.2 5.2v10.8zm39.4 0c0 2.8-2.4 5.2-5.2 5.2h-10.4c-2.8 0-5.2-2.4-5.2-5.2v-10.8c0-2.8 2.4-5.2 5.2-5.2H468c2.8 0 5.2 2.2 5.2 5.2v10.8zm39.4 0c0 2.8-2.4 5.2-5.2 5.2H497c-2.8 0-5.2-2.4-5.2-5.2v-10.8c0-2.8 2.4-5.2 5.2-5.2h10.4c2.8 0 5.2 2.2 5.2 5.2v10.8zm39.2 0c0 2.8-2.4 5.2-5.2 5.2h-10.4c-2.8 0-5.2-2.4-5.2-5.2v-10.8c0-2.8 2.4-5.2 5.2-5.2h10.4c3 0 5.4 2.2 5.2 5.2v10.8zm39.4 0c0 2.8-2.4 5.2-5.2 5.2h-10.4c-2.8 0-5.2-2.4-5.2-5.2v-10.8c0-2.8 2.4-5.2 5.2-5.2H586c3 0 5.2 2.2 5.2 5.2v10.8zm-8.4-45.6l-34.6-65.8-21.8-2 10.8 67.8zm-131.8 0l-34.6-65.8-21.8-2 10.8 67.8zm-124.4 0l-34.6-65.8-21.6-2 10.8 67.8z"/></svg>