<!-- Generated by IcoMoon.io -->
<svg version="1.1" xmlns="http://www.w3.org/2000/svg" width="24" height="24" viewBox="0 0 24 24">
<title>cubes</title>
<path d="M17.46 9.702l0.006-6.486-5.598-1.428-5.586 1.698v6.15l-5.784 2.256v6.492l6.126 2.976 5.28-2.514 5.952 2.562 5.454-2.832v-6.684l-5.85-2.19zM1.134 12.030l5.148-1.812 5.040 1.878-4.908 2.142-5.28-2.208zM11.754 18.576l-5.13 2.226v-6.198l5.058-2.238 0.078 0.030v6.18zM6.912 3.708l4.95-1.596 5.076 1.278-4.974 1.95-5.052-1.632zM12.18 5.7l4.908-1.938v5.91l-0.048 0.006 0.024 0.006-1.812 0.822-3.072 1.296v-6.102zM12.48 12.138v0l0.114-0.048 4.698-2.046 5.568 2.028-5.172 2.304-5.208-2.238zM22.968 18.348l-4.938 2.454v-6.024l4.938-2.358v5.928z"></path>
</svg>
