<svg xmlns="http://www.w3.org/2000/svg" viewBox="0 0 1024 1024"><path d="M744.96 435.285l.256-276.736-238.848-60.928-238.336 72.448v262.4L21.248 528.725v276.992l261.376 126.976 225.28-107.264 253.952 109.312L994.56 813.909V528.725l-249.6-93.44zM48.384 534.613l219.648-77.312 215.04 80.128-209.408 91.392-225.28-94.208zm453.12 279.296l-218.88 94.976V644.437l215.808-95.488 3.328 1.28v263.68zM294.912 179.541l211.2-68.096 216.576 54.528-212.224 83.2-215.552-69.632zm224.768 84.992l209.408-82.688v252.16l-2.048.256 1.024.256-77.312 35.072-131.072 55.296V264.533zm12.8 274.688l4.864-2.048 200.448-87.296 237.568 86.528-220.672 98.304-222.208-95.488zm447.488 264.96L769.28 908.885V651.861l210.688-100.608v252.928z"/></svg>