<svg xmlns="http://www.w3.org/2000/svg" viewBox="0 0 1024 1024"><path d="M544 85.333c-265.088 0-480 214.912-480 480s214.912 480 480 480 480-214.912 480-480-214.912-480-480-480zm54.848 448c93.248 0 169.152 71.744 169.152 160s-75.904 160-169.152 160H576v32c0 17.664-14.336 32-32 32s-32-14.336-32-32v-32h-22.848c-93.248 0-169.152-71.744-169.152-160 0-17.664 14.336-32 32-32s32 14.336 32 32c0 52.928 47.168 96 105.152 96H512v-192h-22.848c-93.248 0-169.152-71.744-169.152-160s75.904-160 169.152-160H512v-32c0-17.664 14.336-32 32-32s32 14.336 32 32v32h22.848c93.248 0 169.152 71.744 169.152 160 0 17.664-14.336 32-32 32s-32-14.336-32-32c0-52.928-47.168-96-105.152-96H576v192h22.848zm-214.848-96c0 52.928 47.168 96 105.152 96H512v-192h-22.848c-57.984 0-105.152 43.072-105.152 96zm214.848 352c57.984 0 105.152-43.072 105.152-96s-47.168-96-105.152-96H576v192h22.848z"/></svg>