<!-- Generated by IcoMoon.io -->
<svg version="1.1" xmlns="http://www.w3.org/2000/svg" width="24" height="24" viewBox="0 0 24 24">
<title>currency</title>
<path d="M12.75 1.5c-6.213 0-11.25 5.037-11.25 11.25s5.037 11.25 11.25 11.25 11.25-5.037 11.25-11.25-5.037-11.25-11.25-11.25zM14.035 12c2.186 0 3.965 1.681 3.965 3.75s-1.779 3.75-3.965 3.75h-0.535v0.75c0 0.414-0.336 0.75-0.75 0.75s-0.75-0.336-0.75-0.75v-0.75h-0.536c-2.185 0-3.964-1.681-3.964-3.75 0-0.414 0.336-0.75 0.75-0.75s0.75 0.336 0.75 0.75c0 1.241 1.105 2.25 2.464 2.25h0.536v-4.5h-0.536c-2.185 0-3.964-1.681-3.964-3.75s1.779-3.75 3.964-3.75h0.536v-0.75c0-0.414 0.336-0.75 0.75-0.75s0.75 0.336 0.75 0.75v0.75h0.535c2.186 0 3.965 1.682 3.965 3.75 0 0.414-0.336 0.75-0.75 0.75s-0.75-0.336-0.75-0.75c0-1.241-1.105-2.25-2.465-2.25h-0.535v4.5h0.535zM9 9.75c0 1.241 1.105 2.25 2.464 2.25h0.536v-4.5h-0.536c-1.359 0-2.464 1.009-2.464 2.25zM14.035 18c1.359 0 2.465-1.009 2.465-2.25s-1.105-2.25-2.465-2.25h-0.535v4.5h0.535z"></path>
</svg>
