<svg xmlns="http://www.w3.org/2000/svg" viewBox="0 0 1024 1024"><path d="M911.108 763.895c-37.798 0-57.488 13.078-74.662 24.612-15.27 10.168-28.42 18.935-55.979 18.935s-40.744-8.767-56.015-18.971c-17.282-11.498-36.9-24.576-74.626-24.576s-57.488 13.078-74.626 24.576c-15.27 10.204-28.456 18.971-56.015 18.971s-40.744-8.767-56.015-18.971c-17.282-11.498-36.9-24.576-74.626-24.576s-57.488 13.078-74.626 24.576c-15.27 10.204-28.42 18.971-56.015 18.971s-40.744-8.803-56.051-18.971c-17.282-11.533-36.864-24.576-74.59-24.576-8.946.427-16.038 7.784-16.038 16.797s7.092 16.37 16 16.796l.038.001c27.558 0 40.744 8.767 55.979 18.935 17.318 11.533 36.936 24.612 74.662 24.612s57.488-13.078 74.626-24.612c15.27-10.168 28.456-18.935 56.015-18.935s40.744 8.767 56.015 18.935c17.282 11.533 36.9 24.612 74.626 24.612s57.488-13.078 74.626-24.612c15.27-10.168 28.42-18.935 56.015-18.935s40.744 8.767 56.015 18.935c17.282 11.533 36.864 24.612 74.626 24.612s57.488-13.078 74.59-24.612c15.27-10.168 28.42-18.935 56.051-18.935 8.946-.427 16.038-7.784 16.038-16.797s-7.092-16.37-16-16.796l-.038-.001zm0 107.861c-37.798 0-57.488 13.043-74.734 24.576-15.27 10.168-28.456 18.971-56.015 18.971s-40.744-8.803-55.979-18.971c-17.318-11.533-36.9-24.576-74.662-24.576s-57.488 13.043-74.626 24.576c-15.234 10.168-28.42 18.971-55.979 18.971s-40.744-8.803-56.015-18.971c-17.282-11.533-36.9-24.576-74.626-24.576s-57.488 13.043-74.662 24.576c-15.234 10.168-28.42 19.007-55.979 19.007s-40.744-8.803-55.979-18.971c-17.282-11.533-36.864-24.576-74.59-24.576-9.267 0-16.779 7.512-16.779 16.779s7.512 16.779 16.779 16.779c27.558 0 40.708 8.803 55.943 18.971 17.282 11.533 36.864 24.576 74.626 24.576s57.488-13.043 74.626-24.576c15.27-10.168 28.42-18.971 56.015-18.971s40.744 8.803 56.015 18.971c17.282 11.533 36.864 24.576 74.626 24.576s57.308-13.043 74.626-24.576c15.234-10.168 28.42-18.971 55.979-18.971s40.78 8.803 56.015 18.971c17.282 11.533 36.9 24.576 74.626 24.576s57.488-13.043 74.662-24.576c15.306-10.168 28.492-18.971 56.086-18.971 9.267 0 16.779-7.512 16.779-16.779s-7.512-16.779-16.779-16.779zM275.654 708.132l53.607-399.863h47.966l43.619 399.863h19.977l47.751-398.605h46.852l48.469 398.605h20.013l42.864-399.863h47.966l53.607 399.863h275.654L854.051 118.344H772.85v92.447H251.149v-92.447h-81.201L0 708.132h275.654z"/></svg>