<!-- Generated by IcoMoon.io -->
<svg version="1.1" xmlns="http://www.w3.org/2000/svg" width="24" height="24" viewBox="0 0 24 24">
<title>dam</title>
<path d="M21.354 17.404c-0.886 0-1.347 0.307-1.75 0.577-0.358 0.238-0.666 0.444-1.312 0.444s-0.955-0.205-1.313-0.445c-0.405-0.269-0.865-0.576-1.749-0.576s-1.347 0.307-1.749 0.576c-0.358 0.239-0.667 0.445-1.313 0.445s-0.955-0.205-1.313-0.445c-0.405-0.269-0.865-0.576-1.749-0.576s-1.347 0.307-1.749 0.576c-0.358 0.239-0.666 0.445-1.313 0.445s-0.955-0.206-1.314-0.445c-0.405-0.27-0.864-0.576-1.748-0.576-0.21 0.010-0.376 0.182-0.376 0.394s0.166 0.384 0.375 0.394l0.001 0c0.646 0 0.955 0.205 1.312 0.444 0.406 0.27 0.866 0.577 1.75 0.577s1.347-0.307 1.749-0.577c0.358-0.238 0.667-0.444 1.313-0.444s0.955 0.205 1.313 0.444c0.405 0.27 0.865 0.577 1.749 0.577s1.347-0.307 1.749-0.577c0.358-0.238 0.666-0.444 1.313-0.444s0.955 0.205 1.313 0.444c0.405 0.27 0.864 0.577 1.749 0.577s1.347-0.307 1.748-0.577c0.358-0.238 0.666-0.444 1.314-0.444 0.21-0.010 0.376-0.182 0.376-0.394s-0.166-0.384-0.375-0.394l-0.001-0z"></path>
<path d="M21.354 19.932c-0.886 0-1.347 0.306-1.752 0.576-0.358 0.238-0.667 0.445-1.313 0.445s-0.955-0.206-1.312-0.445c-0.406-0.27-0.865-0.576-1.75-0.576s-1.347 0.306-1.749 0.576c-0.357 0.238-0.666 0.445-1.312 0.445s-0.955-0.206-1.313-0.445c-0.405-0.27-0.865-0.576-1.749-0.576s-1.347 0.306-1.75 0.576c-0.357 0.238-0.666 0.445-1.312 0.445s-0.955-0.206-1.312-0.445c-0.405-0.27-0.864-0.576-1.748-0.576-0.217 0-0.393 0.176-0.393 0.393s0.176 0.393 0.393 0.393v0c0.646 0 0.954 0.206 1.311 0.445 0.405 0.27 0.864 0.576 1.749 0.576s1.347-0.306 1.749-0.576c0.358-0.238 0.666-0.445 1.313-0.445s0.955 0.206 1.313 0.445c0.405 0.27 0.864 0.576 1.749 0.576s1.343-0.306 1.749-0.576c0.357-0.238 0.666-0.445 1.312-0.445s0.956 0.206 1.313 0.445c0.405 0.27 0.865 0.576 1.749 0.576s1.347-0.306 1.75-0.576c0.359-0.238 0.668-0.445 1.315-0.445 0.217 0 0.393-0.176 0.393-0.393s-0.176-0.393-0.393-0.393v0z"></path>
<path d="M6.461 16.097l1.256-9.372h1.124l1.022 9.372h0.468l1.119-9.342h1.098l1.136 9.342h0.469l1.005-9.372h1.124l1.256 9.372h6.461l-3.983-13.823h-1.903v2.167h-12.227v-2.167h-1.903l-3.983 13.823h6.461z"></path>
</svg>
