<svg xmlns="http://www.w3.org/2000/svg" viewBox="0 0 1024 1024"><path d="M309.333 420.977c0 36.978 33.422 67.556 76.444 71.111v40.178c0 45.867 27.733 73.956 67.2 91.733v-50.133c0-6.756 5.333-12.089 12.089-12.089s12.089 5.333 12.089 12.089v57.956a108.546 108.546 0 0 0 21.333 2.133h13.156v-59.733c0-6.756 5.333-12.089 12.089-12.089s12.089 5.333 12.089 12.089v59.733h13.156c7.467 0 14.578-.711 21.333-2.133v-57.956c0-6.756 5.333-12.089 12.089-12.089s12.089 5.333 12.089 12.089v50.133c39.467-17.778 66.844-45.867 66.844-91.733v-40.178c43.022-3.911 76.444-34.133 76.444-71.111 0-15.644-6.044-30.222-16.356-42.311 25.6-32 40.533-70.044 40.533-111.289 0-110.222-107.022-199.822-238.578-199.822-131.911 0-238.578 89.6-238.578 199.822 0 41.244 14.933 79.644 40.533 111.289-9.956 12.089-16 26.667-16 42.311zm302.934-120.533c30.578 0 55.111 24.533 55.111 55.111s-24.533 55.111-55.111 55.111c-30.578 0-55.111-24.533-55.111-55.111s24.533-55.111 55.111-55.111zm-88.534 129.422c29.156 14.933 41.956 38.044 42.311 68.978-19.2 8.889-33.778-1.067-42.311-29.156-8.178 28.089-23.467 37.689-42.667 29.156.711-30.933 13.511-54.044 42.667-68.978zM435.2 300.444c30.578 0 55.111 24.533 55.111 55.111s-24.533 55.111-55.111 55.111a54.931 54.931 0 0 1-55.111-55.111c-.356-30.578 24.533-55.111 55.111-55.111zm340.978 523.022s-64-34.133-144.356-76.8c66.133-35.2 123.022-65.422 144.711-76.8 106.667 63.289 134.4-83.911 41.956-78.222 56.178-73.6-82.489-137.6-89.6-11.733-28.444 14.933-114.844 61.156-205.511 109.156-90.311-48-176.711-93.867-204.8-108.8-7.111-124.089-144.711-64.711-88.533 8.889-92.444-5.333-67.911 145.422 40.533 81.067 21.689 11.733 78.222 41.6 144 76.8-80.356 42.667-144 76.444-144 76.444-108.444-64.356-132.978 86.4-40.533 81.067-56.178 73.6 81.422 132.978 88.533 8.889 0 0 98.133-52.267 204.444-108.8a78399.42 78399.42 0 0 1 205.156 109.156c7.111 125.867 146.133 61.867 89.6-11.733 92.8 4.978 65.067-142.222-41.6-78.578z"/></svg>