<!-- Generated by IcoMoon.io -->
<svg version="1.1" xmlns="http://www.w3.org/2000/svg" width="24" height="24" viewBox="0 0 24 24">
<title>danger</title>
<path d="M7.25 9.367c0 0.867 0.783 1.583 1.792 1.667v0.942c0 1.075 0.65 1.733 1.575 2.15v-1.175c0-0.158 0.125-0.283 0.283-0.283s0.283 0.125 0.283 0.283v1.358c0.167 0.033 0.333 0.050 0.5 0.050h0.308v-1.4c0-0.158 0.125-0.283 0.283-0.283s0.283 0.125 0.283 0.283v1.4h0.308c0.175 0 0.342-0.017 0.5-0.050v-1.358c0-0.158 0.125-0.283 0.283-0.283s0.283 0.125 0.283 0.283v1.175c0.925-0.417 1.567-1.075 1.567-2.15v-0.942c1.008-0.092 1.792-0.8 1.792-1.667 0-0.367-0.142-0.708-0.383-0.992 0.6-0.75 0.95-1.642 0.95-2.608 0-2.583-2.508-4.683-5.592-4.683-3.092 0-5.592 2.1-5.592 4.683 0 0.967 0.35 1.867 0.95 2.608-0.233 0.283-0.375 0.625-0.375 0.992zM14.35 6.542c0.717 0 1.292 0.575 1.292 1.292s-0.575 1.292-1.292 1.292c-0.717 0-1.292-0.575-1.292-1.292s0.575-1.292 1.292-1.292zM12.275 9.575c0.683 0.35 0.983 0.892 0.992 1.617-0.45 0.208-0.792-0.025-0.992-0.683-0.192 0.658-0.55 0.883-1 0.683 0.017-0.725 0.317-1.267 1-1.617zM10.2 6.542c0.717 0 1.292 0.575 1.292 1.292s-0.575 1.292-1.292 1.292c-0.717 0-1.292-0.575-1.292-1.292-0.008-0.717 0.575-1.292 1.292-1.292z"></path>
<path d="M18.192 18.8c0 0-1.5-0.8-3.383-1.8 1.55-0.825 2.883-1.533 3.392-1.8 2.5 1.483 3.15-1.967 0.983-1.833 1.317-1.725-1.933-3.225-2.1-0.275-0.667 0.35-2.692 1.433-4.817 2.558-2.117-1.125-4.142-2.2-4.8-2.55-0.167-2.908-3.392-1.517-2.075 0.208-2.167-0.125-1.592 3.408 0.95 1.9 0.508 0.275 1.833 0.975 3.375 1.8-1.883 1-3.375 1.792-3.375 1.792-2.542-1.508-3.117 2.025-0.95 1.9-1.317 1.725 1.908 3.117 2.075 0.208 0 0 2.3-1.225 4.792-2.55 2.5 1.325 4.808 2.558 4.808 2.558 0.167 2.95 3.425 1.45 2.1-0.275 2.175 0.117 1.525-3.333-0.975-1.842z"></path>
</svg>
