<?xml version="1.0" encoding="utf-8"?>
<!-- Generator: Adobe Illustrator 26.0.1, SVG Export Plug-In . SVG Version: 6.00 Build 0)  -->
<svg version="1.1" id="Layer_1" xmlns="http://www.w3.org/2000/svg" xmlns:xlink="http://www.w3.org/1999/xlink" x="0px" y="0px"
	 width="24px" height="24px" viewBox="0 0 24 24" style="enable-background:new 0 0 24 24;" xml:space="preserve">
<style type="text/css">
	.st0{fill:#231F20;}
</style>
<g>
	<path class="st0" d="M19.7,7.3l-15.4,0C4,7.3,3.7,7.6,3.8,7.9l1.1,13.6c0.1,1,0.5,1.4,1.6,1.4l11.1,0c1.1,0,1.5-0.4,1.6-1.4
		l1.1-13.6C20.3,7.6,20.1,7.3,19.7,7.3z M8.1,20C8.1,20,8.1,20,8.1,20c-0.3,0-0.5-0.2-0.6-0.4l-0.4-9.1c0-0.3,0.2-0.5,0.5-0.5
		c0.3,0,0.5,0.2,0.6,0.4l0.4,9.1C8.6,19.8,8.4,20,8.1,20z M12.6,19.5c0,0.3-0.2,0.5-0.5,0.5s-0.5-0.2-0.5-0.5v-9.1
		c0-0.3,0.2-0.5,0.5-0.5s0.5,0.2,0.5,0.5V19.5z M16.6,19.5c0,0.3-0.2,0.5-0.5,0.5c0,0,0,0,0,0c-0.3,0-0.5-0.2-0.5-0.5l0.4-9.1
		c0-0.3,0.3-0.5,0.6-0.5c0.3,0,0.5,0.2,0.5,0.5L16.6,19.5z"/>
	<path class="st0" d="M20.5,3.2c-1.8,0-5.7,0-5.7,0V0.8c0,0,0,0,0,0h-0.2l-1.1,0l-1,0l-1,0l-1,0l-1.1,0H9.2c0,0,0,0,0,0v2.4
		c0,0-4,0-5.7,0c-1.8,0-1.8,1.7-1.8,1.7c0,0.8,0.5,1.9,0.8,1.9c0,0,0.2-0.9,1.2-0.9c0.5,0,3.8,0,8.2,0c0,0,0.1,0,0.1,0
		c4.4,0,7.7,0,8.2,0c1,0,1.2,0.9,1.2,0.9c0.3,0,0.8-1.1,0.8-1.9C22.3,4.9,22.3,3.2,20.5,3.2z M13.5,3.2l-1.4,0H12h-1.4V2l1,0h1h1
		V3.2z"/>
</g>
</svg>
