<svg xmlns="http://www.w3.org/2000/svg" viewBox="0 0 1024 1024"><path d="M840.533 332.8H183.466c-12.8 0-25.6 12.8-21.333 25.6l46.933 580.267c4.267 42.667 21.333 59.733 68.267 59.733h473.6c46.933 0 64-17.067 68.267-59.733L866.133 358.4c0-12.8-8.533-25.6-25.6-25.6zM345.6 874.666c-12.8 0-21.333-8.533-25.6-17.067l-17.067-388.267c0-12.8 8.533-21.333 21.333-21.333s21.333 8.533 25.6 17.067l17.067 388.267c0 12.8-8.533 21.333-21.333 21.333zm192-21.333c0 12.8-8.533 21.333-21.333 21.333s-21.333-8.533-21.333-21.333V465.066c0-12.8 8.533-21.333 21.333-21.333s21.333 8.533 21.333 21.333v388.267zm170.667 0c0 12.8-8.533 21.333-21.333 21.333-12.8 0-21.333-8.533-21.333-21.333l17.067-388.267c0-12.8 12.8-21.333 25.6-21.333s21.333 8.533 21.333 21.333l-21.333 388.267zm166.4-695.467h-243.2v-102.4H392.534v102.4h-243.2c-76.8 0-76.8 72.533-76.8 72.533 0 34.133 21.333 81.067 34.133 81.067 0 0 8.533-38.4 51.2-38.4h704.001c42.667 0 51.2 38.4 51.2 38.4 12.8 0 34.133-46.933 34.133-81.067 4.267 0 4.267-72.533-72.533-72.533zm-298.667 0H452.267v-51.2h128v51.2z"/></svg>