<svg xmlns="http://www.w3.org/2000/svg" viewBox="0 0 1024 1024"><path d="M447.488 489.096V299.861l179.507 94.618-179.507 94.618zM895.59 579.72H359.731c1.538 5.793 2.422 12.445 2.422 19.302s-.883 13.509-2.543 19.846l.121-.544h535.552c10.139-.673 18.109-9.063 18.109-19.314 0-10.142-7.802-18.463-17.732-19.287l-.07-.005zm-692.121 19.968a88.937 88.937 0 0 1 2.797-20.583l-.135.615h-67.072c-10.066.756-17.947 9.109-17.947 19.302s7.881 18.547 17.882 19.298l.065.004h66.765c-1.557-4.62-2.456-9.941-2.456-15.472 0-1.113.036-2.218.108-3.314l-.008.149zm38.297 2.765c0-22.622 18.338-40.96 40.96-40.96s40.96 18.338 40.96 40.96-18.338 40.96-40.96 40.96-40.96-18.338-40.96-40.96zm714.957-478.72H70.246C31.383 125.303.42 156.982 0 195.987v564.265c.844 37.067 31.093 66.793 68.284 66.793.69 0 1.378-.01 2.063-.031l-.1.002h349.594v77.312h-51.2c-10.066.756-17.947 9.109-17.947 19.302s7.881 18.547 17.882 19.298l.065.004h289.997c10.066-.756 17.947-9.109 17.947-19.302s-7.881-18.547-17.882-19.298l-.065-.004h-54.477v-77.312h352.563c.429.01.934.016 1.44.016 36.364 0 65.843-29.479 65.843-65.843 0-.33-.002-.659-.007-.987l.001.05V196.028c0-38.195-29.491-72.294-67.277-72.294zM513.434 147.49c4.487 1.152 7.751 5.162 7.751 9.933s-3.263 8.78-7.68 9.917l-.071.016c-4.487-1.152-7.751-5.162-7.751-9.933s3.263-8.78 7.68-9.917l.071-.016zm0 636.518c-13.121 0-23.757-10.636-23.757-23.757s10.636-23.757 23.757-23.757c13.121 0 23.757 10.636 23.757 23.757s-10.636 23.757-23.757 23.757zm441.753-88.371H68.813V193.263h886.374z"/></svg>