<svg xmlns="http://www.w3.org/2000/svg" viewBox="0 0 1024 1024"><path d="M212.685 350.959a20.972 20.972 0 0 0 13.403 4.805c5.597 0 10.685-2.18 14.461-5.737l-.011.01 56.422-64.205a19.36 19.36 0 0 0 4.747-12.735 19.407 19.407 0 0 0-6.469-14.488l-.018-.016a18.858 18.858 0 0 0-12.608-4.805 18.9 18.9 0 0 0-14.304 6.523l-.02.023-43.008 49.664-18.534-18.739a19.056 19.056 0 0 0-13.517-5.599c-10.557 0-19.116 8.558-19.116 19.116 0 5.279 2.14 10.058 5.599 13.517zm140.288-18.535h489.062c10.689 0 19.354-8.665 19.354-19.354s-8.665-19.354-19.354-19.354H352.973c-10.689 0-19.354 8.665-19.354 19.354s8.665 19.354 19.354 19.354zM212.685 482.133a20.972 20.972 0 0 0 13.403 4.805c5.597 0 10.685-2.18 14.461-5.737l-.011.01 56.422-64a19.36 19.36 0 0 0 4.837-12.838c0-5.7-2.451-10.828-6.357-14.386l-.016-.014a18.858 18.858 0 0 0-12.608-4.805 18.9 18.9 0 0 0-14.304 6.523l-.02.023-43.213 49.459-18.534-18.739a19.02 19.02 0 0 0-13.517-5.614c-10.537 0-19.079 8.542-19.079 19.079a19.02 19.02 0 0 0 5.563 13.466l-.001-.001zm140.288-18.33h489.062c10.689 0 19.354-8.665 19.354-19.354s-8.665-19.354-19.354-19.354H352.973c-10.689 0-19.354 8.665-19.354 19.354s8.665 19.354 19.354 19.354zM212.685 613.717a20.972 20.972 0 0 0 13.403 4.805c5.597 0 10.685-2.18 14.461-5.737l-.011.01 56.422-64.205a19.36 19.36 0 0 0 4.747-12.735 19.407 19.407 0 0 0-6.469-14.488l-.018-.016a18.858 18.858 0 0 0-12.608-4.805 18.9 18.9 0 0 0-14.304 6.523l-.02.023-43.008 49.664-18.534-18.944a19.02 19.02 0 0 0-13.517-5.614c-10.537 0-19.079 8.542-19.079 19.079a19.02 19.02 0 0 0 5.563 13.466l-.001-.001zm140.288-18.944h489.062c10.689 0 19.354-8.665 19.354-19.354s-8.665-19.354-19.354-19.354H352.973c-10.689 0-19.354 8.665-19.354 19.354s8.665 19.354 19.354 19.354zm603.75-471.04H70.246a67.494 67.494 0 0 0-1.758-.023c-37.302 0-67.641 29.814-68.487 66.913l-.001.079v564.224c.649 38.826 31.549 70.227 70.113 71.676l.133.004H419.84v77.312h-51.2c-10.774 0-19.507 8.734-19.507 19.507s8.734 19.507 19.507 19.507h289.997c10.066-.756 17.947-9.109 17.947-19.302s-7.881-18.547-17.882-19.298l-.065-.004H604.16v-77.312h352.563c37.786 0 67.277-33.894 67.277-71.68V190.702c.005-.309.008-.673.008-1.038 0-36.421-29.525-65.946-65.946-65.946-.471 0-.941.005-1.409.015l.07-.001zm-443.289 26.214c4.388 1.221 7.555 5.182 7.555 9.882s-3.166 8.66-7.483 9.864l-.072.017c-4.388-1.221-7.555-5.182-7.555-9.882s3.166-8.66 7.483-9.864l.072-.017zm0 628.736c-13.121 0-23.757-10.636-23.757-23.757s10.636-23.757 23.757-23.757c13.234 0 23.962 10.728 23.962 23.962s-10.728 23.962-23.962 23.962zm441.753-83.046H68.813V193.263h886.374z"/></svg>