<!-- Generated by IcoMoon.io -->
<svg version="1.1" xmlns="http://www.w3.org/2000/svg" width="24" height="24" viewBox="0 0 24 24">
<title>desktop-video-module</title>
<path d="M10.488 10.963v-4.435l4.207 2.218-4.207 2.218z"></path>
<path d="M20.99 13.087h-12.559c0.036 0.136 0.057 0.292 0.057 0.452s-0.021 0.317-0.060 0.465l0.003-0.013h12.552c0.238-0.016 0.424-0.212 0.424-0.453 0-0.238-0.183-0.433-0.416-0.452l-0.002-0z"></path>
<path d="M4.769 13.555c0.003-0.168 0.026-0.328 0.066-0.482l-0.003 0.014h-1.572c-0.236 0.018-0.421 0.213-0.421 0.452s0.185 0.435 0.419 0.452l0.002 0h1.565c-0.036-0.108-0.058-0.233-0.058-0.363 0-0.026 0.001-0.052 0.003-0.078l-0 0.003z"></path>
<path d="M5.666 13.62c0-0.53 0.43-0.96 0.96-0.96s0.96 0.43 0.96 0.96v0c0 0.53-0.43 0.96-0.96 0.96s-0.96-0.43-0.96-0.96v0z"></path>
<path d="M22.423 2.4h-20.777c-0.911 0.037-1.637 0.779-1.646 1.693v13.225c0.020 0.869 0.729 1.565 1.6 1.565 0.016 0 0.032-0 0.048-0.001l-0.002 0h8.194v1.812h-1.2c-0.236 0.018-0.421 0.213-0.421 0.452s0.185 0.435 0.419 0.452l0.002 0h6.797c0.236-0.018 0.421-0.213 0.421-0.452s-0.185-0.435-0.419-0.452l-0.002-0h-1.277v-1.812h8.263c0.010 0 0.022 0 0.034 0 0.852 0 1.543-0.691 1.543-1.543 0-0.008-0-0.015-0-0.023l0 0.001v-13.224c0-0.895-0.691-1.694-1.577-1.694zM12.034 2.957c0.105 0.027 0.182 0.121 0.182 0.233s-0.076 0.206-0.18 0.232l-0.002 0c-0.105-0.027-0.182-0.121-0.182-0.233s0.076-0.206 0.18-0.232l0.002-0zM12.034 17.875c-0.308 0-0.557-0.249-0.557-0.557s0.249-0.557 0.557-0.557v0c0.308 0 0.557 0.249 0.557 0.557s-0.249 0.557-0.557 0.557v0zM22.387 15.804h-20.774v-11.774h20.774z"></path>
</svg>
