<!-- Generated by IcoMoon.io -->
<svg version="1.1" xmlns="http://www.w3.org/2000/svg" width="24" height="24" viewBox="0 0 24 24">
<title>desktop-checklist</title>
<path d="M4.985 7.726c0.085 0.070 0.194 0.113 0.314 0.113 0.131 0 0.25-0.051 0.339-0.134l-0 0 1.322-1.505c0.069-0.079 0.111-0.184 0.111-0.298 0-0.135-0.059-0.256-0.152-0.34l-0-0c-0.078-0.070-0.182-0.113-0.296-0.113-0.134 0-0.254 0.059-0.335 0.153l-0 0.001-1.008 1.164-0.434-0.439c-0.081-0.081-0.193-0.131-0.317-0.131-0.247 0-0.448 0.201-0.448 0.448 0 0.124 0.050 0.236 0.131 0.317v0z"></path>
<path d="M8.273 7.291h11.462c0.251 0 0.454-0.203 0.454-0.454s-0.203-0.454-0.454-0.454h-11.462c-0.251 0-0.454 0.203-0.454 0.454s0.203 0.454 0.454 0.454v0z"></path>
<path d="M4.985 10.8c0.085 0.070 0.194 0.113 0.314 0.113 0.131 0 0.25-0.051 0.339-0.134l-0 0 1.322-1.5c0.070-0.080 0.113-0.185 0.113-0.301 0-0.134-0.057-0.254-0.149-0.337l-0-0c-0.078-0.070-0.182-0.113-0.296-0.113-0.134 0-0.254 0.059-0.335 0.153l-0 0.001-1.013 1.159-0.434-0.439c-0.081-0.081-0.193-0.132-0.317-0.132-0.247 0-0.447 0.2-0.447 0.447 0 0.123 0.050 0.235 0.13 0.316l-0-0z"></path>
<path d="M8.273 10.37h11.462c0.251 0 0.454-0.203 0.454-0.454s-0.203-0.454-0.454-0.454h-11.462c-0.251 0-0.454 0.203-0.454 0.454s0.203 0.454 0.454 0.454v0z"></path>
<path d="M4.985 13.884c0.085 0.070 0.194 0.113 0.314 0.113 0.131 0 0.25-0.051 0.339-0.134l-0 0 1.322-1.505c0.069-0.079 0.111-0.184 0.111-0.298 0-0.135-0.059-0.256-0.152-0.34l-0-0c-0.078-0.070-0.182-0.113-0.296-0.113-0.134 0-0.254 0.059-0.335 0.153l-0 0.001-1.008 1.164-0.434-0.444c-0.081-0.081-0.193-0.132-0.317-0.132-0.247 0-0.447 0.2-0.447 0.447 0 0.123 0.050 0.235 0.13 0.316l-0-0z"></path>
<path d="M8.273 13.44h11.462c0.251 0 0.454-0.203 0.454-0.454s-0.203-0.454-0.454-0.454h-11.462c-0.251 0-0.454 0.203-0.454 0.454s0.203 0.454 0.454 0.454v0z"></path>
<path d="M22.423 2.4h-20.777c-0.012-0-0.027-0.001-0.041-0.001-0.874 0-1.585 0.699-1.605 1.568l-0 0.002v13.224c0.015 0.91 0.739 1.646 1.643 1.68l0.003 0h8.194v1.812h-1.2c-0.253 0-0.457 0.205-0.457 0.457s0.205 0.457 0.457 0.457v0h6.797c0.236-0.018 0.421-0.213 0.421-0.452s-0.185-0.435-0.419-0.452l-0.002-0h-1.277v-1.812h8.263c0.886 0 1.577-0.794 1.577-1.68v-13.234c0-0.007 0-0.016 0-0.024 0-0.854-0.692-1.546-1.546-1.546-0.011 0-0.022 0-0.033 0l0.002-0zM12.034 3.014c0.103 0.029 0.177 0.121 0.177 0.232s-0.074 0.203-0.175 0.231l-0.002 0c-0.103-0.029-0.177-0.121-0.177-0.232s0.074-0.203 0.175-0.231l0.002-0zM12.034 17.75c-0.308 0-0.557-0.249-0.557-0.557s0.249-0.557 0.557-0.557v0c0.31 0 0.562 0.251 0.562 0.562s-0.251 0.562-0.562 0.562v0zM22.387 15.804h-20.774v-11.774h20.774z"></path>
</svg>
