<svg xmlns="http://www.w3.org/2000/svg" viewBox="0 0 1024 1024"><path d="M994 309.733l-393.4-95.6c-16.6-4-33.6 6.2-37.6 23l-55.8 229.6 19.8 210.4 356.8 86.6c16.6 4 33.6-6.2 37.6-23l95.6-393.4c4-16.8-6.4-33.6-23-37.6zm-371 284.6c-5.4 22.6-28.4 36.6-51 31-22.6-5.4-36.6-28.4-31-51 5.4-22.6 28.2-36.6 51-31 22.6 5.6 36.6 28.4 31 51zm30.8-126.8c-5.4 22.6-28.4 36.6-51 31-22.6-5.4-36.6-28.4-31-51s28.4-36.6 51-31c22.6 5.4 36.6 28.2 31 51zm30.8-127c-5.4 22.6-28.2 36.6-51 31-22.6-5.6-36.6-28.4-31-51 5.4-22.6 28.4-36.6 51-31s36.6 28.4 31 51zm197 316.6c-5.4 22.6-28.4 36.6-51 31-22.6-5.4-36.6-28.4-31-51 5.4-22.6 28.2-36.6 51-31 22.6 5.6 36.4 28.4 31 51zm30.8-127c-5.6 22.6-28.4 36.6-51 31-22.6-5.4-36.6-28.4-31-51 5.4-22.6 28.4-36.6 51-31s36.4 28.4 31 51zm30.8-126.8c-5.4 22.6-28.4 36.6-51 31-22.6-5.4-36.6-28.4-31-51 5.4-22.6 28.4-36.6 51-31s36.6 28.4 31 51zm-503-96.2L37 344.933c-17 1.6-29.8 16.8-28 34l37.8 403.2c1.6 17 16.8 29.8 34 28l403.2-37.8c17-1.6 29.6-16.8 28-34l-38-403c-1.6-17.2-16.8-29.8-33.8-28.2zm-175.8 293.6c-23.2 2.2-43.8-14.8-46-38s14.8-43.8 38-46c23.2-2.2 43.8 14.8 46 38s-15 43.8-38 46z"/></svg>