<!-- Generated by IcoMoon.io -->
<svg version="1.1" xmlns="http://www.w3.org/2000/svg" width="24" height="24" viewBox="0 0 24 24">
<title>dices</title>
<path d="M23.297 6.759l-9.22-2.241c-0.389-0.094-0.788 0.145-0.881 0.539l-1.308 5.381 0.464 4.931 8.362 2.030c0.389 0.094 0.788-0.145 0.881-0.539l2.241-9.22c0.094-0.394-0.15-0.788-0.539-0.881zM14.602 13.43c-0.127 0.53-0.666 0.858-1.195 0.727-0.53-0.127-0.858-0.666-0.727-1.195 0.127-0.53 0.661-0.858 1.195-0.727 0.53 0.131 0.858 0.666 0.727 1.195zM15.323 10.458c-0.127 0.53-0.666 0.858-1.195 0.727-0.53-0.127-0.858-0.666-0.727-1.195s0.666-0.858 1.195-0.727c0.53 0.127 0.858 0.661 0.727 1.195zM16.045 7.481c-0.127 0.53-0.661 0.858-1.195 0.727-0.53-0.131-0.858-0.666-0.727-1.195 0.127-0.53 0.666-0.858 1.195-0.727s0.858 0.666 0.727 1.195zM20.663 14.902c-0.127 0.53-0.666 0.858-1.195 0.727-0.53-0.127-0.858-0.666-0.727-1.195 0.127-0.53 0.661-0.858 1.195-0.727 0.53 0.131 0.853 0.666 0.727 1.195zM21.384 11.925c-0.131 0.53-0.666 0.858-1.195 0.727-0.53-0.127-0.858-0.666-0.727-1.195 0.127-0.53 0.666-0.858 1.195-0.727s0.853 0.666 0.727 1.195zM22.106 8.953c-0.127 0.53-0.666 0.858-1.195 0.727-0.53-0.127-0.858-0.666-0.727-1.195 0.127-0.53 0.666-0.858 1.195-0.727s0.858 0.666 0.727 1.195z"></path>
<path d="M10.317 6.698l-9.45 0.886c-0.398 0.038-0.698 0.394-0.656 0.797l0.886 9.45c0.038 0.398 0.394 0.698 0.797 0.656l9.45-0.886c0.398-0.038 0.694-0.394 0.656-0.797l-0.891-9.445c-0.038-0.403-0.394-0.698-0.792-0.661zM6.197 13.58c-0.544 0.052-1.027-0.347-1.078-0.891s0.347-1.027 0.891-1.078c0.544-0.052 1.027 0.347 1.078 0.891s-0.352 1.027-0.891 1.078z"></path>
</svg>
