<!-- Generated by IcoMoon.io -->
<svg version="1.1" xmlns="http://www.w3.org/2000/svg" width="24" height="24" viewBox="0 0 24 24">
<title>digging</title>
<path d="M22.983 22.258l-3.6-6.608c-0.592-1.2-1.875-1.275-2.425-0.075l-0.425 0.883c-0.017 0.033-0.033 0.058-0.050 0.092l-3-1.708-0.408 0.7 2.892 1.642c-0.283 0.225-0.592 0.3-0.825 0.167-0.408-0.242-1.025 0.175-1.358 0.917l-1.792 3.925c-0.342 0.742-0.025 1.35 0.692 1.35h9.708c0.717 0 0.983-0.583 0.592-1.283z"></path>
<path d="M12.408 15.225c0.475-0.208 0.692-0.758 0.492-1.233 0 0-1.175-4.975-1.317-5.833s-0.367-1.483-1.025-2c0 0-1.1-0.717-1.633-1.1s-1.3-0.6-2.075-0.492c-0.775 0.108-4.625 0.65-4.625 0.65l-0.542 3.442c-0.233 0.458-0.042 1.025 0.417 1.258 0.133 0.067 0.275 0.1 0.417 0.1 0.25 0 0.492-0.1 0.675-0.283l1 0.6-3.308 11.867c-0.175 0.483 0.083 1.025 0.567 1.192 0.1 0.033 0.208 0.050 0.308 0.050 0.383 0 0.75-0.242 0.883-0.625l3.042-8.608 2.625 3.083 0.792 5.35c0.075 0.508 0.55 0.867 1.067 0.792 0.508-0.075 0.867-0.55 0.792-1.067l-0.867-5.867-1.825-3.725 2.242 1.342-0.192-1.125-2.342-1.383 2.2-2.408 1 5.542c0.15 0.35 0.5 0.567 0.858 0.567 0.125-0.008 0.25-0.033 0.375-0.083zM4.642 9.642l-1.175-0.692 0.417-2.317 2.275-0.167-1.517 3.175z"></path>
<path d="M12.276 0.48c1.406 0.139 2.433 1.392 2.294 2.798s-1.392 2.433-2.798 2.294c-1.406-0.139-2.433-1.392-2.294-2.798s1.392-2.433 2.798-2.294z"></path>
</svg>
