<svg xmlns="http://www.w3.org/2000/svg" viewBox="0 0 1024 1024"><path d="M980.622 971.022l-153.6-281.956c-25.244-51.2-80-54.4-103.467-3.2l-18.133 37.689c-.711 1.422-1.422 2.489-2.133 3.911l-128-72.889-17.422 29.867 123.378 70.044c-12.089 9.6-25.244 12.8-35.2 7.111-17.422-10.311-43.733 7.467-57.956 39.111l-76.444 167.467c-14.578 31.644-1.067 57.6 29.511 57.6h414.222c30.578 0 41.956-24.889 25.244-54.756zm-451.2-300.089c20.267-8.889 29.511-32.356 20.978-52.622 0 0-50.133-212.267-56.178-248.889s-15.644-63.289-43.733-85.333c0 0-46.933-30.578-69.689-46.933s-55.467-25.6-88.533-20.978C259.2 220.8 94.934 243.911 94.934 243.911L71.823 390.755c-9.956 19.556-1.778 43.733 17.778 53.689 5.689 2.844 11.733 4.267 17.778 4.267 10.667 0 20.978-4.267 28.8-12.089l42.667 25.6L37.69 968.533c-7.467 20.622 3.556 43.733 24.178 50.844a42.439 42.439 0 0 0 13.156 2.133c16.356 0 32-10.311 37.689-26.667l129.778-367.289 112 131.556 33.778 228.267c3.2 21.689 23.467 36.978 45.511 33.778 21.689-3.2 36.978-23.467 33.778-45.511L430.58 725.333 352.713 566.4l95.644 57.244-8.178-48-99.911-59.022 93.867-102.756 42.667 236.444c6.4 14.933 21.333 24.178 36.622 24.178 5.333-.356 10.667-1.422 16-3.556zM198.044 432.711L147.911 403.2l17.778-98.844 97.067-7.111-64.711 135.467zM523.787 41.814c59.99 5.94 103.805 59.387 97.865 119.377s-59.387 103.805-119.377 97.865c-59.99-5.94-103.805-59.387-97.865-119.377s59.387-103.805 119.377-97.865z"/></svg>