<!-- Generated by IcoMoon.io -->
<svg version="1.1" xmlns="http://www.w3.org/2000/svg" width="24" height="24" viewBox="0 0 24 24">
<title>directions</title>
<path d="M13.683 10.298v-3.867h1.969c0.192 0 0.263-0.131 0.15-0.291l-3.595-5.147c-0.112-0.159-0.291-0.159-0.403 0l-3.595 5.147c-0.113 0.159-0.042 0.291 0.15 0.291h1.842v3.867c0.637 0.323 1.223 0.731 1.739 1.209 0.52-0.478 1.106-0.886 1.744-1.209z"></path>
<path d="M6.717 10.209h-0.248v-1.908c0-0.192-0.131-0.262-0.291-0.15l-5.142 3.591c-0.159 0.112-0.159 0.291 0 0.403l5.142 3.595c0.159 0.112 0.291 0.042 0.291-0.15v-1.898h0.248c1.247 0 2.344 0.661 2.958 1.645 0.305-1.247 0.914-2.372 1.744-3.3-1.242-1.134-2.892-1.828-4.702-1.828z"></path>
<path d="M22.847 11.742l-5.142-3.595c-0.159-0.113-0.291-0.042-0.291 0.15v1.908h-0.248c-3.839 0-6.966 3.127-6.966 6.966v5.948h3.483v-5.944c0-1.922 1.561-3.483 3.483-3.483h0.248v1.898c0 0.192 0.131 0.263 0.291 0.15l5.142-3.595c0.159-0.108 0.159-0.291 0-0.403z"></path>
</svg>
