<!-- Generated by IcoMoon.io -->
<svg version="1.1" xmlns="http://www.w3.org/2000/svg" width="24" height="24" viewBox="0 0 24 24">
<title>discovercard</title>
<path d="M23.983 4.625v-1.275c0-0.542-0.442-0.975-0.975-0.975h-21.975c-0.542 0-0.975 0.442-0.975 0.975v1.267c-0.008 0.050-0.017 0.108-0.017 0.158v13.958c0 0.058 0.008 0.108 0.017 0.158v1.417c0 0.542 0.442 0.975 0.975 0.975h21.975c0.542 0 0.975-0.442 0.975-0.975v-1.417c0.008-0.050 0.017-0.108 0.017-0.158v-13.95c0-0.058-0.008-0.108-0.017-0.158zM1.542 13.092v-3.383h0.975c1.075 0 1.808 0.692 1.808 1.692 0 0.525-0.342 1.692-1.808 1.692h-0.975zM4.642 13.092v-3.383h0.667v3.383h-0.667zM6.55 11.558c-0.617-0.233-0.833-0.475-0.833-0.942 0-0.558 0.458-0.975 1.058-0.975 0.375 0 0.708 0.125 0.992 0.375l-0.342 0.458c-0.175-0.192-0.333-0.275-0.533-0.275-0.283 0-0.492 0.158-0.492 0.375 0 0.183 0.117 0.283 0.517 0.425 0.75 0.275 0.975 0.525 0.975 1.058 0 0.658-0.475 1.108-1.158 1.108-0.5 0-0.875-0.2-1.183-0.65l0.425-0.408c0.15 0.292 0.4 0.442 0.717 0.442 0.292 0 0.517-0.2 0.517-0.475-0.008-0.317-0.3-0.383-0.658-0.517zM9.917 12.567c0.3 0 0.542-0.108 0.8-0.375v0.783c-0.3 0.142-0.55 0.192-0.833 0.192-1.008 0-1.792-0.767-1.792-1.758 0-0.983 0.808-1.775 1.808-1.775 0.283 0 0.533 0.075 0.817 0.225v0.767c-0.275-0.267-0.525-0.375-0.833-0.375-0.617 0-1.108 0.517-1.108 1.158 0 0.675 0.475 1.158 1.142 1.158zM14.45 11.4c0 0.975-0.783 1.775-1.758 1.775s-1.775-0.8-1.775-1.775c0-0.975 0.8-1.758 1.775-1.758s1.758 0.783 1.758 1.758zM14.325 9.708h0.717l0.908 2.275 0.925-2.275h0.717l-1.467 3.467h-0.358l-1.442-3.467zM19.717 11.025v0.583h-1.158v0.908h1.217v0.583h-1.883v-3.383h1.883v0.567h-1.217v0.75h1.158zM21.85 13.092l-0.908-1.367h-0.083v1.367h-0.667v-3.383h0.992c0.767 0 1.2 0.358 1.2 0.992 0 0.517-0.275 0.875-0.767 0.975l1.058 1.417h-0.825z"></path>
<path d="M2.433 10.275h-0.225v2.242h0.175c1.192 0 1.267-0.858 1.267-1.108 0-0.542-0.317-1.133-1.217-1.133z"></path>
<path d="M21.067 10.242h-0.208v1.025h0.192c0.425 0 0.65-0.192 0.65-0.533-0.008-0.325-0.225-0.492-0.633-0.492z"></path>
</svg>
