<svg xmlns="http://www.w3.org/2000/svg" viewBox="0 0 1024 1024"><path d="M1023.289 218.666v-54.4c0-23.111-18.844-41.6-41.6-41.6h-937.6c-23.111 0-41.6 18.844-41.6 41.6v54.044c-.356 2.133-.711 4.622-.711 6.756v595.556c0 2.489.356 4.622.711 6.756v60.444c0 23.111 18.844 41.6 41.6 41.6h937.6c23.111 0 41.6-18.844 41.6-41.6v-60.444c.356-2.133.711-4.622.711-6.756v-595.2c0-2.489-.356-4.622-.711-6.756zM65.778 579.911V435.555h41.6c45.867 0 77.156 29.511 77.156 72.178 0 22.4-14.578 72.178-77.156 72.178h-41.6zm132.266 0V435.555h28.444v144.356h-28.444zm81.423-65.422c-26.311-9.956-35.556-20.267-35.556-40.178 0-23.822 19.556-41.6 45.156-41.6 16 0 30.222 5.333 42.311 16L316.8 468.267c-7.467-8.178-14.222-11.733-22.756-11.733-12.089 0-20.978 6.756-20.978 16 0 7.822 4.978 12.089 22.044 18.133 32 11.733 41.6 22.4 41.6 45.156 0 28.089-20.267 47.289-49.422 47.289-21.333 0-37.333-8.533-50.489-27.733l18.133-17.422c6.4 12.444 17.067 18.844 30.578 18.844 12.444 0 22.044-8.533 22.044-20.267-.356-13.511-12.8-16.356-28.089-22.044zm143.644 43.022c12.8 0 23.111-4.622 34.133-16v33.422c-12.8 6.044-23.467 8.178-35.556 8.178-43.022 0-76.444-32.711-76.444-75.022 0-41.956 34.489-75.733 77.156-75.733 12.089 0 22.756 3.2 34.844 9.6v32.711c-11.733-11.378-22.4-16-35.556-16-26.311 0-47.289 22.044-47.289 49.422 0 28.8 20.267 49.422 48.711 49.422zm193.422-49.778c0 41.6-33.422 75.733-75.022 75.733s-75.733-34.133-75.733-75.733 34.133-75.022 75.733-75.022 75.022 33.422 75.022 75.022zm-5.333-72.178h30.578l38.756 97.067 39.467-97.067h30.578l-62.578 147.911h-15.289l-61.511-147.911zm230.044 56.178v24.889h-49.422v38.756h51.911v24.889h-80.356V435.911h80.356v24.178h-51.911v32h49.422zm91.023 88.178L893.511 521.6h-3.556v58.311h-28.444V435.555h42.311c32.711 0 51.2 15.289 51.2 42.311 0 22.044-11.733 37.333-32.711 41.6l45.156 60.444h-35.2zM103.822 459.733h-9.6v95.644h7.467c50.844 0 54.044-36.622 54.044-47.289 0-23.111-13.511-48.356-51.911-48.356zm795.022-1.422h-8.889v43.733h8.178c18.133 0 27.733-8.178 27.733-22.756-.356-13.867-9.6-20.978-27.022-20.978z"/></svg>