<!-- Generated by IcoMoon.io -->
<svg version="1.1" xmlns="http://www.w3.org/2000/svg" width="24" height="24" viewBox="0 0 24 24">
<title>distance</title>
<path d="M21.744 6.204c-0.63 0-1.26 0-1.482 0-0.060 0-0.090 0-0.090 0-0.228 0-0.852 0-1.482 0-0.792 0-1.956 0.666-1.956 1.458s0 3.834 0 4.746c0 0.918 0.762 1.584 1.17 1.668 0 0 0 0.066 0 0.18 0 0.972 0 2.616 0 3.912 0.198 0.060 0.39 0.168 0.564 0.318 0.090 0.072 2.196 1.8 2.37 1.944 0.318 0.252 0.504 0.6 0.51 0.96 0.57-0.12 1.188-0.6 1.188-1.428 0-0.642 0-3.378 0-5.1 0-0.222 0-0.426 0-0.606 0-0.12 0-0.18 0-0.18 0.414-0.084 1.17-0.75 1.17-1.668s0-3.954 0-4.746c-0.006-0.792-1.17-1.458-1.962-1.458z"></path>
<path d="M22.431 1.892c0.443 1.225-0.19 2.577-1.415 3.020s-2.577-0.19-3.020-1.415c-0.443-1.225 0.19-2.577 1.415-3.020s2.577 0.19 3.020 1.415z"></path>
<path d="M3.522 20.466v0c0.060-0.048 0.228-0.192 0.924-0.762 0.594-0.486 1.404-1.152 1.464-1.2 0.102-0.084 0.21-0.156 0.318-0.216 0-1.074 0-2.424 0-3.426 0-0.222 0-0.426 0-0.606 0-0.12 0-0.18 0-0.18 0.414-0.084 1.17-0.75 1.17-1.668s0-3.954 0-4.746c0-0.792-1.164-1.458-1.956-1.458-0.63 0-1.26 0-1.482 0-0.060 0-0.090 0-0.090 0-0.228 0-0.852 0-1.482 0-0.798 0-1.968 0.666-1.968 1.458s0 3.834 0 4.746c0 0.918 0.762 1.584 1.17 1.668 0 0 0 0.066 0 0.18 0 1.59 0 4.98 0 5.706 0 0.96 0.834 1.458 1.458 1.458 0.006 0 0.006 0 0.012 0 0-0.252 0.084-0.618 0.462-0.954z"></path>
<path d="M6.128 1.891c0.443 1.225-0.19 2.577-1.415 3.020s-2.577-0.19-3.020-1.415c-0.443-1.225 0.19-2.577 1.415-3.020s2.577 0.19 3.020 1.415z"></path>
<path d="M19.578 21.57c-0.012-0.006-0.018-0.018-0.030-0.024 0 0 0 0-0.006 0-0.006-0.006-0.024-0.018-0.048-0.036s-0.048-0.036-0.084-0.066c-0.036-0.024-0.072-0.054-0.12-0.090-0.018-0.012-0.036-0.024-0.054-0.042-0.036-0.030-0.072-0.054-0.114-0.090-0.018-0.018-0.042-0.030-0.060-0.048-0.054-0.042-0.114-0.090-0.174-0.138-0.090-0.072-0.186-0.144-0.282-0.222s-0.198-0.15-0.294-0.228c-0.066-0.048-0.126-0.102-0.192-0.144-0.372-0.288-0.678-0.522-0.708-0.546-0.018-0.018-0.042-0.030-0.060-0.042-0.006-0.006-0.012-0.006-0.018-0.012-0.018-0.012-0.030-0.018-0.048-0.030-0.006 0-0.006-0.006-0.012-0.006-0.018-0.012-0.036-0.018-0.054-0.024-0.006 0-0.006 0-0.012-0.006-0.012-0.006-0.030-0.012-0.042-0.012-0.006 0-0.012 0-0.018-0.006-0.018-0.006-0.036-0.006-0.048-0.006 0 0 0 0 0 0-0.018 0-0.036 0-0.048 0-0.006 0-0.006 0-0.012 0-0.018 0-0.030 0-0.048 0.006 0 0 0 0 0 0-0.012 0-0.030 0.006-0.042 0.012-0.006 0-0.006 0-0.012 0.006-0.012 0.006-0.024 0.012-0.036 0.018 0 0 0 0-0.006 0-0.012 0.006-0.024 0.012-0.030 0.024 0 0-0.006 0.006-0.006 0.006-0.012 0.006-0.018 0.018-0.030 0.030 0 0-0.006 0.006-0.006 0.006-0.006 0.012-0.018 0.018-0.024 0.030 0 0-0.006 0.006-0.006 0.006-0.006 0.012-0.012 0.024-0.018 0.036 0 0 0 0.006-0.006 0.006-0.006 0.012-0.012 0.024-0.012 0.036 0 0 0 0.006 0 0.006-0.006 0.012-0.006 0.030-0.012 0.048 0 0.006 0 0.006 0 0.012 0 0.018-0.006 0.036-0.006 0.048 0 0.132 0 0.432 0 0.726h-8.796c0-0.312 0-0.624 0-0.762 0-0.024 0-0.042-0.006-0.060 0-0.006 0-0.012-0.006-0.018 0-0.012-0.006-0.024-0.012-0.036 0-0.006-0.006-0.012-0.006-0.018-0.006-0.012-0.012-0.024-0.018-0.030s-0.006-0.012-0.012-0.018-0.018-0.018-0.024-0.030c-0.006-0.006-0.006-0.006-0.012-0.012-0.012-0.012-0.024-0.024-0.042-0.030 0 0-0.006 0-0.006-0.006-0.012-0.006-0.024-0.012-0.042-0.018-0.006 0-0.012-0.006-0.018-0.006-0.012-0.006-0.024-0.006-0.036-0.012-0.006 0-0.012 0-0.018-0.006-0.012 0-0.024 0-0.042-0.006-0.006 0-0.018 0-0.024 0s-0.012 0-0.018 0-0.024 0-0.036 0.006c-0.006 0-0.012 0-0.018 0-0.018 0-0.030 0.006-0.048 0.012 0 0-0.006 0-0.006 0-0.018 0.006-0.036 0.012-0.060 0.018-0.006 0-0.012 0.006-0.018 0.006-0.012 0.006-0.030 0.012-0.042 0.018-0.006 0.006-0.012 0.006-0.018 0.012-0.012 0.006-0.030 0.018-0.042 0.024-0.006 0.006-0.012 0.006-0.018 0.012-0.018 0.012-0.042 0.030-0.060 0.042 0 0-0.006 0.006-0.012 0.012-0.012 0.012-0.030 0.024-0.054 0.042-0.042 0.030-0.096 0.072-0.162 0.126-0.012 0.012-0.030 0.024-0.042 0.036-0.006 0.006-0.012 0.012-0.018 0.018-0.018 0.012-0.036 0.024-0.054 0.042-0.006 0.006-0.018 0.012-0.024 0.018s-0.258 0.198-0.312 0.24c-0.036 0.030-0.3 0.234-0.396 0.306-0.048 0.036-0.774 0.6-0.828 0.642-0.030 0.024-0.15 0.12-0.174 0.132-0.012 0.012-0.024 0.018-0.024 0.018s-0.006 0-0.006 0c0 0 0 0 0 0-0.012 0.006-0.018 0.018-0.030 0.024s-0.018 0.018-0.024 0.024c0 0 0 0 0 0-0.054 0.054-0.090 0.12-0.090 0.198 0 0 0 0 0 0v0c0 0 0 0.006 0 0.006 0 0.102 0.084 0.192 0.162 0.252 0 0 0.45 0.348 0.936 0.726 0.096 0.078 0.198 0.15 0.294 0.228 0.066 0.048 0.126 0.102 0.192 0.144 0.372 0.288 0.678 0.522 0.708 0.546 0.018 0.018 0.042 0.030 0.060 0.042 0.006 0.006 0.012 0.006 0.018 0.012 0.018 0.012 0.030 0.018 0.048 0.030 0.006 0 0.006 0.006 0.012 0.006 0.018 0.012 0.036 0.018 0.054 0.024 0.006 0 0.006 0 0.012 0.006 0.012 0.006 0.030 0.012 0.042 0.012 0.006 0 0.012 0 0.018 0.006 0.018 0.006 0.036 0.006 0.048 0.006 0 0 0 0 0 0 0.018 0 0.036 0 0.048 0 0.006 0 0.006 0 0.012 0 0.018 0 0.030 0 0.048-0.006 0 0 0 0 0 0 0.012 0 0.030-0.006 0.042-0.012 0.006 0 0.006 0 0.012-0.006 0.012-0.006 0.024-0.012 0.036-0.018 0 0 0 0 0.006 0 0.012-0.006 0.024-0.012 0.030-0.024 0 0 0.006-0.006 0.006-0.006 0.012-0.006 0.018-0.018 0.030-0.030 0 0 0.006-0.006 0.006-0.006 0.006-0.012 0.018-0.018 0.024-0.030 0 0 0.006-0.006 0.006-0.006 0.006-0.012 0.012-0.024 0.018-0.036 0 0 0-0.006 0.006-0.006 0.006-0.012 0.012-0.024 0.012-0.036 0 0 0-0.006 0-0.006 0.006-0.012 0.006-0.030 0.012-0.048 0-0.006 0-0.006 0-0.012 0-0.018 0.006-0.036 0.006-0.048 0-0.132 0-0.432 0-0.726v0h2.352c0 0 0 0 0 0h6.438c0 0.312 0 0.624 0 0.762 0 0.024 0 0.042 0.006 0.060 0 0.006 0 0.012 0.006 0.018 0 0.012 0.006 0.024 0.012 0.036 0 0.006 0.006 0.012 0.006 0.018 0.006 0.012 0.012 0.024 0.018 0.030s0.006 0.012 0.012 0.018 0.018 0.018 0.024 0.030c0.006 0.006 0.006 0.006 0.012 0.012 0.012 0.012 0.024 0.024 0.042 0.030 0 0 0.006 0 0.006 0.006 0.012 0.006 0.024 0.012 0.042 0.018 0.006 0 0.012 0.006 0.018 0.006 0.012 0.006 0.024 0.006 0.036 0.012 0.006 0 0.012 0 0.018 0.006 0.012 0 0.024 0 0.042 0.006 0.006 0 0.018 0 0.024 0s0.012 0 0.018 0 0.024 0 0.036-0.006c0.006 0 0.012 0 0.018 0 0.018 0 0.030-0.006 0.048-0.012 0 0 0.006 0 0.006 0 0.018-0.006 0.036-0.012 0.060-0.018 0.006 0 0.012-0.006 0.018-0.006 0.012-0.006 0.030-0.012 0.042-0.018 0.006-0.006 0.012-0.006 0.018-0.012 0.012-0.006 0.030-0.018 0.042-0.024 0.006-0.006 0.012-0.006 0.018-0.012 0.018-0.012 0.042-0.030 0.060-0.042 0.072-0.060 2.1-1.626 2.106-1.632 0.084-0.072 0.15-0.156 0.15-0.258 0.006-0.078-0.060-0.156-0.126-0.216z"></path>
</svg>
