<svg xmlns="http://www.w3.org/2000/svg" viewBox="0 0 1024 1024"><path d="M927.744 286.037H797.44c-33.792 0-83.456 28.416-83.456 62.208v202.496c0 39.168 32.512 67.584 49.92 71.168v174.592c8.448 2.56 16.64 7.168 24.064 13.568 3.84 3.072 93.696 76.8 101.12 82.944 13.568 10.752 21.504 25.6 21.76 40.96 24.32-5.12 50.688-25.6 50.688-60.928v-217.6-25.856-7.68c17.664-3.584 49.92-32 49.92-71.168V348.245c-.256-33.792-49.92-62.208-83.712-62.208zm29.3-183.988c18.914 52.247-8.108 109.935-60.355 128.849s-109.935-8.108-128.849-60.355c-18.914-52.247 8.108-109.935 60.355-128.849s109.935 8.108 128.849 60.355zm-806.772 792.5c2.56-2.048 9.728-8.192 39.424-32.512 25.344-20.736 59.904-49.152 62.464-51.2a90.658 90.658 0 0 1 13.568-9.216V655.445v-25.856-7.68c17.664-3.584 49.92-32 49.92-71.168V348.245c0-33.792-49.664-62.208-83.456-62.208H101.888c-34.048 0-83.968 28.416-83.968 62.208v202.496c0 39.168 32.512 67.584 49.92 71.168v251.136c0 40.96 35.584 62.208 62.208 62.208h.512c0-10.752 3.584-26.368 19.712-40.704zm111.195-792.546c18.914 52.247-8.108 109.935-60.355 128.849s-109.935-8.108-128.849-60.355C53.349 118.25 80.371 60.562 132.618 41.648s109.935 8.108 128.849 60.355zm573.861 839.65c-.512-.256-.768-.768-1.28-1.024h-.256c-.256-.256-1.024-.768-2.048-1.536s-2.048-1.536-3.584-2.816c-1.536-1.024-3.072-2.304-5.12-3.84-.768-.512-1.536-1.024-2.304-1.792-1.536-1.28-3.072-2.304-4.864-3.84-.768-.768-1.792-1.28-2.56-2.048-2.304-1.792-4.864-3.84-7.424-5.888-3.84-3.072-7.936-6.144-12.032-9.472s-8.448-6.4-12.544-9.728c-2.816-2.048-5.376-4.352-8.192-6.144-15.872-12.288-28.928-22.272-30.208-23.296-.768-.768-1.792-1.28-2.56-1.792-.256-.256-.512-.256-.768-.512-.768-.512-1.28-.768-2.048-1.28-.256 0-.256-.256-.512-.256-.768-.512-1.536-.768-2.304-1.024-.256 0-.256 0-.512-.256-.512-.256-1.28-.512-1.792-.512-.256 0-.512 0-.768-.256-.768-.256-1.536-.256-2.048-.256h-2.56c-.768 0-1.28 0-2.048.256-.512 0-1.28.256-1.792.512-.256 0-.256 0-.512.256l-1.536.768h-.256c-.512.256-1.024.512-1.28 1.024l-.256.256c-.512.256-.768.768-1.28 1.28l-.256.256c-.256.512-.768.768-1.024 1.28l-.256.256-.768 1.536s0 .256-.256.256c-.256.512-.512 1.024-.512 1.536v.256c-.256.512-.256 1.28-.512 2.048v.512c0 .768-.256 1.536-.256 2.048v30.976H338.944v-32.512c0-1.024 0-1.792-.256-2.56 0-.256 0-.512-.256-.768 0-.512-.256-1.024-.512-1.536 0-.256-.256-.512-.256-.768-.256-.512-.512-1.024-.768-1.28s-.256-.512-.512-.768-.768-.768-1.024-1.28l-.512-.512c-.512-.512-1.024-1.024-1.792-1.28 0 0-.256 0-.256-.256-.512-.256-1.024-.512-1.792-.768-.256 0-.512-.256-.768-.256-.512-.256-1.024-.256-1.536-.512-.256 0-.512 0-.768-.256-.512 0-1.024 0-1.792-.256h-1.792c-.256 0-1.024 0-1.536.256h-.768c-.768 0-1.28.256-2.048.512h-.256a32.23 32.23 0 0 1-2.56.768c-.256 0-.512.256-.768.256-.512.256-1.28.512-1.792.768-.256.256-.512.256-.768.512-.512.256-1.28.768-1.792 1.024-.256.256-.512.256-.768.512-.768.512-1.792 1.28-2.56 1.792l-.512.512c-.512.512-1.28 1.024-2.304 1.792-1.792 1.28-4.096 3.072-6.912 5.376-.512.512-1.28 1.024-1.792 1.536l-.768.768c-.768.512-1.536 1.024-2.304 1.792-.256.256-.768.512-1.024.768s-11.008 8.448-13.312 10.24c-1.536 1.28-12.8 9.984-16.896 13.056-2.048 1.536-33.024 25.6-35.328 27.392-1.28 1.024-6.4 5.12-7.424 5.632-.512.512-1.024.768-1.024.768h-.256c-.512.256-.768.768-1.28 1.024s-.768.768-1.024 1.024c-2.304 2.304-3.84 5.12-3.84 8.448v.256c0 4.352 3.584 8.192 6.912 10.752 0 0 19.2 14.848 39.936 30.976 4.096 3.328 8.448 6.4 12.544 9.728 2.816 2.048 5.376 4.352 8.192 6.144 15.872 12.288 28.928 22.272 30.208 23.296.768.768 1.792 1.28 2.56 1.792.256.256.512.256.768.512.768.512 1.28.768 2.048 1.28.256 0 .256.256.512.256.768.512 1.536.768 2.304 1.024.256 0 .256 0 .512.256.512.256 1.28.512 1.792.512.256 0 .512 0 .768.256.768.256 1.536.256 2.048.256h2.56c.768 0 1.28 0 2.048-.256.512 0 1.28-.256 1.792-.512.256 0 .256 0 .512-.256l1.536-.768h.256c.512-.256 1.024-.512 1.28-1.024l.256-.256c.512-.256.768-.768 1.28-1.28l.256-.256c.256-.512.768-.768 1.024-1.28l.256-.256.768-1.536s0-.256.256-.256c.256-.512.512-1.024.512-1.536v-.256c.256-.512.256-1.28.512-2.048v-.512c0-.768.256-1.536.256-2.048v-30.976H714.24v32.512c0 1.024 0 1.792.256 2.56 0 .256 0 .512.256.768 0 .512.256 1.024.512 1.536 0 .256.256.512.256.768.256.512.512 1.024.768 1.28s.256.512.512.768.768.768 1.024 1.28l.512.512c.512.512 1.024 1.024 1.792 1.28 0 0 .256 0 .256.256.512.256 1.024.512 1.792.768.256 0 .512.256.768.256.512.256 1.024.256 1.536.512.256 0 .512 0 .768.256.512 0 1.024 0 1.792.256h1.792c.256 0 1.024 0 1.536-.256h.768c.768 0 1.28-.256 2.048-.512h.256a32.23 32.23 0 0 1 2.56-.768c.256 0 .512-.256.768-.256.512-.256 1.28-.512 1.792-.768.256-.256.512-.256.768-.512.512-.256 1.28-.768 1.792-1.024.256-.256.512-.256.768-.512.768-.512 1.792-1.28 2.56-1.792 3.072-2.56 89.6-69.376 89.856-69.632 3.584-3.072 6.4-6.656 6.4-11.008.256-3.328-2.56-6.656-5.376-9.216z"/></svg>