<svg xmlns="http://www.w3.org/2000/svg" viewBox="0 0 1024 1024"><path d="M512 79.644c-250.667 0-453.689 203.022-453.689 453.689S261.333 987.022 512 987.022 965.689 784 965.689 533.333c0-250.667-203.022-453.689-453.689-453.689zM265.956 287.289C331.734 221.511 418.845 185.6 512 185.6c75.378 0 147.2 23.822 206.933 67.911l-486.4 486.756c-44.089-59.378-67.911-131.2-67.911-206.933-.356-92.8 35.911-180.267 101.333-246.044zm492.088 492.088C692.266 845.155 605.155 881.066 512 881.066c-74.311 0-145.422-23.111-204.444-66.133l485.689-486.044c43.022 59.022 66.133 129.778 66.133 204.444.356 92.8-35.911 180.267-101.333 246.044z"/></svg>