<!-- Generated by IcoMoon.io -->
<svg version="1.1" xmlns="http://www.w3.org/2000/svg" width="24" height="24" viewBox="0 0 24 24">
<title>do-not-sign</title>
<path d="M12 1.367c-5.875 0-10.633 4.758-10.633 10.633s4.758 10.633 10.633 10.633 10.633-4.758 10.633-10.633c0-5.875-4.758-10.633-10.633-10.633zM6.233 6.233c1.542-1.542 3.583-2.383 5.767-2.383 1.767 0 3.45 0.558 4.85 1.592l-11.4 11.408c-1.033-1.392-1.592-3.075-1.592-4.85-0.008-2.175 0.842-4.225 2.375-5.767zM17.767 17.767c-1.542 1.542-3.583 2.383-5.767 2.383-1.742 0-3.408-0.542-4.792-1.55l11.383-11.392c1.008 1.383 1.55 3.042 1.55 4.792 0.008 2.175-0.842 4.225-2.375 5.767z"></path>
</svg>
