<svg xmlns="http://www.w3.org/2000/svg" viewBox="0 0 1024 1024"><path d="M158.043 244.389h473.144l249.215 249.215v357.57c72.234-86.684 115.576-198.647 115.576-317.834 0-270.886-216.705-491.204-483.978-491.204S28.022 262.454 28.022 533.34c0 126.413 46.955 245.602 126.413 332.286l3.613-621.23zm671.791 288.944H595.066V294.957h-386.46v617.617c83.071 68.626 187.813 111.968 303.389 111.968 122.8 0 231.155-46.955 317.834-122.8V533.34zM595.071 912.569H280.843v-57.787h314.228v57.787zM753.989 793.38H280.845v-57.787h473.144v57.787zM280.845 674.193v-57.787h473.144v57.787H280.845z"/></svg>