<!-- Generated by IcoMoon.io -->
<svg version="1.1" xmlns="http://www.w3.org/2000/svg" width="24" height="24" viewBox="0 0 24 24">
<title>document</title>
<path d="M3.704 5.228h11.089l5.841 5.841v8.381c1.693-2.032 2.709-4.656 2.709-7.449 0-6.349-5.079-11.513-11.343-11.513s-11.343 5.164-11.343 11.513c0 2.963 1.101 5.756 2.963 7.788l0.085-14.56z"></path>
<path d="M19.449 12h-5.502v-5.587h-9.058v14.475c1.947 1.608 4.402 2.624 7.111 2.624 2.878 0 5.418-1.101 7.449-2.878 0 0 0-8.634 0-8.634zM13.947 20.888h-7.365v-1.354h7.365v1.354zM17.672 18.095h-11.089v-1.354h11.089v1.354zM6.582 15.301v-1.354h11.089v1.354h-11.089z"></path>
</svg>
