<svg xmlns="http://www.w3.org/2000/svg" viewBox="0 0 1024 1024"><path d="M667.798 43.131l-72.203 478.802h83.603c15.203 0 26.603 11.4 26.603 26.603 0 7.597-3.803 15.203-7.597 18.997L534.801 730.936c-3.803 3.803-11.4 7.597-18.997 7.597s-15.203-3.803-18.997-7.597L333.404 567.533c-3.803-3.803-7.597-11.4-7.597-18.997 0-15.203 11.4-26.603 26.603-26.603h83.603L360.015 43.131h307.801zm254.603 801.806c0 60.803-49.403 110.198-110.198 110.198H211.804c-60.803 0-110.198-49.403-110.198-110.198V248.332c0-60.803 49.403-110.198 110.198-110.198h49.403l95.003 307.801h-7.597c-57 0-102.6 45.6-102.6 102.6 0 26.603 11.4 53.197 30.397 72.203l163.403 163.403c18.997 18.997 45.6 30.397 72.203 30.397s53.197-11.4 72.203-30.397l163.403-163.403c18.997-18.997 30.397-45.6 30.397-72.203 0-57-45.6-102.6-102.6-102.6h-7.597l95.003-307.801h49.403c60.803 0 110.198 49.403 110.198 110.198v596.605z"/></svg>