<!-- Generated by IcoMoon.io -->
<svg version="1.1" xmlns="http://www.w3.org/2000/svg" width="24" height="24" viewBox="0 0 24 24">
<title>down-right</title>
<path d="M17.316 9.253v6.544l-10.955-10.955c-0.422-0.422-1.102-0.422-1.523 0s-0.422 1.102 0 1.523l10.955 10.955h-6.544c-0.595 0-1.078 0.483-1.078 1.078s0.483 1.078 1.078 1.078h9.145c0.005 0 0.009 0 0.009 0 0.136 0 0.272-0.028 0.398-0.080 0.262-0.108 0.473-0.319 0.581-0.581 0.056-0.131 0.084-0.272 0.084-0.412v-9.15c-0.005-0.595-0.483-1.078-1.078-1.078-0.591 0-1.073 0.483-1.073 1.078z"></path>
</svg>
