<!-- Generated by IcoMoon.io -->
<svg version="1.1" xmlns="http://www.w3.org/2000/svg" width="24" height="24" viewBox="0 0 24 24">
<title>down-left</title>
<path d="M14.747 17.316h-6.544l10.955-10.955c0.422-0.422 0.422-1.102 0-1.523s-1.102-0.422-1.523 0l-10.955 10.955v-6.544c0-0.595-0.483-1.078-1.078-1.078s-1.078 0.483-1.078 1.078v9.145c0 0.005 0 0.009 0 0.009 0 0.136 0.028 0.272 0.080 0.398 0.108 0.262 0.319 0.473 0.581 0.581 0.131 0.056 0.272 0.084 0.412 0.084h9.145c0.595-0.005 1.078-0.483 1.078-1.078 0.005-0.591-0.478-1.073-1.073-1.073z"></path>
</svg>
