<svg xmlns="http://www.w3.org/2000/svg" viewBox="0 0 1024 1024"><path d="M984.889 482.489c-25.956-32.356-61.511-61.511-103.467-74.311 0-9.6 3.2-19.556 3.2-32.356 3.2-35.556-9.6-87.467-64.711-126.222s-106.667-38.756-142.222-29.156c-12.8 3.2-25.956 9.6-35.556 12.8-12.8-12.8-29.156-32.356-48.356-48.356-58.311-48.356-126.222-64.711-200.533-55.111-77.511 9.6-142.222 45.156-184.533 100.267-32.356 41.956-45.156 90.667-41.956 139.022-19.556 9.6-41.956 22.756-67.911 41.956C40.533 456.178 8.177 517.689 4.977 588.8c0 48.356 19.556 93.867 55.111 132.622 41.956 45.156 103.467 71.111 164.978 71.111h45.156c16 0 29.156-12.8 29.156-29.156 0-16-12.8-29.156-29.156-29.156h-45.511c-45.156 0-90.667-19.556-123.022-51.911-19.556-19.556-38.756-48.356-38.756-90.667 0-51.911 25.956-97.067 67.911-126.222 38.756-29.156 74.311-41.956 74.311-41.956l6.4-3.2c16-3.2 19.556-9.6 16-25.956v-3.2c-6.4-45.156 3.2-84.267 29.156-119.822 29.156-41.956 80.711-71.111 142.222-77.511 55.111-6.4 106.667 6.4 152.178 41.956 35.556 29.156 51.911 58.311 51.911 58.311s3.2 9.6 6.4 12.8c3.2 3.2 16 9.6 25.956 3.2 9.6-6.4 12.8-9.6 12.8-9.6s64.711-48.356 132.622 0c25.956 19.556 38.756 41.956 38.756 71.111 0 22.756-9.6 41.956-9.6 41.956s-3.2 3.2-6.4 12.8c-3.2 9.6-3.2 25.956 16 29.156 3.2 0 12.8 3.2 12.8 3.2 38.756 6.4 74.311 29.156 97.067 61.511 22.756 29.156 29.156 64.711 22.756 103.467s-29.156 71.111-67.911 90.667c-32.356 16-67.911 22.756-90.667 22.756H741.69c-16 0-29.156 12.8-29.156 29.156 0 16 12.8 29.156 29.156 29.156h51.911c16 0 67.911-3.2 126.222-32.356 55.111-29.156 87.467-74.311 97.067-132.622 10.311-54.044.356-105.956-32-147.911zM641.067 804.622c-6.4-6.4-19.556-9.6-29.156 3.2L547.2 875.733v-55.111-321.067c0-12.8-7.467-17.067-14.933-17.067h-33.422c-7.111 0-16.356 3.556-16.356 16v377.244l-64.711-67.911c-9.6-9.6-19.556-9.6-29.156-3.2l-19.556 19.556c-9.6 9.6-6.4 22.756 3.2 29.156l109.867 116.622c6.4 6.4 16 16 32.356 16 16 0 25.956-9.6 32.356-16l109.867-116.622c6.4-6.4 9.6-22.756 3.2-29.156l-18.844-19.556z"/></svg>