<!-- Generated by IcoMoon.io -->
<svg version="1.1" xmlns="http://www.w3.org/2000/svg" width="24" height="24" viewBox="0 0 24 24">
<title>download</title>
<path d="M15.652 0.511l-1.692 11.222h1.959c0.356 0 0.624 0.267 0.624 0.624 0 0.178-0.089 0.356-0.178 0.445l-3.83 3.83c-0.089 0.089-0.267 0.178-0.445 0.178s-0.356-0.089-0.445-0.178l-3.83-3.83c-0.089-0.089-0.178-0.267-0.178-0.445 0-0.356 0.267-0.624 0.624-0.624h1.959l-1.781-11.222h7.214z"></path>
<path d="M21.619 19.303c0 1.425-1.158 2.583-2.583 2.583h-14.072c-1.425 0-2.583-1.158-2.583-2.583v-13.983c0-1.425 1.158-2.583 2.583-2.583h1.158l2.227 7.214h-0.178c-1.336 0-2.405 1.069-2.405 2.405 0 0.624 0.267 1.247 0.712 1.692l3.83 3.83c0.445 0.445 1.069 0.712 1.692 0.712s1.247-0.267 1.692-0.712l3.83-3.83c0.445-0.445 0.712-1.069 0.712-1.692 0-1.336-1.069-2.405-2.405-2.405h-0.178l2.227-7.214h1.158c1.425 0 2.583 1.158 2.583 2.583 0 0 0 13.983 0 13.983z"></path>
</svg>
