<!-- Generated by IcoMoon.io -->
<svg version="1.1" xmlns="http://www.w3.org/2000/svg" width="24" height="24" viewBox="0 0 24 24">
<title>drag</title>
<path d="M23.425 10.975l-3.367-3.367c-0.792-0.792-1.442-0.525-1.442 0.6v2.775h-5.6v-5.6h2.775c1.125 0 1.392-0.65 0.6-1.442l-3.317-3.325c-0.792-0.792-1.308-0.842-2.1-0.050l-3.367 3.375c-0.792 0.792-0.525 1.442 0.6 1.442h2.775v5.6h-5.6v-2.783c0-1.125-0.65-1.392-1.442-0.6l-3.325 3.325c-0.792 0.792-0.842 1.308-0.050 2.1l3.367 3.367c0.792 0.792 1.442 0.525 1.442-0.6v-2.775h5.6v5.6h-2.775c-1.125 0-1.392 0.65-0.6 1.442l3.325 3.325c0.792 0.792 1.308 0.842 2.1 0.050l3.367-3.367c0.792-0.792 0.525-1.442-0.6-1.442h-2.775v-5.6h5.6v2.775c0 1.125 0.65 1.392 1.442 0.6l3.325-3.325c0.792-0.792 0.842-1.308 0.042-2.1z"></path>
</svg>
