<svg xmlns="http://www.w3.org/2000/svg" viewBox="0 0 1024 1024"><path d="M999.467 489.6L855.823 345.956c-33.778-33.778-61.511-22.4-61.511 25.6v118.4H555.379V251.023h118.4c48 0 59.378-27.733 25.6-61.511L557.868 47.645c-33.778-33.778-55.822-35.911-89.6-2.133l-143.644 144c-33.778 33.778-22.4 61.511 25.6 61.511h118.4v238.933H229.691V371.2c0-48-27.733-59.378-61.511-25.6L26.313 487.467c-33.778 33.778-35.911 55.822-2.133 89.6l143.644 143.644c33.778 33.778 61.511 22.4 61.511-25.6v-118.4h238.933v238.933h-118.4c-48 0-59.378 27.733-25.6 61.511l141.867 141.867c33.778 33.778 55.822 35.911 89.6 2.133l143.644-143.644c33.778-33.778 22.4-61.511-25.6-61.511h-118.4V577.067h238.933v118.4c0 48 27.733 59.378 61.511 25.6L997.69 579.2c33.778-33.778 35.911-55.822 1.778-89.6z"/></svg>