<!-- Generated by IcoMoon.io -->
<svg version="1.1" xmlns="http://www.w3.org/2000/svg" width="24" height="24" viewBox="0 0 24 24">
<title>drawer</title>
<path d="M21 3c-0.422-0.938-1.187-1.5-2.016-1.5h-14.109c-0.828 0-1.5 0.563-1.875 1.5l-3 12v6.774c0 0.414 0.336 0.75 0.75 0.75h22.5c0.414 0 0.75-0.336 0.75-0.75v-6.681l-0.020-0.069-2.98-12.024zM4.417 3.5c0.069-0.155 0.244-0.5 0.458-0.5h14.109c0.206 0 0.442 0.212 0.609 0.534l2.641 10.736c0 0.003-0.005 0-0.005 0.003 0 0.414-0.336 0.75-0.75 0.75-0.002 0-0.002 0.002-0.003 0.002h-5.727c-0.414 0-0.75 0.336-0.75 0.75v1.476c0 0.414-0.336 0.75-0.75 0.75-0.015 0-0.030 0.020-0.045 0.024h-4.43c-0.010-0.005-0.010-0.024-0.025-0.024-0.414 0-0.75-0.336-0.75-0.75v-1.476c0-0.414-0.336-0.75-0.75-0.75h-5.727c-0.002 0-0.002-0.002-0.003-0.002-0.414 0-0.762-0.336-0.762-0.75 0-0.011-0.012-0.003-0.015-0.011l2.675-10.762z"></path>
</svg>
