<svg xmlns="http://www.w3.org/2000/svg" viewBox="0 0 1024 1024"><path d="M896 149.333c-17.984-40-50.624-64-86.016-64H208c-35.328 0-64 24-80 64l-128 512v289.024c0 17.664 14.336 32 32 32h960c17.664 0 32-14.336 32-32V665.301l-.832-2.944L896 149.333zm-707.52 21.312c2.944-6.592 10.432-21.312 19.52-21.312h601.984c8.768 0 18.88 9.024 25.984 22.784l112.704 458.048c0 .128-.192 0-.192.128 0 17.664-14.336 32-32 32-.064 0-.064.064-.128.064H672c-17.664 0-32 14.336-32 32v62.976c0 17.664-14.336 32-32 32-.64 0-1.28.832-1.92 1.024H417.088c-.448-.192-.448-1.024-1.088-1.024-17.664 0-32-14.336-32-32v-62.976c0-17.664-14.336-32-32-32H107.648c-.064 0-.064-.064-.128-.064-17.664 0-32.512-14.336-32.512-32 0-.448-.512-.128-.64-.448l114.112-459.2z"/></svg>