<svg xmlns="http://www.w3.org/2000/svg" viewBox="0 0 1024 1024"><path d="M128 1045.333h768c70.72 0 128-57.28 128-128v-64c0-3.008-.704-5.824-.896-8.704.192-3.264.896-6.976.896-9.984l-64-685.312c-3.968-62.656-57.28-128-128-128H192c-70.72 0-124.032 65.344-128 128L0 834.645c0 3.008.704 6.72.896 9.92-.192 2.944-.896 5.76-.896 8.768v64c0 70.72 57.28 128 128 128zm-64-128v-64c0-35.264 28.736-64 64-64h768c35.264 0 64 28.736 64 64v64c0 35.264-28.736 64-64 64H128c-35.264 0-64-28.736-64-64zm768-32c0 17.673 14.327 32 32 32s32-14.327 32-32c0-17.673-14.327-32-32-32s-32 14.327-32 32zm-121.344-1.344c0 17.673 14.327 32 32 32s32-14.327 32-32c0-17.673-14.327-32-32-32s-32 14.327-32 32zM160 917.333h448c17.664 0 32-14.336 32-32s-14.336-32-32-32H160c-17.664 0-32 14.336-32 32s14.336 32 32 32z"/></svg>