<!-- Generated by IcoMoon.io -->
<svg version="1.1" xmlns="http://www.w3.org/2000/svg" width="24" height="24" viewBox="0 0 24 24">
<title>drive</title>
<path d="M3 24h18c1.657 0 3-1.343 3-3v-1.5c0-0.071-0.017-0.136-0.021-0.204 0.005-0.076 0.021-0.163 0.021-0.234l-1.5-16.062c-0.093-1.469-1.343-3-3-3h-15c-1.657 0-2.907 1.531-3 3l-1.5 16.062c0 0.070 0.017 0.157 0.021 0.232-0.005 0.069-0.021 0.135-0.021 0.206v1.5c0 1.657 1.343 3 3 3zM1.5 21v-1.5c0-0.826 0.674-1.5 1.5-1.5h18c0.826 0 1.5 0.674 1.5 1.5v1.5c0 0.826-0.674 1.5-1.5 1.5h-18c-0.827 0-1.5-0.674-1.5-1.5zM19.5 20.25c0 0.414 0.336 0.75 0.75 0.75s0.75-0.336 0.75-0.75c0-0.414-0.336-0.75-0.75-0.75s-0.75 0.336-0.75 0.75zM16.656 20.218c0 0.414 0.336 0.75 0.75 0.75s0.75-0.336 0.75-0.75c0-0.414-0.336-0.75-0.75-0.75s-0.75 0.336-0.75 0.75zM3.75 21h10.5c0.414 0 0.75-0.336 0.75-0.75s-0.336-0.75-0.75-0.75h-10.5c-0.414 0-0.75 0.336-0.75 0.75s0.336 0.75 0.75 0.75z"></path>
</svg>
