<!-- Generated by IcoMoon.io -->
<svg version="1.1" xmlns="http://www.w3.org/2000/svg" width="24" height="24" viewBox="0 0 24 24">
<title>ear-slash</title>
<path d="M13.575 18.075c-0.15 0.225-0.225 0.375-0.3 0.6-0.45 1.125-1.5 3.75-4.65 3.75-2.85 0-3.75-2.925-3.75-4.050 0-0.45 0.375-0.825 0.825-0.825s0.825 0.375 0.825 0.825c0 0 0.225 2.4 2.1 2.4 1.725 0 2.475-1.050 3.15-2.7 0.075-0.3 0.225-0.525 0.375-0.825 0.225-0.375 0.75-0.525 1.125-0.3 0.45 0.225 0.525 0.75 0.3 1.125zM21.3 21.375c-0.15 0.15-0.375 0.225-0.6 0.225s-0.375-0.075-0.6-0.225l-8.55-8.7c0 0 0 0 0 0l-3.375-3.375c0 0 0 0 0 0l-5.625-5.625c-0.3-0.3-0.3-0.825 0-1.125s0.825-0.3 1.125 0l2.55 2.55c0.9-2.175 3.225-3.6 5.775-3.6 3.15 0 6.6 2.625 6.6 6.9 0 3.3-1.2 5.175-2.475 6.6l5.175 5.175c0.375 0.375 0.375 0.825 0 1.2zM15 13.875c1.125-1.275 2.025-2.775 2.025-5.475 0-3.3-2.625-5.325-5.025-5.325-2.475 0-4.125 1.65-4.575 3.225l1.725 1.725c0.9-2.7 1.65-3.375 3.375-3.375 1.575 0 3 1.2 3 3.375 0 0.375-0.3 0.6-0.6 0.6-0.75 0 0.45-2.4-2.025-2.4-1.575 0-2.325 1.275-2.025 3.45l4.125 4.2zM7.35 15.225c0 0.225 0 1.5 1.575 1.5 0.975 0 1.875-0.825 2.325-2.025l-2.4-2.4c0 0.075 0.075 0.15 0.075 0.225 0 1.5-1.575 1.125-1.575 2.7z"></path>
</svg>
