<svg xmlns="http://www.w3.org/2000/svg" viewBox="0 0 1024 1024"><path d="M579.2 792.533c-6.4 9.6-9.6 16-12.8 25.6-19.2 48-64 160-198.4 160-121.6 0-160-124.8-160-172.8 0-19.2 16-35.2 35.2-35.2s35.2 16 35.2 35.2c0 0 9.6 102.4 89.6 102.4 73.6 0 105.6-44.8 134.4-115.2 3.2-12.8 9.6-22.4 16-35.2 9.6-16 32-22.4 48-12.8 19.2 9.6 22.4 32 12.8 48zm329.6 140.8c-6.4 6.4-16 9.6-25.6 9.6s-16-3.2-25.6-9.6l-364.8-371.2-144-144-240-240c-12.8-12.8-12.8-35.2 0-48s35.2-12.8 48 0l108.8 108.8c38.4-92.8 137.6-153.6 246.4-153.6 134.4 0 281.6 112 281.6 294.4 0 140.8-51.2 220.8-105.6 281.6l220.8 220.8c16 16 16 35.2 0 51.2zm-268.8-320c48-54.4 86.4-118.4 86.4-233.6 0-140.8-112-227.2-214.4-227.2-105.6 0-176 70.4-195.2 137.6l73.6 73.6c38.4-115.2 70.4-144 144-144 67.2 0 128 51.2 128 144 0 16-12.8 25.6-25.6 25.6-32 0 19.2-102.4-86.4-102.4-67.2 0-99.2 54.4-86.4 147.2l176 179.2zm-326.4 57.6c0 9.6 0 64 67.2 64 41.6 0 80-35.2 99.2-86.4l-102.4-102.4c0 3.2 3.2 6.4 3.2 9.6 0 64-67.2 48-67.2 115.2z"/></svg>