<!-- Generated by IcoMoon.io -->
<svg version="1.1" xmlns="http://www.w3.org/2000/svg" width="24" height="24" viewBox="0 0 24 24">
<title>ear</title>
<path d="M7.95 15.15c0 0.225 0 1.5 1.575 1.5 0.675 0 1.275-0.375 1.8-1.050 0.15-0.15 0.375-0.45 0.525-0.825 1.35-2.775-0.45-5.1-0.45-5.1-0.225-2.175 0.525-3.45 2.1-3.45 2.4 0 1.275 2.4 2.025 2.4 0.3 0 0.6-0.3 0.6-0.6 0-2.175-1.425-3.375-3-3.375-1.725 0-2.475 0.9-3.375 3.375-0.45 1.275-0.45 3.075-0.225 4.65-0.15 1.2-1.575 0.9-1.575 2.475z"></path>
<path d="M19.125 9.675c0 0 0-0.075 0-0.075 0.075-0.375 0.075-0.825 0.075-1.275 0-4.275-3.45-6.9-6.6-6.9-2.55 0-4.8 1.575-5.475 2.775-0.75 1.35-1.5 2.175-1.425 5.325 0 1.8 1.65 1.35 1.725 0.15 0.15-1.95 0.6-3.375 0.6-3.375 0.45-1.65 2.1-3.3 4.575-3.3 2.4 0 5.025 2.025 5.025 5.325 0 1.575-0.3 2.775-0.825 3.75-0.15 0.3-0.45 0.75-0.825 1.35-0.075 0.15-0.225 0.3-0.3 0.375v0c-0.825 0.9-1.425 1.050-2.775 3.375-0.15 0.3-0.3 0.525-0.375 0.75 0 0 0 0.075 0 0.075-0.675 1.65-1.425 2.7-3.15 2.7-1.875 0-2.1-2.4-2.1-2.4 0-0.45-0.375-0.825-0.825-0.825s-0.825 0.375-0.825 0.825c0 1.050 0.9 4.050 3.75 4.050 3.15 0 4.2-2.625 4.65-3.75 0.075-0.075 0.075-0.225 0.15-0.3 0.225-0.45 1.275-2.1 1.725-2.55s2.4-2.4 3.15-5.175c0-0.075 0-0.15 0.075-0.225-0.075-0.15-0.075-0.45 0-0.675z"></path>
</svg>
