<svg xmlns="http://www.w3.org/2000/svg" viewBox="0 0 1024 1024"><path d="M339.2 667.733c0 9.6 0 64 67.2 64 28.8 0 54.4-16 76.8-44.8 6.4-6.4 16-19.2 22.4-35.2 57.6-118.4-19.2-217.6-19.2-217.6-9.6-92.8 22.4-147.2 89.6-147.2 102.4 0 54.4 102.4 86.4 102.4 12.8 0 25.6-12.8 25.6-25.6 0-92.8-60.8-144-128-144-73.6 0-105.6 38.4-144 144-19.2 54.4-19.2 131.2-9.6 198.4-6.4 51.2-67.2 38.4-67.2 105.6zm476.8-233.6v-3.2c3.2-16 3.2-35.2 3.2-54.4 0-182.4-147.2-294.4-281.6-294.4-108.8 0-204.8 67.2-233.6 118.4-32 57.6-64 92.8-60.8 227.2 0 76.8 70.4 57.6 73.6 6.4 6.4-83.2 25.6-144 25.6-144 19.2-70.4 89.6-140.8 195.2-140.8 102.4 0 214.4 86.4 214.4 227.2 0 67.2-12.8 118.4-35.2 160-6.4 12.8-19.2 32-35.2 57.6-3.2 6.4-9.6 12.8-12.8 16-35.2 38.4-60.8 44.8-118.4 144-6.4 12.8-12.8 22.4-16 32v3.2c-28.8 70.4-60.8 115.2-134.4 115.2-80 0-89.6-102.4-89.6-102.4 0-19.2-16-35.2-35.2-35.2s-35.2 16-35.2 35.2c0 44.8 38.4 172.8 160 172.8 134.4 0 179.2-112 198.4-160 3.2-3.2 3.2-9.6 6.4-12.8 9.6-19.2 54.4-89.6 73.6-108.8s102.4-102.4 134.4-220.8c0-3.2 0-6.4 3.2-9.6-3.2-6.4-3.2-19.2 0-28.8z"/></svg>