<svg xmlns="http://www.w3.org/2000/svg" viewBox="0 0 1024 1024"><path d="M512 1020.444c-28.089-33.067-55.467-65.422-82.489-98.133-62.222-75.022-125.156-149.689-185.6-226.133-45.156-57.244-77.156-121.244-90.667-194.133-32.356-173.511 68.622-350.222 235.022-408.889 170.311-60.444 356.267 8.889 443.022 167.467 56.533 103.111 61.867 209.778 9.956 317.156-27.378 56.889-65.067 107.022-104.178 156.444-72.889 92.089-145.067 184.889-217.6 277.689-2.133 2.133-4.622 4.978-7.467 8.533zm92.089-581.689c9.244-8.178 17.067-14.933 25.244-22.044 7.111-6.044 14.222-6.4 22.044-1.422 8.178 5.689 16.356 11.378 24.889 16.711 3.911 2.489 9.244 4.267 13.867 4.267 24.533.356 48.711.356 73.244.356 3.556 0 7.111-.356 11.733-.711-3.556-104.178-48-183.467-138.311-233.956-91.022-50.844-205.867-40.178-286.933 24.889-66.489 53.689-98.844 123.733-99.911 209.422 37.689 0 73.244 0 109.156-.356 2.844 0 6.756-2.489 8.533-4.978 6.044-8.178 11.378-17.422 17.422-25.6 7.467-10.667 19.556-10.667 27.733-.711 3.2 3.911 6.044 8.178 10.311 13.511 1.067-3.2 1.422-4.622 1.778-5.689 12.8-52.622 25.244-105.244 38.044-157.511 2.489-10.311 9.244-16 17.778-15.644 8.533.711 14.933 6.756 16 16.711 6.044 57.6 12.089 115.556 18.133 173.511 2.133 20.978 4.622 41.956 6.756 62.578 2.133-2.489 2.844-4.978 3.2-7.467 4.978-28.089 9.956-55.822 14.578-83.911 1.422-8.889 4.267-16.356 14.222-18.489 9.244-1.778 14.933 3.556 19.556 10.667 10.311 15.289 20.267 30.222 30.933 45.867zm-350.578 30.934c12.8 114.489 119.822 233.6 274.489 224.356 151.822-8.889 235.022-134.044 242.489-224.356-22.756 0-45.511-1.067-67.911.356-20.267 1.067-38.4-2.133-53.689-16-1.778-1.778-4.267-2.489-6.756-3.911-9.956 8.889-19.556 17.422-29.156 25.244-9.244 7.822-18.844 6.756-25.956-2.489-3.2-4.267-6.044-8.889-8.889-13.156-3.556-4.978-6.756-9.6-11.378-16-10.667 60.089-20.622 117.689-30.933 174.933-2.133 12.444-7.822 18.133-17.778 17.778-9.6-.356-15.289-6.756-16.711-18.844-7.467-72.533-14.933-144.711-22.756-217.244-1.422-13.156-3.2-26.667-4.622-39.822-2.133 1.067-2.489 2.133-2.844 3.556-7.467 31.289-14.933 62.222-22.4 93.511-1.778 7.822-4.978 14.578-13.867 16.356-8.533 1.778-14.578-2.489-19.2-9.6s-9.956-13.511-15.289-20.978c-3.2 4.622-5.689 7.822-7.467 11.378-5.689 11.378-14.933 15.644-27.733 15.289-18.489-1.067-36.622-.356-55.111-.356H253.51z"/></svg>