<!-- Generated by IcoMoon.io -->
<svg version="1.1" xmlns="http://www.w3.org/2000/svg" width="24" height="24" viewBox="0 0 24 24">
<title>earthquake</title>
<path d="M12 23.417c-0.658-0.775-1.3-1.533-1.933-2.3-1.458-1.758-2.933-3.508-4.35-5.3-1.058-1.342-1.808-2.842-2.125-4.55-0.758-4.067 1.608-8.208 5.508-9.583 3.992-1.417 8.35 0.208 10.383 3.925 1.325 2.417 1.45 4.917 0.233 7.433-0.642 1.333-1.525 2.508-2.442 3.667-1.708 2.158-3.4 4.333-5.1 6.508-0.050 0.050-0.108 0.117-0.175 0.2zM14.158 9.783c0.217-0.192 0.4-0.35 0.592-0.517 0.167-0.142 0.333-0.15 0.517-0.033 0.192 0.133 0.383 0.267 0.583 0.392 0.092 0.058 0.217 0.1 0.325 0.1 0.575 0.008 1.142 0.008 1.717 0.008 0.083 0 0.167-0.008 0.275-0.017-0.083-2.442-1.125-4.3-3.242-5.483-2.133-1.192-4.825-0.942-6.725 0.583-1.558 1.258-2.317 2.9-2.342 4.908 0.883 0 1.717 0 2.558-0.008 0.067 0 0.158-0.058 0.2-0.117 0.142-0.192 0.267-0.408 0.408-0.6 0.175-0.25 0.458-0.25 0.65-0.017 0.075 0.092 0.142 0.192 0.242 0.317 0.025-0.075 0.033-0.108 0.042-0.133 0.3-1.233 0.592-2.467 0.892-3.692 0.058-0.242 0.217-0.375 0.417-0.367 0.2 0.017 0.35 0.158 0.375 0.392 0.142 1.35 0.283 2.708 0.425 4.067 0.050 0.492 0.108 0.983 0.158 1.467 0.050-0.058 0.067-0.117 0.075-0.175 0.117-0.658 0.233-1.308 0.342-1.967 0.033-0.208 0.1-0.383 0.333-0.433 0.217-0.042 0.35 0.083 0.458 0.25 0.242 0.358 0.475 0.708 0.725 1.075zM5.942 10.508c0.3 2.683 2.808 5.475 6.433 5.258 3.558-0.208 5.508-3.142 5.683-5.258-0.533 0-1.067-0.025-1.592 0.008-0.475 0.025-0.9-0.050-1.258-0.375-0.042-0.042-0.1-0.058-0.158-0.092-0.233 0.208-0.458 0.408-0.683 0.592-0.217 0.183-0.442 0.158-0.608-0.058-0.075-0.1-0.142-0.208-0.208-0.308-0.083-0.117-0.158-0.225-0.267-0.375-0.25 1.408-0.483 2.758-0.725 4.1-0.050 0.292-0.183 0.425-0.417 0.417-0.225-0.008-0.358-0.158-0.392-0.442-0.175-1.7-0.35-3.392-0.533-5.092-0.033-0.308-0.075-0.625-0.108-0.933-0.050 0.025-0.058 0.050-0.067 0.083-0.175 0.733-0.35 1.458-0.525 2.192-0.042 0.183-0.117 0.342-0.325 0.383-0.2 0.042-0.342-0.058-0.45-0.225s-0.233-0.317-0.358-0.492c-0.075 0.108-0.133 0.183-0.175 0.267-0.133 0.267-0.35 0.367-0.65 0.358-0.433-0.025-0.858-0.008-1.292-0.008-0.45 0-0.883 0-1.325 0z"></path>
</svg>
