<!-- Generated by IcoMoon.io -->
<svg version="1.1" xmlns="http://www.w3.org/2000/svg" width="24" height="24" viewBox="0 0 24 24">
<title>electricity-hazard</title>
<path d="M23 16.767l-7.758-13.95c-0.642-1.158-1.825-1.85-3.15-1.85s-2.508 0.692-3.15 1.85l-7.758 13.95c-0.625 1.125-0.608 2.467 0.042 3.575 0.658 1.117 1.817 1.775 3.108 1.775h15.525c1.292 0 2.45-0.667 3.108-1.775 0.65-1.108 0.667-2.45 0.033-3.575zM21.233 19.333c-0.292 0.492-0.808 0.792-1.383 0.792h-15.517c-0.575 0-1.092-0.292-1.383-0.792-0.292-0.492-0.3-1.092-0.017-1.592l7.758-13.95c0.283-0.517 0.808-0.825 1.4-0.825s1.117 0.308 1.4 0.825l7.758 13.95c0.283 0.5 0.275 1.092-0.017 1.592z"></path>
<path d="M12.092 11.983l1.675-4.183-2.958 0.792-1.892 5.8 3.475-0.675-1.042 2.292-0.75-0.275 0.517 2.933 2.283-1.908-0.817-0.3 2.683-5.067z"></path>
</svg>
