<svg xmlns="http://www.w3.org/2000/svg" viewBox="0 0 1024 1024"><path d="M977.878 292.372c-2.733-42.055-36.041-75.368-78.101-78.147-1.822-.088-3.6-.548-5.422-.548v.548l-766.209-.548c-1.822 0-3.6.46-5.422.548-42.602 2.821-76.236 36.863-78.288 79.608-.044 1.274-.407 2.645-.407 3.963s.363 2.601.407 3.875v544.891h933.399V303.174c.132-1.822.592-3.556.592-5.378 0-1.866-.407-3.6-.548-5.422zm-152.925 4.875L511.134 564.455 197.405 297.247h627.549zm-697.445 84.577c.229 0 .46.044.68.044v-34.493l206.008 175.389-206.688 194.573V381.823zm42.238 381.715l207.83-206.831 133.602 116.789L645.6 555.932l206.741 207.653H169.745zm725.155-46.247L688.16 522.719l206.15-175.522v34.635c.229 0 .407-.044.592-.044v335.514z"/></svg>