<!-- Generated by IcoMoon.io -->
<svg version="1.1" xmlns="http://www.w3.org/2000/svg" width="24" height="24" viewBox="0 0 24 24">
<title>email</title>
<path d="M22.919 6.352c-0.064-0.986-0.845-1.766-1.83-1.832-0.043-0.002-0.084-0.013-0.127-0.013v0.013l-17.958-0.013c-0.043 0-0.084 0.011-0.127 0.013-0.998 0.066-1.787 0.864-1.835 1.866-0.001 0.030-0.010 0.062-0.010 0.093s0.009 0.061 0.010 0.091v12.771h21.877v-12.736c0.003-0.043 0.014-0.083 0.014-0.126 0-0.044-0.010-0.084-0.013-0.127zM19.335 6.467l-7.355 6.263-7.353-6.263h14.708zM2.988 8.449c0.005 0 0.011 0.001 0.016 0.001v-0.808l4.828 4.111-4.844 4.56v-7.864zM3.978 17.395l4.871-4.848 3.131 2.737 3.151-2.755 4.845 4.867h-15.998zM20.974 16.312l-4.845-4.56 4.832-4.114v0.812c0.005 0 0.010-0.001 0.014-0.001v7.864z"></path>
</svg>
