<!-- Generated by IcoMoon.io -->
<svg version="1.1" xmlns="http://www.w3.org/2000/svg" width="23" height="24" viewBox="0 0 23 24">
<title>envelope-checklist</title>
<path d="M23.018 10.56c0-0.004 0-0.009 0-0.014 0-0.318-0.067-0.62-0.188-0.893l0.006 0.014-9.024 7.44 8.945 5.904c0.165-0.3 0.262-0.657 0.262-1.037v0z"></path>
<path d="M0.24 9.66c-0.146 0.26-0.234 0.569-0.24 0.898l-0 0.002v11.414c0.002 0.347 0.096 0.671 0.259 0.95l-0.005-0.009 8.796-5.813z"></path>
<path d="M20.46 7.414v2.94l1.738-1.433-1.738-1.507z"></path>
<path d="M2.362 10.171v-2.496l-1.474 1.253 1.474 1.243z"></path>
<path d="M13.013 1.178l-1.116-1.015c-0.118-0.101-0.273-0.162-0.442-0.162s-0.323 0.061-0.443 0.162l0.001-0.001-1.138 1.015z"></path>
<path d="M3.346 2.16v8.839l6.871 5.801c0.334 0.251 0.755 0.401 1.212 0.401s0.878-0.151 1.217-0.405l-0.005 0.004 6.835-5.671v-8.969zM8.429 10.8l-1.469 1.666c-0.091 0.102-0.223 0.167-0.37 0.167-0.137 0-0.26-0.055-0.35-0.145v0l-0.835-0.847c-0.089-0.089-0.144-0.212-0.144-0.348 0-0.272 0.22-0.492 0.492-0.492 0.136 0 0.259 0.055 0.348 0.144l0.48 0.48 1.099-1.267c0.091-0.106 0.225-0.172 0.374-0.172 0.273 0 0.494 0.221 0.494 0.494 0 0.123-0.045 0.236-0.12 0.322l0.001-0.001zM8.429 7.26l-1.469 1.663c-0.089 0.107-0.222 0.175-0.371 0.175-0.138 0-0.262-0.058-0.349-0.151l-0-0-0.847-0.847c-0.089-0.089-0.144-0.212-0.144-0.348 0-0.272 0.22-0.492 0.492-0.492 0.136 0 0.259 0.055 0.348 0.144l0.48 0.48 1.111-1.27c0.091-0.103 0.223-0.167 0.37-0.167 0.272 0 0.492 0.22 0.492 0.492 0 0.125-0.047 0.239-0.123 0.326l0-0.001zM8.429 3.718l-1.469 1.666c-0.091 0.102-0.223 0.167-0.37 0.167-0.137 0-0.26-0.055-0.35-0.145v0l-0.835-0.845c-0.089-0.089-0.144-0.212-0.144-0.348 0-0.272 0.22-0.492 0.492-0.492 0.136 0 0.259 0.055 0.348 0.144l0.48 0.48 1.099-1.27c0.091-0.103 0.223-0.168 0.37-0.168 0.271 0 0.492 0.22 0.492 0.492 0 0.124-0.046 0.238-0.122 0.325l0-0.001zM16.92 12h-7.080c-0.272 0-0.492-0.22-0.492-0.492s0.22-0.492 0.492-0.492v0h7.080c0.272 0 0.492 0.22 0.492 0.492s-0.22 0.492-0.492 0.492v0zM17.52 8.458h-7.68c-0.272 0-0.492-0.22-0.492-0.492s0.22-0.492 0.492-0.492v0h7.68c0.272 0 0.492 0.22 0.492 0.492s-0.22 0.492-0.492 0.492v0zM17.52 4.918h-7.68c-0.272 0-0.492-0.22-0.492-0.492s0.22-0.492 0.492-0.492v0h7.68c0.272 0 0.492 0.22 0.492 0.492s-0.22 0.492-0.492 0.492v0z"></path>
<path d="M12.996 17.743c-0.448 0.27-0.99 0.43-1.568 0.43s-1.12-0.16-1.582-0.438l0.014 0.008-8.926 5.904c0.316 0.218 0.706 0.349 1.127 0.353h19.086c0.004 0 0.008 0 0.012 0 0.341 0 0.66-0.097 0.929-0.266l-0.007 0.004z"></path>
</svg>
