<svg xmlns="http://www.w3.org/2000/svg" viewBox="0 0 982 1024"><path d="M982.118 471.893l.002-.595c0-13.56-2.865-26.45-8.022-38.099l.238.602-385.024 317.44 381.645 251.904c7.026-12.792 11.16-28.032 11.162-44.236zm-971.878-38.4C4.026 444.574.263 457.766.001 471.815l-.001.078v487.014c.084 14.789 4.103 28.621 11.062 40.526l-.208-.385L386.15 751.035zm862.72-95.846v125.44l74.138-61.133-74.138-64.307zM100.762 455.304V348.808l-62.874 53.453 62.874 53.043zM555.213 71.611l-47.616-43.315c-5.048-4.289-11.64-6.897-18.842-6.897s-13.794 2.608-18.883 6.932l.042-.035-48.538 43.315zm-412.467 41.882v377.139l293.171 247.501c14.247 10.695 32.229 17.127 51.712 17.127s37.465-6.432 51.936-17.288l-.224.161 291.635-241.971V113.493zm216.883 368.64l-62.669 71.066c-3.883 4.371-9.518 7.111-15.793 7.111a21.026 21.026 0 0 1-14.926-6.189l-35.635-36.147c-3.8-3.8-6.15-9.049-6.15-14.848 0-11.597 9.401-20.998 20.998-20.998 5.799 0 11.048 2.35 14.848 6.15l20.48 20.48 46.899-54.067c3.885-4.504 9.599-7.337 15.974-7.337 11.63 0 21.059 9.428 21.059 21.059 0 5.255-1.924 10.06-5.107 13.749l.023-.027zm0-151.04l-62.669 70.963c-3.784 4.572-9.46 7.463-15.811 7.463a20.426 20.426 0 0 1-14.9-6.429l-.009-.01-36.147-36.147c-3.8-3.8-6.15-9.049-6.15-14.848 0-11.597 9.401-20.998 20.998-20.998 5.799 0 11.048 2.35 14.848 6.15l20.48 20.48 47.411-54.17c3.868-4.381 9.498-7.13 15.77-7.13 11.601 0 21.005 9.404 21.005 21.005a20.927 20.927 0 0 1-5.255 13.898l.02-.023zm0-151.142l-62.669 71.066c-3.883 4.371-9.518 7.111-15.793 7.111a21.026 21.026 0 0 1-14.926-6.189l-35.635-36.045c-3.8-3.8-6.15-9.049-6.15-14.848 0-11.597 9.401-20.998 20.998-20.998 5.799 0 11.048 2.35 14.848 6.15l20.48 20.48 46.899-54.17c3.863-4.391 9.495-7.147 15.77-7.147 11.582 0 20.971 9.389 20.971 20.971a20.887 20.887 0 0 1-5.222 13.847l.02-.023zM721.92 533.333H419.84c-11.594 0-20.992-9.398-20.992-20.992s9.398-20.992 20.992-20.992h302.08c11.594 0 20.992 9.398 20.992 20.992s-9.398 20.992-20.992 20.992zm25.6-151.142H419.84c-11.594 0-20.992-9.398-20.992-20.992s9.398-20.992 20.992-20.992h327.68c11.594 0 20.992 9.398 20.992 20.992s-9.398 20.992-20.992 20.992zm0-151.04H419.84c-11.594 0-20.992-9.398-20.992-20.992s9.398-20.992 20.992-20.992h327.68c11.594 0 20.992 9.398 20.992 20.992s-9.398 20.992-20.992 20.992zM554.496 778.376c-19.13 11.531-42.228 18.353-66.918 18.353s-47.788-6.822-67.511-18.683l.592.33L39.833 1030.28c13.487 9.284 30.137 14.888 48.087 15.053h814.326l.506.002c14.558 0 28.146-4.156 39.641-11.347l-.314.183z"/></svg>