<svg xmlns="http://www.w3.org/2000/svg" viewBox="0 0 1024 1024"><path d="M124.941 251.836c-54.733 78.192-89.924 175.935-89.924 281.497s31.276 203.305 89.924 281.497V251.836zm566.907-86.02l203.305 203.305v445.707c54.733-78.192 89.924-175.935 89.924-281.497 0-265.859-215.03-484.802-476.983-484.802-117.287 0-226.764 43.01-308.869 117.287h492.623zM308.695 498.142v15.638l312.773 316.688h27.372v-35.191L351.705 498.142zm535.631-82.096H644.934V216.654H179.683v660.737c86.011 86.011 203.305 140.753 332.326 140.753s246.315-54.733 332.326-140.753V416.046zM625.381 857.84L472.903 705.362l-78.192 82.105h74.286c-11.734 11.734-35.191 35.191-50.829 54.733h-164.21v-43.01L402.53 650.618 269.596 517.684v-43.01h168.116l101.649 101.649L641.01 474.674h93.83v43.01L594.087 666.256h35.191l78.192 78.192 62.552 58.648v54.733H625.363z"/></svg>