<!-- Generated by IcoMoon.io -->
<svg version="1.1" xmlns="http://www.w3.org/2000/svg" width="24" height="24" viewBox="0 0 24 24">
<title>excel</title>
<path d="M2.928 5.402c-1.283 1.833-2.108 4.123-2.108 6.598s0.733 4.765 2.108 6.598v-13.195z"></path>
<path d="M16.215 3.386l4.765 4.765v10.446c1.283-1.833 2.108-4.123 2.108-6.598 0-6.231-5.040-11.363-11.179-11.363-2.749 0-5.315 1.008-7.239 2.749 0.092 0 11.546 0 11.546 0z"></path>
<path d="M7.235 11.175v0.367l7.331 7.422h0.642v-0.825l-6.964-6.964z"></path>
<path d="M19.789 9.251h-4.673v-4.673h-10.904v15.486c2.016 2.016 4.765 3.299 7.789 3.299s5.773-1.283 7.789-3.299v-10.813zM14.657 19.606l-3.574-3.574-1.833 1.924h1.741c-0.275 0.275-0.825 0.825-1.191 1.283h-3.849v-1.008l3.482-3.482-3.116-3.116v-1.008h3.94l2.382 2.382 2.382-2.382h2.199v1.008l-3.299 3.482h0.825l1.833 1.833 1.466 1.375v1.283c0.092 0-3.39 0-3.39 0z"></path>
</svg>
