<!-- Generated by IcoMoon.io -->
<svg version="1.1" xmlns="http://www.w3.org/2000/svg" width="24" height="24" viewBox="0 0 24 24">
<title>expand-all</title>
<path d="M20.392 2.050h-5.167c-1.217 0-1.508 0.7-0.642 1.558l2.133 2.133-3.75 3.75 1.558 1.558 3.75-3.75 2.133 2.133c0.858 0.858 1.558 0.575 1.558-0.642v-5.092c0-1.217-0.358-1.65-1.575-1.65z"></path>
<path d="M20.4 14.567l-2.133 2.133-3.75-3.75-1.558 1.558 3.75 3.75-2.133 2.133c-0.858 0.858-0.575 1.558 0.642 1.558h5.092c1.217 0 1.642-0.35 1.642-1.567v-5.167c0.017-1.217-0.692-1.508-1.55-0.65z"></path>
<path d="M7.283 5.742l2.133-2.125c0.858-0.858 0.575-1.558-0.642-1.558h-5.167c-1.217 0-1.567 0.425-1.567 1.642v5.092c0 1.217 0.7 1.508 1.558 0.642l2.133-2.133 3.75 3.75 1.558-1.558-0.967-0.967-2.792-2.783z"></path>
<path d="M8.5 13.908l-2.783 2.783-2.125-2.133c-0.858-0.858-1.558-0.575-1.558 0.642v5.092c0 1.217 0.35 1.642 1.567 1.642h5.167c1.217 0 1.508-0.7 0.642-1.558l-2.125-2.125 3.75-3.75-1.558-1.558-0.975 0.967z"></path>
</svg>
