<svg xmlns="http://www.w3.org/2000/svg" viewBox="0 0 1024 1024"><path d="M241.774 330.665v472.894c0 37.292 30.266 67.556 67.556 67.556h472.894c37.292 0 67.556-30.266 67.556-67.556V330.665c0-37.292-30.266-67.556-67.556-67.556H309.33c-37.292 0-67.556 30.266-67.556 67.556zm540.452 472.894H309.332V330.665h472.894v472.894zm-371.56-202.67H512v101.334c0 18.646 15.132 33.778 33.778 33.778s33.778-15.132 33.778-33.778V600.889H680.89c18.646 0 33.778-15.132 33.778-33.778s-15.132-33.778-33.778-33.778H579.556V431.999c0-18.646-15.132-33.778-33.778-33.778S512 413.353 512 431.999v101.334H410.666c-18.646 0-33.778 15.132-33.778 33.778s15.132 33.778 33.778 33.778z"/></svg>