<!-- Generated by IcoMoon.io -->
<svg version="1.1" xmlns="http://www.w3.org/2000/svg" width="24" height="24" viewBox="0 0 24 24">
<title>expand</title>
<path d="M5.667 7.25v11.083c0 0.874 0.709 1.583 1.583 1.583h11.083c0.874 0 1.583-0.709 1.583-1.583v-11.083c0-0.874-0.709-1.583-1.583-1.583h-11.083c-0.874 0-1.583 0.709-1.583 1.583zM18.333 18.333h-11.083v-11.083h11.083v11.083zM9.625 13.583h2.375v2.375c0 0.437 0.355 0.792 0.792 0.792s0.792-0.355 0.792-0.792v-2.375h2.375c0.437 0 0.792-0.355 0.792-0.792s-0.355-0.792-0.792-0.792h-2.375v-2.375c0-0.437-0.355-0.792-0.792-0.792s-0.792 0.355-0.792 0.792v2.375h-2.375c-0.437 0-0.792 0.355-0.792 0.792s0.355 0.792 0.792 0.792z"></path>
</svg>
