<svg xmlns="http://www.w3.org/2000/svg" viewBox="0 0 1024 1024"><path d="M870.044 108.8H649.6c-51.911 0-64.356 29.867-27.378 66.489l91.022 91.022-160 160 66.489 66.489 160-160 91.022 91.022c36.622 36.622 66.489 24.533 66.489-27.378V179.2c0-51.911-15.289-70.4-67.2-70.4zm.356 534.044l-91.022 91.022-160-160-66.489 66.489 160 160-91.022 91.022c-36.622 36.622-24.533 66.489 27.378 66.489h217.244c51.911 0 70.044-14.933 70.044-66.844V670.578c.711-51.911-29.511-64.356-66.133-27.733zM310.756 266.311l91.022-90.667c36.622-36.622 24.533-66.489-27.378-66.489H153.956c-51.911 0-66.844 18.133-66.844 70.044v217.244c0 51.911 29.867 64.356 66.489 27.378l91.022-91.022 160 160 66.489-66.489-41.244-41.244L310.757 266.31zm51.911 348.444L243.911 733.511l-90.667-91.022c-36.622-36.622-66.489-24.533-66.489 27.378v217.244c0 51.911 14.933 70.044 66.844 70.044h220.444c51.911 0 64.356-29.867 27.378-66.489l-90.667-90.667 160-160-66.489-66.489-41.6 41.244z"/></svg>