<!-- Generated by IcoMoon.io -->
<svg version="1.1" xmlns="http://www.w3.org/2000/svg" width="24" height="24" viewBox="0 0 24 24">
<title>external-link</title>
<path d="M1.378 13.275c0-1.903-0.014-3.806 0.005-5.709 0.019-2.334 1.331-3.642 3.656-3.652 1.959-0.009 3.923-0.009 5.883 0 0.9 0.005 1.411 0.403 1.434 1.073 0.023 0.703-0.511 1.144-1.453 1.148-1.959 0.009-3.923-0.005-5.883 0.005-1.12 0.005-1.444 0.338-1.444 1.481-0.005 3.778-0.005 7.552 0 11.33 0 1.097 0.366 1.453 1.486 1.453 3.778 0.005 7.552 0.005 11.33 0 1.111 0 1.444-0.342 1.448-1.481 0.005-1.931 0-3.863 0.005-5.794 0.005-0.97 0.389-1.491 1.092-1.505 0.708-0.014 1.13 0.516 1.134 1.463 0.009 2.020 0.019 4.041-0.005 6.061-0.023 2.048-1.359 3.431-3.413 3.445-3.952 0.033-7.903 0.033-11.855 0-2.081-0.019-3.38-1.35-3.408-3.436-0.038-1.959-0.014-3.919-0.014-5.883z"></path>
<path d="M19.561 2.831c-1.345 0-2.484 0.009-3.623-0.005-0.886-0.009-1.402-0.431-1.355-1.13 0.052-0.82 0.6-1.064 1.331-1.069 2.077-0.014 4.158-0.042 6.234-0.042 0.755 0 1.242 0.52 1.237 1.298-0.009 2.048-0.019 4.102-0.047 6.15-0.009 0.909-0.417 1.383-1.12 1.364-0.694-0.019-1.064-0.502-1.069-1.416-0.005-1.13 0-2.255 0-3.553-0.347 0.319-0.558 0.506-0.755 0.703-2.986 2.981-5.967 5.962-8.948 8.948-0.164 0.164-0.323 0.338-0.502 0.492-0.52 0.455-1.069 0.487-1.561-0.019-0.459-0.473-0.427-0.998-0.005-1.495 0.15-0.178 0.323-0.338 0.492-0.502 2.981-2.981 5.967-5.962 8.948-8.948 0.202-0.202 0.394-0.413 0.741-0.778z"></path>
</svg>
