<svg xmlns="http://www.w3.org/2000/svg" viewBox="0 0 1024 1024"><path d="M58.8 587.733c0-81.2-.6-162.4.2-243.6.8-99.6 56.8-155.4 156-155.8 83.6-.4 167.4-.4 251 0 38.4.2 60.2 17.2 61.2 45.8 1 30-21.8 48.8-62 49-83.6.4-167.4-.2-251 .2-47.8.2-61.6 14.4-61.6 63.2-.2 161.2-.2 322.2 0 483.4 0 46.8 15.6 62 63.4 62 161.2.2 322.2.2 483.4 0 47.4 0 61.6-14.6 61.8-63.2.2-82.4 0-164.8.2-247.2.2-41.4 16.6-63.6 46.6-64.2 30.2-.6 48.2 22 48.4 62.4.4 86.2.8 172.4-.2 258.6-1 87.4-58 146.4-145.6 147-168.6 1.4-337.2 1.4-505.8 0-88.8-.8-144.2-57.6-145.4-146.6-1.6-83.6-.6-167.2-.6-251zm775.8-445.6c-57.4 0-106 .4-154.6-.2-37.8-.4-59.8-18.4-57.8-48.2 2.2-35 25.6-45.4 56.8-45.6 88.6-.6 177.4-1.8 266-1.8 32.2 0 53 22.2 52.8 55.4-.4 87.4-.8 175-2 262.4-.4 38.8-17.8 59-47.8 58.2-29.6-.8-45.4-21.4-45.6-60.4-.2-48.2 0-96.2 0-151.6-14.8 13.6-23.8 21.6-32.2 30-127.4 127.2-254.6 254.4-381.8 381.8-7 7-13.8 14.4-21.4 21-22.2 19.4-45.6 20.8-66.6-.8-19.6-20.2-18.2-42.6-.2-63.8 6.4-7.6 13.8-14.4 21-21.4 127.2-127.2 254.6-254.4 381.8-381.8 8.6-8.6 16.8-17.6 31.6-33.2z"/></svg>