<!-- Generated by IcoMoon.io -->
<svg version="1.1" xmlns="http://www.w3.org/2000/svg" width="24" height="24" viewBox="0 0 24 24">
<title>eye-slash</title>
<path d="M19.8 9.375l-3.525 2.325c0 0.075 0 0.225 0 0.3 0 2.4-1.95 4.275-4.275 4.275-0.75 0-1.425-0.15-2.025-0.525l-1.65 1.050c1.125 0.375 2.325 0.675 3.6 0.675 5.625 0 10.125-4.875 10.275-5.1 0.225-0.225 0.225-0.6 0-0.825 0-0.075-0.9-1.050-2.4-2.175z"></path>
<path d="M23.55 4.95l-0.3-0.375c-0.15-0.15-0.375-0.225-0.525-0.075l-5.25 3.45c-1.575-0.825-3.45-1.425-5.475-1.425-5.625 0-10.125 4.875-10.275 5.1-0.225 0.225-0.225 0.6 0 0.825 0.075 0.15 1.725 1.875 4.125 3.225l-4.8 3.075c-0.15 0.15-0.225 0.375-0.075 0.525l0.3 0.375c0.15 0.15 0.375 0.225 0.525 0.075l7.2-4.725 14.4-9.6c0.225 0 0.3-0.225 0.15-0.45zM14.325 10.050c0-0.075-0.075-0.075-0.075-0.15-0.825-0.825-2.1-1.050-3.075-0.6 0.15 0.225 0.3 0.525 0.3 0.825 0 0.75-0.6 1.35-1.35 1.35-0.225 0-0.45-0.075-0.675-0.15-0.15 0.6-0.075 1.275 0.225 1.875l-1.425 0.825c-0.3-0.6-0.525-1.275-0.525-2.025 0-2.4 1.95-4.275 4.275-4.275 1.35 0 2.55 0.675 3.375 1.65l-1.050 0.675z"></path>
</svg>
