<!-- Generated by IcoMoon.io -->
<svg version="1.1" xmlns="http://www.w3.org/2000/svg" width="24" height="24" viewBox="0 0 24 24">
<title>eye</title>
<path d="M22.275 11.625c-0.15-0.225-4.65-5.1-10.275-5.1s-10.125 4.875-10.275 5.1c-0.225 0.225-0.225 0.6 0 0.825 0.15 0.225 4.65 5.1 10.275 5.1s10.125-4.875 10.275-5.1c0.225-0.3 0.225-0.6 0-0.825zM12 16.275c-2.4 0-4.275-1.95-4.275-4.275 0-2.4 1.95-4.275 4.275-4.275 2.4 0 4.275 1.95 4.275 4.275 0 2.4-1.875 4.275-4.275 4.275z"></path>
<path d="M12 9.45c-0.375 0-0.825 0.075-1.125 0.3 0.375 0.3 0.6 0.75 0.6 1.2 0 0.975-0.975 1.725-1.95 1.425 0.225 1.2 1.2 2.1 2.475 2.1 1.35 0 2.475-1.125 2.475-2.475s-1.125-2.55-2.475-2.55z"></path>
</svg>
