<svg xmlns="http://www.w3.org/2000/svg" viewBox="0 0 1024 1024"><path d="M106 794.733l26.6-10.8 26.6-10 27.2-9.4 27.2-8.4 27.4-8 27.8-7 27.6-6.2 28-5.6 28.2-4.6 28.2-4 28.2-3 28.4-2.4 28.4-1.6 28.4-.8h28.4l28.4.8 28.4 1.6 28.4 2.4 28.2 3 28.2 4 28.2 4.6 27.8 5.6 28 6.2 27.6 7 27.4 8 27.2 8.4 27.2 9.4 26.8 10 26.4 10.8 26.4 11.4 26 12.4-31.6-10.4-31.8-9.6-32-8.6-32-8.2-32.4-7.2-32.4-6.6-32.4-5.8-32.8-5-32.8-4.2-32.8-3.6-32.8-2.6-33-2-33-1-33-.4-33 .4-33 1-33 2-32.8 2.6-32.8 3.6-32.8 4.2-32.8 5-32.6 5.8-32.4 6.6-32.2 7.2-32.2 8.2-31.8 8.6-31.8 9.6-31.4 10.4 25.8-12.4zm754.8-268.6l1 3 .4 3.6-.4 3.2-1.2 3.2-1.8 2.8-2.4 2.2-6.4 6.2-6 6.6-5.6 7.4-4.8 7.6-4.2 8-3.6 8.4-3 8.8-2 8.8-1.4 9.2-.8 9.2v9.2l.8 9.2 1.4 9 2.2 9 2.2 6.4 2.6 6.2 3.6 5.6 3.8 5.2 4.6 4.8 5 4.2 5.4 3.6 6 2.8 6 2 6.2 1.4 8.8 1.2 8.8.4 8.8-.4 8.8-1.2 8.6-2 8.4-2.6 8.2-3.4 7.8-4.4 7.6-4.8 7.2-5.6 6.6-6.2 6-6.6 5.6-7.4 4.8-7.6 4.4-8.2 3.6-8.4 1.8-2.8 2.4-2.2 3-1.6 3-.8 3.2-.2 3.2.8 2.8 1.4 2.6 2 2 2.6 1.4 3 .6 3.4v3.4l-.8 3.2-1.6 3.2-2 2.4-7.8 12.2-8.4 11.8-9 11.4-9.4 10.8-10 10.4-10.6 9.8-10.8 9.2-11.4 8.4-11.8 8-12.2 7.4-12.4 6.6-12.8 6-24.6-9-24.8-8.2-25-7.8-25.2-7-25.2-6.4 1-15 1.8-15.2 2.6-14.8 3-14.6 4-14.8 4.4-14.2 5.2-14.2 5.6-13.8 6.6-13.6 6.8-13.2 7.6-12.8 8-12.4 8.8-12 9.2-11.6 9.8-11.2 2-2.4 2.6-2 3-1.2 3.2-.6 3.2.4 3 1.2 2.8 1.6 2.2 2.4zm64.8 111.4l.4 6.2-.4 6.4-1.2 6.2-2 6-2.6 5.6-3.4 5.2-3.8 4.8-4.6 4-4.8 3.6-5.4 2.8-5.8 2-5.8 1.2-6 .4-6-.4-5.8-1.2-5.6-2-5.4-2.8-5-3.6-4.4-4-4-4.8-3.2-5.2-2.8-5.6-1.8-6-1.2-6.2-.4-6.4.4-6.2 1.2-6.2 1.8-6 2.8-5.6 3.2-5.2 4-4.8 4.4-4.2 5-3.4 5.4-2.8 5.6-2 5.8-1.4 6-.4 6 .4 5.8 1.4 5.8 2 5.4 2.8 4.8 3.4 4.6 4.2 3.8 4.8 3.4 5.2 2.6 5.6 2 6zm-139.8-82.2l-8.4 13.6-7.6 14.2-7 14.4-6.4 14.8-5.8 15-4.8 15.4-4.2 15.6-3.6 15.8-3 15.8-2 16.2-1.4 16.2-26.4-5.4-26.6-4.8-26.8-4-26.6-3.4-26.8-2.6-27-2.2-26.8-1.2-27-.6-3.6-218 1-25 1.8-24.8 2.4-24.8 3.2-25 4-24.6 4.8-24.4 5.4-24.4 6.2-24 6.8-24 1.4-4 2-3.6 2.6-3.4 2.8-2.8 3.6-2.2 3.8-1.4 3.8-.8 4-.2 4 .8 3.8 1.2 3.4 2.2 3.2 2.6 2.8 3 2 3.6 1.4 4 1 4.2v4.2l-.6 4.2-1.2 4-1.8 3.8-4.2 10.4-3.6 11-3 11-2.2 11.2-1.4 11.4-.8 11.4-.2 11.4.6 11.6 1.4 11.4 2 11.2 2.6 11.2 3.4 10.8 4 10.8 4.8 10.2 5.2 10 6 9.6 6.6 9.2 5.2 6.8 5.8 6.2 6.2 5.6 6.6 5 7.2 4.4 7.4 3.6 7.6 3 8 2.4 8 1.4 8.2.8h8.2l8.2-.8 8-1.4 10.8-2.8 10.6-3.4 10.4-4.2 10.2-5 9.8-5.4 9.6-6.2 9-6.6 8.8-7.4 8.2-7.8 7.8-8.4 7.2-9 6.8-9.2 6.2-9.8 5.6-10.2 5-10.4 4.4-10.8 3.6-11.2 3.2-11.2 2.4-11.4 1.6-11.6 1.2-11.6 1.4-4 2.2-3.6 2.6-3 3.2-2.6 3.4-2 4-1.4 3.8-.6 4 .2 4 .8 3.6 1.6 3.4 2.2 3 2.8 2.4 3.4 1.8 3.6 1.2 4.2.6 4v4.2l-.8 4.2-2.6 16.4-3.4 16.2-4 16.2-5 15.8-5.6 15.6-6.2 15.2-7.2 14.8-7.6 14.6-8.4 14-9.2 13.6-9.8 13.2-10.6 11.6-10 12.2-9.4 13zm-17.4-163.8l.4 7.8-.4 8-1.2 7.6-1.8 7.8-2.4 7.4-3.2 7.2-3.8 6.6-4.6 6.4-5 5.8-5.4 5.4-6 4.6-6.4 4-6.8 3.6-7 2.6-7.4 1.8-7.4 1.2-7.4.4-7.4-.4-7.4-1.2-7.4-1.8-7-2.6-6.6-3.6-6.4-4-6-4.6-5.6-5.4-5-5.8-4.6-6.4-3.8-6.6-3-7.2-2.6-7.4-1.8-7.8-1.2-7.6-.2-8 .2-7.8 1.2-7.8 1.8-7.6 2.6-7.6 3-7 3.8-6.8 4.6-6.4 5-5.8 5.6-5.2 6-4.8 6.4-4 6.6-3.4 7-2.6 7.4-2 7.4-1.2 7.4-.2 7.4.2 7.4 1.2 7.4 2 7 2.6 6.8 3.4 6.4 4 6 4.8 5.4 5.2 5 5.8 4.6 6.4 3.8 6.8 3.2 7 2.4 7.6 1.8 7.6zm-586.6 246l.4 6.2-.4 6.4-1.2 6.2-1.8 6-2.6 5.6-3.4 5.2-4 4.8-4.4 4-5 3.6-5.4 2.8-5.6 2-5.8 1.2-6 .4-6-.4-5.8-1.2-5.8-2-5.2-2.8-5-3.6-4.6-4-4-4.8-3.2-5.2-2.6-5.6-2-6-1.2-6.2-.4-6.4.4-6.2 1.2-6.2 2-6 2.6-5.6 3.2-5.2 4-4.8 4.6-4.2 5-3.4 5.2-2.8 5.8-2 5.8-1.4 6-.4 6 .4 5.8 1.4 5.6 2 5.4 2.8 5 3.4 4.4 4.2 4 4.8 3.4 5.2 2.6 5.6 1.8 6zm-154.4-8.4l2.6 1.6 2.4 2.2 2 2.8 3.6 8.4 4.4 8.2 4.8 7.6 5.6 7.4 6.2 6.6 6.6 6.2 7 5.6 7.6 4.8 7.8 4.4 8.2 3.4 8.4 2.6 8.6 2 8.8 1.2 8.8.4 8.8-.4 8.8-1.2 6.2-1.4 6.2-2 5.8-2.8 5.4-3.6 5-4.2 4.6-4.8 4-5.2 3.4-5.6 2.6-6.2 2.2-6.4 2.2-9 1.6-9 .6-9.2v-9.2l-.6-9.2-1.6-9.2-2.2-8.8-2.8-8.8-3.6-8.4-4.2-8-4.8-7.6-5.6-7.4-6-6.6-6.4-6.2-2.4-2.2-1.8-2.8-1.2-3.2-.4-3.2.4-3.6 1-3 1.8-3 2.2-2.4 2.8-1.6 3-1.2 3.2-.4 3.2.6 3 1.2 2.6 2 2 2.4 9.8 11.2 9.2 11.6 8.6 12 8.2 12.4 7.6 12.8 7 13.2 6.2 13.6 5.8 13.8 5.2 14.2 4.4 14.2 4 14.8 3 14.6 2.6 14.8 1.8 15.2 1.2 15-25.4 6.4-25.2 7-25 7.8-24.8 8.2-24.6 9-12.8-6-12.4-6.6-12.2-7.4-11.8-8-11.4-8.4-11-9.2-10.4-9.8-10-10.4-9.4-10.8-9-11.4-8.4-11.8-7.8-12.2-2.2-2.4-1.4-3.2-.8-3.2v-3.4l.6-3.4 1.4-3 2-2.6 2.6-2 3-1.4 3-.8 3.2.2zm211.2-61.4l-7.4-12.4-9-13.2-9.4-13-10-12.2-10.8-11.6-9.6-13.2-9.2-13.6-8.4-14-7.8-14.6-7-14.8-6.2-15.2-5.8-15.6-4.8-15.8-4-16.2-3.4-16.2-2.6-16.4-.6-4.2-.2-4.2.6-4 1-4.2 2-3.6 2.4-3.4 3-2.8 3.4-2.2 3.8-1.6 3.8-.8 4-.2 4 .6 3.8 1.4 3.4 2 3.2 2.6 2.8 3 2 3.6 1.6 4 1 11.6 1.6 11.6 2.4 11.4 3.2 11.2 3.6 11.2 4.4 10.8 5 10.4 5.6 10.2 6.2 9.8 6.8 9.2 7.2 9 7.8 8.4 8.2 7.8 8.8 7.4 9.2 6.6 9.4 6.2 9.8 5.4 10.2 5 10.4 4.2 10.6 3.4 10.8 2.8 8 1.4 8.2.8h8.2l8.2-.8 8.2-1.4 7.8-2.4 7.6-3 7.6-3.6 7-4.4 6.6-5 6.2-5.6 5.8-6.2 5.2-6.8 6.6-9.2 5.8-9.6 5.4-10 4.8-10.2 4-10.8 3.4-10.8 2.6-11.2 2-11.2 1.4-11.4.6-11.6-.2-11.4-.8-11.4-1.4-11.4-2.2-11.2-3-11-3.6-11-4.2-10.4-1.8-3.8-1.2-4-.6-4.2.2-4.2.8-4.2 1.4-4 2.2-3.6 2.6-3 3.2-2.6 3.4-2.2 3.8-1.2 4-.8 4 .2 3.8.8 3.8 1.4 3.4 2.2 3.2 2.8 2.4 3.4 2 3.6 1.4 4 6.4 27.2 5.8 27.2 5.2 27.6 4.4 27.6 3.6 27.8 3 27.8 2.2 27.8 1.4 28v218l-26.8.6-27 1.2-26.8 2.2-27 2.6-26.6 3.4-26.8 4-26.6 4.8-26.4 5.4-1.4-16.2-2-16.2-2.8-15.8-3.6-15.8-4.4-15.6-4.8-15.4-5.8-15-6.4-14.8-7-14.4-7.6-14.2zm161.4-176.2l.4 7.8-.4 8-1.2 7.6-1.8 7.8-2.6 7.4-3 7.2-4 6.6-4.4 6.4-5 5.8-5.4 5.4-6 4.6-6.6 4-6.6 3.6-7.2 2.6-7.2 1.8-7.4 1.2-7.4.4-7.6-.4-7.2-1.2-7.2-1.8-7.2-2.6-6.6-3.6-6.6-4-6-4.6-5.4-5.4-5-5.8-4.4-6.4-4-6.6-3.2-7.2-2.4-7.4-1.8-7.8-1.2-7.6-.4-8 .4-7.8 1.2-7.8 1.8-7.6 2.4-7.6 3.2-7 4-6.8 4.4-6.4 5-5.8 5.4-5.2 6-4.8 6.6-4 6.6-3.4 7.2-2.6 7.2-2 7.2-1.2 7.6-.2 7.4.2 7.4 1.2 7.2 2 7.2 2.6 6.6 3.4 6.6 4 6 4.8 5.4 5.2 5 5.8 4.4 6.4 4 6.8 3 7 2.6 7.6 1.8 7.6z"/></svg>