<!-- Generated by IcoMoon.io -->
<svg version="1.1" xmlns="http://www.w3.org/2000/svg" width="24" height="24" viewBox="0 0 24 24">
<title>family</title>
<path d="M9.783 13.481l-0.675-1.495c0.188 0.042 0.389 0.009 0.553-0.094 0.15-0.094 0.258-0.239 0.309-0.398l0.23 0.506c0.291 0.642 0.558 1.266 1.111 1.275 0.567 0 1.13 0 1.697 0 0.553-0.009 0.82-0.628 1.111-1.275l0.108-0.234c0.061 0.113 0.15 0.211 0.258 0.281 0.202 0.127 0.459 0.15 0.675 0.056l-0.619 1.378c-0.141 0.314-0.277 0.614-0.398 0.919-0.183 0.45-0.295 0.905-0.295 1.486 0 3.117 0 2.4 0 5.569v0.244c0 0.202-0.080 0.384-0.211 0.516s-0.309 0.216-0.506 0.216v0 0 0 0h-0.014c-0.052 0-0.108-0.009-0.155-0.019-0.052-0.014-0.098-0.033-0.15-0.056-0.234-0.117-0.398-0.366-0.403-0.647v0-2.723c0-0.038-0.014-0.080-0.033-0.112v0c-0.005-0.005-0.009-0.009-0.009-0.014-0.038-0.052-0.089-0.084-0.15-0.098-0.033-0.009-0.075-0.009-0.108 0-0.061 0.014-0.113 0.047-0.15 0.098 0 0.005-0.005 0.009-0.009 0.014v0c-0.019 0.033-0.033 0.075-0.033 0.112v0 0 2.723c0 0.286-0.164 0.53-0.403 0.647-0.047 0.023-0.098 0.042-0.15 0.056s-0.103 0.019-0.155 0.019v0h-0.014c-0.197 0-0.38-0.084-0.511-0.216-0.131-0.136-0.211-0.319-0.211-0.516v0 0-0.244c0-3.169-0.005-2.452 0-5.569 0-0.577-0.108-1.027-0.295-1.481-0.117-0.314-0.253-0.614-0.394-0.923v0z"></path>
<path d="M12.164 10.317c-0.694 0-1.256 0.572-1.256 1.275s0.563 1.28 1.256 1.28c0.694 0 1.256-0.572 1.256-1.28 0-0.703-0.563-1.275-1.256-1.275v0z"></path>
<path d="M19.608 1.552c0.966 0 1.748 0.797 1.748 1.777s-0.783 1.777-1.748 1.777c-0.966 0-1.748-0.797-1.748-1.777s0.783-1.777 1.748-1.777v0z"></path>
<path d="M17.513 9.075v12.356c0 0.052 0 0.103 0 0.15 0.019 0.22 0.112 0.422 0.262 0.572 0.422 0.431 1.148 0.323 1.43-0.23 0.028-0.056 0.052-0.117 0.070-0.183 0.014-0.047 0.019-0.094 0.023-0.141 0.005-0.042 0.005-0.084 0.005-0.131v-6.867c0-0.319 0.413-0.375 0.567-0.159 0.005 0.005 0.009 0.014 0.014 0.019v0c0.023 0.042 0.038 0.089 0.038 0.141v0 0 6.909c0 0.014 0 0.023 0 0.033 0.009 0.342 0.211 0.638 0.497 0.783 0.337 0.169 0.759 0.098 1.027-0.173 0.159-0.159 0.258-0.38 0.262-0.623 0-0.014 0-0.023 0-0.037v-12.83c0-0.080 0.038-0.155 0.094-0.206s0.131-0.080 0.211-0.080v0 0 0 0c0.084 0 0.159 0.033 0.211 0.080 0.061 0.052 0.094 0.127 0.094 0.211v0 0 3.895c0 0.014 0 0.023 0 0.037 0.014 0.244 0.159 0.455 0.37 0.558 0.244 0.122 0.544 0.070 0.741-0.127 0.117-0.117 0.188-0.281 0.192-0.459 0-0.005 0-0.009 0-0.019v-5.259c0-0.005 0-0.005 0-0.009-0.033-0.731-0.558-1.359-1.252-1.519-0.117-0.028-0.239-0.042-0.356-0.042h-4.702c-1.078 0-1.5 0.938-1.819 1.819l-1.069 3.253c-0.084 0.225-0.038 0.469 0.103 0.637 0.122 0.145 0.314 0.225 0.497 0.239 0.389 0.038 0.605-0.295 0.713-0.619l0.595-1.917c0.145-0.417 0.286-0.778 0.741-0.755 0.384 0.019 0.441 0.342 0.441 0.694v0z"></path>
<path d="M6.97 8.367c0.014 0 0.023 0.005 0.033 0.005 0.019 0 0.033 0 0.052 0.005v0 0c0.089 0.014 0.173 0.075 0.23 0.188l0.038 0.084 1.102 2.278c0.052 0.108 0.103 0.244 0.173 0.338 0.206 0.281 0.591 0.328 0.863 0.155 0.253-0.159 0.38-0.478 0.267-0.773l-1.373-3.080c-0.131-0.295-0.253-0.637-0.408-0.923-0.216-0.398-0.516-0.666-0.877-0.806-0.234-0.089-0.577-0.103-0.83-0.103h-3.019c-0.816 0-1.43 0.253-1.777 0.82-0.066 0.108-0.127 0.234-0.173 0.366-0.098 0.281-0.164 0.666-0.239 0.956l-1.022 4.13c-0.028 0.178 0.019 0.352 0.112 0.487 0.258 0.361 0.787 0.375 1.055 0.005 0.028-0.037 0.052-0.080 0.070-0.122s0.033-0.089 0.042-0.141v0-0.009l0.989-3.609c0.038-0.141 0.136-0.22 0.244-0.239v0c0.042-0.009 0.089-0.005 0.131 0.005 0.042 0.014 0.080 0.033 0.117 0.061 0.084 0.075 0.136 0.202 0.094 0.366l-1.795 7.097h1.706v5.667c0 0.23 0.094 0.441 0.244 0.595 0.136 0.141 0.323 0.23 0.525 0.244 0.061 0.005 0.056 0.005 0.127 0 0.291-0.023 0.544-0.206 0.67-0.459v0c0.028-0.052 0.047-0.113 0.066-0.169v0c0.014-0.061 0.023-0.122 0.028-0.183 0-0.019 0-0.033 0-0.052v-5.644c0.206 0 0.413 0 0.619 0v5.395c0 0.323-0.014 0.605 0.244 0.867 0.131 0.131 0.305 0.22 0.502 0.244 0.052 0.005 0.103 0.005 0.155 0 0.291-0.023 0.544-0.206 0.67-0.459 0.075-0.15 0.089-0.309 0.089-0.473v-5.578h1.706l-1.786-7.083c-0.042-0.169 0.005-0.3 0.089-0.375 0.033-0.033 0.075-0.052 0.117-0.066 0.019-0.005 0.080-0.009 0.131-0.009v0z"></path>
<path d="M4.744 1.711c0.923 0 1.669 0.759 1.669 1.697s-0.745 1.697-1.669 1.697c-0.923 0-1.669-0.759-1.669-1.697s0.745-1.697 1.669-1.697v0z"></path>
</svg>
