<svg xmlns="http://www.w3.org/2000/svg" viewBox="0 0 1024 1024"><path d="M417.4 596.533l-28.8-63.8c8 1.8 16.6.4 23.6-4 6.4-4 11-10.2 13.2-17l9.8 21.6c12.4 27.4 23.8 54 47.4 54.4H555c23.6-.4 35-26.8 47.4-54.4l4.6-10c2.6 4.8 6.4 9 11 12 8.6 5.4 19.6 6.4 28.8 2.4l-26.4 58.8c-6 13.4-11.8 26.2-17 39.2-7.8 19.2-12.6 38.6-12.6 63.4v248c0 8.6-3.4 16.4-9 22s-13.2 9.2-21.6 9.2h-.6c-2.2 0-4.6-.4-6.6-.8-2.2-.6-4.2-1.4-6.4-2.4-10-5-17-15.6-17.2-27.6v-116.2c0-1.6-.6-3.4-1.4-4.8-.2-.2-.4-.4-.4-.6-1.6-2.2-3.8-3.6-6.4-4.2-1.4-.4-3.2-.4-4.6 0-2.6.6-4.8 2-6.4 4.2 0 .2-.2.4-.4.6-.8 1.4-1.4 3.2-1.4 4.8v116.2c0 12.2-7 22.6-17.2 27.6-2 1-4.2 1.8-6.4 2.4s-4.4.8-6.6.8h-.6c-8.4 0-16.2-3.6-21.8-9.2-5.6-5.8-9-13.6-9-22v-10.4c0-135.2-.2-104.6 0-237.6 0-24.6-4.6-43.8-12.6-63.2-5-13.4-10.8-26.2-16.8-39.4zm101.6-135c-29.6 0-53.6 24.4-53.6 54.4s24 54.6 53.6 54.6 53.6-24.4 53.6-54.6c0-30-24-54.4-53.6-54.4zm317.6-374c41.2 0 74.6 34 74.6 75.8s-33.4 75.8-74.6 75.8c-41.2 0-74.6-34-74.6-75.8s33.4-75.8 74.6-75.8zm-89.4 321v533.6c.8 9.4 4.8 18 11.2 24.4 18 18.4 49 13.8 61-9.8 1.2-2.4 2.2-5 3-7.8.6-2 .8-4 1-6 .2-1.8.2-3.6.2-5.6v-293c0-13.6 17.6-16 24.2-6.8.2.2.4.6.6.8 1 1.8 1.6 3.8 1.6 6v296.2c.4 14.6 9 27.2 21.2 33.4 14.4 7.2 32.4 4.2 43.8-7.4 6.8-6.8 11-16.2 11.2-26.6v-549c0-3.4 1.6-6.6 4-8.8s5.6-3.4 9-3.4c3.6 0 6.8 1.4 9 3.4 2.6 2.2 4 5.4 4 9V558.933a28.3 28.3 0 0 0 15.8 23.8c10.4 5.2 23.2 3 31.6-5.4 5-5 8-12 8.2-19.6V332.533v-.4c-1.4-31.2-23.8-58-53.4-64.8-5-1.2-10.2-1.8-15.2-1.8H738.6c-46 0-64 40-77.6 77.6l-45.6 138.8c-3.6 9.6-1.6 20 4.4 27.2 5.2 6.2 13.4 9.6 21.2 10.2 16.6 1.6 25.8-12.6 30.4-26.4l25.4-81.8c6.2-17.8 12.2-33.2 31.6-32.2 16.4.8 18.8 14.6 18.8 29.6zm-449.8-30.2c.6 0 1 .2 1.4.2.8 0 1.4 0 2.2.2 3.8.6 7.4 3.2 9.8 8l1.6 3.6 47 97.2c2.2 4.6 4.4 10.4 7.4 14.4 8.8 12 25.2 14 36.8 6.6 10.8-6.8 16.2-20.4 11.4-33l-58.6-131.4c-5.6-12.6-10.8-27.2-17.4-39.4-9.2-17-22-28.4-37.4-34.4-10-3.8-24.6-4.4-35.4-4.4H137.4c-34.8 0-61 10.8-75.8 35-2.8 4.6-5.4 10-7.4 15.6-4.2 12-7 28.4-10.2 40.8L.4 533.533c-1.2 7.6.8 15 4.8 20.8 11 15.4 33.6 16 45 .2 1.2-1.6 2.2-3.4 3-5.2s1.4-3.8 1.8-6v-.4l42.2-154c1.6-6 5.8-9.4 10.4-10.2 1.8-.4 3.8-.2 5.6.2 1.8.6 3.4 1.4 5 2.6 3.6 3.2 5.8 8.6 4 15.6l-76.6 302.8h72.8v241.8c0 9.8 4 18.8 10.4 25.4 5.8 6 13.8 9.8 22.4 10.4 2.6.2 2.4.2 5.4 0 12.4-1 23.2-8.8 28.6-19.6 1.2-2.2 2-4.8 2.8-7.2.6-2.6 1-5.2 1.2-7.8v-243h26.4v230.2c0 13.8-.6 25.8 10.4 37 5.6 5.6 13 9.4 21.4 10.4 2.2.2 4.4.2 6.6 0 12.4-1 23.2-8.8 28.6-19.6 3.2-6.4 3.8-13.2 3.8-20.2v-238h72.8l-76.2-302.2c-1.8-7.2.2-12.8 3.8-16 1.4-1.4 3.2-2.2 5-2.8.8-.2 3.4-.4 5.6-.4zm-95-284c39.4 0 71.2 32.4 71.2 72.4s-31.8 72.4-71.2 72.4c-39.4 0-71.2-32.4-71.2-72.4s31.8-72.4 71.2-72.4z"/></svg>