<!-- Generated by IcoMoon.io -->
<svg version="1.1" xmlns="http://www.w3.org/2000/svg" width="24" height="24" viewBox="0 0 24 24">
<title>family-alt</title>
<path d="M2.484 18.127l0.623-0.253 0.623-0.234 0.637-0.22 0.638-0.197 0.642-0.188 0.652-0.164 0.647-0.145 0.656-0.131 0.661-0.108 0.661-0.094 0.661-0.070 0.666-0.056 0.666-0.038 0.666-0.019h0.666l0.666 0.019 0.666 0.038 0.666 0.056 0.661 0.070 0.661 0.094 0.661 0.108 0.652 0.131 0.656 0.145 0.647 0.164 0.642 0.188 0.637 0.197 0.638 0.22 0.628 0.234 0.619 0.253 0.619 0.267 0.609 0.291-0.741-0.244-0.745-0.225-0.75-0.202-0.75-0.192-0.759-0.169-0.759-0.155-0.759-0.136-0.769-0.117-0.769-0.098-0.769-0.084-0.769-0.061-0.773-0.047-0.773-0.023-0.773-0.009-0.773 0.009-0.773 0.023-0.773 0.047-0.769 0.061-0.769 0.084-0.769 0.098-0.769 0.117-0.764 0.136-0.759 0.155-0.755 0.169-0.755 0.192-0.745 0.202-0.745 0.225-0.736 0.244 0.605-0.291z"></path>
<path d="M20.175 11.831l0.023 0.070 0.009 0.084-0.009 0.075-0.028 0.075-0.042 0.066-0.056 0.052-0.15 0.145-0.141 0.155-0.131 0.173-0.112 0.178-0.098 0.188-0.084 0.197-0.070 0.206-0.047 0.206-0.033 0.216-0.019 0.216v0.216l0.019 0.216 0.033 0.211 0.052 0.211 0.052 0.15 0.061 0.145 0.084 0.131 0.089 0.122 0.108 0.112 0.117 0.098 0.127 0.084 0.141 0.066 0.141 0.047 0.145 0.033 0.206 0.028 0.206 0.009 0.206-0.009 0.206-0.028 0.202-0.047 0.197-0.061 0.192-0.080 0.183-0.103 0.178-0.112 0.169-0.131 0.155-0.145 0.141-0.155 0.131-0.173 0.112-0.178 0.103-0.192 0.084-0.197 0.042-0.066 0.056-0.052 0.070-0.038 0.070-0.019 0.075-0.005 0.075 0.019 0.066 0.033 0.061 0.047 0.047 0.061 0.033 0.070 0.014 0.080v0.080l-0.019 0.075-0.038 0.075-0.047 0.056-0.183 0.286-0.197 0.277-0.211 0.267-0.22 0.253-0.234 0.244-0.248 0.23-0.253 0.216-0.267 0.197-0.277 0.188-0.286 0.173-0.291 0.155-0.3 0.141-0.577-0.211-0.581-0.192-0.586-0.183-0.591-0.164-0.591-0.15 0.023-0.352 0.042-0.356 0.061-0.347 0.070-0.342 0.094-0.347 0.103-0.333 0.122-0.333 0.131-0.323 0.155-0.319 0.159-0.309 0.178-0.3 0.188-0.291 0.206-0.281 0.216-0.272 0.23-0.263 0.047-0.056 0.061-0.047 0.070-0.028 0.075-0.014 0.075 0.009 0.070 0.028 0.066 0.037 0.052 0.056z"></path>
<path d="M21.694 14.442l0.009 0.145-0.009 0.15-0.028 0.145-0.047 0.141-0.061 0.131-0.080 0.122-0.089 0.112-0.108 0.094-0.112 0.084-0.127 0.066-0.136 0.047-0.136 0.028-0.141 0.009-0.141-0.009-0.136-0.028-0.131-0.047-0.127-0.066-0.117-0.084-0.103-0.094-0.094-0.112-0.075-0.122-0.066-0.131-0.042-0.141-0.028-0.145-0.009-0.15 0.009-0.145 0.028-0.145 0.042-0.141 0.066-0.131 0.075-0.122 0.094-0.113 0.103-0.098 0.117-0.080 0.127-0.066 0.131-0.047 0.136-0.033 0.141-0.009 0.141 0.009 0.136 0.033 0.136 0.047 0.127 0.066 0.112 0.080 0.108 0.098 0.089 0.113 0.080 0.122 0.061 0.131 0.047 0.141z"></path>
<path d="M18.417 12.516l-0.197 0.319-0.178 0.333-0.164 0.338-0.15 0.347-0.136 0.352-0.113 0.361-0.098 0.366-0.084 0.37-0.070 0.37-0.047 0.38-0.033 0.38-0.619-0.127-0.623-0.113-0.628-0.094-0.623-0.080-0.628-0.061-0.633-0.052-0.628-0.028-0.633-0.014-0.084-5.109 0.023-0.586 0.042-0.581 0.056-0.581 0.075-0.586 0.094-0.577 0.112-0.572 0.127-0.572 0.145-0.563 0.159-0.563 0.033-0.094 0.047-0.084 0.061-0.080 0.066-0.066 0.084-0.052 0.089-0.033 0.089-0.019 0.094-0.005 0.094 0.019 0.089 0.028 0.080 0.052 0.075 0.061 0.066 0.070 0.047 0.084 0.033 0.094 0.023 0.098v0.098l-0.014 0.098-0.028 0.094-0.042 0.089-0.098 0.244-0.084 0.258-0.070 0.258-0.052 0.263-0.033 0.267-0.019 0.267-0.005 0.267 0.014 0.272 0.033 0.267 0.047 0.262 0.061 0.263 0.080 0.253 0.094 0.253 0.113 0.239 0.122 0.234 0.141 0.225 0.155 0.216 0.122 0.159 0.136 0.145 0.145 0.131 0.155 0.117 0.169 0.103 0.173 0.084 0.178 0.070 0.188 0.056 0.188 0.033 0.192 0.019h0.192l0.192-0.019 0.188-0.033 0.253-0.066 0.248-0.080 0.244-0.098 0.239-0.117 0.23-0.127 0.225-0.145 0.211-0.155 0.206-0.173 0.192-0.183 0.183-0.197 0.169-0.211 0.159-0.216 0.145-0.23 0.131-0.239 0.117-0.244 0.103-0.253 0.084-0.262 0.075-0.263 0.056-0.267 0.038-0.272 0.028-0.272 0.033-0.094 0.052-0.084 0.061-0.070 0.075-0.061 0.080-0.047 0.094-0.033 0.089-0.014 0.094 0.005 0.094 0.019 0.084 0.038 0.080 0.052 0.070 0.066 0.056 0.080 0.042 0.084 0.028 0.098 0.014 0.094v0.098l-0.019 0.098-0.061 0.384-0.080 0.38-0.094 0.38-0.117 0.37-0.131 0.366-0.145 0.356-0.169 0.347-0.178 0.342-0.197 0.328-0.216 0.319-0.23 0.309-0.248 0.272-0.234 0.286-0.22 0.305z"></path>
<path d="M18.009 8.677l0.009 0.183-0.009 0.188-0.028 0.178-0.042 0.183-0.056 0.173-0.075 0.169-0.089 0.155-0.108 0.15-0.117 0.136-0.127 0.127-0.141 0.108-0.15 0.094-0.159 0.084-0.164 0.061-0.173 0.042-0.173 0.028-0.173 0.009-0.173-0.009-0.173-0.028-0.173-0.042-0.164-0.061-0.155-0.084-0.15-0.094-0.141-0.108-0.131-0.127-0.117-0.136-0.108-0.15-0.089-0.155-0.070-0.169-0.061-0.173-0.042-0.183-0.028-0.178-0.005-0.188 0.005-0.183 0.028-0.183 0.042-0.178 0.061-0.178 0.070-0.164 0.089-0.159 0.108-0.15 0.117-0.136 0.131-0.122 0.141-0.112 0.15-0.094 0.155-0.080 0.164-0.061 0.173-0.047 0.173-0.028 0.173-0.005 0.173 0.005 0.173 0.028 0.173 0.047 0.164 0.061 0.159 0.080 0.15 0.094 0.141 0.112 0.127 0.122 0.117 0.136 0.108 0.15 0.089 0.159 0.075 0.164 0.056 0.178 0.042 0.178z"></path>
<path d="M4.261 14.442l0.009 0.145-0.009 0.15-0.028 0.145-0.042 0.141-0.061 0.131-0.080 0.122-0.094 0.112-0.103 0.094-0.117 0.084-0.127 0.066-0.131 0.047-0.136 0.028-0.141 0.009-0.141-0.009-0.136-0.028-0.136-0.047-0.122-0.066-0.117-0.084-0.108-0.094-0.094-0.112-0.075-0.122-0.061-0.131-0.047-0.141-0.028-0.145-0.009-0.15 0.009-0.145 0.028-0.145 0.047-0.141 0.061-0.131 0.075-0.122 0.094-0.113 0.108-0.098 0.117-0.080 0.122-0.066 0.136-0.047 0.136-0.033 0.141-0.009 0.141 0.009 0.136 0.033 0.131 0.047 0.127 0.066 0.117 0.080 0.103 0.098 0.094 0.113 0.080 0.122 0.061 0.131 0.042 0.141z"></path>
<path d="M0.642 14.245l0.061 0.037 0.056 0.052 0.047 0.066 0.084 0.197 0.103 0.192 0.113 0.178 0.131 0.173 0.145 0.155 0.155 0.145 0.164 0.131 0.178 0.112 0.183 0.103 0.192 0.080 0.197 0.061 0.202 0.047 0.206 0.028 0.206 0.009 0.206-0.009 0.206-0.028 0.145-0.033 0.145-0.047 0.136-0.066 0.127-0.084 0.117-0.098 0.108-0.113 0.094-0.122 0.080-0.131 0.061-0.145 0.052-0.15 0.052-0.211 0.038-0.211 0.014-0.216v-0.216l-0.014-0.216-0.038-0.216-0.052-0.206-0.066-0.206-0.084-0.197-0.098-0.188-0.112-0.178-0.131-0.173-0.141-0.155-0.15-0.145-0.056-0.052-0.042-0.066-0.028-0.075-0.009-0.075 0.009-0.084 0.023-0.070 0.042-0.070 0.052-0.056 0.066-0.037 0.070-0.028 0.075-0.009 0.075 0.014 0.070 0.028 0.061 0.047 0.047 0.056 0.23 0.262 0.216 0.272 0.202 0.281 0.192 0.291 0.178 0.3 0.164 0.309 0.145 0.319 0.136 0.323 0.122 0.333 0.103 0.333 0.094 0.347 0.070 0.342 0.061 0.347 0.042 0.356 0.028 0.352-0.595 0.15-0.591 0.164-0.586 0.183-0.581 0.192-0.577 0.211-0.3-0.141-0.291-0.155-0.286-0.173-0.277-0.188-0.267-0.197-0.258-0.216-0.244-0.23-0.234-0.244-0.22-0.253-0.211-0.267-0.197-0.277-0.183-0.286-0.052-0.056-0.033-0.075-0.019-0.075v-0.080l0.014-0.080 0.033-0.070 0.047-0.061 0.061-0.047 0.070-0.033 0.070-0.019 0.075 0.005z"></path>
<path d="M5.592 12.806l-0.173-0.291-0.211-0.309-0.22-0.305-0.234-0.286-0.253-0.272-0.225-0.309-0.216-0.319-0.197-0.328-0.183-0.342-0.164-0.347-0.145-0.356-0.136-0.366-0.112-0.37-0.094-0.38-0.080-0.38-0.061-0.384-0.014-0.098-0.005-0.098 0.014-0.094 0.023-0.098 0.047-0.084 0.056-0.080 0.070-0.066 0.080-0.052 0.089-0.038 0.089-0.019 0.094-0.005 0.094 0.014 0.089 0.033 0.080 0.047 0.075 0.061 0.066 0.070 0.047 0.084 0.038 0.094 0.023 0.272 0.038 0.272 0.056 0.267 0.075 0.262 0.084 0.262 0.103 0.253 0.117 0.244 0.131 0.239 0.145 0.23 0.159 0.216 0.169 0.211 0.183 0.197 0.192 0.183 0.206 0.173 0.216 0.155 0.22 0.145 0.23 0.127 0.239 0.117 0.244 0.098 0.248 0.080 0.253 0.066 0.188 0.033 0.192 0.019h0.192l0.192-0.019 0.192-0.033 0.183-0.056 0.178-0.070 0.178-0.084 0.164-0.103 0.155-0.117 0.145-0.131 0.136-0.145 0.122-0.159 0.155-0.216 0.136-0.225 0.127-0.234 0.113-0.239 0.094-0.253 0.080-0.253 0.061-0.262 0.047-0.263 0.033-0.267 0.014-0.272-0.005-0.267-0.019-0.267-0.033-0.267-0.052-0.262-0.070-0.258-0.084-0.258-0.098-0.244-0.042-0.089-0.028-0.094-0.014-0.098 0.005-0.098 0.019-0.098 0.033-0.094 0.052-0.084 0.061-0.070 0.075-0.061 0.080-0.052 0.089-0.028 0.094-0.019 0.094 0.005 0.089 0.019 0.089 0.033 0.080 0.052 0.075 0.066 0.056 0.080 0.047 0.084 0.033 0.094 0.15 0.638 0.136 0.637 0.122 0.647 0.103 0.647 0.084 0.652 0.070 0.652 0.052 0.652 0.033 0.656v5.109l-0.628 0.014-0.633 0.028-0.628 0.052-0.633 0.061-0.623 0.080-0.628 0.094-0.623 0.112-0.619 0.127-0.033-0.38-0.047-0.38-0.066-0.37-0.084-0.37-0.103-0.366-0.113-0.361-0.136-0.352-0.15-0.347-0.164-0.337-0.178-0.333z"></path>
<path d="M9.375 8.677l0.009 0.183-0.009 0.188-0.028 0.178-0.042 0.183-0.061 0.173-0.070 0.169-0.094 0.155-0.103 0.15-0.117 0.136-0.127 0.127-0.141 0.108-0.155 0.094-0.155 0.084-0.169 0.061-0.169 0.042-0.173 0.028-0.173 0.009-0.178-0.009-0.169-0.028-0.169-0.042-0.169-0.061-0.155-0.084-0.155-0.094-0.141-0.108-0.127-0.127-0.117-0.136-0.103-0.15-0.094-0.155-0.075-0.169-0.056-0.173-0.042-0.183-0.028-0.178-0.009-0.188 0.009-0.183 0.028-0.183 0.042-0.178 0.056-0.178 0.075-0.164 0.094-0.159 0.103-0.15 0.117-0.136 0.127-0.122 0.141-0.112 0.155-0.094 0.155-0.080 0.169-0.061 0.169-0.047 0.169-0.028 0.178-0.005 0.173 0.005 0.173 0.028 0.169 0.047 0.169 0.061 0.155 0.080 0.155 0.094 0.141 0.112 0.127 0.122 0.117 0.136 0.103 0.15 0.094 0.159 0.070 0.164 0.061 0.178 0.042 0.178z"></path>
</svg>
