<svg xmlns="http://www.w3.org/2000/svg" viewBox="0 0 1024 1024"><path d="M1009.6 350.133c-.8-4.8-5.2-42.6-5.2-53.4s-8-18.8-18.8-18.8H953c-14-49.8-45.6-52-60.6-52H596c-15.2 0-46.6 2.2-60.6 52h-32.6c-10.8 0-18.8 7.8-18.8 18.8s-4.4 48.6-5.2 53.4c-.8 4.8-2.8 18.6 14 18.6h502.8c16.8.2 15-13.6 14-18.6zm-267.8 44.8H505s7.4 66 17.4 153.8c24.6 8.2 47.8 18 69.2 29.4 74.4 40 115.4 94.2 115.4 152.6 30.2 13.8 51.2 44.4 51.2 79.8s-21 65.8-51.2 79.6l-.6 9-.8 10c-.6 7.8-2 15.8-4 23.8-4.8 19-16.2 47.2-34 69H903c7.2 0 10.2-3.8 12.2-12.2 1.8-8.4 68-594.6 68-594.6H741.8zm107.6-350.8l-39-19-87.6 180H771zm-178.8 823.6c31.6 0 57.4-25.8 57.4-57.4s-25.8-57.4-57.4-57.4H528c-86.6 0-166.4 82.4-166.4 82.4s-79.4-82.4-151.6-82.4H61.6c-31.6 0-57.4 25.8-57.4 57.4s25.8 57.4 57.4 57.4h609zm-308.8-314.6c-154.6 0-315 69.8-315 177.6h629.8c.2-99-160.2-177.6-314.8-177.6zm140.8 142c-30.2-.6-23.8-36-23.8-36 21.2-.4 54 36.6 23.8 36zm18.2-45.4c-30.2-.6-23.8-36-23.8-36 21.2-.4 54 36.6 23.8 36zm47.4 45.4c-30.2-.6-23.8-36-23.8-36 21.2-.4 54 36.6 23.8 36zm107.2 211.6l.8-10c-18.2-3.4-38.8.2-51.4 11.2-19 16.8-57 16.8-76 0s-57-16.8-76 0-57 16.8-76 0-57-16.8-76 0-57 16.8-76 0-57-16.8-76 0-57 16.8-76 0c-11.2-9.8-28.8-13.8-45.4-12.2l-.8 10.8c-.4 6.4-.2 12.4.4 18.4 3.8 34.8 25.8 78.2 54.2 78.2h507.6c28.4 0 54.2-43.4 63.2-78.2 2-5.8 3-11.8 3.4-18.2z"/></svg>