<!-- Generated by IcoMoon.io -->
<svg version="1.1" xmlns="http://www.w3.org/2000/svg" width="24" height="24" viewBox="0 0 24 24">
<title>fastfood</title>
<path d="M23.663 7.706c-0.019-0.113-0.122-0.998-0.122-1.252s-0.188-0.441-0.441-0.441c-0.253 0-0.764 0-0.764 0-0.328-1.167-1.069-1.219-1.42-1.219-0.314 0-2.845 0-3.417 0-0.070 0-0.113 0-0.113 0-0.567 0-3.098 0-3.417 0-0.356 0-1.092 0.052-1.42 1.219 0 0-0.506 0-0.764 0-0.253 0-0.441 0.183-0.441 0.441s-0.103 1.139-0.122 1.252c-0.019 0.112-0.066 0.436 0.328 0.436 0.361 0 5.039 0 5.836 0 0 0 0.042 0 0.113 0 0.792 0 5.475 0 5.836 0 0.394 0.005 0.352-0.319 0.328-0.436z"></path>
<path d="M17.386 8.756h-5.55c0 0 0.173 1.547 0.408 3.605 0.577 0.192 1.12 0.422 1.622 0.689 1.744 0.938 2.705 2.208 2.705 3.577 0.708 0.323 1.2 1.041 1.2 1.87s-0.492 1.542-1.2 1.866l-0.014 0.211-0.019 0.234c-0.014 0.183-0.047 0.37-0.094 0.558-0.113 0.445-0.38 1.106-0.797 1.617 0.736 0 1.462 0 1.734 0 0 0 0.042 0 0.112 0 0.614 0 3.516 0 3.67 0 0.169 0 0.239-0.089 0.286-0.286 0.042-0.197 1.594-13.936 1.594-13.936h-5.658z"></path>
<path d="M19.908 0.534l-0.914-0.445-2.053 4.219h1.13z"></path>
<path d="M15.717 19.837c0.741 0 1.345-0.605 1.345-1.345s-0.605-1.345-1.345-1.345c0 0-1.313 0-3.342 0s-3.9 1.931-3.9 1.931-1.861-1.931-3.553-1.931-3.478 0-3.478 0c-0.741 0-1.345 0.605-1.345 1.345s0.605 1.345 1.345 1.345h14.273z"></path>
<path d="M8.48 12.464c-3.623 0-7.383 1.636-7.383 4.162h14.761c0.005-2.32-3.755-4.162-7.378-4.162zM11.78 15.792c-0.708-0.014-0.558-0.844-0.558-0.844 0.497-0.009 1.266 0.858 0.558 0.844zM12.206 14.728c-0.708-0.014-0.558-0.844-0.558-0.844 0.497-0.009 1.266 0.858 0.558 0.844zM13.317 15.792c-0.708-0.014-0.558-0.844-0.558-0.844 0.497-0.009 1.266 0.858 0.558 0.844z"></path>
<path d="M15.83 20.752l0.019-0.234c-0.427-0.080-0.909 0.005-1.205 0.263-0.445 0.394-1.336 0.394-1.781 0s-1.336-0.394-1.781 0c-0.445 0.394-1.336 0.394-1.781 0s-1.336-0.394-1.781 0c-0.445 0.394-1.336 0.394-1.781 0s-1.336-0.394-1.781 0c-0.445 0.394-1.336 0.394-1.781 0-0.263-0.23-0.675-0.323-1.064-0.286l-0.019 0.253c-0.009 0.15-0.005 0.291 0.009 0.431 0.089 0.816 0.605 1.833 1.27 1.833h11.897c0.666 0 1.27-1.017 1.481-1.833 0.047-0.136 0.070-0.277 0.080-0.427z"></path>
</svg>
