<svg xmlns="http://www.w3.org/2000/svg" viewBox="0 0 1025 1024"><path d="M510.005 560.719L408.439 459.153c-1.451-1.451-2.902-2.902-3.99-4.353l-.725-.725c-1.451-1.451-2.539-2.539-3.99-3.627l-.725-.725c-1.451-1.088-2.539-2.176-3.99-2.902h-.363c-1.088-.725-2.539-1.814-3.627-2.539-.363 0-.363-.363-.725-.363-1.088-.725-2.539-1.451-3.627-1.814-.363 0-.363-.363-.725-.363-1.088-.363-2.539-1.088-3.627-1.088h-.363c-1.088-.363-2.176-.363-3.627-.725h-.725c-1.088 0-2.539-.363-3.627-.363H370.356c-.725 0-1.088 0-1.814.363h-1.088c-.725 0-1.451.363-2.176.363h-.725c-.725.363-1.814.363-2.539.725-.363 0-.363 0-.725.363-.725.363-1.088.363-1.814.725-.363 0-.725.363-1.088.363-.363.363-1.088.363-1.451.725-.363 0-.725.363-1.088.363-.363.363-1.088.363-1.451.725s-.725.363-1.088.725c-.363.363-1.088.725-1.451 1.088s-.725.363-1.088.725-1.088.725-1.814 1.088c-.363 0-.363.363-.725.363-.725.725-1.814 1.088-2.539 1.814l-.363.363c-.725.363-1.451 1.088-1.814 1.451s-.725.363-.725.725-1.088.725-1.451 1.451c-.363.363-.725.725-1.088.725-.363.363-1.088.725-1.451 1.451-.363.363-.725.725-1.088.725l-1.451 1.451c-.363.363-.725.725-1.088.725s-1.088 1.088-1.814 1.451l-.725.725-2.539 2.539c-4.353 3.627-7.98 7.255-11.245 10.519s-5.804 6.892-7.98 10.157c-2.176 3.265-3.99 6.529-5.078 9.794-.725 1.451-1.088 3.265-1.451 4.716-1.451 6.166-1.088 11.97.725 17.774 1.451 4.353 3.627 8.706 6.529 13.058.725.725 1.088 1.451 1.814 2.176 2.176 2.539 4.353 5.441 6.892 7.98 0 0 0 .363.363.363L460.68 685.134c1.088 1.814 2.539 3.627 3.99 5.078l2.176 2.176c1.451 1.451 3.265 2.539 5.078 3.627s3.627 2.176 5.441 2.902 3.99 1.451 5.804 2.176c1.088.363 2.176.725 2.902.725 6.166 1.451 11.97 2.176 17.411 2.176 5.441 0 11.608-.725 17.411-2.176 1.088-.363 2.176-.725 2.902-.725 1.814-.725 3.99-1.451 5.804-2.176s3.627-1.814 5.441-2.902c4.353-2.902 8.343-6.529 11.608-10.882l293.09-323.197 67.106-70.733c19.225-24.303 19.225-43.528 0-67.469-1.814-1.814-3.99-3.99-5.804-5.441-.363 0-.363-.363-.725-.363-1.814-1.814-3.627-3.265-5.078-4.716l-.725-.725c-1.814-1.451-3.265-2.539-4.716-3.99l-.725-.725c-1.451-1.088-3.265-2.176-4.716-3.265-.363 0-.363-.363-.725-.363-1.451-1.088-2.902-1.814-4.353-2.539-.363 0-.363-.363-.725-.363l-4.353-2.176h-.363c-1.451-.725-2.902-1.088-4.353-1.451h-.363c-1.451-.363-2.902-.725-3.99-.725h-5.804c-.726 0-1.451 0-2.539.363-.725 0-1.088.363-1.814.363-.725.363-1.451.363-2.539.725-.725.363-1.088.363-1.814.725s-1.451.725-2.539 1.088c-.725.363-1.088.725-1.814.725-.725.363-1.451.725-2.539 1.451-.725.363-1.088.725-1.814 1.088-.725.725-1.814 1.088-2.539 1.814-.363.363-1.088.725-1.451 1.088-1.088.725-1.814 1.451-2.902 2.539-.363.363-.725.725-1.451 1.088-1.451 1.451-2.902 2.539-4.353 3.99l-88.145 95.762-73.635 79.802-157.427 171.211zm495.496-152.348c-6.529-20.676-28.656-64.93-94.674-82.704l-69.282 76.174 20.676 1.451c71.096 5.078 84.88 46.793 30.107 92.86l-68.557 57.675c-25.029 21.039-99.027 83.792-99.027 83.792-1.088 3.265 21.764 88.145 31.195 125.506l21.401 86.694c11.608 47.518-1.451 74.723-30.47 74.723-13.058 0-29.744-5.441-48.606-17.411l-75.812-47.156c-30.107-18.862-110.271-68.194-110.271-68.194s-79.802 49.332-110.271 68.194l-75.812 47.156c-18.862 11.608-35.185 17.411-48.606 17.411-29.019 0-42.077-27.205-30.47-74.723l21.401-86.694c8.343-33.734 31.195-125.506 31.195-125.506s-71.096-60.214-99.027-83.792l-68.557-57.675c-54.41-46.067-40.989-87.782 30.107-92.86l89.233-6.529c33.734-2.539 129.496-9.068 129.496-9.068s34.823-85.605 48.969-120.428l33.734-82.704c13.421-33.009 31.195-49.695 48.969-49.695s35.548 16.686 48.969 49.695l33.734 82.704c13.421 33.009 36.999 91.772 45.705 112.81l67.106-72.91c-1.814 0-3.627-.363-5.441-.363-9.794-23.94-21.039-52.234-29.019-71.459l-33.734-82.704C602.5 60.144 538.296 50.35 512.542 50.35s-89.958 10.157-127.32 102.291l-33.734 82.704c-6.892 17.049-18.862 46.067-29.019 71.459-27.931 1.814-60.214 3.99-76.537 5.441l-89.233 6.529c-99.752 7.255-129.134 64.93-137.114 89.595S1.448 496.876 77.623 561.08l68.557 57.675c13.784 11.608 37.724 31.921 58.763 49.695-6.529 26.842-14.509 57.675-18.499 74.361l-21.401 86.694c-17.049 69.282 1.451 112.085 19.95 135.663 22.127 27.931 55.861 44.254 92.86 44.254 29.744 0 61.302-10.157 93.223-30.107l75.812-47.156c14.872-9.068 41.714-25.754 65.292-40.264 23.578 14.509 50.42 31.195 65.292 40.264l75.812 47.156c32.283 19.95 63.479 30.107 93.223 30.107 36.999 0 70.733-15.96 92.86-44.254 18.499-23.94 37.362-66.743 19.95-135.663l-21.401-86.694c-3.265-12.696-7.617-30.107-12.333-48.244-2.176-7.617-4.353-16.686-6.529-25.754 21.764-18.499 46.793-39.538 59.488-50.057l68.557-57.675c76.537-64.204 66.38-128.408 58.4-152.711z"/></svg>