<!-- Generated by IcoMoon.io -->
<svg version="1.1" xmlns="http://www.w3.org/2000/svg" width="24" height="24" viewBox="0 0 24 24">
<title>features</title>
<path d="M11.953 12.642l-2.38-2.38c0 0 0 0 0 0-0.034-0.034-0.068-0.068-0.094-0.102-0.009-0.009-0.009-0.009-0.017-0.017-0.034-0.034-0.060-0.060-0.094-0.085-0.009-0.009-0.009-0.009-0.017-0.017-0.034-0.026-0.060-0.051-0.094-0.068 0 0 0 0-0.009 0-0.025-0.017-0.060-0.043-0.085-0.060-0.009 0-0.009-0.009-0.017-0.009-0.026-0.017-0.060-0.034-0.085-0.043-0.009 0-0.009-0.009-0.017-0.009-0.026-0.009-0.060-0.026-0.085-0.026 0 0-0.009 0-0.009 0-0.026-0.009-0.051-0.009-0.085-0.017-0.009 0-0.009 0-0.017 0-0.026 0-0.060-0.009-0.085-0.009 0 0-0.009 0-0.009 0-0.009 0-0.009 0-0.017 0s-0.026 0-0.034 0c-0.009 0-0.017 0-0.026 0-0.017 0-0.025 0-0.043 0.009-0.009 0-0.017 0-0.026 0-0.017 0-0.034 0.009-0.051 0.009-0.009 0-0.009 0-0.017 0-0.017 0.009-0.043 0.009-0.060 0.017-0.009 0-0.009 0-0.017 0.009-0.017 0.009-0.025 0.009-0.043 0.017-0.009 0-0.017 0.009-0.026 0.009-0.009 0.009-0.025 0.009-0.034 0.017-0.009 0-0.017 0.009-0.025 0.009-0.009 0.009-0.026 0.009-0.034 0.017s-0.017 0.009-0.026 0.017c-0.009 0.009-0.026 0.017-0.034 0.026s-0.017 0.009-0.026 0.017-0.025 0.017-0.043 0.025c-0.009 0-0.009 0.009-0.017 0.009-0.017 0.017-0.043 0.025-0.060 0.043 0 0-0.009 0.009-0.009 0.009-0.017 0.009-0.034 0.026-0.043 0.034s-0.017 0.009-0.017 0.017-0.025 0.017-0.034 0.034c-0.009 0.009-0.017 0.017-0.025 0.017-0.009 0.009-0.026 0.017-0.034 0.034-0.009 0.009-0.017 0.017-0.026 0.017-0.009 0.009-0.026 0.026-0.034 0.034s-0.017 0.017-0.026 0.017-0.026 0.026-0.043 0.034c-0.009 0.009-0.009 0.009-0.017 0.017-0.017 0.017-0.034 0.034-0.060 0.060-0.102 0.085-0.187 0.17-0.264 0.247s-0.136 0.162-0.187 0.238c-0.051 0.077-0.094 0.153-0.119 0.23-0.017 0.034-0.026 0.077-0.034 0.111-0.034 0.145-0.026 0.281 0.017 0.417 0.034 0.102 0.085 0.204 0.153 0.306 0.017 0.017 0.026 0.034 0.043 0.051 0.051 0.060 0.102 0.128 0.162 0.187 0 0 0 0.009 0.009 0.009l3.282 3.392c0.026 0.043 0.060 0.085 0.094 0.119 0.017 0.017 0.034 0.034 0.051 0.051 0.034 0.034 0.077 0.060 0.119 0.085s0.085 0.051 0.128 0.068 0.094 0.034 0.136 0.051c0.026 0.009 0.051 0.017 0.068 0.017 0.145 0.034 0.281 0.051 0.408 0.051v0 0c0.128 0 0.272-0.017 0.408-0.051 0.025-0.009 0.051-0.017 0.068-0.017 0.043-0.017 0.094-0.034 0.136-0.051s0.085-0.043 0.128-0.068c0.102-0.068 0.196-0.153 0.272-0.255l6.869-7.575 1.573-1.658c0.451-0.57 0.451-1.020 0-1.581-0.043-0.043-0.094-0.094-0.136-0.128-0.009 0-0.009-0.009-0.017-0.009-0.043-0.043-0.085-0.077-0.119-0.111-0.009-0.009-0.009-0.009-0.017-0.017-0.043-0.034-0.077-0.060-0.111-0.094-0.009-0.009-0.009-0.009-0.017-0.017-0.034-0.026-0.077-0.051-0.111-0.077-0.009 0-0.009-0.009-0.017-0.009-0.034-0.026-0.068-0.043-0.102-0.060-0.009 0-0.009-0.009-0.017-0.009-0.034-0.017-0.068-0.034-0.102-0.051 0 0 0 0-0.009 0-0.034-0.017-0.068-0.026-0.102-0.034 0 0-0.009 0-0.009 0-0.034-0.009-0.068-0.017-0.094-0.017 0 0-0.009 0-0.009 0-0.026 0-0.043 0-0.068 0-0.009 0-0.009 0-0.017 0-0.017 0-0.025 0-0.043 0s-0.034 0-0.060 0.009c-0.017 0-0.026 0.009-0.043 0.009-0.017 0.009-0.034 0.009-0.060 0.017-0.017 0.009-0.025 0.009-0.043 0.017s-0.034 0.017-0.060 0.026c-0.017 0.009-0.025 0.017-0.043 0.017-0.017 0.009-0.034 0.017-0.060 0.034-0.017 0.009-0.026 0.017-0.043 0.025-0.017 0.017-0.043 0.026-0.060 0.043-0.009 0.009-0.026 0.017-0.034 0.026-0.026 0.017-0.043 0.034-0.068 0.060-0.009 0.009-0.017 0.017-0.034 0.026-0.034 0.034-0.068 0.060-0.102 0.094l-2.066 2.244-1.726 1.87-3.69 4.013z"></path>
<path d="M23.566 9.071c-0.153-0.485-0.672-1.522-2.219-1.938l-1.624 1.785 0.485 0.034c1.666 0.119 1.989 1.097 0.706 2.176l-1.607 1.352c-0.587 0.493-2.321 1.964-2.321 1.964-0.026 0.077 0.51 2.066 0.731 2.942l0.502 2.032c0.272 1.114-0.034 1.751-0.714 1.751-0.306 0-0.697-0.128-1.139-0.408l-1.777-1.105c-0.706-0.442-2.584-1.598-2.584-1.598s-1.87 1.156-2.584 1.598l-1.777 1.105c-0.442 0.272-0.825 0.408-1.139 0.408-0.68 0-0.986-0.638-0.714-1.751l0.502-2.032c0.196-0.791 0.731-2.942 0.731-2.942s-1.666-1.411-2.321-1.964l-1.607-1.352c-1.275-1.080-0.961-2.057 0.706-2.176l2.091-0.153c0.791-0.060 3.035-0.213 3.035-0.213s0.816-2.006 1.148-2.823l0.791-1.938c0.315-0.774 0.731-1.165 1.148-1.165s0.833 0.391 1.148 1.165l0.791 1.938c0.315 0.774 0.867 2.151 1.071 2.644l1.573-1.709c-0.043 0-0.085-0.009-0.128-0.009-0.23-0.561-0.493-1.224-0.68-1.675l-0.791-1.938c-0.876-2.168-2.38-2.397-2.984-2.397s-2.108 0.238-2.984 2.397l-0.791 1.938c-0.162 0.4-0.442 1.080-0.68 1.675-0.655 0.043-1.411 0.094-1.794 0.128l-2.091 0.153c-2.338 0.17-3.027 1.522-3.214 2.1s-0.425 2.074 1.36 3.579l1.607 1.352c0.323 0.272 0.884 0.748 1.377 1.165-0.153 0.629-0.34 1.352-0.434 1.743l-0.502 2.032c-0.4 1.624 0.034 2.627 0.468 3.18 0.519 0.655 1.309 1.037 2.176 1.037 0.697 0 1.437-0.238 2.185-0.706l1.777-1.105c0.349-0.213 0.978-0.604 1.53-0.944 0.553 0.34 1.182 0.731 1.53 0.944l1.777 1.105c0.757 0.468 1.488 0.706 2.185 0.706 0.867 0 1.658-0.374 2.176-1.037 0.434-0.561 0.876-1.564 0.468-3.18l-0.502-2.032c-0.077-0.298-0.179-0.706-0.289-1.131-0.051-0.179-0.102-0.391-0.153-0.604 0.51-0.434 1.097-0.927 1.394-1.173l1.607-1.352c1.794-1.505 1.556-3.010 1.369-3.579z"></path>
</svg>
