<!-- Generated by IcoMoon.io -->
<svg version="1.1" xmlns="http://www.w3.org/2000/svg" width="24" height="24" viewBox="0 0 24 24">
<title>ferry</title>
<path d="M0.356 16.195v0.258c0 0.066 0.052 0.117 0.117 0.117v0c0.009 0 0.014 0 0.023 0 0.319 0.066 0.070 0.956 0.886 1.809h20.325c0.825-0.863 1.636-1.763 1.945-1.809h0.131v-0.492h-23.306c-0.070 0-0.122 0.052-0.122 0.117z"></path>
<path d="M16.814 14.475v1.242h1.739v-3.333c0-0.623 0.455-1.158 1.078-1.345h2.081v-1.697h-21.356v1.697h0.989c0.623 0.188 1.078 0.717 1.078 1.345v3.333h9.488v-1.242h4.903zM16.186 11.32h1.416v0.375h-1.416v-0.375zM16.186 12.23h1.416v1.28h-1.416v-1.28zM14.048 11.32h1.416v0.375h-1.416v-0.375zM14.048 12.23h1.416v1.28h-1.416v-1.28zM11.916 11.32h1.416v0.375h-1.416v-0.375zM11.916 12.23h1.416v1.28h-1.416v-1.28zM4.791 13.509h-1.411v-1.28h1.416v1.28zM4.791 11.695h-1.411v-0.375h1.416v0.375zM6.923 13.509h-1.416v-1.28h1.416v1.28zM6.923 11.695h-1.416v-0.375h1.416v0.375zM9.061 13.509h-1.416v-1.28h1.416v1.28zM9.061 11.695h-1.416v-0.375h1.416v0.375zM11.194 13.509h-1.416v-1.28h1.416v1.28zM11.194 11.695h-1.416v-0.375h1.416v0.375z"></path>
<path d="M4.059 5.025v1.763h-1.106v1.289h-1.945v0.947h18.961v-0.947h-2.452v-3.605h-0.628v3.605h-5.573l-1.298-1.289h-1.336v-1.055l-4.622-0.708zM7.898 7.252v0.445h-0.492v-0.445h0.492zM6.919 7.252v0.445h-0.497v-0.445h0.497zM5.934 7.252v0.445h-0.492v-0.445h0.492zM4.95 7.252v0.445h-0.492v-0.445h0.492zM3.473 7.252h0.492v0.445h-0.492v-0.445zM8.883 7.697h-0.492v-0.445h0.492v0.445z"></path>
</svg>
