<svg xmlns="http://www.w3.org/2000/svg" viewBox="0 0 1024 1024"><path d="M15.2 712.333v11c0 2.8 2.2 5 5 5h1c13.6 2.8 3 40.8 37.8 77.2h867.2c35.2-36.8 69.8-75.2 83-77.2h5.6v-21H20.4c-3 0-5.2 2.2-5.2 5zm702.2-73.4v53h74.2v-142.2c0-26.6 19.4-49.4 46-57.4h88.8v-72.4H15.2v72.4h42.2c26.6 8 46 30.6 46 57.4v142.2h404.8v-53h209.2zm-26.8-134.6H751v16h-60.4v-16zm0 38.8H751v54.6h-60.4v-54.6zm-91.2-38.8h60.4v16h-60.4v-16zm0 38.8h60.4v54.6h-60.4v-54.6zm-91-38.8h60.4v16h-60.4v-16zm0 38.8h60.4v54.6h-60.4v-54.6zm-304 54.6h-60.2v-54.6h60.4v54.6zm0-77.4h-60.2v-16h60.4v16zm91 77.4H235v-54.6h60.4v54.6zm0-77.4H235v-16h60.4v16zm91.2 77.4h-60.4v-54.6h60.4v54.6zm0-77.4h-60.4v-16h60.4v16zm91 77.4h-60.4v-54.6h60.4v54.6zm0-77.4h-60.4v-16h60.4v16zm-304.4-284.6v75.2H126v55H43v40.4h809v-40.4H747.4v-153.8h-26.8v153.8H482.8l-55.4-55h-57v-45l-197.2-30.2zm163.8 95v19h-21v-19h21zm-41.8 0v19H274v-19h21.2zm-42 0v19h-21v-19h21zm-42 0v19h-21v-19h21zm-63 0h21v19h-21v-19zm230.8 19h-21v-19h21v19z"/></svg>