<!-- Generated by IcoMoon.io -->
<svg version="1.1" xmlns="http://www.w3.org/2000/svg" width="24" height="24" viewBox="0 0 24 24">
<title>file-video</title>
<path d="M19.425 4.875l-2.7-2.7c-0.15-0.15-0.3-0.225-0.45-0.225h-0.45v3.825h3.825v-0.225c0-0.225-0.075-0.6-0.225-0.675z"></path>
<path d="M19.575 7.35h-3.825c-0.9 0-1.5-0.525-1.5-1.5v-3.9h-9c-0.825 0-0.825 0-0.825 0.975v18.225c0 0.975 0 0.975 0.975 0.975h13.2c1.050 0 0.975 0 0.975-0.975v-13.8zM16.65 14.25c0 0 0 0 0 0 0 0.225 0 1.8 0 2.325 0 0.3-0.225 0.375-0.675 0.15-0.3-0.15-2.325-1.275-2.775-1.575v0.6c0 0.75-0.6 1.275-1.275 1.275h-3c-0.75 0-1.275-0.6-1.275-1.275v-3c0-0.75 0.6-1.275 1.275-1.275h3c0.75 0 1.275 0.6 1.275 1.275v0.675c0.45-0.3 2.4-1.35 2.775-1.575s0.675-0.3 0.675 0.15c0 0.45 0 2.025 0 2.25z"></path>
</svg>
