<svg xmlns="http://www.w3.org/2000/svg" viewBox="0 0 1024 1024"><path d="M828.8 229.333l-115.2-115.2c-6.4-6.4-12.8-9.6-19.2-9.6H672v163.2h163.2v-9.6c3.2-9.6-3.2-25.6-6.4-28.8zm3.2 105.6H672c-38.4 0-64-22.4-64-64v-166.4H224c-35.2 0-35.2 0-35.2 41.6v777.6c0 41.6 0 41.6 41.6 41.6h563.2c44.8 0 41.6 0 41.6-41.6v-588.8zm-176 304l-112 115.2c-6.4 6.4-16 16-32 16s-25.6-9.6-32-16l-108.8-115.2c-6.4-6.4-9.6-22.4-3.2-28.8l19.2-19.2c6.4-6.4 19.2-9.6 28.8 3.2l64 67.2v-204.8c0-12.8 12.8-28.8 32-28.8s32 12.8 32 28.8v204.8l64-67.2c9.6-9.6 19.2-9.6 28.8-3.2l19.2 19.2c9.6 6.4 6.4 19.2 0 28.8z"/></svg>