<!-- Generated by IcoMoon.io -->
<svg version="1.1" xmlns="http://www.w3.org/2000/svg" width="24" height="24" viewBox="0 0 24 24">
<title>file-medical-alt</title>
<path d="M19.425 4.875l-2.7-2.7c-0.15-0.15-0.3-0.225-0.45-0.225h-0.45v3.825h3.825v-0.225c0-0.225-0.075-0.6-0.225-0.675z"></path>
<path d="M19.575 7.35h-3.825c-0.9 0-1.5-0.525-1.5-1.5v-3.9h-9c-0.825 0-0.825 0-0.825 0.975v9.3h-2.025c-0.3 0-0.6 0.3-0.6 0.6 0 0.375 0.3 0.6 0.6 0.6h5.625l1.2-2.85c0.075-0.225 0.375-0.375 0.6-0.375 0.3 0 0.45 0.225 0.525 0.45l0.9 3.825 1.2-1.95c0.075-0.15 0.3-0.3 0.525-0.3h3.525c0.375 0 0.6 0.3 0.6 0.6 0 0.375-0.3 0.6-0.6 0.6h-3.225l-1.725 2.925c-0.075 0.15-0.3 0.3-0.525 0.3 0 0-0.075 0-0.075 0-0.225-0.075-0.45-0.225-0.525-0.45l-0.825-3.45-0.675 1.5c-0.075 0.225-0.3 0.375-0.525 0.375h-3.975v6.45c0 0.975 0 0.975 0.975 0.975h13.2c1.050 0 0.975 0 0.975-0.975v-13.725z"></path>
</svg>
