<svg xmlns="http://www.w3.org/2000/svg" viewBox="0 0 1024 1024"><path d="M828.8 229.333l-115.2-115.2c-6.4-6.4-12.8-9.6-19.2-9.6h-19.2v163.2h163.2v-9.6c0-9.6-3.2-25.6-9.6-28.8zm6.4 105.6H672c-38.4 0-64-22.4-64-64v-166.4H224c-35.2 0-35.2 0-35.2 41.6v777.6c0 41.6 0 41.6 41.6 41.6h563.2c44.8 0 41.6 0 41.6-41.6v-588.8zM304 680.533c6.4 9.6 16 16 32 16 12.8 0 22.4-3.2 28.8-9.6s9.6-16 9.6-28.8H416c0 22.4-9.6 38.4-25.6 51.2s-35.2 19.2-57.6 19.2c-25.6 0-48-9.6-60.8-25.6-16-16-22.4-41.6-22.4-73.6v-12.8c0-19.2 3.2-35.2 9.6-51.2s16-25.6 28.8-35.2c12.8-6.4 28.8-12.8 44.8-12.8 22.4 0 41.6 6.4 57.6 19.2 12.8 12.8 22.4 28.8 25.6 51.2h-41.6c0-12.8-3.2-22.4-9.6-28.8s-16-9.6-28.8-9.6-25.6 6.4-32 16-9.6 25.6-9.6 48v16c0 25.6 3.2 41.6 9.6 51.2zm188.8-86.4c6.4 3.2 16 9.6 28.8 12.8 22.4 6.4 41.6 16 51.2 25.6s16 22.4 16 38.4-6.4 32-19.2 41.6-32 16-54.4 16c-16 0-28.8-3.2-41.6-9.6s-22.4-12.8-28.8-22.4c-6.4-9.6-9.6-22.4-9.6-35.2h41.6c0 22.4 12.8 32 41.6 32 9.6 0 19.2-3.2 22.4-6.4 6.4-3.2 9.6-9.6 9.6-16s-3.2-12.8-9.6-19.2c-6.4-3.2-16-9.6-28.8-12.8s-25.6-9.6-35.2-12.8c-22.4-12.8-35.2-28.8-35.2-51.2 0-9.6 3.2-19.2 9.6-28.8s16-16 25.6-19.2c12.8-6.4 25.6-6.4 38.4-6.4 16 0 28.8 3.2 38.4 6.4 12.8 6.4 19.2 12.8 25.6 22.4s9.6 19.2 9.6 32h-41.6c0-9.6-3.2-16-9.6-22.4s-12.8-6.4-25.6-6.4c-9.6 0-19.2 3.2-22.4 6.4s-9.6 9.6-9.6 16c3.2 9.6 6.4 16 12.8 19.2zm224 131.2H672l-70.4-201.6h44.8l44.8 153.6 44.8-153.6h48l-67.2 201.6z"/></svg>