<svg xmlns="http://www.w3.org/2000/svg" viewBox="0 0 1024 1024"><path d="M828.8 229.333l-115.2-115.2c-6.4-6.4-12.8-9.6-19.2-9.6h-19.2v163.2h163.2v-9.6c0-9.6-3.2-25.6-9.6-28.8zm-323.2 348.8c-12.8 35.2-28.8 76.8-51.2 112 32-12.8 67.2-28.8 112-38.4-22.4-16-44.8-41.6-60.8-73.6zm0-163.2c-6.4 0-6.4 54.4 3.2 83.2 9.6-19.2 12.8-83.2-3.2-83.2zm-166.4 384s22.4-9.6 60.8-70.4c-9.6 9.6-48 41.6-60.8 70.4zm307.2-134.4c64 28.8 76.8 16 76.8 16 6.4-6.4-6.4-22.4-76.8-16zm188.8-329.6H672c-38.4 0-64-22.4-64-64v-166.4H224c-35.2 0-35.2 0-35.2 41.6v777.6c0 41.6 0 41.6 41.6 41.6h563.2c44.8 0 41.6 0 41.6-41.6v-588.8zm-131.2 384c-28.8 0-73.6-12.8-112-35.2-44.8 6.4-92.8 25.6-137.6 41.6-102.4 176-160 96-153.6 64 9.6-41.6 64-73.6 102.4-92.8 22.4-38.4 51.2-102.4 70.4-150.4-16-57.6-22.4-102.4-12.8-134.4 9.6-35.2 76.8-41.6 86.4 12.8 9.6 32-3.2 80-9.6 112 16 41.6 38.4 73.6 73.6 92.8 35.2-3.2 105.6-9.6 131.2 12.8 19.2 22.4 12.8 76.8-38.4 76.8z"/></svg>