<!-- Generated by IcoMoon.io -->
<svg version="1.1" xmlns="http://www.w3.org/2000/svg" width="24" height="24" viewBox="0 0 24 24">
<title>file-import</title>
<path d="M19.65 4.875l-2.7-2.7c-0.15-0.15-0.3-0.225-0.45-0.225h-0.45v3.825h3.825v-0.225c0-0.225-0.075-0.6-0.225-0.675z"></path>
<path d="M19.8 7.35h-3.825c-0.9 0-1.5-0.525-1.5-1.5v-3.9h-9c-0.825 0-0.825 0-0.825 0.975v9.525h7.425l-1.575-1.5c-0.225-0.225-0.225-0.45-0.075-0.675 0 0 0.45-0.45 0.45-0.45 0.225-0.225 0.525-0.15 0.675 0.075l2.7 2.55c0.15 0.15 0.375 0.375 0.375 0.75s-0.225 0.6-0.375 0.75l-2.7 2.55c-0.15 0.15-0.525 0.225-0.675 0.075 0 0-0.45-0.45-0.45-0.45-0.15-0.15-0.225-0.45 0.075-0.675l1.575-1.5h-7.425v7.2c0 0.975 0 0.975 0.975 0.975h13.2c1.050 0 0.975 0 0.975-0.975v-13.8z"></path>
<path d="M1.65 12.45c-0.375 0-0.6 0.225-0.75 0.6v0c0 0.075 0 0.075 0 0.15 0 0 0 0 0 0s0 0 0 0c0 0.075 0 0.075 0 0.15v0c0.075 0.3 0.375 0.6 0.75 0.6h3v-1.5h-3z"></path>
</svg>
