<svg xmlns="http://www.w3.org/2000/svg" viewBox="0 0 1024 1024"><path d="M838.4 229.333l-115.2-115.2c-6.4-6.4-12.8-9.6-19.2-9.6h-19.2v163.2H848v-9.6c0-9.6-3.2-25.6-9.6-28.8zm6.4 105.6H681.6c-38.4 0-64-22.4-64-64v-166.4h-384c-35.2 0-35.2 0-35.2 41.6v406.4h316.8l-67.2-64c-9.6-9.6-9.6-19.2-3.2-28.8l19.2-19.2c9.6-9.6 22.4-6.4 28.8 3.2l115.2 108.8c6.4 6.4 16 16 16 32s-9.6 25.6-16 32l-115.2 108.8c-6.4 6.4-22.4 9.6-28.8 3.2l-19.2-19.2c-6.4-6.4-9.6-19.2 3.2-28.8l67.2-64H198.4v307.2c0 41.6 0 41.6 41.6 41.6h563.2c44.8 0 41.6 0 41.6-41.6v-588.8zm-774.4 217.6c-16 0-25.6 9.6-32 25.6v12.8c3.2 12.8 16 25.6 32 25.6h128v-64h-128z"/></svg>