<!-- Generated by IcoMoon.io -->
<svg version="1.1" xmlns="http://www.w3.org/2000/svg" width="24" height="24" viewBox="0 0 24 24">
<title>file-csv</title>
<path d="M19.425 4.875l-2.7-2.7c-0.15-0.15-0.3-0.225-0.45-0.225h-0.45v3.825h3.825v-0.225c0-0.225-0.075-0.6-0.225-0.675z"></path>
<path d="M19.575 7.35h-3.825c-0.9 0-1.5-0.525-1.5-1.5v-3.9h-9c-0.825 0-0.825 0-0.825 0.975v18.225c0 0.975 0 0.975 0.975 0.975h13.2c1.050 0 0.975 0 0.975-0.975v-13.8zM7.125 15.45c0.15 0.225 0.375 0.375 0.75 0.375 0.3 0 0.525-0.075 0.675-0.225s0.225-0.375 0.225-0.675h0.975c0 0.525-0.225 0.9-0.6 1.2s-0.825 0.45-1.35 0.45c-0.6 0-1.125-0.225-1.425-0.6-0.375-0.375-0.525-0.975-0.525-1.725v-0.3c0-0.45 0.075-0.825 0.225-1.2s0.375-0.6 0.675-0.825c0.3-0.15 0.675-0.3 1.050-0.3 0.525 0 0.975 0.15 1.35 0.45 0.3 0.3 0.525 0.675 0.6 1.2h-0.975c0-0.3-0.075-0.525-0.225-0.675s-0.375-0.225-0.675-0.225c-0.3 0-0.6 0.15-0.75 0.375s-0.225 0.6-0.225 1.125v0.375c0 0.6 0.075 0.975 0.225 1.2zM11.55 13.425c0.15 0.075 0.375 0.225 0.675 0.3 0.525 0.15 0.975 0.375 1.2 0.6s0.375 0.525 0.375 0.9c0 0.375-0.15 0.75-0.45 0.975s-0.75 0.375-1.275 0.375c-0.375 0-0.675-0.075-0.975-0.225s-0.525-0.3-0.675-0.525c-0.15-0.225-0.225-0.525-0.225-0.825h0.975c0 0.525 0.3 0.75 0.975 0.75 0.225 0 0.45-0.075 0.525-0.15 0.15-0.075 0.225-0.225 0.225-0.375s-0.075-0.3-0.225-0.45c-0.15-0.075-0.375-0.225-0.675-0.3s-0.6-0.225-0.825-0.3c-0.525-0.3-0.825-0.675-0.825-1.2 0-0.225 0.075-0.45 0.225-0.675s0.375-0.375 0.6-0.45c0.3-0.15 0.6-0.15 0.9-0.15 0.375 0 0.675 0.075 0.9 0.15 0.3 0.15 0.45 0.3 0.6 0.525s0.225 0.45 0.225 0.75h-0.975c0-0.225-0.075-0.375-0.225-0.525s-0.3-0.15-0.6-0.15c-0.225 0-0.45 0.075-0.525 0.15s-0.225 0.225-0.225 0.375c0.075 0.225 0.15 0.375 0.3 0.45zM16.8 16.5h-1.050l-1.65-4.725h1.050l1.050 3.6 1.050-3.6h1.125l-1.575 4.725z"></path>
</svg>
