<!-- Generated by IcoMoon.io -->
<svg version="1.1" xmlns="http://www.w3.org/2000/svg" width="24" height="24" viewBox="0 0 24 24">
<title>file-powerpoint</title>
<path d="M19.425 4.875l-2.7-2.7c-0.15-0.15-0.3-0.225-0.45-0.225h-0.45v3.825h3.825v-0.225c0-0.225-0.075-0.6-0.225-0.675z"></path>
<path d="M12.3 11.175h-1.875v3.15h1.875c0.525 0 0.975-0.15 1.275-0.375s0.45-0.6 0.45-1.125c0-0.525-0.15-0.9-0.45-1.2-0.375-0.3-0.75-0.45-1.275-0.45z"></path>
<path d="M19.575 7.35h-3.825c-0.9 0-1.5-0.525-1.5-1.5v-3.9h-9c-0.825 0-0.825 0-0.825 0.975v18.225c0 0.975 0 0.975 0.975 0.975h13.2c1.050 0 0.975 0 0.975-0.975v-13.8zM15 15.15c-0.675 0.6-1.575 0.825-2.775 0.825h-1.8v3.525h-2.1v-10.050h3.9c0.75 0 1.425 0.15 2.025 0.45s1.050 0.675 1.35 1.2 0.45 1.125 0.45 1.725c-0.075 0.975-0.375 1.725-1.050 2.325z"></path>
</svg>
