<!-- Generated by IcoMoon.io -->
<svg version="1.1" xmlns="http://www.w3.org/2000/svg" width="24" height="24" viewBox="0 0 24 24">
<title>file-invoice</title>
<path d="M19.425 4.875l-2.7-2.7c-0.15-0.15-0.3-0.225-0.45-0.225h-0.45v3.825h3.825v-0.225c0-0.225-0.075-0.6-0.225-0.675z"></path>
<path d="M19.575 7.35h-3.825c-0.9 0-1.5-0.525-1.5-1.5v-3.9h-9c-0.825 0-0.825 0-0.825 0.975v18.225c0 0.975 0 0.975 0.975 0.975h13.2c1.050 0 0.975 0 0.975-0.975v-13.8zM7.725 4.125c0-0.075 0.075-0.225 0.225-0.225h2.85c0.075 0 0.225 0.075 0.225 0.225v0.825c0 0.075-0.075 0.225-0.225 0.225h-2.85c-0.075 0-0.225-0.075-0.225-0.225v-0.825zM7.725 6.9v-0.75c0-0.075 0.075-0.225 0.225-0.225h2.85c0.075 0 0.225 0.075 0.225 0.225v0.825c0 0.075-0.075 0.225-0.225 0.225h-2.85c-0.15-0.075-0.225-0.225-0.225-0.3zM11.025 13.575c0.15 0.15 0.375 0.3 0.75 0.45s0.675 0.3 0.9 0.45c0.225 0.15 0.45 0.3 0.6 0.45s0.3 0.375 0.375 0.6c0.075 0.225 0.15 0.45 0.15 0.75 0 0.525-0.15 0.975-0.525 1.35-0.3 0.3-0.825 0.525-1.425 0.6v0.975h-0.75v-0.975c-0.675-0.075-1.125-0.3-1.5-0.675s-0.525-0.9-0.525-1.575h1.35c0 0.375 0.075 0.675 0.3 0.9 0.15 0.225 0.45 0.3 0.75 0.3s0.525-0.075 0.675-0.225c0.15-0.15 0.225-0.375 0.225-0.6s-0.075-0.45-0.225-0.6c-0.15-0.15-0.375-0.3-0.75-0.45s-0.675-0.225-0.9-0.375c-0.225-0.15-0.45-0.3-0.675-0.45-0.15-0.15-0.3-0.375-0.45-0.6-0.075-0.225-0.15-0.525-0.15-0.825 0-0.525 0.15-0.975 0.525-1.35s0.825-0.525 1.35-0.6v-1.050h0.75v1.050c0.525 0.075 0.975 0.3 1.35 0.675 0.3 0.375 0.45 0.9 0.45 1.5h-1.35c0-0.375-0.075-0.675-0.225-0.825-0.15-0.225-0.375-0.3-0.6-0.3s-0.45 0.075-0.6 0.225c-0.15 0.15-0.225 0.375-0.225 0.6 0.15 0.3 0.225 0.45 0.375 0.6z"></path>
</svg>
