<svg xmlns="http://www.w3.org/2000/svg" viewBox="0 0 1024 1024"><path d="M828.8 229.333l-115.2-115.2c-6.4-6.4-12.8-9.6-19.2-9.6h-19.2v163.2h163.2v-9.6c0-9.6-3.2-25.6-9.6-28.8zm6.4 105.6H672c-38.4 0-64-22.4-64-64v-166.4H224c-35.2 0-35.2 0-35.2 41.6v777.6c0 41.6 0 41.6 41.6 41.6h563.2c44.8 0 41.6 0 41.6-41.6v-588.8zm-352 412.8c0 19.2-16 22.4-28.8 9.6l-76.8-64h-44.8c-19.2 0-19.2 0-19.2-19.2v-92.8c0-19.2 0-19.2 19.2-19.2h44.8l76.8-67.2c12.8-12.8 28.8-6.4 28.8 9.6v243.2zm246.4-118.4s0 3.2 0 0c-3.2 99.2-67.2 182.4-160 214.4h-6.4c-6.4 0-12.8-3.2-16-9.6-3.2-9.6 3.2-16 9.6-19.2 80-25.6 134.4-99.2 137.6-185.6 0-86.4-54.4-160-137.6-185.6-9.6-3.2-12.8-12.8-9.6-19.2s9.6-9.6 16-9.6h6.4c92.8 28.8 156.8 112 160 211.2v3.2c0-3.2 0-3.2 0 0 0-3.2 0 0 0 0zm-172.8-76.8c-6.4-6.4-9.6-16-3.2-22.4s16-9.6 22.4-3.2c32 22.4 51.2 57.6 54.4 96v12.8c-3.2 38.4-22.4 73.6-54.4 96-6.4 6.4-16 3.2-22.4-3.2s-3.2-16 3.2-22.4c25.6-16 38.4-44.8 38.4-73.6 0-35.2-12.8-64-38.4-80z"/></svg>