<svg xmlns="http://www.w3.org/2000/svg" viewBox="0 0 1024 1024"><path d="M828.8 229.333l-115.2-115.2c-6.4-6.4-12.8-9.6-19.2-9.6h-19.2v163.2h163.2v-9.6c0-9.6-3.2-25.6-9.6-28.8zm6.4 105.6H672c-38.4 0-64-22.4-64-64v-166.4H224c-35.2 0-35.2 0-35.2 41.6v777.6c0 41.6 0 41.6 41.6 41.6h563.2c44.8 0 41.6 0 41.6-41.6v-588.8zm-505.6-137.6c0-3.2 3.2-9.6 9.6-9.6h121.6c3.2 0 9.6 3.2 9.6 9.6v35.2c0 3.2-3.2 9.6-9.6 9.6H339.2c-3.2 0-9.6-3.2-9.6-9.6v-35.2zm0 118.4v-32c0-3.2 3.2-9.6 9.6-9.6h121.6c3.2 0 9.6 3.2 9.6 9.6v35.2c0 3.2-3.2 9.6-9.6 9.6H339.2c-6.4-3.2-9.6-9.6-9.6-12.8zm140.8 284.8c6.4 6.4 16 12.8 32 19.2s28.8 12.8 38.4 19.2c9.6 6.4 19.2 12.8 25.6 19.2s12.8 16 16 25.6c3.2 9.6 6.4 19.2 6.4 32 0 22.4-6.4 41.6-22.4 57.6-12.8 12.8-35.2 22.4-60.8 25.6v41.6h-32v-41.6c-28.8-3.2-48-12.8-64-28.8s-22.4-38.4-22.4-67.2h57.6c0 16 3.2 28.8 12.8 38.4 6.4 9.6 19.2 12.8 32 12.8s22.4-3.2 28.8-9.6c6.4-6.4 9.6-16 9.6-25.6s-3.2-19.2-9.6-25.6c-6.4-6.4-16-12.8-32-19.2s-28.8-9.6-38.4-16l-28.8-19.2c-6.4-6.4-12.8-16-19.2-25.6-3.2-9.6-6.4-22.4-6.4-35.2 0-22.4 6.4-41.6 22.4-57.6s35.2-22.4 57.6-25.6v-44.8h32v44.8c22.4 3.2 41.6 12.8 57.6 28.8 12.8 16 19.2 38.4 19.2 64h-57.6c0-16-3.2-28.8-9.6-35.2-6.4-9.6-16-12.8-25.6-12.8s-19.2 3.2-25.6 9.6c-6.4 6.4-9.6 16-9.6 25.6 6.4 12.8 9.6 19.2 16 25.6z"/></svg>