<!-- Generated by IcoMoon.io -->
<svg version="1.1" xmlns="http://www.w3.org/2000/svg" width="24" height="24" viewBox="0 0 24 24">
<title>file-audio</title>
<path d="M19.425 4.875l-2.7-2.7c-0.15-0.15-0.3-0.225-0.45-0.225h-0.45v3.825h3.825v-0.225c0-0.225-0.075-0.6-0.225-0.675z"></path>
<path d="M19.575 7.35h-3.825c-0.9 0-1.5-0.525-1.5-1.5v-3.9h-9c-0.825 0-0.825 0-0.825 0.975v18.225c0 0.975 0 0.975 0.975 0.975h13.2c1.050 0 0.975 0 0.975-0.975 0 0 0-13.8 0-13.8zM11.325 17.025c0 0.45-0.375 0.525-0.675 0.225l-1.8-1.5h-1.050c-0.45 0-0.45 0-0.45-0.45v-2.175c0-0.45 0-0.45 0.45-0.45h1.050l1.8-1.575c0.3-0.3 0.675-0.15 0.675 0.225v5.7zM17.1 14.25c0 0 0 0.075 0 0v0c-0.075 2.325-1.575 4.275-3.75 5.025 0 0-0.075 0-0.15 0-0.15 0-0.3-0.075-0.375-0.225-0.075-0.225 0.075-0.375 0.225-0.45 1.875-0.6 3.15-2.325 3.225-4.35 0-2.025-1.275-3.75-3.225-4.35-0.225-0.075-0.3-0.3-0.225-0.45s0.225-0.225 0.375-0.225c0 0 0.075 0 0.15 0 2.175 0.675 3.675 2.625 3.75 4.95v0 0.075c0-0.075 0-0.075 0 0 0-0.075 0 0 0 0zM13.050 12.45c-0.15-0.15-0.225-0.375-0.075-0.525s0.375-0.225 0.525-0.075c0.75 0.525 1.2 1.35 1.275 2.25v0 0.3c-0.075 0.9-0.525 1.725-1.275 2.25-0.15 0.15-0.375 0.075-0.525-0.075s-0.075-0.375 0.075-0.525c0.6-0.375 0.9-1.050 0.9-1.725 0-0.825-0.3-1.5-0.9-1.875z"></path>
</svg>
