<!-- Generated by IcoMoon.io -->
<svg version="1.1" xmlns="http://www.w3.org/2000/svg" width="24" height="24" viewBox="0 0 24 24">
<title>file-export</title>
<path d="M17.25 5.55c0-0.225-0.075-0.6-0.225-0.675l-2.7-2.7c-0.15-0.15-0.3-0.225-0.45-0.225h-0.45v3.825h3.825v-0.225z"></path>
<path d="M9.975 13.5c0-0.375 0.225-0.75 0.675-0.75h6.525v-5.4h-3.825c-0.9 0-1.5-0.525-1.5-1.5v-3.975h-9c-0.825 0-0.825 0-0.825 0.975v18.225c0 0.975 0 0.975 0.975 0.975h13.2c1.050 0 0.975 0 0.975-0.975v-6.9h-6.525c-0.525 0-0.675-0.375-0.675-0.675z"></path>
<path d="M22.725 12.675l-2.7-2.55c-0.15-0.15-0.525-0.225-0.675-0.075 0 0-0.45 0.45-0.45 0.45-0.15 0.15-0.225 0.45 0.075 0.675l1.575 1.5h-3.3v1.5h3.3l-1.575 1.5c-0.225 0.225-0.225 0.45-0.075 0.675 0 0 0.45 0.45 0.45 0.45 0.225 0.225 0.525 0.15 0.675-0.075l2.7-2.55c0.15-0.15 0.375-0.375 0.375-0.75 0.075-0.375-0.15-0.6-0.375-0.75z"></path>
</svg>
