<!-- Generated by IcoMoon.io -->
<svg version="1.1" xmlns="http://www.w3.org/2000/svg" width="24" height="24" viewBox="0 0 24 24">
<title>file-code</title>
<path d="M19.425 4.875l-2.7-2.7c-0.15-0.15-0.3-0.225-0.45-0.225h-0.45v3.825h3.825v-0.225c0-0.225-0.075-0.6-0.225-0.675z"></path>
<path d="M19.575 7.35h-3.825c-0.9 0-1.5-0.525-1.5-1.5v-3.9h-9c-0.825 0-0.825 0-0.825 0.975v18.225c0 0.975 0 0.975 0.975 0.975h13.2c1.050 0 0.975 0 0.975-0.975v-13.8zM9.525 15.825c0.225 0.225 0.15 0.45-0.075 0.675s-0.45 0.3-0.675 0.075l-2.025-2.025c-0.075-0.075-0.15-0.225-0.15-0.375s0.075-0.3 0.15-0.375l2.025-1.875c0.225-0.225 0.375-0.15 0.675 0.075 0.3 0.3 0.3 0.45 0.075 0.675l-1.65 1.5 1.65 1.65zM13.95 11.325l-3 6.45c-0.075 0.15-0.3 0.3-0.45 0.3-0.075 0-0.15 0-0.225-0.075-0.225-0.15-0.375-0.45-0.225-0.675l3-6.45c0.15-0.225 0.45-0.375 0.675-0.225s0.375 0.45 0.225 0.675zM17.325 14.55l-2.025 2.025c-0.225 0.225-0.375 0.225-0.675-0.075-0.225-0.225-0.3-0.375-0.075-0.675l1.65-1.65-1.65-1.5c-0.225-0.225-0.225-0.375 0.075-0.675s0.45-0.3 0.675-0.075l2.025 1.875c0.075 0.075 0.15 0.225 0.15 0.375s-0.075 0.3-0.15 0.375z"></path>
</svg>
