<svg xmlns="http://www.w3.org/2000/svg" viewBox="0 0 1024 1024"><path d="M828.8 229.333l-115.2-115.2c-6.4-6.4-12.8-9.6-19.2-9.6h-19.2v163.2h163.2v-9.6c0-9.6-3.2-25.6-9.6-28.8zm-304 268.8h-80v134.4h80c22.4 0 41.6-6.4 54.4-16s19.2-25.6 19.2-48-6.4-38.4-19.2-51.2c-16-12.8-32-19.2-54.4-19.2zm310.4-163.2H672c-38.4 0-64-22.4-64-64v-166.4H224c-35.2 0-35.2 0-35.2 41.6v777.6c0 41.6 0 41.6 41.6 41.6h563.2c44.8 0 41.6 0 41.6-41.6v-588.8zM640 667.733c-28.8 25.6-67.2 35.2-118.4 35.2h-76.8v150.4h-89.6v-428.8h166.4c32 0 60.8 6.4 86.4 19.2s44.8 28.8 57.6 51.2 19.2 48 19.2 73.6c-3.2 41.6-16 73.6-44.8 99.2z"/></svg>