<!-- Generated by IcoMoon.io -->
<svg version="1.1" xmlns="http://www.w3.org/2000/svg" width="24" height="24" viewBox="0 0 24 24">
<title>file-upload</title>
<path d="M19.425 4.875l-2.7-2.7c-0.15-0.15-0.3-0.225-0.45-0.225h-0.525v3.825h3.825v-0.225c0-0.225-0.075-0.6-0.15-0.675z"></path>
<path d="M19.5 7.35h-3.825c-0.9 0-1.5-0.525-1.5-1.5v-3.9h-9c-0.825 0-0.825 0-0.825 0.975v18.225c0 0.975 0 0.975 0.975 0.975h13.2c1.050 0 0.975 0 0.975-0.975v-13.8zM15.375 13.2l-0.45 0.45c-0.225 0.15-0.45 0.15-0.675-0.075l-1.5-1.575c0 0 0 4.5 0 4.8 0 0.375-0.3 0.675-0.75 0.675s-0.75-0.375-0.75-0.675c0-0.3 0-4.8 0-4.8l-1.5 1.575c-0.225 0.3-0.525 0.225-0.675 0.075l-0.45-0.45c-0.15-0.15-0.075-0.525 0.075-0.675l2.55-2.7c0.15-0.15 0.375-0.375 0.75-0.375s0.6 0.225 0.75 0.375l2.55 2.7c0.225 0.15 0.3 0.45 0.075 0.675z"></path>
</svg>
