<!-- Generated by IcoMoon.io -->
<svg version="1.1" xmlns="http://www.w3.org/2000/svg" width="24" height="24" viewBox="0 0 24 24">
<title>file-certificate</title>
<path d="M21.45 5.25c0-0.15-0.075-0.525-0.225-0.675l-2.7-2.7c-0.15-0.15-0.3-0.225-0.45-0.225h-0.45v3.825h3.825v-0.225z"></path>
<path d="M21.45 20.85v-13.95h-3.825c-0.9 0-1.35-0.375-1.35-1.35v-3.9h-9.15c-0.825 0-0.825 0-0.825 0.975v4.35c0.075 0 0.15 0 0.3 0 0.45 0 0.825 0.15 1.050 0.45 0.45 0.675 1.5 1.125 2.25 0.975 0.375 0 0.75 0.15 1.050 0.45s0.45 0.675 0.45 1.050c-0.15 0.825 0.225 1.875 0.9 2.325 0.225 0.225 0.375 0.6 0.375 1.050s-0.15 0.825-0.45 1.050c-0.675 0.45-1.125 1.5-0.975 2.25 0 0.375-0.15 0.75-0.45 1.050-0.15 0.075-0.225 0.225-0.375 0.3v3.975h10.050c1.050-0.075 0.975-0.075 0.975-1.050z"></path>
<path d="M10.95 14.025c0.225-0.15 0.3-0.45 0.3-0.825 0-0.3-0.075-0.6-0.3-0.825-0.525-0.375-0.825-1.125-0.675-1.725 0-0.225-0.075-0.525-0.375-0.75-0.225-0.225-0.525-0.375-0.75-0.375-0.6 0.15-1.425-0.225-1.725-0.75-0.15-0.225-0.45-0.3-0.825-0.3-0.3 0-0.6 0.075-0.825 0.3-0.375 0.525-1.125 0.825-1.725 0.675-0.225 0-0.525 0.075-0.75 0.375-0.225 0.225-0.375 0.525-0.375 0.75 0.15 0.6-0.225 1.425-0.75 1.725-0.225 0.15-0.3 0.45-0.3 0.825 0 0.3 0.075 0.6 0.3 0.825 0.45 0.3 0.75 1.050 0.6 1.65 0 0.225 0.075 0.525 0.375 0.75 0.225 0.225 0.525 0.375 0.75 0.375 0 0 0 0 0 0s0 0 0 0v6.975l2.55-1.8 2.55 1.8v-6.9c0.225 0 0.525-0.15 0.75-0.3 0.225-0.225 0.375-0.525 0.375-0.75-0.075-0.6 0.3-1.425 0.825-1.725zM6.45 15.3c-1.2 0-2.175-0.975-2.175-2.175s0.975-2.175 2.175-2.175 2.175 0.975 2.175 2.175-0.975 2.175-2.175 2.175z"></path>
</svg>
