<svg xmlns="http://www.w3.org/2000/svg" viewBox="0 0 1024 1024"><path d="M915.2 245.333c0-6.4-3.2-22.4-9.6-28.8l-115.2-115.2c-6.4-6.4-12.8-9.6-19.2-9.6H752v163.2h163.2v-9.6zm0 665.6v-595.2H752c-38.4 0-57.6-16-57.6-57.6v-166.4H304c-35.2 0-35.2 0-35.2 41.6v185.6h12.8c19.2 0 35.2 6.4 44.8 19.2 19.2 28.8 64 48 96 41.6 16 0 32 6.4 44.8 19.2s19.2 28.8 19.2 44.8c-6.4 35.2 9.6 80 38.4 99.2 9.6 9.6 16 25.6 16 44.8s-6.4 35.2-19.2 44.8c-28.8 19.2-48 64-41.6 96 0 16-6.4 32-19.2 44.8-6.4 3.2-9.6 9.6-16 12.8v169.6h428.8c44.8-3.2 41.6-3.2 41.6-44.8zm-448-291.2c9.6-6.4 12.8-19.2 12.8-35.2 0-12.8-3.2-25.6-12.8-35.2-22.4-16-35.2-48-28.8-73.6 0-9.6-3.2-22.4-16-32-9.6-9.6-22.4-16-32-16-25.6 6.4-60.8-9.6-73.6-32-6.4-9.6-19.2-12.8-35.2-12.8-12.8 0-25.6 3.2-35.2 12.8-16 22.4-48 35.2-73.6 28.8-9.6 0-22.4 3.2-32 16-9.6 9.6-16 22.4-16 32 6.4 25.6-9.6 60.8-32 73.6-9.6 6.4-12.8 19.2-12.8 35.2 0 12.8 3.2 25.6 12.8 35.2 19.2 12.8 32 44.8 25.6 70.4 0 9.6 3.2 22.4 16 32 9.6 9.6 22.4 16 32 16v297.6l108.8-76.8 108.8 76.8v-294.4c9.6 0 22.4-6.4 32-12.8 9.6-9.6 16-22.4 16-32-3.2-25.6 12.8-60.8 35.2-73.6zm-192 54.4c-51.2 0-92.8-41.6-92.8-92.8s41.6-92.8 92.8-92.8 92.8 41.6 92.8 92.8-41.6 92.8-92.8 92.8z"/></svg>