<svg xmlns="http://www.w3.org/2000/svg" viewBox="0 0 1024 1024"><path d="M828.8 229.333l-115.2-115.2c-6.4-6.4-12.8-9.6-19.2-9.6h-19.2v163.2h163.2v-9.6c0-9.6-3.2-25.6-9.6-28.8zm6.4 99.2H672c-38.4 0-57.6-16-57.6-57.6v-166.4H224c-35.2 0-35.2 0-35.2 41.6v777.6c0 41.6 0 41.6 41.6 41.6h563.2c44.8 0 41.6 0 41.6-41.6v-595.2zm-153.6 224l-192 211.2c-6.4 9.6-19.2 12.8-28.8 12.8s-22.4-3.2-28.8-12.8l-92.8-96c-16-16-16-32 6.4-51.2 16-16 32-25.6 51.2-3.2l67.2 67.2 166.4-179.2c16-16 28.8-16 51.2 6.4 12.8 16 12.8 28.8 0 44.8z"/></svg>