<!-- Generated by IcoMoon.io -->
<svg version="1.1" xmlns="http://www.w3.org/2000/svg" width="24" height="24" viewBox="0 0 24 24">
<title>file-zip</title>
<path d="M9.975 13.875c-0.675 0-1.125 0.525-1.125 1.2s0.525 1.2 1.125 1.2c0.675 0 1.125-0.525 1.125-1.2s-0.525-1.2-1.125-1.2z"></path>
<path d="M19.65 5.55c0-0.15-0.075-0.525-0.225-0.675l-2.7-2.7c-0.15-0.15-0.3-0.225-0.45-0.225h-0.45v3.825h3.825v-0.225z"></path>
<path d="M19.575 21.15v-13.95h-3.825c-0.9 0-1.35-0.375-1.35-1.35v-3.9h-9.15c-0.825 0-0.825 0-0.825 0.975v18.225c0 0.975 0 0.975 0.975 0.975h13.2c1.050-0.075 0.975-0.075 0.975-0.975zM9.825 6.975v-0.9h1.275v0.9h-1.275zM11.1 8.55v0.9h-1.275v-0.9h1.275zM9.825 4.425v-0.9h1.275v0.9c0 0-1.275 0-1.275 0zM8.55 2.25h1.275v0.9h-1.275v-0.9zM8.55 4.8h1.275v0.9h-1.275v-0.9zM8.55 7.275h1.275v0.9h-1.275v-0.9zM8.55 9.825h1.275v0.9h-1.275v-0.9zM9.975 17.175c-1.425 0-1.95-1.050-1.95-2.025 0-0.9 0.825-3.975 0.825-3.975h2.25c0 0 0.825 3.075 0.825 3.975s-0.525 2.025-1.95 2.025z"></path>
</svg>
