<!-- Generated by IcoMoon.io -->
<svg version="1.1" xmlns="http://www.w3.org/2000/svg" width="24" height="24" viewBox="0 0 24 24">
<title>file-medical</title>
<path d="M19.425 4.875l-2.7-2.7c-0.15-0.15-0.3-0.225-0.45-0.225h-0.45v3.825h3.825v-0.225c0-0.225-0.075-0.6-0.225-0.675z"></path>
<path d="M19.575 7.35h-3.825c-0.9 0-1.5-0.525-1.5-1.5v-3.9h-9c-0.825 0-0.825 0-0.825 0.975v18.225c0 0.975 0 0.975 0.975 0.975h13.2c1.050 0 0.975 0 0.975-0.975v-13.8zM15.825 14.7c0 0.075 0 0.15-0.075 0.225s-0.15 0.075-0.225 0.075h-2.25v2.25c0 0.075 0 0.15-0.075 0.225s-0.15 0.075-0.225 0.075h-1.95c-0.075 0-0.15 0-0.225-0.075s-0.075-0.15-0.075-0.225v-2.25h-2.25c-0.075 0-0.15 0-0.225-0.075s-0.075-0.15-0.075-0.225v-1.95c0-0.075 0-0.15 0.075-0.225s0.15-0.075 0.225-0.075h2.25v-2.25c0-0.075 0-0.15 0.075-0.225s0.15-0.075 0.225-0.075h1.95c0.075 0 0.15 0 0.225 0.075s0.075 0.15 0.075 0.225v2.25h2.25c0.075 0 0.15 0 0.225 0.075s0.075 0.15 0.075 0.225v1.95z"></path>
</svg>
