<!-- Generated by IcoMoon.io -->
<svg version="1.1" xmlns="http://www.w3.org/2000/svg" width="24" height="24" viewBox="0 0 24 24">
<title>file-pdf</title>
<path d="M19.425 4.875l-2.7-2.7c-0.15-0.15-0.3-0.225-0.45-0.225h-0.45v3.825h3.825v-0.225c0-0.225-0.075-0.6-0.225-0.675z"></path>
<path d="M11.85 13.050c-0.3 0.825-0.675 1.8-1.2 2.625 0.75-0.3 1.575-0.675 2.625-0.9-0.525-0.375-1.050-0.975-1.425-1.725z"></path>
<path d="M11.85 9.225c-0.15 0-0.15 1.275 0.075 1.95 0.225-0.45 0.3-1.95-0.075-1.95z"></path>
<path d="M7.95 18.225c0 0 0.525-0.225 1.425-1.65-0.225 0.225-1.125 0.975-1.425 1.65z"></path>
<path d="M15.15 15.075c1.5 0.675 1.8 0.375 1.8 0.375 0.15-0.15-0.15-0.525-1.8-0.375z"></path>
<path d="M19.575 7.35h-3.825c-0.9 0-1.5-0.525-1.5-1.5v-3.9h-9c-0.825 0-0.825 0-0.825 0.975v18.225c0 0.975 0 0.975 0.975 0.975h13.2c1.050 0 0.975 0 0.975-0.975v-13.8zM16.5 16.35c-0.675 0-1.725-0.3-2.625-0.825-1.050 0.15-2.175 0.6-3.225 0.975-2.4 4.125-3.75 2.25-3.6 1.5 0.225-0.975 1.5-1.725 2.4-2.175 0.525-0.9 1.2-2.4 1.65-3.525-0.375-1.35-0.525-2.4-0.3-3.15 0.225-0.825 1.8-0.975 2.025 0.3 0.225 0.75-0.075 1.875-0.225 2.625 0.375 0.975 0.9 1.725 1.725 2.175 0.825-0.075 2.475-0.225 3.075 0.3 0.45 0.525 0.3 1.8-0.9 1.8z"></path>
</svg>
