<!-- Generated by IcoMoon.io -->
<svg version="1.1" xmlns="http://www.w3.org/2000/svg" width="24" height="24" viewBox="0 0 24 24">
<title>file-check</title>
<path d="M19.425 4.875l-2.7-2.7c-0.15-0.15-0.3-0.225-0.45-0.225h-0.45v3.825h3.825v-0.225c0-0.225-0.075-0.6-0.225-0.675z"></path>
<path d="M19.575 7.2h-3.825c-0.9 0-1.35-0.375-1.35-1.35v-3.9h-9.15c-0.825 0-0.825 0-0.825 0.975v18.225c0 0.975 0 0.975 0.975 0.975h13.2c1.050 0 0.975 0 0.975-0.975v-13.95zM15.975 12.45l-4.5 4.95c-0.15 0.225-0.45 0.3-0.675 0.3s-0.525-0.075-0.675-0.3l-2.175-2.25c-0.375-0.375-0.375-0.75 0.15-1.2 0.375-0.375 0.75-0.6 1.2-0.075l1.575 1.575 3.9-4.2c0.375-0.375 0.675-0.375 1.2 0.15 0.3 0.375 0.3 0.675 0 1.050z"></path>
</svg>
