<!-- Generated by IcoMoon.io -->
<svg version="1.1" xmlns="http://www.w3.org/2000/svg" width="24" height="24" viewBox="0 0 24 24">
<title>file-prescription</title>
<path d="M19.35 4.875l-2.7-2.7c-0.15-0.15-0.3-0.225-0.45-0.225h-0.45v3.825h3.825v-0.225c0-0.225-0.075-0.6-0.225-0.675z"></path>
<path d="M11.7 9.45c-0.225-0.225-0.6-0.375-1.050-0.375h-1.425v2.625h1.425c0.45 0 0.825-0.15 1.050-0.375s0.375-0.525 0.375-0.975c0-0.375-0.15-0.675-0.375-0.9z"></path>
<path d="M19.5 7.35h-3.825c-0.9 0-1.5-0.525-1.5-1.5v-3.9h-9c-0.825 0-0.825 0-0.825 0.975v18.225c0 0.975 0 0.975 0.975 0.975h13.2c1.050 0 0.975 0 0.975-0.975v-13.8zM14.7 19.8l-1.725-2.925-1.725 2.925h-1.5l2.475-3.975-1.8-2.925h-1.2v3.075h-1.35v-8.025h2.775c0.9 0 1.65 0.225 2.1 0.6s0.75 0.975 0.75 1.8c0 0.525-0.15 0.975-0.375 1.35s-0.6 0.6-1.050 0.825l-0.225 0.075 1.275 2.175 1.65-2.85h1.575l-2.4 3.9 2.475 3.975h-1.725z"></path>
</svg>
