<!-- Generated by IcoMoon.io -->
<svg version="1.1" xmlns="http://www.w3.org/2000/svg" width="24" height="24" viewBox="0 0 24 24">
<title>file-word</title>
<path d="M19.35 4.875l-2.7-2.7c-0.15-0.15-0.3-0.225-0.45-0.225h-0.45v3.825h3.825v-0.225c0-0.225-0.075-0.6-0.225-0.675z"></path>
<path d="M19.5 7.35h-3.825c-0.9 0-1.5-0.525-1.5-1.5v-3.9h-9c-0.825 0-0.825 0-0.825 0.975v18.225c0 0.975 0 0.975 0.975 0.975h13.2c1.050 0 0.975 0 0.975-0.975v-13.8zM15.75 19.425h-2.1l-1.65-6.675-1.65 6.75h-2.1l-2.25-10.050h2.1l1.35 7.125 1.65-7.125h1.725l1.65 7.125 1.35-7.125h2.1l-2.175 9.975z"></path>
</svg>
