<!-- Generated by IcoMoon.io -->
<svg version="1.1" xmlns="http://www.w3.org/2000/svg" width="24" height="24" viewBox="0 0 24 24">
<title>file-excel</title>
<path d="M19.425 4.875l-2.7-2.7c-0.15-0.15-0.3-0.225-0.45-0.225h-0.45v3.825h3.825v-0.225c0-0.225-0.075-0.6-0.225-0.675z"></path>
<path d="M19.575 7.35h-3.825c-0.9 0-1.5-0.525-1.5-1.5v-3.9h-9c-0.825 0-0.825 0-0.825 0.975v18.225c0 0.975 0 0.975 0.975 0.975h13.2c1.050 0 0.975 0 0.975-0.975v-13.8zM13.95 19.575l-1.95-3.525-1.95 3.525h-2.4l3-5.1-2.925-4.95h2.4l1.875 3.45 1.875-3.45h2.4l-2.925 4.95 3 5.1h-2.4z"></path>
</svg>
