<svg xmlns="http://www.w3.org/2000/svg" viewBox="0 0 1024 1024"><path d="M736 258.133c0-9.6-3.2-25.6-9.6-28.8l-115.2-115.2c-6.4-6.4-12.8-9.6-19.2-9.6h-19.2v163.2H736v-9.6zm-310.4 339.2c0-16 9.6-32 28.8-32h278.4v-230.4H569.6c-38.4 0-64-22.4-64-64v-169.6h-384c-35.2 0-35.2 0-35.2 41.6v777.6c0 41.6 0 41.6 41.6 41.6h563.2c44.8 0 41.6 0 41.6-41.6v-294.4H454.4c-22.4 0-28.8-16-28.8-28.8zm544-35.2l-115.2-108.8c-6.4-6.4-22.4-9.6-28.8-3.2l-19.2 19.2c-6.4 6.4-9.6 19.2 3.2 28.8l67.2 64H736v64h140.8l-67.2 64c-9.6 9.6-9.6 19.2-3.2 28.8l19.2 19.2c9.6 9.6 22.4 6.4 28.8-3.2l115.2-108.8c6.4-6.4 16-16 16-32 3.2-16-6.4-25.6-16-32z"/></svg>