<svg xmlns="http://www.w3.org/2000/svg" viewBox="0 0 1024 1024"><path d="M425.6 613.333c-28.8 0-48 22.4-48 51.2s22.4 51.2 48 51.2c28.8 0 48-22.4 48-51.2s-22.4-51.2-48-51.2zm412.8-355.2c0-6.4-3.2-22.4-9.6-28.8l-115.2-115.2c-6.4-6.4-12.8-9.6-19.2-9.6h-19.2v163.2h163.2v-9.6zm-3.2 665.6v-595.2H672c-38.4 0-57.6-16-57.6-57.6v-166.4H224c-35.2 0-35.2 0-35.2 41.6v777.6c0 41.6 0 41.6 41.6 41.6h563.2c44.8-3.2 41.6-3.2 41.6-41.6zm-416-604.8v-38.4h54.4v38.4h-54.4zm54.4 67.2v38.4h-54.4v-38.4h54.4zm-54.4-176v-38.4h54.4v38.4h-54.4zm-54.4-92.8h54.4v38.4h-54.4v-38.4zm0 108.8h54.4v38.4h-54.4v-38.4zm0 105.6h54.4v38.4h-54.4v-38.4zm0 108.8h54.4v38.4h-54.4v-38.4zm60.8 313.6c-60.8 0-83.2-44.8-83.2-86.4 0-38.4 35.2-169.6 35.2-169.6h96s35.2 131.2 35.2 169.6-22.4 86.4-83.2 86.4z"/></svg>