<svg xmlns="http://www.w3.org/2000/svg" viewBox="0 0 1024 1024"><path d="M828.8 229.333l-115.2-115.2c-6.4-6.4-12.8-9.6-19.2-9.6h-19.2v163.2h163.2v-9.6c0-9.6-3.2-25.6-9.6-28.8zm6.4 105.6H672c-38.4 0-64-22.4-64-64v-166.4H224c-35.2 0-35.2 0-35.2 41.6v777.6c0 41.6 0 41.6 41.6 41.6h563.2c44.8 0 41.6 0 41.6-41.6v-588.8zm-124.8 294.4v99.2c0 12.8-9.6 16-28.8 6.4-12.8-6.4-99.2-54.4-118.4-67.2v25.6c0 32-25.6 54.4-54.4 54.4h-128c-32 0-54.4-25.6-54.4-54.4v-128c0-32 25.6-54.4 54.4-54.4h128c32 0 54.4 25.6 54.4 54.4v28.8c19.2-12.8 102.4-57.6 118.4-67.2s28.8-12.8 28.8 6.4v96z"/></svg>