<svg xmlns="http://www.w3.org/2000/svg" viewBox="0 0 1024 1024"><path d="M917.994 69.345H106.012c-32.016 0-58 25.984-58 58v811.982c0 32.016 25.984 58 58 58h811.982c32.016 0 58-25.984 58-58V127.345c0-32.016-25.984-58-58-58zM222.006 591.333v116h-116v-116h116zm-116-116v-116h116v116h-116zm174 174h463.988v289.994H280.006V649.333zm463.988-58H280.006V127.345h463.988v463.988zm58 0h116v116h-116v-116zm0-116v-116h116v116h-116zm0-231.994v-116h116v116h-116zm-579.988 0h-116v-116h116v116zm-116 579.988h116v116h-116v-116zm695.988 0h116v116h-116v-116z"/></svg>