<!-- Generated by IcoMoon.io -->
<svg version="1.1" xmlns="http://www.w3.org/2000/svg" width="24" height="24" viewBox="0 0 24 24">
<title>film</title>
<path d="M21.515 1.125h-19.031c-0.75 0-1.359 0.609-1.359 1.359v19.031c0 0.75 0.609 1.359 1.359 1.359h19.031c0.75 0 1.359-0.609 1.359-1.359v-19.031c0-0.75-0.609-1.359-1.359-1.359zM5.203 13.359v2.719h-2.719v-2.719h2.719zM2.485 10.641v-2.719h2.719v2.719h-2.719zM6.563 14.719h10.875v6.797h-10.875v-6.797zM17.437 13.359h-10.875v-10.875h10.875v10.875zM18.797 13.359h2.719v2.719h-2.719v-2.719zM18.797 10.641v-2.719h2.719v2.719h-2.719zM18.797 5.203v-2.719h2.719v2.719h-2.719zM5.203 5.203h-2.719v-2.719h2.719v2.719zM2.485 18.797h2.719v2.719h-2.719v-2.719zM18.797 18.797h2.719v2.719h-2.719v-2.719z"></path>
</svg>
