<!-- Generated by IcoMoon.io -->
<svg version="1.1" xmlns="http://www.w3.org/2000/svg" width="24" height="24" viewBox="0 0 24 24">
<title>filter</title>
<path d="M14.1 0c-6.45-0.3-12.75 1.050-13.95 3.15-0.15 0.45-0.15 1.050 0 1.5l8.55 10.65c0.3 0.45 0.6 1.050 0.6 1.65v6.6c0 0.3 0.3 0.6 0.6 0.6 0.15 0 0.3 0 0.3-0.15l3.9-2.7c0.3-0.3 0.6-0.6 0.6-1.050v-3.45c0-0.6 0.15-1.2 0.6-1.65l8.55-10.65c1.2-1.95-3.15-4.050-9.75-4.5zM12 6.3c-6.3 0-10.2-1.5-10.2-2.55s3.9-2.55 10.2-2.55c6.3 0 10.2 1.5 10.2 2.55s-3.9 2.55-10.2 2.55z"></path>
</svg>
