<!-- Generated by IcoMoon.io -->
<svg version="1.1" xmlns="http://www.w3.org/2000/svg" width="24" height="24" viewBox="0 0 24 24">
<title>fingerprint</title>
<path d="M17.925 13.050c-1.575-2.7-3.6-3.375-5.025-3.45-1.875-0.15-3.975 0.675-5.1 2.025-0.225 0.225-0.15 0.6 0.075 0.825s0.6 0.15 0.825-0.075c0.75-0.9 2.325-1.8 4.050-1.65 1.125 0.075 2.85 0.675 4.125 2.925 0.075 0.225 0.3 0.3 0.525 0.3 0.075 0 0.225 0 0.3-0.075 0.3-0.15 0.375-0.525 0.225-0.825z"></path>
<path d="M20.55 13.425c-0.675-2.85-2.925-5.1-6.075-5.925-2.775-0.75-4.875-0.375-6.975 1.275-2.025 1.65-2.7 3.375-1.875 4.8 0.375 0.675 0.975 1.050 1.725 1.2 0.975 0.15 2.1-0.15 3.075-0.9 0.75-0.6 1.425-0.9 1.95-0.9 0.75-0.075 1.65 0.375 2.325 1.125 0.9 0.975 1.275 1.95 1.275 1.95 0.075 0.225 0.3 0.375 0.525 0.375 0.075 0 0.15 0 0.225 0 0.3-0.075 0.45-0.45 0.375-0.75 0-0.075-0.45-1.2-1.575-2.4-0.675-0.75-1.95-1.575-3.3-1.5-0.75 0.075-1.575 0.45-2.55 1.2-0.75 0.525-1.5 0.825-2.175 0.675-0.375-0.075-0.675-0.3-0.9-0.6-0.75-1.2 0.9-2.7 1.575-3.3 1.8-1.425 3.525-1.725 5.925-1.125 1.275 0.375 4.35 1.5 5.175 5.025 0.075 0.3 0.375 0.525 0.75 0.45 0.375 0 0.6-0.375 0.525-0.675z"></path>
<path d="M5.925 8.325c0.15 0 0.3-0.075 0.375-0.15 0 0 2.025-1.8 4.425-2.175 0.3-0.075 0.525-0.375 0.525-0.675-0.075-0.3-0.375-0.525-0.675-0.525-2.775 0.375-4.95 2.4-5.025 2.475-0.3 0.225-0.3 0.6-0.075 0.825 0.15 0.15 0.3 0.225 0.45 0.225z"></path>
<path d="M12.225 5.25c-0.075 0.3 0.15 0.6 0.45 0.675 2.4 0.45 4.65 1.725 6.375 3.525 0.15 0.15 0.3 0.225 0.45 0.225s0.3-0.075 0.375-0.15c0.225-0.225 0.225-0.6 0-0.825-1.8-1.95-4.35-3.375-6.975-3.825-0.3-0.225-0.6 0-0.675 0.375z"></path>
<path d="M14.85 17.925c0.375-0.9 0.375-1.875-0.15-2.475-1.125-1.35-2.625-1.5-4.425-0.525-1.35 0.75-2.85 0.975-4.125 0.6-0.9-0.225-1.5-1.425-1.725-1.875-0.075-0.3-0.45-0.45-0.75-0.375s-0.45 0.45-0.375 0.75c0 0.075 0.825 2.175 2.475 2.625 1.575 0.45 3.45 0.15 5.025-0.75 1.65-0.9 2.4-0.45 2.925 0.225 0.15 0.225 0.3 0.675 0 1.275-0.225 0.525-1.35 2.325-5.775 2.625-0.3 0-0.6 0.3-0.525 0.6 0 0.3 0.3 0.525 0.6 0.525 0 0 0 0 0.075 0 4.875-0.225 6.375-2.325 6.75-3.225z"></path>
<path d="M12.6 16.725c-0.225-0.225-0.6-0.3-0.825-0.075-0.525 0.45-3.75 2.025-6.525 0.9-0.3-0.15-0.675 0-0.75 0.3-0.15 0.3 0 0.675 0.3 0.75 0.9 0.375 1.725 0.525 2.625 0.525 2.4 0 4.575-1.125 5.1-1.575 0.3-0.225 0.3-0.6 0.075-0.825z"></path>
<path d="M16.875 16.95c-0.3 0-0.6 0.225-0.675 0.525-0.075 0.675-0.675 2.1-2.475 3.075-0.3 0.15-0.375 0.525-0.225 0.825 0.075 0.225 0.3 0.3 0.525 0.3 0.075 0 0.15 0 0.3-0.075 2.25-1.2 3-3.075 3.075-3.975 0-0.375-0.225-0.6-0.525-0.675z"></path>
<path d="M18.3 14.775c-0.3 0.075-0.525 0.375-0.45 0.75 0 0 0.375 1.35 0.15 2.625-0.075 0.3 0.15 0.6 0.525 0.675 0 0 0.075 0 0.075 0 0.3 0 0.525-0.225 0.6-0.525 0.225-1.5-0.15-3-0.15-3.075-0.075-0.3-0.45-0.525-0.75-0.45z"></path>
<path d="M3.975 12.375c0.3 0 0.6-0.3 0.6-0.6 0-1.2 0.45-1.725 0.525-1.725 0.225-0.225 0.225-0.6 0-0.825s-0.6-0.225-0.825 0c-0.075 0.075-0.825 0.9-0.825 2.625-0.075 0.225 0.225 0.525 0.525 0.525z"></path>
<path d="M6.075 5.4c0.15 0 0.225-0.075 0.375-0.15 1.875-1.425 5.775-3.3 10.65-0.225 0.3 0.15 0.675 0.075 0.825-0.15 0.15-0.3 0.075-0.675-0.15-0.825-4.050-2.55-8.475-2.4-12.075 0.3-0.225 0.15-0.3 0.525-0.075 0.825 0.075 0.15 0.3 0.225 0.45 0.225z"></path>
</svg>
