<!-- Generated by IcoMoon.io -->
<svg version="1.1" xmlns="http://www.w3.org/2000/svg" width="24" height="24" viewBox="0 0 24 24">
<title>fingerprint-check</title>
<path d="M5.925 8.325c0.15 0 0.3-0.075 0.375-0.15 0 0 1.95-1.95 4.425-2.25 0.3-0.075 0.525-0.3 0.525-0.6s-0.375-0.45-0.675-0.45c-2.775 0.375-4.875 2.325-4.95 2.4-0.3 0.225-0.375 0.6-0.15 0.825 0.15 0.15 0.3 0.225 0.45 0.225z"></path>
<path d="M18.3 14.775c-0.3 0.075-0.525 0.375-0.45 0.75 0 0 0.3 1.35 0.15 2.625-0.075 0.3 0.15 0.6 0.525 0.675h0.075c0.3 0 0.525-0.225 0.6-0.525 0.225-1.5-0.15-3-0.15-3.075-0.075-0.3-0.375-0.525-0.75-0.45z"></path>
<path d="M3.9 12.375c0.075 0 0.075 0 0 0 0.375 0 0.6-0.225 0.6-0.6 0.075-1.2 0.525-1.8 0.525-1.8 0.225-0.225 0.225-0.6-0.075-0.825-0.225-0.225-0.6-0.225-0.825 0-0.075 0.075-0.825 0.9-0.825 2.55 0.075 0.375 0.3 0.6 0.6 0.675z"></path>
<path d="M6.075 5.4c0.15 0 0.225-0.075 0.375-0.15 1.8-1.35 5.4-3.15 10.050-0.6 0.225 0.075 0.75 0.3 0.975 0 0.375-0.45-0.15-0.825-0.3-0.975-3.975-2.1-8.025-1.875-11.475 0.75-0.225 0.225-0.3 0.45-0.075 0.75 0.075 0.15 0.3 0.225 0.45 0.225z"></path>
<path d="M15.825 6.45c0.3-0.375 0-0.6-0.225-0.75-0.525-0.375-1.725-0.9-2.7-0.9-0.45 0-0.6 0.15-0.675 0.45s0.15 0.6 0.45 0.6c0.975 0.075 1.425 0.225 2.1 0.675 0.225 0.075 0.825 0.3 1.050-0.075z"></path>
<path d="M9.675 15.3c-0.075-0.15-0.225-0.675-0.675-0.975s-0.675 0.15-0.6 0.525c0.075 0.225 0.15 0.525 0.225 0.75 0.15 0.45 0.3 0.975 0.3 1.5 0 1.125-1.2 2.7-1.575 3.225-0.225 0.225-0.15 0.6 0.075 0.75 0.075 0.075 0.225 0.15 0.375 0.15s0.3-0.075 0.375-0.15 1.8-2.1 1.875-3.9c0-0.75-0.225-1.35-0.375-1.875z"></path>
<path d="M15.225 13.725c-0.375 0.225-0.225 0.825-0.15 0.975 0.45 0.75 0.525 1.35 0.525 1.35 0.075 0.225 0.375 0.525 0.675 0.45 0.375-0.075 0.375-0.45 0.375-0.75 0 0-0.075-0.75-0.675-1.8-0.075-0.225-0.375-0.525-0.75-0.225z"></path>
<path d="M13.65 15.525c-0.3 0.3-0.15 0.75-0.15 0.825 0.45 1.575 0.15 2.775-0.9 4.95-0.15 0.3 0 0.6 0.225 0.75 0.075 0 0.15 0.075 0.225 0.075 0.225 0 0.375-0.15 0.525-0.3 1.2-2.55 1.575-4.050 0.825-6 0 0 0-0.075 0-0.075-0.075-0.3-0.45-0.525-0.75-0.225z"></path>
<path d="M20.475 13.425c-0.3-1.125-0.75-2.025-1.275-2.775-0.375-0.45-0.675-0.6-0.975-0.3s-0.15 0.825 0.075 1.2c0.45 0.6 0.75 1.275 0.975 2.175 0.075 0.3 0.375 0.525 0.75 0.45s0.525-0.45 0.45-0.75z"></path>
<path d="M11.85 16.2c-0.45 0-0.6 0.45-0.6 0.75 0 0.45 0 0.975-0.075 1.5-0.3 1.575-1.725 3.3-1.8 3.3-0.225 0.225-0.15 0.6 0.075 0.75 0.075 0.075 0.225 0.15 0.375 0.15s0.3-0.075 0.45-0.225c0.075-0.075 1.575-1.95 2.025-3.825 0.075-0.6 0.15-1.2 0.075-1.8 0-0.225-0.075-0.6-0.525-0.6z"></path>
<path d="M17.925 13.050c-0.15-0.3-0.3-0.525-0.45-0.675-0.15-0.225-0.525-0.45-0.825-0.15s-0.3 0.6-0.075 0.9c0.15 0.15 0.225 0.375 0.375 0.525s0.3 0.3 0.525 0.3c0.075 0 0.225 0 0.3-0.075 0.225-0.225 0.3-0.6 0.15-0.825z"></path>
<path d="M9.675 8.175c0.225 0.45 0.6 0.225 1.050 0.075 0.975-0.3 1.725-0.375 2.7 0 0.45 0.15 0.675 0.075 0.9-0.15 0.15-0.225 0-0.525-0.525-0.825-1.050-0.525-2.625-0.375-3.6 0.075-0.375 0.15-0.75 0.45-0.525 0.825z"></path>
<path d="M16.575 17.175c-0.3 0-0.525 0.225-0.525 0.525 0 0-0.075 1.8-0.675 2.85-0.15 0.225-0.075 0.6 0.225 0.75 0.075 0.075 0.15 0.075 0.225 0.075 0.225 0 0.375-0.075 0.45-0.3 0.675-1.275 0.75-3.225 0.75-3.3 0.075-0.3-0.15-0.6-0.45-0.6z"></path>
<path d="M7.5 17.1c0 0-1.2-2.325-0.75-4.95 0.075-0.3-0.3-0.525-0.6-0.525s-0.45 0.3-0.525 0.6c-0.45 3.075 0.9 5.4 0.975 5.475 0.075 0.15 0.3 0.225 0.45 0.225 0.075 0 0.225 0 0.3-0.075 0.225-0.15 0.3-0.45 0.15-0.75z"></path>
<path d="M4.2 13.95c0-0.3-0.225-0.525-0.525-0.6-0.3 0-0.525 0.225-0.6 0.525 0 0.15-0.15 3.525 2.1 6.525 0.075 0.15 0.3 0.225 0.45 0.225s0.225 0 0.3-0.075c0.225-0.15 0.3-0.525 0.075-0.75-1.95-2.7-1.8-5.85-1.8-5.85z"></path>
<path d="M11.7 9.3c-0.225 0.15-0.375 0.225-0.375 0.45v0.15c0 0.225 0.225 0.45 0.45 0.45h0.375c0.225 0 0.45-0.225 0.45-0.45v-0.15c0-0.225-0.15-0.375-0.375-0.45-0.15-0.075-0.45-0.075-0.525 0z"></path>
<path d="M20.25 8.775c-0.225-0.075-0.375-0.15-0.525 0l-0.15 0.075c-0.15 0.15-0.225 0.45-0.15 0.6l0.15 0.225c0.075 0.15 0.375 0.15 0.6 0.075l0.15-0.075c0.15-0.15 0.225-0.3 0.15-0.525 0-0.15-0.15-0.375-0.225-0.375z"></path>
<path d="M11.925 11.85c0 0-2.775-2.775-2.85-2.85-0.225-0.3-0.675-0.375-1.050-0.075-0.15 0.15-0.825 0.75-0.9 0.9-0.375 0.45-0.375 0.75-0.075 1.125 0.075 0.075 3.45 3.525 3.75 3.825s0.75 0.45 1.2 0.45c0.3 0 0.825-0.3 1.2-0.675 0.075-0.225 7.125-7.8 7.125-7.8 0.3-0.375 0.225-0.9 0.075-1.2-0.075-0.15-0.675-0.6-0.75-0.675-0.45-0.375-0.9-0.375-1.2 0-0.225 0.3-6.525 6.975-6.525 6.975z"></path>
</svg>
