<svg xmlns="http://www.w3.org/2000/svg" viewBox="0 0 1024 1024"><path d="M252.8 376.533c6.4 0 12.8-3.2 16-6.4 0 0 83.2-83.2 188.8-96 12.8-3.2 22.4-12.8 22.4-25.6s-16-19.2-28.8-19.2c-118.4 16-208 99.2-211.2 102.4-12.8 9.6-16 25.6-6.4 35.2 6.4 6.4 12.8 9.6 19.2 9.6zm528 275.2c-12.8 3.2-22.4 16-19.2 32 0 0 12.8 57.6 6.4 112-3.2 12.8 6.4 25.6 22.4 28.8h3.2c12.8 0 22.4-9.6 25.6-22.4 9.6-64-6.4-128-6.4-131.2-3.2-12.8-16-22.4-32-19.2zm-614.4-102.4c3.2 0 3.2 0 0 0 16 0 25.6-9.6 25.6-25.6 3.2-51.2 22.4-76.8 22.4-76.8 9.6-9.6 9.6-25.6-3.2-35.2-9.6-9.6-25.6-9.6-35.2 0-3.2 3.2-35.2 38.4-35.2 108.8 3.2 16 12.8 25.6 25.6 28.8zm92.8-297.6c6.4 0 9.6-3.2 16-6.4 76.8-57.6 230.4-134.4 428.8-25.6 9.6 3.2 32 12.8 41.6 0 16-19.2-6.4-35.2-12.8-41.6-169.6-89.6-342.4-80-489.6 32-9.6 9.6-12.8 19.2-3.2 32 3.2 6.4 12.8 9.6 19.2 9.6zm416 44.8c12.8-16 0-25.6-9.6-32-22.4-16-73.6-38.4-115.2-38.4-19.2 0-25.6 6.4-28.8 19.2s6.4 25.6 19.2 25.6c41.6 3.2 60.8 9.6 89.6 28.8 9.6 3.2 35.2 12.8 44.8-3.2zm-262.4 377.6c-3.2-6.4-9.6-28.8-28.8-41.6s-28.8 6.4-25.6 22.4c3.2 9.6 6.4 22.4 9.6 32 6.4 19.2 12.8 41.6 12.8 64 0 48-51.2 115.2-67.2 137.6-9.6 9.6-6.4 25.6 3.2 32 3.2 3.2 9.6 6.4 16 6.4s12.8-3.2 16-6.4 76.8-89.6 80-166.4c0-32-9.6-57.6-16-80zm236.8-67.2c-16 9.6-9.6 35.2-6.4 41.6 19.2 32 22.4 57.6 22.4 57.6 3.2 9.6 16 22.4 28.8 19.2 16-3.2 16-19.2 16-32 0 0-3.2-32-28.8-76.8-3.2-9.6-16-22.4-32-9.6zm-67.2 76.8c-12.8 12.8-6.4 32-6.4 35.2 19.2 67.2 6.4 118.4-38.4 211.2-6.4 12.8 0 25.6 9.6 32 3.2 0 6.4 3.2 9.6 3.2 9.6 0 16-6.4 22.4-12.8 51.2-108.8 67.2-172.8 35.2-256v-3.2c-3.2-12.8-19.2-22.4-32-9.6zm291.2-89.6c-12.8-48-32-86.4-54.4-118.4-16-19.2-28.8-25.6-41.6-12.8s-6.4 35.2 3.2 51.2c19.2 25.6 32 54.4 41.6 92.8 3.2 12.8 16 22.4 32 19.2s22.4-19.2 19.2-32zm-368 118.4c-19.2 0-25.6 19.2-25.6 32 0 19.2 0 41.6-3.2 64-12.8 67.2-73.6 140.8-76.8 140.8-9.6 9.6-6.4 25.6 3.2 32 3.2 3.2 9.6 6.4 16 6.4s12.8-3.2 19.2-9.6c3.2-3.2 67.2-83.2 86.4-163.2 3.2-25.6 6.4-51.2 3.2-76.8 0-9.6-3.2-25.6-22.4-25.6zm259.2-134.4c-6.4-12.8-12.8-22.4-19.2-28.8-6.4-9.6-22.4-19.2-35.2-6.4s-12.8 25.6-3.2 38.4c6.4 6.4 9.6 16 16 22.4s12.8 12.8 22.4 12.8c3.2 0 9.6 0 12.8-3.2 9.6-9.6 12.8-25.6 6.4-35.2zm-352-208c9.6 19.2 25.6 9.6 44.8 3.2 41.6-12.8 73.6-16 115.2 0 19.2 6.4 28.8 3.2 38.4-6.4 6.4-9.6 0-22.4-22.4-35.2-44.8-22.4-112-16-153.6 3.2-16 6.4-32 19.2-22.4 35.2zm294.4 384c-12.8 0-22.4 9.6-22.4 22.4 0 0-3.2 76.8-28.8 121.6-6.4 9.6-3.2 25.6 9.6 32 3.2 3.2 6.4 3.2 9.6 3.2 9.6 0 16-3.2 19.2-12.8 28.8-54.4 32-137.6 32-140.8 3.2-12.8-6.4-25.6-19.2-25.6zm-387.2-3.2s-51.2-99.2-32-211.2c3.2-12.8-12.8-22.4-25.6-22.4s-19.2 12.8-22.4 25.6c-19.2 131.2 38.4 230.4 41.6 233.6 3.2 6.4 12.8 9.6 19.2 9.6 3.2 0 9.6 0 12.8-3.2 9.6-6.4 12.8-19.2 6.4-32zm-140.8-134.4c0-12.8-9.6-22.4-22.4-25.6-12.8 0-22.4 9.6-25.6 22.4 0 6.4-6.4 150.4 89.6 278.4 3.2 6.4 12.8 9.6 19.2 9.6s9.6 0 12.8-3.2c9.6-6.4 12.8-22.4 3.2-32-83.2-115.2-76.8-249.6-76.8-249.6zm320-198.4c-9.6 6.4-16 9.6-16 19.2v6.4c0 9.6 9.6 19.2 19.2 19.2h16c9.6 0 19.2-9.6 19.2-19.2v-6.4c0-9.6-6.4-16-16-19.2-6.4-3.2-19.2-3.2-22.4 0zm364.8-22.4c-9.6-3.2-16-6.4-22.4 0l-6.4 3.2c-6.4 6.4-9.6 19.2-6.4 25.6l6.4 9.6c3.2 6.4 16 6.4 25.6 3.2l6.4-3.2c6.4-6.4 9.6-12.8 6.4-22.4 0-6.4-6.4-16-9.6-16zm-355.2 131.2l-121.6-121.6c-9.6-12.8-28.8-16-44.8-3.2-6.4 6.4-35.2 32-38.4 38.4-16 19.2-16 32-3.2 48 3.2 3.2 147.2 150.4 160 163.2s32 19.2 51.2 19.2c12.8 0 35.2-12.8 51.2-28.8 3.2-9.6 304-332.8 304-332.8 12.8-16 9.6-38.4 3.2-51.2-3.2-6.4-28.8-25.6-32-28.8-19.2-16-38.4-16-51.2 0-9.6 12.8-278.4 297.6-278.4 297.6z"/></svg>