<svg xmlns="http://www.w3.org/2000/svg" viewBox="0 0 1024 1024"><path d="M700.8 67.911c-9.244-6.4-22.044-3.911-28.089 5.333-6.4 9.244-3.911 22.044 5.333 28.089 1.778 1.067 3.556 2.133 5.689 2.844 81.067 55.111 130.489 202.311 133.333 317.867-18.489-35.2-44.444-65.778-76.444-89.6-8.889-6.756-21.689-4.978-28.444 3.911-5.333 7.111-5.333 17.067 0 24.533 28.8 38.4 44.089 85.333 44.089 132.978 0 123.378-100.267 223.644-223.644 223.644-28.8 0-48.356-3.2-66.489-10.667 24.533-9.244 45.867-23.111 66.133-35.911 28.089-18.133 54.4-34.844 82.133-34.844 11.378 0 20.267-9.244 20.267-20.267 0-1.778-.356-3.2-.711-4.978-4.978-19.556-28.089-56.178-80.711-56.178-29.156 0-42.311 11.378-52.622 20.622-11.022 9.6-22.4 19.911-69.333 19.911-83.2 0-121.956-48.356-121.956-81.422 0-9.956 6.4-20.978 17.778-30.222 14.222-11.733 28.8-14.933 28.8-16.356 7.822 7.822 20.978 7.822 28.8 0 14.222-14.222 13.511-33.067 9.956-46.933l108.8-72.533c9.244-6.044 12.089-18.844 5.689-28.089-3.911-5.689-10.311-9.244-17.067-9.244h-40.533c-45.156 0-75.022-8.889-81.067-24.178-9.244-22.4 21.333-70.4 55.111-103.822 7.822-7.822 7.822-20.622 0-28.8-3.911-3.911-8.889-6.044-14.578-6.044-66.133 0-109.511 51.911-130.489 79.289-26.667-3.2-71.822-1.778-92.089 1.422-2.844-2.844-8.533-9.6-16.356-24.533C157.156 177.777 145.778 144 145.778 128c0-11.378-9.244-20.267-20.267-20.267a20.746 20.746 0 0 0-14.578 6.044c-52.267 52.267-51.556 130.489-31.289 173.867C43.022 357.333 23.822 435.2 23.822 514.488c0 269.156 219.022 488.178 488.178 488.178 273.778 0 488.178-205.511 488.178-467.911v-40.533c0-248.178-154.667-382.933-299.378-426.311z"/></svg>