<!-- Generated by IcoMoon.io -->
<svg version="1.1" xmlns="http://www.w3.org/2000/svg" width="24" height="24" viewBox="0 0 24 24">
<title>firefox</title>
<path d="M16.425 1.092c-0.217-0.15-0.517-0.092-0.658 0.125-0.15 0.217-0.092 0.517 0.125 0.658 0.042 0.025 0.083 0.050 0.133 0.067 1.9 1.292 3.058 4.742 3.125 7.45-0.433-0.825-1.042-1.542-1.792-2.1-0.208-0.158-0.508-0.117-0.667 0.092-0.125 0.167-0.125 0.4 0 0.575 0.675 0.9 1.033 2 1.033 3.117 0 2.892-2.35 5.242-5.242 5.242-0.675 0-1.133-0.075-1.558-0.25 0.575-0.217 1.075-0.542 1.55-0.842 0.658-0.425 1.275-0.817 1.925-0.817 0.267 0 0.475-0.217 0.475-0.475 0-0.042-0.008-0.075-0.017-0.117-0.117-0.458-0.658-1.317-1.892-1.317-0.683 0-0.992 0.267-1.233 0.483-0.258 0.225-0.525 0.467-1.625 0.467-1.95 0-2.858-1.133-2.858-1.908 0-0.233 0.15-0.492 0.417-0.708 0.333-0.275 0.675-0.35 0.675-0.383 0.183 0.183 0.492 0.183 0.675 0 0.333-0.333 0.317-0.775 0.233-1.1l2.55-1.7c0.217-0.142 0.283-0.442 0.133-0.658-0.092-0.133-0.242-0.217-0.4-0.217h-0.95c-1.058 0-1.758-0.208-1.9-0.567-0.217-0.525 0.5-1.65 1.292-2.433 0.183-0.183 0.183-0.483 0-0.675-0.092-0.092-0.208-0.142-0.342-0.142-1.55 0-2.567 1.217-3.058 1.858-0.625-0.075-1.683-0.042-2.158 0.033-0.067-0.067-0.2-0.225-0.383-0.575-0.35-0.608-0.617-1.4-0.617-1.775 0-0.267-0.217-0.475-0.475-0.475-0.125 0-0.25 0.050-0.342 0.142-1.225 1.225-1.208 3.058-0.733 4.075-0.858 1.633-1.308 3.458-1.308 5.317 0 6.308 5.133 11.442 11.442 11.442 6.417 0 11.442-4.817 11.442-10.967v-0.95c0-5.817-3.625-8.975-7.017-9.992z"></path>
</svg>
