<!-- Generated by IcoMoon.io -->
<svg version="1.1" xmlns="http://www.w3.org/2000/svg" width="24" height="24" viewBox="0 0 24 24">
<title>fire</title>
<path d="M18.455 21.592c2.51-7.172-1.972-11.923-1.972-11.923-0.538 3.586-1.614 5.2-1.614 5.2-2.51-1.345-2.689-6.634-2.689-6.634-2.958 4.213-0.179 10.489-0.179 10.489-1.255 0-3.855-1.793-3.855-1.793-0.269 4.034 2.958 6.096 4.931 6.544-0.896 0.179-1.614 0.179-2.869-0.179-0.538-0.179-10.579-3.675-4.841-14.254 0 0 1.076 3.496 2.869 4.751 0 0-1.793-3.586 0.986-7.71 2.869-4.124 3.048-5.379 3.048-5.379s1.793 2.331 2.062 6.993c0 0 1.255-1.614 1.793-3.855 0.179-0.269 8.516 9.323 2.331 17.75z"></path>
</svg>
