<svg xmlns="http://www.w3.org/2000/svg" viewBox="0 0 1024 1024"><path d="M595.4 126.133c0-45.2-36.4-81.8-81.2-81.8s-81.2 36.6-81.2 81.8c0 45.2 36.4 81.8 81.2 81.8s81.2-36.6 81.2-81.8zm-491.8 269.8c32.2 0 60.6-16.4 77.4-41 1.8-2.6 3.2-5.2 4.8-7.8 7.2-13.2 11.2-28.2 11.2-44.2s-4-31-11.2-44.2c-15.8-29.4-46.6-49.2-82.2-49.2-51.4 0-93.2 41.8-93.2 93.2 0 19.4 5.8 37.2 16 52.2 16.8 24.6 45.2 41 77.2 41zm0-113.6c6.8 0 13 3.4 16.6 8.6 2.2 3.2 3.6 7.2 3.6 11.6s-1.4 8.2-3.6 11.6c-3.6 5.2-9.8 8.6-16.6 8.6-11.2 0-20.2-9-20.2-20.2s9.2-20.2 20.2-20.2zm817.4-72.8c-35.4 0-66.2 19.8-82 49-7.2 13.2-11.2 28.2-11.2 44.2s4 31 11.2 44.2c1.4 2.6 3 5.4 4.8 7.8 16.8 24.8 45.2 41 77.4 41s60.6-16.4 77.2-41c10-14.8 16-32.8 16-52.2-.2-51.4-42-93-93.4-93zm0 113.4c-6.8 0-13-3.4-16.6-8.6-2.2-3.2-3.6-7.2-3.6-11.6 0-4.2 1.4-8.2 3.6-11.6 3.6-5.2 9.8-8.6 16.6-8.6 11.2 0 20.2 9 20.2 20.2s-9 20.2-20.2 20.2zm-511 24v213.6l-77 400.4c-5.4 28 13 55 41 60.4 3.2.6 6.6 1 9.8 1 24.2 0 45.8-17.2 50.6-42l63.8-331h28.4l63.6 331c4.8 24.8 26.4 42 50.6 42 3.2 0 6.6-.2 9.8-1 28-5.4 46.4-32.4 41-60.4l-73-379.6v-234.4H817c-5.8-13.6-9-28.6-9-44.2 0-15.8 3.2-30.6 9-44.2H207.8c5.8 13.6 9 28.6 9 44.2 0 15.8-3.2 30.6-9 44.2H410z"/></svg>