<!-- Generated by IcoMoon.io -->
<svg version="1.1" xmlns="http://www.w3.org/2000/svg" width="24" height="24" viewBox="0 0 24 24">
<title>fitness</title>
<path d="M17.358 10.908h-2.231c-0.6 0-1.083 0.488-1.083 1.083v2.062c-1.247-0.295-2.925-0.478-4.772-0.478-1.758 0-3.361 0.164-4.589 0.436v-2.016c0-0.6-0.487-1.083-1.083-1.083h-2.241c-0.6 0-1.083 0.487-1.083 1.083v6.694c0 0.6 0.487 1.083 1.083 1.083h2.231c0.6 0 1.083-0.488 1.083-1.083v-2.016c1.228 0.272 2.831 0.436 4.589 0.436 1.847 0 3.525-0.183 4.772-0.478v2.063c0 0.6 0.487 1.083 1.083 1.083h2.231c0.6 0 1.083-0.487 1.083-1.083v-6.703c0.009-0.6-0.473-1.083-1.073-1.083z"></path>
<path d="M22.669 3.731h-2.231c-0.6 0-1.083 0.488-1.083 1.083v2.063c-1.247-0.295-2.925-0.478-4.772-0.478-1.758 0-3.361 0.164-4.589 0.436v-2.016c0-0.6-0.488-1.083-1.083-1.083h-2.231c-0.6 0-1.083 0.488-1.083 1.083v6.694c0 0.6 0.488 1.083 1.083 1.083h2.231c0.6 0 1.083-0.487 1.083-1.083v-2.016c1.228 0.272 2.831 0.436 4.589 0.436 1.847 0 3.525-0.183 4.772-0.478v2.063c0 0.6 0.488 1.083 1.083 1.083h2.231c0.6 0 1.083-0.487 1.083-1.083v-6.703c0-0.6-0.483-1.083-1.083-1.083z"></path>
</svg>
