<!-- Generated by IcoMoon.io -->
<svg version="1.1" xmlns="http://www.w3.org/2000/svg" width="24" height="24" viewBox="0 0 24 24">
<title>fitness-alt</title>
<path d="M13.955 2.456c0-1.059-0.853-1.917-1.903-1.917s-1.903 0.858-1.903 1.917c0 1.059 0.853 1.917 1.903 1.917s1.903-0.858 1.903-1.917z"></path>
<path d="M2.428 8.78c0.755 0 1.42-0.384 1.814-0.961 0.042-0.061 0.075-0.122 0.113-0.183 0.169-0.309 0.262-0.661 0.262-1.036s-0.094-0.727-0.262-1.036c-0.37-0.689-1.092-1.153-1.927-1.153-1.205 0-2.184 0.98-2.184 2.184 0 0.455 0.136 0.872 0.375 1.223 0.394 0.577 1.059 0.961 1.809 0.961zM2.428 6.117c0.159 0 0.305 0.080 0.389 0.202 0.052 0.075 0.084 0.169 0.084 0.272s-0.033 0.192-0.084 0.272c-0.084 0.122-0.23 0.202-0.389 0.202-0.262 0-0.473-0.211-0.473-0.473s0.216-0.473 0.473-0.473z"></path>
<path d="M21.586 4.411c-0.83 0-1.552 0.464-1.922 1.148-0.169 0.309-0.263 0.661-0.263 1.036s0.094 0.727 0.263 1.036c0.033 0.061 0.070 0.127 0.112 0.183 0.394 0.581 1.059 0.961 1.814 0.961s1.42-0.384 1.809-0.961c0.234-0.347 0.375-0.769 0.375-1.223-0.005-1.205-0.984-2.18-2.189-2.18zM21.586 7.069c-0.159 0-0.305-0.080-0.389-0.202-0.052-0.075-0.084-0.169-0.084-0.272 0-0.098 0.033-0.192 0.084-0.272 0.084-0.122 0.23-0.202 0.389-0.202 0.263 0 0.473 0.211 0.473 0.473s-0.211 0.473-0.473 0.473z"></path>
<path d="M9.609 7.631v5.006l-1.805 9.384c-0.127 0.656 0.305 1.289 0.961 1.416 0.075 0.014 0.155 0.023 0.23 0.023 0.567 0 1.073-0.403 1.186-0.984l1.495-7.758h0.666l1.491 7.758c0.112 0.581 0.619 0.984 1.186 0.984 0.075 0 0.155-0.005 0.23-0.023 0.656-0.127 1.087-0.759 0.961-1.416l-1.711-8.897v-5.494h4.65c-0.136-0.319-0.211-0.67-0.211-1.036 0-0.37 0.075-0.717 0.211-1.036h-14.278c0.136 0.319 0.211 0.67 0.211 1.036 0 0.37-0.075 0.717-0.211 1.036h4.739z"></path>
</svg>
