<svg xmlns="http://www.w3.org/2000/svg" viewBox="0 0 1024 1024"><path d="M740.6 486.733h-95.2c-25.6 0-46.2 20.8-46.2 46.2v88c-53.2-12.6-124.8-20.4-203.6-20.4-75 0-143.4 7-195.8 18.6v-86c0-25.6-20.8-46.2-46.2-46.2H58c-25.6 0-46.2 20.8-46.2 46.2v285.6c0 25.6 20.8 46.2 46.2 46.2h95.2c25.6 0 46.2-20.8 46.2-46.2v-86c52.4 11.6 120.8 18.6 195.8 18.6 78.8 0 150.4-7.8 203.6-20.4v88c0 25.6 20.8 46.2 46.2 46.2h95.2c25.6 0 46.2-20.8 46.2-46.2v-286c.4-25.6-20.2-46.2-45.8-46.2zm226.6-306.2H872c-25.6 0-46.2 20.8-46.2 46.2v88c-53.2-12.6-124.8-20.4-203.6-20.4-75 0-143.4 7-195.8 18.6v-86c0-25.6-20.8-46.2-46.2-46.2H285c-25.6 0-46.2 20.8-46.2 46.2v285.6c0 25.6 20.8 46.2 46.2 46.2h95.2c25.6 0 46.2-20.8 46.2-46.2v-86c52.4 11.6 120.8 18.6 195.8 18.6 78.8 0 150.4-7.8 203.6-20.4v88c0 25.6 20.8 46.2 46.2 46.2h95.2c25.6 0 46.2-20.8 46.2-46.2v-286c0-25.6-20.6-46.2-46.2-46.2z"/></svg>