<svg xmlns="http://www.w3.org/2000/svg" viewBox="0 0 1024 1024"><path d="M775.47 332.263c-110.936 0-204.536 86.668-204.536 204.536 0 110.936 86.668 204.536 204.536 204.536 110.936 0 204.536-86.668 204.536-204.536-6.934-114.402-97.068-204.536-204.536-204.536zm0 339.738c-72.802 0-131.736-58.934-131.736-131.736s58.934-131.736 131.736-131.736 131.736 58.934 131.736 131.736-58.934 131.736-131.736 131.736zM456.532 529.867c0 112.961-91.575 204.536-204.536 204.536S47.46 642.828 47.46 529.867s91.575-204.536 204.536-204.536 204.536 91.575 204.536 204.536z"/></svg>