<!-- Generated by IcoMoon.io -->
<svg version="1.1" xmlns="http://www.w3.org/2000/svg" width="24" height="24" viewBox="0 0 24 24">
<title>flickr</title>
<path d="M18.175 7.287c-2.6 0-4.794 2.031-4.794 4.794 0 2.6 2.031 4.794 4.794 4.794 2.6 0 4.794-2.031 4.794-4.794-0.163-2.681-2.275-4.794-4.794-4.794zM18.175 15.25c-1.706 0-3.088-1.381-3.088-3.088s1.381-3.088 3.088-3.088 3.088 1.381 3.088 3.088-1.381 3.088-3.088 3.088z"></path>
<path d="M10.7 11.919c0 2.648-2.146 4.794-4.794 4.794s-4.794-2.146-4.794-4.794c0-2.648 2.146-4.794 4.794-4.794s4.794 2.146 4.794 4.794z"></path>
</svg>
