<svg xmlns="http://www.w3.org/2000/svg" viewBox="0 0 1024 1024"><path d="M51.911 807.466c32.711 0 48.356 10.311 66.133 22.4 20.622 13.511 43.733 29.156 88.178 29.156 44.8 0 67.911-15.289 88.178-29.156 18.133-12.089 33.778-22.4 66.133-22.4s48.356 10.311 66.133 22.4c20.622 13.511 43.733 29.156 88.178 29.156 44.8 0 67.911-15.289 88.178-29.156 18.133-12.089 33.778-22.4 66.133-22.4s48.356 10.311 66.133 22.4c20.622 13.511 43.733 29.156 88.178 29.156 44.8 0 67.911-15.289 88.178-29.156 18.133-12.089 33.778-22.4 66.133-22.4 11.022 0 19.911-8.889 19.911-19.911s-8.889-19.911-19.911-19.911c-44.8 0-67.911 15.289-88.178 29.156-18.133 12.089-33.778 22.4-66.133 22.4-32.711 0-48.356-10.311-66.133-22.4-20.622-13.511-43.733-29.156-88.178-29.156-44.8 0-67.911 15.289-88.178 29.156-18.133 12.089-33.778 22.4-66.133 22.4s-48.356-10.311-66.133-22.4c-20.622-13.511-43.733-29.156-88.178-29.156-44.8 0-67.911 15.289-88.178 29.156-18.133 12.089-33.778 22.4-66.133 22.4-32.711 0-48.356-10.311-66.133-22.4-20.622-13.511-43.733-29.156-88.178-29.156-11.022 0-19.911 8.889-19.911 19.911 0 10.667 8.889 19.911 19.911 19.911zM979.2 895.289c-44.8 0-67.911 15.289-88.533 29.156-18.133 12.089-33.778 22.4-66.133 22.4-32.711 0-48.356-10.311-66.133-22.4-20.622-13.511-43.733-29.156-88.178-29.156-44.8 0-67.911 15.289-88.178 29.156-18.133 12.089-33.778 22.4-66.133 22.4-32.711 0-48.356-10.311-66.133-22.4-20.622-13.511-43.733-29.156-88.178-29.156-44.8 0-67.911 15.289-88.178 29.156-18.133 12.089-33.778 22.4-66.133 22.4-32.711 0-48.356-10.311-66.133-22.4-20.267-13.511-43.733-29.156-88.178-29.156-11.022 0-19.911 8.889-19.911 19.911s8.889 19.911 19.911 19.911c32.711 0 48 10.311 66.133 22.4 20.267 13.511 43.733 29.156 88.178 29.156 44.8 0 67.911-15.289 88.178-29.156 18.133-12.089 33.778-22.4 66.133-22.4s48.356 10.311 66.133 22.4c20.622 13.511 43.733 29.156 88.178 29.156 44.8 0 67.911-15.289 88.178-29.156 18.133-12.089 33.778-22.4 66.133-22.4 32.711 0 48.356 10.311 66.133 22.4 20.622 13.511 43.733 29.156 88.178 29.156 44.8 0 67.911-15.289 88.178-29.156 18.133-12.089 33.778-22.4 66.489-22.4 11.022 0 19.911-8.889 19.911-19.911s-8.889-19.911-19.911-19.911zm-780.089-384c2.844 17.067 19.556 121.956 35.556 221.156 15.289-3.911 25.956-11.022 38.044-19.2 20.622-13.511 43.733-29.156 88.178-29.156 44.8 0 67.911 15.289 88.178 29.156 18.133 12.089 33.778 22.4 66.133 22.4s48.356-10.311 66.133-22.4c20.622-13.511 43.733-29.156 88.178-29.156 44.8 0 67.911 15.289 88.178 29.156 18.133 12.089 33.778 22.4 66.133 22.4 21.333 0 35.2-4.267 47.644-11.022-18.133-114.844-46.222-289.067-50.133-312.178 41.244-6.4 80.356-12.444 127.644-19.911-71.467-51.911-136.889-98.489-200.533-146.844-11.022-8.178-19.911-23.822-22.756-37.333-9.244-44.8-14.933-90.311-22.044-136.889-34.489 5.333-66.133 10.311-100.622 15.644 2.844 19.2 5.689 36.978 9.6 62.222-39.111-29.867-86.044-66.133-120.889-92.8-12.8-9.956-25.6-20.622-43.378-18.133-17.778 2.844-23.467 7.822-34.844 23.111-71.467 99.2-164.622 225.778-237.156 324.622-33.778 45.867-68.267 91.733-102.044 137.6 1.778 2.133 3.2 4.267 4.978 6.4 39.467-6.4 78.578-12.444 119.822-18.844zm387.556-36.623l19.911 132.978L473.6 627.555l-19.911-132.978 132.978-19.911z"/></svg>