<!-- Generated by IcoMoon.io -->
<svg version="1.1" xmlns="http://www.w3.org/2000/svg" width="24" height="24" viewBox="0 0 24 24">
<title>flood</title>
<path d="M1.217 18.425c0.767 0 1.133 0.242 1.55 0.525 0.483 0.317 1.025 0.683 2.067 0.683 1.050 0 1.592-0.358 2.067-0.683 0.425-0.283 0.792-0.525 1.55-0.525s1.133 0.242 1.55 0.525c0.483 0.317 1.025 0.683 2.067 0.683 1.050 0 1.592-0.358 2.067-0.683 0.425-0.283 0.792-0.525 1.55-0.525s1.133 0.242 1.55 0.525c0.483 0.317 1.025 0.683 2.067 0.683 1.050 0 1.592-0.358 2.067-0.683 0.425-0.283 0.792-0.525 1.55-0.525 0.258 0 0.467-0.208 0.467-0.467s-0.208-0.467-0.467-0.467c-1.050 0-1.592 0.358-2.067 0.683-0.425 0.283-0.792 0.525-1.55 0.525-0.767 0-1.133-0.242-1.55-0.525-0.483-0.317-1.025-0.683-2.067-0.683-1.050 0-1.592 0.358-2.067 0.683-0.425 0.283-0.792 0.525-1.55 0.525s-1.133-0.242-1.55-0.525c-0.483-0.317-1.025-0.683-2.067-0.683-1.050 0-1.592 0.358-2.067 0.683-0.425 0.283-0.792 0.525-1.55 0.525-0.767 0-1.133-0.242-1.55-0.525-0.483-0.317-1.025-0.683-2.067-0.683-0.258 0-0.467 0.208-0.467 0.467 0 0.25 0.208 0.467 0.467 0.467z"></path>
<path d="M22.95 20.483c-1.050 0-1.592 0.358-2.075 0.683-0.425 0.283-0.792 0.525-1.55 0.525-0.767 0-1.133-0.242-1.55-0.525-0.483-0.317-1.025-0.683-2.067-0.683-1.050 0-1.592 0.358-2.067 0.683-0.425 0.283-0.792 0.525-1.55 0.525-0.767 0-1.133-0.242-1.55-0.525-0.483-0.317-1.025-0.683-2.067-0.683-1.050 0-1.592 0.358-2.067 0.683-0.425 0.283-0.792 0.525-1.55 0.525-0.767 0-1.133-0.242-1.55-0.525-0.475-0.317-1.025-0.683-2.067-0.683-0.258 0-0.467 0.208-0.467 0.467s0.208 0.467 0.467 0.467c0.767 0 1.125 0.242 1.55 0.525 0.475 0.317 1.025 0.683 2.067 0.683 1.050 0 1.592-0.358 2.067-0.683 0.425-0.283 0.792-0.525 1.55-0.525s1.133 0.242 1.55 0.525c0.483 0.317 1.025 0.683 2.067 0.683 1.050 0 1.592-0.358 2.067-0.683 0.425-0.283 0.792-0.525 1.55-0.525 0.767 0 1.133 0.242 1.55 0.525 0.483 0.317 1.025 0.683 2.067 0.683 1.050 0 1.592-0.358 2.067-0.683 0.425-0.283 0.792-0.525 1.558-0.525 0.258 0 0.467-0.208 0.467-0.467s-0.208-0.467-0.467-0.467z"></path>
<path d="M4.667 11.483c0.067 0.4 0.458 2.858 0.833 5.183 0.358-0.092 0.608-0.258 0.892-0.45 0.483-0.317 1.025-0.683 2.067-0.683 1.050 0 1.592 0.358 2.067 0.683 0.425 0.283 0.792 0.525 1.55 0.525s1.133-0.242 1.55-0.525c0.483-0.317 1.025-0.683 2.067-0.683 1.050 0 1.592 0.358 2.067 0.683 0.425 0.283 0.792 0.525 1.55 0.525 0.5 0 0.825-0.1 1.117-0.258-0.425-2.692-1.083-6.775-1.175-7.317 0.967-0.15 1.883-0.292 2.992-0.467-1.675-1.217-3.208-2.308-4.7-3.442-0.258-0.192-0.467-0.558-0.533-0.875-0.217-1.050-0.35-2.117-0.517-3.208-0.808 0.125-1.55 0.242-2.358 0.367 0.067 0.45 0.133 0.867 0.225 1.458-0.917-0.7-2.017-1.55-2.833-2.175-0.3-0.233-0.6-0.483-1.017-0.425-0.417 0.067-0.55 0.183-0.817 0.542-1.675 2.325-3.858 5.292-5.558 7.608-0.792 1.075-1.6 2.15-2.392 3.225 0.042 0.050 0.075 0.1 0.117 0.15 0.925-0.15 1.842-0.292 2.808-0.442zM13.75 10.625l0.467 3.117-3.117 0.467-0.467-3.117 3.117-0.467z"></path>
</svg>
