<svg xmlns="http://www.w3.org/2000/svg" viewBox="0 0 1024 1024"><path d="M960 661.333v-128c0-35.328-28.672-64-64-64H576v-128h192c35.328 0 64-28.672 64-64v-64c0-35.328-28.672-64-64-64H320c-35.328 0-64 28.672-64 64v64c0 35.328 28.672 64 64 64h192v128H192c-35.328 0-64 28.672-64 64v128c-35.328 0-64 28.672-64 64v128c0 35.328 28.672 64 64 64h64c35.328 0 64-28.672 64-64v-128c0-35.328-28.672-64-64-64v-128h320v128c-35.328 0-64 28.672-64 64v128c0 35.328 28.672 64 64 64h64c35.328 0 64-28.672 64-64v-128c0-35.328-28.672-64-64-64v-128h320v128c-35.328 0-64 28.672-64 64v128c0 35.328 28.672 64 64 64h64c35.328 0 64-28.672 64-64v-128c0-35.328-28.672-64-64-64z"/></svg>