<!-- Generated by IcoMoon.io -->
<svg version="1.1" xmlns="http://www.w3.org/2000/svg" width="24" height="24" viewBox="0 0 24 24">
<title>flowchart</title>
<path d="M22.5 15v-3c0-0.828-0.672-1.5-1.5-1.5h-7.5v-3h4.5c0.828 0 1.5-0.672 1.5-1.5v-1.5c0-0.828-0.672-1.5-1.5-1.5h-10.5c-0.828 0-1.5 0.672-1.5 1.5v1.5c0 0.828 0.672 1.5 1.5 1.5h4.5v3h-7.5c-0.828 0-1.5 0.672-1.5 1.5v3c-0.828 0-1.5 0.672-1.5 1.5v3c0 0.828 0.672 1.5 1.5 1.5h1.5c0.828 0 1.5-0.672 1.5-1.5v-3c0-0.828-0.672-1.5-1.5-1.5v-3h7.5v3c-0.828 0-1.5 0.672-1.5 1.5v3c0 0.828 0.672 1.5 1.5 1.5h1.5c0.828 0 1.5-0.672 1.5-1.5v-3c0-0.828-0.672-1.5-1.5-1.5v-3h7.5v3c-0.828 0-1.5 0.672-1.5 1.5v3c0 0.828 0.672 1.5 1.5 1.5h1.5c0.828 0 1.5-0.672 1.5-1.5v-3c0-0.828-0.672-1.5-1.5-1.5z"></path>
</svg>
