<svg xmlns="http://www.w3.org/2000/svg" viewBox="0 0 1024 1024"><path d="M80.2 965.133c33.2 33.2 155.4 51 297.8 26.8l-324.4-324.6c-24.4 142.4-6.4 264.6 26.6 297.8zm863.6-863.6c-32.8-32.8-153-50.6-293.6-27.4l321 321c23.2-140.6 5.4-260.8-27.4-293.6zm-381.8 1c-107.2 28.4-219 81.2-309.2 169.4l-.2-.2c-.4.4-.8.8-1.2 1.4-.4.4-.8.6-1.4 1.2l.2.2c-87 89-139.8 199.2-168.4 305.4l383.4 383.4c106.2-28.6 216.4-81.2 305.4-168.4l.2.2c.4-.4.8-.8 1.2-1.4l1.2-1.2-.2-.2c88-90 141-201.8 169.4-309L562 102.533zm102.8 315.2l-22 22 45.8 45.8c9.6 9.6 9.6 25 0 34.6s-25 9.6-34.6 0l-45.8-45.8-51.6 51.6 45.8 45.8c9.6 9.6 9.6 25 0 34.6s-25 9.6-34.6 0l-45.8-45.8-51.6 51.6 45.8 45.8c9.6 9.6 9.6 25 0 34.6s-25 9.6-34.6 0l-45.8-45.8-37 37c-9.6 9.6-25 9.6-34.6 0s-9.6-25 0-34.6l37-37-45.8-45.8c-9.6-9.4-9.6-25 0-34.6s25-9.6 34.6 0l45.8 45.8 51.6-51.6-45.8-45.8c-9.6-9.6-9.6-25 0-34.6s25-9.6 34.6 0l45.8 45.8 51.6-51.6-45.8-45.8c-9.6-9.6-9.6-25 0-34.6s25-9.6 34.6 0l45.8 45.8 22-22c9.6-9.6 25-9.6 34.6 0s9.6 25.2 0 34.6z"/></svg>