<!-- Generated by IcoMoon.io -->
<svg version="1.1" xmlns="http://www.w3.org/2000/svg" width="24" height="24" viewBox="0 0 24 24">
<title>football</title>
<path d="M1.88 22.12c0.778 0.778 3.642 1.195 6.98 0.628l-7.603-7.608c-0.572 3.338-0.15 6.202 0.623 6.98z"></path>
<path d="M22.12 1.88c-0.769-0.769-3.586-1.186-6.881-0.642l7.523 7.523c0.544-3.295 0.127-6.113-0.642-6.881z"></path>
<path d="M13.172 1.903c-2.512 0.666-5.133 1.903-7.247 3.97l-0.005-0.005c-0.009 0.009-0.019 0.019-0.028 0.033-0.009 0.009-0.019 0.014-0.033 0.028l0.005 0.005c-2.039 2.086-3.277 4.669-3.947 7.158l8.986 8.986c2.489-0.67 5.072-1.903 7.158-3.947l0.005 0.005c0.009-0.009 0.019-0.019 0.028-0.033 0.009-0.009 0.019-0.019 0.028-0.028l-0.005-0.005c2.063-2.109 3.305-4.73 3.97-7.242l-8.916-8.925zM15.581 9.291l-0.516 0.516 1.073 1.073c0.225 0.225 0.225 0.586 0 0.811s-0.586 0.225-0.811 0l-1.073-1.073-1.209 1.209 1.073 1.073c0.225 0.225 0.225 0.586 0 0.811s-0.586 0.225-0.811 0l-1.073-1.073-1.209 1.209 1.073 1.073c0.225 0.225 0.225 0.586 0 0.811s-0.586 0.225-0.811 0l-1.073-1.073-0.867 0.867c-0.225 0.225-0.586 0.225-0.811 0s-0.225-0.586 0-0.811l0.867-0.867-1.073-1.073c-0.225-0.22-0.225-0.586 0-0.811s0.586-0.225 0.811 0l1.073 1.073 1.209-1.209-1.073-1.073c-0.225-0.225-0.225-0.586 0-0.811s0.586-0.225 0.811 0l1.073 1.073 1.209-1.209-1.073-1.073c-0.225-0.225-0.225-0.586 0-0.811s0.586-0.225 0.811 0l1.073 1.073 0.516-0.516c0.225-0.225 0.586-0.225 0.811 0s0.225 0.591 0 0.811z"></path>
</svg>
