<svg xmlns="http://www.w3.org/2000/svg" viewBox="0 0 1024 1024"><path d="M936.889 919.111H313.245c-11.733 0-21.333 9.6-21.333 21.333v77.511c0 11.733 9.6 21.333 21.333 21.333h623.644c11.733 0 21.333-9.6 21.333-21.333v-77.511c0-11.733-9.6-21.333-21.333-21.333zM305.422 620.089c0-18.844 19.556-38.756 46.933-52.978v232.178c0 34.844 28.444 63.644 63.644 63.644h414.222c34.844 0 63.644-28.444 63.644-63.644V140.8c0-34.844-28.444-63.644-63.644-63.644H415.999c-34.844 0-63.644 28.444-63.644 63.644v351.644c-63.289 21.689-115.911 69.333-115.911 127.289v85.333c0 .356-1.778 50.844-43.378 50.844-48 0-58.311-36.622-58.311-67.2V385.421c64.711-5.689 92.089-80.711 92.089-123.022v-105.6L297.6 86.043c13.511-13.511 13.511-35.2 0-48.711s-35.2-13.511-48.711 0L160 126.221c-71.111 71.111-93.867 115.556-93.867 183.111V688.71c0 82.489 49.778 135.822 126.933 135.822 77.511 0 112.356-70.044 112.356-119.822v-84.622zm155.734-429.512h322.133v257.422H461.156V190.577z"/></svg>