<!-- Generated by IcoMoon.io -->
<svg version="1.1" xmlns="http://www.w3.org/2000/svg" width="24" height="24" viewBox="0 0 24 24">
<title>gas-pump</title>
<path d="M21.958 21.042h-14.617c-0.275 0-0.5 0.225-0.5 0.5v1.817c0 0.275 0.225 0.5 0.5 0.5h14.617c0.275 0 0.5-0.225 0.5-0.5v-1.817c0-0.275-0.225-0.5-0.5-0.5z"></path>
<path d="M7.158 14.033c0-0.442 0.458-0.908 1.1-1.242v5.442c0 0.817 0.667 1.492 1.492 1.492h9.708c0.817 0 1.492-0.667 1.492-1.492v-15.433c0-0.817-0.667-1.492-1.492-1.492h-9.708c-0.817 0-1.492 0.667-1.492 1.492v8.242c-1.483 0.508-2.717 1.625-2.717 2.983v2c0 0.008-0.042 1.192-1.017 1.192-1.125 0-1.367-0.858-1.367-1.575v-7.108c1.517-0.133 2.158-1.892 2.158-2.883 0-0.825 0-2.033 0-2.475l1.658-1.658c0.317-0.317 0.317-0.825 0-1.142s-0.825-0.317-1.142 0l-2.083 2.083c-1.667 1.667-2.2 2.708-2.2 4.292v8.892c0 1.933 1.167 3.183 2.975 3.183 1.817 0 2.633-1.642 2.633-2.808v-1.983zM10.808 3.967h7.55v6.033h-7.55v-6.033z"></path>
</svg>
