<!-- Generated by IcoMoon.io -->
<svg version="1.1" xmlns="http://www.w3.org/2000/svg" width="24" height="24" viewBox="0 0 24 24">
<title>gears</title>
<path d="M21.745 13.859c-0.17-0.355-0.375-0.688-0.616-0.991l0.552-1.925c-0.38-0.34-0.796-0.639-1.24-0.887l-1.642 1.144c-0.362-0.128-0.745-0.217-1.137-0.261l-0.974-1.755c-0.251 0.015-0.505 0.039-0.759 0.081s-0.503 0.101-0.745 0.168l-0.353 1.975c-0.355 0.17-0.688 0.375-0.989 0.616l-1.925-0.552c-0.34 0.38-0.639 0.796-0.887 1.24l1.144 1.642c-0.128 0.362-0.217 0.745-0.261 1.137l-1.755 0.974c0.015 0.251 0.039 0.505 0.081 0.759s0.101 0.503 0.168 0.745l1.977 0.353c0.17 0.355 0.375 0.688 0.616 0.991l-0.552 1.925c0.38 0.34 0.796 0.639 1.24 0.887l1.642-1.144c0.362 0.128 0.745 0.217 1.137 0.261l0.974 1.755c0.249-0.015 0.503-0.039 0.757-0.081s0.503-0.101 0.745-0.168l0.353-1.977c0.355-0.17 0.688-0.375 0.991-0.616l1.925 0.552c0.34-0.38 0.639-0.796 0.887-1.24l-1.144-1.642c0.128-0.362 0.217-0.745 0.261-1.137l1.755-0.974c-0.015-0.249-0.039-0.503-0.081-0.757s-0.101-0.503-0.168-0.745l-1.977-0.353zM17.631 19.504c-1.886 0.313-3.668-0.961-3.981-2.845-0.313-1.886 0.961-3.668 2.845-3.981 1.886-0.313 3.668 0.961 3.981 2.845s-0.959 3.668-2.845 3.981z"></path>
<path d="M15.469 6.411c0.091-0.274 0.15-0.552 0.177-0.833l1.265-0.735c-0.027-0.372-0.096-0.737-0.205-1.095l-1.445-0.229c-0.126-0.251-0.281-0.491-0.466-0.712l0.375-1.415c-0.138-0.121-0.286-0.234-0.441-0.34s-0.316-0.202-0.476-0.288l-1.186 0.86c-0.274-0.091-0.552-0.15-0.831-0.177l-0.735-1.265c-0.372 0.027-0.737 0.096-1.095 0.205l-0.229 1.445c-0.251 0.126-0.491 0.281-0.712 0.466l-1.415-0.375c-0.121 0.138-0.234 0.286-0.34 0.441s-0.202 0.316-0.288 0.476l0.86 1.186c-0.091 0.274-0.15 0.552-0.177 0.833l-1.262 0.732c0.027 0.372 0.096 0.74 0.205 1.095l1.445 0.229c0.126 0.251 0.281 0.491 0.466 0.712l-0.377 1.415c0.138 0.118 0.286 0.234 0.441 0.34s0.316 0.202 0.476 0.288l1.186-0.86c0.274 0.091 0.552 0.15 0.833 0.177l0.735 1.265c0.372-0.027 0.74-0.096 1.095-0.205l0.229-1.445c0.251-0.126 0.491-0.281 0.712-0.466l1.418 0.375c0.118-0.138 0.234-0.286 0.34-0.441s0.202-0.316 0.288-0.476l-0.865-1.183zM10.449 7.301c-1.151-0.789-1.445-2.359-0.656-3.511s2.359-1.445 3.511-0.656c1.151 0.789 1.445 2.359 0.656 3.511s-2.362 1.442-3.511 0.656z"></path>
<path d="M9.771 13.272c0-0.318-0.032-0.629-0.101-0.932l1.070-1.203c-0.158-0.38-0.355-0.74-0.592-1.075l-1.59 0.259c-0.219-0.219-0.463-0.417-0.732-0.584l-0.096-1.61c-0.187-0.076-0.38-0.148-0.579-0.205s-0.399-0.101-0.599-0.138l-0.944 1.309c-0.316 0-0.629 0.032-0.932 0.101l-1.203-1.070c-0.38 0.158-0.74 0.355-1.075 0.592l0.259 1.59c-0.219 0.219-0.417 0.463-0.584 0.732l-1.61 0.089c-0.076 0.187-0.148 0.38-0.205 0.579s-0.101 0.399-0.138 0.599l1.309 0.944c0 0.318 0.032 0.629 0.101 0.932l-1.068 1.203c0.158 0.38 0.355 0.74 0.592 1.075l1.59-0.259c0.219 0.219 0.463 0.417 0.732 0.584l0.094 1.612c0.187 0.076 0.38 0.145 0.577 0.205s0.399 0.101 0.599 0.138l0.944-1.309c0.318 0 0.629-0.032 0.932-0.101l1.203 1.070c0.38-0.158 0.74-0.355 1.075-0.592l-0.259-1.59c0.219-0.219 0.417-0.463 0.584-0.732l1.612-0.094c0.076-0.187 0.145-0.38 0.205-0.577 0.057-0.2 0.101-0.399 0.138-0.599l-1.309-0.944zM4.823 15.932c-1.474-0.429-2.325-1.972-1.896-3.449s1.972-2.325 3.449-1.896 2.325 1.972 1.896 3.449-1.972 2.325-3.449 1.896z"></path>
</svg>
