<svg xmlns="http://www.w3.org/2000/svg" viewBox="0 0 1024 1024"><path d="M927.805 612.645c-7.257-15.147-15.989-29.346-26.296-42.285l23.561-82.15a297.287 297.287 0 0 0-52.91-37.866l-70.056 48.806a219.646 219.646 0 0 0-48.491-11.149l-41.549-74.893c-10.728.63-21.562 1.684-32.399 3.471s-21.459 4.313-31.766 7.154l-15.041 84.255c-15.147 7.257-29.346 15.989-42.179 26.296l-82.15-23.561a297.287 297.287 0 0 0-37.866 52.91l48.806 70.056a219.646 219.646 0 0 0-11.149 48.491l-74.893 41.549c.63 10.728 1.684 21.562 3.471 32.399s4.313 21.459 7.154 31.766l84.361 15.041c7.257 15.147 15.989 29.346 26.296 42.285l-23.561 82.15a297.287 297.287 0 0 0 52.91 37.866l70.056-48.806a219.646 219.646 0 0 0 48.491 11.149l41.549 74.893c10.625-.63 21.459-1.684 32.293-3.471s21.459-4.313 31.766-7.154l15.041-84.361c15.147-7.257 29.346-15.989 42.285-26.296l82.15 23.561a297.287 297.287 0 0 0 37.866-52.91l-48.806-70.056a219.646 219.646 0 0 0 11.149-48.491l74.893-41.549c-.63-10.625-1.684-21.459-3.471-32.293s-4.313-21.459-7.154-31.766l-84.361-15.041zM752.247 853.522c-80.469 13.36-156.519-41.022-169.876-121.385-13.36-80.469 41.022-156.519 121.385-169.876 80.469-13.36 156.519 41.022 169.876 121.385s-40.919 156.519-121.385 169.876zm-92.248-558.649c3.892-11.676 6.415-23.561 7.572-35.552l53.961-31.345c-1.157-15.883-4.101-31.451-8.732-46.704l-61.639-9.783a157.385 157.385 0 0 0-19.881-30.4l15.989-60.376c-5.891-5.155-12.203-9.992-18.827-14.517S614.979 57.57 608.14 53.89l-50.596 36.709c-11.676-3.892-23.561-6.415-35.449-7.572L490.75 29.066c-15.883 1.157-31.451 4.101-46.704 8.732l-9.783 61.639a157.385 157.385 0 0 0-30.4 19.881l-60.376-15.989c-5.155 5.891-9.992 12.203-14.517 18.827s-8.626 13.463-12.306 20.302l36.709 50.596c-3.892 11.676-6.415 23.561-7.572 35.552l-53.855 31.242a212.633 212.633 0 0 0 8.732 46.704l61.639 9.783a157.385 157.385 0 0 0 19.881 30.4l-16.095 60.376c5.891 5.049 12.203 9.992 18.827 14.517s13.463 8.626 20.302 12.306l50.596-36.709c11.676 3.892 23.561 6.415 35.552 7.572l31.345 53.961a212.633 212.633 0 0 0 46.704-8.732l9.783-61.639a157.385 157.385 0 0 0 30.4-19.881l60.482 15.989c5.049-5.891 9.992-12.203 14.517-18.827s8.626-13.463 12.306-20.302l-36.921-50.49zm-214.163 37.975c-49.121-33.659-61.639-100.665-27.98-149.786s100.665-61.639 149.786-27.98c49.121 33.659 61.639 100.665 27.98 149.786s-100.768 61.533-149.786 27.98zm-28.925 254.761c0-13.569-1.366-26.823-4.313-39.762l45.65-51.332c-6.733-16.198-15.147-31.557-25.245-45.862l-67.845 11.046c-9.362-9.362-19.775-17.776-31.242-24.93l-4.101-68.687c-7.993-3.262-16.198-6.312-24.718-8.732s-17.04-4.313-25.56-5.891l-40.286 55.854c-13.463 0-26.823 1.366-39.762 4.313l-51.332-45.65c-16.198 6.733-31.557 15.147-45.862 25.245l11.046 67.845c-9.362 9.362-17.776 19.775-24.93 31.242l-68.687 3.786c-3.262 7.993-6.312 16.198-8.732 24.718s-4.313 17.04-5.891 25.56l55.854 40.286c0 13.569 1.366 26.823 4.313 39.762l-45.547 51.332c6.733 16.198 15.147 31.557 25.245 45.862l67.845-11.046c9.362 9.362 19.775 17.776 31.242 24.93l3.998 68.793c7.993 3.262 16.198 6.206 24.615 8.732s17.04 4.313 25.56 5.891l40.286-55.854c13.569 0 26.823-1.366 39.762-4.313l51.332 45.65c16.198-6.733 31.557-15.147 45.862-25.245l-11.046-67.845c9.362-9.362 17.776-19.775 24.93-31.242l68.793-3.998c3.262-7.993 6.206-16.198 8.732-24.615 2.42-8.52 4.313-17.04 5.891-25.56l-55.854-40.286zm-211.11 113.498c-62.902-18.303-99.19-84.149-80.89-147.157s84.149-99.19 147.157-80.89 99.19 84.149 80.89 147.157-84.149 99.19-147.157 80.89z"/></svg>