<!-- Generated by IcoMoon.io -->
<svg version="1.1" xmlns="http://www.w3.org/2000/svg" width="24" height="24" viewBox="0 0 24 24">
<title>gear</title>
<path d="M19.732 9.773c-0.169-0.588-0.398-1.146-0.689-1.671l1.334-2.805c-0.495-0.616-1.057-1.179-1.673-1.673l-2.805 1.334c-0.523-0.291-1.085-0.52-1.671-0.689l-1.045-2.934c-0.387-0.042-0.78-0.068-1.181-0.068s-0.795 0.026-1.181 0.068l-1.045 2.934c-0.586 0.169-1.146 0.401-1.671 0.689l-2.805-1.334c-0.616 0.495-1.179 1.057-1.673 1.673l1.334 2.805c-0.291 0.523-0.52 1.085-0.689 1.671l-2.934 1.045c-0.042 0.387-0.068 0.78-0.068 1.181s0.026 0.795 0.068 1.181l2.934 1.045c0.169 0.588 0.398 1.146 0.689 1.671l-1.334 2.805c0.495 0.616 1.057 1.179 1.673 1.673l2.805-1.334c0.523 0.291 1.085 0.52 1.671 0.689l1.043 2.934c0.387 0.042 0.78 0.068 1.181 0.068s0.795-0.026 1.181-0.068l1.048-2.934c0.588-0.169 1.146-0.398 1.671-0.689l2.805 1.334c0.616-0.495 1.179-1.057 1.673-1.673l-1.334-2.805c0.291-0.523 0.52-1.085 0.689-1.671l2.934-1.043c0.042-0.387 0.068-0.78 0.068-1.181s-0.026-0.795-0.068-1.181l-2.934-1.048zM12 17.367c-2.965 0-5.367-2.402-5.367-5.367s2.402-5.367 5.367-5.367 5.367 2.402 5.367 5.367-2.402 5.367-5.367 5.367z"></path>
</svg>
