<!-- Generated by IcoMoon.io -->
<svg version="1.1" xmlns="http://www.w3.org/2000/svg" width="24" height="24" viewBox="0 0 24 24">
<title>github</title>
<path d="M0.609 11.498c0.056-0.417 0.108-0.834 0.173-1.252 0.262-1.631 0.886-3.113 1.819-4.472 1.411-2.048 3.3-3.487 5.639-4.322 1.589-0.567 3.23-0.727 4.908-0.567 2.091 0.197 3.97 0.933 5.648 2.184 2.044 1.519 3.422 3.511 4.148 5.948 0.469 1.566 0.567 3.164 0.342 4.777-0.445 3.183-2.025 5.7-4.556 7.636-0.919 0.703-1.955 1.205-3.047 1.58-0.502 0.173-0.844-0.070-0.844-0.6-0.005-0.984 0-1.973-0.005-2.958 0-0.492-0.028-0.984-0.244-1.434-0.127-0.262-0.3-0.506-0.455-0.759 0.417-0.075 0.867-0.136 1.308-0.248 1.163-0.3 2.203-0.816 2.906-1.833 0.511-0.741 0.75-1.589 0.853-2.475 0.080-0.67 0.103-1.345-0.028-2.016-0.145-0.745-0.464-1.402-0.966-1.973-0.089-0.103-0.108-0.188-0.061-0.314 0.328-0.938 0.202-1.856-0.145-2.756-0.023-0.056-0.117-0.108-0.183-0.117-0.394-0.056-0.769 0.056-1.12 0.22-0.577 0.272-1.13 0.581-1.702 0.867-0.103 0.052-0.244 0.084-0.347 0.056-1.777-0.445-3.548-0.445-5.325 0-0.103 0.028-0.253-0.005-0.347-0.061-0.722-0.459-1.486-0.83-2.32-1.045-0.014-0.005-0.028-0.009-0.042-0.014-0.53-0.112-0.628-0.052-0.778 0.469-0.234 0.811-0.281 1.617 0.005 2.428 0.023 0.066 0 0.178-0.042 0.23-0.956 1.087-1.172 2.372-1.041 3.764 0.075 0.811 0.267 1.589 0.633 2.32 0.516 1.031 1.383 1.659 2.433 2.025 0.623 0.216 1.294 0.305 1.941 0.455 0.033 0.009 0.070 0.009 0.075 0.014-0.164 0.3-0.337 0.6-0.492 0.905-0.052 0.103-0.094 0.225-0.098 0.337-0.009 0.239-0.136 0.347-0.352 0.408-0.722 0.197-1.439 0.323-2.128-0.103-0.361-0.22-0.633-0.534-0.844-0.895-0.328-0.558-0.787-0.97-1.411-1.153-0.23-0.070-0.492-0.052-0.741-0.033-0.15 0.009-0.197 0.131-0.098 0.258 0.103 0.127 0.202 0.272 0.338 0.347 0.609 0.356 0.956 0.914 1.228 1.533 0.155 0.352 0.305 0.703 0.605 0.975 0.478 0.431 1.055 0.591 1.673 0.619 0.534 0.023 1.073 0.005 1.645 0.005 0 0.323 0 0.698 0 1.073 0 0.291 0.009 0.577 0.009 0.867 0 0.534-0.352 0.792-0.858 0.619-1.683-0.572-3.164-1.477-4.411-2.756-1.205-1.237-2.123-2.658-2.695-4.298-0.323-0.928-0.511-1.884-0.581-2.864-0.005-0.089-0.023-0.173-0.033-0.262 0.009-0.445 0.009-0.891 0.009-1.336z"></path>
</svg>
