<svg xmlns="http://www.w3.org/2000/svg" viewBox="0 0 1024 1024"><path d="M26 511.933c2.4-17.8 4.6-35.6 7.4-53.4 11.2-69.6 37.8-132.8 77.6-190.8 60.2-87.4 140.8-148.8 240.6-184.4 67.8-24.2 137.8-31 209.4-24.2 89.2 8.4 169.4 39.8 241 93.2 87.2 64.8 146 149.8 177 253.8 20 66.8 24.2 135 14.6 203.8-19 135.8-86.4 243.2-194.4 325.8-39.2 30-83.4 51.4-130 67.4-21.4 7.4-36-3-36-25.6-.2-42 0-84.2-.2-126.2 0-21-1.2-42-10.4-61.2-5.4-11.2-12.8-21.6-19.4-32.4 17.8-3.2 37-5.8 55.8-10.6 49.6-12.8 94-34.8 124-78.2 21.8-31.6 32-67.8 36.4-105.6 3.4-28.6 4.4-57.4-1.2-86-6.2-31.8-19.8-59.8-41.2-84.2-3.8-4.4-4.6-8-2.6-13.4 14-40 8.6-79.2-6.2-117.6-1-2.4-5-4.6-7.8-5-16.8-2.4-32.8 2.4-47.8 9.4-24.6 11.6-48.2 24.8-72.6 37-4.4 2.2-10.4 3.6-14.8 2.4-75.8-19-151.4-19-227.2 0-4.4 1.2-10.8-.2-14.8-2.6-30.8-19.6-63.4-35.4-99-44.6l-1.8-.6c-22.6-4.8-26.8-2.2-33.2 20-10 34.6-12 69 .2 103.6 1 2.8 0 7.6-1.8 9.8-40.8 46.4-50 101.2-44.4 160.6 3.2 34.6 11.4 67.8 27 99 22 44 59 70.8 103.8 86.4 26.6 9.2 55.2 13 82.8 19.4 1.4.4 3 .4 3.2.6-7 12.8-14.4 25.6-21 38.6-2.2 4.4-4 9.6-4.2 14.4-.4 10.2-5.8 14.8-15 17.4-30.8 8.4-61.4 13.8-90.8-4.4-15.4-9.4-27-22.8-36-38.2-14-23.8-33.6-41.4-60.2-49.2-9.8-3-21-2.2-31.6-1.4-6.4.4-8.4 5.6-4.2 11 4.4 5.4 8.6 11.6 14.4 14.8 26 15.2 40.8 39 52.4 65.4 6.6 15 13 30 25.8 41.6 20.4 18.4 45 25.2 71.4 26.4 22.8 1 45.8.2 70.2.2v45.8c0 12.4.4 24.6.4 37 0 22.8-15 33.8-36.6 26.4-71.8-24.4-135-63-188.2-117.6-51.4-52.8-90.6-113.4-115-183.4-13.8-39.6-21.8-80.4-24.8-122.2-.2-3.8-1-7.4-1.4-11.2.4-19 .4-38 .4-57z"/></svg>