<svg xmlns="http://www.w3.org/2000/svg" viewBox="0 0 1024 1024"><path d="M914.489 48H109.511c-81.422 0-98.133 44.444-37.333 98.844l329.244 293.333c12.089 10.667 55.822 28.444 55.822 109.867v380.8h-156.8c-24.178 0-44.089 19.911-44.089 44.089 0 24.178 19.911 44.089 44.089 44.089h423.467c24.178 0 44.089-19.911 44.089-44.089 0-24.178-19.911-44.089-44.089-44.089h-156.8v-400c1.067-55.111 39.111-77.156 55.822-91.022l329.244-293.333C1012.621 92.445 995.91 48 914.488 48zM727.111 233.6H296.889L183.822 132.622h656.356L727.111 233.6z"/></svg>