<!-- Generated by IcoMoon.io -->
<svg version="1.1" xmlns="http://www.w3.org/2000/svg" width="24" height="24" viewBox="0 0 24 24">
<title>glass</title>
<path d="M21.433 0.625h-18.867c-1.908 0-2.3 1.042-0.875 2.317l7.717 6.875c0.283 0.25 1.308 0.667 1.308 2.575v8.925h-3.675c-0.567 0-1.033 0.467-1.033 1.033v0c0 0.567 0.467 1.033 1.033 1.033h9.925c0.567 0 1.033-0.467 1.033-1.033v0c0-0.567-0.467-1.033-1.033-1.033h-3.675v-9.375c0.025-1.292 0.917-1.808 1.308-2.133l7.717-6.875c1.417-1.267 1.025-2.308-0.883-2.308zM17.042 4.975h-10.083l-2.65-2.367h15.383l-2.65 2.367z"></path>
</svg>
