<svg xmlns="http://www.w3.org/2000/svg" viewBox="0 0 1024 1024"><path d="M544 85.333c-265.088 0-480 214.912-480 480s214.912 480 480 480 480-214.912 480-480-214.912-480-480-480zm350.016 256h-95.36c-18.56-58.368-44.032-109.504-74.752-150.528 69.632 33.6 128.576 85.888 170.112 150.528zm-318.016 0V154.581c60.48 17.856 119.424 84.928 155.712 186.752H576zm174.336 64c9.024 39.168 14.848 82.048 16.704 128H576v-128h174.336zM512 154.581v186.752H356.288C392.576 239.509 451.52 172.437 512 154.581zm0 250.752v128H320.96c1.856-45.952 7.68-88.832 16.704-128H512zm-255.04 128H129.6c3.456-44.992 13.76-88.128 30.464-128h112.64c-8.576 40.512-13.952 83.328-15.744 128zm0 64c1.792 44.672 7.168 87.488 15.744 128h-112.64c-16.704-39.872-27.008-83.008-30.464-128h127.36zm64 0H512v128H337.664c-9.024-39.168-14.848-82.048-16.704-128zm191.04 192v186.752c-60.48-17.856-119.424-84.928-155.712-186.752H512zm64 186.752V789.333h155.712C695.424 891.157 636.48 958.229 576 976.085zm0-250.752v-128h191.04c-1.856 45.952-7.68 88.832-16.704 128H576zm255.04-128H958.4c-3.456 44.992-13.76 88.128-30.464 128h-112.64c8.576-40.512 13.952-83.328 15.744-128zm0-64c-1.792-44.672-7.168-87.488-15.744-128h112.64c16.704 39.872 27.008 83.008 30.464 128H831.04zM364.096 190.805c-30.656 41.024-56.192 92.16-74.752 150.528h-95.36c41.536-64.64 100.48-116.928 170.112-150.528zM193.984 789.333h95.36c18.56 58.368 44.032 109.504 74.752 150.528-69.632-33.6-128.576-85.888-170.112-150.528zm529.92 150.528c30.656-41.024 56.192-92.16 74.752-150.528h95.36c-41.536 64.64-100.48 116.928-170.112 150.528z"/></svg>