<!-- Generated by IcoMoon.io -->
<svg version="1.1" xmlns="http://www.w3.org/2000/svg" width="24" height="24" viewBox="0 0 24 24">
<title>globe</title>
<path d="M12.75 1.5c-6.213 0-11.25 5.037-11.25 11.25s5.037 11.25 11.25 11.25 11.25-5.037 11.25-11.25-5.037-11.25-11.25-11.25zM20.953 7.5h-2.235c-0.435-1.368-1.032-2.567-1.752-3.528 1.632 0.787 3.014 2.013 3.987 3.528zM13.5 7.5v-4.377c1.418 0.418 2.799 1.991 3.649 4.377h-3.649zM17.586 9c0.212 0.918 0.348 1.923 0.392 3h-4.477v-3h4.086zM12 3.123v4.377h-3.649c0.851-2.386 2.232-3.958 3.649-4.377zM12 9v3h-4.477c0.043-1.077 0.18-2.082 0.392-3h4.086zM6.022 12h-2.985c0.081-1.055 0.322-2.066 0.714-3h2.64c-0.201 0.95-0.327 1.953-0.369 3zM6.022 13.5c0.042 1.047 0.168 2.051 0.369 3h-2.64c-0.392-0.934-0.633-1.946-0.714-3h2.985zM7.522 13.5h4.478v3h-4.086c-0.212-0.918-0.348-1.923-0.392-3zM12 18v4.377c-1.418-0.418-2.799-1.991-3.649-4.377h3.649zM13.5 22.377v-4.377h3.649c-0.851 2.386-2.232 3.959-3.649 4.377zM13.5 16.5v-3h4.477c-0.044 1.077-0.18 2.082-0.392 3h-4.086zM19.477 13.5h2.985c-0.081 1.054-0.322 2.066-0.714 3h-2.64c0.201-0.949 0.327-1.953 0.369-3zM19.477 12c-0.042-1.047-0.168-2.050-0.369-3h2.64c0.391 0.934 0.633 1.945 0.714 3h-2.985zM8.534 3.972c-0.719 0.962-1.317 2.16-1.752 3.528h-2.235c0.973-1.515 2.355-2.74 3.987-3.528zM4.546 18h2.235c0.435 1.368 1.032 2.567 1.752 3.528-1.632-0.787-3.013-2.013-3.987-3.528zM16.966 21.528c0.718-0.961 1.317-2.16 1.752-3.528h2.235c-0.973 1.515-2.355 2.741-3.987 3.528z"></path>
</svg>
