<!-- Generated by IcoMoon.io -->
<svg version="1.1" xmlns="http://www.w3.org/2000/svg" width="24" height="24" viewBox="0 0 24 24">
<title>golf</title>
<path d="M11.095 13.852c-0.122 0-0.244 0.009-0.366 0.014v-12.061c0-0.286-0.488-0.563-0.773-0.563-0.291 0-0.572 0.3-0.572 0.586v12.127c-3.328 0.403-5.541 2.184-5.541 4.35 0 2.461 3.244 4.453 7.247 4.453s9.061-6.075 9.061-8.536c0-2.456-5.053-0.37-9.056-0.37zM10.209 19.519c-1.533 0-2.775-0.675-2.775-1.505 0-0.731 0.67-1.345 1.95-1.477v1.477c0 0.286 0.534 0.52 0.825 0.52 0.286 0 0.52-0.234 0.52-0.52v-1.477c1.284 0.131 2.255 0.745 2.255 1.477 0 0.83-1.242 1.505-2.775 1.505z"></path>
<path d="M11.733 1.809c0 0 1.959-0.844 3.577 1.186 0 0 1.228 1.598 3.844 0.413 0 0-0.361 3.127-3.089 3.366 0 0-3.792-0.309-4.317 1.866l-0.014-6.83z"></path>
</svg>
