<!-- Generated by IcoMoon.io -->
<svg version="1.1" xmlns="http://www.w3.org/2000/svg" width="24" height="24" viewBox="0 0 24 24">
<title>google-plus</title>
<path d="M22.917 10.658h-2.774v-2.774h-1.432v2.774h-2.774v1.342h2.774v2.774h1.432v-2.774h2.774z"></path>
<path d="M13.074 13.253l-1.074-0.805c-0.268-0.268-0.716-0.537-0.716-1.163s0.447-0.984 0.805-1.342c1.163-0.895 2.327-1.879 2.327-3.937s-1.253-3.132-1.879-3.579h1.611l1.79-1.074h-5.817c-1.521 0-3.579 0.179-5.101 1.432-1.163 0.984-1.611 2.506-1.611 3.759 0 2.148 1.7 4.295 4.653 4.295 0.268 0 0.626 0 0.895-0.090-0.179 0.358-0.268 0.626-0.268 1.074 0 0.895 0.447 1.342 0.805 1.879-1.253 0.090-3.579 0.179-5.28 1.253-1.611 0.984-2.148 2.327-2.148 3.311 0 2.058 1.879 3.937 5.906 3.937 4.832 0 7.428-2.595 7.428-5.19 0-1.79-1.163-2.774-2.327-3.759zM9.405 10.21c-2.416 0-3.49-3.043-3.49-4.922 0-0.716 0.179-1.521 0.626-2.058s1.253-0.805 1.969-0.805c2.327 0 3.49 3.043 3.49 5.011 0 0.537-0.090 1.342-0.716 1.969-0.447 0.358-1.253 0.805-1.879 0.805zM9.405 21.128c-2.953 0-4.922-1.432-4.922-3.311 0-1.969 1.79-2.595 2.416-2.864 1.163-0.358 2.685-0.447 2.953-0.447s0.447 0 0.626 0c2.148 1.521 3.043 2.237 3.043 3.579 0 1.79-1.432 3.043-4.116 3.043z"></path>
</svg>
