<svg xmlns="http://www.w3.org/2000/svg" viewBox="0 0 1024 1024"><path d="M527.583 442.509h477.05c65.113 324.563-177.308 632.877-515.784 602.824C263.124 1032.756 68.23 863.796 21.482 633.507c-91.27-460.355 443.77-792.264 815.193-505.099 8.459 6.344 16.362 13.468 23.263 19.144L711.347 296.255c-50.238-40.635-114.905-65.233-185.318-65.233a297.889 297.889 0 0 0-48.242 3.914l1.713-.232c-65.402 9.435-122.575 39.21-166.19 82.6l.012-.012c-210.031 209.475-33.391 562.755 267.13 516.897 113.308-14.358 198.678-89.377 218.602-194.337H527.583z"/></svg>