<svg xmlns="http://www.w3.org/2000/svg" viewBox="0 0 1024 1024"><path d="M977.811 476.063H859.45V357.702h-61.091v118.361H679.998v57.27h118.361v118.361h61.091V533.333h118.361zM557.816 586.791L512 552.429c-11.454-11.454-30.541-22.908-30.541-49.637s19.087-42.004 34.362-57.27c49.637-38.183 99.274-80.178 99.274-167.998s-53.458-133.636-80.178-152.723h68.724l76.366-45.816H431.831c-64.912 0-152.723 7.633-217.635 61.091-49.637 42.004-68.724 106.907-68.724 160.365 0 91.632 72.545 183.273 198.548 183.273 11.454 0 26.729 0 38.183-3.821-7.633 15.275-11.454 26.729-11.454 45.816 0 38.183 19.087 57.27 34.362 80.178-53.458 3.821-152.723 7.633-225.268 53.458-68.724 42.004-91.632 99.274-91.632 141.269 0 87.82 80.178 167.998 251.997 167.998 206.181 0 316.909-110.728 316.909-221.456 0-76.366-49.637-118.361-99.274-160.365zM401.272 456.967c-103.086 0-148.911-129.815-148.911-210.002 0-30.541 7.633-64.912 26.729-87.82s53.458-34.362 83.999-34.362C462.363 124.783 512 254.598 512 338.597c0 22.908-3.821 57.27-30.541 83.999-19.087 15.275-53.458 34.362-80.178 34.362zm0 465.82c-126.003 0-210.002-61.091-210.002-141.269 0-83.999 76.366-110.728 103.086-122.182 49.637-15.275 114.54-19.087 126.003-19.087h26.729c91.632 64.912 129.815 95.453 129.815 152.723 0 76.366-61.091 129.815-175.631 129.815z"/></svg>