<!-- Generated by IcoMoon.io -->
<svg version="1.1" xmlns="http://www.w3.org/2000/svg" width="24" height="24" viewBox="0 0 24 24">
<title>google</title>
<path d="M12.365 9.871h11.181c1.526 7.607-4.156 14.833-12.089 14.129-5.29-0.295-9.858-4.255-10.954-9.652-2.139-10.79 10.401-18.569 19.106-11.838 0.198 0.149 0.383 0.316 0.545 0.449l-3.483 3.485c-1.177-0.952-2.693-1.529-4.343-1.529-0.385 0-0.763 0.031-1.131 0.092l0.040-0.005c-1.533 0.221-2.873 0.919-3.895 1.936l0-0c-4.923 4.91-0.783 13.19 6.261 12.115 2.656-0.337 4.657-2.095 5.123-4.555h-6.363z"></path>
</svg>
