<svg xmlns="http://www.w3.org/2000/svg" viewBox="0 0 1024 1024"><path d="M573.952 452.642c-21.872 7.112-47.04 11.212-73.165 11.212s-51.293-4.1-74.894-11.693l1.73.481L29.799 304.06c-40.038-15.053-40.038-37.888.922-50.893l395.571-124.314c22.333-6.145 47.977-9.676 74.445-9.676s52.111 3.531 76.485 10.148l-2.04-.472 397.619 124.416c40.96 12.902 41.574 35.635 1.331 50.586zM16.691 340.821v251.085c.76 10.176 9.203 18.144 19.507 18.144s18.747-7.968 19.503-18.079l.004-.065V355.362zm713.933 105.984l74.65 66.253V408.303l-85.299 31.642c4.063 1.942 7.564 4.232 10.718 6.918l-.068-.057zm-77.926 35.84a46.017 46.017 0 0 1 3.905-19.342l-.116.296-68.915 25.6c-46.797 18.534-126.771 18.534-173.67-.102L196.2 407.791v233.062c72.294 37.683 274.022 109.261 460.083 53.76zm239.82 463.872h-.007a7.782 7.782 0 0 1-6.834-4.055l-.02-.041-75.571-139.674-98.202 101.478a7.56 7.56 0 0 1-5.565 2.434 7.55 7.55 0 0 1-2.984-.61l.049.019c-2.852-1.152-4.843-3.867-4.915-7.057v-.009l-7.066-417.587a7.782 7.782 0 0 1 13.011-5.933l-.006-.006 316.928 281.088a7.782 7.782 0 0 1-5.011 13.619h-.007l-132.198 2.253 71.68 132.301a7.392 7.392 0 0 1 .966 3.675c0 .809-.128 1.588-.366 2.317l.015-.053a7.934 7.934 0 0 1-3.648 4.588l-.039.02-56.218 30.72a8.044 8.044 0 0 1-3.007.572 8.28 8.28 0 0 1-1.027-.064l.04.004z"/></svg>