<svg xmlns="http://www.w3.org/2000/svg" viewBox="0 0 1024 1024"><path d="M6.46 851.133a7595.6 7595.6 0 0 0 24.916-26.851c41.565-44.572 64.225-97.735 71.529-157.772.43-3.116-2.362-8.055-5.048-9.987-31.575-21.373-32.114-63.904-1.075-85.813 3.328-2.362 6.659-6.874 6.98-10.741 4.618-46.289 13.639-90.97 44.357-129.849-7.41-2.577-13.854-4.939-20.298-7.089-28.032-9.345-55.955-18.687-83.987-28.032-12.458-4.188-18.042-10.526-18.151-19.977 0-9.56 5.584-16.11 17.936-20.192 155.625-51.876 311.356-103.858 467.088-155.301 6.765-2.256 15.574-2.147 22.339.106 155.516 51.446 310.82 103.319 466.121 155.09 9.881 3.328 17.83 8.27 18.366 19.868.43 9.775-5.478 16.219-18.581 20.622-155.301 51.767-310.496 103.643-465.906 155.09-6.55 2.147-14.929 2.686-21.373.536-82.915-27.066-165.612-54.883-248.312-82.376-1.29-.43-2.362-1.181-5.048-2.362 14.284-5.908 27.281-11.598 40.599-16.646 74.86-28.677 149.826-57.245 224.683-85.707 10.741-4.082 19.441-9.56 20.513-22.124.86-9.881-3.007-17.721-11.598-22.875s-17.615-3.543-26.206-.321c-53.914 20.192-107.937 40.06-161.639 61.003-36.517 14.284-72.28 30.179-108.582 45.002-49.941 20.298-74.751 58.856-81.84 110.732-.645 4.297-.966 8.7-1.932 12.997-2.901 12.673-1.29 22.124 9.56 32.544 19.441 18.581 17.291 49.941-2.256 68.737-4.939 4.727-5.478 8.915-4.618 14.929 5.693 43.606 11.386 87.424 5.263 131.46-4.939 35.336-20.943 64.979-50.801 85.813-12.567 8.806-26.1 12.458-40.705 4.939a3480.696 3480.696 0 0 1-52.627-27.496c-3.222-1.826-5.693-4.727-9.666-7.949zm215.663-165.827c14.178-17.291 22.875-35.657 20.943-57.781-2.147-24.595-11.062-45.432-31.575-60.467-2.256-1.611-4.939-4.512-4.939-6.765 0-17.721.43-35.442 7.734-52.733 41.886 13.963 83.236 27.711 124.586 41.456 52.197 17.4 104.503 34.476 156.485 52.412 17.615 6.014 34.367 6.123 52.091.106 92.796-31.36 185.804-62.078 278.706-93.117 3.758-1.29 7.625-2.147 11.922-3.328.43 2.362.966 3.867.966 5.478 0 44.036.321 88.069-.106 132.105-.215 29.858-19.226 48.439-41.565 64.01-34.797 24.165-74.321 37.053-115.026 46.504-78.297 18.042-157.451 21.052-237.356 13.318-54.453-5.263-107.51-16.11-157.987-37.483-24.059-10.311-46.398-23.09-64.87-43.712z"/></svg>