<!-- Generated by IcoMoon.io -->
<svg version="1.1" xmlns="http://www.w3.org/2000/svg" width="24" height="24" viewBox="0 0 24 24">
<title>graduate-pointer</title>
<path d="M13.452 10.109c-0.513 0.167-1.102 0.263-1.715 0.263s-1.202-0.096-1.755-0.274l0.041 0.011-9.324-3.482c-0.938-0.353-0.938-0.888 0.022-1.193l9.271-2.914c0.523-0.144 1.124-0.227 1.745-0.227s1.221 0.083 1.793 0.238l-0.048-0.011 9.319 2.916c0.96 0.302 0.974 0.835 0.031 1.186z"></path>
<path d="M0.391 7.488v5.885c0.018 0.239 0.216 0.425 0.457 0.425s0.439-0.187 0.457-0.424l0-0.002v-5.544z"></path>
<path d="M17.124 9.972l1.75 1.553v-2.455l-1.999 0.742c0.095 0.046 0.177 0.099 0.251 0.162l-0.002-0.001z"></path>
<path d="M15.298 10.812c-0-0.005-0-0.011-0-0.017 0-0.155 0.033-0.303 0.092-0.437l-0.003 0.007-1.615 0.6c-1.097 0.434-2.971 0.434-4.070-0.002l-5.102-1.906v5.462c1.694 0.883 6.422 2.561 10.783 1.26z"></path>
<path d="M20.918 21.684c-0 0-0 0-0 0-0.069 0-0.129-0.038-0.16-0.095l-0-0.001-1.771-3.274-2.302 2.378c-0.033 0.035-0.079 0.057-0.13 0.057-0.025 0-0.048-0.005-0.070-0.014l0.001 0c-0.067-0.027-0.114-0.091-0.115-0.165v-0l-0.166-9.787c-0-0.001-0-0.003-0-0.004 0-0.101 0.082-0.182 0.182-0.182 0.047 0 0.090 0.018 0.123 0.047l-0-0 7.428 6.588c0.038 0.034 0.062 0.082 0.062 0.137 0 0.1-0.080 0.181-0.179 0.182h-0l-3.098 0.053 1.68 3.101c0.014 0.025 0.023 0.054 0.023 0.086 0 0.019-0.003 0.037-0.009 0.054l0-0.001c-0.014 0.047-0.045 0.084-0.086 0.108l-0.001 0-1.318 0.72c-0.021 0.008-0.045 0.013-0.070 0.013-0.008 0-0.016-0.001-0.024-0.002l0.001 0z"></path>
</svg>
