<!-- Generated by IcoMoon.io -->
<svg version="1.1" xmlns="http://www.w3.org/2000/svg" width="24" height="24" viewBox="0 0 24 24">
<title>graduate</title>
<path d="M0.151 19.448c0.211-0.227 0.398-0.428 0.584-0.629 0.974-1.045 1.505-2.291 1.676-3.698 0.010-0.073-0.055-0.189-0.118-0.234-0.74-0.501-0.753-1.498-0.025-2.011 0.078-0.055 0.156-0.161 0.164-0.252 0.108-1.085 0.32-2.132 1.040-3.043-0.174-0.060-0.325-0.116-0.476-0.166-0.657-0.219-1.311-0.438-1.968-0.657-0.292-0.098-0.423-0.247-0.425-0.468 0-0.224 0.131-0.378 0.42-0.473 3.647-1.216 7.297-2.434 10.947-3.64 0.159-0.053 0.365-0.050 0.524 0.002 3.645 1.206 7.285 2.422 10.925 3.635 0.232 0.078 0.418 0.194 0.43 0.466 0.010 0.229-0.128 0.38-0.435 0.483-3.64 1.213-7.277 2.429-10.92 3.635-0.154 0.050-0.35 0.063-0.501 0.013-1.943-0.634-3.882-1.286-5.82-1.931-0.030-0.010-0.055-0.028-0.118-0.055 0.335-0.138 0.639-0.272 0.952-0.39 1.755-0.672 3.512-1.342 5.266-2.009 0.252-0.096 0.456-0.224 0.481-0.519 0.020-0.232-0.070-0.415-0.272-0.536s-0.413-0.083-0.614-0.008c-1.264 0.473-2.53 0.939-3.788 1.43-0.856 0.335-1.694 0.707-2.545 1.055-1.17 0.476-1.752 1.379-1.918 2.595-0.015 0.101-0.023 0.204-0.045 0.305-0.068 0.297-0.030 0.519 0.224 0.763 0.456 0.435 0.405 1.17-0.053 1.611-0.116 0.111-0.128 0.209-0.108 0.35 0.133 1.022 0.267 2.049 0.123 3.081-0.116 0.828-0.491 1.523-1.191 2.011-0.295 0.206-0.612 0.292-0.954 0.116-0.413-0.211-0.823-0.425-1.233-0.644-0.076-0.043-0.133-0.111-0.227-0.186z"></path>
<path d="M5.206 15.562c0.332-0.405 0.536-0.836 0.491-1.354-0.050-0.576-0.259-1.065-0.74-1.417-0.053-0.038-0.116-0.106-0.116-0.159 0-0.415 0.010-0.831 0.181-1.236 0.982 0.327 1.951 0.649 2.92 0.972 1.223 0.408 2.449 0.808 3.668 1.228 0.413 0.141 0.805 0.144 1.221 0.002 2.175-0.735 4.355-1.455 6.532-2.182 0.088-0.030 0.179-0.050 0.279-0.078 0.010 0.055 0.023 0.091 0.023 0.128 0 1.032 0.008 2.064-0.002 3.096-0.005 0.7-0.451 1.135-0.974 1.5-0.816 0.566-1.742 0.868-2.696 1.090-1.835 0.423-3.69 0.493-5.563 0.312-1.276-0.123-2.52-0.378-3.703-0.879-0.564-0.242-1.087-0.541-1.52-1.024z"></path>
</svg>
