<svg xmlns="http://www.w3.org/2000/svg" viewBox="0 0 1024 1024"><path d="M946.052 37.275H139.957c-34.2 0-62.008 27.806-62.008 62.008s27.806 62.008 62.008 62.008v496.058c0 34.2 27.806 62.008 62.008 62.008h310.037v96.791l-175.849 159.28c-12.692 11.432-13.66 31.1-2.132 43.792 11.626 12.692 31.198 13.66 43.792 2.132L512.002 899.76v98.63c0 17.148 13.854 31.004 31.004 31.004s31.004-13.854 31.004-31.004v-98.63l134.189 121.495c5.91 5.426 13.37 8.042 20.83 8.042 8.431 0 16.762-3.488 22.962-10.174 11.53-12.692 10.56-32.264-2.132-43.792L574.01 816.146v-96.791h310.037c34.2 0 62.008-27.806 62.008-62.008V161.289c34.2 0 62.008-27.806 62.008-62.008s-27.806-62.008-62.008-62.008zM812.541 276.584L595.517 485.859c-11.917 11.53-30.712 11.626-42.92.096l-95.82-91.072-138.546 144.456c-6.104 6.298-14.242 9.494-22.284 9.494-7.75 0-15.404-2.81-21.508-8.72-12.304-11.82-12.692-31.393-.872-43.792l159.958-166.645c11.82-12.11 31.393-12.596 43.696-.968l96.692 91.848 195.612-188.735c12.304-11.724 31.972-11.626 43.792.872 11.917 12.402 11.53 32.07-.776 43.89z"/></svg>