<!-- Generated by IcoMoon.io -->
<svg version="1.1" xmlns="http://www.w3.org/2000/svg" width="24" height="24" viewBox="0 0 24 24">
<title>graph</title>
<path d="M22.173 0.374h-18.893c-0.802 0-1.453 0.652-1.453 1.453s0.652 1.453 1.453 1.453v11.626c0 0.802 0.652 1.453 1.453 1.453h7.266v2.269l-4.121 3.733c-0.297 0.268-0.32 0.729-0.050 1.026 0.272 0.297 0.731 0.32 1.026 0.050l3.145-2.85v2.312c0 0.402 0.325 0.727 0.727 0.727s0.727-0.325 0.727-0.727v-2.312l3.145 2.848c0.139 0.127 0.313 0.188 0.488 0.188 0.198 0 0.393-0.082 0.538-0.238 0.27-0.297 0.247-0.756-0.050-1.026l-4.121-3.731v-2.269h7.266c0.802 0 1.453-0.652 1.453-1.453v-11.626c0.802 0 1.453-0.652 1.453-1.453s-0.652-1.453-1.453-1.453zM19.044 5.982l-5.086 4.905c-0.279 0.27-0.72 0.272-1.006 0.002l-2.246-2.134-3.247 3.386c-0.143 0.148-0.334 0.223-0.522 0.223-0.182 0-0.361-0.066-0.504-0.204-0.288-0.277-0.297-0.736-0.020-1.026l3.749-3.906c0.277-0.284 0.736-0.295 1.024-0.023l2.266 2.153 4.585-4.423c0.288-0.275 0.749-0.272 1.026 0.020 0.279 0.291 0.27 0.752-0.018 1.029v0z"></path>
</svg>
