<!-- Generated by IcoMoon.io -->
<svg version="1.1" xmlns="http://www.w3.org/2000/svg" width="24" height="24" viewBox="0 0 24 24">
<title>green</title>
<path d="M10.9 7.052c5.498-1.466 7.056-3.299 7.514-4.307-1.833-1.283-4.032-2.108-6.414-2.108-6.14 0-11.179 5.131-11.179 11.363 0 3.757 1.833 7.056 4.582 9.163-2.016-4.215-2.749-11.729 5.498-14.111z"></path>
<path d="M18.781 3.020c2.657 15.119-10.629 14.478-10.629 14.478-2.016-2.932 5.956-8.339 5.956-8.339-12.004 4.856-7.972 11.454-6.506 13.287 1.375 0.55 2.841 0.916 4.398 0.916 6.14 0 11.179-5.131 11.179-11.363 0-3.665-1.741-6.873-4.398-8.98z"></path>
</svg>
