<svg xmlns="http://www.w3.org/2000/svg" viewBox="0 0 1024 1024"><path d="M465.086 322.208c234.582-62.552 301.049-140.753 320.591-183.753C707.486 83.722 613.648 48.531 512 48.531c-261.954 0-476.983 218.944-476.983 484.802 0 160.296 78.191 301.049 195.486 390.973-86.01-179.848-117.286-500.44 234.582-602.087zm336.229-172.029C914.696 795.276 347.79 767.915 347.79 767.915 261.78 642.8 601.924 412.133 601.924 412.133 89.751 619.343 261.78 900.849 324.332 979.04c58.648 23.457 121.2 39.095 187.667 39.095 261.954 0 476.983-218.944 476.983-484.802 0-156.391-74.286-293.23-187.667-383.154z"/></svg>