<svg xmlns="http://www.w3.org/2000/svg" viewBox="0 0 1024 1024"><path d="M178.664 466.665h200.002c36.8 0 66.668-29.866 66.668-66.668V199.995c0-36.8-29.866-66.668-66.668-66.668H178.664c-36.8 0-66.668 29.866-66.668 66.668v200.002c0 36.8 29.866 66.668 66.668 66.668zm466.67 0h200.002c36.8 0 66.668-29.866 66.668-66.668V199.995c0-36.8-29.866-66.668-66.668-66.668H645.334c-36.8 0-66.668 29.866-66.668 66.668v200.002c0 36.8 29.866 66.668 66.668 66.668zM111.996 866.669c0 36.8 29.866 66.668 66.668 66.668h200.002c36.8 0 66.668-29.866 66.668-66.668V666.667c0-36.8-29.866-66.668-66.668-66.668H178.664c-36.8 0-66.668 29.866-66.668 66.668v200.002zm466.672 0c0 36.8 29.866 66.668 66.668 66.668h200.002c36.8 0 66.668-29.866 66.668-66.668V666.667c0-36.8-29.866-66.668-66.668-66.668H645.336c-36.8 0-66.668 29.866-66.668 66.668v200.002z"/></svg>