<!-- Generated by IcoMoon.io -->
<svg version="1.1" xmlns="http://www.w3.org/2000/svg" width="24" height="24" viewBox="0 0 24 24">
<title>grid</title>
<path d="M4.187 10.437h4.688c0.863 0 1.563-0.7 1.563-1.563v-4.688c0-0.862-0.7-1.563-1.563-1.563h-4.688c-0.863 0-1.563 0.7-1.563 1.563v4.688c0 0.863 0.7 1.563 1.563 1.563zM15.125 10.437h4.688c0.863 0 1.563-0.7 1.563-1.563v-4.688c0-0.862-0.7-1.563-1.563-1.563h-4.688c-0.862 0-1.563 0.7-1.563 1.563v4.688c0 0.863 0.7 1.563 1.563 1.563zM2.625 19.813c0 0.863 0.7 1.563 1.563 1.563h4.688c0.863 0 1.563-0.7 1.563-1.563v-4.688c0-0.862-0.7-1.563-1.563-1.563h-4.688c-0.863 0-1.563 0.7-1.563 1.563v4.688zM13.563 19.813c0 0.863 0.7 1.563 1.563 1.563h4.688c0.862 0 1.563-0.7 1.563-1.563v-4.688c0-0.862-0.7-1.563-1.563-1.563h-4.688c-0.862 0-1.563 0.7-1.563 1.563v4.688z"></path>
</svg>
