<!-- Generated by IcoMoon.io -->
<svg version="1.1" xmlns="http://www.w3.org/2000/svg" width="24" height="24" viewBox="0 0 24 24">
<title>hair-salon</title>
<path d="M22.514 3.98l-2.916-2.236-0.023 0.028c-0.014-0.014-0.038-0.033-0.070-0.056-0.295-0.216-0.975-0.516-1.448-0.103v0c-2.283 2.011-4.205 4.997-6.464 8.738-0.436-0.858-0.755-1.72-1.064-2.559-0.839-2.273-1.702-4.627-4.941-6.778l-0.225-0.15 0.075 0.248c0.923 2.948 2.044 5.752 3.314 8.639 0.019 0.047 0.042 0.089 0.061 0.136-2.869-1.612-5.653-3.056-8.648-4.359 2.644 4.88 6.45 4.978 9.82 7.495 0.009 0.005 0.019 0.014 0.023 0.019 0.009 0.005 0.014 0.014 0.023 0.019 0.112 0.084 0.225 0.173 0.337 0.267 0.056 0.047 0.113 0.094 0.169 0.141 0.033 0.066 0.061 0.136 0.094 0.202 0.15 0.319 0.3 0.642 0.45 0.966 0.005 0.014 0.009 0.023 0.019 0.038 0.005 0.009 0.009 0.023 0.014 0.033 0.459 0.984 0.937 2.002 1.425 3.052-0.848 0.056-1.627 0.469-2.105 1.134-0.844 1.172-0.502 2.766 0.764 3.548 0.459 0.286 0.989 0.431 1.528 0.431 0.183 0 0.366-0.019 0.544-0.052 0.722-0.131 1.341-0.52 1.748-1.087 0.806-1.12 0.53-2.625-0.6-3.441-1.303-1.294-1.889-3.066-1.936-4.434 1.472 0.216 3.366 1.031 4.598 2.484 0.492 0.839 1.439 1.331 2.423 1.331 0.389 0 0.783-0.075 1.158-0.234 1.378-0.591 1.983-2.114 1.35-3.394-0.464-0.938-1.481-1.519-2.592-1.486-0.375 0.009-0.736 0.089-1.069 0.234-0.773 0.333-1.303 0.956-1.509 1.664-0.511-0.3-1.012-0.595-1.509-0.886-0.623-0.366-1.233-0.727-1.837-1.078 0.727-0.066 1.383 0.197 2.025 0.45 0.225 0.089 0.459 0.183 0.689 0.253 0.089 0.023 0.164 0.033 0.22 0.033 0.070 0 0.117-0.019 0.141-0.052 0.047-0.061 0.019-0.164-0.094-0.323l-0.005-0.005-3.248-1.781-0.45 0.713c0.258-0.431 0.511-0.839 0.764-1.238l3.173 1.791c0.164 0.084 0.244 0.112 0.286 0.112 0.019 0 0.033-0.005 0.042-0.019 0.023-0.028 0.009-0.075-0.141-0.225l-3.131-2.020c0.080-0.127 0.164-0.248 0.244-0.375l3.164 1.786c0.164 0.080 0.244 0.108 0.286 0.108 0.019 0 0.033-0.005 0.042-0.019 0.023-0.033 0.009-0.075-0.141-0.225l-3.112-2.006c0.094-0.136 0.183-0.272 0.277-0.408l3.127 1.767c0.169 0.089 0.248 0.117 0.286 0.117 0.023 0 0.033-0.009 0.038-0.019 0.023-0.028 0.009-0.075-0.15-0.225l-3.066-1.988c0.084-0.127 0.173-0.253 0.258-0.38l3.183 1.8c0.169 0.089 0.248 0.112 0.286 0.112 0.023 0 0.033-0.009 0.042-0.019 0.023-0.028 0.009-0.075-0.145-0.225l-3.127-2.016c0.089-0.127 0.178-0.258 0.267-0.384l2.953 1.669c0.159 0.080 0.239 0.108 0.286 0.108 0.019 0 0.033-0.005 0.042-0.019 0.023-0.033 0.009-0.075-0.15-0.225l-2.892-1.87c0.108-0.155 0.216-0.305 0.323-0.459l2.883 1.627c0.164 0.084 0.244 0.113 0.286 0.113 0.019 0 0.033-0.005 0.042-0.019 0.023-0.028 0.009-0.075-0.141-0.225l-2.831-1.828c0.080-0.112 0.159-0.22 0.239-0.333l2.986 1.688c0.169 0.089 0.248 0.117 0.286 0.117 0.019 0 0.033-0.009 0.038-0.019 0.023-0.028 0.009-0.075-0.15-0.225l-2.925-1.889c0.089-0.122 0.173-0.244 0.263-0.366l2.995 1.692c0.164 0.084 0.244 0.113 0.291 0.113 0.019 0 0.033-0.005 0.042-0.019 0.023-0.028 0.009-0.075-0.141-0.22l-2.944-1.903c0.098-0.136 0.197-0.277 0.295-0.412l3.023 1.706c0.169 0.089 0.248 0.117 0.286 0.117 0.019 0 0.033-0.009 0.037-0.019 0.023-0.028 0.009-0.075-0.15-0.225l-2.958-1.917c0.094-0.131 0.188-0.267 0.281-0.398l3.098 1.753c0.164 0.084 0.244 0.113 0.291 0.113 0.019 0 0.033-0.005 0.042-0.019 0.023-0.028 0.009-0.075-0.141-0.22l-3.047-1.969c0.098-0.141 0.197-0.281 0.295-0.422l3.023 1.706c0.164 0.084 0.244 0.112 0.286 0.112 0.019 0 0.033-0.005 0.042-0.019 0.023-0.028 0.009-0.075-0.141-0.225l-2.977-1.917c0.061-0.089 0.127-0.183 0.188-0.272l3.117 1.711c0.112 0.047 0.197 0.070 0.262 0.070 0.042 0 0.080-0.009 0.103-0.033 0.052-0.052 0.038-0.159-0.052-0.333zM18.834 13.753c0.192-0.084 0.403-0.127 0.623-0.136 0.647-0.019 1.237 0.319 1.509 0.862 0.37 0.745 0.019 1.631-0.788 1.978s-1.763 0.019-2.138-0.727c-0.366-0.741-0.014-1.631 0.792-1.978zM10.327 12.511c-0.005-0.009-0.014-0.019-0.019-0.028-0.080-0.112-0.122-0.248-0.122-0.394 0-0.328 0.23-0.605 0.548-0.703 0.080-0.023 0.164-0.037 0.248-0.037 0 0 0.005 0 0.005 0 0.009 0 0.023 0 0.033 0s0.023 0 0.033 0c0.052 0.005 0.108 0.014 0.155 0.028 0.028 0.009 0.061 0.019 0.089 0.028 0.066 0.038 0.131 0.075 0.197 0.117 0.173 0.136 0.281 0.337 0.281 0.563 0 0.337-0.239 0.619-0.567 0.708-0.075 0.019-0.15 0.033-0.23 0.033-0.089 0-0.173-0.014-0.248-0.038-0.155-0.047-0.291-0.136-0.384-0.258-0.005 0-0.009-0.009-0.019-0.019zM14.072 21.136c-0.239 0.328-0.6 0.553-1.017 0.633-0.422 0.080-0.848 0-1.209-0.225-0.736-0.455-0.938-1.383-0.445-2.067 0.295-0.412 0.797-0.661 1.331-0.666v0c0.005 0 0.009 0 0.009 0 0.314 0 0.619 0.084 0.886 0.248 0.736 0.464 0.938 1.392 0.445 2.077z"></path>
<path d="M10.012 14.152c-0.159-0.131-0.319-0.263-0.478-0.38-1.275 2.119-2.7 4.458-4.35 6.938-0.159 0.628-0.117 1.045 0.141 1.317 0.309 0.328 0.933 0.445 1.913 0.356 1.238-2.836 2.334-5.1 3.347-7.008-0.192-0.417-0.384-0.82-0.572-1.223z"></path>
</svg>
