<svg xmlns="http://www.w3.org/2000/svg" viewBox="0 0 1024 1024"><path d="M937.4 116.533H777.2c-10.8 0-19.6 8.8-19.6 19.6s8.8 19.6 19.6 19.6h160.2c10.8 0 19.6-8.8 19.6-19.6s-8.8-19.6-19.6-19.6zm0 68H777.2c-10.8 0-19.6 8.8-19.6 19.6s8.8 19.6 19.6 19.6h160.2c10.8 0 19.6-8.8 19.6-19.6s-8.8-19.6-19.6-19.6zm0 67.4H777.2c-10.8 0-19.6 8.8-19.6 19.6s8.8 19.6 19.6 19.6h160.2c10.8 0 19.6-8.8 19.6-19.6s-8.8-19.6-19.6-19.6zm0 68H777.2c-10.8 0-19.6 8.8-19.6 19.6s8.8 19.6 19.6 19.6h160.2c10.8 0 19.6-8.8 19.6-19.6s-8.8-19.6-19.6-19.6zm0 67.4H777.2c-10.8 0-19.6 8.8-19.6 19.6s8.8 19.6 19.6 19.6h160.2c10.8 0 19.6-8.8 19.6-19.6 0-11-8.8-19.6-19.6-19.6zm0 68H777.2c-10.8 0-19.6 8.8-19.6 19.6s8.8 19.6 19.6 19.6h160.2c10.8 0 19.6-8.8 19.6-19.6s-8.8-19.6-19.6-19.6zm0 67.8H826c-39.6 0-71.8 32.2-71.8 71.8v380.6c-.2 6.8-5.8 12.4-12.6 12.4s-12.4-5.6-12.6-12.4v-864.2c0-13.4 11-24.4 24.4-24.4h184.2c13.2 0 23.8-10.6 23.8-23.8s-10.6-23.8-23.8-23.8H753.4c-39.6 0-71.8 32.2-71.8 71.8V976.133c.6 32.4 27.6 59 60 59s59.4-26.4 60-59v-.2-381.2c0-13.4 11-24.4 24.4-24.4h111.4c13.2 0 23.8-10.6 23.8-23.8s-10.6-23.4-23.8-23.4zm-643-202l45.4 137v.2c0 .2.2.2.2.4l.2.2s.2.2.4.2h.2c.2 0 .2 0 .4.2h.8c.2 0 .2-.2.4-.2 0 0 .2 0 .2-.2l.2-.2.2-.2v-.2-.4s10.4-16.4 12.6-31.6l28-360.8c-18.6-18-19.2-18.8-20-19s-1.6.4-1.8 1.2l-67.2 272.6V320.933c-.2 0-.2 0-.2.2zm335.2 703c-.2-.2-.2-.2 0 0l-.4-.4s-.2-.2-.4-.2c0 0-.2 0-.2-.2-40.8-11.8-65.2-53-55.6-94 5.4-21.6 5-44.6-.8-66.8-6-22.4-17.4-42.4-33-57.6-14.2-13.8-29.6-23.2-46-27.6-30.2-9-51.6-36.8-53.2-69-1-19.8-7.8-38.8-19.4-54.8-36.2-49.8-65.6-104.6-87.4-163.2l-147.6-442.8v-.2c0-.2 0-.2-.2-.2l-.2-.2-.2-.2-.2-.2h-.2-.4-.2-.2-.2-.2c-.2 0-.2 0-.2.2l-.2.2-.2.2s0 .2-.2.2c0 0-10.2 8.4-10.2 25.2 0 11.2 70.4 453 70.4 453 .8 6.6 4.8 12.4 10.4 15.8 85 50.2 143.6 135.6 160.6 234.6 2 12-.8 24.4-8 36.2-25.8 43-25.2 98.2 1.2 140.8 9.8 15.8 25 29.4 44 39.2 12.2 6.4 24.8 9.4 38.2 9.4 8.2 0 16.8-1.2 25.6-3.6 17.6-5 35.4-1.2 47.8 10.2l17.8 15.8c7.6 5.8 16.8 8.6 26 8.6 7.8 0 15.8-2.2 23-6.4.2 0 .2-.2.4-.4s.2-.4.2-.4v-.4-.2-.2c-.4-.2-.4-.4-.4-.4zm-342.2-495c-11.8 0-21.4-9.6-21.4-21.4s9.6-21.4 21.4-21.4c11.8 0 21.4 9.6 21.4 21.4s-9.6 21.4-21.4 21.4zm260.2 398.6c-4.2 14.4-12.6 27.2-24.2 36.6-8.8 7.4-22 11.4-35 11.4-5.4 0-11-.8-16-2.4-12.8-4-25.6-12.6-35.8-24.2-14.2-16-23.2-38.4-25-61.4-1.8-24.2 4.4-46.6 17.8-63.4 12.6-15.8 30.8-24.2 50-22.6 39 3 65.6 43.8 70.8 80.8 2.4 18.2 1.6 32.4-2.6 45.2zm-262.4-342.4s0-.2-.2-.2l-.2-.2s0-.2-.2-.2c-15-12.2-28.8-22-42.4-29.8h-.2s-.2 0-.2-.2h-.4-.2c-.2 0-.2 0-.4.2 0 0-.2 0-.2.2l-.2.2-.2.2v.4c-7.8 34-19.4 69-36 106.8-7 17.2-17.6 32.4-30.6 44.4-7 6.4-15.8 10.6-25.2 12.2-24.4 4.4-47.6 18.2-65.4 38.6-28.6 32.8-39 82.4-25.6 123 12 36.8 44 60 79 60 7.4 0 14.8-1 22.4-3.2 39.6-11.2 71.8-45.8 83.8-90 1.6-5.6 2.8-11.4 3.6-17.2 3-21-.8-44.4-10.8-66.2-4.4-8.6-6.2-18.2-5-27.6 6.2-52.6 25.2-104.4 55.2-149.8v-.2s0-.2.2-.2v-.4-.4c-.6-.2-.6-.4-.6-.4zm-74.8 273.8c-8.8 20.4-21.8 36.4-37.6 46-11.2 6.8-23.8 10.4-36 10.4-7.8 0-15.4-1.4-22.4-4.4-14-6-25.8-18.6-32.2-34.2-5.6-13.8-7.2-30-4.8-47 2.8-19.4 10.2-37.4 21.8-51.8 12.2-15.2 28.6-26.4 46.4-31.4 13.2-3.6 25.6-2.8 36.6 2.4 20.6 10.2 34.4 31 37.2 55.6 2.2 17.2-1 36-9 54.4z"/></svg>