<svg xmlns="http://www.w3.org/2000/svg" viewBox="0 0 1024 1024"><path d="M960.6 191.133l-124.4-95.4-1 1.2c-.6-.6-1.6-1.4-3-2.4-12.6-9.2-41.6-22-61.8-4.4-97.4 85.8-179.4 213.2-275.8 372.8-18.6-36.6-32.2-73.4-45.4-109.2-35.8-97-72.6-197.4-210.8-289.2l-9.6-6.4 3.2 10.6c39.4 125.8 87.2 245.4 141.4 368.6.8 2 1.8 3.8 2.6 5.8-122.4-68.8-241.2-130.4-369-186 112.8 208.2 275.2 212.4 419 319.8.4.2.8.6 1 .8.4.2.6.6 1 .8 4.8 3.6 9.6 7.4 14.4 11.4l7.2 6c1.4 2.8 2.6 5.8 4 8.6 6.4 13.6 12.8 27.4 19.2 41.2.2.6.4 1 .8 1.6.2.4.4 1 .6 1.4 19.6 42 40 85.4 60.8 130.2-36.2 2.4-69.4 20-89.8 48.4-36 50-21.4 118 32.6 151.4 19.6 12.2 42.2 18.4 65.2 18.4 7.8 0 15.6-.8 23.2-2.2 30.8-5.6 57.2-22.2 74.6-46.4 34.4-47.8 22.6-112-25.6-146.8-55.6-55.2-80.6-130.8-82.6-189.2 62.8 9.2 143.6 44 196.2 106 21 35.8 61.4 56.8 103.4 56.8 16.6 0 33.4-3.2 49.4-10 58.8-25.2 84.6-90.2 57.6-144.8-19.8-40-63.2-64.8-110.6-63.4-16 .4-31.4 3.8-45.6 10-33 14.2-55.6 40.8-64.4 71-21.8-12.8-43.2-25.4-64.4-37.8-26.6-15.6-52.6-31-78.4-46 31-2.8 59 8.4 86.4 19.2 9.6 3.8 19.6 7.8 29.4 10.8 3.8 1 7 1.4 9.4 1.4 3 0 5-.8 6-2.2 2-2.6.8-7-4-13.8l-.2-.2-138.6-76-19.2 30.4c11-18.4 21.8-35.8 32.6-52.8l135.4 76.4c7 3.6 10.4 4.8 12.2 4.8.8 0 1.4-.2 1.8-.8 1-1.2.4-3.2-6-9.6l-133.6-86.2c3.4-5.4 7-10.6 10.4-16l135 76.2c7 3.4 10.4 4.6 12.2 4.6.8 0 1.4-.2 1.8-.8 1-1.4.4-3.2-6-9.6l-132.8-85.6c4-5.8 7.8-11.6 11.8-17.4l133.4 75.4c7.2 3.8 10.6 5 12.2 5 1 0 1.4-.4 1.6-.8 1-1.2.4-3.2-6.4-9.6l-130.8-84.8c3.6-5.4 7.4-10.8 11-16.2l135.8 76.8c7.2 3.8 10.6 4.8 12.2 4.8 1 0 1.4-.4 1.8-.8 1-1.2.4-3.2-6.2-9.6l-133.4-86c3.8-5.4 7.6-11 11.4-16.4l126 71.2c6.8 3.4 10.2 4.6 12.2 4.6.8 0 1.4-.2 1.8-.8 1-1.4.4-3.2-6.4-9.6l-123.4-79.8c4.6-6.6 9.2-13 13.8-19.6l123 69.4c7 3.6 10.4 4.8 12.2 4.8.8 0 1.4-.2 1.8-.8 1-1.2.4-3.2-6-9.6l-120.8-78c3.4-4.8 6.8-9.4 10.2-14.2l127.4 72c7.2 3.8 10.6 5 12.2 5 .8 0 1.4-.4 1.6-.8 1-1.2.4-3.2-6.4-9.6l-124.8-80.6c3.8-5.2 7.4-10.4 11.2-15.6l127.8 72.2c7 3.6 10.4 4.8 12.4 4.8.8 0 1.4-.2 1.8-.8 1-1.2.4-3.2-6-9.4l-125.6-81.2c4.2-5.8 8.4-11.8 12.6-17.6l129 72.8c7.2 3.8 10.6 5 12.2 5 .8 0 1.4-.4 1.6-.8 1-1.2.4-3.2-6.4-9.6l-126.2-81.8c4-5.6 8-11.4 12-17l132.2 74.8c7 3.6 10.4 4.8 12.4 4.8.8 0 1.4-.2 1.8-.8 1-1.2.4-3.2-6-9.4l-130-84 12.6-18 129 72.8c7 3.6 10.4 4.8 12.2 4.8.8 0 1.4-.2 1.8-.8 1-1.2.4-3.2-6-9.6l-127-81.8c2.6-3.8 5.4-7.8 8-11.6l133 73c4.8 2 8.4 3 11.2 3 1.8 0 3.4-.4 4.4-1.4 2.2-2.2 1.6-6.8-2.2-14.2zm-157 417c8.2-3.6 17.2-5.4 26.6-5.8 27.6-.8 52.8 13.6 64.4 36.8 15.8 31.8.8 69.6-33.6 84.4s-75.2.8-91.2-31c-15.6-31.6-.6-69.6 33.8-84.4zm-363-53c-.2-.4-.6-.8-.8-1.2-3.4-4.8-5.2-10.6-5.2-16.8 0-14 9.8-25.8 23.4-30 3.4-1 7-1.6 10.6-1.6h3c2.2.2 4.6.6 6.6 1.2 1.2.4 2.6.8 3.8 1.2 2.8 1.6 5.6 3.2 8.4 5 7.4 5.8 12 14.4 12 24 0 14.4-10.2 26.4-24.2 30.2-3.2.8-6.4 1.4-9.8 1.4-3.8 0-7.4-.6-10.6-1.6-6.6-2-12.4-5.8-16.4-11-.2 0-.4-.4-.8-.8zm159.8 368c-10.2 14-25.6 23.6-43.4 27-18 3.4-36.2 0-51.6-9.6-31.4-19.4-40-59-19-88.2 12.6-17.6 34-28.2 56.8-28.4h.4c13.4 0 26.4 3.6 37.8 10.6 31.4 19.8 40 59.4 19 88.6zm-173.2-298c-6.8-5.6-13.6-11.2-20.4-16.2-54.4 90.4-115.2 190.2-185.6 296-6.8 26.8-5 44.6 6 56.2 13.2 14 39.8 19 81.6 15.2 52.8-121 99.6-217.6 142.8-299-8.2-17.8-16.4-35-24.4-52.2z"/></svg>