<!-- Generated by IcoMoon.io -->
<svg version="1.1" xmlns="http://www.w3.org/2000/svg" width="24" height="24" viewBox="0 0 24 24">
<title>hair</title>
<path d="M21.97 2.231h-3.755c-0.253 0-0.459 0.206-0.459 0.459s0.206 0.459 0.459 0.459h3.755c0.253 0 0.459-0.206 0.459-0.459s-0.206-0.459-0.459-0.459z"></path>
<path d="M21.97 3.825h-3.755c-0.253 0-0.459 0.206-0.459 0.459s0.206 0.459 0.459 0.459h3.755c0.253 0 0.459-0.206 0.459-0.459s-0.206-0.459-0.459-0.459z"></path>
<path d="M21.97 5.405h-3.755c-0.253 0-0.459 0.206-0.459 0.459s0.206 0.459 0.459 0.459h3.755c0.253 0 0.459-0.206 0.459-0.459s-0.206-0.459-0.459-0.459z"></path>
<path d="M21.97 6.998h-3.755c-0.253 0-0.459 0.206-0.459 0.459s0.206 0.459 0.459 0.459h3.755c0.253 0 0.459-0.206 0.459-0.459s-0.206-0.459-0.459-0.459z"></path>
<path d="M21.97 8.578h-3.755c-0.253 0-0.459 0.206-0.459 0.459s0.206 0.459 0.459 0.459h3.755c0.253 0 0.459-0.206 0.459-0.459 0-0.258-0.206-0.459-0.459-0.459z"></path>
<path d="M21.97 10.172h-3.755c-0.253 0-0.459 0.206-0.459 0.459s0.206 0.459 0.459 0.459h3.755c0.253 0 0.459-0.206 0.459-0.459s-0.206-0.459-0.459-0.459z"></path>
<path d="M21.97 11.761h-2.611c-0.928 0-1.683 0.755-1.683 1.683v8.92c-0.005 0.159-0.136 0.291-0.295 0.291s-0.291-0.131-0.295-0.291v-20.255c0-0.314 0.258-0.572 0.572-0.572h4.317c0.309 0 0.558-0.248 0.558-0.558s-0.248-0.558-0.558-0.558h-4.317c-0.928 0-1.683 0.755-1.683 1.683v20.264c0 0 0 0.005 0 0.005s0 0.005 0 0.005c0.014 0.759 0.647 1.383 1.406 1.383s1.392-0.619 1.406-1.383c0 0 0-0.005 0-0.005s0-0.005 0-0.005v-8.93c0-0.314 0.258-0.572 0.572-0.572h2.611c0.309 0 0.558-0.248 0.558-0.558s-0.248-0.548-0.558-0.548z"></path>
<path d="M6.9 7.027l1.064 3.211c0 0 0 0 0 0s0 0 0 0.005 0.005 0.005 0.005 0.009c0 0 0 0 0.005 0.005 0 0 0.005 0.005 0.009 0.005 0 0 0.005 0 0.005 0 0.005 0 0.005 0 0.009 0.005 0 0 0 0 0.005 0 0 0 0 0 0 0s0 0 0 0c0.005 0 0.009 0 0.014 0 0 0 0 0 0 0 0.005 0 0.005-0.005 0.009-0.005 0 0 0.005 0 0.005-0.005 0 0 0.005-0.005 0.005-0.005s0.005-0.005 0.005-0.005c0 0 0-0.005 0-0.005 0-0.005 0-0.005 0-0.009 0 0 0.244-0.384 0.295-0.741l0.656-8.456c-0.436-0.422-0.45-0.441-0.469-0.445s-0.037 0.009-0.042 0.028l-1.575 6.389c0 0 0 0 0 0.005s0 0.005 0 0.009c-0.005 0-0.005 0-0.005 0.005 0 0 0 0 0 0z"></path>
<path d="M14.756 23.503c0 0 0 0 0 0-0.005-0.005-0.005-0.005 0 0-0.005-0.005-0.009-0.009-0.009-0.009s-0.005-0.005-0.009-0.005c0 0-0.005 0-0.005-0.005-0.956-0.277-1.528-1.242-1.303-2.203 0 0 0 0 0 0 0.127-0.506 0.117-1.045-0.019-1.566-0.141-0.525-0.408-0.994-0.773-1.35-0.333-0.323-0.694-0.544-1.078-0.647-0.708-0.211-1.209-0.862-1.247-1.617-0.023-0.464-0.183-0.909-0.455-1.284 0 0 0 0 0 0-0.848-1.167-1.537-2.452-2.048-3.825l-3.459-10.378c0 0 0 0 0-0.005s0-0.005-0.005-0.005c0 0-0.005-0.005-0.005-0.005s-0.005-0.005-0.005-0.005c0 0-0.005-0.005-0.005-0.005s-0.005 0-0.005 0-0.005 0-0.009 0c0 0 0 0-0.005 0 0 0 0 0-0.005 0 0 0-0.005 0-0.005 0s0 0-0.005 0-0.005 0-0.005 0.005c0 0-0.005 0.005-0.005 0.005s-0.005 0.005-0.005 0.005c0 0 0 0.005-0.005 0.005 0 0-0.239 0.197-0.239 0.591 0 0.263 1.65 10.617 1.65 10.617s0 0 0 0c0.019 0.155 0.112 0.291 0.244 0.37 0 0 0 0 0 0 1.992 1.177 3.366 3.178 3.764 5.498 0.047 0.281-0.019 0.572-0.188 0.848 0 0 0 0 0 0s0 0 0 0c-0.605 1.008-0.591 2.302 0.028 3.3 0.23 0.37 0.586 0.689 1.031 0.919 0.286 0.15 0.581 0.22 0.895 0.22 0.192 0 0.394-0.028 0.6-0.084 0 0 0 0 0 0s0 0 0 0c0.413-0.117 0.83-0.028 1.12 0.239 0 0 0 0 0 0s0 0 0 0l0.417 0.37c0 0 0 0 0 0s0 0 0 0c0.178 0.136 0.394 0.202 0.609 0.202 0.183 0 0.37-0.052 0.539-0.15 0 0 0 0 0 0 0.005 0 0.005-0.005 0.009-0.009 0 0 0 0 0 0 0.005-0.005 0.005-0.009 0.005-0.009s0 0 0 0c0-0.005 0-0.005 0-0.009 0 0 0-0.005 0-0.005s0-0.005 0-0.005c-0.009-0.005-0.009-0.009-0.009-0.009zM6.736 11.902c-0.277 0-0.502-0.225-0.502-0.502s0.225-0.502 0.502-0.502c0.277 0 0.502 0.225 0.502 0.502s-0.225 0.502-0.502 0.502zM12.834 21.244c0 0 0 0 0 0-0.098 0.337-0.295 0.638-0.567 0.858 0 0 0 0 0 0s0 0 0 0 0 0 0 0 0 0 0 0c-0.206 0.173-0.516 0.267-0.82 0.267-0.127 0-0.258-0.019-0.375-0.056-0.3-0.094-0.6-0.295-0.839-0.567-0.333-0.375-0.544-0.9-0.586-1.439-0.042-0.567 0.103-1.092 0.417-1.486 0.295-0.37 0.722-0.567 1.172-0.53 0.914 0.070 1.538 1.027 1.659 1.894 0.056 0.427 0.037 0.759-0.061 1.059z"></path>
<path d="M6.684 13.219c0 0 0-0.005-0.005-0.005 0 0-0.005-0.005-0.005-0.005s0-0.005-0.005-0.005c-0.352-0.286-0.675-0.516-0.994-0.698 0 0-0.005 0-0.005 0s-0.005 0-0.005-0.005c0 0 0 0 0 0-0.005 0-0.005 0-0.009 0 0 0-0.005 0-0.005 0-0.005 0-0.005 0-0.009 0.005 0 0-0.005 0-0.005 0.005 0 0-0.005 0.005-0.005 0.005s-0.005 0.005-0.005 0.005c0 0 0 0 0 0s0 0.005 0 0.005c0 0 0 0.005 0 0.005-0.183 0.797-0.455 1.617-0.844 2.503 0 0 0 0 0 0s0 0 0 0c-0.164 0.403-0.413 0.759-0.717 1.041-0.164 0.15-0.37 0.248-0.591 0.286 0 0 0 0 0 0s0 0 0 0c-0.572 0.103-1.116 0.427-1.533 0.905-0.67 0.769-0.914 1.931-0.6 2.883 0.281 0.863 1.031 1.406 1.852 1.406 0.173 0 0.347-0.023 0.525-0.075 0.928-0.262 1.683-1.073 1.964-2.109 0.038-0.131 0.066-0.267 0.084-0.403 0.070-0.492-0.019-1.041-0.253-1.552 0 0 0 0 0 0s0 0 0 0c-0.103-0.202-0.145-0.427-0.117-0.647 0.145-1.233 0.591-2.447 1.294-3.511 0 0 0-0.005 0-0.005s0-0.005 0.005-0.005c0-0.005 0-0.005 0-0.009s0-0.005 0-0.009c-0.014-0.005-0.014-0.009-0.014-0.009zM4.931 19.636c-0.206 0.478-0.511 0.853-0.881 1.078-0.263 0.159-0.558 0.244-0.844 0.244-0.183 0-0.361-0.033-0.525-0.103-0.328-0.141-0.605-0.436-0.755-0.802-0.131-0.323-0.169-0.703-0.113-1.102 0.066-0.455 0.239-0.877 0.511-1.214 0.286-0.356 0.67-0.619 1.087-0.736 0.309-0.084 0.6-0.066 0.858 0.056 0 0 0 0 0 0 0.483 0.239 0.806 0.727 0.872 1.303 0.052 0.403-0.023 0.844-0.211 1.275z"></path>
</svg>
