<!-- Generated by IcoMoon.io -->
<svg version="1.1" xmlns="http://www.w3.org/2000/svg" width="24" height="24" viewBox="0 0 24 24">
<title>hand-money</title>
<path d="M17.4 1.35c-3.375 0-6.15 2.775-6.15 6.15s2.775 6.15 6.15 6.15 6.15-2.775 6.15-6.15c0-3.375-2.775-6.15-6.15-6.15zM17.4 12.225c-2.625 0-4.725-2.1-4.725-4.725s2.1-4.725 4.725-4.725 4.725 2.1 4.725 4.725-2.1 4.725-4.725 4.725z"></path>
<path d="M22.275 16.575c-1.275 0.75-3.075 1.35-4.875 1.65-1.575 0.225-4.575-0.375-4.575-1.050 0-0.3 2.625 0.675 4.2 0.225 1.2-0.3 1.050-1.425 0.375-1.575s-4.5-1.575-6.15-1.575c-0.75 0-3.3 0.525-4.2 0.675-0.3 0.075-0.525 0.075-0.525 0.375-0.075 1.425-0.075 5.1-0.075 5.1s0.15 0.225 0.375 0.15c0.45-0.225 1.5-0.15 1.95 0 0.75 0.15 7.35 1.275 8.325 1.125 1.35-0.3 5.175-2.55 5.85-3.3 1.125-1.2 0.3-2.325-0.675-1.8z"></path>
<path d="M5.025 14.55l-3.45-0.15c-0.3 0-0.525 0.225-0.6 0.45v5.775c0 0.375 0.3 0.6 0.6 0.6h3.3c0.3 0 0.525-0.225 0.525-0.45l0.075-5.7c0-0.225-0.225-0.525-0.45-0.525zM3.15 20.475c-0.525 0-0.975-0.45-0.975-0.975s0.45-0.975 0.975-0.975 0.975 0.45 0.975 0.975c0 0.525-0.45 0.975-0.975 0.975z"></path>
<path d="M17.85 6.75c-0.825-0.3-1.050-0.525-1.050-0.9 0-0.3 0.225-0.6 0.825-0.6 0.525 0 0.975 0.225 0.975 0.225 0.075 0 0.075 0 0.15 0 0.15 0 0.225-0.075 0.3-0.15l0.15-0.375c0.075-0.15 0-0.3-0.15-0.3-0.375-0.225-1.050-0.375-1.050-0.375s-0.075 0-0.075-0.075v-0.6c0-0.15-0.15-0.3-0.3-0.3h-0.3c-0.15 0-0.3 0.15-0.3 0.3v0.6c0 0.075-0.075 0.075-0.075 0.075-0.825 0.225-1.35 0.825-1.35 1.575 0 0.975 0.825 1.425 1.65 1.725 0.675 0.3 0.975 0.525 0.975 0.975s-0.375 0.75-0.975 0.75c-0.525 0-1.125-0.3-1.125-0.3-0.075 0-0.075 0-0.15 0-0.15 0-0.225 0.075-0.3 0.225l-0.15 0.375c-0.075 0.15 0 0.3 0.15 0.3 0.375 0.225 1.2 0.3 1.2 0.375 0 0 0.075 0 0.075 0.075v0.6c0 0.15 0.15 0.3 0.3 0.3h0.3c0.15 0 0.3-0.15 0.3-0.3v-0.6c0-0.075 0.075-0.075 0.075-0.075 0.9-0.225 1.425-0.825 1.425-1.65 0.075-0.9-0.375-1.425-1.5-1.875z"></path>
</svg>
