<svg xmlns="http://www.w3.org/2000/svg" viewBox="0 0 1024 1024"><path d="M945.92 730.197c-64.512 37.888-155.648 68.352-246.784 83.456-79.616 11.264-231.68-18.944-231.68-53.248 0-15.104 132.864 34.048 212.48 11.264 60.672-15.104 53.248-72.192 18.944-79.616s-227.84-79.616-311.296-79.616c-98.304 0-166.912 34.304-212.48 41.984-72.448 29.952-133.12-5.632-132.352 14.336 1.28 32.256 0 209.92 0 209.92s7.68 11.264 18.944 7.68c22.784-11.264 119.552 2.304 185.344 37.12 124.928 66.304 387.328 72.704 436.736 65.024 68.352-15.104 261.888-129.024 296.192-166.912 57.088-61.184 15.36-118.016-34.048-91.392zm3.84-534.272C874.24 79.189 728.832 121.941 672 170.837c-56.832-48.896-202.24-91.648-277.76 25.088-118.784 183.808 106.24 363.008 262.656 451.328 3.84 2.304 8.448 3.584 15.104 3.584s11.264-1.28 15.104-3.584c156.416-88.32 381.44-267.52 262.656-451.328z"/></svg>