<svg xmlns="http://www.w3.org/2000/svg" viewBox="0 0 1024 1024"><path d="M976 325.333H873.6c-16 0-28.8 6.4-38.4 19.2-6.4-3.2-9.6-6.4-16-9.6H656c9.6-12.8 19.2-25.6 25.6-41.6 6.4-19.2 6.4-41.6-3.2-54.4-12.8-16-32-25.6-57.6-25.6H457.6c-51.2 0-92.8 25.6-128 51.2-60.8 44.8-118.4 76.8-140.8 76.8h-3.2c-9.6-9.6-22.4-16-35.2-16H48c-25.6 0-48 22.4-48 48v339.2c0 25.6 22.4 48 48 48h102.4c16 0 28.8-6.4 38.4-19.2 3.2 0 6.4 3.2 9.6 3.2h118.4c9.6 0 25.6 12.8 38.4 25.6 19.2 22.4 64 76.8 124.8 83.2 44.8 6.4 70.4-16 83.2-28.8h3.2c19.2 9.6 48 28.8 80 28.8h9.6c41.6-3.2 60.8-38.4 70.4-57.6h6.4c41.6-9.6 89.6-19.2 108.8-44.8 9.6 6.4 19.2 12.8 32 12.8H976c25.6 0 48-22.4 48-48v-342.4c0-25.6-22.4-48-48-48zm-876.8 393.6c-19.2 0-35.2-16-35.2-35.2s16-35.2 35.2-35.2c19.2 0 35.2 16 35.2 35.2s-16 35.2-35.2 35.2zm710.4-339.2v236.8c-44.8-38.4-182.4-147.2-185.6-147.2l-6.4-6.4h-70.4l-6.4 6.4s-38.4 32-67.2 57.6c-19.2 19.2-64 28.8-92.8 16-9.6-3.2-16-9.6-16-12.8s0-6.4 6.4-12.8l51.2-51.2c38.4-35.2 64-60.8 70.4-70.4 6.4-6.4 22.4-16 44.8-19.2h272zm-3.2 339.2c-9.6 16-64 25.6-80 28.8-12.8 3.2-19.2 3.2-25.6 6.4s-12.8 12.8-16 19.2-16 28.8-35.2 32c-19.2 3.2-44.8-12.8-60.8-22.4s-25.6-12.8-38.4-9.6c-6.4 3.2-12.8 6.4-16 12.8-9.6 9.6-19.2 22.4-48 19.2-44.8-6.4-83.2-51.2-92.8-67.2-12.8-16-41.6-41.6-73.6-41.6H198.4v-310.4c44.8-6.4 118.4-54.4 160-86.4 28.8-22.4 64-41.6 99.2-41.6h163.2c9.6 0 16 3.2 19.2 6.4v12.8c-3.2 9.6-22.4 48-73.6 57.6h-12.8c-38.4 0-73.6 12.8-92.8 35.2l-67.2 67.2c-25.6 22.4-44.8 44.8-54.4 51.2-12.8 16-19.2 35.2-16 51.2 3.2 12.8 12.8 32 41.6 48 48 22.4 112 6.4 144-22.4 19.2-19.2 48-41.6 57.6-51.2h35.2c28.8 22.4 140.8 112 179.2 144 44.8 35.2 32 51.2 25.6 60.8zm118.4-9.6c-19.2 0-35.2-16-35.2-35.2s16-35.2 35.2-35.2c19.2 0 35.2 16 35.2 35.2s-16 35.2-35.2 35.2z"/></svg>