<!-- Generated by IcoMoon.io -->
<svg version="1.1" xmlns="http://www.w3.org/2000/svg" width="24" height="24" viewBox="0 0 24 24">
<title>hand</title>
<path d="M21.675 11.025c-0.15-0.225-0.45-0.375-0.75-0.375-0.6 0-1.35 0.225-1.875 0.6s-1.275 0.975-1.95 2.1c-0.15 0.225-0.3 0.375-0.525 0.375 0-0.075 0-0.075 0-0.15s0-0.225 0-0.375l0.675-8.7c0-0.825-0.675-1.425-1.425-1.425s-1.425 0.675-1.425 1.425l-0.675 6.3c0 0.075-0.075 0.15-0.15 0.15s-0.15-0.075-0.15-0.15v-8.175c0-0.825-0.675-1.425-1.425-1.425s-1.575 0.6-1.575 1.425l0.075 8.025c0 0.3-0.15 0.3-0.225 0.3s-0.15-0.075-0.15-0.15l-0.375-7.2c0-0.675-0.6-1.275-1.275-1.275s-1.275 0.6-1.5 1.275l0.675 7.8c0 0.15-0.075 0.225-0.15 0.3-0.075 0-0.225-0.075-0.225-0.225l-0.9-4.65c0-0.675-0.6-1.275-1.275-1.275-0.75 0-1.275 0.6-1.275 1.275l0.825 10.050c0.375 5.1 3.45 5.775 6.45 5.775 2.475 0 4.725-1.2 5.85-3.225 0.15-0.225 0.525-0.825 0.975-1.575 1.125-1.8 2.1-3.3 2.25-3.525 0.3-0.6 0.675-1.050 0.975-1.35 0.3-0.225 0.525-0.6 0.675-0.9 0-0.15 0.075-0.675-0.15-1.050z"></path>
</svg>
