<!-- Generated by IcoMoon.io -->
<svg version="1.1" xmlns="http://www.w3.org/2000/svg" width="24" height="24" viewBox="0 0 24 24">
<title>handshake</title>
<path d="M22.875 7.125h-2.4c-0.375 0-0.675 0.15-0.9 0.45-0.15-0.075-0.225-0.15-0.375-0.225h-3.825c0.225-0.3 0.45-0.6 0.6-0.975 0.15-0.45 0.15-0.975-0.075-1.275-0.3-0.375-0.75-0.6-1.35-0.6h-3.825c-1.2 0-2.175 0.6-3 1.2-1.425 1.050-2.775 1.8-3.3 1.8h-0.075c-0.225-0.225-0.525-0.375-0.825-0.375h-2.4c-0.6 0-1.125 0.525-1.125 1.125v7.95c0 0.6 0.525 1.125 1.125 1.125h2.4c0.375 0 0.675-0.15 0.9-0.45 0.075 0 0.15 0.075 0.225 0.075h2.775c0.225 0 0.6 0.3 0.9 0.6 0.45 0.525 1.5 1.8 2.925 1.95 1.050 0.15 1.65-0.375 1.95-0.675 0 0 0.075 0 0.075 0 0.45 0.225 1.125 0.675 1.875 0.675 0.075 0 0.15 0 0.225 0 0.975-0.075 1.425-0.9 1.65-1.35 0 0 0 0 0 0 0.075 0 0.15 0 0.15 0 0.975-0.225 2.1-0.45 2.55-1.050 0.225 0.15 0.45 0.3 0.75 0.3h2.4c0.6 0 1.125-0.525 1.125-1.125v-8.025c0-0.6-0.525-1.125-1.125-1.125zM2.325 16.35c-0.45 0-0.825-0.375-0.825-0.825s0.375-0.825 0.825-0.825c0.45 0 0.825 0.375 0.825 0.825s-0.375 0.825-0.825 0.825zM18.975 8.4c0 0 0 0 0 0v5.55c-1.050-0.9-4.275-3.45-4.35-3.45l-0.15-0.15h-1.65l-0.15 0.15c0 0-0.9 0.75-1.575 1.35-0.45 0.45-1.5 0.675-2.175 0.375-0.225-0.075-0.375-0.225-0.375-0.3s0-0.15 0.15-0.3c0.15-0.15 0.675-0.675 1.2-1.2 0.9-0.825 1.5-1.425 1.65-1.65 0.15-0.15 0.525-0.375 1.050-0.45 0.075 0 0.075 0 0.15 0 0.15 0 0.375 0 0.525 0h5.7zM18.9 16.35c-0.225 0.375-1.5 0.6-1.875 0.675-0.3 0.075-0.45 0.075-0.6 0.15s-0.3 0.3-0.375 0.45-0.375 0.675-0.825 0.75c-0.45 0.075-1.050-0.3-1.425-0.525s-0.6-0.3-0.9-0.225c-0.15 0.075-0.3 0.15-0.375 0.3-0.225 0.225-0.45 0.525-1.125 0.45-1.050-0.15-1.95-1.2-2.175-1.575-0.3-0.375-0.975-0.975-1.725-0.975h-2.85c0 0 0 0 0 0v-7.275c1.050-0.15 2.775-1.275 3.75-2.025 0.675-0.525 1.5-0.975 2.325-0.975h3.825c0.225 0 0.375 0.075 0.45 0.15 0 0.075 0 0.225 0 0.3-0.075 0.225-0.525 1.125-1.725 1.35h-0.3c-0.9 0-1.725 0.3-2.175 0.825-0.15 0.15-0.975 0.975-1.575 1.575-0.6 0.525-1.050 1.050-1.275 1.2-0.3 0.375-0.45 0.825-0.375 1.2 0.075 0.3 0.3 0.75 0.975 1.125 1.125 0.525 2.625 0.15 3.375-0.525 0.45-0.45 1.125-0.975 1.35-1.2h0.825c0.675 0.525 3.3 2.625 4.2 3.375 1.050 0.825 0.75 1.2 0.6 1.425zM21.675 16.125c-0.45 0-0.825-0.375-0.825-0.825s0.375-0.825 0.825-0.825c0.45 0 0.825 0.375 0.825 0.825s-0.375 0.825-0.825 0.825z"></path>
</svg>
