<svg xmlns="http://www.w3.org/2000/svg" viewBox="0 0 1024 1024"><path d="M742.4 78.933c-144 0-262.4 118.4-262.4 262.4s118.4 262.4 262.4 262.4 262.4-118.4 262.4-262.4c0-144-118.4-262.4-262.4-262.4zm0 464c-112 0-201.6-89.6-201.6-201.6s89.6-201.6 201.6-201.6 201.6 89.6 201.6 201.6-89.6 201.6-201.6 201.6zm208 185.6c-54.4 32-131.2 57.6-208 70.4-67.2 9.6-195.2-16-195.2-44.8 0-12.8 112 28.8 179.2 9.6 51.2-12.8 44.8-60.8 16-67.2s-192-67.2-262.4-67.2c-32 0-140.8 22.4-179.2 28.8-12.8 3.2-22.4 3.2-22.4 16-3.2 60.8-3.2 217.6-3.2 217.6s6.4 9.6 16 6.4c19.2-9.6 64-6.4 83.2 0 32 6.4 313.6 54.4 355.2 48 57.6-12.8 220.8-108.8 249.6-140.8 48-51.2 12.8-99.2-28.8-76.8zm-736-86.4l-147.2-6.4c-12.8 0-22.4 9.6-25.6 19.2v246.4c0 16 12.8 25.6 25.6 25.6H208c12.8 0 22.4-9.6 22.4-19.2l3.2-243.2c0-9.6-9.6-22.4-19.2-22.4zm-80 252.8c-22.4 0-41.6-19.2-41.6-41.6s19.2-41.6 41.6-41.6 41.6 19.2 41.6 41.6c0 22.4-19.2 41.6-41.6 41.6zm627.2-585.6c-35.2-12.8-44.8-22.4-44.8-38.4 0-12.8 9.6-25.6 35.2-25.6 22.4 0 41.6 9.6 41.6 9.6h6.4c6.4 0 9.6-3.2 12.8-6.4l6.4-16c3.2-6.4 0-12.8-6.4-12.8-16-9.6-44.8-16-44.8-16s-3.2 0-3.2-3.2v-25.6c0-6.4-6.4-12.8-12.8-12.8h-12.8c-6.4 0-12.8 6.4-12.8 12.8v25.6c0 3.2-3.2 3.2-3.2 3.2-35.2 9.6-57.6 35.2-57.6 67.2 0 41.6 35.2 60.8 70.4 73.6 28.8 12.8 41.6 22.4 41.6 41.6s-16 32-41.6 32c-22.4 0-48-12.8-48-12.8h-6.4c-6.4 0-9.6 3.2-12.8 9.6l-6.4 16c-3.2 6.4 0 12.8 6.4 12.8 16 9.6 51.2 12.8 51.2 16 0 0 3.2 0 3.2 3.2v25.6c0 6.4 6.4 12.8 12.8 12.8h12.8c6.4 0 12.8-6.4 12.8-12.8v-25.6c0-3.2 3.2-3.2 3.2-3.2 38.4-9.6 60.8-35.2 60.8-70.4 3.2-38.4-16-60.8-64-80z"/></svg>