<!-- Generated by IcoMoon.io -->
<svg version="1.1" xmlns="http://www.w3.org/2000/svg" width="24" height="24" viewBox="0 0 24 24">
<title>hand-heart</title>
<path d="M22.17 16.614c-1.512 0.888-3.648 1.602-5.784 1.956-1.866 0.264-5.43-0.444-5.43-1.248 0-0.354 3.114 0.798 4.98 0.264 1.422-0.354 1.248-1.692 0.444-1.866s-5.34-1.866-7.296-1.866c-2.304 0-3.912 0.804-4.98 0.984-1.698 0.702-3.12-0.132-3.102 0.336 0.030 0.756 0 4.92 0 4.92s0.18 0.264 0.444 0.18c0.534-0.264 2.802 0.054 4.344 0.87 2.928 1.554 9.078 1.704 10.236 1.524 1.602-0.354 6.138-3.024 6.942-3.912 1.338-1.434 0.36-2.766-0.798-2.142z"></path>
<path d="M22.26 4.092c-1.77-2.736-5.178-1.734-6.51-0.588-1.332-1.146-4.74-2.148-6.51 0.588-2.784 4.308 2.49 8.508 6.156 10.578 0.090 0.054 0.198 0.084 0.354 0.084s0.264-0.030 0.354-0.084c3.666-2.070 8.94-6.27 6.156-10.578z"></path>
</svg>
