<!-- Generated by IcoMoon.io -->
<svg version="1.1" xmlns="http://www.w3.org/2000/svg" width="24" height="24" viewBox="0 0 24 24">
<title>hazard</title>
<path d="M12.267 2.008c-4.067 6.758-8.067 13.408-12.108 20.133 7.942 0 15.75 0 23.683 0-3.883-6.75-7.7-13.4-11.575-20.133zM12.25 4.017c3.308 5.75 6.55 11.392 9.825 17.1-6.725 0-13.358 0-20.108 0 3.417-5.683 6.808-11.325 10.283-17.1z"></path>
<path d="M12.175 6.658c-2.708 4.508-5.358 8.917-8.050 13.383 5.3 0 10.483 0 15.742 0-2.575-4.483-5.108-8.892-7.692-13.383zM12.158 8.675c2.008 3.5 3.967 6.9 5.958 10.367-4.092 0-8.092 0-12.192 0 2.075-3.45 4.117-6.858 6.233-10.367z"></path>
</svg>
