<svg xmlns="http://www.w3.org/2000/svg" viewBox="0 0 1024 1024"><path d="M523.378 107.022C349.867 395.378 179.2 679.111 6.756 966.044h1010.489c-165.689-288-328.533-571.733-493.867-859.022zm-.711 85.689a677099.559 677099.559 0 0 1 419.2 729.6H83.911c145.778-242.489 290.489-483.2 438.756-729.6zm-3.2 112.711C403.911 497.778 290.845 685.866 176 876.444h671.644a1104606.364 1104606.364 0 0 0-328.178-571.022zm-.711 86.044C604.445 540.799 688 685.866 772.978 833.777H252.8c88.533-147.2 175.644-292.622 265.956-442.311z"/></svg>