<svg xmlns="http://www.w3.org/2000/svg" viewBox="0 0 1024 1024"><path d="M770.97 862.959c-16.972 5.364-36.49 8.454-56.73 8.454s-39.758-3.091-58.108-8.826l1.378.371-133.12-46.592v133.12c53.79 34.496 119.427 54.988 189.85 54.988s136.06-20.493 191.272-55.84l-1.422.852v-133.12zm234.905-122.88c24.166-8.499 24.166-22.426 0-30.72L757.76 620.476c-13.084-4.092-28.129-6.449-43.725-6.449s-30.64 2.357-44.798 6.735l1.073-.286-247.398 88.576c-24.064 8.602-24.064 22.528 0 30.72l247.603 86.63c13.123 3.997 28.206 6.298 43.827 6.298s30.704-2.301 44.929-6.583l-1.102.285zM485.478 864.085v-61.44L409.6 776.328c-58.778-20.48-58.982-81.92 0-103.424l247.91-88.371c16.977-5.481 36.51-8.641 56.781-8.641s39.803 3.16 58.132 9.014l-1.351-.373 78.848 27.853V464.111H972.8L485.786 62.293 0 464.111h105.882v399.974z"/></svg>