<svg xmlns="http://www.w3.org/2000/svg" viewBox="0 0 1024 1024"><path d="M660.582 984.405c-20.531-3.382-44.193-5.315-68.305-5.315-8.788 0-17.516.257-26.177.763l1.196-.056-44.544 4.096-1.741-42.803V678.024h-23.552v326.349h210.637c-13.654-8.715-29.506-15.586-46.426-19.742l-1.088-.226zm339.866-306.381v305.869l-40.96-3.994c-7.724-.555-16.736-.871-25.821-.871-23.442 0-46.393 2.105-68.673 6.137l2.335-.35c-17.879 4.552-33.583 11.588-47.698 20.846l.594-.366h203.776v-327.27zm-259.379-18.227c-18.425-8.277-40.196-15.596-62.769-20.82l-2.459-.479c-28.239-5.49-60.712-8.632-93.919-8.632-7.484 0-14.931.16-22.337.475l1.057-.036v310.477c10.314-.834 22.33-1.31 34.456-1.31 24.416 0 48.381 1.928 71.752 5.641l-2.58-.338c29.405 5.704 55.377 17.454 77.619 33.95l-.512-.362zm-282.931 212.48V639.215h62.874v-45.773l38.912-1.946c7.434-.364 16.144-.572 24.903-.572 36.104 0 71.384 3.525 105.515 10.251l-3.442-.565c28.008 6.249 52.423 14.384 75.676 24.665l-2.562-1.011 3.994 1.638 3.789-1.638c20.368-9.379 44.297-17.514 69.168-23.173l2.512-.481c7.538-.901 14.273-2.267 20.804-4.119l-.938.227v-128.41h126.771L492.751 62.292.002 468.308H104.45v403.968zm387.788-233.779c-25.109 5.636-46.99 12.96-67.827 22.207l2.291-.908v318.566c23.552-12.698 47.616-28.57 77.107-33.587 20.791-3.375 44.757-5.304 69.173-5.304 12.126 0 24.141.476 36.027 1.409l-1.571-.099V630.305c-6.354-.281-13.806-.44-21.295-.44-33.202 0-65.671 3.142-97.125 9.144l3.22-.511z"/></svg>