<!-- Generated by IcoMoon.io -->
<svg version="1.1" xmlns="http://www.w3.org/2000/svg" width="24" height="24" viewBox="0 0 24 24">
<title>home-education</title>
<path d="M15.482 22.572c-0.481-0.079-1.036-0.125-1.601-0.125-0.206 0-0.411 0.006-0.614 0.018l0.028-0.001-1.044 0.096-0.041-1.003v-6.166h-0.552v7.649h4.937c-0.32-0.204-0.692-0.365-1.088-0.463l-0.025-0.005z"></path>
<path d="M23.448 15.391v7.169l-0.96-0.094c-0.181-0.013-0.392-0.020-0.605-0.020-0.549 0-1.087 0.049-1.61 0.144l0.055-0.008c-0.419 0.107-0.787 0.272-1.118 0.489l0.014-0.009h4.776v-7.67z"></path>
<path d="M17.369 14.964c-0.432-0.194-0.942-0.366-1.471-0.488l-0.058-0.011c-0.662-0.129-1.423-0.202-2.201-0.202-0.175 0-0.35 0.004-0.524 0.011l0.025-0.001v7.277c0.242-0.020 0.523-0.031 0.808-0.031 0.572 0 1.134 0.045 1.682 0.132l-0.060-0.008c0.689 0.134 1.298 0.409 1.819 0.796l-0.012-0.008z"></path>
<path d="M10.738 19.944v-5.462h1.474v-1.073l0.912-0.046c0.174-0.009 0.378-0.013 0.584-0.013 0.846 0 1.673 0.083 2.473 0.24l-0.081-0.013c0.656 0.146 1.229 0.337 1.774 0.578l-0.060-0.024 0.094 0.038 0.089-0.038c0.477-0.22 1.038-0.41 1.621-0.543l0.059-0.011c0.177-0.021 0.335-0.053 0.488-0.097l-0.022 0.005v-3.010h2.971l-11.563-9.516-11.549 9.516h2.448v9.468z"></path>
<path d="M19.826 14.465c-0.588 0.132-1.101 0.304-1.59 0.52l0.054-0.021v7.466c0.552-0.298 1.116-0.67 1.807-0.787 0.487-0.079 1.049-0.124 1.621-0.124 0.284 0 0.566 0.011 0.844 0.033l-0.037-0.002v-7.277c-0.149-0.007-0.324-0.010-0.499-0.010-0.778 0-1.539 0.074-2.276 0.214l0.075-0.012z"></path>
</svg>
