<!-- Generated by IcoMoon.io -->
<svg version="1.1" xmlns="http://www.w3.org/2000/svg" width="24" height="24" viewBox="0 0 24 24">
<title>home</title>
<path d="M22.291 11.735c0 0.355-0.289 0.644-0.644 0.644-0.165 0-0.313-0.066-0.425-0.169l-9.246-9.246-0.013 0.013-0.003-0.002-9.236 9.235c-0.113 0.101-0.26 0.168-0.425 0.168-0.356 0-0.644-0.289-0.644-0.644 0-0.179 0.072-0.34 0.19-0.456v0l9.672-9.673c0.117-0.117 0.278-0.189 0.456-0.189 0.177 0 0.339 0.072 0.454 0.189l9.674 9.674c0.119 0.115 0.19 0.276 0.19 0.456zM19.712 13.603v7.158c0 0.713-0.577 1.291-1.291 1.291h-4.514v-6.447h-3.871v6.448h-4.513c-0.713 0-1.291-0.577-1.291-1.291v-7.158l7.739-7.74 7.739 7.739z"></path>
</svg>
