<svg xmlns="http://www.w3.org/2000/svg" viewBox="0 0 1024 1024"><path d="M951.085 522.034c0 15.137-12.315 27.495-27.495 27.495-7.061 0-13.364-2.822-18.121-7.19L510.952 147.822l-.562.562-.119-.076-394.074 394.031c-4.801 4.314-11.104 7.147-18.121 7.147-15.18 0-27.495-12.348-27.495-27.495 0-7.633 3.07-14.489 8.109-19.462L491.372 89.804c5.006-5.006 11.871-8.076 19.462-8.076 7.547 0 14.456 3.07 19.375 8.076L942.97 502.565c5.082 4.92 8.109 11.785 8.109 19.462zM841.039 601.72v305.425c0 30.436-24.62 55.066-55.066 55.066H593.376V687.146H428.231v275.108H235.674c-30.436 0-55.066-24.62-55.066-55.066V601.763l330.207-330.25L841.022 601.72z"/></svg>