<!-- Generated by IcoMoon.io -->
<svg version="1.1" xmlns="http://www.w3.org/2000/svg" width="24" height="24" viewBox="0 0 24 24">
<title>home-graduate</title>
<path d="M18.070 19.726c-0.398 0.126-0.855 0.198-1.33 0.198s-0.932-0.072-1.362-0.207l0.032 0.009-3.12-1.092v3.12c1.261 0.808 2.799 1.289 4.45 1.289s3.189-0.48 4.483-1.309l-0.033 0.020v-3.12z"></path>
<path d="M23.575 16.846c0.566-0.199 0.566-0.526 0-0.72l-5.815-2.083c-0.307-0.096-0.659-0.151-1.025-0.151s-0.718 0.055-1.050 0.158l0.025-0.007-5.798 2.076c-0.564 0.202-0.564 0.528 0 0.72l5.803 2.030c0.308 0.094 0.661 0.148 1.027 0.148s0.72-0.054 1.053-0.154l-0.026 0.007z"></path>
<path d="M11.378 19.752v-1.44l-1.778-0.617c-1.378-0.48-1.382-1.92 0-2.424l5.81-2.071c0.398-0.128 0.856-0.203 1.331-0.203s0.933 0.074 1.362 0.211l-0.032-0.009 1.848 0.653v-3.475h2.88l-11.414-9.418-11.386 9.418h2.482v9.374z"></path>
</svg>
