<svg xmlns="http://www.w3.org/2000/svg" viewBox="0 0 1024 1024"><path d="M806.995 375.57V120.341h29.087c16.52 0 29.913-13.216 29.913-29.5s-13.393-29.5-29.913-29.5H246.918c-16.52 0-29.913 13.216-29.913 29.5s13.393 29.5 29.913 29.5h29.087V375.57c0 16.815 7.198 32.863 19.765 44.073l127.558 113.693L295.77 647.029c-12.567 11.21-19.765 27.258-19.765 44.073v255.229h-29.087c-16.52 0-29.913 13.216-29.913 29.5s13.393 29.5 29.913 29.5h589.223c16.461 0 29.854-13.216 29.854-29.5s-13.393-29.5-29.913-29.5h-29.087V691.102c0-16.815-7.198-32.863-19.765-44.073L659.672 533.336 787.23 419.643c12.567-11.21 19.765-27.258 19.765-44.073zm-59 0L571 533.333l176.995 157.763v255.229H335V691.096l176.995-157.763L335 375.57V120.341h412.995V375.57zm-59-85.43v-51.802H394v51.802l147.499 131.452zM394 776.762v110.566h294.995V776.762l-74.517-66.434H468.513z"/></svg>