<!-- Generated by IcoMoon.io -->
<svg version="1.1" xmlns="http://www.w3.org/2000/svg" width="24" height="24" viewBox="0 0 24 24">
<title>hours-security</title>
<path d="M17.775 19.050c0.15-0.225 0.225-0.45 0.3-0.75s0.15-0.525 0.15-0.825c0-0.675-0.225-1.2-0.525-1.575s-0.9-0.525-1.65-0.525c-0.75 0-1.275 0.225-1.65 0.675s-0.525 1.050-0.525 1.725v0.375h1.575v-0.375c0-0.3 0.075-0.6 0.15-0.75s0.225-0.225 0.525-0.225c0.225 0 0.225 0.075 0.375 0.225s0.15 0.225 0.15 0.525c0 0.225-0.075 0.525-0.225 0.75s-0.3 0.6-0.525 0.9l-0.15 0.225-1.875 2.925v1.2h4.125v-1.275h-2.25l1.425-2.175c0.3-0.525 0.525-0.825 0.6-1.050z"></path>
<path d="M22.050 15.525h-1.8l-2.1 4.95v1.2h2.4v1.725h1.5v-1.725h0.75v-1.2h-0.75v-4.95zM20.625 20.4h-1.125l1.2-3.3v3.3z"></path>
<path d="M23.475 10.95c-0.15-0.225-0.45-0.15-0.525-0.075s-0.825 0.975-0.825 0.975c0-0.3 0-0.525 0-0.75 0-0.075 0-0.15 0-0.225 0-0.3-0.075-0.825-0.15-1.050-0.375-1.65-1.125-3.225-2.4-4.575-1.8-2.025-4.35-3.15-7.050-3.225-0.15 0-0.3 0-0.45 0-2.55 0-4.875 0.975-6.75 2.7-2.025 1.8-3.15 4.35-3.225 7.050s0.825 5.325 2.7 7.275c1.875 2.1 4.65 3.225 7.425 3.225h0.075c0.225 0 0.375-0.15 0.375-0.375s-0.075-0.525-0.525-0.525c-2.7 0.075-5.175-1.050-6.975-3-1.5-1.65-2.4-3.75-2.475-5.925h1.125c0.225 0 0.45-0.225 0.45-0.45s-0.225-0.45-0.45-0.45h-1.125c0.15-2.475 1.2-4.8 3-6.45 1.65-1.5 3.675-2.325 5.85-2.475v0.975c0 0.225 0.225 0.45 0.45 0.45s0.45-0.225 0.45-0.45v-0.975c2.475 0.075 4.8 1.2 6.525 3 1.2 1.35 2.025 2.925 2.325 4.65 0.075 0.525 0.15 1.050 0.075 1.65 0 0-0.6-0.75-0.675-0.9s-0.3-0.15-0.525 0c-0.225 0.15-0.15 0.45-0.075 0.525 0.075 0.15 1.575 1.95 1.575 1.95s1.725-1.95 1.8-2.025c0.075-0.075 0.15-0.3 0-0.525z"></path>
<path d="M12.9 8.55h-1.050v-1.65c0-1.35-1.050-2.4-2.4-2.4s-2.325 1.050-2.325 2.4v1.65h-1.050c-0.375 0-0.675 0.3-0.675 0.675v5.4c0 0.375 0.3 0.675 0.675 0.675h6.75c0.375 0 0.675-0.3 0.675-0.675v-5.325c0.075-0.375-0.225-0.75-0.6-0.75zM10.65 14.175h-2.25v-0.075l0.6-2.1c-0.3-0.225-0.45-0.525-0.45-0.9 0-0.6 0.45-1.050 1.050-1.050s1.050 0.45 1.050 1.050c0 0.45-0.3 0.75-0.6 0.975l0.6 2.1zM10.65 8.7h-2.175v-1.725c0-0.6 0.45-1.125 1.125-1.125 0.6 0 1.125 0.45 1.125 1.125v1.725z"></path>
</svg>
