<svg xmlns="http://www.w3.org/2000/svg" viewBox="0 0 1024 1024"><path d="M758.4 834.133c6.4-9.6 9.6-19.2 12.8-32s6.4-22.4 6.4-35.2c0-28.8-9.6-51.2-22.4-67.2s-38.4-22.4-70.4-22.4c-32 0-54.4 9.6-70.4 28.8s-22.4 44.8-22.4 73.6v16h67.2v-16c0-12.8 3.2-25.6 6.4-32s9.6-9.6 22.4-9.6c9.6 0 9.6 3.2 16 9.6s6.4 9.6 6.4 22.4c0 9.6-3.2 22.4-9.6 32s-12.8 25.6-22.4 38.4l-6.4 9.6-80 124.8v51.2h176v-54.4h-96l60.8-92.8c12.8-22.4 22.4-35.2 25.6-44.8zm182.4-150.4H864l-89.6 211.2v51.2h102.4v73.6h64v-73.6h32v-51.2h-32v-211.2zm-60.8 208h-48l51.2-140.8v140.8zm121.6-403.2c-6.4-9.6-19.2-6.4-22.4-3.2s-35.2 41.6-35.2 41.6v-32-9.6c0-12.8-3.2-35.2-6.4-44.8-16-70.4-48-137.6-102.4-195.2-76.8-86.4-185.6-134.4-300.8-137.6h-19.2c-108.8 0-208 41.6-288 115.2-86.4 76.8-134.4 185.6-137.6 300.8s35.2 227.2 115.2 310.4c80 89.6 198.4 137.6 316.8 137.6h3.2c9.6 0 16-6.4 16-16s-3.2-22.4-22.4-22.4c-115.2 3.2-220.8-44.8-297.6-128-64-70.4-102.4-160-105.6-252.8h48c9.6 0 19.2-9.6 19.2-19.2s-9.6-19.2-19.2-19.2h-48c6.4-105.6 51.2-204.8 128-275.2 70.4-64 156.8-99.2 249.6-105.6v41.6c0 9.6 9.6 19.2 19.2 19.2s19.2-9.6 19.2-19.2v-41.6c105.6 3.2 204.8 51.2 278.4 128 51.2 57.6 86.4 124.8 99.2 198.4 3.2 22.4 6.4 44.8 3.2 70.4 0 0-25.6-32-28.8-38.4s-12.8-6.4-22.4 0c-9.6 6.4-6.4 19.2-3.2 22.4 3.2 6.4 67.2 83.2 67.2 83.2s73.6-83.2 76.8-86.4c3.2-3.2 6.4-12.8 0-22.4zm-451.2-102.4h-44.8v-70.4c0-57.6-44.8-102.4-102.4-102.4s-99.2 44.8-99.2 102.4v70.4h-44.8c-16 0-28.8 12.8-28.8 28.8v230.4c0 16 12.8 28.8 28.8 28.8h288c16 0 28.8-12.8 28.8-28.8v-227.2c3.2-16-9.6-32-25.6-32zm-96 240h-96v-3.2l25.6-89.6c-12.8-9.6-19.2-22.4-19.2-38.4 0-25.6 19.2-44.8 44.8-44.8s44.8 19.2 44.8 44.8c0 19.2-12.8 32-25.6 41.6l25.6 89.6zm0-233.6h-92.8v-73.6c0-25.6 19.2-48 48-48 25.6 0 48 19.2 48 48v73.6z"/></svg>