<svg xmlns="http://www.w3.org/2000/svg" viewBox="0 0 1024 1024"><path d="M752 805.333c6.4-9.6 12.8-22.4 16-35.2s6.4-25.6 6.4-41.6c0-32-9.6-57.6-25.6-76.8s-44.8-25.6-80-25.6c-38.4 0-64 9.6-83.2 32s-25.6 51.2-25.6 86.4v19.2h76.8v-19.2c0-16 3.2-28.8 6.4-38.4s12.8-12.8 25.6-12.8c9.6 0 12.8 3.2 19.2 9.6s6.4 12.8 6.4 25.6-3.2 25.6-9.6 38.4c-6.4 12.8-16 28.8-25.6 44.8l-6.4 9.6-92.8 144v57.6h204.8v-64H649.6l70.4-105.6c16-22.4 25.6-38.4 32-48zm214.4-176h-92.8l-102.4 243.2v57.6h118.4v86.4h73.6v-86.4h35.2v-60.8h-35.2v-240h3.2zm-73.6 243.2h-57.6l57.6-163.2v163.2zm-374.4 60.8c-115.2 3.2-220.8-44.8-297.6-128-64-70.4-102.4-160-105.6-252.8h48c9.6 0 19.2-9.6 19.2-19.2s-9.6-19.2-19.2-19.2h-48c6.4-105.6 51.2-204.8 128-275.2 70.4-64 156.8-99.2 249.6-105.6v41.6c0 9.6 9.6 19.2 19.2 19.2s19.2-9.6 19.2-19.2v-41.6c105.6 3.2 204.8 51.2 278.4 128 51.2 57.6 86.4 124.8 99.2 198.4 3.2 22.4 6.4 44.8 3.2 70.4 0 0-25.6-32-28.8-38.4s-12.8-6.4-22.4 0c-9.6 6.4-6.4 19.2-3.2 22.4 3.2 6.4 67.2 83.2 67.2 83.2s73.6-83.2 76.8-86.4c3.2-3.2 6.4-12.8 0-22.4s-19.2-6.4-22.4-3.2c-3.2 3.2-35.2 41.6-35.2 41.6v-32-9.6c0-12.8-3.2-35.2-6.4-44.8-16-70.4-48-137.6-102.4-195.2-76.8-86.4-185.6-134.4-300.8-137.6h-19.2c-108.8 0-208 41.6-288 115.2-86.4 76.8-134.4 185.6-137.6 300.8s35.2 227.2 115.2 310.4c80 89.6 198.4 137.6 316.8 137.6h3.2c9.6 0 16-6.4 16-16s-3.2-22.4-22.4-22.4zm224-640c6.4-6.4 6.4-19.2-3.2-25.6-6.4-6.4-19.2-6.4-25.6 3.2 0 0-185.6 220.8-188.8 227.2-6.4-3.2-9.6-3.2-16-3.2s-12.8 3.2-19.2 6.4l-6.4-6.4-150.4-131.2c-6.4-6.4-19.2-6.4-25.6 3.2-6.4 6.4-6.4 19.2 3.2 25.6l150.4 131.2 6.4 3.2c-3.2 3.2-3.2 9.6-3.2 12.8 0 25.6 19.2 44.8 44.8 44.8s44.8-19.2 44.8-44.8c0-6.4-3.2-16-6.4-22.4 3.2 0 195.2-224 195.2-224zm-233.6 259.2c-6.4 0-12.8-6.4-12.8-12.8s6.4-12.8 12.8-12.8 12.8 6.4 12.8 12.8-6.4 12.8-12.8 12.8z"/></svg>