<!-- Generated by IcoMoon.io -->
<svg version="1.1" xmlns="http://www.w3.org/2000/svg" width="24" height="24" viewBox="0 0 24 24">
<title>hours</title>
<path d="M17.625 18.375c0.15-0.225 0.3-0.525 0.375-0.825s0.15-0.6 0.15-0.975c0-0.75-0.225-1.35-0.6-1.8s-1.050-0.6-1.875-0.6c-0.9 0-1.5 0.225-1.95 0.75s-0.6 1.2-0.6 2.025v0.45h1.8v-0.45c0-0.375 0.075-0.675 0.15-0.9s0.3-0.3 0.6-0.3c0.225 0 0.3 0.075 0.45 0.225s0.15 0.3 0.15 0.6-0.075 0.6-0.225 0.9c-0.15 0.3-0.375 0.675-0.6 1.050l-0.15 0.225-2.175 3.375v1.35h4.8v-1.5h-2.7l1.65-2.475c0.375-0.525 0.6-0.9 0.75-1.125z"></path>
<path d="M22.65 14.25h-2.175l-2.4 5.7v1.35h2.775v2.025h1.725v-2.025h0.825v-1.425h-0.825v-5.625h0.075zM20.925 19.95h-1.35l1.35-3.825v3.825z"></path>
<path d="M12.15 21.375v0c-2.7 0.075-5.175-1.050-6.975-3-1.5-1.65-2.4-3.75-2.475-5.925h1.125c0.225 0 0.45-0.225 0.45-0.45s-0.225-0.45-0.45-0.45h-1.125c0.15-2.475 1.2-4.8 3-6.45 1.65-1.5 3.675-2.325 5.85-2.475v0.975c0 0.225 0.225 0.45 0.45 0.45s0.45-0.225 0.45-0.45v-0.975c2.475 0.075 4.8 1.2 6.525 3 1.2 1.35 2.025 2.925 2.325 4.65 0.075 0.525 0.15 1.050 0.075 1.65 0 0-0.6-0.75-0.675-0.9s-0.3-0.15-0.525 0c-0.225 0.15-0.15 0.45-0.075 0.525 0.075 0.15 1.575 1.95 1.575 1.95s1.725-1.95 1.8-2.025c0.075-0.075 0.15-0.3 0-0.525s-0.45-0.15-0.525-0.075c-0.075 0.075-0.825 0.975-0.825 0.975 0-0.3 0-0.525 0-0.75v0c0-0.075 0-0.15 0-0.225 0-0.3-0.075-0.825-0.15-1.050v0c-0.375-1.65-1.125-3.225-2.4-4.575-1.8-2.025-4.35-3.15-7.050-3.225-0.15 0-0.3 0-0.45 0v0 0c-2.55 0-4.875 0.975-6.75 2.7-2.025 1.8-3.15 4.35-3.225 7.050s0.825 5.325 2.7 7.275c1.875 2.1 4.65 3.225 7.425 3.225h0.075c0.225 0 0.375-0.15 0.375-0.375s-0.075-0.525-0.525-0.525z"></path>
<path d="M17.4 6.375c0.15-0.15 0.15-0.45-0.075-0.6-0.15-0.15-0.45-0.15-0.6 0.075 0 0-4.35 5.175-4.425 5.325-0.15-0.075-0.225-0.075-0.375-0.075s-0.3 0.075-0.45 0.15l-0.15-0.15-3.525-3.075c-0.15-0.15-0.45-0.15-0.6 0.075-0.15 0.15-0.15 0.45 0.075 0.6l3.525 3.075 0.15 0.075c-0.075 0.075-0.075 0.225-0.075 0.3 0 0.6 0.45 1.050 1.050 1.050s1.050-0.45 1.050-1.050c0-0.15-0.075-0.375-0.15-0.525 0.075 0 4.575-5.25 4.575-5.25zM11.925 12.45c-0.15 0-0.3-0.15-0.3-0.3s0.15-0.3 0.3-0.3 0.3 0.15 0.3 0.3-0.15 0.3-0.3 0.3z"></path>
</svg>
