<!-- Generated by IcoMoon.io -->
<svg version="1.1" xmlns="http://www.w3.org/2000/svg" width="24" height="24" viewBox="0 0 24 24">
<title>hourglass</title>
<path d="M18.914 8.302v-5.982h0.682c0.387 0 0.701-0.31 0.701-0.691s-0.314-0.691-0.701-0.691h-13.809c-0.387 0-0.701 0.31-0.701 0.691s0.314 0.691 0.701 0.691h0.682v5.982c0 0.394 0.169 0.77 0.463 1.033l2.99 2.665-2.99 2.665c-0.295 0.263-0.463 0.639-0.463 1.033v5.982h-0.682c-0.387 0-0.701 0.31-0.701 0.691s0.314 0.691 0.701 0.691h13.81c0.386 0 0.7-0.31 0.7-0.691s-0.314-0.691-0.701-0.691h-0.682v-5.982c0-0.394-0.169-0.77-0.463-1.033l-2.99-2.665 2.99-2.665c0.295-0.263 0.463-0.639 0.463-1.033zM17.531 8.302l-4.148 3.698 4.148 3.698v5.982h-9.68v-5.982l4.148-3.698-4.148-3.698v-5.982h9.68v5.982zM16.148 6.3v-1.214h-6.914v1.214l3.457 3.081zM9.234 17.705v2.591h6.914v-2.591l-1.746-1.557h-3.421z"></path>
</svg>
