<svg xmlns="http://www.w3.org/2000/svg" viewBox="0 0 1024 1024"><path d="M512 42.127c-265.79 0-481.111 222.051-481.111 491.206S246.213 1024.539 512 1024.539s481.111-218.686 481.111-491.206S777.787 42.127 512 42.127zM794.612 812.58c0 26.914-20.187 47.101-47.101 47.101H582.656V624.173H441.35v235.508H273.13c-26.914 0-47.101-20.187-47.101-47.101V550.155l285.974-285.974 282.612 282.612v265.79zm70.653-309.526c-6.73 0-10.092-3.365-16.822-6.73L512 159.881 172.195 496.324c-3.365 3.365-10.092 6.73-16.822 6.73-13.457 0-23.552-10.092-23.552-23.552 0-6.73 3.365-13.457 6.73-16.822l356.627-353.265c3.365-3.365 10.092-6.73 16.822-6.73s13.457 3.365 16.822 6.73L882.087 462.68c3.365 3.365 6.73 10.092 6.73 16.822 0 13.457-10.092 23.552-23.552 23.552z"/></svg>