<!-- Generated by IcoMoon.io -->
<svg version="1.1" xmlns="http://www.w3.org/2000/svg" width="24" height="24" viewBox="0 0 24 24">
<title>house</title>
<path d="M12 0.487c-6.229 0-11.276 5.204-11.276 11.513s5.047 11.513 11.276 11.513 11.276-5.125 11.276-11.513-5.047-11.513-11.276-11.513zM18.624 18.545c0 0.631-0.473 1.104-1.104 1.104h-3.864v-5.52h-3.312v5.52h-3.943c-0.631 0-1.104-0.473-1.104-1.104v-6.151l6.703-6.703 6.624 6.624v6.229zM20.28 11.29c-0.158 0-0.237-0.079-0.394-0.158l-7.885-7.885-7.964 7.885c-0.079 0.079-0.237 0.158-0.394 0.158-0.315 0-0.552-0.237-0.552-0.552 0-0.158 0.079-0.315 0.158-0.394l8.358-8.28c0.079-0.079 0.237-0.158 0.394-0.158s0.315 0.079 0.394 0.158l8.28 8.28c0.079 0.079 0.158 0.237 0.158 0.394 0 0.315-0.237 0.552-0.552 0.552z"></path>
</svg>
