<svg xmlns="http://www.w3.org/2000/svg" viewBox="0 0 1024 1024"><path d="M711.111 335.289C652.8 276.978 574.933 249.6 498.489 253.156 554.311 152.889 612.978 68.978 663.111 43.023c0 0-315.378 144-406.044 372.267-48.711 104.178-29.867 232.178 56.178 317.867 58.667 58.667 137.244 86.044 214.044 82.133-56.178 100.978-115.556 185.956-165.689 212.267 0 0 331.378-151.467 412.444-389.333 39.822-101.333 18.844-221.156-62.933-302.933zM426.667 619.377c-46.933-46.933-46.933-123.378 0-170.311s123.378-46.933 170.311 0c46.933 46.933 46.933 123.378 0 170.311-46.933 47.289-123.022 47.289-170.311 0z"/></svg>