<!-- Generated by IcoMoon.io -->
<svg version="1.1" xmlns="http://www.w3.org/2000/svg" width="24" height="24" viewBox="0 0 24 24">
<title>hurricane</title>
<path d="M16.667 7.358c-1.367-1.367-3.192-2.008-4.983-1.925 1.308-2.35 2.683-4.317 3.858-4.925 0 0-7.392 3.375-9.517 8.725-1.142 2.442-0.7 5.442 1.317 7.45 1.375 1.375 3.217 2.017 5.017 1.925-1.317 2.367-2.708 4.358-3.883 4.975 0 0 7.767-3.55 9.667-9.125 0.933-2.375 0.442-5.183-1.475-7.1zM10 14.017c-1.1-1.1-1.1-2.892 0-3.992s2.892-1.1 3.992 0c1.1 1.1 1.1 2.892 0 3.992-1.1 1.108-2.883 1.108-3.992 0z"></path>
</svg>
