<svg xmlns="http://www.w3.org/2000/svg" viewBox="0 0 1024 1024"><path d="M59.733 478.577v-1.067c-.356.356-.356.711-.711 1.067h.711zm654.934-151.466c-25.956-28.8-62.222-49.422-108.8-61.511-21.333-5.689-58.667-13.156-99.556-13.156-40.533 0-77.867 7.467-99.556 13.156-46.222 12.089-82.844 32.711-108.8 61.511-35.911 39.822-50.844 94.222-44.8 161.422 6.4 69.333 37.689 116.267 65.422 157.511 23.467 35.2 45.867 68.267 51.911 113.067 1.422 9.6 1.778 20.978 2.133 31.644.711 15.289 1.067 30.222 4.267 42.311 2.844 12.089 7.467 25.6 20.267 36.267 12.444 10.311 29.511 15.289 53.333 15.289h112.356c23.822 0 40.889-4.978 53.333-15.289 12.8-10.667 17.422-24.178 20.267-36.267 2.844-12.444 3.556-27.022 4.267-42.311.356-11.022.711-22.044 2.133-31.644 6.044-44.444 28.444-77.867 51.911-113.067 27.733-41.244 59.022-88.178 65.422-157.511 5.333-67.556-9.6-121.956-45.511-161.422zm-4.267 156.8c-4.978 56.533-30.222 94.222-56.889 134.044-25.6 38.4-52.267 77.867-60.089 134.044-1.778 12.089-2.133 24.533-2.489 36.978-.356 12.089-1.067 24.889-2.844 32.356-.711 3.556-2.133 8.533-3.911 9.6-.711.711-5.333 3.911-21.689 3.911H450.133c-16.356 0-20.978-3.2-21.689-3.911-1.422-1.422-2.844-6.044-3.911-9.6-1.778-7.467-2.133-19.911-2.844-32.356-.356-12.089-.711-24.533-2.489-36.622-7.822-56.178-34.133-95.644-60.089-134.044-26.667-39.822-51.911-77.511-56.889-134.044-4.622-52.978 6.044-94.222 32-123.378 32.356-35.911 90.311-55.467 171.733-58.311 81.422 2.489 139.022 22.044 171.733 58.311 26.667 28.8 37.333 70.044 32.711 123.022zM418.133 987.022l71.111 36.622c5.689 2.844 11.733 4.267 17.778 4.267s12.089-1.422 17.778-4.267l72.178-36.978H418.134zm189.156-75.733H409.956c-11.022 0-19.911 8.889-19.911 19.911s8.889 19.911 19.911 19.911h197.333c11.022 0 19.911-8.889 19.911-19.911-.356-10.667-8.889-19.911-19.911-19.911zm-93.867-715.378c13.867 0 24.889-11.378 24.889-25.244V63.645c0-13.867-11.022-25.244-24.889-25.244s-24.889 11.378-24.889 25.244v107.378c0 13.867 11.022 24.889 24.889 24.889zM764.444 272c6.044 0 12.089-2.133 17.067-6.756l95.289-90.311c9.956-9.6 10.667-25.244 1.067-35.556-9.244-9.956-24.889-10.667-35.2-1.067l-95.289 90.311c-9.956 9.6-10.667 25.244-1.067 35.556 4.622 5.333 11.378 7.822 18.133 7.822zm235.023 184.533l-129.422-.711c-13.511 0-24.889 11.022-24.889 24.889s11.022 25.244 24.533 25.244l129.422.711c13.511 0 24.889-11.022 24.889-24.889s-11.022-25.244-24.533-25.244zM879.644 769.777l-94.578-82.133c-10.311-8.889-25.956-7.822-34.844 2.844s-7.822 26.311 2.489 35.556l94.578 82.133c4.622 3.911 10.311 6.044 16 6.044 7.111 0 13.867-2.844 18.844-8.889 8.889-10.667 7.822-26.667-2.489-35.556zM249.6 270.933c4.622 4.622 10.667 6.756 16.711 6.756 6.756 0 13.156-2.844 18.133-8.178 9.244-10.311 8.889-25.956-1.422-35.556l-101.689-95.644c-9.956-9.6-25.6-8.889-35.2 1.422-9.244 10.311-8.889 25.956 1.422 35.556l102.044 95.644zm-70.4 209.778c0-13.867-11.022-24.889-24.889-24.889l-129.422.711C11.022 456.533 0 467.911.356 481.777c0 13.867 11.022 24.889 24.889 24.889l129.422-.711c13.511 0 24.533-11.378 24.533-25.244zm50.489 217.955l-100.267 86.4c-10.311 8.889-11.733 24.889-2.844 35.2 4.978 5.689 11.733 8.889 18.844 8.889 5.689 0 11.378-2.133 16-6.044l100.267-86.4c10.311-8.889 11.733-24.889 2.844-35.2-8.889-10.667-24.533-11.733-34.844-2.844z"/></svg>