<!-- Generated by IcoMoon.io -->
<svg version="1.1" xmlns="http://www.w3.org/2000/svg" width="24" height="24" viewBox="0 0 24 24">
<title>idea-alt</title>
<path d="M1.4 10.717c0-0.008 0-0.017 0-0.025-0.008 0.008-0.008 0.017-0.017 0.025h0.017z"></path>
<path d="M16.75 7.167c-0.608-0.675-1.458-1.158-2.55-1.442-0.5-0.133-1.375-0.308-2.333-0.308-0.95 0-1.825 0.175-2.333 0.308-1.083 0.283-1.942 0.767-2.55 1.442-0.842 0.933-1.192 2.208-1.050 3.783 0.15 1.625 0.883 2.725 1.533 3.692 0.55 0.825 1.075 1.6 1.217 2.65 0.033 0.225 0.042 0.492 0.050 0.742 0.017 0.358 0.025 0.708 0.1 0.992 0.067 0.283 0.175 0.6 0.475 0.85 0.292 0.242 0.692 0.358 1.25 0.358h2.633c0.558 0 0.958-0.117 1.25-0.358 0.3-0.25 0.408-0.567 0.475-0.85 0.067-0.292 0.083-0.633 0.1-0.992 0.008-0.258 0.017-0.517 0.050-0.742 0.142-1.042 0.667-1.825 1.217-2.65 0.65-0.967 1.383-2.067 1.533-3.692 0.125-1.583-0.225-2.858-1.067-3.783zM16.65 10.842c-0.117 1.325-0.708 2.208-1.333 3.142-0.6 0.9-1.225 1.825-1.408 3.142-0.042 0.283-0.050 0.575-0.058 0.867-0.008 0.283-0.025 0.583-0.067 0.758-0.017 0.083-0.050 0.2-0.092 0.225-0.017 0.017-0.125 0.092-0.508 0.092h-2.633c-0.383 0-0.492-0.075-0.508-0.092-0.033-0.033-0.067-0.142-0.092-0.225-0.042-0.175-0.050-0.467-0.067-0.758-0.008-0.283-0.017-0.575-0.058-0.858-0.183-1.317-0.8-2.242-1.408-3.142-0.625-0.933-1.217-1.817-1.333-3.142-0.108-1.242 0.142-2.208 0.75-2.892 0.758-0.842 2.117-1.3 4.025-1.367 1.908 0.058 3.258 0.517 4.025 1.367 0.625 0.675 0.875 1.642 0.767 2.883z"></path>
<path d="M9.8 22.633l1.667 0.858c0.133 0.067 0.275 0.1 0.417 0.1s0.283-0.033 0.417-0.1l1.692-0.867h-4.192z"></path>
<path d="M14.233 20.858h-4.625c-0.258 0-0.467 0.208-0.467 0.467s0.208 0.467 0.467 0.467h4.625c0.258 0 0.467-0.208 0.467-0.467-0.008-0.25-0.208-0.467-0.467-0.467z"></path>
<path d="M12.033 4.092c0.325 0 0.583-0.267 0.583-0.592v-2.508c0-0.325-0.258-0.592-0.583-0.592s-0.583 0.267-0.583 0.592v2.517c0 0.325 0.258 0.583 0.583 0.583z"></path>
<path d="M17.917 5.875c0.142 0 0.283-0.050 0.4-0.158l2.233-2.117c0.233-0.225 0.25-0.592 0.025-0.833-0.217-0.233-0.583-0.25-0.825-0.025l-2.233 2.117c-0.233 0.225-0.25 0.592-0.025 0.833 0.108 0.125 0.267 0.183 0.425 0.183z"></path>
<path d="M23.425 10.2l-3.033-0.017c0 0 0 0 0 0-0.317 0-0.583 0.258-0.583 0.583s0.258 0.592 0.575 0.592l3.033 0.017c0 0 0 0 0 0 0.317 0 0.583-0.258 0.583-0.583s-0.258-0.592-0.575-0.592z"></path>
<path d="M20.617 17.542l-2.217-1.925c-0.242-0.208-0.608-0.183-0.817 0.067s-0.183 0.617 0.058 0.833l2.217 1.925c0.108 0.092 0.242 0.142 0.375 0.142 0.167 0 0.325-0.067 0.442-0.208 0.208-0.25 0.183-0.625-0.058-0.833z"></path>
<path d="M5.85 5.85c0.108 0.108 0.25 0.158 0.392 0.158 0.158 0 0.308-0.067 0.425-0.192 0.217-0.242 0.208-0.608-0.033-0.833l-2.383-2.242c-0.233-0.225-0.6-0.208-0.825 0.033-0.217 0.242-0.208 0.608 0.033 0.833l2.392 2.242z"></path>
<path d="M4.2 10.767c0-0.325-0.258-0.583-0.583-0.583 0 0 0 0 0 0l-3.033 0.017c-0.325 0-0.583 0.267-0.575 0.592 0 0.325 0.258 0.583 0.583 0.583 0 0 0 0 0 0l3.033-0.017c0.317 0 0.575-0.267 0.575-0.592z"></path>
<path d="M5.383 15.875l-2.35 2.025c-0.242 0.208-0.275 0.583-0.067 0.825 0.117 0.133 0.275 0.208 0.442 0.208 0.133 0 0.267-0.050 0.375-0.142l2.35-2.025c0.242-0.208 0.275-0.583 0.067-0.825-0.208-0.25-0.575-0.275-0.817-0.067z"></path>
</svg>
