<!-- Generated by IcoMoon.io -->
<svg version="1.1" xmlns="http://www.w3.org/2000/svg" width="24" height="24" viewBox="0 0 24 24">
<title>idea</title>
<path d="M14.655 17.636h-6.101c-0.337 0-0.611 0.274-0.611 0.611s0.274 0.611 0.611 0.611h6.101c0.337 0 0.611-0.274 0.611-0.611s-0.274-0.611-0.611-0.611z"></path>
<path d="M11.489 22.135h-2.682l2.2 1.124c0.174 0.090 0.366 0.133 0.555 0.133s0.378-0.044 0.55-0.131l2.231-1.129-2.854 0.002z"></path>
<path d="M8.775 6.161c0 0.935 0.833 1.698 1.858 1.698h0.405v-3.394h-0.405c-1.025 0-1.858 0.761-1.858 1.696z"></path>
<path d="M14.655 19.826h-6.101c-0.337 0-0.611 0.274-0.611 0.611s0.274 0.611 0.611 0.611h6.101c0.337 0 0.611-0.274 0.611-0.611s-0.274-0.611-0.611-0.611z"></path>
<path d="M12.17 12.388h0.405c1.025 0 1.858-0.761 1.858-1.698s-0.833-1.698-1.858-1.698h-0.405v3.397z"></path>
<path d="M11.561 0.421c-4.264 0-7.731 3.477-7.731 7.751 0 0.303 0.019 0.606 0.056 0.901 0.007 0.058 0.019 0.114 0.027 0.17 0.034 0.245 0.075 0.489 0.133 0.729 0.010 0.044 0.024 0.087 0.036 0.128 0.065 0.254 0.143 0.509 0.233 0.754 0.010 0.024 0.019 0.046 0.027 0.070 0.102 0.264 0.216 0.523 0.346 0.775 0.005 0.010 0.010 0.019 0.015 0.029 0.136 0.262 0.286 0.514 0.451 0.758 0.005 0.007 0.010 0.015 0.015 0.022 0.16 0.24 0.337 0.468 0.523 0.688 0.015 0.017 0.029 0.034 0.046 0.053 0.17 0.199 0.354 0.385 0.545 0.567 0.044 0.041 0.082 0.080 0.126 0.119 0.056 0.051 0.107 0.107 0.167 0.158 0.034 0.029 0.078 0.048 0.116 0.073 0.128 0.107 0.25 0.218 0.385 0.315 0.053 0.039 0.087 0.075 0.133 0.114 0.889 0.739 0.455 2.125 1.444 2.125 0.138 0 4.521 0 5.82 0 0.989 0 0.555-1.386 1.446-2.125 0.046-0.039 0.080-0.075 0.133-0.114 0.136-0.099 0.257-0.208 0.385-0.315 0.036-0.027 0.080-0.044 0.116-0.073 0.058-0.048 0.109-0.107 0.167-0.158 0.044-0.039 0.085-0.080 0.126-0.119 0.191-0.182 0.373-0.368 0.545-0.567 0.015-0.017 0.029-0.034 0.046-0.053 0.187-0.221 0.361-0.451 0.523-0.688 0.005-0.007 0.010-0.015 0.015-0.022 0.165-0.245 0.313-0.497 0.448-0.758 0.005-0.010 0.010-0.019 0.015-0.029 0.131-0.252 0.245-0.511 0.346-0.775 0.007-0.024 0.017-0.046 0.027-0.070 0.092-0.245 0.167-0.499 0.233-0.754 0.012-0.044 0.027-0.085 0.036-0.128 0.058-0.24 0.099-0.482 0.133-0.729 0.007-0.056 0.022-0.114 0.029-0.17 0.034-0.298 0.053-0.598 0.053-0.904-0.002-4.272-3.472-7.748-7.736-7.748zM12.574 7.859c1.65 0 2.992 1.27 2.992 2.83s-1.342 2.83-2.992 2.83h-0.405v0.565c0 0.313-0.254 0.567-0.567 0.567s-0.567-0.254-0.567-0.567v-0.567h-0.405c-1.65 0-2.992-1.27-2.992-2.83 0-0.313 0.254-0.567 0.567-0.567s0.567 0.254 0.567 0.567c0 0.935 0.833 1.698 1.858 1.698h0.405v-3.394h-0.405c-1.65 0-2.992-1.27-2.992-2.83s1.342-2.83 2.992-2.83h0.405v-0.567c0-0.313 0.254-0.567 0.567-0.567s0.567 0.254 0.567 0.567v0.567h0.405c1.65 0 2.992 1.27 2.992 2.83 0 0.313-0.254 0.567-0.567 0.567s-0.567-0.254-0.567-0.567c0-0.935-0.833-1.698-1.858-1.698h-0.405v3.394h0.405z"></path>
</svg>
