<svg xmlns="http://www.w3.org/2000/svg" viewBox="0 0 1024 1024"><path d="M962.133 509.155c0-93.156-18.844-173.867-56.889-242.133-40.533-72.178-94.222-127.644-161.067-166.044s-142.222-57.6-226.844-57.6c-54.044 0-104.533 7.822-151.467 23.467s-87.822 36.978-122.311 64.356c-34.844 27.022-65.422 59.022-91.733 96.356-26.311 36.978-47.644 76.444-62.933 118.756-15.289 41.956-25.956 85.689-32 131.2 22.044-31.644 47.289-61.156 75.022-88.533C160 361.247 192 335.647 228.267 312.18c36.267-23.822 76.8-42.667 122.311-57.244S503.111 225.78 566.4 265.958c98.844 62.578 101.689 129.422 98.844 155.022H364.8c5.689-34.133 25.956-81.778 84.978-155.378-115.556 17.067-195.911 89.244-237.511 151.467s-61.867 136.533-60.8 224.711c.711 71.467 23.467 152.178 68.267 216.178 44.8 64.356 120.889 109.511 189.867 136.178 51.556 19.556 109.156 29.511 173.156 29.156s120.889-7.467 171.022-20.978c46.222-12.444 85.333-27.733 117.689-45.867l-53.689-213.333c-36.267 12.089-135.111 64-250.667 48-161.422-22.4-200.889-138.311-201.244-178.844h596.267V509.159zm-902.4-30.578v-1.067c-.356.356-.356.711-.711 1.067h.711z"/></svg>