<!-- Generated by IcoMoon.io -->
<svg version="1.1" xmlns="http://www.w3.org/2000/svg" width="24" height="24" viewBox="0 0 24 24">
<title>ie</title>
<path d="M22.55 11.433c0-2.183-0.442-4.075-1.333-5.675-0.95-1.692-2.208-2.992-3.775-3.892s-3.333-1.35-5.317-1.35c-1.267 0-2.45 0.183-3.55 0.55s-2.058 0.867-2.867 1.508c-0.817 0.633-1.533 1.383-2.15 2.258-0.617 0.867-1.117 1.792-1.475 2.783-0.358 0.983-0.608 2.008-0.75 3.075 0.517-0.742 1.108-1.433 1.758-2.075 0.658-0.65 1.408-1.25 2.258-1.8 0.85-0.558 1.8-1 2.867-1.342s3.575-0.683 5.058 0.258c2.317 1.467 2.383 3.033 2.317 3.633h-7.042c0.133-0.8 0.608-1.917 1.992-3.642-2.708 0.4-4.592 2.092-5.567 3.55s-1.45 3.2-1.425 5.267c0.017 1.675 0.55 3.567 1.6 5.067 1.050 1.508 2.833 2.567 4.45 3.192 1.208 0.458 2.558 0.692 4.058 0.683s2.833-0.175 4.008-0.492c1.083-0.292 2-0.65 2.758-1.075l-1.258-5c-0.85 0.283-3.167 1.5-5.875 1.125-3.783-0.525-4.708-3.242-4.717-4.192h13.975v-2.417z"></path>
<path d="M1.4 10.717c0-0.008 0-0.017 0-0.025-0.008 0.008-0.008 0.017-0.017 0.025h0.017z"></path>
</svg>
