<!-- Generated by IcoMoon.io -->
<svg version="1.1" xmlns="http://www.w3.org/2000/svg" width="24" height="24" viewBox="0 0 24 24">
<title>images</title>
<path d="M21.844 4.969h-1.406v-2.813c0-0.776-0.631-1.406-1.406-1.406h-16.875c-0.776 0-1.406 0.631-1.406 1.406v15.469c0 0.776 0.631 1.406 1.406 1.406h1.406v2.813c0 0.776 0.631 1.406 1.406 1.406h16.875c0.776 0 1.406-0.631 1.406-1.406v-15.469c0-0.776-0.631-1.406-1.406-1.406zM2.156 17.625v-15.469h16.875v15.469h-16.875zM21.844 21.844h-16.875v-2.813h1.406v1.406h14.062v-14.062h1.406v15.469zM11.15 6.507c0 1.081 0.877 1.956 1.956 1.956s1.956-0.877 1.956-1.956-0.877-1.956-1.956-1.956-1.956 0.874-1.956 1.956v0zM7.781 7.781l-4.219 2.813v5.625h14.062v-7.031l-5.625 2.813-4.219-4.219z"></path>
</svg>
