<svg xmlns="http://www.w3.org/2000/svg" viewBox="0 0 1024 1024"><path d="M548.492 345.761c0 45.684 37.049 82.644 82.644 82.644s82.644-37.051 82.644-82.644-37.049-82.644-82.644-82.644-82.644 36.956-82.644 82.644zm260.652 484.716h59.428V473.905L630.856 652.189 333.712 414.473 155.428 592.757v237.716h653.716zM928 117.333H96c-32.78 0-59.428 26.649-59.428 59.428v713.144c0 32.78 26.649 59.428 59.428 59.428h832c32.78 0 59.428-26.651 59.428-59.428V176.761c0-32.78-26.651-59.428-59.428-59.428zm0 772.572H96V176.761h832v713.144z"/></svg>