<svg xmlns="http://www.w3.org/2000/svg" viewBox="0 0 1024 1024"><path d="M931.996 233.337h-60v-120c0-33.092-26.904-60-60-60H92.004c-33.092 0-60 26.904-60 60v659.992c0 33.092 26.904 60 60 60h60v120c0 33.092 26.904 60 60 60h719.992c33.092 0 60-26.904 60-60V293.337c0-33.092-26.904-60-60-60zM92.004 773.329V113.337h719.992v659.992H92.004zm839.992 180H212.004v-120h60v60h599.992V293.337h60v659.992zM475.72 298.961c0 46.124 37.404 83.436 83.436 83.436s83.436-37.404 83.436-83.436-37.404-83.436-83.436-83.436-83.436 37.312-83.436 83.436zm-143.716 54.376l-179.996 120v239.996H752V413.337l-239.996 120-179.996-179.996z"/></svg>