<!-- Generated by IcoMoon.io -->
<svg version="1.1" xmlns="http://www.w3.org/2000/svg" width="24" height="24" viewBox="0 0 24 24">
<title>image</title>
<path d="M12.855 7.604c0 1.071 0.868 1.937 1.937 1.937s1.937-0.868 1.937-1.937-0.868-1.937-1.937-1.937-1.937 0.866-1.937 1.937zM18.964 18.964h1.393v-8.357l-5.571 4.179-6.964-5.571-4.179 4.179v5.571h15.321zM21.75 2.25h-19.5c-0.768 0-1.393 0.625-1.393 1.393v16.714c0 0.768 0.625 1.393 1.393 1.393h19.5c0.768 0 1.393-0.625 1.393-1.393v-16.714c0-0.768-0.625-1.393-1.393-1.393zM21.75 20.357h-19.5v-16.714h19.5v16.714z"></path>
</svg>
