<svg xmlns="http://www.w3.org/2000/svg" viewBox="0 0 1024 1024"><path d="M724.771 78.661c-11.063-11.155-25.995-17.33-41.76-17.33H340.995c-15.67 0-30.7 6.175-41.67 17.33L57.335 320.562c-11.155 11.063-17.33 25.995-17.33 41.76v342.112c0 15.67 6.175 30.7 17.33 41.67l241.901 241.99c11.063 11.063 26.09 17.24 41.76 17.24h342.112c15.67 0 30.7-6.175 41.67-17.33l241.901-241.99c11.063-11.063 17.33-25.995 17.33-41.67V362.328c0-15.67-6.175-30.7-17.33-41.67L724.778 78.668zM512 651.333c-32.54 0-59-26.461-59-59V238.332c0-32.54 26.461-59 59-59s59 26.461 59 59v354.001c0 32.54-26.461 59-59 59zm59 177.001c0 32.54-26.461 59-59 59s-59-26.461-59-59 26.461-59 59-59 59 26.461 59 59z"/></svg>