<!-- Generated by IcoMoon.io -->
<svg version="1.1" xmlns="http://www.w3.org/2000/svg" width="24" height="24" viewBox="0 0 24 24">
<title>important-line</title>
<path d="M12 3.281c-0.801 0-1.453 0.652-1.453 1.453v8.719c0 0.801 0.652 1.453 1.453 1.453s1.453-0.652 1.453-1.453v-8.719c0-0.801-0.652-1.453-1.453-1.453z"></path>
<path d="M12 17.812c-0.801 0-1.453 0.652-1.453 1.453s0.652 1.453 1.453 1.453 1.453-0.652 1.453-1.453-0.652-1.453-1.453-1.453z"></path>
<path d="M23.198 6.762l-5.958-5.96c-0.272-0.275-0.64-0.427-1.029-0.427h-8.423c-0.386 0-0.756 0.152-1.026 0.427l-5.96 5.958c-0.275 0.272-0.427 0.64-0.427 1.029v8.426c0 0.386 0.152 0.756 0.427 1.026l5.958 5.96c0.272 0.272 0.643 0.425 1.029 0.425h8.426c0.386 0 0.756-0.152 1.026-0.427l5.958-5.96c0.272-0.272 0.427-0.64 0.427-1.026v-8.423c0-0.386-0.152-0.756-0.427-1.026zM22.263 15.719c0 0.341-0.136 0.665-0.377 0.906l-5.258 5.261c-0.238 0.243-0.565 0.377-0.906 0.377h-7.44c-0.341 0-0.668-0.134-0.908-0.375l-5.258-5.261c-0.243-0.241-0.377-0.565-0.377-0.908v-7.438c0-0.343 0.134-0.668 0.377-0.908l5.261-5.258c0.238-0.243 0.565-0.377 0.906-0.377h7.436c0.343 0 0.668 0.134 0.908 0.377l5.258 5.261c0.243 0.238 0.377 0.565 0.377 0.906v7.438z"></path>
</svg>
