<svg xmlns="http://www.w3.org/2000/svg" viewBox="0 0 1024 1024"><path d="M512 161.337c-34.196 0-62 27.802-62 62v371.996c0 34.196 27.802 62 62 62s62-27.802 62-62V223.337c0-34.196-27.802-62-62-62zm0 619.992c-34.196 0-62 27.802-62 62s27.802 62 62 62 62-27.802 62-62-27.802-62-62-62zm477.782-471.484L735.586 55.551c-11.624-11.722-27.318-18.212-43.884-18.212H332.3c-16.468 0-32.258 6.49-43.786 18.212L34.22 309.747c-11.722 11.624-18.212 27.318-18.212 43.884v359.498c0 16.468 6.49 32.258 18.212 43.786l254.196 254.294c11.624 11.624 27.416 18.116 43.884 18.116h359.498c16.468 0 32.258-6.49 43.786-18.212L989.78 756.819c11.624-11.624 18.212-27.318 18.212-43.786V353.631c0-16.468-6.49-32.258-18.212-43.786zM949.87 692.013c0 14.532-5.812 28.384-16.082 38.652l-224.36 224.456c-10.172 10.366-24.122 16.082-38.652 16.082H353.32c-14.532 0-28.48-5.716-38.75-15.984L90.21 730.763c-10.366-10.268-16.082-24.122-16.082-38.75V374.655c0-14.628 5.716-28.48 16.082-38.75l224.456-224.36c10.172-10.366 24.122-16.082 38.652-16.082H670.58c14.628 0 28.48 5.716 38.75 16.082l224.36 224.456c10.366 10.172 16.082 24.122 16.082 38.652v317.358z"/></svg>