<!-- Generated by IcoMoon.io -->
<svg version="1.1" xmlns="http://www.w3.org/2000/svg" width="24" height="24" viewBox="0 0 24 24">
<title>important</title>
<path d="M16.987 1.344c-0.259-0.261-0.609-0.406-0.979-0.406h-8.016c-0.367 0-0.72 0.145-0.977 0.406l-5.672 5.67c-0.261 0.259-0.406 0.609-0.406 0.979v8.018c0 0.367 0.145 0.72 0.406 0.977l5.67 5.672c0.259 0.259 0.611 0.404 0.979 0.404h8.018c0.367 0 0.72-0.145 0.977-0.406l5.67-5.672c0.259-0.259 0.406-0.609 0.406-0.977v-8.016c0-0.367-0.145-0.72-0.406-0.977l-5.67-5.672zM12 14.766c-0.763 0-1.383-0.62-1.383-1.383v-8.297c0-0.763 0.62-1.383 1.383-1.383s1.383 0.62 1.383 1.383v8.297c0 0.763-0.62 1.383-1.383 1.383zM13.383 18.914c0 0.763-0.62 1.383-1.383 1.383s-1.383-0.62-1.383-1.383 0.62-1.383 1.383-1.383 1.383 0.62 1.383 1.383z"></path>
</svg>
