<svg xmlns="http://www.w3.org/2000/svg" viewBox="0 0 1024 1024"><path d="M977.067 341.333l-59.733 38.4c38.4 106.667 29.867 226.133-25.6 328.533-55.467 106.667-153.6 179.2-264.533 204.8l-4.267-72.533-93.867 98.133 98.133 98.133v-51.2c132.267-29.867 256-115.2 324.267-243.2s72.533-277.333 25.6-401.067zm-256-192C755.2 166.4 789.334 192 814.934 217.6l-55.467 34.133L896 285.866l34.133-136.533-51.2 34.133c-34.133-38.4-76.8-68.267-123.733-93.867-209.067-110.933-465.067-51.2-605.867 128l59.733 34.133c123.733-149.333 337.067-196.267 512-102.4zM332.8 878.933c-174.933-93.867-256-294.4-200.533-477.867l51.2 29.867-38.4-132.267-132.267 38.4 59.733 29.867c-72.533 217.6 21.333 460.8 230.4 571.733 51.2 25.6 102.4 42.667 153.6 51.2l-4.267-68.267c-38.4-8.533-81.067-21.333-119.467-42.667zM627.2 742.4V507.733h187.733L529.066 221.866l-281.6 285.867h187.733V742.4z"/></svg>