<!-- Generated by IcoMoon.io -->
<svg version="1.1" xmlns="http://www.w3.org/2000/svg" width="24" height="24" viewBox="0 0 24 24">
<title>improvements</title>
<path d="M22.9 7.5l-1.4 0.9c0.9 2.5 0.7 5.3-0.6 7.7-1.3 2.5-3.6 4.2-6.2 4.8l-0.1-1.7-2.2 2.3 2.3 2.3v-1.2c3.1-0.7 6-2.7 7.6-5.7s1.7-6.5 0.6-9.4z"></path>
<path d="M16.9 3c0.8 0.4 1.6 1 2.2 1.6l-1.3 0.8 3.2 0.8 0.8-3.2-1.2 0.8c-0.8-0.9-1.8-1.6-2.9-2.2-4.9-2.6-10.9-1.2-14.2 3l1.4 0.8c2.9-3.5 7.9-4.6 12-2.4z"></path>
<path d="M7.8 20.1c-4.1-2.2-6-6.9-4.7-11.2l1.2 0.7-0.9-3.1-3.1 0.9 1.4 0.7c-1.7 5.1 0.5 10.8 5.4 13.4 1.2 0.6 2.4 1 3.6 1.2l-0.1-1.6c-0.9-0.2-1.9-0.5-2.8-1z"></path>
<path d="M14.7 16.9v-5.5h4.4l-6.7-6.7-6.6 6.7h4.4v5.5z"></path>
</svg>
