<!-- Generated by IcoMoon.io -->
<svg version="1.1" xmlns="http://www.w3.org/2000/svg" width="24" height="24" viewBox="0 0 24 24">
<title>info-bubble</title>
<path fill="#000" d="M12.099 4.097c-6.427 0-11.653 3.146-11.653 7.011 0 1.868 1.221 3.629 3.438 4.96l0.203 0.122-0.023 0.234c-0.081 0.91-0.52 2.32-2.355 2.822 0.474 0.088 1.020 0.146 1.605 0.146 1.76 0 3.332-0.533 4.669-1.584l0.139-0.107 0.169 0.033c0.275 0.059 0.559 0.101 0.84 0.147 0.001 0.014 0.001 0.027 0.002 0.040 0.905 0.131 1.83 0.201 2.765 0.201 5.578 0 10.258-2.337 11.519-5.47 0.014 0.005 0.028 0.009 0.042 0.014 0.189-0.5 0.291-1.019 0.291-1.555 0.001-3.868-5.226-7.013-11.652-7.013zM12.081 5.397c0.716 0 1.205 0.546 1.205 1.249 0 0.745-0.531 1.262-1.205 1.262-0.66 0-1.191-0.516-1.191-1.262 0-0.732 0.531-1.249 1.191-1.249zM14.076 16.111v0h-3.888v-0.603c0.847 0 0.918-0.128 0.918-1.189v-3.285c0-1.061-0.057-1.134-0.918-1.134v-0.575c0.876-0.057 1.807-0.286 2.798-0.702l0.245 0.129v5.58c0 1.045 0.085 1.175 0.846 1.175v0.602z"></path>
</svg>
