<svg xmlns="http://www.w3.org/2000/svg" viewBox="0 0 1024 1024"><path d="M516.209 196.127c-274.199 0-497.174 134.239-497.174 299.155 0 79.694 52.075 154.83 146.678 211.614l8.652 5.216-.968 9.964c-3.475 38.824-22.176 98.973-100.48 120.41 20.24 3.748 43.535 6.216 68.491 6.216 75.097 0 142.157-22.754 199.214-67.601l5.911-4.56 7.223 1.429c11.744 2.514 23.871 4.326 35.849 6.255.039.578.039 1.156.078 1.702 38.629 5.599 78.072 8.574 117.979 8.574 237.999 0 437.681-99.707 491.492-233.407.617.234 1.195.383 1.78.617 8.074-21.325 12.4-43.496 12.4-66.365.039-165.028-222.975-299.233-497.135-299.233zm-.734 55.477c30.555 0 51.419 23.293 51.419 53.27 0 31.791-22.676 53.85-51.419 53.85-28.16 0-50.836-22.02-50.836-53.85 0-31.25 22.676-53.27 50.836-53.27zm85.105 457.15H434.701v-25.729c36.122 0 39.17-5.45 39.17-50.724v-140.15c0-45.274-2.436-48.366-39.17-48.366v-24.527c37.356-2.436 77.104-12.205 119.369-29.938l10.471 5.521v238.077c0 44.579 3.631 50.141 36.083 50.141v25.69z"/></svg>