<!-- Generated by IcoMoon.io -->
<svg version="1.1" xmlns="http://www.w3.org/2000/svg" width="24" height="24" viewBox="0 0 24 24">
<title>info-line</title>
<path d="M12 8.347c-0.801 0-1.452 0.651-1.452 1.452v8.713c0 0.801 0.651 1.452 1.452 1.452s1.452-0.651 1.452-1.452v-8.713c0-0.801-0.651-1.452-1.452-1.452z"></path>
<path d="M12 3.757c-0.91 0-1.647 0.737-1.647 1.647s0.737 1.647 1.647 1.647 1.647-0.737 1.647-1.647c0-0.908-0.737-1.647-1.647-1.647z"></path>
<path d="M12.009 0.61c-6.285 0-11.381 5.096-11.381 11.381s5.096 11.381 11.381 11.381 11.381-5.096 11.381-11.381-5.096-11.381-11.381-11.381zM12.009 22.061c-5.561 0-10.070-4.508-10.070-10.070s4.508-10.072 10.070-10.072 10.070 4.508 10.070 10.070-4.506 10.072-10.070 10.072z"></path>
</svg>
