<svg xmlns="http://www.w3.org/2000/svg" viewBox="0 0 1024 1024"><path d="M512 377.471c-34.174 0-61.958 27.784-61.958 61.958v371.746c0 34.174 27.784 61.958 61.958 61.958s61.958-27.784 61.958-61.958V439.429c0-34.174-27.784-61.958-61.958-61.958zm0-195.844c-38.82 0-70.284 31.462-70.284 70.284s31.462 70.284 70.284 70.284 70.284-31.462 70.284-70.284c0-38.724-31.462-70.284-70.284-70.284zm.388-134.274c-268.16 0-485.594 217.432-485.594 485.594s217.432 485.594 485.594 485.594 485.594-217.432 485.594-485.594S780.55 47.353 512.388 47.353zm0 915.23c-237.278 0-429.638-192.36-429.638-429.638s192.36-429.734 429.638-429.734 429.638 192.36 429.638 429.638-192.262 429.734-429.638 429.734z"/></svg>