<!-- Generated by IcoMoon.io -->
<svg version="1.1" xmlns="http://www.w3.org/2000/svg" width="24" height="24" viewBox="0 0 24 24">
<title>info</title>
<path d="M12.008 1.548c-5.767 0-10.444 4.676-10.444 10.444s4.676 10.444 10.444 10.444 10.444-4.676 10.444-10.444-4.676-10.444-10.444-10.444zM13.332 17.976c0 0.735-0.598 1.332-1.332 1.332s-1.332-0.598-1.332-1.332v-7.995c0-0.735 0.598-1.332 1.332-1.332s1.332 0.598 1.332 1.332v7.995zM12 7.459c-0.835 0-1.512-0.677-1.512-1.512s0.677-1.512 1.512-1.512 1.512 0.677 1.512 1.512c0 0.835-0.677 1.512-1.512 1.512z"></path>
</svg>
