<svg xmlns="http://www.w3.org/2000/svg" viewBox="0 0 1024 1024"><path d="M512.358 87.375c-246.074 0-445.6 199.526-445.6 445.6s199.526 445.6 445.6 445.6 445.6-199.526 445.6-445.6-199.526-445.6-445.6-445.6zm56.495 700.919c0 31.359-25.494 56.853-56.853 56.853s-56.853-25.494-56.853-56.853V447.162c0-31.359 25.494-56.853 56.853-56.853s56.853 25.494 56.853 56.853v341.132zM512 339.581c-35.62 0-64.494-28.874-64.494-64.494S476.38 210.593 512 210.593s64.494 28.874 64.494 64.494c0 35.62-28.874 64.494-64.494 64.494z"/></svg>