<svg xmlns="http://www.w3.org/2000/svg" viewBox="0 0 1024 1024"><path d="M697.6 85.333H326.4c-147.2 0-262.4 115.2-262.4 262.4v374.4c0 144 118.4 262.4 262.4 262.4h374.4c144 0 262.4-118.4 262.4-262.4v-374.4c-3.2-147.2-118.4-262.4-265.6-262.4zm172.8 633.6c0 96-76.8 172.8-172.8 172.8H326.4c-96 0-172.8-76.8-172.8-172.8v-371.2c0-96 76.8-172.8 172.8-172.8h374.4c96 0 172.8 76.8 172.8 172.8v371.2zM512 325.333c-115.2 0-208 92.8-208 208s92.8 208 208 208 208-92.8 208-208-92.8-208-208-208zm0 332.8c-67.2 0-124.8-54.4-124.8-124.8s54.4-124.8 124.8-124.8 124.8 54.4 124.8 124.8-57.6 124.8-124.8 124.8zm278.4-342.4c0 30.044-24.356 54.4-54.4 54.4s-54.4-24.356-54.4-54.4c0-30.044 24.356-54.4 54.4-54.4s54.4 24.356 54.4 54.4z"/></svg>