<!-- Generated by IcoMoon.io -->
<svg version="1.1" xmlns="http://www.w3.org/2000/svg" width="24" height="24" viewBox="0 0 24 24">
<title>institute</title>
<path d="M2.1 9.675h1.95v7.425h-1.95v2.1h19.875v-2.1h-1.95v-7.425h1.95v-0.525h0.75v-1.65l-10.725-5.85-10.575 5.625v1.875h0.675v0.525zM13.8 9.675h2.7v7.425h-2.7v-7.425zM7.575 9.675h2.7v7.425h-2.7v-7.425z"></path>
<path d="M22.575 19.65h-21.15c-0.225 0-0.375 0.15-0.375 0.375v1.275c0 0.225 0.15 0.375 0.375 0.375h21.075c0.225 0 0.375-0.15 0.375-0.375v-1.275c0-0.225-0.15-0.375-0.3-0.375z"></path>
</svg>
