<!-- Generated by IcoMoon.io -->
<svg version="1.1" xmlns="http://www.w3.org/2000/svg" width="24" height="24" viewBox="0 0 24 24">
<title>instagram</title>
<path d="M16.35 1.5h-8.7c-3.45 0-6.15 2.7-6.15 6.15v8.775c0 3.375 2.775 6.15 6.15 6.15h8.775c3.375 0 6.15-2.775 6.15-6.15v-8.775c-0.075-3.45-2.775-6.15-6.225-6.15zM20.4 16.35c0 2.25-1.8 4.050-4.050 4.050h-8.7c-2.25 0-4.050-1.8-4.050-4.050v-8.7c0-2.25 1.8-4.050 4.050-4.050h8.775c2.25 0 4.050 1.8 4.050 4.050v8.7z"></path>
<path d="M12 7.125c-2.7 0-4.875 2.175-4.875 4.875s2.175 4.875 4.875 4.875 4.875-2.175 4.875-4.875-2.175-4.875-4.875-4.875zM12 14.925c-1.575 0-2.925-1.275-2.925-2.925s1.275-2.925 2.925-2.925 2.925 1.275 2.925 2.925-1.35 2.925-2.925 2.925z"></path>
<path d="M18.525 6.9c0 0.704-0.571 1.275-1.275 1.275s-1.275-0.571-1.275-1.275c0-0.704 0.571-1.275 1.275-1.275s1.275 0.571 1.275 1.275z"></path>
</svg>
