<svg xmlns="http://www.w3.org/2000/svg" viewBox="0 0 1024 1024"><path d="M791.195 692.872c97.901 0 177.674-79.773 174.047-181.294L802.076 185.246l-10.881-18.128c-3.627-3.627-10.881-3.627-18.128-3.627l-206.676 21.755V152.61c18.128-10.881 32.636-32.636 32.636-54.391 0-36.256-29.009-65.265-65.265-65.265s-65.265 29.009-65.265 65.265c0 21.755 14.501 47.137 32.636 54.391v47.137l-199.429 21.755c-3.627 0-10.881 3.627-14.501 10.881l-7.254 18.128-163.166 326.332c3.627 94.274 83.4 174.047 181.294 174.047s177.674-76.146 181.294-174.047L316.205 250.511v-7.254l195.802-21.755v649.044H356.095c-14.501 0-21.755 10.881-21.755 21.755v10.881h-54.391c-14.501 0-29.009 14.501-29.009 32.636v18.128c0 18.128 14.501 32.636 29.009 32.636h529.388c14.501 0 29.009-14.501 29.009-32.636v-18.128c0-18.128-14.501-32.636-29.009-32.636h-54.391v-10.881c0-14.501-10.881-21.755-21.755-21.755H577.279V210.628l195.802-21.755-159.539 326.332c0 97.901 79.773 177.674 177.674 177.674zM439.481 569.589H156.659l137.784-319.085 145.038 319.085zm344.467-377.096l145.038 326.332H646.164l137.784-326.332z"/></svg>