<!-- Generated by IcoMoon.io -->
<svg version="1.1" xmlns="http://www.w3.org/2000/svg" width="24" height="24" viewBox="0 0 24 24">
<title>justice-legal</title>
<path d="M18.544 15.739c2.295 0 4.164-1.87 4.079-4.249l-3.824-7.648-0.255-0.425c-0.085-0.085-0.255-0.085-0.425-0.085l-4.844 0.51v-0.765c0.425-0.255 0.765-0.765 0.765-1.275 0-0.85-0.68-1.53-1.53-1.53s-1.53 0.68-1.53 1.53c0 0.51 0.34 1.105 0.765 1.275v1.105l-4.674 0.51c-0.085 0-0.255 0.085-0.34 0.255l-0.17 0.425-3.824 7.648c0.085 2.21 1.955 4.079 4.249 4.079s4.164-1.785 4.249-4.079l-3.824-7.648v-0.17l4.589-0.51v15.212h-3.654c-0.34 0-0.51 0.255-0.51 0.51 0 0.085 0 0.085 0 0.255h-1.275c-0.34 0-0.68 0.34-0.68 0.765v0.425c0 0.425 0.34 0.765 0.68 0.765h12.408c0.34 0 0.68-0.34 0.68-0.765v-0.425c0-0.425-0.34-0.765-0.68-0.765h-1.275c0-0.085 0-0.085 0-0.255 0-0.34-0.255-0.51-0.51-0.51h-3.654v-15.467l4.589-0.51-3.739 7.648c0 2.295 1.87 4.164 4.164 4.164zM10.3 12.85h-6.629l3.229-7.479 3.399 7.479zM18.374 4.012l3.399 7.648h-6.629l3.229-7.648z"></path>
</svg>
