<!-- Generated by IcoMoon.io -->
<svg version="1.1" xmlns="http://www.w3.org/2000/svg" width="24" height="24" viewBox="0 0 24 24">
<title>key</title>
<path d="M21.114 2.789c-2.23-2.23-5.72-2.23-7.951 0-1.551 1.551-2.036 3.781-1.357 5.72l-9.696 9.696v3.006l0.873 0.873h1.939l0.291-0.291v-2.036l0.873-0.873h1.648l0.485-0.485v-1.454l0.873-0.873h1.551l0.582-0.582v-1.648l0.873-0.873h1.454c0 0 0.291 0.291 0.582 0.485l1.357-1.357c1.939 0.679 4.169 0.194 5.72-1.357 2.133-2.23 2.133-5.72-0.097-7.951zM18.593 7.346c-1.164 0-2.036-0.873-2.036-2.036 0-1.067 0.873-2.036 2.036-2.036s2.036 0.873 2.036 2.036c-0.097 1.164-0.97 2.036-2.036 2.036z"></path>
</svg>
