<svg xmlns="http://www.w3.org/2000/svg" viewBox="0 0 1024 1024"><path d="M900.872 140.325c-95.154-95.154-244.073-95.154-339.227 0-66.189 66.189-86.882 161.343-57.917 244.073L90.043 798.083v128.239l37.237 37.237h82.73l12.408-12.408v-86.882l37.237-37.237h70.325l20.68-20.68v-62.053l37.237-37.237h66.189l24.816-24.816v-70.325l37.237-37.237h62.053s12.408 12.408 24.816 20.68l57.917-57.917c82.73 28.965 177.884 8.272 244.073-57.917 91.018-95.154 91.018-244.073-4.136-339.227zM793.31 334.769c-49.645 0-86.882-37.237-86.882-86.882 0-45.509 37.237-86.882 86.882-86.882s86.882 37.237 86.882 86.882c-4.136 49.645-41.373 86.882-86.882 86.882z"/></svg>