<svg xmlns="http://www.w3.org/2000/svg" viewBox="0 0 1024 1024"><path d="M600.264 393.581c-47.808 14.712-73.552-29.424-110.328-29.424-3.68 0-14.712 0-18.392 3.68l-14.712 3.68-22.064 14.712c-3.68 0-11.032 11.032-25.744 18.392 0 0-3.68 3.68-14.712 11.032-3.68 3.68-11.032 11.032-14.712 11.032l3.68 18.392h-3.68c0-14.712-11.032-25.744-18.392-29.424-3.68 0-11.032-3.68-14.712 0 0 18.392-18.392 29.424-33.096 44.136 0 18.392-18.392 25.744-29.424 40.456l3.68 3.68c11.032 11.032 25.744 3.68 33.096 0h3.68c0 11.032-11.032 11.032-14.712 14.712 3.68 3.68 14.712 0 18.392 0 11.032-3.68 18.392 3.68 29.424 0 14.712-11.032 25.744-11.032 29.424-25.744h3.68l-3.68 18.392 11.032-11.032s11.032-18.392 14.712-25.744c0 11.032-3.68 14.712-3.68 18.392 3.68 0 11.032-11.032 14.712-14.712l3.68-11.032c3.68 0 0 18.392-3.68 25.744l-18.392 40.456c0 3.68-18.392 33.096-29.424 44.136-11.032 3.68-29.424 11.032-29.424 18.392 0 0 47.808 0 66.2-3.68 11.032-3.68 29.424-40.456 44.136-47.808 3.68-3.68 14.712-11.032 25.744-14.712 25.744-11.032 11.032-44.136 25.744-18.392 14.712 11.032 29.424 3.68 66.2 3.68-11.032-3.68-14.712-18.392-14.712-18.392 3.68-3.68 11.032 11.032 11.032 3.68 0-11.032 3.68-25.744 3.68-18.392 0 0 3.68 14.712 3.68 11.032 0-11.032 0-11.032 3.68-14.712s3.68-11.032 11.032-11.032c3.68 0 3.68-3.68 3.68 0-11.032 14.712-18.392 29.424-18.392 47.808 0 25.744 25.744 40.456 11.032 58.84-3.68 14.712-25.744 3.68-29.424 18.392 0 3.68 0 3.68 3.68 3.68h44.136c14.712-3.68 11.032-11.032 14.712-14.712 3.68-25.744 3.68-25.744 11.032-29.424 0-11.032 14.712-25.744 14.712-29.424s14.712-14.712 25.744-18.392h11.032c3.68-3.68 18.392-11.032 25.744-25.744 3.68-3.68 3.68-11.032 14.712-25.744-3.68 0-11.032-3.68 0 0 11.032 0 14.712 0 18.392 11.032-3.68-18.392-18.392-44.136-40.456-66.2-29.424-14.712-66.2-14.712-102.976-3.68zm121.368 73.552s0-3.68-3.68 0c-3.68 14.712-3.68 18.392-29.424 44.136-3.68 3.68 11.032 25.744 11.032 25.744-3.68 0 11.032 14.712 11.032 14.712s3.68 11.032 0 14.712c0 3.68-11.032 11.032-14.712 11.032-3.68 3.68-25.744 14.712-25.744 18.392s25.744 0 29.424 0h29.424l11.032-11.032s11.032-11.032 11.032-14.712c3.68-3.68 3.68-14.712 3.68-14.712s-3.68-11.032-11.032-18.392c0 0-11.032-18.392-14.712-29.424-7.352-22.064-7.352-40.456-7.352-40.456zM508.32 544.365s-14.712 0-14.712 3.68c-3.68 0-18.392 3.68-18.392 3.68s0 3.68 3.68 11.032c0 3.68 0 14.712-3.68 18.392-3.68 0-18.392 3.68-18.392 3.68l-3.68 3.68h51.488c11.032 3.68 18.392-14.712 25.744-18.392 0-3.68 3.68-14.712 11.032-29.424v-3.68h-11.032c-11.032 3.68-22.064 7.352-22.064 7.352zm511.2-147.104L758.4 323.709 743.688 47.877 519.344 202.341 291.328 40.525l-14.712 275.832-261.12 73.552 202.272 183.888-102.976 253.76 272.152-44.136 132.4 242.728 132.4-239.048 272.152 44.136-110.328-253.76 205.952-180.208zm-500.168 375.12c-143.432 0-261.12-117.688-261.12-261.12s117.688-261.12 261.12-261.12 261.12 117.688 261.12 261.12-117.688 261.12-261.12 261.12z"/></svg>