<!-- Generated by IcoMoon.io -->
<svg version="1.1" xmlns="http://www.w3.org/2000/svg" width="24" height="24" viewBox="0 0 24 24">
<title>law-enforcement</title>
<path d="M14.069 8.725c-1.12 0.345-1.724-0.69-2.586-0.69-0.086 0-0.345 0-0.431 0.086l-0.345 0.086-0.517 0.345c-0.086 0-0.259 0.259-0.603 0.431 0 0-0.086 0.086-0.345 0.259-0.086 0.086-0.259 0.259-0.345 0.259l0.086 0.431c-0.086 0-0.086 0-0.086 0 0-0.345-0.259-0.603-0.431-0.69-0.086 0-0.259-0.086-0.345 0 0 0.431-0.431 0.69-0.776 1.034 0 0.431-0.431 0.603-0.69 0.948l0.086 0.086c0.259 0.259 0.603 0.086 0.776 0h0.086c0 0.259-0.259 0.259-0.345 0.345 0.086 0.086 0.345 0 0.431 0 0.259-0.086 0.431 0.086 0.69 0 0.345-0.259 0.603-0.259 0.69-0.603 0.086 0 0.086 0 0.086 0l-0.086 0.431c0.086-0.086 0.086-0.086 0.259-0.259 0 0 0.259-0.431 0.345-0.603 0 0.259-0.086 0.345-0.086 0.431 0.086 0 0.259-0.259 0.345-0.345l0.086-0.259c0.086 0 0 0.431-0.086 0.603l-0.431 0.948c0 0.086-0.431 0.776-0.69 1.034-0.259 0.086-0.69 0.259-0.69 0.431 0 0 1.12 0 1.552-0.086 0.259-0.086 0.69-0.948 1.034-1.12 0.086-0.086 0.345-0.259 0.603-0.345 0.603-0.259 0.259-1.034 0.603-0.431 0.345 0.259 0.69 0.086 1.552 0.086-0.259-0.086-0.345-0.431-0.345-0.431 0.086-0.086 0.259 0.259 0.259 0.086 0-0.259 0.086-0.603 0.086-0.431 0 0 0.086 0.345 0.086 0.259 0-0.259 0-0.259 0.086-0.345s0.086-0.259 0.259-0.259c0.086 0 0.086-0.086 0.086 0-0.259 0.345-0.431 0.69-0.431 1.12 0 0.603 0.603 0.948 0.259 1.379-0.086 0.345-0.603 0.086-0.69 0.431 0 0.086 0 0.086 0.086 0.086 0.431 0 0.69 0 1.034 0 0.345-0.086 0.259-0.259 0.345-0.345 0.086-0.603 0.086-0.603 0.259-0.69 0-0.259 0.345-0.603 0.345-0.69s0.345-0.345 0.603-0.431c0.086 0 0.259 0 0.259 0 0.086-0.086 0.431-0.259 0.603-0.603 0.086-0.086 0.086-0.259 0.345-0.603-0.086 0-0.259-0.086 0 0 0.259 0 0.345 0 0.431 0.259-0.086-0.431-0.431-1.034-0.948-1.552-0.69-0.345-1.552-0.345-2.413-0.086z"></path>
<path d="M16.913 10.448c0 0 0-0.086-0.086 0-0.086 0.345-0.086 0.431-0.69 1.034-0.086 0.086 0.259 0.603 0.259 0.603-0.086 0 0.259 0.345 0.259 0.345s0.086 0.259 0 0.345c0 0.086-0.259 0.259-0.345 0.259-0.086 0.086-0.603 0.345-0.603 0.431s0.603 0 0.69 0c0.086 0 0.603 0 0.69 0l0.259-0.259c0 0 0.259-0.259 0.259-0.345 0.086-0.086 0.086-0.345 0.086-0.345s-0.086-0.259-0.259-0.431c0 0-0.259-0.431-0.345-0.69-0.172-0.517-0.172-0.948-0.172-0.948z"></path>
<path d="M11.914 12.259c0 0-0.345 0-0.345 0.086-0.086 0-0.431 0.086-0.431 0.086s0 0.086 0.086 0.259c0 0.086 0 0.345-0.086 0.431-0.086 0-0.431 0.086-0.431 0.086l-0.086 0.086c0 0 0 0 0.259 0s0.776 0 0.948 0c0.259 0.086 0.431-0.345 0.603-0.431 0-0.086 0.086-0.345 0.259-0.69 0-0.086 0-0.086 0-0.086s-0.086 0-0.259 0c-0.259 0.086-0.517 0.172-0.517 0.172z"></path>
<path d="M23.895 8.811l-6.12-1.724-0.345-6.465-5.258 3.62-5.344-3.793-0.345 6.465-6.12 1.724 4.741 4.31-2.414 5.947 6.379-1.034 3.103 5.689 3.103-5.603 6.379 1.034-2.586-5.947 4.827-4.224zM12.172 17.603c-3.362 0-6.12-2.758-6.12-6.12s2.758-6.12 6.12-6.12 6.12 2.758 6.12 6.12-2.758 6.12-6.12 6.12z"></path>
</svg>
