<svg xmlns="http://www.w3.org/2000/svg" viewBox="0 0 1024 1024"><path d="M802.486 484.539c3.928-10.44 7.132-21.296 9.924-32.15.516-1.86 1.138-3.618 1.55-5.478 2.482-10.234 4.238-20.572 5.686-31.116.31-2.378.93-4.858 1.24-7.236 1.448-12.716 2.274-25.534 2.274-38.56 0-182.354-148.034-330.7-329.872-330.7s-329.872 148.344-329.872 330.7c0 12.922.828 25.844 2.378 38.456.31 2.482.828 4.858 1.138 7.236 1.448 10.44 3.204 20.882 5.686 31.116.414 1.86 1.034 3.722 1.55 5.478 2.792 10.854 6.1 21.708 9.924 32.15.414 1.034.828 1.964 1.138 2.998 4.342 11.268 9.2 22.33 14.782 33.08l.62 1.24c5.79 11.164 12.198 21.916 19.228 32.356l.62.93c6.822 10.234 14.37 19.952 22.33 29.358.62.724 1.24 1.448 1.964 2.274 7.236 8.476 15.092 16.436 23.26 24.19 1.86 1.758 3.514 3.412 5.376 5.066 2.378 2.17 4.548 4.548 7.132 6.72 1.448 1.24 3.308 2.068 4.962 3.102 5.478 4.548 10.648 9.304 16.436 13.438 2.274 1.654 3.722 3.204 5.686 4.858 37.938 31.53 19.434 90.66 61.612 90.66h248.308c42.178 0 23.674-59.13 61.716-90.66 1.964-1.654 3.412-3.204 5.686-4.858 5.79-4.238 10.958-8.89 16.436-13.438 1.55-1.138 3.412-1.86 4.962-3.102 2.482-2.068 4.652-4.548 7.132-6.72 1.86-1.654 3.618-3.412 5.376-5.066 8.166-7.754 15.92-15.714 23.26-24.19.62-.724 1.24-1.448 1.964-2.274 7.96-9.408 15.402-19.228 22.33-29.358l.62-.93c7.03-10.44 13.336-21.192 19.124-32.356l.62-1.24c5.582-10.752 10.44-21.812 14.782-33.08.104-1.034.516-1.964.93-2.894zM677.402 360.281c-14.37 0-26.05-11.682-26.05-26.05 0-79.29-71.536-132.632-130.15-132.632-14.37 0-26.05-11.682-26.05-26.05s11.682-26.05 26.05-26.05c89.524 0 182.252 65.954 182.252 184.63-.104 14.472-11.682 26.154-26.05 26.154zM490.188 965.755H375.75l93.866 47.966c7.444 3.824 15.61 5.686 23.674 5.686s16.126-1.86 23.466-5.582l95.21-48.174-121.776.104zm161.162-72.468c0-14.37-11.682-26.05-26.05-26.05H365c-14.37 0-26.05 11.682-26.05 26.05s11.682 26.05 26.05 26.05h260.3c14.37 0 26.05-11.682 26.05-26.05zm0-93.554c0-14.37-11.682-26.05-26.05-26.05H365c-14.37 0-26.05 11.682-26.05 26.05s11.682 26.05 26.05 26.05h260.3c14.37 0 26.05-11.682 26.05-26.05z"/></svg>