<!-- Generated by IcoMoon.io -->
<svg version="1.1" xmlns="http://www.w3.org/2000/svg" width="24" height="24" viewBox="0 0 24 24">
<title>lightbulb</title>
<path d="M18.808 10.856c0.092-0.245 0.167-0.499 0.233-0.754 0.012-0.044 0.027-0.085 0.036-0.128 0.058-0.24 0.099-0.482 0.133-0.729 0.007-0.056 0.022-0.114 0.029-0.17 0.034-0.298 0.053-0.598 0.053-0.904 0-4.274-3.47-7.751-7.731-7.751s-7.731 3.477-7.731 7.751c0 0.303 0.019 0.606 0.056 0.901 0.007 0.058 0.019 0.114 0.027 0.17 0.034 0.245 0.075 0.489 0.133 0.729 0.010 0.044 0.024 0.087 0.036 0.128 0.065 0.254 0.143 0.509 0.233 0.754 0.010 0.024 0.019 0.046 0.027 0.070 0.102 0.264 0.216 0.523 0.346 0.775 0.005 0.010 0.010 0.019 0.015 0.029 0.136 0.262 0.286 0.514 0.451 0.758 0.005 0.007 0.010 0.015 0.015 0.022 0.16 0.24 0.337 0.468 0.523 0.688 0.015 0.017 0.029 0.034 0.046 0.053 0.17 0.199 0.354 0.385 0.545 0.567 0.044 0.041 0.082 0.080 0.126 0.119 0.056 0.051 0.107 0.107 0.167 0.158 0.034 0.029 0.078 0.048 0.116 0.073 0.128 0.107 0.25 0.218 0.385 0.315 0.053 0.039 0.087 0.075 0.133 0.114 0.889 0.739 0.455 2.125 1.444 2.125 0.138 0 4.521 0 5.82 0 0.989 0 0.555-1.386 1.446-2.125 0.046-0.039 0.080-0.075 0.133-0.114 0.136-0.099 0.257-0.208 0.385-0.315 0.036-0.027 0.080-0.044 0.116-0.073 0.058-0.048 0.109-0.107 0.167-0.158 0.044-0.039 0.085-0.080 0.126-0.119 0.191-0.182 0.373-0.368 0.545-0.567 0.015-0.017 0.029-0.034 0.046-0.053 0.187-0.221 0.361-0.451 0.523-0.688 0.005-0.007 0.010-0.015 0.015-0.022 0.165-0.245 0.313-0.497 0.448-0.758 0.005-0.010 0.010-0.019 0.015-0.029 0.131-0.252 0.245-0.511 0.346-0.775 0.002-0.024 0.012-0.046 0.022-0.068v0zM15.877 7.944c-0.337 0-0.611-0.274-0.611-0.611 0-1.858-1.677-3.109-3.050-3.109-0.337 0-0.611-0.274-0.611-0.611s0.274-0.611 0.611-0.611c2.098 0 4.272 1.546 4.272 4.327-0.002 0.339-0.274 0.613-0.611 0.613zM11.489 22.135h-2.682l2.2 1.124c0.174 0.090 0.366 0.133 0.555 0.133s0.378-0.044 0.55-0.131l2.231-1.129-2.854 0.002zM15.266 20.436c0-0.337-0.274-0.611-0.611-0.611h-6.101c-0.337 0-0.611 0.274-0.611 0.611s0.274 0.611 0.611 0.611h6.101c0.337 0 0.611-0.274 0.611-0.611zM15.266 18.244c0-0.337-0.274-0.611-0.611-0.611h-6.101c-0.337 0-0.611 0.274-0.611 0.611s0.274 0.611 0.611 0.611h6.101c0.337 0 0.611-0.274 0.611-0.611z"></path>
</svg>
