<!-- Generated by IcoMoon.io -->
<svg version="1.1" xmlns="http://www.w3.org/2000/svg" width="24" height="24" viewBox="0 0 24 24">
<title>link</title>
<path d="M5.157 13.825l-1.916-2.372c-2.19-2.646-1.825-6.569 0.73-8.759 2.646-2.19 6.569-1.825 8.759 0.73l2.372 2.829c0.365 0.365 0.639 0.821 0.821 1.277 0 0 0 0 0 0 0 0.091 0.091 0.091 0.091 0.182 0 0 0 0.091 0 0.091s0 0 0 0c0.091 0.182 0.091 0.274 0.182 0.456 0.365 1.277 0.365 2.555 0 3.832 0 0 0 0 0 0.091 0 0 0 0 0 0 0 0.091-0.091 0.274-0.091 0.365-0.091 0.182-0.091 0.274-0.182 0.456-0.365 0.73-0.912 1.369-1.551 2.007-0.365 0.274-0.73 0.547-1.186 0.73-0.821-0.73-1.551-1.734-1.277-2.464 0.274-0.091 0.456-0.274 0.73-0.456 0.547-0.456 0.912-1.004 1.095-1.642 0 0 0 0 0 0s0.091-0.182 0.091-0.365c0-0.091 0-0.274 0-0.365 0 0 0 0 0 0 0-0.73-0.274-1.551-0.73-2.19l-0.547-0.639-0.365-0.182-0.274-0.365-1.551-1.825c-1.095-1.369-3.193-1.551-4.562-0.456-1.369 1.186-1.551 3.193-0.365 4.653l0.639 0.821c-0.456 0.912-0.821 2.099-0.912 3.558z"></path>
<path d="M19.755 21.489c-2.646 2.19-6.569 1.825-8.759-0.73l-2.372-2.829c-0.365-0.456-0.639-0.821-0.821-1.277 0 0 0 0 0 0 0-0.091-0.091-0.091-0.091-0.182 0 0 0-0.091 0-0.091s0 0 0 0c-0.091-0.182-0.091-0.274-0.182-0.456-0.365-1.277-0.365-2.646 0-3.832 0 0 0 0 0-0.091 0 0 0 0 0 0 0-0.091 0.091-0.274 0.091-0.365 0.091-0.182 0.091-0.274 0.182-0.456 0.365-0.73 0.912-1.369 1.551-2.007 0.365-0.274 0.73-0.547 1.186-0.73 0.73 0.73 1.369 1.734 1.277 2.464-0.274 0.091-0.456 0.274-0.639 0.456-0.547 0.456-0.912 1.004-1.095 1.642 0 0-0.091 0.182-0.091 0.365 0 0.091 0 0.274 0 0.365 0 0 0 0 0 0 0 0.73 0.274 1.551 0.73 2.19l0.547 0.639 0.547 0.73 1.551 1.825c1.186 1.369 3.193 1.551 4.653 0.365 1.369-1.186 1.551-3.193 0.365-4.653l-0.73-0.821c0.456-1.004 0.821-2.19 0.821-3.558l2.007 2.372c2.281 2.555 1.916 6.478-0.73 8.668z"></path>
</svg>
