<!-- Generated by IcoMoon.io -->
<svg version="1.1" xmlns="http://www.w3.org/2000/svg" width="24" height="24" viewBox="0 0 24 24">
<title>linkedin</title>
<path d="M7.513 4.148c0 1.291-1.046 2.337-2.337 2.337s-2.337-1.046-2.337-2.337c0-1.291 1.046-2.337 2.337-2.337s2.337 1.046 2.337 2.337z"></path>
<path d="M3.213 8.168h3.926v12.619h-3.926v-12.619z"></path>
<path d="M17.141 7.793c-1.87 0-3.178 1.028-3.646 2.056v-1.776h-3.926v12.619h3.926v-6.263c0-1.589 0.281-3.178 2.337-3.178s2.056 1.87 2.056 3.365v6.169h3.926v-6.917c0-3.365-0.748-6.076-4.674-6.076z"></path>
</svg>
