<svg xmlns="http://www.w3.org/2000/svg" viewBox="0 0 1024 1024"><path d="M220.036 611.193l-81.753-101.218c-93.432-112.897-77.86-280.285 31.144-373.717 112.897-93.432 280.285-77.86 373.717 31.144l101.218 120.683c15.572 15.572 27.251 35.037 35.037 54.502 0 3.893 3.893 3.893 3.893 7.786v3.893c3.893 7.786 3.893 11.679 7.786 19.465 15.572 54.502 15.572 109.004 0 163.506v3.893c0 3.893-3.893 11.679-3.893 15.572-3.893 7.786-3.893 11.679-7.786 19.465-15.572 31.144-38.93 58.395-66.181 85.646-15.572 11.679-31.144 23.358-50.609 31.144-35.037-31.144-66.181-73.967-54.502-105.111 11.679-3.893 19.465-11.679 31.144-19.465 23.358-19.465 38.93-42.823 46.716-70.074s3.893-7.786 3.893-15.572v-15.572c0-31.144-11.679-66.181-31.144-93.432l-23.358-27.251-15.572-7.786-11.679-15.572-66.181-77.86c-46.716-58.395-136.255-66.181-194.65-19.465-58.395 50.609-66.181 136.255-15.572 198.543l27.251 35.037c-19.465 38.93-35.037 89.539-38.93 151.827zm622.858 327.001c-112.897 93.432-280.285 77.86-373.717-31.144L367.959 786.367c-15.572-19.465-27.251-35.037-35.037-54.502 0-3.893-3.893-3.893-3.893-7.786v-3.893c-3.893-7.786-3.893-11.679-7.786-19.465-15.572-54.502-15.572-112.897 0-163.506v-3.893c0-3.893 3.893-11.679 3.893-15.572 3.893-7.786 3.893-11.679 7.786-19.465 15.572-31.144 38.93-58.395 66.181-85.646 15.572-11.679 31.144-23.358 50.609-31.144 31.144 31.144 58.395 73.967 54.502 105.111-11.679 3.893-19.465 11.679-27.251 19.465-23.358 19.465-38.93 42.823-46.716 70.074 0 0-3.893 7.786-3.893 15.572v15.572c0 31.144 11.679 66.181 31.144 93.432l23.358 27.251 23.358 31.144 66.181 77.86c50.609 58.395 136.255 66.181 198.543 15.572 58.395-50.609 66.181-136.255 15.572-198.543l-31.144-35.037c19.465-42.823 35.037-93.432 35.037-151.827l85.646 101.218c97.325 109.004 81.753 276.392-31.144 369.824z"/></svg>