<!-- Generated by IcoMoon.io -->
<svg version="1.1" xmlns="http://www.w3.org/2000/svg" width="24" height="24" viewBox="0 0 24 24">
<title>location</title>
<path d="M11.454 23.593c0.126 0.139 0.247 0.23 0.364 0.293 0.002 0.002 0.005 0.002 0.006 0.003 0.081 0.042 0.16 0.073 0.235 0.073s0.154-0.032 0.236-0.073c0.001-0.001 0.005-0.001 0.006-0.003 0.117-0.063 0.239-0.153 0.365-0.293 0 0 6.972-7.582 7.673-14.152 0.042-0.339 0.070-0.683 0.070-1.032 0-4.644-3.765-8.409-8.409-8.409s-8.409 3.765-8.409 8.409c0 0.355 0.029 0.702 0.072 1.046 0.719 6.567 7.791 14.139 7.791 14.139zM12 3c2.982 0 5.409 2.427 5.409 5.409s-2.427 5.409-5.409 5.409-5.409-2.427-5.409-5.409c0-2.982 2.427-5.409 5.409-5.409z"></path>
</svg>
