<svg xmlns="http://www.w3.org/2000/svg" viewBox="0 0 1024 1024"><path d="M488.704 1027.989c5.376 5.952 10.56 9.792 15.552 12.48.064.064.192.064.256.128 3.456 1.792 6.848 3.136 10.048 3.136s6.592-1.344 10.048-3.136c.064-.064.192-.064.256-.128 4.992-2.688 10.176-6.528 15.552-12.48 0 0 297.472-323.52 327.36-603.84 1.792-14.464 3.008-29.12 3.008-44.032 0-198.144-160.64-358.784-358.784-358.784s-358.784 160.64-358.784 358.784c0 15.168 1.216 29.952 3.072 44.608 30.656 280.192 332.416 603.264 332.416 603.264zM512 149.333c127.232 0 230.784 103.552 230.784 230.784S639.232 610.901 512 610.901 281.216 507.349 281.216 380.117c0-127.232 103.552-230.784 230.784-230.784z"/></svg>