<!-- Generated by IcoMoon.io -->
<svg version="1.1" xmlns="http://www.w3.org/2000/svg" width="24" height="24" viewBox="0 0 24 24">
<title>lock</title>
<path d="M18.969 8.431h-2.125v-3.484c0-2.719-2.21-4.929-4.929-4.929s-4.929 2.21-4.929 4.929v3.484h-1.955c-0.765 0-1.36 0.595-1.36 1.36v11.217c0 0.765 0.595 1.36 1.36 1.36h14.022c0.765 0 1.36-0.595 1.36-1.36v0-11.133c0-0.765-0.68-1.445-1.445-1.445zM9.705 5.031c0-1.275 1.020-2.295 2.295-2.295s2.295 1.020 2.295 2.295v3.569h-4.589v-3.569zM9.621 19.988l1.275-4.419c-0.595-0.425-1.020-1.105-1.020-1.87 0-1.19 1.020-2.21 2.21-2.21 1.275 0 2.21 1.020 2.21 2.21 0 0.85-0.51 1.53-1.19 1.955l1.19 4.419h-4.674z"></path>
</svg>
