<svg xmlns="http://www.w3.org/2000/svg" viewBox="0 0 1024 1024"><path d="M809.323 381.048h-90.647V232.39c0-116.029-94.274-210.303-210.303-210.303S298.07 116.361 298.07 232.39v148.658h-83.393c-32.636 0-58.011 25.382-58.011 58.011v478.61c0 32.636 25.382 58.011 58.011 58.011h598.266c32.636 0 58.011-25.382 58.011-58.011v-474.99c0-32.636-29.009-61.638-61.638-61.638zM414.099 236.01c0-54.391 43.51-97.901 97.901-97.901s97.901 43.51 97.901 97.901v152.285H414.106V236.01zm-3.62 638.156l54.391-188.541c-25.382-18.128-43.51-47.137-43.51-79.766 0-50.764 43.51-94.274 94.274-94.274 54.391 0 94.274 43.51 94.274 94.274 0 36.256-21.755 65.265-50.764 83.393l50.764 188.541H410.486z"/></svg>