<!-- Generated by IcoMoon.io -->
<svg version="1.1" xmlns="http://www.w3.org/2000/svg" width="24" height="24" viewBox="0 0 24 24">
<title>logo</title>
<path d="M14.982 9.854c0.066-0.216 0.234-0.791 0.505-1.727 0.066-0.245 0.234-0.731 0.504-1.458 0.27-0.751 0.486-1.352 0.648-1.805-0.476 0.32-0.958 0.743-1.448 1.269-1.749 1.886-3.781 4.166-4.501 5.362 0.275-0.067 0.822-0.643 2.567-1.241 1.113-0.381 1.725-0.401 1.725-0.401v0zM14.671 11.058c-5.516 0-7.923 8.794-11.748 8.794-0.867 0-1.539-0.39-2.013-1.169-0.304-0.498-0.456-1.066-0.456-1.705 0-1.603 0.757-3.627 2.273-6.070 1.292-2.079 2.654-3.753 4.088-5.022 1.241-1.091 2.303-1.636 3.186-1.636 0.498 0 0.88 0.178 1.147 0.535 0.215 0.282 0.323 0.623 0.323 1.025 0 0.72-0.241 1.541-0.722 2.463-0.422 0.795-0.948 1.508-1.577 2.139-0.415 0.408-0.741 0.613-0.978 0.613-0.156 0-0.299-0.078-0.434-0.234-0.096-0.112-0.144-0.238-0.144-0.379 0-0.261 0.226-0.558 0.678-0.892 0.638-0.476 1.145-0.996 1.522-1.56 0.556-0.817 0.833-1.508 0.833-2.073 0-0.229-0.050-0.401-0.15-0.512s-0.251-0.166-0.451-0.166c-0.408 0-0.987 0.297-1.737 0.892-0.854 0.668-1.755 1.578-2.705 2.729-1.21 1.463-2.129 2.904-2.76 4.324-0.653 1.47-0.979 2.726-0.979 3.767 0 0.498 0.144 0.921 0.434 1.27 0.318 0.394 0.708 0.607 1.167 0.59 1.748-0.064 3.926-4.054 4.599-4.981 6.669-9.205 7.177-9.229 8.187-10.187 0.586-0.564 1.037-0.847 1.348-0.847 0.194 0 0.361 0.078 0.503 0.234 0.119 0.141 0.178 0.297 0.178 0.468 0 0.207-0.104 0.572-0.311 1.091-0.356 0.913-0.697 1.889-1.023 2.929-0.282 0.921-0.472 1.627-0.568 2.117 0.134 0 0.223-0.003 0.267-0.012 0.215-0.007 0.393-0.011 0.534-0.011 0.43 0 0.645 0.163 0.645 0.49 0 0.141-0.046 0.28-0.138 0.417s-0.197 0.222-0.316 0.251c-0.045 0.015-0.166 0.022-0.366 0.022-0.422 0-0.736 0.026-0.943 0.078-0.078 0.234-0.281 2.217-0.582 2.284-0.93 0.808-0.861-1.805-0.81-2.068v0z"></path>
<path d="M9.201 17.073c0.243 0 0.45 0.085 0.622 0.256s0.257 0.378 0.257 0.621c0 0.244-0.086 0.452-0.257 0.624s-0.38 0.258-0.622 0.258c-0.244 0-0.45-0.086-0.622-0.258s-0.258-0.38-0.258-0.624c0-0.243 0.086-0.45 0.258-0.621s0.379-0.256 0.622-0.256v0z"></path>
<path d="M14.582 14.741l-0.615 0.611c-0.39-0.412-0.843-0.617-1.361-0.617-0.453 0-0.832 0.149-1.136 0.449s-0.458 0.664-0.458 1.092c0 0.444 0.159 0.819 0.475 1.127s0.707 0.462 1.172 0.462c0.301 0 0.556-0.063 0.763-0.191s0.374-0.326 0.502-0.597h-1.331v-0.82h2.312l0.006 0.193c0 0.402-0.105 0.784-0.312 1.143-0.209 0.36-0.479 0.635-0.811 0.825s-0.72 0.284-1.167 0.284c-0.477 0-0.903-0.104-1.277-0.31s-0.671-0.503-0.888-0.886c-0.218-0.384-0.327-0.797-0.327-1.241 0-0.609 0.202-1.138 0.604-1.587 0.477-0.536 1.099-0.803 1.864-0.803 0.401 0 0.775 0.074 1.123 0.223 0.294 0.126 0.581 0.34 0.863 0.644v0z"></path>
<path d="M17.409 13.876c0.65 0 1.21 0.235 1.677 0.707s0.702 1.043 0.702 1.721c0 0.671-0.23 1.238-0.692 1.703s-1.021 0.697-1.68 0.697c-0.69 0-1.263-0.238-1.719-0.716-0.456-0.476-0.685-1.043-0.685-1.7 0-0.439 0.105-0.843 0.319-1.212s0.505-0.66 0.876-0.876 0.773-0.323 1.202-0.323v0zM17.396 14.734c-0.424 0-0.78 0.148-1.069 0.443s-0.434 0.672-0.434 1.128c0 0.509 0.182 0.91 0.545 1.206 0.283 0.231 0.606 0.347 0.972 0.347 0.413 0 0.765-0.15 1.056-0.45s0.437-0.67 0.437-1.108c0-0.438-0.147-0.807-0.439-1.11s-0.648-0.455-1.068-0.455v0z"></path>
<path d="M19.805 13.991h0.899l1.155 3.265 1.179-3.265h0.896l-1.658 4.597h-0.844l-1.626-4.597z"></path>
</svg>
