<svg xmlns="http://www.w3.org/2000/svg" viewBox="0 0 1024 1024"><path d="M639.217 441.78c2.808-9.213 10.005-33.756 21.556-73.667 2.808-10.472 9.969-31.202 21.52-62.223a48526.22 48526.22 0 0 0 27.639-77.014c-20.297 13.639-40.882 31.705-61.792 54.162-74.639 80.469-161.334 177.744-192.031 228.774 11.733-2.879 35.087-27.423 109.51-52.937 47.468-16.267 73.595-17.093 73.595-17.093zm-13.244 51.355c-235.361 0-338.034 375.208-501.238 375.208-36.995 0-65.678-16.626-85.903-49.88-12.956-21.233-19.468-45.489-19.468-72.731 0-68.413 32.317-154.748 96.987-258.968 55.132-88.71 113.253-160.111 174.432-214.271 52.937-46.568 98.247-69.817 135.926-69.817 21.233 0 37.535 7.594 48.943 22.816 9.176 12.02 13.783 26.595 13.783 43.725 0 30.734-10.293 65.75-30.806 105.084-17.994 33.9-40.45 64.347-67.297 91.265-17.706 17.418-31.598 26.163-41.71 26.163-6.657 0-12.774-3.311-18.498-9.969-4.102-4.786-6.154-10.148-6.154-16.158 0-11.12 9.646-23.787 28.934-38.039 27.207-20.297 48.836-42.501 64.957-66.578 23.716-34.873 35.557-64.347 35.557-88.458 0-9.789-2.124-17.093-6.407-21.846-4.283-4.75-10.689-7.09-19.253-7.09-17.418 0-42.106 12.667-74.099 38.039-36.42 28.503-74.89 67.333-115.412 116.456-51.606 62.439-90.832 123.906-117.753 184.473C93.64 645.285 79.713 698.871 79.713 743.28c0 21.233 6.154 39.299 18.498 54.199 13.568 16.807 30.194 25.911 49.772 25.156 74.567-2.735 167.523-172.957 196.205-212.507C628.743 217.393 650.407 216.35 693.521 175.503c25.011-24.077 44.23-36.131 57.51-36.131 8.277 0 15.403 3.346 21.449 9.969 5.074 6.01 7.594 12.667 7.594 19.972 0 8.853-4.426 24.4-13.28 46.568-15.187 38.975-29.727 80.613-43.653 124.986-12.02 39.299-20.118 69.42-24.22 90.33 5.722 0 9.536-.143 11.373-.503 9.176-.288 16.771-.467 22.779-.467 18.353 0 27.53 6.945 27.53 20.909 0 6.01-1.98 11.948-5.902 17.813-3.959 5.866-8.421 9.464-13.495 10.725-1.907.648-7.09.937-15.618.937-17.994 0-31.417 1.115-40.234 3.311-3.346 9.969-11.984 94.576-24.831 97.455-39.694 34.477-36.744-77.014-34.548-88.242zM392.592 749.799c10.365 0 19.217 3.635 26.523 10.904s10.976 16.122 10.976 26.487c0 10.4-3.671 19.289-10.976 26.632s-16.196 11.013-26.523 11.013c-10.4 0-19.217-3.671-26.559-11.013-7.341-7.341-11.013-16.231-11.013-26.632 0-10.365 3.671-19.217 11.013-26.487 7.341-7.305 16.158-10.904 26.559-10.904zm229.567-99.505l-26.236 26.054c-16.626-17.563-35.988-26.343-58.084-26.343-19.325 0-35.485 6.371-48.475 19.145-13.028 12.774-19.542 28.323-19.542 46.604 0 18.93 6.766 34.944 20.261 48.081 13.495 13.135 30.158 19.722 49.987 19.722 12.848 0 23.716-2.698 32.568-8.134 8.853-5.434 15.942-13.927 21.412-25.479h-56.789v-34.98h98.643l.252 8.241c0 17.166-4.462 33.433-13.315 48.764-8.925 15.367-20.441 27.098-34.584 35.197s-30.734 12.128-49.807 12.128c-20.332 0-38.543-4.426-54.485-13.244-15.978-8.853-28.61-21.449-37.895-37.788-9.285-16.374-13.964-34.008-13.964-52.937 0-25.982 8.602-48.548 25.768-67.729 20.369-22.852 46.891-34.26 79.533-34.26 17.13 0 33.073 3.168 47.935 9.501 12.524 5.363 24.795 14.502 36.815 27.459zM742.79 613.37c27.747 0 51.606 10.04 71.544 30.158 19.972 20.082 29.942 44.517 29.942 73.416 0 28.61-9.825 52.83-29.51 72.659-19.722 19.829-43.581 29.727-71.688 29.727-29.438 0-53.909-10.148-73.344-30.554-19.468-20.297-29.222-44.482-29.222-72.515 0-18.75 4.498-35.988 13.604-51.714 9.069-15.763 21.556-28.178 37.392-37.392s32.966-13.783 51.282-13.783zm-.541 36.6c-18.101 0-33.289 6.297-45.597 18.893s-18.498 28.683-18.498 48.116c0 21.7 7.774 38.831 23.248 51.463 12.056 9.86 25.875 14.791 41.458 14.791 17.634 0 32.641-6.407 45.056-19.181 12.38-12.774 18.642-28.574 18.642-47.287 0-18.678-6.261-34.441-18.75-47.359s-27.639-19.433-45.561-19.433zm102.746-31.705h38.363l49.268 139.309 50.311-139.309h38.219l-70.751 196.134h-36.024l-69.384-196.134z"/></svg>