<svg xmlns="http://www.w3.org/2000/svg" viewBox="0 0 1024 1024"><path d="M279.485 692.423c57.115 4.085 110.137 4.085 150.927 8.155-69.34-73.425-175.407-228.437-81.58-444.627l-134.61 134.61c-69.34 130.532 28.55 273.312 65.27 301.862zM157.108 435.428l-93.82 93.82c-32.635 81.58 28.55 155.012 28.55 155.012l122.377 8.155C112.24 557.805 157.1 435.428 157.1 435.428zM434.49 774.01c0-4.085 4.085-12.24-8.155-16.31 0 0-28.55 0-81.58-4.085-53.03 0-93.82-4.085-97.905 0 0 4.085 4.085 12.24 8.155 16.31 16.31 24.48 44.875 69.34 81.58 159.09 53.03 138.695 24.48 175.407 106.06 167.245 81.58-12.24-20.395-150.927-8.155-322.257zM773.072 84.621c-101.975-93.82-187.647-24.48-212.12-4.085-53.03 40.79-69.34 53.03-114.215 97.905-65.27 81.58-159.09 281.467 44.875 522.137 118.3 12.24 232.515 24.48 318.172 24.48 32.635 0 106.06-20.395 122.377-126.455 28.55-171.33-28.55-391.597-159.09-513.982zm48.945 587.407c-73.425 20.395-171.33-89.742-220.275-252.91s-28.55-310.017 44.875-334.497c73.425-20.395 171.33 89.742 220.275 252.91 44.875 163.167 28.55 310.017-44.875 334.497zm-68.081-297.724c20.275 66.825 12.255 128.431-17.931 137.589s-71.089-37.589-91.372-104.422c-20.275-66.825-12.255-128.431 17.931-137.589s71.089 37.589 91.372 104.422z"/></svg>