<!-- Generated by IcoMoon.io -->
<svg version="1.1" xmlns="http://www.w3.org/2000/svg" width="24" height="24" viewBox="0 0 24 24">
<title>loud-speaker</title>
<path d="M6.55 15.729c1.339 0.096 2.581 0.096 3.537 0.191-1.625-1.721-4.111-5.354-1.912-10.421-1.434 1.434-2.868 2.868-3.155 3.155-1.625 3.059 0.669 6.406 1.53 7.075z"></path>
<path d="M3.682 9.705l-2.199 2.199c-0.765 1.912 0.669 3.633 0.669 3.633l2.868 0.191c-2.39-3.155-1.339-6.023-1.339-6.023z"></path>
<path d="M10.183 17.641c0-0.096 0.096-0.287-0.191-0.382 0 0-0.669 0-1.912-0.096-1.243 0-2.199-0.096-2.295 0 0 0.096 0.096 0.287 0.191 0.382 0.382 0.574 1.052 1.625 1.912 3.729 1.243 3.251 0.574 4.111 2.486 3.92 1.912-0.287-0.478-3.537-0.191-7.553z"></path>
<path d="M18.119 1.483c-2.39-2.199-4.398-0.574-4.972-0.096-1.243 0.956-1.625 1.243-2.677 2.295-1.53 1.912-3.729 6.597 1.052 12.238 2.773 0.287 5.45 0.574 7.457 0.574 0.765 0 2.486-0.478 2.868-2.964 0.669-4.016-0.669-9.178-3.729-12.046zM19.266 15.251c-1.721 0.478-4.016-2.103-5.163-5.928s-0.669-7.266 1.052-7.84c1.721-0.478 4.016 2.103 5.163 5.928 1.052 3.824 0.669 7.266-1.052 7.84z"></path>
<path d="M17.67 8.273c0.475 1.566 0.287 3.010-0.42 3.225s-1.666-0.881-2.142-2.447c-0.475-1.566-0.287-3.010 0.42-3.225s1.666 0.881 2.142 2.447z"></path>
</svg>
