<!-- Generated by IcoMoon.io -->
<svg version="1.1" xmlns="http://www.w3.org/2000/svg" width="24" height="24" viewBox="0 0 24 24">
<title>magnify-glass</title>
<path d="M16.121 18.043c-1.282 0.824-2.747 1.282-4.212 1.282-3.937 0-7.234-3.296-7.234-7.325 0-3.937 3.388-7.325 7.325-7.325 1.923 0 3.754 0.733 5.219 2.106 1.374 1.465 2.106 3.388 2.106 5.219 0 1.282-0.366 2.472-0.916 3.571l3.022 2.472c1.099-1.74 1.74-3.846 1.74-6.135 0-6.226-5.036-11.354-11.171-11.354s-11.171 5.219-11.171 11.446 5.036 11.354 11.171 11.354c2.747 0 5.311-1.007 7.234-2.747l-3.113-2.564z"></path>
<path d="M7.513 12c0 2.472 2.106 4.487 4.487 4.487 1.19 0 2.289-0.458 3.205-1.282 0.824-0.916 1.282-2.015 1.282-3.205 0-2.472-2.015-4.487-4.487-4.487s-4.487 2.106-4.487 4.487z"></path>
</svg>
