<!-- Generated by IcoMoon.io -->
<svg version="1.1" xmlns="http://www.w3.org/2000/svg" width="24" height="24" viewBox="0 0 24 24">
<title>mail</title>
<path d="M4.942 8.551v6.818l3.77-3.609z"></path>
<path d="M17.775 7.669h-11.55l5.775 4.893z"></path>
<path d="M12 14.567l-2.486-2.166-3.77 3.85h12.513l-3.77-3.85z"></path>
<path d="M19.058 8.551l-3.85 3.208 3.85 3.609v-6.176z"></path>
<path d="M12 0.45c-6.256 0-11.309 5.214-11.309 11.55s5.053 11.55 11.309 11.55c6.256 0 11.309-5.214 11.309-11.55s-5.053-11.55-11.309-11.55zM20.582 17.775h-17.165v-10.026c0 0 0-0.080 0-0.080s0-0.080 0-0.080c0-0.802 0.642-1.444 1.444-1.444 0 0 0.080 0 0.080 0v0h14.117c0 0 0.080 0 0.080 0 0.802 0.080 1.364 0.642 1.444 1.444 0 0 0 0.080 0 0.080s0 0.080 0 0.080v10.026z"></path>
</svg>
