<svg xmlns="http://www.w3.org/2000/svg" viewBox="0 0 1024 1024"><path d="M210.842 386.177v290.89l160.846-154zm547.56-37.646H265.598L512 557.289zM512 642.845l-106.09-92.4-160.846 164.268h533.87L618.088 550.445zm301.158-256.668L648.89 523.067l164.268 154V413.553zM512 40.529c-266.934 0-482.536 222.446-482.536 492.804S245.066 1026.137 512 1026.137c266.934 0 482.536-222.446 482.536-492.804S778.934 40.529 512 40.529zm366.18 739.206H145.82v-427.78-3.424-3.424c0-34.224 27.378-61.6 61.6-61.6h609.164c34.224 3.424 58.178 27.378 61.6 61.6v434.628z"/></svg>