<!-- Generated by IcoMoon.io -->
<svg version="1.1" xmlns="http://www.w3.org/2000/svg" width="24" height="24" viewBox="0 0 24 24">
<title>mask-dark</title>
<path d="M23.9 6.3c0-0.2-0.1-0.7-0.4-0.9-0.5-0.2-1.2 0.4-2 1.2-0.5 0.4-0.9 0.8-1.3 1.1-0.2 0.1-0.3 0.2-0.5 0.3l-5.2-1.2c0 0-1-0.2-2.7-0.4 0 0-1.4 0.1-3.2 0.5-2 0.4-3.5 0.8-4.4 1.1-0.1-0.1-0.2-0.2-0.4-0.3-0.4-0.3-0.8-0.7-1.2-1.1-0.9-0.9-1.5-1.5-2-1.2-0.4 0.1-0.5 0.7-0.5 0.9-0.1 1.5 0.2 3.1 0.8 4.6 0.7 1.7 1.8 3 3.2 3.8 1.2 1.5 4.1 4.5 7.8 4.6s6.7-3 7.9-4.5c1.4-0.8 2.5-2.2 3.3-3.9 0.6-1.5 0.9-3.1 0.8-4.6zM0.7 6.3c0-0.2 0.1-0.3 0.1-0.3s0.2 0 0.5 0.3c0.3 0.2 0.6 0.5 0.9 0.9 0.4 0.3 0.8 0.7 1.2 1l0.1 5.2c-2-1.7-2.9-4.7-2.8-7.1zM17.1 13.7c-1.9 0.9-3.7 1.4-5.2 1.4 0 0 0 0 0 0-1.5 0-2.8-0.4-3.6-0.7-0.9-0.4-1.4-0.7-1.4-0.7-0.1-0.1-0.2-0.3-0.1-0.5 0-0.1 0.2-0.2 0.3-0.1 0 0 0.5 0.3 1.3 0.7 0.8 0.3 2 0.7 3.4 0.7 0 0 0 0 0 0 1.4 0 3.2-0.5 5-1.4 0.2-0.1 0.3 0 0.4 0.2 0.1 0.1 0 0.3-0.1 0.4zM17.7 10.5c-1.9 1-3.9 1.6-5.7 1.6 0 0-0.1 0-0.1 0-1.7 0-3.1-0.5-4-0.8-1-0.4-1.6-0.8-1.6-0.8-0.2-0.1-0.3-0.3-0.2-0.5s0.3-0.2 0.4-0.1c0 0 0.6 0.4 1.5 0.7s2.2 0.8 3.8 0.8c1.8 0 3.7-0.5 5.6-1.5 0.2-0.1 0.3 0 0.4 0.2 0.1 0.1 0 0.3-0.1 0.4zM20.5 13.5v-5.1c0 0 0 0 0.1-0.1 0.4-0.4 0.9-0.8 1.3-1.2 0.3-0.3 0.7-0.7 0.9-0.9s0.4-0.2 0.4-0.2c0 0 0.1 0.1 0.1 0.3 0.1 2.4-0.8 5.4-2.8 7.2z"></path>
</svg>
