<!-- Generated by IcoMoon.io -->
<svg version="1.1" xmlns="http://www.w3.org/2000/svg" width="24" height="24" viewBox="0 0 24 24">
<title>mask-light</title>
<path d="M23.9 6.7c0-0.2-0.1-0.7-0.4-0.8-0.5-0.2-1.2 0.3-2 1.1-0.4 0.3-0.8 0.7-1.2 1 0 0 0 0 0 0l-5.4-1.1c0 0-1.1-0.2-2.7-0.4v0 0c-0.1 0-1.5 0.1-3.3 0.4-2.3 0.4-4 0.9-4.8 1.1-0.7-0.4-1.1-0.7-1.5-1.1-0.9-0.8-1.5-1.3-2-1.1-0.4 0.2-0.4 0.7-0.5 0.9-0.1 1.3 0.2 2.7 0.8 4 0.6 1.2 1.3 2.1 2.3 2.8v0c0 0 0.9 1.2 2.4 2.4 0.9 0.7 1.8 1.3 2.7 1.7 1.2 0.5 2.3 0.8 3.5 0.8 0.1 0 0.1 0 0.2 0 1.1 0 2.3-0.2 3.4-0.7 0.9-0.4 1.9-1 2.8-1.7 1.3-1.1 2.2-2.1 2.4-2.4 1-0.7 1.8-1.7 2.4-2.9 0.7-1.3 1-2.7 0.9-4zM0.8 6.7c0-0.2 0.1-0.3 0.1-0.3s0.2 0 0.5 0.2c0.3 0.2 0.6 0.5 0.9 0.8 0.3 0.2 0.6 0.5 0.9 0.7l0.1 4.6c-1.9-1.6-2.7-4-2.5-6zM17.8 15.5c-1.3 1-3.4 2.3-5.8 2.3 0 0-0.1 0-0.1 0-2.5-0.1-4.5-1.3-5.9-2.3-1.2-1-2-1.9-2.3-2.2v-4.7c0.6-0.2 2.5-0.6 5-1.1 1.6-0.3 3-0.4 3.1-0.4 1.6 0.2 2.6 0.4 2.6 0.4l5.6 1.2v4.7c-0.1 0.2-0.9 1.2-2.2 2.1zM20.8 12.8v-4.5c0.4-0.3 0.7-0.6 1-0.9s0.7-0.6 0.9-0.8c0.3-0.2 0.4-0.2 0.5-0.2 0 0 0.1 0.1 0.1 0.3 0.1 2-0.7 4.5-2.5 6.1z"></path>
<path d="M17.8 8.9c-2 1-4.1 1.5-5.9 1.4-1.7 0-3.1-0.4-4.1-0.7s-1.6-0.7-1.6-0.7c-0.2-0.1-0.5 0-0.6 0.1s0 0.4 0.1 0.5c0 0 0.7 0.4 1.7 0.8 1 0.3 2.5 0.8 4.3 0.8 0 0 0.1 0 0.1 0 2 0 4.1-0.5 6.1-1.5 0.2-0.1 0.3-0.3 0.2-0.5 0.1-0.2-0.1-0.3-0.3-0.2z"></path>
<path d="M17.4 11.2c-2 0.9-4 1.3-5.5 1.3 0 0 0 0 0 0-1.6 0-3-0.4-3.8-0.7-0.9-0.3-1.5-0.7-1.5-0.7-0.2-0.1-0.4 0-0.5 0.1-0.1 0.2 0 0.4 0.1 0.5 0 0 0.6 0.4 1.6 0.7 0.9 0.3 2.3 0.7 4.1 0.7 0 0 0 0 0 0 1.6 0 3.7-0.5 5.8-1.4 0.2-0.1 0.2-0.3 0.2-0.4-0.2-0.1-0.3-0.2-0.5-0.1z"></path>
<path d="M16.6 13.6c-2 0.8-3.5 1.2-4.8 1.2-1.4 0-2.5-0.3-3.3-0.6s-1.3-0.6-1.3-0.6c-0.1-0.1-0.3 0-0.4 0.1s0 0.3 0.1 0.4c0 0 0.5 0.3 1.4 0.6 0.8 0.3 2 0.6 3.5 0.6 0 0 0 0 0.1 0 1.3 0 2.9-0.4 4.9-1.2 0.1-0.1 0.2-0.2 0.2-0.4 0-0.1-0.2-0.2-0.4-0.1z"></path>
</svg>
