<!-- Generated by IcoMoon.io -->
<svg version="1.1" xmlns="http://www.w3.org/2000/svg" width="24" height="24" viewBox="0 0 24 24">
<title>mask</title>
<path d="M20.484 16.062h-3.234c-0.174 0-0.312 0.126-0.312 0.282v0.078c0 0.156 0.138 0.282 0.312 0.282h3.234c0.174 0 0.312-0.126 0.312-0.282v-0.078c0.006-0.156-0.138-0.282-0.312-0.282z"></path>
<path d="M21.324 13.812h-3.234c-0.174 0-0.312 0.126-0.312 0.282v0.078c0 0.156 0.138 0.282 0.312 0.282h3.234c0.174 0 0.312-0.126 0.312-0.282v-0.078c0-0.156-0.144-0.282-0.312-0.282z"></path>
<path d="M17.55 11.658v0.078c0 0.156 0.138 0.282 0.312 0.282h3.234c0.174 0 0.312-0.126 0.312-0.282v-0.078c0-0.156-0.138-0.282-0.312-0.282h-3.234c-0.168 0-0.312 0.126-0.312 0.282z"></path>
<path d="M19.422 9.39c-0.354-0.426-0.63-0.81-0.63-1.002 0-0.516 0.054-1.092-0.054-1.956-0.132-1.086-0.42-2.304-0.966-2.946-0.822-0.96-2.268-2.724-7.206-2.982-3.276-0.18-6.336 1.416-7.872 4.098l11.85 6.786c1.764-1.998 4.878-1.998 4.878-1.998v0zM16.29 8.952c-1.002 0-1.566-0.654-1.566-0.654s0.852-0.672 1.5-0.93c0.912-0.36 1.164 0.312 1.164 0.762 0.006 0.456-0.096 0.822-1.098 0.822z"></path>
<path d="M13.842 12.534l-11.718-6.708c-0.414 1.146-0.57 2.442-0.402 3.846 0.264 2.142 1.116 3.21 2.16 5.55 1.278 2.868-0.942 4.638-0.942 4.638 1.248 0.276 4.65-0.108 9.132 3.684 0 0-0.258-1.398 0.72-3.144 0.546-0.978 1.176-1.62 1.938-1.998 0 0 0 0 0 0-0.006 0-1.77-3.432-0.888-5.868z"></path>
</svg>
