<svg xmlns="http://www.w3.org/2000/svg" viewBox="0 0 1024 1024"><path d="M1019.733 307.2c0-8.533-4.267-29.867-17.067-34.133-21.333-8.533-51.2 12.8-85.333 46.933-17.067 12.8-34.133 29.867-51.2 42.667l-230.4-46.933s-46.933-8.533-115.2-17.067c-4.267 0-64 4.267-140.8 17.067-98.133 17.067-170.667 38.4-204.8 46.933-29.867-17.067-46.933-29.867-64-46.933-38.4-34.133-64-55.467-85.333-46.933-17.067 8.533-17.067 29.867-21.333 38.4C0 362.668 12.8 422.401 38.4 477.868c25.6 51.2 55.467 89.6 98.133 119.467 0 0 38.4 51.2 102.4 102.4 38.4 29.867 76.8 55.467 115.2 72.533 51.2 21.333 98.133 34.133 149.333 34.133h8.533c46.933 0 98.133-8.533 145.067-29.867 38.4-17.067 81.067-42.667 119.467-72.533 55.467-46.933 93.867-89.6 102.4-102.4 42.667-29.867 76.8-72.533 102.4-123.733 29.867-55.467 42.667-115.2 38.4-170.667zm-985.6 0c0-8.533 4.267-12.8 4.267-12.8s8.533 0 21.333 8.533c12.8 8.533 25.6 21.333 38.4 34.133 12.8 8.533 25.6 21.333 38.4 29.867L140.8 563.2c-81.067-68.267-115.2-170.667-106.667-256zm725.334 375.466C704 725.333 614.4 780.799 512 780.799h-4.267c-106.667-4.267-192-55.467-251.733-98.133-51.2-42.667-85.333-81.067-98.133-93.867V388.266c25.6-8.533 106.667-25.6 213.333-46.933 68.267-12.8 128-17.067 132.267-17.067 68.267 8.533 110.933 17.067 110.933 17.067l238.933 51.2v200.533c-4.267 8.533-38.4 51.2-93.867 89.6zm128-115.2v-192c17.067-12.8 29.867-25.6 42.667-38.4s29.867-25.6 38.4-34.133c12.8-8.533 17.067-8.533 21.333-8.533 0 0 4.267 4.267 4.267 12.8 4.267 85.333-29.867 192-106.667 260.267zm-128-166.4c-85.333 42.667-174.933 64-251.733 59.733-72.533 0-132.267-17.067-174.933-29.867s-68.267-29.867-68.267-29.867c-8.533-4.267-21.333 0-25.6 4.267s0 17.067 4.267 21.333c0 0 29.867 17.067 72.533 34.133 42.667 12.8 106.667 34.133 183.467 34.133h4.267c85.333 0 174.933-21.333 260.267-64 8.533-4.267 12.8-12.8 8.533-21.333 4.267-8.533-4.267-12.8-12.8-8.533zM742.4 499.2c-85.333 38.4-170.667 55.467-234.667 55.467-68.267 0-128-17.067-162.133-29.867-38.4-12.8-64-29.867-64-29.867-8.533-4.267-17.067 0-21.333 4.267-4.267 8.533 0 17.067 4.267 21.333 0 0 25.6 17.067 68.267 29.867 38.4 12.8 98.133 29.867 174.933 29.867 68.267 0 157.867-21.333 247.467-59.733 8.533-4.267 8.533-12.8 8.533-17.067-8.533-4.267-12.8-8.533-21.333-4.267zm-34.133 102.4c-85.333 34.133-149.333 51.2-204.8 51.2-59.733 0-106.667-12.8-140.8-25.6S307.2 601.6 307.2 601.6c-4.267-4.267-12.8 0-17.067 4.267s0 12.8 4.267 17.067c0 0 21.333 12.8 59.733 25.6 34.133 12.8 85.333 25.6 149.333 25.6h4.267c55.467 0 123.733-17.067 209.067-51.2 4.267-4.267 8.533-8.533 8.533-17.067 0-4.267-8.533-8.533-17.067-4.267z"/></svg>