<svg xmlns="http://www.w3.org/2000/svg" viewBox="0 0 1024 1024"><path d="M1019.733 290.133c0-8.533-4.267-29.867-17.067-38.4-21.333-8.533-51.2 17.067-85.333 51.2-21.333 17.067-38.4 34.133-55.467 46.933-8.533 4.267-12.8 8.533-21.333 12.8l-221.867-51.2s-42.667-8.533-115.2-17.067c0 0-59.733 4.267-136.533 21.333C281.6 332.799 217.6 349.865 179.2 362.665c-4.267-4.267-8.533-8.533-17.067-12.8-17.067-12.8-34.133-29.867-51.2-46.933-38.4-38.4-64-64-85.333-51.2-17.067 4.267-21.333 29.867-21.333 38.4C0 354.132 12.8 422.399 38.4 486.399c29.867 72.533 76.8 128 136.533 162.133 51.2 64 174.933 192 332.8 196.267s285.867-128 337.067-192c59.733-34.133 106.667-93.867 140.8-166.4 25.6-64 38.4-132.267 34.133-196.267zm-989.866 0c0-8.533 4.267-12.8 4.267-12.8s8.533 0 21.333 12.8c12.8 8.533 25.6 21.333 38.4 38.4 17.067 12.8 34.133 29.867 51.2 42.667l4.267 221.867C64.001 520.534 25.601 392.534 29.867 290.134zM729.6 605.866c-81.067 38.4-157.867 59.733-221.867 59.733s-119.467-17.067-153.6-29.867c-38.4-17.067-59.733-29.867-59.733-29.867-4.267-4.267-8.533-12.8-4.267-21.333 0-4.267 8.533-8.533 12.8-4.267 0 0 21.333 12.8 55.467 29.867 34.133 12.8 85.333 29.867 145.067 29.867 59.733 0 136.533-21.333 213.333-59.733 8.533-4.267 12.8 0 17.067 8.533 4.267 4.267 0 12.8-4.267 17.067zm25.6-136.533C674.133 512 588.8 537.6 512 537.6h-4.267c-72.533 0-132.267-21.333-170.667-34.133-42.667-17.067-68.267-34.133-68.267-34.133-8.533-4.267-12.8-12.8-8.533-21.333s12.8-8.533 17.067-4.267c0 0 25.6 17.067 64 29.867s93.867 34.133 162.133 34.133c76.8 0 157.867-21.333 238.933-64 8.533-4.267 12.8 0 17.067 8.533 4.267 4.267 0 12.8-4.267 17.067zm119.467 128v-217.6l4.267-4.267c17.067-17.067 38.4-34.133 55.467-51.2l38.4-38.4c8.533-8.533 17.067-8.533 17.067-8.533s4.267 4.267 4.267 12.8c4.267 102.4-34.133 230.4-119.467 307.2z"/></svg>