<svg xmlns="http://www.w3.org/2000/svg" viewBox="0 0 1024 1024"><path d="M979.556 130.844H44.445c-22.756 0-41.6 18.844-41.6 41.6v721.778c0 22.756 18.844 41.6 41.6 41.6h934.756c22.756 0 41.6-18.844 41.6-41.6V172.444c.356-22.756-18.489-41.6-41.244-41.6zm-454.4 703.289c7.111 0 14.222-2.489 19.911-7.111l7.111 11.022c-7.822 6.4-18.133 9.956-28.444 9.244-19.911.356-35.911-15.644-36.267-35.2-.356-19.911 15.644-35.911 35.2-36.267h.356c19.2 0 32.356 14.222 32.356 35.911v5.689H504.89c1.067 9.956 9.956 17.422 20.267 16.711zm-5.334-180.267C464.355 608.71 428.8 539.733 428.8 462.577s35.556-145.778 91.022-191.289c55.467 45.156 91.022 114.133 91.022 191.289s-35.556 146.133-91.022 191.289zM397.867 462.933c0 83.556 37.333 158.933 96 209.778-37.689 23.467-81.778 36.622-129.422 36.622-135.822 0-246.4-110.578-246.4-246.4s110.578-246.4 246.4-246.4c47.289 0 91.733 13.511 129.422 36.622-59.022 50.844-96 125.867-96 209.778zm25.6 328.178V777.6h13.511v-20.622h14.933V777.6h24.533v13.511h-24.178V822.4c0 6.756 2.844 11.378 9.956 11.378 4.622 0 9.244-1.422 13.156-3.911l4.267 12.8c-5.689 3.556-12.089 5.333-18.489 5.333-17.778 0-23.822-9.6-23.822-25.244v-31.644h-13.867zm-37.689 27.733l-7.111-1.067c-15.289-2.133-23.467-8.889-23.467-20.267 0-13.511 11.378-22.044 28.8-22.044 9.956-.356 19.556 2.133 27.733 7.111l-6.756 12.089c-6.4-3.911-13.867-5.689-21.333-6.044-8.178 0-13.156 3.556-13.156 8.178s4.978 6.044 11.733 6.756l7.111 1.067c14.933 2.133 23.822 7.467 23.822 20.622s-11.378 22.4-31.289 22.4c-10.667.356-20.978-2.844-29.511-8.889l7.111-11.733c6.4 4.978 14.578 7.467 22.756 7.111 10.311 0 15.644-2.844 15.644-8.178 0-3.911-3.911-6.044-12.089-7.111zm-83.911 28.445c-19.911 0-35.911-16-35.911-35.911s16-35.911 35.911-35.911c8.178-.356 16.356 3.556 21.333 9.956v-8.178h14.933v67.911H323.2v-8.178c-4.978 6.756-13.156 10.667-21.333 10.311zM224 790.044h-2.844c-8.889 1.067-14.933 9.244-13.867 18.133v38.044h-14.933v-38.044c0-11.733-4.978-18.133-14.933-18.133h-3.2c-8.889 1.067-14.933 9.244-13.867 18.133v37.689h-14.578v-68.267h14.933v8.533c4.267-6.756 12.089-10.667 19.911-10.311 9.244-.356 17.778 4.267 22.756 12.089 5.333-8.178 14.578-12.8 24.178-12.089h3.2c13.867 1.067 24.533 13.156 23.822 27.022v43.022l-14.933.356v-38.044c-.356-11.733-5.333-18.133-15.644-18.133zm379.378-14.578c3.2-.356 6.756.356 10.311 1.422l-4.622 14.222c-2.844-1.067-6.044-1.778-9.244-1.778-9.6 0-14.222 6.4-14.222 17.778v38.4h-14.933v-68.267h14.578v8.178c3.911-6.044 11.022-9.956 18.133-9.956zm51.2 57.6c6.4 0 12.8-2.133 17.778-6.044l7.111 12.089c-6.756 5.689-15.644 8.533-24.533 8.178h-3.2c-19.2-.711-34.133-16.711-33.422-35.911v-.356-3.2c1.067-19.2 17.422-33.778 36.622-32.711 8.889-.356 17.778 2.489 24.533 8.178l-7.111 12.089c-4.978-3.911-11.378-6.044-17.778-6.044-10.667.711-19.2 9.244-20.267 20.267-.711 12.089 8.178 22.756 20.267 23.467zm66.844 14.223c-19.911 0-35.911-16-35.911-35.911s16-35.911 35.911-35.911c8.178-.356 16.356 3.556 21.333 9.956v-8.178h14.933v68.267H743.11v-8.178c-5.333 6.4-13.156 10.311-21.689 9.956zm88.889-71.823c3.2-.356 6.756.356 10.311 1.422L816 791.11c-2.844-1.067-6.044-1.778-9.244-1.778-9.6 0-14.222 6.4-14.222 17.778v38.4h-14.933v-68.267h14.578v8.178c3.911-6.044 10.667-9.956 18.133-9.956zm49.778 71.823c-19.911 0-35.911-16-35.911-35.911s16-35.911 35.911-35.911c8.178-.356 16.356 3.556 21.333 9.956v-35.911h14.222v95.289h-14.222v-8.178c-4.978 7.111-13.156 11.022-21.333 10.667zM675.2 709.333c-47.289 0-91.733-13.511-129.422-36.622 58.667-50.844 96-125.867 96-209.778 0-83.556-37.333-158.933-96-209.778 37.689-23.467 81.778-36.622 129.422-36.622 135.822 0 246.4 110.578 246.4 246.4s-110.578 246.4-246.4 246.4zm-152.178 79.644c-9.956-.356-17.778 7.111-18.489 16.711h35.911c-.356-9.6-8.178-17.067-17.422-16.711zm-218.311 3.2c-11.378-.711-21.333 8.178-21.689 19.556v1.778c.356 11.378 9.6 20.267 20.978 20.267 11.022 0 19.911-8.533 20.622-19.556 0-11.733-8.533-21.333-19.911-22.044zm419.556-.355c-11.378-.711-21.333 8.178-21.689 19.556v1.778c0 11.378 9.6 20.267 20.622 20.267s19.911-8.533 20.622-19.556c.711-11.378-8.178-21.333-19.556-22.044zm138.311.355c-11.378-.711-21.333 8.178-21.689 19.556v1.778c0 11.378 9.6 20.267 20.622 20.267s19.911-8.533 20.622-19.556c.711-11.733-8.178-21.333-19.556-22.044z"/></svg>