<!-- Generated by IcoMoon.io -->
<svg version="1.1" xmlns="http://www.w3.org/2000/svg" width="24" height="24" viewBox="0 0 24 24">
<title>mastercard</title>
<path d="M22.958 2.567h-21.917c-0.533 0-0.975 0.442-0.975 0.975v16.917c0 0.533 0.442 0.975 0.975 0.975h21.908c0.533 0 0.975-0.442 0.975-0.975v-16.917c0.008-0.533-0.433-0.975-0.967-0.975zM12.308 19.050c0.167 0 0.333-0.058 0.467-0.167l0.167 0.258c-0.183 0.15-0.425 0.233-0.667 0.217-0.467 0.008-0.842-0.367-0.85-0.825-0.008-0.467 0.367-0.842 0.825-0.85h0.008c0.45 0 0.758 0.333 0.758 0.842 0 0.050 0 0.092 0 0.133h-1.183c0.025 0.233 0.233 0.408 0.475 0.392zM12.183 14.825c-1.3-1.058-2.133-2.675-2.133-4.483s0.833-3.417 2.133-4.483c1.3 1.058 2.133 2.675 2.133 4.483s-0.833 3.425-2.133 4.483zM9.325 10.35c0 1.958 0.875 3.725 2.25 4.917-0.883 0.55-1.917 0.858-3.033 0.858-3.183 0-5.775-2.592-5.775-5.775s2.592-5.775 5.775-5.775c1.108 0 2.15 0.317 3.033 0.858-1.383 1.192-2.25 2.95-2.25 4.917zM9.925 18.042v-0.317h0.317v-0.483h0.35v0.483h0.575v0.317h-0.567v0.733c0 0.158 0.067 0.267 0.233 0.267 0.108 0 0.217-0.033 0.308-0.092l0.1 0.3c-0.133 0.083-0.283 0.125-0.433 0.125-0.417 0-0.558-0.225-0.558-0.592v-0.742h-0.325zM9.042 18.692l-0.167-0.025c-0.358-0.050-0.55-0.208-0.55-0.475 0-0.317 0.267-0.517 0.675-0.517 0.233-0.008 0.458 0.050 0.65 0.167l-0.158 0.283c-0.15-0.092-0.325-0.133-0.5-0.142-0.192 0-0.308 0.083-0.308 0.192s0.117 0.142 0.275 0.158l0.167 0.025c0.35 0.050 0.558 0.175 0.558 0.483s-0.267 0.525-0.733 0.525c-0.25 0.008-0.492-0.067-0.692-0.208l0.167-0.275c0.15 0.117 0.342 0.175 0.533 0.167 0.242 0 0.367-0.067 0.367-0.192 0-0.092-0.092-0.142-0.283-0.167zM7.075 19.358c-0.467 0-0.842-0.375-0.842-0.842s0.375-0.842 0.842-0.842c0.192-0.008 0.383 0.083 0.5 0.233v-0.192h0.35v1.592h-0.35v-0.192c-0.117 0.158-0.308 0.25-0.5 0.242zM5.25 18.017c-0.025 0-0.042 0-0.067 0-0.208 0.025-0.35 0.217-0.325 0.425v0.892h-0.35v-0.892c0-0.275-0.117-0.425-0.35-0.425-0.025 0-0.050 0-0.075 0-0.208 0.025-0.35 0.217-0.325 0.425v0.883h-0.342v-1.6h0.35v0.2c0.1-0.158 0.283-0.25 0.467-0.242 0.217-0.008 0.417 0.1 0.533 0.283 0.125-0.192 0.342-0.3 0.567-0.283 0.025 0 0.050 0 0.075 0 0.325 0.025 0.575 0.308 0.558 0.633v1.008l-0.35 0.008v-0.892c-0.008-0.275-0.125-0.425-0.367-0.425zM14.142 17.675v0c0.075-0.008 0.158 0.008 0.242 0.033l-0.108 0.333c-0.067-0.025-0.142-0.042-0.217-0.042-0.225 0-0.333 0.15-0.333 0.417v0.9h-0.35v-1.6h0.342v0.192c0.092-0.142 0.258-0.233 0.425-0.233zM15.342 19.025c0.15 0 0.3-0.050 0.417-0.142l0.167 0.283c-0.158 0.133-0.367 0.2-0.575 0.192-0.025 0-0.050 0-0.075 0-0.45-0.017-0.8-0.392-0.783-0.842v-0.008c0-0.025 0-0.050 0-0.075 0.025-0.45 0.408-0.792 0.858-0.767 0.208-0.008 0.417 0.058 0.575 0.192l-0.167 0.283c-0.117-0.092-0.267-0.142-0.417-0.142-0.25 0.017-0.45 0.217-0.475 0.475-0.017 0.283 0.192 0.533 0.475 0.55zM16.908 19.358c-0.467 0-0.842-0.375-0.842-0.842s0.375-0.842 0.842-0.842c0.192-0.008 0.383 0.083 0.5 0.233v-0.192h0.35v1.6h-0.342v-0.192c-0.125 0.15-0.308 0.242-0.508 0.233zM18.992 17.675v0c0.075-0.008 0.158 0.008 0.242 0.033l-0.108 0.333c-0.067-0.025-0.142-0.042-0.217-0.042-0.225 0-0.333 0.15-0.333 0.417v0.9h-0.35v-1.6h0.342v0.192c0.092-0.142 0.25-0.233 0.425-0.233zM20.158 19.358c-0.467 0-0.842-0.375-0.842-0.842s0.375-0.842 0.842-0.842c0.192-0.008 0.383 0.083 0.5 0.233v-0.842h0.333v2.233h-0.333v-0.192c-0.117 0.167-0.308 0.258-0.5 0.25zM15.825 16.125c-1.108 0-2.15-0.317-3.033-0.858 1.375-1.192 2.25-2.95 2.25-4.917 0-1.958-0.875-3.725-2.25-4.917 0.883-0.55 1.917-0.858 3.033-0.858 3.183 0 5.775 2.592 5.775 5.775s-2.592 5.775-5.775 5.775z"></path>
<path d="M12.258 17.992v0c-0.233-0.008-0.417 0.167-0.433 0.392h0.842c0 0 0 0 0 0-0.008-0.225-0.192-0.4-0.408-0.392z"></path>
<path d="M7.142 18.067c-0.267-0.017-0.5 0.192-0.508 0.458v0c0 0.017 0 0.025 0 0.042 0.008 0.267 0.225 0.475 0.492 0.475 0.258 0 0.467-0.2 0.483-0.458 0-0.275-0.2-0.5-0.467-0.517z"></path>
<path d="M16.975 18.058c-0.267-0.017-0.5 0.192-0.508 0.458 0 0.017 0 0.025 0 0.042 0 0.267 0.225 0.475 0.483 0.475s0.467-0.2 0.483-0.458c0.017-0.267-0.192-0.5-0.458-0.517z"></path>
<path d="M20.217 18.067c-0.267-0.017-0.5 0.192-0.508 0.458 0 0.017 0 0.025 0 0.042 0 0.267 0.225 0.475 0.483 0.475s0.467-0.2 0.483-0.458c0.017-0.275-0.192-0.5-0.458-0.517z"></path>
</svg>
