<svg xmlns="http://www.w3.org/2000/svg" viewBox="0 0 1024 1024"><path d="M59.733 478.577v-1.067c-.356.356-.356.711-.711 1.067h.711zM263.822 512c19.911-25.6 43.733-47.644 70.756-66.133 26.667-18.489 56.178-32.356 87.467-41.956 1.778-.356 3.2-1.422 4.978-2.133 8.889-5.689 11.378-17.422 5.689-26.311L274.845 102.756c-3.556-6.044-10.311-9.956-17.422-9.244l-231.111.356c-3.2 0-6.4.711-9.244 2.489-9.244 5.333-12.089 16.711-7.111 25.956l222.578 387.911c1.422 2.133 3.2 4.267 4.978 5.689a18.818 18.818 0 0 0 26.311-3.911zM998.044 93.511l-232.178-2.489c-7.111 0-13.511 3.911-16.711 9.956L590.933 374.756c-.711 1.422-1.422 2.844-1.778 4.267-2.844 9.956 2.844 20.622 13.156 23.467 62.933 18.133 118.4 55.111 159.644 106.311 1.778 2.133 3.911 3.911 6.4 4.978 9.244 4.622 20.622.711 25.244-8.533l220.8-383.644c1.778-2.844 2.489-6.044 2.489-9.244 0-9.956-8.533-18.489-18.844-18.844zM512 424.533c-152.178 0-275.556 123.378-275.556 275.556S359.822 975.645 512 975.645s275.556-123.378 275.556-275.556S664.178 424.533 512 424.533zm149.333 257.778l-68.267 49.422 26.311 80.356c3.556 11.733-2.844 24.178-14.222 27.733-7.111 2.133-15.289.711-20.978-4.267l-66.844-48.711-68.267 49.778c-9.956 7.111-23.467 4.978-30.578-4.978-4.267-5.689-5.333-13.156-3.2-19.911l26.311-80.356-68.267-49.422c-9.956-7.111-12.089-20.978-4.622-30.933 4.622-6.044 11.733-9.6 19.2-8.889h82.844l25.956-80.356c3.556-11.733 16-18.133 27.733-14.222 6.756 2.133 12.089 7.467 14.222 14.578l25.956 80.356h84.622c12.089 0 22.044 9.956 22.044 22.044-1.067 6.756-4.267 13.511-9.956 17.778z"/></svg>