<!-- Generated by IcoMoon.io -->
<svg version="1.1" xmlns="http://www.w3.org/2000/svg" width="24" height="24" viewBox="0 0 24 24">
<title>medal</title>
<path d="M1.4 10.717c0-0.008 0-0.017 0-0.025-0.008 0.008-0.008 0.017-0.017 0.025h0.017z"></path>
<path d="M6.183 11.5c0.467-0.6 1.025-1.117 1.658-1.55 0.625-0.433 1.317-0.758 2.050-0.983 0.042-0.008 0.075-0.033 0.117-0.050 0.208-0.133 0.267-0.408 0.133-0.617l-3.7-6.392c-0.083-0.142-0.242-0.233-0.408-0.217l-5.417 0.008c-0.075 0-0.15 0.017-0.217 0.058-0.217 0.125-0.283 0.392-0.167 0.608l5.217 9.092c0.033 0.050 0.075 0.1 0.117 0.133 0.192 0.142 0.467 0.108 0.617-0.092z"></path>
<path d="M23.392 1.692l-5.442-0.058c-0.167 0-0.317 0.092-0.392 0.233l-3.708 6.417c-0.017 0.033-0.033 0.067-0.042 0.1-0.067 0.233 0.067 0.483 0.308 0.55v0c1.475 0.425 2.775 1.292 3.742 2.492 0.042 0.050 0.092 0.092 0.15 0.117 0.217 0.108 0.483 0.017 0.592-0.2l5.175-8.992c0.042-0.067 0.058-0.142 0.058-0.217 0-0.233-0.2-0.433-0.442-0.442z"></path>
<path d="M12 9.45c-3.567 0-6.458 2.892-6.458 6.458s2.892 6.458 6.458 6.458 6.458-2.892 6.458-6.458c0-3.567-2.892-6.458-6.458-6.458zM15.5 15.492v0l-1.6 1.158 0.617 1.883c0.083 0.275-0.067 0.567-0.333 0.65-0.167 0.050-0.358 0.017-0.492-0.1l-1.567-1.142-1.6 1.167c-0.233 0.167-0.55 0.117-0.717-0.117-0.1-0.133-0.125-0.308-0.075-0.467v0l0.617-1.883-1.6-1.158c-0.233-0.167-0.283-0.492-0.108-0.725 0.108-0.142 0.275-0.225 0.45-0.208h1.942l0.608-1.883c0.083-0.275 0.375-0.425 0.65-0.333 0.158 0.050 0.283 0.175 0.333 0.342v0l0.608 1.883h1.983c0.283 0 0.517 0.233 0.517 0.517-0.025 0.158-0.1 0.317-0.233 0.417z"></path>
</svg>
