<svg xmlns="http://www.w3.org/2000/svg" viewBox="0 0 1024 1024"><path d="M505.6 174.933c-252.8 0-460.8 156.8-460.8 352 0 102.4 57.6 195.2 150.4 259.2-6.4 147.2-86.4 160-86.4 160 99.2 9.6 182.4-51.2 220.8-96 54.4 19.2 115.2 28.8 179.2 28.8 252.8 0 460.8-156.8 460.8-352s-208-352-464-352zm192 393.6c0 3.2 0 6.4-3.2 9.6s-6.4 3.2-9.6 3.2H582.4v102.4c0 3.2 0 6.4-3.2 9.6s-6.4 3.2-9.6 3.2H480c-3.2 0-6.4 0-9.6-3.2s-3.2-6.4-3.2-9.6v-102.4H364.8c-3.2 0-6.4 0-9.6-6.4-3.2-3.2-3.2-6.4-3.2-9.6v-89.6c0-3.2 0-6.4 3.2-9.6s6.4-3.2 9.6-3.2h102.4v-102.4c0-3.2 0-6.4 3.2-9.6s6.4-3.2 9.6-3.2h89.6c3.2 0 6.4 0 9.6 3.2s3.2 6.4 3.2 9.6v102.4h102.4c3.2 0 6.4 0 9.6 3.2s3.2 6.4 3.2 9.6v92.8z"/></svg>