<!-- Generated by IcoMoon.io -->
<svg version="1.1" xmlns="http://www.w3.org/2000/svg" width="24" height="24" viewBox="0 0 24 24">
<title>medical-pills</title>
<path d="M5.775 12.675h6.15l0.9 0.9h-1.725v5.55h4.2c1.275 0 2.4-0.9 2.7-2.1h0.075c0.3 0 0.6 0 0.825-0.075-0.3 1.725-1.8 3.075-3.6 3.075h-9.525c-2.025 0-3.675-1.65-3.675-3.675s1.65-3.675 3.675-3.675zM6.6 19.050h3c0.225 0 0.375-0.15 0.375-0.375s-0.15-0.375-0.375-0.375h-3c-0.225 0-0.375 0.15-0.375 0.375s0.15 0.375 0.375 0.375zM5.025 19.050h0.15c0.225 0 0.375-0.15 0.375-0.375s-0.15-0.375-0.375-0.375h-0.15c-0.225 0-0.375 0.15-0.375 0.375s0.225 0.375 0.375 0.375zM8.775 3.3c0.675-0.675 1.575-1.050 2.625-1.050s1.875 0.375 2.625 1.050l6.75 6.75c0.675 0.675 1.050 1.575 1.050 2.625s-0.375 1.875-1.050 2.625c-0.75 0.75-1.65 1.050-2.625 1.050s-1.875-0.375-2.625-1.050l-6.75-6.75c-0.675-0.675-1.050-1.575-1.050-2.625s0.3-1.95 1.050-2.625zM16.2 14.625c1.050 1.050 2.85 1.050 3.9 0 0.525-0.525 0.825-1.2 0.825-1.95s-0.3-1.425-0.825-1.95l-3-3-3.9 3.9 3 3zM10.050 8.4l2.175 2.175c0.075 0.075 0.15 0.15 0.3 0.15s0.225-0.075 0.3-0.15 0.15-0.375 0-0.525l-2.175-2.175c-0.15-0.15-0.375-0.15-0.525 0-0.225 0.075-0.225 0.375-0.075 0.525zM8.925 7.275l0.075 0.075c0.075 0.075 0.15 0.15 0.3 0.15 0.075 0 0.225-0.075 0.3-0.15 0.15-0.15 0.15-0.375 0-0.525l-0.075-0.075c-0.15-0.15-0.375-0.15-0.525 0-0.225 0.15-0.225 0.375-0.075 0.525z"></path>
</svg>
