<svg xmlns="http://www.w3.org/2000/svg" viewBox="0 0 1024 1024"><path d="M937.6 165.333c-32 0-60.8 25.6-64 57.6l-22.4 236.8c-12.8 3.2-22.4 9.6-28.8 16l-192 176c-25.6 22.4-41.6 57.6-41.6 92.8v211.2H816v-99.2c0-16 6.4-28.8 19.2-41.6l144-144c19.2-19.2 28.8-41.6 28.8-67.2v-371.2c-6.4-38.4-35.2-67.2-70.4-67.2zm28.8 441.6c0 16-6.4 28.8-16 38.4l-144 144c-19.2 19.2-28.8 41.6-28.8 67.2v60.8H627.2v-172.8c0-25.6 9.6-48 28.8-67.2l192-179.2c6.4-6.4 12.8-6.4 19.2-6.4 3.2 0 9.6 3.2 16 6.4 3.2 3.2 6.4 9.6 6.4 16s-3.2 12.8-6.4 16L736 664.533l25.6 28.8 147.2-134.4c12.8-12.8 19.2-28.8 19.2-44.8s-6.4-32-19.2-44.8c-6.4-6.4-12.8-9.6-19.2-12.8l22.4-236.8c0-12.8 12.8-25.6 25.6-25.6 16 0 25.6 12.8 25.6 25.6v387.2zm-761.6-131.2c-9.6-9.6-19.2-12.8-28.8-16l-25.6-233.6c-3.2-32-32-57.6-64-57.6-35.2 0-64 28.8-64 64v377.6c0 25.6 9.6 48 28.8 67.2l140.8 140.8c12.8 9.6 19.2 25.6 19.2 41.6v99.2h227.2v-211.2c0-35.2-16-70.4-41.6-92.8l-192-179.2zm195.2 444.8H246.4v-60.8c0-25.6-9.6-51.2-28.8-67.2l-144-144c-9.6-9.6-16-25.6-16-38.4v-377.6c0-16 12.8-25.6 25.6-25.6s25.6 9.6 25.6 25.6l22.4 236.8c-6.4 3.2-12.8 6.4-19.2 12.8-12.8 12.8-19.2 28.8-19.2 44.8s6.4 32 19.2 44.8l147.2 134.4 25.6-28.8-147.2-134.4c-3.2-3.2-6.4-9.6-6.4-16s3.2-12.8 6.4-16c6.4-6.4 9.6-6.4 16-6.4s16 3.2 19.2 6.4l192 179.2c19.2 16 28.8 41.6 28.8 67.2v163.2zm387.2-588.8c6.4-16 6.4-32 6.4-48 0-57.6-32-108.8-80-134.4-57.6-32-134.4-22.4-179.2 22.4-48-44.8-124.8-54.4-182.4-22.4-48 28.8-80 80-80 134.4 0 16 3.2 32 6.4 44.8 3.2 6.4 3.2 16 9.6 25.6h-48c-9.6 0-16 6.4-16 16s6.4 16 16 16h198.4c6.4 0 12.8-3.2 16-9.6l19.2-41.6 22.4 96c3.2 6.4 6.4 12.8 12.8 12.8h3.2c6.4 0 12.8-3.2 16-9.6l48-80h51.2c9.6 0 16-6.4 16-16s-6.4-16-16-16h-60.8c-6.4 0-12.8 3.2-16 9.6l-32 54.4-25.6-105.6c-3.2-6.4-6.4-12.8-16-12.8-6.4 0-12.8 3.2-16 9.6l-35.2 80h-99.2c-6.4-12.8-9.6-25.6-12.8-35.2-3.2-12.8-6.4-25.6-6.4-38.4 0-44.8 22.4-83.2 64-105.6 48-25.6 115.2-16 150.4 28.8 6.4 6.4 19.2 6.4 25.6 0 35.2-44.8 102.4-54.4 150.4-28.8 38.4 22.4 60.8 60.8 60.8 105.6 0 12.8-3.2 25.6-6.4 38.4-16 76.8-156.8 182.4-220.8 224-19.2-12.8-64-44.8-108.8-80-6.4-6.4-19.2-6.4-25.6 3.2-6.4 6.4-6.4 19.2 3.2 25.6 60.8 51.2 118.4 89.6 121.6 89.6 3.2 3.2 6.4 3.2 9.6 3.2s6.4 0 9.6-3.2c9.6-9.6 220.8-140.8 246.4-252.8z"/></svg>