<svg xmlns="http://www.w3.org/2000/svg" viewBox="0 0 1024 1024"><path d="M246.4 562.133h262.4l38.4 38.4h-73.6v236.8h179.2c54.4 0 102.4-38.4 115.2-89.6h3.2c12.8 0 25.6 0 35.2-3.2-12.8 73.6-76.8 131.2-153.6 131.2H246.4c-86.4 0-156.8-70.4-156.8-156.8s70.4-156.8 156.8-156.8zm35.2 272h128c9.6 0 16-6.4 16-16s-6.4-16-16-16h-128c-9.6 0-16 6.4-16 16s6.4 16 16 16zm-67.2 0h6.4c9.6 0 16-6.4 16-16s-6.4-16-16-16h-6.4c-9.6 0-16 6.4-16 16s9.6 16 16 16zm160-672c28.8-28.8 67.2-44.8 112-44.8s80 16 112 44.8l288 288c28.8 28.8 44.8 67.2 44.8 112s-16 80-44.8 112c-32 32-70.4 44.8-112 44.8s-80-16-112-44.8l-288-288c-28.8-28.8-44.8-67.2-44.8-112s12.8-83.2 44.8-112zm316.8 483.2c44.8 44.8 121.6 44.8 166.4 0 22.4-22.4 35.2-51.2 35.2-83.2s-12.8-60.8-35.2-83.2l-128-128-166.4 166.4 128 128zm-262.4-265.6l92.8 92.8c3.2 3.2 6.4 6.4 12.8 6.4s9.6-3.2 12.8-6.4 6.4-16 0-22.4l-92.8-92.8c-6.4-6.4-16-6.4-22.4 0-9.6 3.2-9.6 16-3.2 22.4zm-48-48l3.2 3.2c3.2 3.2 6.4 6.4 12.8 6.4 3.2 0 9.6-3.2 12.8-6.4 6.4-6.4 6.4-16 0-22.4l-3.2-3.2c-6.4-6.4-16-6.4-22.4 0-9.6 6.4-9.6 16-3.2 22.4z"/></svg>