<!-- Generated by IcoMoon.io -->
<svg version="1.1" xmlns="http://www.w3.org/2000/svg" width="24" height="24" viewBox="0 0 24 24">
<title>medical-cross</title>
<path d="M2.4 15.45h6.075v6.075c0 0.225 0.075 0.45 0.225 0.6s0.375 0.225 0.6 0.225h5.25c0.225 0 0.45-0.075 0.6-0.225s0.225-0.375 0.225-0.6v-6.075h6.075c0.225 0 0.45-0.075 0.6-0.225s0.225-0.375 0.225-0.6v0 0-5.25c0-0.225-0.075-0.45-0.225-0.6s-0.375-0.225-0.6-0.225h-6.075v-6.15c0-0.225-0.075-0.45-0.225-0.6s-0.375-0.225-0.6-0.225h-5.25c-0.225 0-0.45 0.075-0.6 0.225s-0.225 0.375-0.225 0.6v6.075h-6.075c-0.225 0-0.45 0.075-0.6 0.225s-0.225 0.375-0.225 0.6v5.25c0 0.225 0.075 0.45 0.225 0.6 0.15 0.225 0.375 0.3 0.6 0.3z"></path>
</svg>
