<!-- Generated by IcoMoon.io -->
<svg version="1.1" xmlns="http://www.w3.org/2000/svg" width="24" height="24" viewBox="0 0 24 24">
<title>medical-bubble</title>
<path d="M11.85 3.6c-5.925 0-10.8 3.675-10.8 8.25 0 2.4 1.35 4.575 3.525 6.075-0.15 3.45-2.025 3.75-2.025 3.75 2.325 0.225 4.275-1.2 5.175-2.25 1.275 0.45 2.7 0.675 4.2 0.675 5.925 0 10.8-3.675 10.8-8.25s-4.875-8.25-10.875-8.25zM16.35 12.825c0 0.075 0 0.15-0.075 0.225s-0.15 0.075-0.225 0.075h-2.4v2.4c0 0.075 0 0.15-0.075 0.225s-0.15 0.075-0.225 0.075h-2.1c-0.075 0-0.15 0-0.225-0.075s-0.075-0.15-0.075-0.225v-2.4h-2.4c-0.075 0-0.15 0-0.225-0.15-0.075-0.075-0.075-0.15-0.075-0.225v-2.1c0-0.075 0-0.15 0.075-0.225s0.15-0.075 0.225-0.075h2.4v-2.4c0-0.075 0-0.15 0.075-0.225s0.15-0.075 0.225-0.075h2.1c0.075 0 0.15 0 0.225 0.075s0.075 0.15 0.075 0.225v2.4h2.4c0.075 0 0.15 0 0.225 0.075s0.075 0.15 0.075 0.225v2.175z"></path>
</svg>
