<svg xmlns="http://www.w3.org/2000/svg" viewBox="0 0 1024 1024"><path d="M950.4 286.933c-22.4-22.4-51.2-35.2-83.2-35.2H716.8v-83.2c0-12.8-6.4-25.6-16-35.2s-19.2-16-35.2-16H364.8c-12.8 0-25.6 6.4-35.2 16s-12.8 22.4-12.8 35.2v83.2H166.4c-32 0-60.8 12.8-83.2 35.2s-35.2 51.2-35.2 83.2v435.2c0 32 12.8 60.8 35.2 83.2s51.2 35.2 83.2 35.2h700.8c32 0 60.8-12.8 83.2-35.2s35.2-51.2 35.2-83.2v-435.2c-3.2-32-12.8-60.8-35.2-83.2zm-569.6-105.6h268.8v70.4H380.8v-70.4zm336 454.4c0 6.4 0 9.6-3.2 12.8s-6.4 3.2-12.8 3.2H582.4v118.4c0 6.4 0 9.6-3.2 12.8s-6.4 3.2-12.8 3.2h-99.2c-6.4 0-9.6 0-12.8-3.2s-3.2-6.4-3.2-12.8v-118.4H332.8c-6.4 0-9.6 0-12.8-3.2s-3.2-6.4-3.2-12.8v-99.2c0-6.4 0-9.6 3.2-12.8s6.4-3.2 12.8-3.2H448v-118.4c0-6.4 0-9.6 3.2-12.8s6.4-3.2 12.8-3.2h99.2c6.4 0 9.6 0 12.8 3.2s3.2 6.4 3.2 12.8v118.4h118.4c6.4 0 9.6 0 12.8 3.2s3.2 6.4 3.2 12.8l3.2 99.2z"/></svg>