<svg xmlns="http://www.w3.org/2000/svg" viewBox="0 0 1024 1024"><path d="M1014.4 552.533l-476.8-476.8c-3.2-3.2-12.8-9.6-22.4-9.6s-19.2 3.2-22.4 9.6L9.6 552.533c-6.4 3.2-9.6 12.8-9.6 22.4 0 19.2 12.8 32 32 32 9.6 0 19.2-3.2 22.4-9.6l460.8-454.4 454.4 454.4c9.6 3.2 12.8 9.6 22.4 9.6 19.2 0 32-12.8 32-32 0-9.6-3.2-19.2-9.6-22.4zm-886.4 25.6v355.2c0 35.2 28.8 64 64 64h640c35.2 0 64-28.8 64-64v-358.4l-380.8-384-387.2 387.2zm441.6-80c3.2 3.2 3.2 6.4 3.2 9.6v108.8h108.8c3.2 0 9.6 0 9.6 3.2 3.2 3.2 3.2 6.4 3.2 9.6v96c0 3.2 0 9.6-3.2 9.6-3.2 3.2-6.4 3.2-9.6 3.2H572.8v108.8c0 3.2 0 9.6-3.2 9.6-3.2 3.2-6.4 3.2-9.6 3.2h-92.8c-3.2 0-9.6 0-9.6-3.2-3.2-3.2-3.2-6.4-3.2-9.6v-108.8H345.6c-3.2 0-9.6 0-9.6-6.4-3.2-3.2-3.2-6.4-3.2-9.6v-92.8c0-3.2 0-9.6 3.2-9.6 3.2-3.2 6.4-3.2 9.6-3.2h108.8v-108.8c0-3.2 0-9.6 3.2-9.6 3.2-3.2 6.4-3.2 9.6-3.2H560c3.2-3.2 6.4 0 9.6 3.2z"/></svg>