<!-- Generated by IcoMoon.io -->
<svg version="1.1" xmlns="http://www.w3.org/2000/svg" width="24" height="24" viewBox="0 0 24 24">
<title>medical-care</title>
<path d="M21.975 3.375c-0.75 0-1.425 0.6-1.5 1.35l-0.525 5.55c-0.3 0.075-0.525 0.225-0.675 0.375l-4.5 4.125c-0.6 0.525-0.975 1.35-0.975 2.175v4.95h5.325v-2.325c0-0.375 0.15-0.675 0.45-0.975l3.375-3.375c0.45-0.45 0.675-0.975 0.675-1.575v-8.7c-0.15-0.9-0.825-1.575-1.65-1.575zM22.65 13.725c0 0.375-0.15 0.675-0.375 0.9l-3.375 3.375c-0.45 0.45-0.675 0.975-0.675 1.575v1.425h-3.525v-4.050c0-0.6 0.225-1.125 0.675-1.575l4.5-4.2c0.15-0.15 0.3-0.15 0.45-0.15 0.075 0 0.225 0.075 0.375 0.15 0.075 0.075 0.15 0.225 0.15 0.375s-0.075 0.3-0.15 0.375l-3.45 3.15 0.6 0.675 3.45-3.15c0.3-0.3 0.45-0.675 0.45-1.050s-0.15-0.75-0.45-1.050c-0.15-0.15-0.3-0.225-0.45-0.3l0.525-5.55c0-0.3 0.3-0.6 0.6-0.6 0.375 0 0.6 0.3 0.6 0.6v9.075z"></path>
<path d="M4.8 10.65c-0.225-0.225-0.45-0.3-0.675-0.375l-0.6-5.475c-0.075-0.75-0.75-1.35-1.5-1.35-0.825 0-1.5 0.675-1.5 1.5v8.85c0 0.6 0.225 1.125 0.675 1.575l3.3 3.3c0.3 0.225 0.45 0.6 0.45 0.975v2.325h5.325v-4.95c0-0.825-0.375-1.65-0.975-2.175l-4.5-4.2zM9.375 21.075h-3.6v-1.425c0-0.6-0.225-1.2-0.675-1.575l-3.375-3.375c-0.225-0.225-0.375-0.6-0.375-0.9v-8.85c0-0.375 0.3-0.6 0.6-0.6s0.6 0.225 0.6 0.6l0.525 5.55c-0.15 0.075-0.3 0.15-0.45 0.3-0.3 0.3-0.45 0.675-0.45 1.050s0.15 0.75 0.45 1.050l3.45 3.15 0.6-0.675-3.45-3.15c-0.075-0.075-0.15-0.225-0.15-0.375s0.075-0.3 0.15-0.375c0.15-0.15 0.225-0.15 0.375-0.15s0.375 0.075 0.45 0.15l4.5 4.2c0.45 0.375 0.675 0.975 0.675 1.575v3.825z"></path>
<path d="M18.45 7.275c0.15-0.375 0.15-0.75 0.15-1.125 0-1.35-0.75-2.55-1.875-3.15-1.35-0.75-3.15-0.525-4.2 0.525-1.125-1.050-2.925-1.275-4.275-0.525-1.125 0.675-1.875 1.875-1.875 3.15 0 0.375 0.075 0.75 0.15 1.050 0.075 0.15 0.075 0.375 0.225 0.6h-1.125c-0.225 0-0.375 0.15-0.375 0.375s0.15 0.375 0.375 0.375h4.65c0.15 0 0.3-0.075 0.375-0.225l0.45-0.975 0.525 2.25c0.075 0.15 0.15 0.3 0.3 0.3 0 0 0.075 0 0.075 0 0.15 0 0.3-0.075 0.375-0.225l1.125-1.875h1.2c0.225 0 0.375-0.15 0.375-0.375s-0.15-0.375-0.375-0.375h-1.425c-0.15 0-0.3 0.075-0.375 0.225l-0.75 1.275-0.6-2.475c-0.075-0.15-0.15-0.3-0.375-0.3-0.15 0-0.3 0.075-0.375 0.225l-0.825 1.875h-2.325c-0.15-0.3-0.225-0.6-0.3-0.825-0.075-0.3-0.15-0.6-0.15-0.9 0-1.050 0.525-1.95 1.5-2.475 1.125-0.6 2.7-0.375 3.525 0.675 0.15 0.15 0.45 0.15 0.6 0 0.825-1.050 2.4-1.275 3.525-0.675 0.9 0.525 1.425 1.425 1.425 2.475 0 0.3-0.075 0.6-0.15 0.9-0.375 1.8-3.675 4.275-5.175 5.25-0.45-0.3-1.5-1.050-2.55-1.875-0.15-0.15-0.45-0.15-0.6 0.075-0.15 0.15-0.15 0.45 0.075 0.6 1.425 1.2 2.775 2.1 2.85 2.1 0.075 0.075 0.15 0.075 0.225 0.075s0.15 0 0.225-0.075c0.225-0.225 5.175-3.3 5.775-5.925z"></path>
</svg>
