<!-- Generated by IcoMoon.io -->
<svg version="1.1" xmlns="http://www.w3.org/2000/svg" width="24" height="24" viewBox="0 0 24 24">
<title>medical-case</title>
<path d="M22.275 6.225c-0.525-0.525-1.2-0.825-1.95-0.825h-3.525v-1.95c0-0.3-0.15-0.6-0.375-0.825s-0.45-0.375-0.825-0.375h-7.050c-0.3 0-0.6 0.15-0.825 0.375s-0.3 0.525-0.3 0.825v1.95h-3.525c-0.75 0-1.425 0.3-1.95 0.825s-0.825 1.2-0.825 1.95v10.2c0 0.75 0.3 1.425 0.825 1.95s1.2 0.825 1.95 0.825h16.425c0.75 0 1.425-0.3 1.95-0.825s0.825-1.2 0.825-1.95v-10.2c-0.075-0.75-0.3-1.425-0.825-1.95zM8.925 3.75h6.3v1.65h-6.3v-1.65zM16.8 14.4c0 0.15 0 0.225-0.075 0.3s-0.15 0.075-0.3 0.075h-2.775v2.775c0 0.15 0 0.225-0.075 0.3s-0.15 0.075-0.3 0.075h-2.325c-0.15 0-0.225 0-0.3-0.075s-0.075-0.15-0.075-0.3v-2.775h-2.775c-0.15 0-0.225 0-0.3-0.075s-0.075-0.15-0.075-0.3v-2.325c0-0.15 0-0.225 0.075-0.3s0.15-0.075 0.3-0.075h2.7v-2.775c0-0.15 0-0.225 0.075-0.3s0.15-0.075 0.3-0.075h2.325c0.15 0 0.225 0 0.3 0.075s0.075 0.15 0.075 0.3v2.775h2.775c0.15 0 0.225 0 0.3 0.075s0.075 0.15 0.075 0.3l0.075 2.325z"></path>
</svg>
