<svg xmlns="http://www.w3.org/2000/svg" viewBox="0 0 1024 1024"><path d="M516.267 29.866C302.934 29.866 128 204.799 128 418.133c0 4.267 0 8.533 4.267 12.8 0 4.267 4.267 8.533 4.267 8.533l204.8 213.333c-21.333 4.267-38.4 21.333-38.4 42.667v298.667c0 25.6 21.333 42.667 46.933 42.667h320c25.6 0 46.933-21.333 46.933-42.667V695.466c0-17.067-12.8-34.133-29.867-38.4l213.333-213.333c4.267-4.267 4.267-4.267 4.267-8.533s4.267-8.533 4.267-12.8C904.533 209.067 729.6 29.867 516.267 29.867zM601.6 435.2l-72.533 217.6h-25.6l-72.533-217.6c46.933-38.4 115.2-42.667 170.667 0zm-230.4 4.266l72.533 209.067h-17.067L200.533 426.666c55.467-29.867 110.933-25.6 170.667 12.8zm192 452.267v76.8h-93.867v-76.8h-81.067v-93.867h81.067v-76.8H563.2v76.8H640v93.867h-76.8zM605.867 652.8H588.8l72.533-209.067c55.467-38.4 115.2-42.667 170.667-12.8L605.867 652.8z"/></svg>