<!-- Generated by IcoMoon.io -->
<svg version="1.1" xmlns="http://www.w3.org/2000/svg" width="24" height="24" viewBox="0 0 24 24">
<title>medical-shipped</title>
<path d="M12.1 0.2c-5 0-9.1 4.1-9.1 9.1 0 0.1 0 0.2 0.1 0.3 0 0.1 0.1 0.2 0.1 0.2l4.8 5c-0.5 0.1-0.9 0.5-0.9 1v7c0 0.6 0.5 1 1.1 1h7.5c0.6 0 1.1-0.5 1.1-1v-7c0-0.4-0.3-0.8-0.7-0.9l5-5c0.1-0.1 0.1-0.1 0.1-0.2s0.1-0.2 0.1-0.3c-0.1-5-4.2-9.2-9.2-9.2zM14.1 9.7l-1.7 5.1h-0.6l-1.7-5.1c1.1-0.9 2.7-1 4 0zM8.7 9.8l1.7 4.9h-0.4l-5.3-5.2c1.3-0.7 2.6-0.6 4 0.3zM13.2 20.4v1.8h-2.2v-1.8h-1.9v-2.2h1.9v-1.8h2.2v1.8h1.8v2.2h-1.8zM14.2 14.8h-0.4l1.7-4.9c1.3-0.9 2.7-1 4-0.3l-5.3 5.2z"></path>
</svg>
