<!-- Generated by IcoMoon.io -->
<svg version="1.1" xmlns="http://www.w3.org/2000/svg" width="24" height="24" viewBox="0 0 24 24">
<title>medical-clinic</title>
<path d="M23.775 12.45l-11.175-11.175c-0.075-0.075-0.3-0.225-0.525-0.225s-0.45 0.075-0.525 0.225l-11.325 11.175c-0.15 0.075-0.225 0.3-0.225 0.525 0 0.45 0.3 0.75 0.75 0.75 0.225 0 0.45-0.075 0.525-0.225l10.8-10.65 10.65 10.65c0.225 0.075 0.3 0.225 0.525 0.225 0.45 0 0.75-0.3 0.75-0.75 0-0.225-0.075-0.45-0.225-0.525z"></path>
<path d="M3 13.050v8.325c0 0.825 0.675 1.5 1.5 1.5h15c0.825 0 1.5-0.675 1.5-1.5v-8.4l-8.925-9-9.075 9.075zM13.35 11.175c0.075 0.075 0.075 0.15 0.075 0.225v2.55h2.55c0.075 0 0.225 0 0.225 0.075 0.075 0.075 0.075 0.15 0.075 0.225v2.25c0 0.075 0 0.225-0.075 0.225-0.075 0.075-0.15 0.075-0.225 0.075h-2.55v2.55c0 0.075 0 0.225-0.075 0.225-0.075 0.075-0.15 0.075-0.225 0.075h-2.175c-0.075 0-0.225 0-0.225-0.075-0.075-0.075-0.075-0.15-0.075-0.225v-2.55h-2.55c-0.075 0-0.225 0-0.225-0.15-0.075-0.075-0.075-0.15-0.075-0.225v-2.175c0-0.075 0-0.225 0.075-0.225 0.075-0.075 0.15-0.075 0.225-0.075h2.55v-2.55c0-0.075 0-0.225 0.075-0.225 0.075-0.075 0.15-0.075 0.225-0.075h2.175c0.075-0.075 0.15 0 0.225 0.075z"></path>
</svg>
