<!-- Generated by IcoMoon.io -->
<svg version="1.1" xmlns="http://www.w3.org/2000/svg" width="24" height="24" viewBox="0 0 24 24">
<title>medical-heart</title>
<path d="M19.125 8.925c0-0.15-0.075-0.225-0.15-0.3s-0.225-0.15-0.3-0.15h-2.625c-0.15 0-0.225 0.075-0.3 0.15s-0.15 0.225-0.15 0.3v3.075h-3.075c-0.15 0-0.225 0.075-0.3 0.15s-0.15 0.225-0.15 0.3v2.55c0 0.15 0.075 0.225 0.15 0.3 0.075 0.15 0.225 0.15 0.3 0.15h3.075v3.075c0 0.075 0 0.225 0.075 0.3v0c0 0 0 0 0 0 0.075 0.075 0.225 0.15 0.3 0.15h2.625c0.15 0 0.225-0.075 0.3-0.15s0.15-0.225 0.15-0.3v-3.075h3.075c0.15 0 0.225-0.075 0.3-0.15s0.15-0.225 0.15-0.3v-2.625c0-0.15-0.075-0.225-0.15-0.3s-0.15-0.075-0.3-0.075h-3v-3.075z"></path>
<path d="M14.85 18.45v-2.175h-2.175c-0.375 0-0.75-0.15-0.975-0.45-0.225-0.225-0.3-0.525-0.3-0.825v-2.625c0-0.375 0.15-0.675 0.375-0.9s0.525-0.375 0.9-0.375h2.175v-2.175c0-0.375 0.15-0.675 0.375-0.9s0.525-0.375 0.9-0.375h2.625c0.375 0 0.675 0.15 0.9 0.375s0.375 0.525 0.375 0.9v2.25h2.025l0.375-0.45c0.6-0.975 0.975-2.175 0.975-3.375 0-3.45-2.85-6.3-6.3-6.3-2.1 0-3.975 1.050-5.1 2.625-1.125-1.575-3-2.625-5.1-2.625-3.525-0.075-6.375 2.7-6.375 6.225 0 1.5 0.525 2.925 1.425 3.975l10.050 12.15 2.7-3.225 0.6-0.75c0 0 0 0-0.075-0.075-0.3-0.225-0.375-0.525-0.375-0.9z"></path>
</svg>
