<!-- Generated by IcoMoon.io -->
<svg version="1.1" xmlns="http://www.w3.org/2000/svg" width="24" height="24" viewBox="0 0 24 24">
<title>medical-doctor</title>
<path d="M19.125 11.475c-1.050 0-1.875 0.825-1.875 1.875 0 0.825 0.6 1.575 1.35 1.8v1.8c0 3-1.725 5.4-3.9 5.4s-3.9-2.4-3.9-5.4v-3.075c0.9-0.15 1.725-0.75 2.25-1.575l3.6-6.3c0.6-0.975 0.6-2.175 0-3.225-0.525-0.9-1.35-1.425-2.4-1.575-0.225-0.375-0.6-0.6-0.975-0.6-0.6 0-1.125 0.525-1.125 1.125s0.525 1.125 1.125 1.125c0.375 0 0.75-0.225 0.975-0.525 0.6 0.075 1.125 0.45 1.425 0.975 0.375 0.675 0.375 1.425 0 2.1l-3.675 6.3c-0.375 0.675-1.050 1.050-1.8 1.050s-1.425-0.375-1.8-1.050l-3.6-6.225c-0.375-0.675-0.375-1.425 0-2.1 0.3-0.525 0.825-0.9 1.425-0.975 0.225 0.3 0.525 0.525 0.975 0.525 0.6 0 1.125-0.525 1.125-1.125s-0.525-1.125-1.125-1.125c-0.45 0-0.825 0.225-0.975 0.6-0.975 0.075-1.875 0.675-2.4 1.5-0.6 1.050-0.6 2.25 0 3.225l3.675 6.3c0.45 0.825 1.275 1.425 2.25 1.575v3.075c0 3.6 2.25 6.525 5.025 6.525s5.025-2.925 5.025-6.525v-1.875c0.675-0.225 1.2-0.9 1.2-1.725 0-1.050-0.825-1.875-1.875-1.875zM19.125 14.25c-0.45 0-0.9-0.375-0.9-0.9s0.375-0.9 0.9-0.9 0.9 0.375 0.9 0.9-0.375 0.9-0.9 0.9z"></path>
</svg>
