<!-- Generated by IcoMoon.io -->
<svg version="1.1" xmlns="http://www.w3.org/2000/svg" width="24" height="24" viewBox="0 0 24 24">
<title>menu</title>
<path d="M22.293 6.49c0 0.874-0.659 1.583-1.47 1.583h-17.645c-0.812 0-1.47-0.709-1.47-1.583v-0.198c0-0.874 0.659-1.583 1.47-1.583h17.644c0.811 0 1.47 0.709 1.47 1.583v0.198z"></path>
<path d="M22.293 11.933c0 0.874-0.659 1.583-1.47 1.583h-17.645c-0.812 0-1.47-0.709-1.47-1.583v-0.198c0-0.874 0.659-1.583 1.47-1.583h17.644c0.811 0 1.47 0.709 1.47 1.583v0.198z"></path>
<path d="M22.293 17.375c0 0.874-0.659 1.583-1.47 1.583h-17.645c-0.812 0-1.47-0.709-1.47-1.583v-0.198c0-0.874 0.659-1.583 1.47-1.583h17.644c0.811 0 1.47 0.709 1.47 1.583v0.198z"></path>
</svg>
