<svg xmlns="http://www.w3.org/2000/svg" viewBox="0 0 1024 1024"><path d="M951.15 298.237c0 37.292-28.104 67.556-62.726 67.556H135.578c-34.656 0-62.726-30.266-62.726-67.556v-8.444c0-37.292 28.104-67.556 62.726-67.556h752.814c34.622 0 62.726 30.266 62.726 67.556v8.444zm0 232.224c0 37.292-28.104 67.556-62.726 67.556H135.578c-34.656 0-62.726-30.266-62.726-67.556v-8.444c0-37.292 28.104-67.556 62.726-67.556h752.814c34.622 0 62.726 30.266 62.726 67.556v8.444zm0 232.226c0 37.292-28.104 67.556-62.726 67.556H135.578c-34.656 0-62.726-30.266-62.726-67.556v-8.444c0-37.292 28.104-67.556 62.726-67.556h752.814c34.622 0 62.726 30.266 62.726 67.556v8.444z"/></svg>