<svg xmlns="http://www.w3.org/2000/svg" viewBox="0 0 1024 1024"><path d="M448 847.189v134.144h-96c-17.664 0-32 14.336-32 32s14.336 32 32 32h320c17.664 0 32-14.336 32-32s-14.336-32-32-32h-96V846.805c133.312-26.304 256-134.208 256-313.472v-96c0-17.664-14.336-32-32-32s-32 14.336-32 32v96c0 168.064-128.832 256-256 256-123.328 0-256-80.128-256-256v-96c0-17.664-14.336-32-32-32s-32 14.336-32 32v96c0 181.76 120.512 288.384 256 313.856zm64-185.856c70.72 0 128-57.28 128-128v-384c0-70.72-57.28-128-128-128s-128 57.28-128 128v384c0 70.72 57.28 128 128 128z"/></svg>