<!-- Generated by IcoMoon.io -->
<svg version="1.1" xmlns="http://www.w3.org/2000/svg" width="24" height="24" viewBox="0 0 24 24">
<title>mic</title>
<path d="M10.5 19.356v3.144h-2.25c-0.414 0-0.75 0.336-0.75 0.75s0.336 0.75 0.75 0.75h7.5c0.414 0 0.75-0.336 0.75-0.75s-0.336-0.75-0.75-0.75h-2.25v-3.153c3.125-0.617 6-3.146 6-7.347v-2.25c0-0.414-0.336-0.75-0.75-0.75s-0.75 0.336-0.75 0.75v2.25c0 3.939-3.020 6-6 6-2.89 0-6-1.878-6-6v-2.25c0-0.414-0.336-0.75-0.75-0.75s-0.75 0.336-0.75 0.75v2.25c0 4.26 2.825 6.759 6 7.356zM12 15c1.658 0 3-1.342 3-3v-9c0-1.657-1.342-3-3-3s-3 1.343-3 3v9c0 1.658 1.342 3 3 3z"></path>
</svg>
