<svg xmlns="http://www.w3.org/2000/svg" viewBox="0 0 778 1024"><path d="M232.038 776.123c-30.72-7.373-124.314-9.421-150.016-5.837l-41.984 3.891V313.889H0v500.429h338.432c-30.703-16.74-66.293-29.949-103.862-37.755l-2.531-.44zm383.898 76.698v119.398c.012.336.019.731.019 1.128 0 18.392-14.828 33.32-33.181 33.483H190.156c-.19.004-.414.006-.639.006-19.384 0-35.185-15.345-35.916-34.55l-.002-.066V852.822h-38.093V972.22c.748 40.538 33.786 73.114 74.433 73.114H582.772c39.588 0 71.68-32.092 71.68-71.68 0-.504-.005-1.007-.016-1.509l.001.075V852.822zM739.123 313.89v460.288l-40.96-3.891c-26.01-3.584-118.477-1.536-149.402 5.837-40.099 8.24-75.69 21.449-108.45 39.215l2.056-1.02h335.258V313.89zm-216.269-64.615c-43.635 9.755-81.952 23.212-118.065 40.532l3.275-1.415v499.712c30.72-15.872 80.077-40.96 132.506-49.971 32.06-5.209 69.015-8.185 106.666-8.185 18.789 0 37.404.741 55.819 2.196l-2.433-.155V236.373s-98.099-4.71-177.766 12.902zM153.6 198.383V94.447c.736-19.27 16.535-34.612 35.918-34.612l.242.001h61.94c6.451 0 7.27 2.56 7.27 3.891.172 10.557 8.77 19.049 19.351 19.049.109 0 .218-.001.326-.003h215.638c10.609-.058 19.193-8.642 19.251-19.246v-.006c0-1.331 2.355-3.891 7.27-3.891h61.44c18.369.163 33.197 15.092 33.197 33.484 0 .397-.007.791-.021 1.185l.002-.057v104.55c15.36-.717 30.72-1.126 38.502-1.229V94.446c.009-.427.014-.93.014-1.434 0-39.588-32.092-71.68-71.68-71.68H189.939c-40.647 0-73.685 32.576-74.432 73.044l-.001.07V197.46c15.36.102 23.04.307 38.093.922zm215.962 90.009c-32.838-15.905-71.156-29.362-111.143-38.422l-3.648-.695c-79.667-17.613-177.766-12.902-177.766-12.902v495.616c15.982-1.3 34.597-2.041 53.386-2.041 37.65 0 74.605 2.976 110.643 8.707l-3.977-.521c52.429 9.114 101.683 34.099 132.506 49.971z"/></svg>