<!-- Generated by IcoMoon.io -->
<svg version="1.1" xmlns="http://www.w3.org/2000/svg" width="18" height="24" viewBox="0 0 18 24">
<title>mobile-textbook</title>
<path d="M5.438 17.69c-0.72-0.173-2.914-0.221-3.516-0.137l-0.984 0.091v-10.788h-0.938v11.729h7.932c-0.72-0.392-1.554-0.702-2.434-0.885l-0.059-0.010z"></path>
<path d="M14.436 19.488v2.798c0 0.008 0 0.017 0 0.026 0 0.431-0.348 0.781-0.778 0.785h-9.202c-0.004 0-0.010 0-0.015 0-0.454 0-0.825-0.36-0.842-0.81l-0-0.002v-2.798h-0.893v2.798c0.018 0.95 0.792 1.714 1.745 1.714 0.002 0 0.004 0 0.005 0h9.201c0 0 0 0 0 0 0.928 0 1.68-0.752 1.68-1.68 0-0.012-0-0.024-0-0.035l0 0.002v-2.798z"></path>
<path d="M17.323 6.857v10.788l-0.96-0.091c-0.61-0.084-2.777-0.036-3.502 0.137-0.94 0.193-1.774 0.503-2.542 0.919l0.048-0.024h7.858v-11.729z"></path>
<path d="M12.254 5.342c-1.023 0.229-1.921 0.544-2.767 0.95l0.077-0.033v11.712c0.72-0.372 1.877-0.96 3.106-1.171 0.751-0.122 1.618-0.192 2.5-0.192 0.44 0 0.877 0.017 1.308 0.051l-0.057-0.004v-11.616s-2.299-0.11-4.166 0.302z"></path>
<path d="M3.6 4.15v-2.436c0.017-0.452 0.388-0.811 0.842-0.811 0.002 0 0.004 0 0.006 0h1.452c0.151 0 0.17 0.060 0.17 0.091 0.004 0.247 0.206 0.446 0.454 0.446 0.003 0 0.005-0 0.008-0h5.054c0.249-0.001 0.45-0.203 0.451-0.451v-0c0-0.031 0.055-0.091 0.17-0.091h1.44c0.431 0.004 0.778 0.354 0.778 0.785 0 0.009-0 0.019-0 0.028l0-0.001v2.45c0.36-0.017 0.72-0.026 0.902-0.029v-2.417c0-0.010 0-0.022 0-0.034 0-0.928-0.752-1.68-1.68-1.68-0 0-0 0-0 0h-9.19c-0.002 0-0.003 0-0.005 0-0.953 0-1.727 0.763-1.745 1.712l-0 0.002v2.414c0.36 0.002 0.54 0.007 0.893 0.022z"></path>
<path d="M8.662 6.259c-0.77-0.373-1.668-0.688-2.605-0.901l-0.085-0.016c-1.867-0.413-4.166-0.302-4.166-0.302v11.616c0.375-0.030 0.811-0.048 1.251-0.048 0.882 0 1.749 0.070 2.593 0.204l-0.093-0.012c1.229 0.214 2.383 0.799 3.106 1.171z"></path>
</svg>
