<!-- Generated by IcoMoon.io -->
<svg version="1.1" xmlns="http://www.w3.org/2000/svg" width="16" height="24" viewBox="0 0 16 24">
<title>mobile-graduate</title>
<path d="M16.421 1.709c0-0.944-0.765-1.709-1.709-1.709v0h-13.003c-0.944 0-1.709 0.765-1.709 1.709v0 20.582c0 0.944 0.765 1.709 1.709 1.709v0h13.003c0.944 0 1.709-0.765 1.709-1.709v0zM8.822 23.098h-1.262c-0.249 0-0.451-0.202-0.451-0.451s0.202-0.451 0.451-0.451h1.262c0.249 0 0.451 0.202 0.451 0.451s-0.202 0.451-0.451 0.451v0zM14.796 21.293h-13.171v-18.948h13.171z"></path>
<path d="M9.18 12.871c-0.292 0.101-0.629 0.159-0.979 0.159s-0.687-0.058-1.001-0.166l0.022 0.006-1.807-0.631v2.069c0.803 0.467 1.767 0.743 2.796 0.743s1.993-0.276 2.823-0.757l-0.027 0.014v-2.069z"></path>
<path d="M12.72 10.666c0.374-0.132 0.377-0.35 0-0.48l-3.84-1.39c-0.203-0.064-0.437-0.101-0.679-0.101s-0.476 0.037-0.696 0.105l0.017-0.004-3.84 1.385c-0.374 0.134-0.374 0.353 0 0.48l3.84 1.356c0.204 0.063 0.439 0.099 0.682 0.099s0.478-0.036 0.699-0.103l-0.017 0.004z"></path>
</svg>
