<!-- Generated by IcoMoon.io -->
<svg version="1.1" xmlns="http://www.w3.org/2000/svg" width="24" height="24" viewBox="0 0 24 24">
<title>mobile</title>
<path d="M14.55 11.025c0.225-0.375 0.375-0.9 0.375-1.35 0-1.725-1.425-3.15-3.15-3.15s-3.15 1.425-3.15 3.15c0 1.425 0.9 2.625 2.175 3v-0.75c-0.9-0.375-1.5-1.2-1.5-2.25 0-1.35 1.125-2.4 2.4-2.4 1.35 0 2.4 1.125 2.4 2.4 0 0.45-0.15 0.825-0.3 1.2 0.375-0.075 0.6 0.075 0.75 0.15z"></path>
<path d="M6.675 17.175v-13.875h9.6v8.625c0.375 0 0.6 0.675 0.6 0.75v-10.65c0-0.75-0.75-1.35-1.575-1.35h-7.575c-0.975 0-1.65 0.6-1.65 1.35v2.775h-0.075v0.675c0 0 0 0 0.075 0v0.975h-0.075v0.675c0 0 0 0 0.075 0v11.55c0 0.75 0.75 1.35 1.575 1.35h1.575l-1.425-2.85h-1.125zM10.725 2.025h1.5c0.15 0 0.225 0.075 0.225 0.15s-0.075 0.15-0.225 0.15h-1.5c-0.15 0.075-0.225 0-0.225-0.075 0-0.15 0.075-0.225 0.225-0.225z"></path>
<path d="M18.375 14.85c0-0.225 0-0.375 0-0.45 0 0 0-0.6-0.3-0.975-0.15-0.15-0.3-0.225-0.525-0.225h-0.075c-0.375 0-0.6 0.3-0.6 0.6v2.925h-0.225v-3.525c-0.075-0.45-0.225-0.975-0.825-0.975v0c-0.525 0-0.525 0.45-0.6 0.6v3.225h-0.225v-3.6c0-0.225 0-0.6-0.15-0.9s-0.45-0.525-0.9-0.525-0.675 0.45-0.75 0.75v4.2h-0.225v-6.375c0 0-0.15-0.825-0.9-0.825-0.6 0-0.9 0.3-0.975 0.9 0 0.225 0 1.875 0 3.525 0 0.375 0 0.75 0 1.125 0 1.050 0 2.1 0 2.625 0 0.225 0 0.45 0 0.45h-0.075l-0.3-0.45-0.225-0.3c-0.75-1.125-1.5-2.4-2.325-2.475-0.375 0-0.6 0.15-0.6 0.15-0.45 0.3-0.45 0.675-0.225 1.275 0.15 0.3 0.3 0.6 0.525 0.975 0.075 0.15 0.375 0.6 0.45 0.75v0c0.6 1.050 1.2 2.175 1.5 2.85 0.9 1.8 2.475 2.625 3.225 2.625s3.15 0 3.15 0c1.8 0 2.1-2.625 2.1-3.45 0.075-0.75 0.075-3.15 0.075-4.5z"></path>
</svg>
