<svg xmlns="http://www.w3.org/2000/svg" viewBox="0 0 1024 1024"><path d="M620.8 491.733c9.6-16 16-38.4 16-57.6 0-73.6-60.8-134.4-134.4-134.4s-134.4 60.8-134.4 134.4c0 60.8 38.4 112 92.8 128v-32c-38.4-16-64-51.2-64-96 0-57.6 48-102.4 102.4-102.4 57.6 0 102.4 48 102.4 102.4 0 19.2-6.4 35.2-12.8 51.2 16-3.2 25.6 3.2 32 6.4zm-336 262.4v-592h409.6v368c16 0 25.6 28.8 25.6 32v-454.4c0-32-32-57.6-67.2-57.6H329.6c-41.6 0-70.4 25.6-70.4 57.6v118.4H256v28.8h3.2v41.6H256v28.8h3.2v492.8c0 32 32 57.6 67.2 57.6h67.2l-60.8-121.6h-48zm172.8-646.4h64c6.4 0 9.6 3.2 9.6 6.4s-3.2 6.4-9.6 6.4h-64c-6.4 3.2-9.6 0-9.6-3.2 0-6.4 3.2-9.6 9.6-9.6zm326.4 547.2v-19.2s0-25.6-12.8-41.6c-6.4-6.4-12.8-9.6-22.4-9.6h-3.2c-16 0-25.6 12.8-25.6 25.6v124.8h-9.6v-150.4c-3.2-19.2-9.6-41.6-35.2-41.6-22.4 0-22.4 19.2-25.6 25.6v137.6H640v-153.6c0-9.6 0-25.6-6.4-38.4s-19.2-22.4-38.4-22.4-28.8 19.2-32 32v179.2h-9.6v-272s-6.4-35.2-38.4-35.2c-25.6 0-38.4 12.8-41.6 38.4V763.733h-3.2l-12.8-19.2-9.6-12.8c-32-48-64-102.4-99.2-105.6-16 0-25.6 6.4-25.6 6.4-19.2 12.8-19.2 28.8-9.6 54.4 6.4 12.8 12.8 25.6 22.4 41.6 3.2 6.4 16 25.6 19.2 32 25.6 44.8 51.2 92.8 64 121.6 38.4 76.8 105.6 112 137.6 112h134.4c76.8 0 89.6-112 89.6-147.2 3.2-32 3.2-134.4 3.2-192z"/></svg>