<svg xmlns="http://www.w3.org/2000/svg" viewBox="0 0 701 1024"><path d="M700.621 94.242c0-40.266-32.642-72.909-72.909-72.909H72.909C32.643 21.333 0 53.975 0 94.242v878.182c0 40.266 32.642 72.909 72.909 72.909h554.803c40.266 0 72.909-32.642 72.909-72.909zm-324.199 912.589H322.56c-10.632 0-19.251-8.619-19.251-19.251s8.619-19.251 19.251-19.251h53.862c10.632 0 19.251 8.619 19.251 19.251s-8.619 19.251-19.251 19.251zm254.874-77.005H69.325V121.378h561.971zM391.68 570.504c-12.466 4.309-26.832 6.798-41.779 6.798s-29.313-2.488-42.707-7.074l.927.276-77.107-26.931v88.269c34.264 19.923 75.407 31.683 119.296 31.683s85.032-11.76 120.449-32.3l-1.153.617v-88.269zm151.04-94.105c15.974-5.632 16.077-14.95 0-20.48l-163.84-59.29c-8.67-2.73-18.641-4.303-28.979-4.303s-20.309 1.573-29.686 4.492l.707-.19-163.84 59.085c-15.974 5.734-15.974 15.053 0 20.48l163.84 57.856c8.706 2.676 18.714 4.216 29.082 4.216s20.375-1.541 29.807-4.406l-.725.189z"/></svg>