<svg xmlns="http://www.w3.org/2000/svg" viewBox="0 0 1024 1024"><path d="M574.6 1001.133c27.6-3.6 54.4-9.8 80.2-17.8v-486.4c-31.6 6-59 13.2-80.2 21.4v482.8zm-70-412.6c-42.8-15.2-67.8-33.6-67.8-53.2 0-52.2 174.6-94.6 389.8-94.6 54 0 105.2 2.6 152 7.4-1.8-10.2-4-20.4-6.4-30.4-34.6-2.8-71.6-4.4-110.2-4.4-102.2 0-193.8 11-256 28.4-20.8 3.4-40.4 7.4-58.6 11.8-44.8 10.8-77.6 23.8-98.6 38.6-7.8-7.4-12-15.2-12-23.2 0-52.2 174.6-94.6 389.8-94.6 47.4 0 92.6 2 134.6 5.8-4-12-8.6-24-13.6-35.6-27.4-1.8-56-2.6-85.6-2.6-123.2 0-230.8 16-290.2 39.8-8.4 1.8-16.6 3.6-24.4 5.4-42.4 10.2-74.4 22.4-95.4 36.4-9.8-8.4-15.2-17-15.2-26.2 0-52.2 174.6-94.6 389.8-94.6 35.4 0 69.6 1.2 102.4 3.4-80.4-148.2-237.2-248.8-417.8-248.8-262.2 0-474.6 212.2-474.6 474 0 259.6 209 470.4 468 474v-416.8zm370.4 247.4c20.4-24.2 38.2-50.4 53.4-78.4v-276c-17.4-.8-35.2-1.4-53.4-1.6v356zm-150.2 118.8c28.6-14.4 55.4-31.6 80.2-51.2v-422.6c-28 1.2-55 3.2-80.2 5.8v468z"/></svg>