<!-- Generated by IcoMoon.io -->
<svg version="1.1" xmlns="http://www.w3.org/2000/svg" width="24" height="24" viewBox="0 0 24 24">
<title>museum</title>
<path d="M13.467 22.964c0.647-0.084 1.275-0.23 1.88-0.417v-11.4c-0.741 0.141-1.383 0.309-1.88 0.502v11.316z"></path>
<path d="M11.827 13.294c-1.003-0.356-1.589-0.787-1.589-1.247 0-1.223 4.092-2.217 9.136-2.217 1.266 0 2.466 0.061 3.563 0.173-0.042-0.239-0.094-0.478-0.15-0.713-0.811-0.066-1.678-0.103-2.583-0.103-2.395 0-4.542 0.258-6 0.666-0.487 0.080-0.947 0.173-1.373 0.277-1.050 0.253-1.819 0.558-2.311 0.905-0.183-0.173-0.281-0.356-0.281-0.544 0-1.223 4.092-2.217 9.136-2.217 1.111 0 2.17 0.047 3.155 0.136-0.094-0.281-0.202-0.563-0.319-0.834-0.642-0.042-1.313-0.061-2.006-0.061-2.887 0-5.409 0.375-6.802 0.933-0.197 0.042-0.389 0.084-0.572 0.127-0.994 0.239-1.744 0.525-2.236 0.853-0.23-0.197-0.356-0.398-0.356-0.614 0-1.223 4.092-2.217 9.136-2.217 0.83 0 1.631 0.028 2.4 0.080-1.884-3.473-5.559-5.831-9.792-5.831-6.145 0-11.123 4.973-11.123 11.109 0 6.084 4.898 11.025 10.969 11.109v-9.769z"></path>
<path d="M20.508 19.092c0.478-0.567 0.895-1.181 1.252-1.837v-6.469c-0.408-0.019-0.825-0.033-1.252-0.037v8.344z"></path>
<path d="M16.987 21.877c0.67-0.337 1.298-0.741 1.88-1.2v-9.905c-0.656 0.028-1.289 0.075-1.88 0.136v10.969z"></path>
</svg>
