<!-- Generated by IcoMoon.io -->
<svg version="1.1" xmlns="http://www.w3.org/2000/svg" width="24" height="24" viewBox="0 0 24 24">
<title>museum-alt</title>
<path d="M14.269 0.792c-5.227 0-9.464 1.027-9.464 2.297 0 0.22 0.131 0.436 0.37 0.637 0.511-0.338 1.284-0.633 2.316-0.886 0.192-0.047 0.389-0.089 0.591-0.131 1.439-0.577 4.055-0.966 7.045-0.966 1.177 0 2.302 0.061 3.314 0.169v-0.886c-1.261-0.15-2.672-0.234-4.172-0.234z"></path>
<path d="M5.1 5.395c0.506-0.361 1.308-0.675 2.391-0.938 0.441-0.108 0.919-0.202 1.425-0.286 1.509-0.422 3.731-0.689 6.211-0.689 1.177 0 2.302 0.061 3.314 0.169v-0.886c-1.256-0.15-2.672-0.234-4.167-0.234-5.227 0-9.464 1.031-9.464 2.297 0 0.197 0.098 0.389 0.291 0.567z"></path>
<path d="M6.455 7.739v15.755c0.497-0.731 1.064-1.491 1.697-2.25v-15.206c0.516-0.202 1.177-0.38 1.945-0.52v13.584c0.061-0.066 0.127-0.127 0.192-0.192 0.502-0.502 1.003-0.975 1.509-1.42v-12.216c0.614-0.066 1.266-0.112 1.945-0.141v10.758c0.577-0.436 1.144-0.83 1.697-1.181v-9.605c0.441 0.005 0.877 0.019 1.298 0.038v8.808c0.6-0.319 1.167-0.572 1.697-0.755v-8.808c-1.256-0.15-2.672-0.234-4.167-0.234-5.227 0-9.464 1.027-9.464 2.297 0.005 0.473 0.614 0.923 1.65 1.289z"></path>
</svg>
