<svg xmlns="http://www.w3.org/2000/svg" viewBox="0 0 1024 1024"><path d="M608.8 55.133c-223 0-403.8 43.8-403.8 98 0 9.4 5.6 18.6 15.8 27.2 21.8-14.4 54.8-27 98.8-37.8 8.2-2 16.6-3.8 25.2-5.6 61.4-24.6 173-41.2 300.6-41.2 50.2 0 98.2 2.6 141.4 7.2v-37.8c-53.8-6.4-114-10-178-10zm-391.2 196.4c21.6-15.4 55.8-28.8 102-40 18.8-4.6 39.2-8.6 60.8-12.2 64.4-18 159.2-29.4 265-29.4 50.2 0 98.2 2.6 141.4 7.2v-37.8c-53.6-6.4-114-10-177.8-10-223 0-403.8 44-403.8 98 0 8.4 4.2 16.6 12.4 24.2zm57.8 100v672.2c21.2-31.2 45.4-63.6 72.4-96v-648.8c22-8.6 50.2-16.2 83-22.2v579.6c2.6-2.8 5.4-5.4 8.2-8.2 21.4-21.4 42.8-41.6 64.4-60.6v-521.2c26.2-2.8 54-4.8 83-6v459c24.6-18.6 48.8-35.4 72.4-50.4v-409.8c18.8.2 37.4.8 55.4 1.6v375.8c25.6-13.6 49.8-24.4 72.4-32.2v-375.8c-53.6-6.4-114-10-177.8-10-223 0-403.8 43.8-403.8 98 .2 20.2 26.2 39.4 70.4 55z"/></svg>