<svg xmlns="http://www.w3.org/2000/svg" viewBox="0 0 1024 1024"><path d="M55.232 967.685c44.948 58.352 137.792 62.136 207.38 8.532 28.304-21.812 47.896-49.816 58.772-79.204 6.248-12.38 10.336-29.928 10.336-49.996V397.941l540.84-102.22v237.128c0 83.648-64 102.88-86.656 107.148-1.984.24-3.907.72-5.888 1.08-1.02.12-2.524.3-2.524.3l.36.12c-26.8 4.868-53.784 16.104-78 34.732-69.588 53.604-89.6 144.344-44.648 202.696s137.792 62.196 207.38 8.592c35.216-27.164 57.628-63.82 65.44-100.956 2.704-9.014 4.628-18.928 4.628-30.168V173.129c0-3.664-.72-6.792-1.02-10.276.12-1.804 1.02-3.845 1.02-5.648V97.113c0-33.172-26.92-51.92-60.092-41.764l-540.84 102.22c-33.172 10.096-60.092 45.252-60.092 78.42v60.092c0 .84.42 1.444.48 2.224-.06 1.804-.48 3.364-.48 5.168v318.132c0 83.769-64.18 102.94-86.776 107.148-1.14.18-2.284.54-3.484.72-2.944.48-4.868.66-4.868.66l.66.3c-26.56 4.988-53.304 16.104-77.28 34.552-69.588 53.604-89.54 144.344-44.648 202.696z"/></svg>