<!-- Generated by IcoMoon.io -->
<svg version="1.1" xmlns="http://www.w3.org/2000/svg" width="24" height="24" viewBox="0 0 24 24">
<title>music</title>
<path d="M1.294 22.18c1.053 1.368 3.229 1.456 4.86 0.2 0.663-0.511 1.123-1.168 1.377-1.856 0.146-0.29 0.242-0.701 0.242-1.172v-10.525l12.676-2.396v5.558c0 1.96-1.5 2.411-2.031 2.511-0.047 0.006-0.092 0.017-0.138 0.025-0.024 0.003-0.059 0.007-0.059 0.007l0.008 0.003c-0.628 0.114-1.261 0.377-1.828 0.814-1.631 1.256-2.1 3.383-1.046 4.751s3.229 1.458 4.86 0.201c0.825-0.637 1.351-1.496 1.534-2.366 0.063-0.211 0.108-0.444 0.108-0.707v-13.67c0-0.086-0.017-0.159-0.024-0.241 0.003-0.042 0.024-0.090 0.024-0.132v-1.408c0-0.777-0.631-1.217-1.408-0.979l-12.676 2.396c-0.777 0.237-1.408 1.061-1.408 1.838v1.408c0 0.020 0.010 0.034 0.011 0.052-0.001 0.042-0.011 0.079-0.011 0.121v7.456c0 1.963-1.504 2.413-2.034 2.511-0.027 0.004-0.054 0.013-0.082 0.017-0.069 0.011-0.114 0.015-0.114 0.015l0.015 0.007c-0.623 0.117-1.249 0.377-1.811 0.81-1.631 1.256-2.099 3.383-1.046 4.751z"></path>
</svg>
