<svg xmlns="http://www.w3.org/2000/svg" viewBox="0 0 1024 1024"><path d="M18.8 698.333v294.6c0 16 13 29 29 29h146.8c16 0 29-13 29-29v-294.6c0-16-13-29-29-29H47.8c-16 0-29 13-29 29zm174.6-635.8c1.6-17-11.8-31.8-29-31.8H78c-17.2 0-30.6 14.8-29 31.8l15.2 261.4c1.4 14.6 13.4 25.8 28 26.2v261h58v-261c14.6-.4 26.6-11.6 28-26.2l15.2-261.4zm600.6 264v-266.6c0-16-13-29-29-29H597.6c-16 0-29 13-29 29v266.8H794zm-85.2 461H1010c-.8-19.4-3.2-38.4-7.2-56.8h-294v56.8zm-356.4 12.8c0 85.4 32.6 163.4 86 221.8H924c43.8-48 73.6-109 83-176.4H679.8c-16 0-29-13-29-29v-115c0-16 13-29 29-29h304.8c-22.6-53.4-58.8-99.6-104.4-134.2v-124.6c0-16-13-29-29-29H511.6c-16 0-29 13-29 29v124.6c-79 59.8-130.2 154.8-130.2 261.8z"/></svg>