<!-- Generated by IcoMoon.io -->
<svg version="1.1" xmlns="http://www.w3.org/2000/svg" width="24" height="24" viewBox="0 0 24 24">
<title>nail-polish</title>
<path d="M0.441 15.867v6.905c0 0.375 0.305 0.68 0.68 0.68h3.441c0.375 0 0.68-0.305 0.68-0.68v-6.905c0-0.375-0.305-0.68-0.68-0.68h-3.441c-0.375 0-0.68 0.305-0.68 0.68z"></path>
<path d="M4.533 0.966c0.037-0.398-0.277-0.745-0.68-0.745h-2.025c-0.403 0-0.717 0.347-0.68 0.745l0.356 6.127c0.033 0.342 0.314 0.605 0.656 0.614v6.117h1.359v-6.117c0.342-0.009 0.623-0.272 0.656-0.614l0.356-6.127z"></path>
<path d="M18.609 7.153v-6.248c0-0.375-0.305-0.68-0.68-0.68h-3.923c-0.375 0-0.68 0.305-0.68 0.68v6.253h5.283z"></path>
<path d="M16.612 17.958h7.059c-0.019-0.455-0.075-0.9-0.169-1.331h-6.891v1.331z"></path>
<path d="M8.259 18.258c0 2.002 0.764 3.83 2.016 5.198h11.381c1.027-1.125 1.725-2.555 1.945-4.134h-7.669c-0.375 0-0.68-0.305-0.68-0.68v-2.695c0-0.375 0.305-0.68 0.68-0.68h7.144c-0.53-1.252-1.378-2.334-2.447-3.145v-2.92c0-0.375-0.305-0.68-0.68-0.68h-7.959c-0.375 0-0.68 0.305-0.68 0.68v2.92c-1.852 1.402-3.052 3.628-3.052 6.136z"></path>
</svg>
