<!-- Generated by IcoMoon.io -->
<svg version="1.1" xmlns="http://www.w3.org/2000/svg" width="24" height="24" viewBox="0 0 24 24">
<title>no-coughing</title>
<path d="M15.564 12.33c0.366-0.114 0.948-0.396 0.954-0.918 0.006-0.468-1.704-2.238-1.704-2.724s0.048-1.032-0.042-1.854c-0.114-1.032-0.354-2.184-0.822-2.796-0.696-0.906-1.926-2.58-6.12-2.826-1.758-0.102-3.444 0.468-4.77 1.536l-1.422-1.086-1.374 1.782 21.792 16.692 1.374-1.782-7.866-6.024z"></path>
<path d="M14.19 15.294c-0.15-0.144-13.104-10.074-13.104-10.074-0.654 1.32-0.96 2.916-0.762 4.686 0.222 2.028 0.948 3.042 1.83 5.256 1.086 2.718-0.798 4.392-0.798 4.392 1.056 0.258 3.402 0.492 7.212 4.086 0 0 0.324-1.92 1.152-3.576s1.596-1.206 3.132-1.206 1.854-0.774 1.506-1.83c-0.102-0.3 0.204-0.504 0.264-0.87 0.024-0.162 0.108-0.366-0.432-0.864z"></path>
<path d="M18.762 13.698c0.324 0.216 0.756 0.126 0.972-0.192 0.216-0.324 0.126-0.756-0.192-0.972-0.324-0.216-0.756-0.126-0.972 0.192-0.216 0.324-0.126 0.756 0.192 0.972z"></path>
<path d="M22.86 15.036c0 0.411-0.333 0.744-0.744 0.744s-0.744-0.333-0.744-0.744c0-0.411 0.333-0.744 0.744-0.744s0.744 0.333 0.744 0.744z"></path>
<path d="M22.218 12.864c0.384 0 0.702-0.312 0.702-0.702 0-0.384-0.312-0.702-0.702-0.702-0.384 0-0.702 0.312-0.702 0.702 0.006 0.39 0.318 0.702 0.702 0.702z"></path>
</svg>
