<svg xmlns="http://www.w3.org/2000/svg" viewBox="0 0 1024 1024"><path d="M664.064 547.413c15.616-4.864 40.448-16.896 40.704-39.168.256-19.968-72.704-95.488-72.704-116.224s2.048-44.032-1.792-79.104c-4.864-44.032-15.104-93.184-35.072-119.296-29.696-38.656-82.176-110.08-261.12-120.576-75.008-4.352-146.944 19.968-203.52 65.536L69.888 92.245l-58.624 76.032 929.792 712.192 58.624-76.032-335.616-257.024zM605.44 673.877c-6.4-6.144-559.104-429.824-559.104-429.824-27.904 56.32-40.96 124.416-32.512 199.936 9.472 86.528 40.448 129.792 78.08 224.256 46.336 115.968-34.048 187.392-34.048 187.392 45.056 11.008 145.152 20.992 307.712 174.336 0 0 13.824-81.92 49.152-152.576s68.096-51.456 133.632-51.456 79.104-33.024 64.256-78.08c-4.352-12.8 8.704-21.504 11.264-37.12 1.024-6.912 4.608-15.616-18.432-36.864zm195.072-68.096c13.824 9.216 32.256 5.376 41.472-8.192 9.216-13.824 5.376-32.256-8.192-41.472-13.824-9.216-32.256-5.376-41.472 8.192-9.216 13.824-5.376 32.256 8.192 41.472zm174.848 57.088c0 17.532-14.212 31.744-31.744 31.744s-31.744-14.212-31.744-31.744 14.212-31.744 31.744-31.744 31.744 14.212 31.744 31.744zm-27.392-92.672c16.384 0 29.952-13.312 29.952-29.952 0-16.384-13.312-29.952-29.952-29.952-16.384 0-29.952 13.312-29.952 29.952.256 16.64 13.568 29.952 29.952 29.952z"/></svg>