<!-- Generated by IcoMoon.io -->
<svg version="1.1" xmlns="http://www.w3.org/2000/svg" width="24" height="24" viewBox="0 0 24 24">
<title>no-handshake</title>
<path d="M22.764 6.948h-2.178c-0.342 0-0.612 0.138-0.816 0.408-0.138-0.066-0.204-0.138-0.342-0.204h-3.468c0.204-0.27 0.408-0.546 0.546-0.888 0.138-0.408 0.138-0.888-0.066-1.158-0.27-0.342-0.678-0.546-1.224-0.546h-3.474c-1.092 0-1.974 0.546-2.724 1.092-0.54 0.402-1.074 0.75-1.542 1.026l-5.82-4.806-1.422 1.896 21.786 18.018 1.422-1.896-4.152-3.432c0.258-0.12 0.474-0.264 0.612-0.456 0.204 0.138 0.408 0.27 0.678 0.27h2.178c0.546 0 1.020-0.474 1.020-1.020v-7.284c0.006-0.546-0.468-1.020-1.014-1.020zM19.224 8.034v5.244c-1.020-0.816-3.948-3.132-3.948-3.132l-0.138-0.138h-1.5l-0.138 0.138c0 0-0.438 0.36-0.906 0.768l-1.404-1.164c0.702-0.648 1.17-1.122 1.296-1.308 0.138-0.138 0.474-0.342 0.954-0.408 0.066 0 0.066 0 0.138 0 0.138 0 0.342 0 0.474 0h5.172zM9.624 6.402c0.612-0.474 1.362-0.888 2.112-0.888h3.474c0.156 0 0.27 0.036 0.342 0.084 0.024 0.018 0.048 0.030 0.066 0.048 0.066 0.066 0 0.204 0 0.27-0.066 0.204-0.474 1.020-1.566 1.224h-0.27c-0.816 0-1.566 0.27-1.974 0.75-0.126 0.126-0.768 0.768-1.29 1.29l-2.244-1.854c0.498-0.3 0.984-0.642 1.35-0.924zM19.158 15.324c-0.096 0.162-0.414 0.294-0.756 0.396l-5.082-4.2c0.282-0.258 0.558-0.492 0.732-0.618h0.75c0.612 0.474 2.994 2.382 3.81 3.066 0.402 0.348 0.588 0.606 0.648 0.804 0.102 0.264-0.024 0.432-0.102 0.552zM21.672 15.114c-0.414 0-0.75-0.336-0.75-0.75s0.336-0.75 0.75-0.75c0.414 0 0.75 0.336 0.75 0.75 0 0.42-0.336 0.75-0.75 0.75z"></path>
<path d="M13.956 16.656c-0.252-0.096-0.504-0.228-0.69-0.342-0.24-0.144-0.414-0.216-0.588-0.228-0.054 0-0.102 0.006-0.162 0.024-0.138 0.066-0.27 0.138-0.342 0.27-0.186 0.186-0.372 0.42-0.852 0.414-0.072 0-0.15 0-0.24-0.006-0.888-0.138-1.77-1.158-1.974-1.428-0.27-0.342-0.888-0.888-1.566-0.888h-2.52v-5.232l-3.222-2.652c-0.528 0.018-0.99 0.486-0.99 1.020v7.212c0 0.546 0.474 1.020 1.020 1.020h2.178c0.342 0 0.612-0.138 0.816-0.408 0.066 0 0.138 0.066 0.204 0.066h2.52c0.204 0 0.546 0.27 0.816 0.546 0.408 0.474 1.362 1.632 2.658 1.77 0.954 0.138 1.5-0.342 1.77-0.612h0.066c0.408 0.204 1.020 0.612 1.704 0.612 0.066 0 0.138 0 0.204 0 0.204-0.018 0.378-0.066 0.534-0.144l-1.14-0.936c-0.066-0.018-0.132-0.048-0.204-0.078zM2.922 14.958c-0.408 0-0.75-0.342-0.75-0.75s0.342-0.75 0.75-0.75c0.408 0 0.75 0.342 0.75 0.75s-0.342 0.75-0.75 0.75z"></path>
</svg>
