<svg xmlns="http://www.w3.org/2000/svg" viewBox="0 0 1024 1024"><path d="M971.264 317.781h-92.928c-14.592 0-26.112 5.888-34.816 17.408-5.888-2.816-8.704-5.888-14.592-8.704H680.96c8.704-11.52 17.408-23.296 23.296-37.888 5.888-17.408 5.888-37.888-2.816-49.408-11.52-14.592-28.928-23.296-52.224-23.296H500.992c-46.592 0-84.224 23.296-116.224 46.592-23.04 17.152-45.824 32-65.792 43.776L70.656 101.205 9.984 182.101 939.52 950.869l60.672-80.896L823.04 723.541c11.008-5.12 20.224-11.264 26.112-19.456 8.704 5.888 17.408 11.52 28.928 11.52h92.928c23.296 0 43.52-20.224 43.52-43.52V361.301c.256-23.296-19.968-43.52-43.264-43.52zm-151.04 46.336v223.744c-43.52-34.816-168.448-133.632-168.448-133.632l-5.888-5.888h-64L576 454.229s-18.688 15.36-38.656 32.768l-59.904-49.664c29.952-27.648 49.92-47.872 55.296-55.808 5.888-5.888 20.224-14.592 40.704-17.408h246.784zm-409.6-69.632c26.112-20.224 58.112-37.888 90.112-37.888H648.96c6.656 0 11.52 1.536 14.592 3.584 1.024.768 2.048 1.28 2.816 2.048 2.816 2.816 0 8.704 0 11.52-2.816 8.704-20.224 43.52-66.816 52.224h-11.52c-34.816 0-66.816 11.52-84.224 32l-55.04 55.04-95.744-79.104c21.248-12.8 41.984-27.392 57.6-39.424zm406.784 380.672c-4.096 6.912-17.664 12.544-32.256 16.896l-216.832-179.2c12.032-11.008 23.808-20.992 31.232-26.368h32c26.112 20.224 127.744 101.632 162.56 130.816 17.152 14.848 25.088 25.856 27.648 34.304 4.352 11.264-1.024 18.432-4.352 23.552zm107.264-8.96c-17.664 0-32-14.336-32-32s14.336-32 32-32 32 14.336 32 32c0 17.92-14.336 32-32 32zm-329.216 65.792c-10.752-4.096-21.504-9.728-29.44-14.592-10.24-6.144-17.664-9.216-25.088-9.728-2.304 0-4.352.256-6.912 1.024-5.888 2.816-11.52 5.888-14.592 11.52-7.936 7.936-15.872 17.92-36.352 17.664-3.072 0-6.4 0-10.24-.256-37.888-5.888-75.52-49.408-84.224-60.928-11.52-14.592-37.888-37.888-66.816-37.888h-107.52V415.573L76.8 302.421c-22.528.768-42.24 20.736-42.24 43.52v307.712c0 23.296 20.224 43.52 43.52 43.52h92.928c14.592 0 26.112-5.888 34.816-17.408 2.816 0 5.888 2.816 8.704 2.816h107.52c8.704 0 23.296 11.52 34.816 23.296 17.408 20.224 58.112 69.632 113.408 75.52 40.704 5.888 64-14.592 75.52-26.112h2.816c17.408 8.704 43.52 26.112 72.704 26.112h8.704c8.704-.768 16.128-2.816 22.784-6.144l-48.64-39.936c-2.816-.768-5.632-2.048-8.704-3.328zm-470.784-72.448c-17.408 0-32-14.592-32-32s14.592-32 32-32 32 14.592 32 32-14.592 32-32 32z"/></svg>