<!-- Generated by IcoMoon.io -->
<svg version="1.1" xmlns="http://www.w3.org/2000/svg" width="24" height="24" viewBox="0 0 24 24">
<title>no-smoking</title>
<path d="M6.883 10.608h-2.2c-0.292 0-0.533 0.233-0.533 0.525v1.95c0 0.292 0.242 0.525 0.533 0.525h2.192c0 0 0 0 1.025 0h2.192l-2.883-2.992h-0.325z"></path>
<path d="M17.825 10.617c-0.242 0-0.442 0.2-0.442 0.442v2.142c0 0.242 0.2 0.442 0.442 0.442s0.442-0.2 0.442-0.442v-2.142c0-0.242-0.192-0.442-0.442-0.442z"></path>
<path d="M19.108 10.617c-0.242 0-0.442 0.2-0.442 0.442v2.142c0 0.242 0.2 0.442 0.442 0.442s0.442-0.2 0.442-0.442v-2.142c0-0.242-0.2-0.442-0.442-0.442z"></path>
<path d="M17.083 8.158c-0.15-0.067-0.317-0.108-0.5-0.158-0.717-0.192-1.458-0.383-1.458-2.017 0-0.242-0.2-0.442-0.442-0.442s-0.442 0.2-0.442 0.442c0 1 0.242 1.717 0.75 2.2 0.433 0.417 0.975 0.558 1.375 0.667 0.142 0.042 0.283 0.075 0.375 0.117 0.517 0.217 0.65 0.417 0.65 0.933 0 0.242 0.2 0.442 0.442 0.442s0.442-0.2 0.442-0.442c-0.008-0.867-0.358-1.383-1.192-1.742z"></path>
<path d="M18.975 7.942c-0.317-0.425-0.75-0.633-1.833-1.075-0.475-0.2-0.558-0.433-0.558-0.883 0-0.242-0.2-0.442-0.442-0.442s-0.442 0.2-0.442 0.442c0 0.575 0.125 1.292 1.108 1.692 0.958 0.392 1.283 0.558 1.458 0.783 0.275 0.367 0.4 0.792 0.4 1.333v0.108c0 0.242 0.2 0.442 0.442 0.442s0.442-0.2 0.442-0.442v-0.108c0-0.725-0.192-1.333-0.575-1.85z"></path>
<path d="M12 0.475c-6.367 0-11.525 5.158-11.525 11.525s5.158 11.525 11.525 11.525 11.525-5.158 11.525-11.525-5.158-11.525-11.525-11.525zM12 20.833c-2.367 0-4.583-0.908-6.25-2.583-1.667-1.667-2.583-3.892-2.575-6.25 0-1.9 0.583-3.692 1.683-5.192l12.342 12.35c-1.508 1.092-3.308 1.675-5.2 1.675zM13.333 11.492h2.683v1.242h-1.442l-1.242-1.242zM19.1 17.258l-3.65-3.65h0.867c0.467 0 0.583-0.233 0.583-0.525v-1.942c0-0.292-0.242-0.525-0.533-0.525h-3.917l-5.708-5.725c1.517-1.125 3.342-1.725 5.258-1.725 2.367 0 4.583 0.908 6.25 2.583 1.658 1.675 2.583 3.892 2.575 6.25 0 1.925-0.6 3.75-1.725 5.258z"></path>
</svg>
