<svg xmlns="http://www.w3.org/2000/svg" viewBox="0 0 1024 1024"><path d="M293.689 473.955h-93.867c-12.444 0-22.756 9.956-22.756 22.4v83.2c0 12.444 10.311 22.4 22.756 22.4h230.755L307.555 474.311h-13.867zm466.844.356c-10.311 0-18.844 8.533-18.844 18.844v91.378c0 10.311 8.533 18.844 18.844 18.844s18.844-8.533 18.844-18.844v-91.378c0-10.311-8.178-18.844-18.844-18.844zm54.756 0c-10.311 0-18.844 8.533-18.844 18.844v91.378c0 10.311 8.533 18.844 18.844 18.844s18.844-8.533 18.844-18.844v-91.378c0-10.311-8.533-18.844-18.844-18.844zm-86.4-104.889c-6.4-2.844-13.511-4.622-21.333-6.756-30.578-8.178-62.222-16.356-62.222-86.044 0-10.311-8.533-18.844-18.844-18.844s-18.844 8.533-18.844 18.844c0 42.667 10.311 73.244 32 93.867 18.489 17.778 41.6 23.822 58.667 28.444 6.044 1.778 12.089 3.2 16 4.978 22.044 9.244 27.733 17.778 27.733 39.822 0 10.311 8.533 18.844 18.844 18.844s18.844-8.533 18.844-18.844c-.356-36.978-15.289-59.022-50.844-74.311zm80.711-9.245c-13.511-18.133-32-27.022-78.222-45.867-20.267-8.533-23.822-18.489-23.822-37.689 0-10.311-8.533-18.844-18.844-18.844s-18.844 8.533-18.844 18.844c0 24.533 5.333 55.111 47.289 72.178 40.889 16.711 54.756 23.822 62.222 33.422 11.733 15.644 17.067 33.778 17.067 56.889v4.622c0 10.311 8.533 18.844 18.844 18.844s18.844-8.533 18.844-18.844v-4.622c0-30.933-8.178-56.889-24.533-78.933zM512 41.6c-271.644 0-491.733 220.089-491.733 491.733S240.356 1025.066 512 1025.066s491.733-220.089 491.733-491.733S783.644 41.6 512 41.6zm0 868.622c-100.978 0-195.556-38.756-266.667-110.222-71.111-71.111-110.222-166.044-109.867-266.667 0-81.067 24.889-157.511 71.822-221.511l526.578 526.933c-64.356 46.578-141.156 71.467-221.867 71.467zm56.889-398.578h114.489v52.978h-61.511l-52.978-52.978zm246.044 246.045L659.2 601.956h36.978c19.911 0 24.889-9.956 24.889-22.4v-82.844c0-12.444-10.311-22.4-22.756-22.4H531.2L287.644 230.045c64.711-48 142.578-73.6 224.356-73.6 100.978 0 195.556 38.756 266.667 110.222 70.756 71.467 110.222 166.044 109.867 266.667 0 82.133-25.6 160-73.6 224.356z"/></svg>