<svg xmlns="http://www.w3.org/2000/svg" viewBox="0 0 1024 1024"><path d="M371.8 464.333l-186-186c-12.8 35.6-20.2 73.8-20.2 113.8 0 261.8 336.4 635.6 336.4 635.6s96.4-107.2 186-247l-258.2-258.4c-24.4-13.6-44.4-33.6-58-58zm606 553.2l26.4-26.4-276.2-276.2c60.8-105.8 110.4-222.6 110.4-322.8 0-185.8-150.6-336.4-336.4-336.4-117.6 0-221 60.4-281.2 152L52.6 39.533l-26.4 26.4 951.6 951.6zM502 242.733c82.6 0 149.6 67 149.6 149.6 0 66.8-44 122.6-104.4 141.8l-187-187c19.2-60.4 75-104.4 141.8-104.4z"/></svg>