<!-- Generated by IcoMoon.io -->
<svg version="1.1" xmlns="http://www.w3.org/2000/svg" width="24" height="24" viewBox="0 0 24 24">
<title>no-travel</title>
<path d="M8.714 10.383l-4.359-4.359c-0.3 0.834-0.473 1.73-0.473 2.667 0 6.136 7.884 14.897 7.884 14.897s2.259-2.512 4.359-5.789l-6.052-6.056c-0.572-0.319-1.041-0.788-1.359-1.359z"></path>
<path d="M22.917 23.348l0.619-0.619-6.473-6.473c1.425-2.48 2.587-5.217 2.587-7.566 0-4.355-3.53-7.884-7.884-7.884-2.756 0-5.18 1.416-6.591 3.563l-3.942-3.942-0.619 0.619 22.303 22.303zM11.766 5.189c1.936 0 3.506 1.57 3.506 3.506 0 1.566-1.031 2.873-2.447 3.323l-4.383-4.383c0.45-1.416 1.758-2.447 3.323-2.447z"></path>
</svg>
