<!-- Generated by IcoMoon.io -->
<svg version="1.1" xmlns="http://www.w3.org/2000/svg" width="24" height="24" viewBox="0 0 24 24">
<title>no-virus</title>
<path d="M17.748 15.144c0.456-0.162 0.972-0.24 1.542-0.216 1.278 0.054 1.866 0.168 2.028-0.396 0.174-0.606-0.48-0.732-1.656-1.236-2.358-1.008-2.904-3.414-1.218-5.346 0.846-0.972 1.356-1.404 0.954-1.836-0.378-0.414-0.87-0.078-1.998 0.528-2.256 1.212-4.482 0.144-4.938-2.376-0.21-1.158-0.204-1.89-0.768-1.878-0.69 0.018-0.654 0.51-0.9 1.878-0.33 1.806-1.566 2.862-3.072 2.868l-5.904-4.698-1.338 1.53 21.642 17.376 1.452-1.554-5.826-4.644zM12.864 9.174c1.086 0 1.962 0.882 1.962 1.962 0 0.492-0.186 0.942-0.486 1.284l-3.060-2.436c0.354-0.492 0.93-0.81 1.584-0.81z"></path>
<path d="M15.756 17.55l-9.774-7.746c0.204 1.392-0.78 2.808-2.388 3.498-1.206 0.516-1.764 0.684-1.65 1.254 0.12 0.606 0.774 0.426 2.022 0.372 2.562-0.114 4.098 1.818 3.42 4.284-0.336 1.218-0.666 1.806-0.078 2.058 0.492 0.216 0.822-0.282 1.584-1.332 1.506-2.070 3.972-2.070 5.484 0 0.756 1.038 1.020 1.596 1.572 1.344 0.624-0.282 0.27-0.828-0.066-2.064-0.168-0.6-0.204-1.158-0.126-1.668z"></path>
</svg>
