<svg xmlns="http://www.w3.org/2000/svg" viewBox="0 0 1024 1024"><path d="M757.248 667.477c19.456-6.912 41.472-10.24 65.792-9.216 54.528 2.304 79.616 7.168 86.528-16.896 7.424-25.856-20.48-31.232-70.656-52.736-100.608-43.008-123.904-145.664-51.968-228.096 36.096-41.472 57.856-59.904 40.704-78.336-16.128-17.664-37.12-3.328-85.248 22.528-96.256 51.712-191.232 6.144-210.688-101.376-8.96-49.408-8.704-80.64-32.768-80.128-29.44.768-27.904 21.76-38.4 80.128-14.08 77.056-66.816 122.112-131.072 122.368L77.568 125.269l-57.088 65.28 923.392 741.376 61.952-66.304-248.576-198.144zm-208.384-254.72c46.336 0 83.712 37.632 83.712 83.712 0 20.992-7.936 40.192-20.736 54.784L481.28 447.317c15.104-20.992 39.68-34.56 67.584-34.56zm123.392 357.376L255.232 439.637c8.704 59.392-33.28 119.808-101.888 149.248-51.456 22.016-75.264 29.184-70.4 53.504 5.12 25.856 33.024 18.176 86.272 15.872 109.312-4.864 174.848 77.568 145.92 182.784-14.336 51.968-28.416 77.056-3.328 87.808 20.992 9.216 35.072-12.032 67.584-56.832 64.256-88.32 169.472-88.32 233.984 0 32.256 44.288 43.52 68.096 67.072 57.344 26.624-12.032 11.52-35.328-2.816-88.064-7.168-25.6-8.704-49.408-5.376-71.168z"/></svg>