<!-- Generated by IcoMoon.io -->
<svg version="1.1" xmlns="http://www.w3.org/2000/svg" width="24" height="24" viewBox="0 0 24 24">
<title>online-graduate</title>
<path d="M13.15 20.494c-0.092 0.183-0.269 0.311-0.477 0.333l-0.003 0h-3.070c-0.212-0.021-0.389-0.15-0.478-0.33l-0.002-0.003h-8.935c-0.142 0-0.24 0.089-0.161 0.24 0.166 0.35 0.53 0.929 1.104 0.929h19.752c0.576 0 0.941-0.581 1.106-0.931 0.067-0.146-0.048-0.24-0.223-0.24z"></path>
<path d="M19.538 11.695v0c-0.218 0-0.638-0.070-0.96-0.113v7.085h-15.283v-9.794h9.84c-0.228-0.24-0.443-0.499-0.64-0.772l-0.015-0.022-0.262-0.37h-8.53c-0.859 0.001-1.555 0.698-1.555 1.558 0 0.004 0 0.008 0 0.013v-0.001 9.149c-0 0.004-0 0.008-0 0.012 0 0.859 0.696 1.556 1.555 1.558h14.463c0 0 0 0 0 0 0.869 0 1.575-0.701 1.582-1.569v-6.788c-0.056 0.032-0.123 0.052-0.194 0.055l-0.001 0zM10.93 8.026c0.103 0.029 0.177 0.121 0.177 0.232s-0.074 0.203-0.175 0.231l-0.002 0c-0.103-0.029-0.177-0.121-0.177-0.232s0.074-0.203 0.175-0.231l0.002-0z"></path>
<path d="M18.398 7.939c-0.744-0.116-1.396-0.448-1.905-0.93l0.002 0.002-2.045-2.074-1.298 2.666c1.432 1.951 3.716 3.204 6.294 3.204 0.096 0 0.191-0.002 0.287-0.005l-0.014 0 1.253-2.568z"></path>
<path d="M23.573 7.699c0.454 0.053 0.564-0.173 0.24-0.502l-3.571-3.674c-0.376-0.351-0.856-0.596-1.388-0.684l-0.016-0.002-5.098-0.557c-0.454-0.050-0.564 0.175-0.24 0.502l3.586 3.646c0.379 0.349 0.86 0.593 1.392 0.684l0.016 0.002z"></path>
<path d="M23.702 8.539c-0.076-0-0.151-0.005-0.225-0.015l0.009 0.001-0.598-0.072v2.078c0 0.229 0.186 0.415 0.415 0.415s0.415-0.186 0.415-0.415v0-1.994z"></path>
</svg>
