<svg xmlns="http://www.w3.org/2000/svg" viewBox="0 0 1024 1024"><path d="M561.05 895.727c-3.918 7.802-11.467 13.275-20.367 14.224l-.113.01H409.6a25.55 25.55 0 0 1-20.413-14.085l-.067-.149H7.885c-6.042 0-10.24 3.789-6.861 10.24 7.066 14.95 22.63 39.629 47.104 39.629H890.88c24.576 0 40.141-24.781 47.206-39.731 2.867-6.246-2.048-10.24-9.523-10.24zm272.588-375.399c-9.318 0-27.238-2.97-40.96-4.813V817.8H140.595V399.906h419.84a318.769 318.769 0 0 1-27.311-32.957l-.644-.938-11.162-15.77h-363.93c-36.66.057-66.357 29.789-66.357 66.458l.002.54v-.028V807.56l-.002.512c0 36.668 29.697 66.4 66.352 66.458H774.453c37.089 0 67.19-29.921 67.479-66.942V517.973c-2.39 1.366-5.229 2.223-8.256 2.354l-.039.001zM466.33 363.759c4.388 1.221 7.555 5.182 7.555 9.882s-3.166 8.66-7.483 9.864l-.072.017c-4.388-1.221-7.555-5.182-7.555-9.882s3.166-8.66 7.483-9.864l.072-.017zm318.668-3.687c-31.758-4.943-59.561-19.134-81.272-39.694l.069.065-87.245-88.474-55.398 113.766c61.085 83.258 158.564 136.703 268.525 136.703 4.094 0 8.17-.074 12.228-.221l-.587.017 53.453-109.568zm220.775-10.24c19.354 2.253 24.064-7.373 10.24-21.402L863.642 171.656c-16.049-14.988-36.514-25.438-59.238-29.196l-.666-.091-217.498-23.757c-19.354-2.15-24.064 7.475-10.24 21.402L728.986 295.56c16.185 14.876 36.684 25.297 59.413 29.188l.696.098zm5.529 35.84a72.26 72.26 0 0 1-9.587-.656l.371.041-25.498-3.072v88.678c0 9.784 7.931 17.715 17.715 17.715s17.715-7.931 17.715-17.715v-85.094z"/></svg>