<svg xmlns="http://www.w3.org/2000/svg" viewBox="0 0 1024 1024"><path d="M611.84 803.567c-4.577 7.783-12.597 13.119-21.911 13.919l-.105.007h-143.36a28.1 28.1 0 0 1-21.944-13.794l-.072-.132H8.602a7.68 7.68 0 0 0-7.457 11.806l-.018-.029c7.68 16.282 24.678 43.827 51.2 43.827h919.347c26.726 0 43.725-27.75 51.2-44.032 3.174-6.758-2.253-11.571-10.24-11.571zm307.712-524.903c0-40.323-32.688-73.011-73.011-73.011H172.135c-40.323 0-73.011 32.688-73.011 73.011v424.141c0 40.323 32.688 73.011 73.011 73.011h674.406c40.3-.058 72.953-32.712 73.011-73.006v-.006zm-410.931-54.579c5.524.554 9.801 5.179 9.801 10.803s-4.277 10.249-9.756 10.799l-.046.004c-5.524-.554-9.801-5.179-9.801-10.803s4.277-10.249 9.756-10.799l.046-.004zm355.225 496.026h-709.12V261.257h709.12zM360.96 466.773c43.854-.116 79.36-35.694 79.36-79.565v-.108.006c-3.686-105.267-155.546-105.267-159.13 0v.103c0 43.942 35.622 79.565 79.565 79.565h.216-.011zm316.518 50.79c-2.24-15.359-15.32-27.023-31.125-27.023-1.228 0-2.44.07-3.631.207l.145-.014H454.041c-17.408 0-38.707-14.848-74.547-14.848H335.36c-77.517 1.434-101.683 37.786-111.411 91.546-2.765 15.565-13.005 76.39-21.299 118.067h67.789l11.776-63.181s.512 35.328 0 63.181h156.877c0-48.64 4.403-118.17 5.427-132.096h200.602c.368.015.801.024 1.235.024 17.362 0 31.437-14.075 31.437-31.437a31.69 31.69 0 0 0-.334-4.598l.021.17zm119.501-200.704H498.073c-9.42.652-16.814 8.454-16.814 17.982 0 .302.007.603.022.902l-.002-.042v120.218h34.816V351.676h264.192v278.118H516.3v-41.779h-35.021v60.518c-.004.132-.006.288-.006.444 0 8.596 6.969 15.565 15.565 15.565.363 0 .722-.012 1.078-.037l-.048.003h299.11c.376.03.815.047 1.257.047 9.044 0 16.439-7.063 16.968-15.974l.002-.047V335.702c-.258-10.089-8.198-18.242-18.174-18.839l-.053-.003z"/></svg>