<!-- Generated by IcoMoon.io -->
<svg version="1.1" xmlns="http://www.w3.org/2000/svg" width="24" height="24" viewBox="0 0 24 24">
<title>online-services</title>
<path d="M12.115 23.972c-0.23 0-0.461 0-0.691 0 0 0 0-0.115-0.115-0.115-2.072-2.763-3.684-5.526-5.756-8.288-0.576-0.806-1.957-1.842-1.151-2.302 0.921-0.461 2.763-0.115 3.338 0.691 0 0 1.727 1.842 2.187 2.418 0-3.454 0-5.295 0-8.749 0-0.806 0.23-1.496 1.036-1.496s1.496 0.691 1.496 1.496c0 2.648 0.23 2.993 0.23 5.526l5.411 0.576c0.806 0 2.302 0.921 2.302 1.727l-0.691 5.756c-1.036 3.454-4.72 2.763-7.598 2.763z"></path>
<path d="M10.849 1.294c-2.878 0-5.18 2.302-5.18 5.18 0 2.302 1.496 4.144 3.454 4.95 0 0.576 0 1.036 0 1.612-2.878-0.806-4.95-3.338-4.95-6.446 0-3.684 2.993-6.677 6.677-6.677s6.677 2.993 6.677 6.677c0 2.763-1.612 5.065-4.029 6.101 0-0.576 0-1.036-0.115-1.612 1.496-0.921 2.532-2.532 2.532-4.489 0.115-2.993-2.187-5.295-5.065-5.295z"></path>
</svg>
