<svg xmlns="http://www.w3.org/2000/svg" viewBox="0 0 1024 1024"><path d="M358.4 289.314V119.125c-53.658 11.059-105.37 71.168-136.806 156.672 40.619 7.722 87.817 12.601 135.987 13.505l.819.012zm0 214.016H185.856c1.39 55.65 9.787 108.765 24.34 159.271l-1.096-4.442c44.463-8.841 95.964-14.319 148.595-15.146l.704-.009zm184.32-195.175c-44.85 8.933-96.779 14.45-149.851 15.25l-.677.008v146.33h174.592c-1.065-57.941-9.783-113.418-25.181-166.042l1.117 4.455zM358.4 469.743v-146.33c-52.942-1.006-103.922-6.551-153.407-16.267l5.541.907c-14.474 48.145-23.403 103.622-24.666 160.989l-.012.7zm-206.234 0c1-60.472 9.758-118.48 25.318-173.635l-1.152 4.778c-41.02-9.563-76.45-21.374-110.374-36.014l4.185 1.607C29.045 323.043 3.238 393.088.025 468.98l-.026.763zm.103 33.587H0c3.618 74.277 28.229 142.158 67.971 198.621l-.797-1.194c30.202-13.425 66.129-25.58 103.304-34.532l4.421-.899c-13.369-48.307-21.561-103.961-22.621-161.359l-.009-.638zm239.923-384.717v170.803c50.149-.817 98.572-5.7 145.682-14.338l-5.394.821c-31.846-87.45-86.426-148.173-140.288-157.286zM358.4 852.207V676.591c-49.806 1.039-97.7 6.025-144.311 14.664l5.457-.84c31.437 88.474 78.438 150.528 138.854 161.792zM186.47 268.731c22.528-64 54.886-115.302 93.696-147.456-75.482 20.627-139.505 61.921-187.609 117.394l-.398.469c26.129 10.956 57.613 21.119 90.073 28.753l4.238.84zm379.7.103c36.965-8.4 68.768-18.605 99.338-31.193l-4.106 1.497c-48.75-56.232-113.187-97.668-186.49-117.559l-2.642-.611c38.912 32.256 71.373 83.661 93.901 147.866zM184.32 697.583c-37.492 8.775-69.681 19.32-100.617 32.262l4.156-1.542c49.024 58.056 114.469 100.831 189.149 121.24l2.647.616c-39.322-33.075-72.397-86.426-95.334-152.576zM576.41 301.09c14.333 50.315 23.053 108.253 24.056 168.07l.008.583h152.678c-3.239-76.655-29.046-146.7-70.892-204.346l.748 1.082c-29.84 13.087-65.403 24.967-102.177 33.723l-4.421.888zm236.441 510.566c-22.322 6.994-47.99 11.023-74.598 11.023s-52.276-4.029-76.426-11.51l1.828.488-116.736-40.96v136.397c54.651 29.03 119.492 46.076 188.314 46.076s133.662-17.046 190.53-47.146l-2.216 1.07V772.745zm-299.622-4.505c-12.191 16.064-25.365 30.212-39.821 42.937l-.319.276c16.515-4.463 29.875-8.939 42.908-14.067l-2.767.959zm-46.592-64.717c-42.189-14.95-48.64-40.346-48.64-54.17a51.33 51.33 0 0 1 1.933-11.114l-.09.362c-9.216 0-20.48-.819-27.443-.922v176.128c40.346-6.861 81.92-42.701 112.64-96.973zm-.41-108.544l90.726-32.666c5.523-28.824 9.205-62.549 10.218-96.943l.022-.951H392.191v139.571c13.414 0 34.509 1.126 51.2 2.253 6.572-4.381 14.115-8.186 22.11-11.038l.725-.226zm196.915-70.963c21.695-7.263 46.675-11.454 72.635-11.454 4.13 0 8.236.106 12.314.316l-.571-.023c2.576-13.895 4.514-30.543 5.388-47.473l.04-.963H600.474c-.635 30.521-2.997 59.824-7 88.602l.446-3.917zM997.786 710.69c34.918-12.288 34.918-32.666 0-45.158l-196.71-70.963c-18.935-5.944-40.709-9.369-63.283-9.369s-44.348 3.424-64.83 9.782l1.547-.414-196.813 70.963c-34.816 12.493-34.816 32.87 0 45.158 302.08 105.165 218.624 104.858 520.09 0z"/></svg>