<!-- Generated by IcoMoon.io -->
<svg version="1.1" xmlns="http://www.w3.org/2000/svg" width="24" height="24" viewBox="0 0 24 24">
<title>online-education</title>
<path d="M8.4 6.281v-3.989c-1.258 0.259-2.47 1.668-3.206 3.672 0.952 0.181 2.058 0.295 3.187 0.317l0.019 0z"></path>
<path d="M8.4 11.297h-4.044c0.033 1.304 0.229 2.549 0.57 3.733l-0.026-0.104c1.042-0.207 2.249-0.336 3.483-0.355l0.017-0z"></path>
<path d="M12.72 6.722c-1.051 0.209-2.268 0.339-3.512 0.357l-0.016 0v3.43h4.092c-0.025-1.358-0.229-2.658-0.59-3.892l0.026 0.104z"></path>
<path d="M8.4 10.51v-3.43c-1.241-0.024-2.436-0.154-3.595-0.381l0.13 0.021c-0.339 1.128-0.549 2.429-0.578 3.773l-0 0.016z"></path>
<path d="M3.566 10.51c0.023-1.417 0.229-2.777 0.593-4.070l-0.027 0.112c-0.961-0.224-1.792-0.501-2.587-0.844l0.098 0.038c-0.963 1.326-1.568 2.967-1.643 4.746l-0.001 0.018z"></path>
<path d="M3.569 11.297h-3.569c0.085 1.741 0.662 3.332 1.593 4.655l-0.019-0.028c0.708-0.315 1.55-0.6 2.421-0.809l0.104-0.021c-0.313-1.132-0.505-2.437-0.53-3.782l-0-0.015z"></path>
<path d="M9.192 2.28v4.003c1.175-0.019 2.31-0.134 3.414-0.336l-0.126 0.019c-0.746-2.050-2.026-3.473-3.288-3.686z"></path>
<path d="M8.4 19.474v-4.116c-1.167 0.024-2.29 0.141-3.382 0.344l0.128-0.020c0.737 2.074 1.838 3.528 3.254 3.792z"></path>
<path d="M4.37 5.798c0.528-1.5 1.286-2.702 2.196-3.456-1.769 0.483-3.27 1.451-4.397 2.751l-0.009 0.011c0.612 0.257 1.35 0.495 2.111 0.674l0.099 0.020z"></path>
<path d="M13.27 5.801c0.866-0.197 1.612-0.436 2.328-0.731l-0.096 0.035c-1.143-1.318-2.653-2.289-4.371-2.755l-0.062-0.014c0.912 0.756 1.673 1.961 2.201 3.466z"></path>
<path d="M4.32 15.85c-0.879 0.206-1.633 0.453-2.358 0.756l0.097-0.036c1.149 1.361 2.683 2.363 4.433 2.842l0.062 0.014c-0.922-0.775-1.697-2.026-2.234-3.576z"></path>
<path d="M13.51 6.557c0.336 1.179 0.54 2.537 0.564 3.939l0 0.014h3.578c-0.076-1.797-0.681-3.438-1.662-4.789l0.018 0.025c-0.699 0.307-1.533 0.585-2.395 0.79l-0.104 0.021z"></path>
<path d="M19.051 18.523c-0.523 0.164-1.125 0.258-1.748 0.258s-1.225-0.094-1.791-0.27l0.043 0.011-2.736-0.96v3.197c1.281 0.68 2.801 1.080 4.414 1.080s3.133-0.4 4.466-1.105l-0.052 0.025v-3.149z"></path>
<path d="M12.029 18.418c-0.286 0.377-0.594 0.708-0.933 1.006l-0.007 0.006c0.387-0.105 0.7-0.21 1.006-0.33l-0.065 0.022z"></path>
<path d="M10.937 16.901c-0.989-0.35-1.14-0.946-1.14-1.27 0.006-0.092 0.021-0.178 0.045-0.26l-0.002 0.008c-0.216 0-0.48-0.019-0.643-0.022v4.128c0.946-0.161 1.92-1.001 2.64-2.273z"></path>
<path d="M10.927 14.357l2.126-0.766c0.129-0.676 0.216-1.466 0.239-2.272l0.001-0.022h-4.102v3.271c0.314 0 0.809 0.026 1.2 0.053 0.154-0.103 0.331-0.192 0.518-0.259l0.017-0.005z"></path>
<path d="M15.542 12.694c0.508-0.17 1.094-0.268 1.702-0.268 0.097 0 0.193 0.002 0.289 0.007l-0.013-0.001c0.060-0.326 0.106-0.716 0.126-1.113l0.001-0.023h-3.574c-0.015 0.715-0.070 1.402-0.164 2.077l0.010-0.092z"></path>
<path d="M23.386 16.157c0.818-0.288 0.818-0.766 0-1.058l-4.61-1.663c-0.444-0.139-0.954-0.22-1.483-0.22s-1.039 0.080-1.519 0.229l0.036-0.010-4.613 1.663c-0.816 0.293-0.816 0.77 0 1.058 7.080 2.465 5.124 2.458 12.19 0z"></path>
</svg>
