<!-- Generated by IcoMoon.io -->
<svg version="1.1" xmlns="http://www.w3.org/2000/svg" width="24" height="24" viewBox="0 0 24 24">
<title>online-help</title>
<path d="M2.4 8.1v0c0-2.5 2-4.5 4.5-4.5v0c5.9 0.2 5.9 8.7 0 9-2.5 0-4.5-2.1-4.5-4.5v0 0z"></path>
<path d="M23.8 17.2h-9.7v1h8.9c0.6 0 0.8-0.4 1-0.8 0-0.1 0-0.2-0.2-0.2v0z"></path>
<path d="M13.3 20.4v-4c0-1.9-1.3-3.3-3.2-3.3h-6.4c-1.9 0-3.7 1.4-3.7 3.3v4h13.3z"></path>
<path d="M15 8.3c0-2.3 3.3-2.3 3.4 0-0.1 2.2-3.4 2.2-3.4 0z"></path>
<path d="M19.2 14.4v-2.6c0 0 0 0 0 0 0-0.7-0.5-1.2-1.2-1.2 0 0 0 0-0.1 0v0h-2.5c-0.7 0-1.4 0.5-1.4 1.2v2.6h5.2z"></path>
<path d="M20.2 4.4h-9.5c0.3 0.3 0.5 0.5 0.7 0.9h9.4v10.7h-6.6v1h6.1c0.9 0 1.5-0.8 1.5-1.7v-9.3c0 0 0 0 0-0.1 0-0.8-0.7-1.5-1.6-1.5 0.1 0 0 0 0 0v0 0zM12.8 5.1c-0.1 0-0.2-0.1-0.2-0.2s0.1-0.2 0.2-0.2v0c0.1 0 0.2 0.1 0.2 0.2s-0.1 0.2-0.2 0.2v0 0z"></path>
</svg>
