<svg xmlns="http://www.w3.org/2000/svg" viewBox="0 0 1024 1024"><path d="M516.902 1044.153h-29.481s0-4.902-4.902-4.902c-88.42-117.878-157.163-235.756-245.583-353.634-24.556-34.383-83.495-78.593-49.112-98.224 39.285-19.654 117.878-4.902 142.434 29.481 0 0 73.668 78.593 93.322 103.149V346.735c0-34.383 9.827-63.841 44.21-63.841s63.841 29.481 63.841 63.841c0 112.976 9.827 127.705 9.827 235.756l230.854 24.556c34.383 0 98.224 39.285 98.224 73.668l-29.481 245.583c-44.21 147.359-201.373 117.878-324.176 117.878zM462.888 76.55c-122.78 0-221.027 98.224-221.027 221.027 0 98.224 63.841 176.817 147.359 211.2v68.766c-122.78-34.383-211.2-142.434-211.2-275.041 0-157.163 127.705-284.868 284.868-284.868s284.868 127.705 284.868 284.868c0 117.878-68.766 216.102-171.915 260.312 0-24.556 0-44.21-4.902-68.766C634.78 454.763 678.99 385.997 678.99 302.502c4.902-127.705-93.322-225.929-216.102-225.929z"/></svg>