<!-- Generated by IcoMoon.io -->
<svg version="1.1" xmlns="http://www.w3.org/2000/svg" width="24" height="24" viewBox="0 0 24 24">
<title>online-module</title>
<path d="M14.34 18.334c-0.107 0.182-0.295 0.307-0.514 0.326l-0.002 0h-3.36c-0.221-0.019-0.409-0.144-0.514-0.323l-0.002-0.003h-9.746c-0.007-0.001-0.016-0.002-0.024-0.002-0.099 0-0.18 0.081-0.18 0.18 0 0.036 0.011 0.070 0.029 0.098l-0-0.001c0.18 0.382 0.578 1.027 1.2 1.027h21.547c0.626 0 1.025-0.65 1.2-1.032 0.074-0.158-0.053-0.271-0.24-0.271z"></path>
<path d="M21.552 6.031c0-0.945-0.766-1.711-1.711-1.711v0h-15.806c-0.945 0-1.711 0.766-1.711 1.711v0 9.941c0 0.945 0.766 1.711 1.711 1.711v0h15.806c0.945-0.001 1.71-0.767 1.711-1.711v-0zM11.921 4.752c0.129 0.013 0.23 0.121 0.23 0.253s-0.1 0.24-0.229 0.253l-0.001 0c-0.129-0.013-0.23-0.121-0.23-0.253s0.1-0.24 0.229-0.253l0.001-0zM20.246 16.378h-16.62v-10.754h16.62z"></path>
<path d="M8.46 10.44c1.028-0.003 1.86-0.837 1.86-1.865 0-0.001 0-0.002 0-0.003v0c-0.086-2.467-3.646-2.467-3.73 0 0 0.001 0 0.002 0 0.002 0 1.030 0.835 1.865 1.865 1.865 0.002 0 0.003 0 0.005 0h-0z"></path>
<path d="M15.878 11.63c-0.052-0.36-0.359-0.633-0.729-0.633-0.029 0-0.057 0.002-0.085 0.005l0.003-0h-4.426c-0.408 0-0.907-0.348-1.747-0.348h-1.034c-1.817 0.034-2.383 0.886-2.611 2.146-0.065 0.365-0.305 1.79-0.499 2.767h1.589l0.276-1.481s0.012 0.828 0 1.481h3.677c0-1.14 0.103-2.77 0.127-3.096h4.702c0.009 0 0.019 0.001 0.029 0.001 0.407 0 0.737-0.33 0.737-0.737 0-0.037-0.003-0.073-0.008-0.108l0 0.004z"></path>
<path d="M18.679 6.926h-7.006c-0.221 0.015-0.394 0.198-0.394 0.421 0 0.007 0 0.014 0.001 0.021l-0-0.001v2.818h0.816v-2.443h6.192v6.518h-6.187v-0.979h-0.821v1.418c-0 0.003-0 0.007-0 0.010 0 0.201 0.163 0.365 0.365 0.365 0.009 0 0.017-0 0.025-0.001l-0.001 0h7.010c0.009 0.001 0.019 0.001 0.029 0.001 0.212 0 0.385-0.166 0.398-0.374l0-0.001v-7.332c-0.006-0.236-0.192-0.428-0.426-0.442l-0.001-0z"></path>
</svg>
