<svg xmlns="http://www.w3.org/2000/svg" viewBox="0 0 1024 1024"><path d="M102.4 366.933c0-106.667 85.333-192 192-192 251.733 8.533 251.733 371.2 0 384-106.667 0-192-89.6-192-192zM1015.467 755.2H601.6v42.667h379.733c25.6 0 34.133-17.067 42.667-34.133 0-4.267 0-8.533-8.533-8.533zm-448 136.533V721.066c0-81.067-55.467-140.8-136.533-140.8H157.867C76.8 580.266 0 639.999 0 721.066v170.667h567.467zM640 375.466c0-98.133 140.8-98.133 145.067 0-4.267 93.867-145.067 93.867-145.067 0zm179.2 260.267V524.8c0-29.867-21.333-51.2-51.2-51.2H657.066c-29.867 0-59.733 21.333-59.733 51.2v110.933H819.2zm42.667-426.667H456.534c12.8 12.8 21.333 21.333 29.867 38.4h401.067v456.533h-281.6v42.667h260.267c38.4 0 64-34.133 64-72.533v-396.8-4.267c0-34.133-29.867-64-68.267-64 4.267 0 0 0 0 0zm-315.734 29.867c-4.267 0-8.533-4.267-8.533-8.533s4.267-8.533 8.533-8.533c4.267 0 8.533 4.267 8.533 8.533s-4.267 8.533-8.533 8.533z"/></svg>