<!-- Generated by IcoMoon.io -->
<svg version="1.1" xmlns="http://www.w3.org/2000/svg" width="24" height="24" viewBox="0 0 24 24">
<title>opera</title>
<path d="M1.4 10.717c0-0.008 0-0.017 0-0.025-0.008 0.008-0.008 0.017-0.017 0.025h0.017z"></path>
<path d="M11.992 0.492c-6.283 0-10.675 4.558-10.675 11.392 0 6.083 4.267 11.625 10.683 11.625 6.408 0 10.675-5.542 10.675-11.625 0.008-6.833-4.392-11.392-10.683-11.392zM11.992 21.65c-3.908 0-4.342-5.767-4.342-10.025v-0.083c0-4.6 0.692-9.467 4.317-9.467s4.358 5.017 4.358 9.617c0 4.25-0.417 9.958-4.333 9.958z"></path>
</svg>
