<svg xmlns="http://www.w3.org/2000/svg" viewBox="0 0 1024 1024"><path d="M378.6 754.533c18.8 0 49.8-49.6 55-60.2 5-9.8 14.2-40 21-50.4l23.8-25.4h-17.2l-17.6 18.8c-2.4 1.6-6.2 3.2-11.2 3.2-10 0-28.4 7.8-51.6 32.6s-29.2 36.6-26.8 47c2.2 10.4 5.6 34.6 24.6 34.4zm350.8-403c2.4-1.6-4.2-16.6-11.2-6.4l-112 119.2h17.2l106-112.8zm-471.4 251c2.2.6 4.4.6 6.4.2l53.4-33.8H79c-.2 1.2-.2 2.4-.2 3.6 0 17.8 14.4 32.2 32.2 32.2h118.6c14.8-4.4 24-3.4 28.4-2.2zm498 2.2c1.2 0 2.4 0 3.6-.2 14.6-1.6 145.2-17.6 202.8-68 9.2-8 12.8-20.4 10.2-31.6-78.6 46.4-203.8 61.8-219.6 63.6-2 .2-4 .4-5.8.4H370.8l-56.8 36h442zm-363.4-49.6h354.6c1.4 0 2.8 0 4.4-.2 17.4-2 172.8-21 241.4-81 16-14 17.6-38.2 3.6-54.2s-38.2-17.6-54.2-3.6c-42.2 37-154.6 57.2-197.2 62.2H514l-121.4 76.8zm-53.2 0l121.4-76.8H66.6c-21.2 0-38.4 17.2-38.4 38.4s17.2 38.4 38.4 38.4h272.8zm-232.2-45.6c5.2 0 9.6 4.2 9.6 9.6 0 5.2-4.2 9.6-9.6 9.6-5.2 0-9.6-4.2-9.6-9.6s4.2-9.6 9.6-9.6zm508.4-105.2c2.8-.8 0-17.2-9.2-9l-338.8 214.6c-2.8.8-6.6 1.4-11.6.2-9.6-2.4-29.4.4-58.2 18.6-28.6 18.2-37.2 28-37.8 38.8-.4 10.6-3.2 35 15.2 39.6 18.2 4.6 60.6-35.6 68.4-44.6 7.2-8.4 23.6-35.2 33-43.6l339-214.6z"/></svg>