<!-- Generated by IcoMoon.io -->
<svg version="1.1" xmlns="http://www.w3.org/2000/svg" width="24" height="24" viewBox="0 0 24 24">
<title>paddle-boat</title>
<path d="M8.873 17.184c0.441 0 1.167-1.163 1.289-1.411 0.117-0.23 0.333-0.938 0.492-1.181l0.558-0.595h-0.403l-0.412 0.441c-0.056 0.038-0.145 0.075-0.263 0.075-0.234 0-0.666 0.183-1.209 0.764s-0.684 0.858-0.628 1.102c0.052 0.244 0.131 0.811 0.577 0.806z"></path>
<path d="M17.095 7.739c0.056-0.037-0.098-0.389-0.262-0.15l-2.625 2.794h0.403l2.484-2.644z"></path>
<path d="M6.047 13.622c0.052 0.014 0.103 0.014 0.15 0.005l1.252-0.792h-5.597c-0.005 0.028-0.005 0.056-0.005 0.084 0 0.417 0.338 0.755 0.755 0.755h2.78c0.347-0.103 0.563-0.080 0.666-0.052z"></path>
<path d="M17.719 13.673c0.028 0 0.056 0 0.084-0.005 0.342-0.038 3.403-0.413 4.753-1.594 0.216-0.188 0.3-0.478 0.239-0.741-1.842 1.087-4.777 1.448-5.147 1.491-0.047 0.005-0.094 0.009-0.136 0.009h-8.822l-1.331 0.844h10.359z"></path>
<path d="M9.202 12.511h8.311c0.033 0 0.066 0 0.103-0.005 0.408-0.047 4.050-0.492 5.658-1.898 0.375-0.328 0.413-0.895 0.084-1.27s-0.895-0.413-1.27-0.084c-0.989 0.867-3.623 1.341-4.622 1.458h-5.419l-2.845 1.8z"></path>
<path d="M7.955 12.511l2.845-1.8h-9.239c-0.497 0-0.9 0.403-0.9 0.9s0.403 0.9 0.9 0.9h6.394zM2.513 11.442c0.122 0 0.225 0.098 0.225 0.225 0 0.122-0.098 0.225-0.225 0.225-0.122 0-0.225-0.098-0.225-0.225s0.098-0.225 0.225-0.225z"></path>
<path d="M14.428 8.977c0.066-0.019 0-0.403-0.216-0.211l-7.941 5.030c-0.066 0.019-0.155 0.033-0.272 0.005-0.225-0.056-0.689 0.009-1.364 0.436-0.67 0.427-0.872 0.656-0.886 0.909-0.009 0.248-0.075 0.82 0.356 0.928 0.427 0.108 1.42-0.834 1.603-1.045 0.169-0.197 0.553-0.825 0.773-1.022l7.945-5.030z"></path>
</svg>
