<svg xmlns="http://www.w3.org/2000/svg" viewBox="0 0 1024 1024"><path d="M637.572 274.795v-155.12H227.604c-29.548 0-51.709 22.161-51.709 51.709v720.208c0 29.548 22.161 51.709 51.709 51.709h565.088c29.548 0 51.709-22.161 51.709-51.709V326.504h-155.12c-25.851 0-51.709-22.161-51.709-51.709zm-365.639-3.69h273.312c22.161 0 44.322 14.774 44.322 29.548s-18.464 29.548-44.322 29.548H271.933c-22.161 0-44.322-14.774-44.322-29.548 3.69-14.774 22.161-29.548 44.322-29.548zm476.444 528.153H271.926c-22.161 0-44.322-14.774-44.322-33.238s18.464-33.238 44.322-33.238h476.451c22.161 0 44.322 14.774 44.322 33.238s-18.464 33.238-44.322 33.238zm0-155.12H271.926c-22.161 0-44.322-14.774-44.322-33.238s18.464-33.238 44.322-33.238h476.451c22.161 0 44.322 14.774 44.322 33.238s-18.464 33.238-44.322 33.238zm44.322-188.365c0 18.464-18.464 33.238-44.322 33.238H271.926c-22.161 0-44.322-14.774-44.322-33.238s22.161-33.238 44.322-33.238h476.451c25.851 0 44.322 14.774 44.322 33.238zm-84.947-350.872v151.43h155.12z"/></svg>