<!-- Generated by IcoMoon.io -->
<svg version="1.1" xmlns="http://www.w3.org/2000/svg" width="24" height="24" viewBox="0 0 24 24">
<title>page</title>
<path d="M14.943 5.941v-3.636h-9.609c-0.693 0-1.212 0.519-1.212 1.212v16.88c0 0.693 0.519 1.212 1.212 1.212h13.244c0.693 0 1.212-0.519 1.212-1.212v-13.244h-3.636c-0.606 0-1.212-0.519-1.212-1.212zM6.373 5.854h6.406c0.519 0 1.039 0.346 1.039 0.693s-0.433 0.693-1.039 0.693h-6.406c-0.519 0-1.039-0.346-1.039-0.693 0.086-0.346 0.519-0.693 1.039-0.693zM17.54 18.233h-11.167c-0.519 0-1.039-0.346-1.039-0.779s0.433-0.779 1.039-0.779h11.167c0.519 0 1.039 0.346 1.039 0.779s-0.433 0.779-1.039 0.779zM17.54 14.597h-11.167c-0.519 0-1.039-0.346-1.039-0.779s0.433-0.779 1.039-0.779h11.167c0.519 0 1.039 0.346 1.039 0.779s-0.433 0.779-1.039 0.779zM18.579 10.182c0 0.433-0.433 0.779-1.039 0.779h-11.167c-0.519 0-1.039-0.346-1.039-0.779s0.519-0.779 1.039-0.779h11.167c0.606 0 1.039 0.346 1.039 0.779z"></path>
<path d="M16.588 1.959v3.549h3.636z"></path>
</svg>
