<!-- Generated by IcoMoon.io -->
<svg version="1.1" xmlns="http://www.w3.org/2000/svg" width="24" height="24" viewBox="0 0 24 24">
<title>palette</title>
<path d="M20.475 4.35c-4.050-2.192-8.408-2.667-13.325-0.717-3.85 1.525-7.033 6.408-6.942 10.317 0.108 4.625 4.008 7.908 10.275 7.625 6.45-0.292 7.908-2.525 7.592-4.292-0.308-1.692-4.733-1.692-1.8-4.683 1.842-1.875 4.817-1.542 6.767-2.45 1.083-0.508 1.567-3.558-2.567-5.8zM6.258 16.075c-0.133 0.792-0.892 1.317-1.683 1.183s-1.317-0.892-1.183-1.683c0.133-0.792 0.892-1.317 1.683-1.183 0.792 0.142 1.317 0.9 1.183 1.683zM6.317 10.567c-0.142 0.817-0.925 1.367-1.742 1.225s-1.367-0.925-1.225-1.742c0.142-0.817 0.925-1.367 1.742-1.225s1.367 0.925 1.225 1.742zM10.667 6.825c-0.133 0.75-0.842 1.25-1.592 1.125-0.75-0.133-1.25-0.842-1.125-1.592 0.133-0.75 0.842-1.25 1.592-1.125 0.75 0.133 1.25 0.842 1.125 1.592zM15.225 5.342c-0.1 0.567-0.642 0.95-1.208 0.85s-0.95-0.642-0.85-1.208c0.1-0.567 0.642-0.95 1.208-0.85s0.95 0.642 0.85 1.208z"></path>
</svg>
