<svg xmlns="http://www.w3.org/2000/svg" viewBox="0 0 1024 1024"><path d="M873.6 206.933c-172.8-93.511-358.756-113.778-568.533-30.578C140.8 241.422 4.978 449.777 8.889 616.533c4.622 197.333 171.022 337.422 438.4 325.333 275.2-12.444 337.422-107.733 323.911-183.111-13.156-72.178-201.956-72.178-76.8-199.822 78.578-80 205.511-65.778 288.711-104.533 46.222-21.689 66.844-151.822-109.511-247.467zM267.022 707.2c-5.689 33.778-38.044 56.178-71.822 50.489s-56.178-38.044-50.489-71.822c5.689-33.778 38.044-56.178 71.822-50.489 33.778 6.044 56.178 38.4 50.489 71.822zm2.489-235.023c-6.044 34.844-39.467 58.311-74.311 52.267s-58.311-39.467-52.267-74.311c6.044-34.844 39.467-58.311 74.311-52.267s58.311 39.467 52.267 74.311zm185.6-159.644c-5.689 32-35.911 53.333-67.911 48-32-5.689-53.333-35.911-48-67.911 5.689-32 35.911-53.333 67.911-48 32 5.689 53.333 35.911 48 67.911zM649.6 249.244c-4.267 24.178-27.378 40.533-51.556 36.267s-40.533-27.378-36.267-51.556c4.267-24.178 27.378-40.533 51.556-36.267s40.533 27.378 36.267 51.556z"/></svg>