<!-- Generated by IcoMoon.io -->
<svg version="1.1" xmlns="http://www.w3.org/2000/svg" width="24" height="24" viewBox="0 0 24 24">
<title>party</title>
<path d="M6.323 8.794l0.333 1.209c0.286 0.023 0.577 0.042 0.863 0.056l-0.314-1.148 2.681-0.778 0.745 1.898c0.286-0.019 0.567-0.042 0.853-0.070l-0.877-2.241c0.609-0.206 1.214-0.431 1.809-0.68 0.038-0.014 0.080-0.033 0.117-0.052l1.247 2.639c0.277-0.052 0.553-0.108 0.825-0.169l-1.313-2.78 2.536-1.214 1.603 3.197c0.263-0.089 0.52-0.183 0.778-0.281l-1.725-3.445c0.769-0.478 1.509-0.994 2.222-1.547l-0.502-0.647c-1.861 1.434-3.914 2.625-6.103 3.534-2.714 1.13-5.564 1.805-8.47 2.011l0.056 0.816c0.881-0.056 1.763-0.164 2.634-0.309z"></path>
<path d="M20.944 9.98c0.403-0.188 0.806-0.384 1.2-0.591l-0.567-1.088c-3.783 1.978-8.053 3.019-12.347 3.019-2.92 0-5.789-0.469-8.527-1.392l-0.394 1.163c0.82 0.277 1.655 0.516 2.494 0.712l-0.895 6.619 2.93-1.941 2.306 2.648 0.895-6.609c0.394 0.019 0.792 0.023 1.191 0.023 0.080 0 0.155 0 0.234 0l0.638 6.727 2.414-2.555 2.85 2.053-0.647-6.764c0.417-0.084 0.83-0.173 1.237-0.277l2.166 6.394 1.762-3.038 3.244 1.345-2.184-6.45z"></path>
</svg>
