<!-- Generated by IcoMoon.io -->
<svg version="1.1" xmlns="http://www.w3.org/2000/svg" width="24" height="24" viewBox="0 0 24 24">
<title>pause</title>
<path d="M10.076 17.925c0 0.846-0.692 1.462-1.539 1.462h-0.769c-0.846 0-1.539-0.692-1.539-1.462v-11.926c0-0.846 0.692-1.462 1.539-1.462h0.769c0.846 0 1.539 0.692 1.539 1.462v11.926z"></path>
<path d="M17.925 17.925c0 0.846-0.692 1.462-1.539 1.462h-0.769c-0.846 0-1.539-0.692-1.539-1.462v-11.926c0-0.846 0.692-1.462 1.539-1.462h0.769c0.846 0 1.539 0.692 1.539 1.462v11.926z"></path>
</svg>
