<!-- Generated by IcoMoon.io -->
<svg version="1.1" xmlns="http://www.w3.org/2000/svg" width="24" height="24" viewBox="0 0 24 24">
<title>pdf-text</title>
<path d="M10.7 14.8v0h1.5c1.6 0 2.9-1.3 2.9-2.9s-1.3-2.9-2.9-2.9h-1.5c-0.3 0-0.6 0.2-0.6 0.6v4.7c0 0.2 0.1 0.3 0.2 0.4s0.3 0.1 0.4 0.1zM11.3 10.1h0.9c1 0 1.8 0.8 1.8 1.8s-0.8 1.8-1.8 1.8h-0.9v-3.6z"></path>
<path d="M16.7 14.8c0.2 0 0.3-0.1 0.4-0.2s0.2-0.2 0.2-0.4v-1.8h1.2c0.3 0 0.6-0.2 0.6-0.6 0-0.3-0.2-0.6-0.6-0.6h-1.2v-1.2h2c0.3 0 0.6-0.2 0.6-0.6 0-0.3-0.2-0.6-0.6-0.6h-2.6c-0.3 0-0.6 0.2-0.6 0.6v4.7c0 0.2 0 0.3 0.1 0.5s0.3 0.2 0.5 0.2z"></path>
<path d="M5.4 14.8c0.2 0 0.3-0.1 0.4-0.2s0.2-0.2 0.2-0.4v-1.2h1.2c1.1 0 2.1-0.9 2.1-2.1 0-1.1-0.9-2.1-2.1-2.1h-1.8c-0.3 0-0.6 0.2-0.6 0.6v4.7c0 0.2 0.1 0.4 0.2 0.5 0.1 0.2 0.2 0.2 0.4 0.2zM6 10.1h1.2c0.2 0 0.5 0.1 0.7 0.2s0.2 0.4 0.2 0.7-0.1 0.5-0.2 0.6-0.4 0.2-0.7 0.2h-1.2c0 0.1 0-1.7 0-1.7z"></path>
<path d="M0.6 5.9v11.8h22.8v-11.8c0 0-22.8 0-22.8 0zM22.4 16.7h-20.8v-9.8h20.9v9.8z"></path>
</svg>
