<svg xmlns="http://www.w3.org/2000/svg" viewBox="0 0 1024 1024"><path d="M456.533 652.8h64c68.267 0 123.733-55.467 123.733-123.733s-55.467-123.733-123.733-123.733h-64c-12.8 0-25.6 8.533-25.6 25.6v200.533c0 8.533 4.267 12.8 8.533 17.067s12.8 4.267 17.067 4.267zm25.6-200.534h38.4c42.667 0 76.8 34.133 76.8 76.8s-34.133 76.8-76.8 76.8h-38.4v-153.6zm230.4 200.534c8.533 0 12.8-4.267 17.067-8.533s8.533-8.533 8.533-17.067v-76.8h51.2c12.8 0 25.6-8.533 25.6-25.6 0-12.8-8.533-25.6-25.6-25.6h-51.2V448h85.333c12.8 0 25.6-8.533 25.6-25.6 0-12.8-8.533-25.6-25.6-25.6H712.533c-12.8 0-25.6 8.533-25.6 25.6v200.533c0 8.533 0 12.8 4.267 21.333s12.8 8.533 21.333 8.533zm-482.133 0c8.533 0 12.8-4.267 17.067-8.533S256 635.734 256 627.2V576h51.2c46.933 0 89.6-38.4 89.6-89.6 0-46.933-38.4-89.6-89.6-89.6h-76.8c-12.8 0-25.6 8.533-25.6 25.6v200.533c0 8.533 4.267 17.067 8.533 21.333 4.267 8.533 8.533 8.533 17.067 8.533zM256 452.266h51.2c8.533 0 21.333 4.267 29.867 8.533s8.533 17.067 8.533 29.867-4.267 21.333-8.533 25.6-17.067 8.533-29.867 8.533H256v-72.533zm-230.4-179.2v503.467h972.8V273.066H25.6zm930.133 460.8H68.266V315.733h891.733v418.133z"/></svg>