<!-- Generated by IcoMoon.io -->
<svg version="1.1" xmlns="http://www.w3.org/2000/svg" width="24" height="24" viewBox="0 0 24 24">
<title>pdf</title>
<path d="M3.074 5.558c-1.242 1.785-2.018 4.036-2.018 6.442s0.776 4.657 2.018 6.442v-12.884z"></path>
<path d="M12.388 12.931c0 0-0.078-0.078-0.078-0.155-0.543-0.776-0.776-1.397-0.854-1.397 0-0.078-0.078-0.155-0.078-0.155s0 0 0 0.078-0.078 0.233-0.155 0.466c-0.388 1.009-0.776 1.863-0.776 1.863s-0.233 0.388-0.31 0.621c-0.233 0.543-0.543 1.009-0.776 1.397 1.319-0.543 2.872-1.009 4.424-1.242-0.233-0.155-0.388-0.31-0.621-0.466-0.233-0.31-0.543-0.621-0.776-1.009z"></path>
<path d="M16.191 3.54l4.734 4.734v10.245c1.319-1.863 2.018-4.036 2.018-6.442 0-6.131-4.89-11.176-10.944-11.176-2.716 0-5.2 1.009-7.063 2.639 0 0 11.254 0 11.254 0z"></path>
<path d="M19.684 9.361h-4.579v-4.579h-10.788v15.212c1.94 2.018 4.657 3.182 7.684 3.182s5.666-1.242 7.684-3.182v-10.633zM18.908 15.26v0.078c-0.078 0.233-0.233 0.466-0.931 0.466-0.854 0-2.173-0.388-3.337-1.009-1.94 0.233-4.036 0.621-5.511 1.164-1.397 2.406-2.484 3.57-3.26 3.57-0.155 0-0.233 0-0.31-0.078l-0.388-0.155c-0.078-0.155-0.155-0.31-0.078-0.466 0.155-0.621 0.854-1.63 2.561-2.484l0.155 0.233c-1.242 0.854-2.096 2.018-2.173 2.484 0.854-0.233 2.173-2.018 3.803-5.355 0 0 0-0.078 0.078-0.155 0-0.078 0.078-0.078 0.078-0.155l0.078-0.155c0.078-0.078 0.078-0.233 0.233-0.466 0.155-0.31 0.31-0.699 0.543-1.319v0l0.078-0.155c0.155-0.388 0.31-0.776 0.388-1.164-0.466-1.475-0.543-3.027-0.31-3.958 0.078-0.388 0.31-0.466 0.466-0.466h0.233c0.078 0 0.31 0 0.466 0.155s0.155 0.466 0.078 0.854h-0.233c-0.078-0.388-0.155-0.543-0.31-0.699 0 0.078-0.078 0.155-0.155 0.233-0.155 0.466-0.078 1.397 0.078 2.406 0.078-0.388 0.155-0.776 0.155-1.087 0.078-0.31 0.078-0.543 0.155-0.699h0.233v0.388c0 0.854 0 1.708-0.233 2.716 0.078 0.31 0.233 0.543 0.31 0.854v0l0.078 0.155c0.155 0.388 0.621 1.164 0.621 1.164 0.233 0.388 0.621 0.776 1.009 1.164 0.388 0.31 0.776 0.543 1.164 0.776 0.621-0.078 1.164-0.078 1.63-0.078 0.854 0 2.018 0.078 2.328 0.621 0.233 0.155 0.31 0.31 0.233 0.621v0 0z"></path>
<path d="M18.597 15.027c-0.078-0.078-0.466-0.388-2.018-0.388-0.155 0-0.31 0-0.543 0 0.854 0.388 1.708 0.543 2.251 0.543 0.155 0 0.31 0 0.388-0.078v0h-0.078c0 0 0 0 0-0.078z"></path>
</svg>
