<svg xmlns="http://www.w3.org/2000/svg" viewBox="0 0 1024 1024"><path d="M131.176 258.477c-52.984 76.164-86.1 172.2-86.1 274.856s33.116 198.692 86.1 274.856V258.477zm397.382 314.594s-3.312-3.312-3.312-6.624c-23.18-33.116-33.116-59.608-36.426-59.608 0-3.312-3.312-6.624-3.312-6.624v3.312c0 3.312-3.312 9.934-6.624 19.87-16.558 43.05-33.116 79.476-33.116 79.476s-9.934 16.558-13.246 26.492c-9.934 23.18-23.18 43.05-33.116 59.608 56.296-23.18 122.526-43.05 188.756-52.984-9.934-6.624-16.558-13.246-26.492-19.87-9.934-13.246-23.18-26.492-33.116-43.05zm162.264-400.694l202.002 202.002v437.12c56.296-79.476 86.1-172.2 86.1-274.856 0-261.61-208.626-476.858-466.924-476.858-115.904 0-221.872 43.05-301.348 112.592h480.17zM839.84 420.741H644.46v-195.38H184.158v649.058c82.788 86.1 198.692 135.772 327.84 135.772s241.74-52.984 327.84-135.772V420.741zm-33.114 251.676v3.312c-3.312 9.934-9.934 19.87-39.738 19.87-36.426 0-92.722-16.558-142.396-43.05-82.788 9.934-172.2 26.492-235.118 49.672-59.608 102.658-105.968 152.33-139.084 152.33-6.624 0-9.934 0-13.246-3.312l-16.558-6.624c-3.312-6.624-6.624-13.246-3.312-19.87 6.624-26.492 36.426-69.542 109.28-105.968l6.624 9.934c-52.984 36.426-89.412 86.1-92.722 105.968 36.426-9.934 92.722-86.1 162.264-228.494 0 0 0-3.312 3.312-6.624 0-3.312 3.312-3.312 3.312-6.624l3.312-6.624c3.312-3.312 3.312-9.934 9.934-19.87 6.624-13.246 13.246-29.804 23.18-56.296l3.312-6.624c6.624-16.558 13.246-33.116 16.558-49.672-19.87-62.918-23.18-129.15-13.246-168.888 3.312-16.558 13.246-19.87 19.87-19.87h9.934c3.312 0 13.246 0 19.87 6.624s6.624 19.87 3.312 36.426h-9.934c-3.312-16.558-6.624-23.18-13.246-29.804 0 3.312-3.312 6.624-6.624 9.934-6.624 19.87-3.312 59.608 3.312 102.658 3.312-16.558 6.624-33.116 6.624-46.362 3.312-13.246 3.312-23.18 6.624-29.804h9.934v16.558c0 36.426 0 72.854-9.934 115.904 3.312 13.246 9.934 23.18 13.246 36.426l3.312 6.624c6.624 16.558 26.492 49.672 26.492 49.672 9.934 16.558 26.492 33.116 43.05 49.672 16.558 13.246 33.116 23.18 49.672 33.116 26.492-3.312 49.672-3.312 69.542-3.312 36.426 0 86.1 3.312 99.346 26.492 9.934 6.624 13.246 13.246 9.934 26.492zm-13.246-9.934c-3.312-3.312-19.87-16.558-86.1-16.558H684.2c36.426 16.558 72.854 23.18 96.034 23.18 6.624 0 13.246 0 16.558-3.312h-3.312v-3.312z"/></svg>