<svg xmlns="http://www.w3.org/2000/svg" viewBox="0 0 1024 1024"><path d="M664.669 686.002l-52.604-158.81-303.454-303.454-106.208 106.208L505.857 633.4zM61.722 83.055c-29.343 29.343-29.343 76.868 0 106.208l78.166 78.166 106.208-106.208-78.166-78.166c-29.343-29.343-76.868-29.343-106.208 0zM925.26 238.147H506.744l59.038 59.038h359.481v649.41h-649.41V587.114l-59.038-59.038v418.516c0 32.588 26.447 59.038 59.038 59.038h649.41c32.588 0 59.038-26.447 59.038-59.038v-649.41c0-32.588-26.447-59.038-59.038-59.038z"/></svg>