<!-- Generated by IcoMoon.io -->
<svg version="1.1" xmlns="http://www.w3.org/2000/svg" width="24" height="24" viewBox="0 0 24 24">
<title>pencil-edit</title>
<path d="M15.578 15.578l-1.233-3.722-7.112-7.112-2.489 2.489 7.112 7.112zM1.447 1.447c-0.688 0.688-0.688 1.802 0 2.489l1.832 1.832 2.489-2.489-1.832-1.832c-0.688-0.688-1.802-0.688-2.489 0zM21.686 5.082h-9.809l1.384 1.384h8.425v15.221h-15.221v-8.425l-1.384-1.384v9.809c0 0.764 0.62 1.384 1.384 1.384h15.221c0.764 0 1.384-0.62 1.384-1.384v-15.221c0-0.764-0.62-1.384-1.384-1.384z"></path>
</svg>
