<!-- Generated by IcoMoon.io -->
<svg version="1.1" xmlns="http://www.w3.org/2000/svg" width="24" height="24" viewBox="0 0 24 24">
<title>people</title>
<path d="M10.545 3.998c0-1.946-1.691-3.637-3.637-3.637s-3.637 1.691-3.637 3.637 1.691 3.637 3.637 3.637 3.637-1.691 3.637-3.637zM13.091 17.819c0-5.819-3.021-8.729-6.365-8.729s-6.365 2.91-6.365 8.729c0 3.987 12.73 3.987 12.73 0zM17.456 10.466c1.946 0 3.637-1.691 3.637-3.637s-1.691-3.637-3.637-3.637-3.637 1.691-3.637 3.637 1.691 3.637 3.637 3.637zM17.274 11.92c-1.005 0-1.969 0.295-2.842 0.823 0.527 1.421 0.841 3.103 0.841 5.078 0 1.96-1.307 3.485-3.548 4.358 2.78 2.355 11.914 1.853 11.914-1.53 0-5.819-3.021-8.729-6.365-8.729v0z"></path>
</svg>
