<svg xmlns="http://www.w3.org/2000/svg" viewBox="0 0 1024 1024"><path d="M449.926 191.925c0-83.024-72.162-155.186-155.186-155.186s-155.186 72.162-155.186 155.186 72.162 155.186 155.186 155.186 155.186-72.162 155.186-155.186zm108.63 589.704c0-248.296-128.9-372.444-271.574-372.444S15.408 533.333 15.408 781.629c0 170.122 543.148 170.122 543.148 0zm186.222-313.764c83.024 0 155.186-72.162 155.186-155.186s-72.162-155.186-155.186-155.186-155.186 72.162-155.186 155.186 72.162 155.186 155.186 155.186zm-7.76 62.074c-42.87 0-83.994 12.608-121.238 35.11 22.502 60.62 35.886 132.392 35.886 216.678 0 83.606-55.77 148.686-151.402 185.932 118.62 100.482 508.328 79.048 508.328-65.274 0-248.296-128.9-372.444-271.574-372.444z"/></svg>