<!-- Generated by IcoMoon.io -->
<svg version="1.1" xmlns="http://www.w3.org/2000/svg" width="24" height="24" viewBox="0 0 24 24">
<title>personal-care</title>
<path d="M12.703 6.197h1.369c0.389 0 0.703-0.309 0.703-0.689s-0.314-0.689-0.703-0.689h-1.369v-0.586h1.369c0.389 0 0.703-0.309 0.703-0.689s-0.314-0.689-0.703-0.689h-1.369v-0.591h1.369c0.389 0 0.703-0.309 0.703-0.689s-0.314-0.689-0.703-0.689h-1.369v-0.014c0-0.38-0.314-0.689-0.703-0.689s-0.703 0.309-0.703 0.689v0.019h-1.369c-0.389 0-0.703 0.309-0.703 0.689s0.314 0.689 0.703 0.689h1.369v0.591h-1.369c-0.389 0-0.703 0.309-0.703 0.689s0.314 0.689 0.703 0.689h1.369v0.591h-1.369c-0.389 0-0.703 0.309-0.703 0.689s0.314 0.689 0.703 0.689h1.369v4.275c-0.563 0.042-0.881 0.267-0.984 0.544s-0.759 6.38-0.867 7.678l-0.216 2.616c-0.052 0.609 0.164 1.214 0.586 1.664s1.022 0.708 1.645 0.708h1.069c0.623 0 1.223-0.258 1.645-0.708s0.638-1.055 0.586-1.664l-0.216-2.616c-0.108-1.294-0.863-7.359-0.989-7.678s-0.295-0.502-0.858-0.544l0.005-4.284z"></path>
</svg>
