<!-- Generated by IcoMoon.io -->
<svg version="1.1" xmlns="http://www.w3.org/2000/svg" width="24" height="24" viewBox="0 0 24 24">
<title>pharmacy</title>
<path d="M23.3 7.4h-22.6c0 0.1 0 0.2 0 0.2 0 5.5 1.8 10.2 5.9 12.5h10.8c4.1-2.3 5.9-7 5.9-12.5 0 0 0-0.1 0-0.2zM15.6 12.9v1.8h-2.4v2.6h-2.4v-2.6h-2.4v-2.2h2.4v-2.5h2.4v2.6h2.4v0.3z"></path>
<path d="M18 22.5v0c0 0.6-0.3 1-0.7 1h-10.6c-0.4 0-0.7-0.5-0.7-1v0c0-0.6 0.3-1 0.7-1h10.5c0.5 0 0.8 0.4 0.8 1z"></path>
<path d="M17.5 2.8c-0.2-0.5-0.2-1.2 0.1-1.7v0c0.5-1 1.8-1.4 2.8-0.8v0c1 0.5 1.4 1.8 0.8 2.8v0c-0.3 0.5-0.8 0.9-1.4 1l-1.6 2.8h-3l2.3-4.1z"></path>
</svg>
