<svg xmlns="http://www.w3.org/2000/svg" viewBox="0 0 1024 1024"><path d="M994.133 337.066H29.866v8.533c0 234.667 76.8 435.2 251.733 533.333h460.8c174.933-98.133 251.733-298.667 251.733-533.333v-8.533zM665.6 571.733v76.8H563.2v110.933H460.8V648.533H358.4v-93.867h102.4V447.999h102.4v110.933h102.4v12.8zm102.4 409.6c0 25.6-12.8 42.667-29.867 42.667H285.866c-17.067 0-29.867-21.333-29.867-42.667 0-25.6 12.8-42.667 29.867-42.667h448c21.333 0 34.133 17.067 34.133 42.667zM746.667 140.8c-8.533-21.333-8.533-51.2 4.267-72.533 21.333-42.667 76.8-59.733 119.467-34.133 42.667 21.333 59.733 76.8 34.133 119.467-12.8 21.333-34.133 38.4-59.733 42.667l-68.267 119.467h-128l98.133-174.933z"/></svg>