<!-- Generated by IcoMoon.io -->
<svg version="1.1" xmlns="http://www.w3.org/2000/svg" width="24" height="24" viewBox="0 0 24 24">
<title>phone</title>
<path d="M16.621 17.452c0 0-1.805-2.899-3.089-2.436-1.391 0.5-2.232 1.358-3.12 0.756-0.5-0.34-1.213-1.105-1.921-2.234l-0.001 0.002c-0.603-1.012-1.096-2.090-1.189-2.677-0.172-1.060 0.963-1.456 2.006-2.505 0.963-0.967-0.897-3.832-0.897-3.832s-1.056-2.061-2.288-1.723c-1.234 0.337-2.677 0.733-2.677 0.733s-3.032 0.906-0.47 6.398c1.242 2.66 1.908 3.999 2.726 5.243l0.005-0.002c0.651 1.085 1.845 2.669 3.715 4.905 3.888 4.65 5.991 2.286 5.991 2.286s0.969-1.139 1.799-2.112c0.829-0.971-0.591-2.802-0.591-2.802z"></path>
<path d="M15.459 13.085c0.54-2.63-1.131-5.202-3.736-5.738l0.407-1.976c3.685 0.757 6.050 4.392 5.285 8.115l-1.955-0.402z"></path>
<path d="M12.521 12.496c0.222-1.086-0.417-1.881-1.348-2.072l0.313-1.555c1.781 0.367 2.926 2.123 2.555 3.924l-1.52-0.297z"></path>
<path d="M19.2 13.854c0.966-4.7-2.017-9.285-6.668-10.243l0.437-2.126c5.813 1.195 9.545 6.926 8.336 12.803l-2.106-0.434z"></path>
</svg>
