<svg xmlns="http://www.w3.org/2000/svg" viewBox="0 0 1024 1024"><path d="M709.148 765.953S632.12 642.257 577.364 662.021c-59.368 21.312-95.244 57.94-133.136 32.268-21.344-14.488-51.748-47.148-81.944-95.32l-.044.076c-25.716-43.18-46.744-89.172-50.712-114.212-7.336-45.24 41.108-62.104 85.596-106.864 41.108-41.272-38.252-163.496-38.252-163.496s-45.076-87.94-97.62-73.528c-52.664 14.4-114.212 31.276-114.212 31.276s-129.364 38.656-20.036 272.988c53.012 113.492 81.388 170.604 116.316 223.692l.196-.076c27.776 46.308 78.728 113.896 158.492 209.292 165.872 198.38 255.6 97.544 255.6 97.544s41.348-48.608 76.744-90.12c35.364-41.424-25.204-119.564-25.204-119.564zM659.58 579.641c23.056-112.228-48.26-221.948-159.408-244.808l17.344-84.288c157.228 32.3 258.14 187.392 225.48 346.244l-83.416-17.148zm-125.352-25.16c9.484-46.352-17.812-80.244-57.536-88.42l13.376-66.356c75.992 15.676 124.84 90.6 109.012 167.42l-64.84-12.656zm284.968 57.94c41.228-200.516-86.076-396.16-284.488-437.04l18.652-90.72c248.024 50.996 407.236 295.52 355.684 546.28l-89.848-18.532z"/></svg>