<!-- Generated by IcoMoon.io -->
<svg version="1.1" xmlns="http://www.w3.org/2000/svg" width="24" height="24" viewBox="0 0 24 24">
<title>pie-chart</title>
<path d="M12 23.813c3.809 0 7.187-1.811 9.346-4.607l-9.346-7.205v-11.813c-6.525 0-11.813 5.288-11.813 11.813s5.288 11.813 11.813 11.813zM10.523 1.768v10.232c0 0.457 0.212 0.891 0.574 1.17l8.093 6.241c-1.917 1.873-4.469 2.926-7.191 2.926-5.699 0-10.336-4.637-10.336-10.336 0-5.198 3.858-9.512 8.859-10.232zM14.030 0.386v10.564l8.435 6.502c0.856-1.631 1.347-3.481 1.347-5.452 0-5.83-4.229-10.65-9.782-11.614v0z"></path>
</svg>
