<svg xmlns="http://www.w3.org/2000/svg" viewBox="0 0 1024 1024"><path d="M512 1037.339c162.52 0 306.636-77.273 398.773-196.583L512 533.333V29.327c-278.384 0-504.006 225.622-504.006 504.006S233.616 1037.339 512 1037.339zM449 96.76v436.573c0 19.491 9.056 37.997 24.511 49.908l345.322 266.273C737.028 929.445 628.16 974.336 512 974.336c-243.144 0-441.003-197.859-441.003-441.003C70.997 311.55 235.586 127.472 449 96.76zm149.625-58.964v450.748l359.892 277.4c36.52-69.595 57.489-148.542 57.489-232.611 0-248.755-180.439-454.392-417.378-495.537z"/></svg>