<svg xmlns="http://www.w3.org/2000/svg" viewBox="0 0 1024 1024"><path d="M578.324 755.707c-62.42 0-117.043-31.21-136.552-70.228 0 0-31.21 128.744-39.018 152.157-23.413 89.726-97.534 179.463-101.438 183.367s-11.701 3.904-11.701-3.904c0-11.701-19.509-120.936 0-214.577 11.701-42.911 74.121-308.207 74.121-308.207s-15.605-35.114-15.605-89.726c0-85.833 46.815-144.349 109.235-144.349 50.719 0 78.025 35.114 78.025 85.833s-31.21 128.744-46.815 198.972c-11.701 62.42 27.306 109.235 89.726 109.235 105.331 0 179.463-136.552 179.463-300.399 0-120.936-81.929-214.577-234.075-214.577-179.463 0-284.794 128.744-284.794 269.189 0 46.815 15.605 85.833 35.114 109.235 11.701 11.701 11.701 15.605 7.808 31.21-3.904 11.701-7.808 35.114-11.701 42.911-3.904 19.509-15.605 23.413-27.306 19.509-78.025-31.21-113.139-117.043-113.139-214.577-3.904-156.05 132.648-351.118 397.933-351.118 214.577 0 355.022 152.157 355.022 319.908-3.904 222.374-124.84 390.136-304.303 390.136z"/></svg>