<!-- Generated by IcoMoon.io -->
<svg version="1.1" xmlns="http://www.w3.org/2000/svg" width="24" height="24" viewBox="0 0 24 24">
<title>pinterest</title>
<path d="M13.554 17.212c-1.463 0-2.743-0.731-3.2-1.646 0 0-0.731 3.017-0.914 3.566-0.549 2.103-2.286 4.206-2.377 4.298s-0.274 0.091-0.274-0.091c0-0.274-0.457-2.834 0-5.029 0.274-1.006 1.737-7.224 1.737-7.224s-0.366-0.823-0.366-2.103c0-2.012 1.097-3.383 2.56-3.383 1.189 0 1.829 0.823 1.829 2.012s-0.731 3.017-1.097 4.663c-0.274 1.463 0.64 2.56 2.103 2.56 2.469 0 4.206-3.2 4.206-7.041 0-2.834-1.92-5.029-5.486-5.029-4.206 0-6.675 3.017-6.675 6.309 0 1.097 0.366 2.012 0.823 2.56 0.274 0.274 0.274 0.366 0.183 0.731-0.091 0.274-0.183 0.823-0.274 1.006-0.091 0.457-0.366 0.549-0.64 0.457-1.829-0.731-2.652-2.743-2.652-5.029-0.091-3.657 3.109-8.229 9.327-8.229 5.029 0 8.321 3.566 8.321 7.498-0.092 5.212-2.926 9.144-7.132 9.144z"></path>
</svg>
