<svg xmlns="http://www.w3.org/2000/svg" viewBox="0 0 1024 1024"><path d="M988 212.933c0-88.4-73.8-160-165-160s-165 71.6-165 160c0 124.4 165 302 165 302s165-177.6 165-302zm-231 5c0-36.4 29.6-66 66-66s66 29.6 66 66-29.6 66-66 66-66-29.4-66-66zm-264 261.4c0-126.2-103.4-228.4-231-228.4s-231 102.4-231 228.4c0 177.6 231 431.6 231 431.6s231-253.8 231-431.6zm-330 2.6c0-54.6 44.4-99 99-99s99 44.4 99 99-44.4 99-99 99-99-44.4-99-99zm-33 495v33h264v-33h-97.4l548.2-396H922v-33H724v33h64.4l-548.2 396z"/></svg>