<!-- Generated by IcoMoon.io -->
<svg version="1.1" xmlns="http://www.w3.org/2000/svg" width="24" height="24" viewBox="0 0 24 24">
<title>places</title>
<path d="M23.156 4.491c0-2.072-1.73-3.75-3.867-3.75s-3.867 1.678-3.867 3.75c0 2.916 3.867 7.078 3.867 7.078s3.867-4.163 3.867-7.078zM17.742 4.608c0-0.853 0.694-1.547 1.547-1.547s1.547 0.694 1.547 1.547-0.694 1.547-1.547 1.547c-0.853 0-1.547-0.689-1.547-1.547z"></path>
<path d="M11.555 10.734c0-2.958-2.423-5.353-5.414-5.353s-5.414 2.4-5.414 5.353c0 4.163 5.414 10.116 5.414 10.116s5.414-5.948 5.414-10.116zM3.82 10.795c0-1.28 1.041-2.32 2.32-2.32s2.32 1.041 2.32 2.32c0 1.28-1.041 2.32-2.32 2.32s-2.32-1.041-2.32-2.32z"></path>
<path d="M3.047 22.397v0.773h6.188v-0.773h-2.283l12.848-9.281h1.809v-0.773h-4.641v0.773h1.509l-12.848 9.281z"></path>
</svg>
