<svg xmlns="http://www.w3.org/2000/svg" viewBox="0 0 1024 1024"><path d="M543.467 92.801c-260.669 0-471.998 211.329-471.998 471.998s211.329 471.998 471.998 471.998 471.998-211.329 471.998-471.998S804.136 92.801 543.467 92.801zm251.732 503.465H574.933v220.266c0 17.37-14.097 31.467-31.467 31.467s-31.467-14.097-31.467-31.467V596.266H291.733c-17.37 0-31.467-14.097-31.467-31.467s14.097-31.467 31.467-31.467h220.266V313.066c0-17.37 14.097-31.467 31.467-31.467s31.467 14.097 31.467 31.467v220.266h220.266c17.37 0 31.467 14.097 31.467 31.467s-14.097 31.467-31.467 31.467z"/></svg>