<!-- Generated by IcoMoon.io -->
<svg version="1.1" xmlns="http://www.w3.org/2000/svg" width="24" height="24" viewBox="0 0 24 24">
<title>plus-fill</title>
<path d="M12.738 1.675c-6.109 0-11.062 4.953-11.062 11.062s4.953 11.062 11.062 11.062 11.062-4.953 11.062-11.062-4.953-11.062-11.062-11.062zM18.637 13.475h-5.162v5.162c0 0.407-0.33 0.738-0.738 0.738s-0.738-0.33-0.738-0.738v-5.162h-5.162c-0.407 0-0.738-0.33-0.738-0.738s0.33-0.738 0.738-0.738h5.162v-5.162c0-0.407 0.33-0.738 0.738-0.738s0.738 0.33 0.738 0.738v5.162h5.162c0.407 0 0.738 0.33 0.738 0.738s-0.33 0.738-0.738 0.738z"></path>
</svg>
