<!-- Generated by IcoMoon.io -->
<svg version="1.1" xmlns="http://www.w3.org/2000/svg" width="24" height="24" viewBox="0 0 24 24">
<title>powerpoint</title>
<path d="M3 5.491c-1.286 1.848-2.009 4.098-2.009 6.509s0.804 4.661 2.089 6.509v-13.018z"></path>
<path d="M16.179 3.402l4.741 4.741v10.366c1.286-1.848 2.089-4.098 2.089-6.509 0-6.188-4.982-11.25-11.009-11.25-2.732 0-5.223 1.045-7.152 2.732 0-0.080 11.33-0.080 11.33-0.080z"></path>
<path d="M9.107 9.188h-0.402v2.973h0.402c1.125 0 2.813 0.161 2.813-1.446 0-1.688-1.688-1.527-2.813-1.527z"></path>
<path d="M19.714 9.268h-4.58v-4.58h-10.848v15.348c2.009 2.009 4.741 3.214 7.714 3.214 3.054 0 5.786-1.205 7.714-3.214v-10.768zM11.196 18.911h-1.205v-1.205h1.205v1.205zM11.196 16.58h-1.205v-1.205h1.205v1.205zM10.071 13.929h-1.446v5.063h-2.089v-11.572h4.098c2.491 0 3.455 1.768 3.455 3.295 0 1.607-0.964 3.214-4.018 3.214zM17.384 18.911h-4.982v-1.205h4.982c0 0 0 1.205 0 1.205zM12.402 16.58v-1.205h4.982v1.205h-4.982z"></path>
</svg>
