<svg xmlns="http://www.w3.org/2000/svg" viewBox="0 0 1024 1024"><path d="M127.998 255.617c-54.856 78.858-85.716 174.858-85.716 277.716s34.286 198.858 89.144 277.716V255.617zm562.288-89.142l202.286 202.286v442.288c54.856-78.858 89.144-174.858 89.144-277.716 0-264.002-212.574-480.004-469.718-480.004-116.572 0-222.858 44.572-305.146 116.572 0-3.428 483.432-3.428 483.432-3.428zM388.57 413.333h-17.144v126.858h17.144c48 0 120 6.856 120-61.716 0-72-72-65.144-120-65.144zm452.576 3.428h-195.43v-195.43h-462.86v654.86c85.716 85.716 202.286 137.144 329.146 137.144 130.286 0 246.858-51.428 329.146-137.144V416.759zm-363.432 411.43h-51.428v-51.428h51.428v51.428zm0-99.428h-51.428v-51.428h51.428v51.428zm-48-113.144h-61.716v216.002h-89.144V337.903h174.858c106.286 0 147.43 75.428 147.43 140.572 0 68.572-41.144 137.144-171.43 137.144zm312.002 212.572H529.142v-51.428h212.574v51.428zm-212.572-99.428v-51.428h212.574v51.428H529.144z"/></svg>