<!-- Generated by IcoMoon.io -->
<svg version="1.1" xmlns="http://www.w3.org/2000/svg" width="24" height="24" viewBox="0 0 24 24">
<title>print</title>
<path d="M21.68 7.852h-1.383v-5.531c0-0.763-0.62-1.383-1.383-1.383h-13.828c-0.763 0-1.383 0.62-1.383 1.383v5.531h-1.383c-0.763 0-1.383 0.62-1.383 1.383v6.914c0 0.763 0.62 1.383 1.383 1.383h1.383v4.148c0 0.763 0.62 1.383 1.383 1.383h13.828c0.763 0 1.383-0.62 1.383-1.383v-4.148h1.383c0.763 0 1.383-0.62 1.383-1.383v-6.914c0-0.763-0.62-1.383-1.383-1.383zM5.086 14.766h13.828v6.914h-13.828v-6.914zM16.148 11.309c0-0.382 0.309-0.691 0.691-0.691s0.691 0.309 0.691 0.691-0.309 0.691-0.691 0.691-0.691-0.309-0.691-0.691zM4.395 12c-0.382 0-0.691-0.309-0.691-0.691s0.309-0.691 0.691-0.691 0.691 0.309 0.691 0.691-0.309 0.691-0.691 0.691zM19.605 12c-0.382 0-0.691-0.309-0.691-0.691s0.309-0.691 0.691-0.691 0.691 0.309 0.691 0.691-0.309 0.691-0.691 0.691zM5.086 2.32h13.828v5.531h-13.828v-5.531zM17.531 16.84c0-0.382-0.309-0.691-0.691-0.691h-9.68c-0.382 0-0.691 0.309-0.691 0.691s0.309 0.691 0.691 0.691h9.68c0.382 0 0.691-0.309 0.691-0.691zM16.84 18.914h-9.68c-0.382 0-0.691 0.309-0.691 0.691s0.309 0.691 0.691 0.691h9.68c0.382 0 0.691-0.309 0.691-0.691s-0.309-0.691-0.691-0.691z"></path>
</svg>
