<svg xmlns="http://www.w3.org/2000/svg" viewBox="0 0 1024 1024"><path d="M672 539.733c-22.4-16-48-25.6-80-25.6-163.2 0-195.2 224-201.6 291.2 0 0 83.2 64 201.6 64s188.8-64 188.8-64c-3.2-22.4-6.4-60.8-16-105.6-12.8-57.6-41.6-124.8-92.8-160zm-76.8-51.2c64 0 118.4-54.4 118.4-118.4s-54.4-118.4-118.4-118.4-118.4 54.4-118.4 118.4 51.2 118.4 118.4 118.4zm243.2-115.2c60.8 0 108.8-48 108.8-108.8s-48-108.8-108.8-108.8-108.8 48-108.8 108.8 48 108.8 108.8 108.8zm0 28.8c-89.6 0-128 64-147.2 105.6 28.8 19.2 92.8 73.6 121.6 227.2h22.4c108.8 0 176-60.8 176-60.8-3.2-60.8-28.8-272-172.8-272zm-22.4 329.6zm-694.4-227.2h275.2c9.6 0 19.2-9.6 19.2-19.2s-9.6-16-19.2-16H121.6c-6.4-22.4-28.8-38.4-51.2-38.4-28.8 0-54.4 25.6-54.4 54.4s25.6 54.4 54.4 54.4c22.4 3.2 41.6-12.8 51.2-35.2zm0-313.6v99.2c0 60.8 41.6 99.2 105.6 99.2h128c9.6 0 16-6.4 16-16s-6.4-16-16-16h-128c-28.8 0-73.6-9.6-73.6-67.2v-99.2c22.4-9.6 38.4-28.8 38.4-54.4 0-28.8-25.6-54.4-54.4-54.4s-54.4 25.6-54.4 54.4c0 25.6 16 44.8 38.4 54.4zm236.8 393.6h-128c-64 0-105.6 38.4-105.6 99.2v99.2c-22.4 6.4-38.4 28.8-38.4 51.2 0 28.8 25.6 54.4 54.4 54.4s51.2-22.4 51.2-51.2c0-25.6-16-44.8-38.4-51.2v-99.2c0-60.8 44.8-67.2 73.6-67.2h128c9.6 0 16-6.4 16-16s-6.4-19.2-12.8-19.2z"/></svg>