<!-- Generated by IcoMoon.io -->
<svg version="1.1" xmlns="http://www.w3.org/2000/svg" width="24" height="24" viewBox="0 0 24 24">
<title>pro-services</title>
<path d="M15.75 12.15c-0.525-0.375-1.125-0.6-1.875-0.6-3.825 0-4.575 5.25-4.725 6.825 0 0 1.95 1.5 4.725 1.5s4.425-1.5 4.425-1.5c-0.075-0.525-0.15-1.425-0.375-2.475-0.3-1.35-0.975-2.925-2.175-3.75z"></path>
<path d="M13.95 10.95c1.5 0 2.775-1.275 2.775-2.775s-1.275-2.775-2.775-2.775c-1.5 0-2.775 1.275-2.775 2.775s1.2 2.775 2.775 2.775z"></path>
<path d="M19.65 8.25c1.425 0 2.55-1.125 2.55-2.55s-1.125-2.55-2.55-2.55-2.55 1.125-2.55 2.55c0 1.425 1.125 2.55 2.55 2.55z"></path>
<path d="M19.65 8.925c-2.1 0-3 1.5-3.45 2.475 0.675 0.45 2.175 1.725 2.85 5.325 0.075 0 0.225 0 0.525 0 2.55 0 4.125-1.425 4.125-1.425-0.075-1.425-0.675-6.375-4.050-6.375z"></path>
<path d="M19.125 16.65v0 0z"></path>
<path d="M2.85 11.325h6.45c0.225 0 0.45-0.225 0.45-0.45s-0.225-0.375-0.45-0.375h-6.45c-0.15-0.525-0.675-0.9-1.2-0.9-0.675 0-1.275 0.6-1.275 1.275s0.6 1.275 1.275 1.275c0.525 0.075 0.975-0.3 1.2-0.825z"></path>
<path d="M2.85 3.975v2.325c0 1.425 0.975 2.325 2.475 2.325h3c0.225 0 0.375-0.15 0.375-0.375s-0.15-0.375-0.375-0.375h-3c-0.675 0-1.725-0.225-1.725-1.575v-2.325c0.525-0.225 0.9-0.675 0.9-1.275 0-0.675-0.6-1.275-1.275-1.275s-1.275 0.6-1.275 1.275c0 0.6 0.375 1.050 0.9 1.275z"></path>
<path d="M8.4 13.2h-3c-1.5 0-2.475 0.9-2.475 2.325v2.325c-0.525 0.15-0.9 0.675-0.9 1.2 0 0.675 0.6 1.275 1.275 1.275s1.2-0.525 1.2-1.2c0-0.6-0.375-1.050-0.9-1.2v-2.325c0-1.425 1.050-1.575 1.725-1.575h3c0.225 0 0.375-0.15 0.375-0.375s-0.15-0.45-0.3-0.45z"></path>
</svg>
