<!-- Generated by IcoMoon.io -->
<svg version="1.1" xmlns="http://www.w3.org/2000/svg" width="24" height="24" viewBox="0 0 24 24">
<title>procurement</title>
<path d="M5.766 18.654c0.090-1.092-0.456-1.734-1.824-2.28-1.002-0.366-1.278-0.636-1.278-1.092 0-0.366 0.276-0.732 1.002-0.732 0.636 0 1.188 0.276 1.188 0.276 0.090 0 0.090 0 0.18 0 0.18 0 0.276-0.090 0.366-0.18l0.18-0.456c0.090-0.18 0-0.366-0.18-0.366-0.456-0.276-1.278-0.456-1.278-0.456s-0.090 0-0.090-0.090v-0.738c0-0.18-0.18-0.366-0.366-0.366h-0.366c-0.18 0-0.366 0.18-0.366 0.366v0.732c0 0.090-0.090 0.090-0.090 0.090-1.002 0.276-1.644 1.002-1.644 1.914 0 1.188 1.002 1.734 2.004 2.1 0.822 0.366 1.188 0.636 1.188 1.188 0 0.546-0.456 0.912-1.188 0.912-0.636 0-1.368-0.366-1.368-0.366-0.090 0-0.090 0-0.18 0-0.18 0-0.276 0.090-0.366 0.276l-0.18 0.456c-0.090 0.18 0 0.366 0.18 0.366 0.456 0.276 1.458 0.366 1.458 0.456 0 0 0.090 0 0.090 0.090v0.732c0 0.18 0.18 0.366 0.366 0.366h0.366c0.18 0 0.366-0.18 0.366-0.366v-0.732c0-0.090 0.090-0.090 0.090-0.090 1.098-0.282 1.74-1.008 1.74-2.010z"></path>
<path d="M15.846 11.544c-3.234 0-5.874 2.454-6.18 5.604l-5.502 5.58c-0.204 0.204-0.204 0.54 0.006 0.744 0.102 0.102 0.234 0.15 0.366 0.15 0.138 0 0.27-0.054 0.372-0.156l4.788-4.854c0.42 3.024 3.006 5.346 6.15 5.346 3.438 0 6.21-2.772 6.21-6.21s-2.772-6.204-6.21-6.204zM18.462 19.8c-0.102 0.102-0.306 0.156-0.462 0.054l-1.794-1.434c-0.102 0.054-0.204 0.102-0.36 0.102-0.408 0-0.768-0.36-0.768-0.768 0-0.306 0.204-0.564 0.462-0.666v-3.9c0-0.156 0.156-0.306 0.306-0.306 0.156 0 0.306 0.156 0.306 0.306v3.846c0.258 0.102 0.462 0.36 0.462 0.666 0 0.054 0 0.102 0 0.156l1.794 1.434c0.156 0.15 0.156 0.36 0.054 0.51z"></path>
<path d="M15.846 17.49c-0.144 0-0.258 0.114-0.258 0.258s0.114 0.258 0.258 0.258c0.144 0 0.258-0.114 0.258-0.258s-0.114-0.258-0.258-0.258z"></path>
<path d="M10.302 2.952c-0.138-0.012-0.216 0.12-0.234 0.252-0.042 0.414-0.288 0.804-0.714 0.9-0.354 0.108-0.834-0.012-1.068-0.378-0.060-0.072-0.192-0.156-0.342-0.036-0.294 0.18-0.594 0.426-0.828 0.678-0.084 0.132-0.096 0.27-0.036 0.342 0.318 0.306 0.336 0.798 0.168 1.128s-0.606 0.564-1.020 0.522c-0.138-0.012-0.282 0.042-0.294 0.18-0.102 0.336-0.138 0.678-0.102 1.026-0.012 0.138 0.12 0.216 0.252 0.234 0.414 0.042 0.738 0.282 0.9 0.714 0.096 0.426-0.012 0.834-0.378 1.068-0.072 0.060-0.156 0.192-0.036 0.342 0.18 0.294 0.432 0.528 0.612 0.822 0.132 0.084 0.27 0.096 0.342 0.036 0.3-0.246 0.798-0.336 1.128-0.168 0.396 0.18 0.564 0.606 0.522 1.020-0.012 0.138 0.042 0.282 0.18 0.294 0.204 0.024 0.342 0.036 0.546 0.054 0.138 0.012 0.342 0.036 0.48 0.048s0.216-0.12 0.234-0.252c0.042-0.414 0.288-0.804 0.714-0.9 0.354-0.108 0.834 0.012 1.068 0.378 0.060 0.072 0.192 0.156 0.342 0.036 0.294-0.18 0.594-0.426 0.828-0.678 0.084-0.132 0.096-0.27 0.036-0.342-0.318-0.306-0.336-0.798-0.168-1.128s0.606-0.564 0.954-0.528l0.072 0.006c0.138 0.012 0.282-0.042 0.294-0.18 0.036-0.342 0.066-0.69 0.102-1.026 0.006-0.138-0.12-0.216-0.258-0.234-0.414-0.042-0.726-0.348-0.9-0.714-0.096-0.426 0.012-0.834 0.378-1.068 0.072-0.060 0.156-0.192 0.036-0.342-0.18-0.294-0.432-0.528-0.612-0.822-0.060-0.072-0.27-0.096-0.342-0.036-0.3 0.246-0.798 0.336-1.128 0.168-0.396-0.18-0.564-0.606-0.522-1.020 0.012-0.138-0.042-0.282-0.18-0.294-0.33-0.102-0.672-0.138-1.026-0.102zM12.396 7.728c-0.114 1.164-1.098 2.040-2.334 1.92-1.164-0.114-2.034-1.17-1.92-2.334s1.17-2.034 2.334-1.92c1.17 0.108 2.034 1.164 1.92 2.334z"></path>
<path d="M8.76 13.872c0.024 0.006 0.054 0.006 0.078 0.006 0.006 0 0.006 0 0.006 0 0.276 0 0.516-0.204 0.558-0.486 0.048-0.318-0.168-0.606-0.474-0.654-2.532-0.402-4.41-2.676-4.374-5.292 0.036-2.562 1.836-4.704 4.296-5.13l0.072 1.11 2.136-1.902-2.346-1.476 0.072 1.116c-1.446 0.222-2.772 0.966-3.75 2.082-1.014 1.158-1.578 2.64-1.602 4.188-0.024 1.56 0.51 3.066 1.5 4.254 0.978 1.17 2.34 1.95 3.828 2.184z"></path>
<path d="M16.326 10.206c0.138 0 0.282-0.054 0.384-0.162l4.8-4.8c0.216-0.216 0.216-0.558 0-0.774s-0.558-0.216-0.774 0l-4.8 4.8c-0.216 0.216-0.216 0.558 0 0.774 0.108 0.108 0.246 0.162 0.39 0.162z"></path>
</svg>
