<svg xmlns="http://www.w3.org/2000/svg" viewBox="0 0 1024 1024"><path d="M962.048 176.981H749.056c-27.648 0-50.176 22.528-50.176 50.176v75.776H402.176V182.869c0-27.648-22.528-50.176-50.176-50.176H76.544c-27.648 0-50.176 22.528-50.176 50.176v275.712c0 27.648 22.528 50.176 50.176 50.176h105.984l128 204.032c-.768 3.328-1.024 6.656-1.024 10.24v212.992c0 27.648 22.528 50.176 50.176 50.176h212.992c27.648 0 50.176-22.528 50.176-50.176V723.029c0-27.648-22.528-50.176-50.176-50.176H359.68c-2.816 0-5.376.256-7.936.768L248.32 508.757h103.936c27.648 0 50.176-22.528 50.176-50.176v-99.84H698.88v81.408c0 27.648 22.528 50.176 50.176 50.176h212.992c27.648 0 50.176-22.528 50.176-50.176V227.157c-.256-27.648-22.784-50.176-50.176-50.176z"/></svg>