<!-- Generated by IcoMoon.io -->
<svg version="1.1" xmlns="http://www.w3.org/2000/svg" width="24" height="24" viewBox="0 0 24 24">
<title>project</title>
<path d="M22.548 3.648h-4.992c-0.648 0-1.176 0.528-1.176 1.176v1.776h-6.954v-2.814c0-0.648-0.528-1.176-1.176-1.176h-6.456c-0.648 0-1.176 0.528-1.176 1.176v6.462c0 0.648 0.528 1.176 1.176 1.176h2.484l3 4.782c-0.018 0.078-0.024 0.156-0.024 0.24v4.992c0 0.648 0.528 1.176 1.176 1.176h4.992c0.648 0 1.176-0.528 1.176-1.176v-4.992c0-0.648-0.528-1.176-1.176-1.176h-4.992c-0.066 0-0.126 0.006-0.186 0.018l-2.424-3.864h2.436c0.648 0 1.176-0.528 1.176-1.176v-2.34h6.948v1.908c0 0.648 0.528 1.176 1.176 1.176h4.992c0.648 0 1.176-0.528 1.176-1.176v-4.992c-0.006-0.648-0.534-1.176-1.176-1.176z"></path>
</svg>
