<!-- Generated by IcoMoon.io -->
<svg version="1.1" xmlns="http://www.w3.org/2000/svg" width="24" height="24" viewBox="0 0 24 24">
<title>pushpin</title>
<path d="M6 14.636c0 1.15 2.895 1.761 6.002 1.846 0 0.006-0.001 0.012-0.001 0.018v4.5c0 0.828 0.336 3 0.75 3s0.75-2.172 0.75-3v-4.5c0-0.006-0.002-0.012-0.002-0.018 3.107-0.085 6.002-0.696 6.002-1.846 0-1.221-1.106-2.112-3-2.592v-7.769c1.894-0.642 3-1.675 3-2.41 0-2.486-13.5-2.486-13.5 0 0 0.808 1.106 1.819 3 2.438v7.742c-1.894 0.481-3 1.371-3 2.592z"></path>
</svg>
