<!-- Generated by IcoMoon.io -->
<svg version="1.1" xmlns="http://www.w3.org/2000/svg" width="24" height="24" viewBox="0 0 24 24">
<title>puzzle-piece</title>
<path d="M17.55 10.050c-0.975 0.975-2.4 0.825-3.375-0.15s-1.050-2.4-0.15-3.375c1.125-1.125 1.875-0.525 2.625-0.825 0.075 0 0.15-0.15 0-0.225l-3.675-3.675c-0.225-0.3-0.825-0.3-1.2 0l-3.9 3.9c-0.075 0.075-0.15 0-0.15 0-0.375-0.825 0.3-1.5-0.825-2.625-0.9-0.975-2.325-0.825-3.3 0.075-0.975 0.975-1.050 2.4-0.15 3.375 1.125 1.125 1.8 0.45 2.625 0.825 0.075 0 0.15 0.075 0 0.15l-3.525 3.525c-0.3 0.375-0.3 0.975 0.075 1.35l3.675 3.675c0.075 0.075 0 0.15 0 0.15-0.75 0.375-1.5-0.3-2.625 0.825-0.975 0.975-0.825 2.4 0.075 3.375 0.975 0.975 2.4 1.050 3.375 0.15 1.125-1.125 0.45-1.875 0.825-2.625 0 0 0.075-0.15 0.075-0.075l3.75 3.75c0.375 0.375 0.975 0.375 1.35 0l9.225-9.225c0.375-0.375 0.375-0.975 0-1.35l-3.75-3.75c-0.075-0.075-0.15 0-0.225 0.075-0.375 0.825 0.3 1.575-0.825 2.7z"></path>
</svg>
