<!-- Generated by IcoMoon.io -->
<svg version="1.1" xmlns="http://www.w3.org/2000/svg" width="24" height="24" viewBox="0 0 24 24">
<title>puzzle</title>
<path d="M3.3 1.425h8.1v3.525c-1.35-0.15-2.475 0.825-2.475 2.025-0.075 1.35 1.125 2.4 2.475 2.175v2.25h-3.075c-0.45 0-0.75 0.525-0.525 0.9l0.15 0.225c0.15 0.3 0.15 0.6-0.075 0.9-0.15 0.3-0.45 0.45-0.825 0.45s-0.6-0.3-0.675-0.45c-0.15-0.3-0.225-0.675-0.075-0.975 0.075-0.225 0.075-0.225 0.075-0.225 0.225-0.45-0.15-0.9-0.525-0.9h-4.425v-8.1c0.075-0.975 0.9-1.8 1.875-1.8z"></path>
<path d="M16.95 8.925c-1.275 0.075-2.175 1.275-2.025 2.475h-2.25v-3.15c0-0.45-0.525-0.75-0.9-0.525l-0.225 0.15c-0.3 0.15-0.6 0.15-0.9-0.075-0.3-0.15-0.45-0.45-0.45-0.825s0.3-0.6 0.45-0.675c0.3-0.15 0.675-0.225 0.975-0.075l0.15 0.075c0.375 0.225 0.9-0.15 0.9-0.525v-4.35h8.175c0.975 0 1.8 0.825 1.8 1.8v8.1h-3.525c0.3-1.275-0.75-2.475-2.175-2.4z"></path>
<path d="M7.050 15.075c1.275 0.075 2.4-1.125 2.175-2.475h2.25v3.15c0 0.45 0.45 0.75 0.9 0.525l0.225-0.15c0.3-0.15 0.6-0.15 0.9 0.075 0.3 0.15 0.45 0.45 0.45 0.825s-0.3 0.6-0.45 0.675c-0.3 0.15-0.675 0.225-0.975 0.075l-0.15-0.075c-0.45-0.225-0.9 0.075-0.9 0.525v4.425h-8.1c-1.050 0-1.875-0.825-1.875-1.875v-8.175h3.525c-0.15 1.35 0.825 2.475 2.025 2.475z"></path>
<path d="M15.15 17.025c0.075-1.425-1.2-2.4-2.475-2.175v-2.25h3.15c0.45 0 0.75-0.45 0.525-0.9l-0.075-0.15c-0.15-0.3-0.15-0.675 0.075-0.975 0.075-0.15 0.3-0.45 0.675-0.45 0.3 0 0.6 0.15 0.825 0.45 0.15 0.3 0.225 0.6 0.075 0.9l-0.15 0.225c-0.225 0.45 0.075 0.9 0.525 0.9h4.35v8.1c0 1.050-0.825 1.875-1.875 1.875h-8.1v-3.525c1.275 0.15 2.475-0.75 2.475-2.025z"></path>
</svg>
