<svg xmlns="http://www.w3.org/2000/svg" viewBox="0 0 1024 1024"><path d="M679.467 620.444l90.667-55.467v-1.778c-64.711-9.244-129.422-18.489-195.911-28.089 3.2-2.844 4.622-4.622 6.4-5.689 10.667-7.111 22.756-12.444 32.356-20.622 11.378-9.6 24.533-15.644 37.333-22.756 4.622-2.489 8.889-5.689 13.156-8.533-.356-.356-.356-1.067-.711-1.422H366.224c0-.356-.356-1.067-.356-1.422l89.6-55.467c-.356-.356-.356-1.067-.711-1.422H168.535v1.067l185.6 26.667c0 .356.356 1.067.356 1.422-30.222 18.844-60.8 37.333-91.022 56.178v1.778c65.422 9.244 130.489 18.489 195.911 27.733.356.356.356 1.067.356 1.778l-89.6 54.4c.356.711.356 1.422.711 2.133h297.956c.356.356.711 1.067 1.067 1.778-30.222 18.489-60.8 36.978-92.089 56.178h278.756v-1.778c-59.022-8.178-117.689-16.711-176.711-24.889 0-.711-.356-1.067-.356-1.778zm269.866-250.667L676.266 96.71c-90.311-90.311-236.8-90.311-327.111 0L76.088 369.777c-90.311 90.311-90.311 236.8 0 327.111l273.067 273.067c90.311 90.311 236.8 90.311 327.111 0l273.067-273.067c89.956-90.311 89.956-236.8 0-327.111zm-48.355 278.756L627.911 921.6c-63.644 63.644-166.756 63.644-230.4 0L124.444 648.533c-63.644-63.644-63.644-166.756 0-230.4l273.067-273.067c63.644-63.644 166.756-63.644 230.4 0l273.067 273.067c63.644 63.644 63.644 166.756 0 230.4z"/></svg>