<svg xmlns="http://www.w3.org/2000/svg" viewBox="0 0 1024 1024"><path d="M859.022 488.177c46.578-6.756 90.667-12.8 144-20.622-80.711-54.044-154.311-102.4-226.133-152.889-12.444-8.533-22.4-24.889-25.6-38.756-10.311-46.578-16.711-93.867-24.889-142.578-38.756 5.689-46.222 6.756-85.333 12.089 3.2 19.911 11.733 66.844 16 92.8-44.089-30.933-130.489-93.156-169.956-120.889-14.578-10.311-28.8-21.333-49.067-18.844-19.911 2.844-26.311 8.178-39.467 24.178-80.711 103.111-185.6 235.022-267.378 337.778-38.044 47.644-77.156 95.644-115.2 143.289 2.133 2.133 3.556 4.267 5.689 6.756 44.444-6.756 88.533-12.8 135.111-19.556 3.2 17.778 44.089 241.778 62.222 344.889 6.4-1.422 96-36.978 219.733-48l-79.289-185.244 142.222-83.2-112-129.422 104.889-168.533-30.222-124.089 62.933 127.644-62.933 136.889 125.867 179.556-125.867 84.978 114.133 209.067c166.756-14.578 327.822-29.511 334.578-32.711-20.267-119.111-49.778-390.4-54.044-414.578zM161.067 888.533c0 9.818-7.959 17.778-17.778 17.778s-17.778-7.959-17.778-17.778c0-9.818 7.959-17.778 17.778-17.778s17.778 7.959 17.778 17.778zm316.089 80.356c0 18.066-14.645 32.711-32.711 32.711s-32.711-14.645-32.711-32.711 14.645-32.711 32.711-32.711 32.711 14.645 32.711 32.711zM137.6 800.355c0 25.921-21.013 46.933-46.933 46.933s-46.933-21.013-46.933-46.933c0-25.921 21.013-46.933 46.933-46.933s46.933 21.013 46.933 46.933z"/></svg>