<!-- Generated by IcoMoon.io -->
<svg version="1.1" xmlns="http://www.w3.org/2000/svg" width="24" height="24" viewBox="0 0 24 24">
<title>question</title>
<path d="M11.977 3.234c2.892 0 5.813 1.657 5.813 5.36 0 2.154-1.069 3.837-3.173 4.997-0.609 0.335-1.186 1.001-1.186 1.27 0 0.802-0.652 1.453-1.453 1.453s-1.453-0.652-1.453-1.453c0-1.845 1.692-3.267 2.691-3.816 1.47-0.811 1.669-1.695 1.669-2.449 0-2.135-1.821-2.454-2.906-2.454-1.399 0-2.906 0.919-2.906 2.937 0 0.802-0.652 1.453-1.453 1.453s-1.453-0.652-1.453-1.453c0-3.797 2.995-5.845 5.813-5.845v0z"></path>
<path d="M11.977 20.735c-0.827 0-1.498-0.67-1.498-1.498s0.67-1.495 1.498-1.495 1.498 0.67 1.498 1.498-0.67 1.495-1.498 1.495z"></path>
</svg>
