<svg xmlns="http://www.w3.org/2000/svg" viewBox="0 0 1024 1024"><path d="M512 1029.329c273.914 0 495.996-222.082 495.996-495.996S785.914 37.337 512 37.337 16.004 259.419 16.004 533.333 238.086 1029.329 512 1029.329zm0-867.994c123.442 0 247.998 70.68 247.998 228.654 0 91.946-45.57 163.74-135.408 213.154-26.04 14.322-50.592 42.656-50.592 54.188 0 34.224-27.776 62-62 62s-62-27.776-62-62c0-78.678 72.168-139.376 114.824-162.81 62.682-34.596 71.176-72.292 71.176-104.532 0-91.078-77.686-104.656-124-104.656-59.706 0-124 39.184-124 125.302 0 34.224-27.776 62-62 62s-62-27.776-62-62c0-161.942 127.782-249.3 247.998-249.3zm0 746.724c-35.278 0-63.86-28.582-63.86-63.86s28.582-63.86 63.86-63.86 63.86 28.582 63.86 63.86-28.582 63.86-63.86 63.86z"/></svg>