<!-- Generated by IcoMoon.io -->
<svg version="1.1" xmlns="http://www.w3.org/2000/svg" width="24" height="24" viewBox="0 0 24 24">
<title>question-fill</title>
<path d="M12 23.625c6.42 0 11.625-5.205 11.625-11.625s-5.205-11.625-11.625-11.625-11.625 5.205-11.625 11.625 5.205 11.625 11.625 11.625zM12 3.281c2.893 0 5.812 1.657 5.812 5.359 0 2.155-1.068 3.838-3.174 4.996-0.61 0.336-1.186 1-1.186 1.27 0 0.802-0.651 1.453-1.453 1.453s-1.453-0.651-1.453-1.453c0-1.844 1.691-3.267 2.691-3.816 1.469-0.811 1.668-1.694 1.668-2.45 0-2.135-1.821-2.453-2.906-2.453-1.399 0-2.906 0.918-2.906 2.937 0 0.802-0.651 1.453-1.453 1.453s-1.453-0.651-1.453-1.453c0-3.796 2.995-5.843 5.812-5.843zM12 20.783c-0.827 0-1.497-0.67-1.497-1.497s0.67-1.497 1.497-1.497 1.497 0.67 1.497 1.497-0.67 1.497-1.497 1.497z"></path>
</svg>
