<!-- Generated by IcoMoon.io -->
<svg version="1.1" xmlns="http://www.w3.org/2000/svg" width="24" height="24" viewBox="0 0 24 24">
<title>quote-fill</title>
<path d="M12 0.375c-6.42 0-11.625 5.205-11.625 11.625s5.205 11.625 11.625 11.625 11.625-5.205 11.625-11.625-5.205-11.625-11.625-11.625zM17.831 11.788c-0.090 1.491-0.763 3.723-3.456 5.895-0.129 0.103-0.28 0.154-0.432 0.154-0.211 0-0.418-0.097-0.557-0.283-0.238-0.32-0.183-0.779 0.125-1.026 2.193-1.768 2.793-3.501 2.899-4.689-0.31 0.18-0.66 0.291-1.039 0.291-1.183 0-2.14-0.995-2.14-2.223s0.958-2.223 2.14-2.223c0.267 0 0.513 0.070 0.747 0.164l-0.009-0.017c0 0 0.103 0.038 0.247 0.118 0.007 0.004 0.015 0.006 0.022 0.009 0.004 0.003 0.007 0.006 0.012 0.009 0.099 0.057 0.212 0.132 0.339 0.24 0.054 0.046 0.099 0.1 0.148 0.151 0.527 0.525 1.106 1.526 0.953 3.432zM8.327 12.129c-1.183 0-2.14-0.995-2.14-2.223s0.959-2.223 2.14-2.223c0.267 0 0.513 0.070 0.747 0.164l-0.007-0.017c0 0 0.103 0.038 0.247 0.118 0.007 0.004 0.015 0.006 0.022 0.009 0.004 0.003 0.007 0.006 0.012 0.009 0.099 0.057 0.212 0.132 0.339 0.24 0.054 0.046 0.099 0.1 0.148 0.151 0.527 0.525 1.107 1.526 0.953 3.434-0.090 1.491-0.763 3.723-3.456 5.895-0.129 0.103-0.28 0.154-0.432 0.154-0.211 0-0.418-0.097-0.557-0.283-0.238-0.32-0.183-0.779 0.125-1.026 2.193-1.768 2.793-3.501 2.899-4.689-0.311 0.177-0.661 0.289-1.040 0.289z"></path>
</svg>
