<!-- Generated by IcoMoon.io -->
<svg version="1.1" xmlns="http://www.w3.org/2000/svg" width="24" height="24" viewBox="0 0 24 24">
<title>radiation</title>
<path d="M12 23.167c-6.25 0-11.333-5.083-11.333-11.333s5.083-11.333 11.333-11.333c6.25 0 11.333 5.083 11.333 11.333s-5.083 11.333-11.333 11.333zM12 2.117c-5.358 0-9.717 4.358-9.717 9.717s4.358 9.717 9.717 9.717c5.358 0 9.717-4.358 9.717-9.717s-4.358-9.717-9.717-9.717z"></path>
<path d="M13.367 11.833c0 0.755-0.612 1.367-1.367 1.367s-1.367-0.612-1.367-1.367c0-0.755 0.612-1.367 1.367-1.367s1.367 0.612 1.367 1.367z"></path>
<path d="M10.942 9.967l-3.033-5.358c-2.517 1.425-4.208 4.125-4.208 7.225h6.158c0-0.8 0.433-1.5 1.083-1.867z"></path>
<path d="M14.142 11.833h6.158c0-3-1.592-5.625-3.975-7.083l-3.208 5.25c0.617 0.383 1.025 1.058 1.025 1.833z"></path>
<path d="M13.092 13.683c-0.317 0.192-0.692 0.3-1.092 0.3-0.375 0-0.733-0.1-1.042-0.267l-2.992 5.383c1.192 0.667 2.567 1.042 4.033 1.042 1.542 0 2.983-0.417 4.217-1.15l-3.125-5.308z"></path>
</svg>
