<svg xmlns="http://www.w3.org/2000/svg" viewBox="0 0 1024 1024"><path d="M512 1009.777c-266.667 0-483.556-216.889-483.556-483.556S245.333 42.665 512 42.665s483.556 216.889 483.556 483.556S778.667 1009.777 512 1009.777zm0-898.133c-228.622 0-414.578 185.956-414.578 414.578S283.378 940.8 512 940.8c228.622 0 414.578-185.956 414.578-414.578S740.622 111.644 512 111.644zm58.311 414.578c0 32.204-26.107 58.311-58.311 58.311s-58.311-26.107-58.311-58.311 26.107-58.311 58.311-58.311 58.311 26.107 58.311 58.311zm-103.467-79.645L337.422 217.955c-107.378 60.8-179.556 176-179.556 308.267h262.756c0-34.133 18.489-64 46.222-79.644zm136.534 79.645h262.756c0-128-67.911-240-169.6-302.222L559.645 448c26.311 16.356 43.733 45.156 43.733 78.222zm-44.8 78.933c-13.511 8.178-29.511 12.8-46.578 12.8-16 0-31.289-4.267-44.444-11.378L339.912 836.266c50.844 28.444 109.511 44.444 172.089 44.444 65.778 0 127.289-17.778 179.911-49.067L558.579 605.154z"/></svg>