<!-- Generated by IcoMoon.io -->
<svg version="1.1" xmlns="http://www.w3.org/2000/svg" width="24" height="24" viewBox="0 0 24 24">
<title>rail</title>
<path d="M19.772 23.32l-1.097-7.43c0.488-0.347 0.806-0.914 0.806-1.556v-12.173c0-1.055-0.863-1.912-1.913-1.912h-11.072c-1.055 0-1.912 0.863-1.912 1.912v12.169c0 0.712 0.398 1.341 0.98 1.669l-1.078 7.317c-0.019 0.173 0.098 0.337 0.277 0.361 0.173 0.023 0.338-0.094 0.361-0.267l0.333-2.264h13.35l0.333 2.264c0.023 0.159 0.159 0.272 0.314 0.272 0.014 0 0.033 0 0.047-0.005 0.173-0.019 0.295-0.183 0.272-0.356zM6.183 16.2h11.892l0.239 1.622h-12.37l0.239-1.622zM7.012 12.9c0-0.82 0.666-1.491 1.491-1.491 0.82 0 1.491 0.666 1.491 1.491 0 0.82-0.666 1.491-1.491 1.491-0.825-0.005-1.491-0.67-1.491-1.491zM14.072 12.9c0-0.82 0.666-1.491 1.491-1.491 0.82 0 1.491 0.666 1.491 1.491 0 0.82-0.666 1.491-1.491 1.491-0.825-0.005-1.491-0.67-1.491-1.491zM6.267 2.672c0-0.352 0.286-0.638 0.638-0.638h10.252c0.352 0 0.638 0.286 0.638 0.638v6.019c0 0.352-0.286 0.637-0.638 0.637h-10.247c-0.352 0-0.638-0.286-0.638-0.637v-6.019zM5.55 20.513l0.3-2.048h12.558l0.3 2.048h-13.158z"></path>
</svg>
