<svg xmlns="http://www.w3.org/2000/svg" viewBox="0 0 1024 1024"><path d="M843.6 1016.333l-46.8-317c20.8-14.8 34.4-39 34.4-66.4v-519.4c0-45-36.8-81.6-81.6-81.6H277.2c-45 0-81.6 36.8-81.6 81.6v519.2c0 30.4 17 57.2 41.8 71.2l-46 312.2c-.8 7.4 4.2 14.4 11.8 15.4 7.4 1 14.4-4 15.4-11.4l14.2-96.6h569.6l14.2 96.6c1 6.8 6.8 11.6 13.4 11.6.6 0 1.4 0 2-.2 7.4-.8 12.6-7.8 11.6-15.2zm-579.8-303.8h507.4l10.2 69.2H253.6l10.2-69.2zm35.4-140.8c0-35 28.4-63.6 63.6-63.6 35 0 63.6 28.4 63.6 63.6 0 35-28.4 63.6-63.6 63.6-35.2-.2-63.6-28.6-63.6-63.6zm301.2 0c0-35 28.4-63.6 63.6-63.6 35 0 63.6 28.4 63.6 63.6 0 35-28.4 63.6-63.6 63.6-35.2-.2-63.6-28.6-63.6-63.6zm-333-436.4c0-15 12.2-27.2 27.2-27.2H732c15 0 27.2 12.2 27.2 27.2v256.8c0 15-12.2 27.2-27.2 27.2H294.8c-15 0-27.2-12.2-27.2-27.2v-256.8zm-30.6 761.2l12.8-87.4h535.8l12.8 87.4H236.8z"/></svg>