<svg xmlns="http://www.w3.org/2000/svg" viewBox="0 0 1024 1024"><path d="M925.511 452.622c-194.844-17.422-316.444 59.022-316.444 59.022-57.6 29.156-64.711 71.822-64.711 113.067v371.911c0 42.667 50.844 32 67.2 22.044 108.089-64 245.333-70.4 304.711-77.867 30.578-3.911 52.978-17.778 52.978-59.022V511.288c0-42.667-16.356-56.178-43.733-58.667zm-510.578 59.022s-121.6-76.8-316.444-59.022C71.111 455.111 54.4 468.978 54.4 511.644v370.489c0 41.244 22.4 55.111 52.978 59.022 59.378 7.467 196.622 13.867 304.711 77.867 16.356 9.6 67.2 20.622 67.2-22.044V625.067c0-41.6-6.756-84.267-64.356-113.422zm250.891-408.781c84.977 84.977 84.977 222.753 0 307.73s-222.753 84.977-307.73 0c-84.977-84.977-84.977-222.753 0-307.73s222.753-84.977 307.73 0z"/></svg>