<!-- Generated by IcoMoon.io -->
<svg version="1.1" xmlns="http://www.w3.org/2000/svg" width="24" height="24" viewBox="0 0 24 24">
<title>reader</title>
<path d="M21.692 10.108c-4.567-0.408-7.417 1.383-7.417 1.383-1.35 0.683-1.517 1.683-1.517 2.65 0 0 0 7.717 0 8.717s1.192 0.75 1.575 0.517c2.533-1.5 5.75-1.65 7.142-1.825 0.717-0.092 1.242-0.417 1.242-1.383 0 0 0-7.683 0-8.683s-0.383-1.317-1.025-1.375z"></path>
<path d="M9.725 11.492c0 0-2.85-1.8-7.417-1.383-0.642 0.058-1.033 0.383-1.033 1.383s0 8.683 0 8.683c0 0.967 0.525 1.292 1.242 1.383 1.392 0.175 4.608 0.325 7.142 1.825 0.383 0.225 1.575 0.483 1.575-0.517s0-8.717 0-8.717c0-0.975-0.158-1.975-1.508-2.658z"></path>
<path d="M15.605 1.911c1.992 1.992 1.992 5.221 0 7.212s-5.221 1.992-7.212 0c-1.992-1.992-1.992-5.221 0-7.212s5.221-1.992 7.212 0z"></path>
</svg>
