<!-- Generated by IcoMoon.io -->
<svg version="1.1" xmlns="http://www.w3.org/2000/svg" width="24" height="24" viewBox="0 0 24 24">
<title>read-book</title>
<path d="M10.176 22.408c-3.648-1.18-5.472-1.717-9.12-2.79-0.429-0.107-0.858-0.537-0.751-0.966 0 0.429-0.107 0.858-0.107 1.288s0.322 0.858 0.751 0.966c3.648 1.18 5.472 1.717 9.12 2.79 0.429 0.107 0.858-0.107 0.858-0.429 0-0.429 0.107-0.858 0.107-1.288 0 0.322-0.322 0.537-0.858 0.429z"></path>
<path d="M10.283 5.133c-2.682-0.858-3.97-1.288-6.652-2.146-0.644-0.322-1.073-0.429-1.824-0.644-1.502-0.644-1.502 0.322-1.502 1.18 0 0.966 0 1.395 0 2.36 0 4.506 0 6.76 0 11.266 0 0.537 0.429 1.18 0.858 1.288 3.648 1.18 5.472 1.824 9.12 3.005 0.429 0.107 0.858-0.215 0.858-0.751 0-5.687 0-8.584 0-14.271 0-0.644-0.322-1.18-0.858-1.288zM9.532 18.331c-2.79-0.966-4.077-1.395-7.189-2.36-0.644-0.107-0.644-0.751-0.644-1.073s0.215-0.429 0.429-0.322c2.897 0.966 4.399 1.502 7.403 2.468 0.215 0.107 0.429 0.322 0.429 0.644-0.107 0.215 0 0.751-0.429 0.644zM9.532 15.434c-2.79-0.966-4.077-1.395-7.189-2.36-0.644-0.107-0.644-0.751-0.644-1.073s0.215-0.429 0.429-0.322c2.897 0.966 4.399 1.502 7.403 2.468 0.215 0.107 0.429 0.322 0.429 0.644-0.107 0.107 0 0.751-0.429 0.644zM9.532 12.322c-2.79-0.966-4.077-1.395-7.189-2.36-0.644-0.107-0.644-0.751-0.644-1.073s0.215-0.429 0.429-0.322c2.897 0.966 4.399 1.502 7.403 2.468 0.215 0.107 0.429 0.322 0.429 0.644-0.107 0.107 0 0.751-0.429 0.644zM9.532 9.21c-2.79-0.966-4.077-1.395-7.189-2.36-0.644-0.107-0.644-0.751-0.644-1.073s0.215-0.429 0.429-0.322c2.897 0.966 4.399 1.502 7.403 2.468 0.215 0.107 0.429 0.322 0.429 0.644-0.107 0.215 0 0.751-0.429 0.644z"></path>
<path d="M22.73 19.94c-3.648 1.073-5.579 1.609-9.228 2.79-0.429 0.107-0.858-0.107-0.858-0.537 0 0.429 0 0.858 0.107 1.288 0 0.429 0.429 0.644 0.858 0.537 3.648-1.073 5.579-1.609 9.228-2.79 0.429-0.107 0.858-0.537 0.751-0.966 0-0.429-0.107-0.858-0.107-1.288 0.107 0.322-0.322 0.751-0.751 0.966z"></path>
<path d="M20.154 5.991c0-1.288 0-1.824 0-3.112-2.682 0.858-4.077 1.288-6.76 2.253-0.429 0.107-0.858 0.751-0.858 1.288 0 5.794 0 8.691 0 14.485 0 0.537 0.429 0.858 0.858 0.751 3.755-1.18 5.579-1.824 9.228-3.005 0.429-0.107 0.858-0.751 0.858-1.288 0-4.506 0-6.867 0-11.374-0.966 0.322-1.502 0.537-2.575 0.858-0.322 0-0.751-0.322-0.751-0.858zM14.253 7.923c3.004-1.073 0.644-0.215 3.541-1.18 0.215-0.107 0.429 0.107 0.429 0.322 0 0.322 0 0.966-0.644 1.073-3.112 0.966-0.537 0.215-3.434 1.18-0.322 0.107-0.322-0.429-0.322-0.751 0.107-0.322 0.215-0.644 0.429-0.644zM21.442 15.97c-3.112 0.966-4.399 1.395-7.189 2.36-0.322 0.107-0.322-0.429-0.322-0.751s0.215-0.537 0.429-0.644c2.897-0.966 4.399-1.502 7.403-2.468 0.215-0.107 0.429 0.107 0.429 0.322-0.107 0.429-0.107 0.966-0.751 1.18zM21.442 13.073c-3.112 0.966-4.399 1.395-7.189 2.36-0.322 0.107-0.322-0.429-0.322-0.751s0.215-0.537 0.429-0.644c2.897-0.966 4.399-1.502 7.403-2.468 0.215-0.107 0.429 0.107 0.429 0.322-0.107 0.322-0.107 0.966-0.751 1.18zM22.086 8.888c0 0.322 0 0.966-0.644 1.073-3.112 0.966-4.399 1.395-7.189 2.36-0.322 0.107-0.322-0.429-0.322-0.751s0.215-0.537 0.429-0.644c2.897-0.966 4.399-1.502 7.403-2.468 0.107 0 0.322 0.107 0.322 0.429z"></path>
<path d="M23.803 4.382c-0.966-0.858-1.502-1.395-2.575-2.253 0 1.288 0 1.824 0 3.112 1.073-0.322 1.609-0.537 2.575-0.858z"></path>
</svg>
