<!-- Generated by IcoMoon.io -->
<svg version="1.1" xmlns="http://www.w3.org/2000/svg" width="24" height="24" viewBox="0 0 24 24">
<title>recycle</title>
<path d="M1.050 8.25l1.35 1.050-1.275 2.475c-0.675 1.125 0.45 2.25 1.2 2.7 0.675 0.375 1.8 0.45 2.775 0.45l1.8-3 1.35 0.75-2.4-4.425h-4.8zM1.275 14.325l3 5.475c0.6 0.75 1.725 0.975 2.925 0.9h3.15v-5.175l-5.925-0.075c-1.050 0.15-2.25-0.075-3.15-1.125zM19.95 4.2l-1.65 0.675-1.575-2.325c-0.675-1.125-2.25-0.675-2.925-0.225s-1.275 1.35-1.725 2.25l1.725 3.075-1.35 0.825 5.1 0.075 2.4-4.35zM14.55 1.425l-6.3-0.075c-0.9 0.15-1.65 1.050-2.175 2.1l-1.5 2.775 4.575 2.55 2.85-5.25c0.45-0.825 1.2-1.8 2.55-2.1zM14.775 22.65l0.15-1.725 2.775-0.225c1.35-0.075 1.65-1.575 1.65-2.4-0.075-0.825-0.6-1.725-1.125-2.625h-3.525l-0.075-1.575-2.475 4.425 2.625 4.125zM19.875 19.2l3.075-5.4c0.3-0.9-0.15-1.95-0.75-2.925l-1.65-2.625-4.425 2.775 3.15 5.1c0.525 0.675 0.975 1.8 0.6 3.075z"></path>
</svg>
