<svg xmlns="http://www.w3.org/2000/svg" viewBox="0 0 1024 1024"><path d="M947.2 46.933H217.6c-32 0-57.6 25.6-57.6 60.8v134.4h54.4v-144h742.4v454.4H633.6v208H736c3.2 0 6.4-3.2 6.4-6.4v-25.6c0-3.2-3.2-6.4-6.4-6.4h-44.8v-60.8H944c32 0 60.8-25.6 60.8-60.8v-496c3.2-32-25.6-57.6-57.6-57.6zm-336 256c0-25.6-19.2-44.8-44.8-44.8h-28.8v-3.2H496v3.2H160c-25.6 0-44.8 19.2-44.8 44.8v89.6H112v28.8h3.2v57.6H112v28.8h3.2v9.6h41.6v-185.6h412.8v489.6h-256v64h256c25.6 0 44.8-19.2 44.8-44.8v-390.4h3.2v-57.6h-3.2l-3.2-89.6zm-313.6 265.6c0-19.2-19.2-35.2-41.6-35.2H57.6c-22.4 0-41.6 16-41.6 35.2v428.8c0 19.2 19.2 35.2 41.6 35.2H256c22.4 0 41.6-16 41.6-35.2v-428.8zm-16 393.6H35.2v-358.4h246.4v358.4z"/></svg>