<!-- Generated by IcoMoon.io -->
<svg version="1.1" xmlns="http://www.w3.org/2000/svg" width="24" height="24" viewBox="0 0 24 24">
<title>responsive-alt</title>
<path d="M19.5 3.975c0-0.75-0.6-1.35-1.35-1.35h-0.825c0-0.075 0-0.075 0-0.075h-1.2c0 0 0 0 0 0.075v0h-10.050c-0.75 0-1.35 0.6-1.35 1.35v2.625c-0.075 0-0.075 0-0.075 0v0.825c0 0 0 0 0.075 0v1.875c-0.075 0-0.075 0-0.075 0v0.825c0 0 0 0 0.075 0v9.825c0 0.75 0.6 1.35 1.35 1.35h12.075c0.75 0 1.35-0.6 1.35-1.35v-11.625c0 0 0.075 0 0.075-0.075v-1.65c0 0 0-0.075-0.075-0.075v-2.55zM12.15 3.45c0.225 0 0.375 0.15 0.375 0.375 0 0.15-0.15 0.375-0.375 0.375-0.15 0-0.375-0.15-0.375-0.375s0.15-0.375 0.375-0.375zM13.5 20.25c0 0.15-0.225 0.375-0.375 0.375-0.3 0-0.675 0-0.975 0s-0.675 0-0.975 0c-0.15 0-0.375-0.225-0.375-0.375 0-0.075 0-0.075 0-0.15 0-0.15 0.225-0.375 0.375-0.375 0.3 0 0.675 0 0.975 0s0.675 0 0.975 0c0.15 0 0.375 0.225 0.375 0.375 0 0.075 0 0.15 0 0.15zM18.225 19.2h-12.225v-14.475h12.15v14.475z"></path>
<path d="M8.85 9.375h6.825c0.45 0 0.75-0.375 0.75-0.75 0-0.45-0.375-0.75-0.75-0.75h-6.825c-0.45 0-0.75 0.375-0.75 0.75 0 0.45 0.375 0.75 0.75 0.75z"></path>
<path d="M8.85 12.525h6.825c0.45 0 0.75-0.375 0.75-0.75 0-0.45-0.375-0.75-0.75-0.75h-6.825c-0.45 0-0.75 0.375-0.75 0.75s0.375 0.75 0.75 0.75z"></path>
<path d="M23.925 9.075v-2.1c0-0.525-0.45-0.975-0.975-0.975h-0.225c0 0 0 0 0 0h-0.825c0 0 0 0 0 0v0h-1.8v1.125c0-0.075 0.075-0.15 0.15-0.15h0.9c0.075 0 0.15 0.075 0.15 0.15s-0.075 0.15-0.15 0.15h-0.9c-0.075 0-0.15-0.075-0.15-0.15v0.75h3.15v9.75h-3.15v0.675c0 0 0 0 0.075 0 0.15 0 0.375 0 0.525 0s0.375 0 0.525 0c0.075 0 0.225 0.075 0.225 0.225 0 0 0 0.075 0 0.075 0 0.075-0.075 0.225-0.225 0.225s-0.375 0-0.525 0c-0.15 0-0.375 0-0.525 0 0 0 0 0-0.075 0v0.825h2.85c0.525 0 0.975-0.45 0.975-0.975v-9.075c0 0 0 0 0 0v-0.525c0 0.075 0 0.075 0 0z"></path>
<path d="M2.175 6c0 0 0 0 0 0h-0.9c0 0 0 0 0 0v0h-0.225c-0.525 0-0.975 0.45-0.975 0.975v2.175c0 0 0 0 0 0v0.45c0 0 0 0 0 0v9c0 0.525 0.45 0.975 0.975 0.975h2.85v-0.825c0 0 0 0-0.075 0-0.15 0-0.375 0-0.525 0s-0.375 0-0.525 0c-0.075 0-0.225-0.075-0.225-0.225 0 0 0-0.075 0-0.075 0-0.075 0.075-0.225 0.225-0.225s0.375 0 0.525 0c0.15 0 0.375 0 0.525 0 0 0 0 0 0.075 0v-0.675h-3.15v-9.75h3.15v-0.75c0 0.075-0.075 0.15-0.15 0.15h-0.825c-0.075 0-0.15-0.075-0.15-0.15s0.075-0.15 0.15-0.15h0.9c0.075 0 0.15 0.075 0.15 0.15v-1.050h-1.8z"></path>
</svg>
