<!-- Generated by IcoMoon.io -->
<svg version="1.1" xmlns="http://www.w3.org/2000/svg" width="24" height="24" viewBox="0 0 24 24">
<title>responsive</title>
<path d="M22.2 0.6h-17.1c-0.75 0-1.35 0.6-1.35 1.425v3.15h1.275v-3.375h17.4v10.65h-7.575v4.875h2.4c0.075 0 0.15-0.075 0.15-0.15v-0.6c0-0.075-0.075-0.15-0.15-0.15h-1.050v-1.425h5.925c0.75 0 1.425-0.6 1.425-1.425v-11.625c0.075-0.75-0.6-1.35-1.35-1.35z"></path>
<path d="M14.325 6.6c0-0.6-0.45-1.050-1.050-1.050h-0.675v-0.075h-0.975c0 0 0 0 0 0.075v0h-7.875c-0.6 0-1.050 0.45-1.050 1.050v2.1h-0.075v0.675c0 0 0 0 0.075 0v1.35h-0.075v0.675c0 0 0 0 0.075 0v0.225h0.975v-4.35h9.675v11.475h-6v1.5h6c0.6 0 1.050-0.45 1.050-1.050v-9.15h0.075v-1.35c0 0 0 0-0.075 0l-0.075-2.1z"></path>
<path d="M6.975 12.825c0-0.45-0.45-0.825-0.975-0.825h-4.65c-0.525 0-0.975 0.375-0.975 0.825v10.050c0 0.45 0.45 0.825 0.975 0.825h4.65c0.525 0 0.975-0.375 0.975-0.825v-10.050zM6.6 22.050h-5.775v-8.4h5.775v8.4z"></path>
</svg>
