<svg xmlns="http://www.w3.org/2000/svg" viewBox="0 0 1024 1024"><path d="M832 190.933c0-32-25.6-57.6-57.6-57.6h-35.2v-3.2H688v3.2H259.2c-32 0-57.6 25.6-57.6 57.6v112h-3.2v35.2h3.2v80h-3.2v35.2h3.2v419.2c0 32 25.6 57.6 57.6 57.6h515.2c32 0 57.6-25.6 57.6-57.6v-496s3.2 0 3.2-3.2v-70.4s0-3.2-3.2-3.2v-108.8zm-313.6-22.4c9.6 0 16 6.4 16 16 0 6.4-6.4 16-16 16-6.4 0-16-6.4-16-16s6.4-16 16-16zm57.6 716.8c0 6.4-9.6 16-16 16h-83.2c-6.4 0-16-9.6-16-16v-6.4c0-6.4 9.6-16 16-16H560c6.4 0 16 9.6 16 16v6.4zm201.6-44.8H256v-617.6h518.4v617.6zm-400-419.2h291.2c19.2 0 32-16 32-32 0-19.2-16-32-32-32H377.6c-19.2 0-32 16-32 32 0 19.2 16 32 32 32zm0 134.4h291.2c19.2 0 32-16 32-32 0-19.2-16-32-32-32H377.6c-19.2 0-32 16-32 32s16 32 32 32zm643.2-147.2v-89.6c0-22.4-19.2-41.6-41.6-41.6H857.6v48c0-3.2 3.2-6.4 6.4-6.4h38.4c3.2 0 6.4 3.2 6.4 6.4s-3.2 6.4-6.4 6.4H864c-3.2 0-6.4-3.2-6.4-6.4v32H992v416H857.6v28.8h48c3.2 0 9.6 3.2 9.6 9.6v3.2c0 3.2-3.2 9.6-9.6 9.6h-44.8-3.2v35.2h121.6c22.4 0 41.6-19.2 41.6-41.6V408.533c0 3.2 0 3.2 0 0zm-928-131.2h-48c-22.4 0-41.6 19.2-41.6 41.6v496c0 22.4 19.2 41.6 41.6 41.6h121.6v-35.2h-48c-3.2 0-9.6-3.2-9.6-9.6v-3.2c0-3.2 3.2-9.6 9.6-9.6h48v-28.8H32v-416h134.4v-32c0 3.2-3.2 6.4-6.4 6.4h-35.2c-3.2 0-6.4-3.2-6.4-6.4s3.2-6.4 6.4-6.4h38.4c3.2 0 6.4 3.2 6.4 6.4v-44.8H92.8z"/></svg>