<!-- Generated by IcoMoon.io -->
<svg version="1.1" xmlns="http://www.w3.org/2000/svg" width="24" height="24" viewBox="0 0 24 24">
<title>restaurant</title>
<path d="M20.855 6.478l-0.909-6.052c-0.038-0.248-0.248-0.427-0.492-0.427-0.005 0-0.009 0-0.019 0-0.253 0.009-0.459 0.206-0.483 0.459l-0.436 5.25c-0.028 0.323-0.6 0.323-0.628 0l-0.436-5.25c-0.023-0.258-0.239-0.459-0.497-0.459s-0.478 0.197-0.497 0.459l-0.436 5.255c-0.028 0.323-0.6 0.323-0.628 0l-0.445-5.255c-0.019-0.253-0.23-0.45-0.483-0.459-0.005 0-0.009 0-0.014 0-0.248 0-0.459 0.178-0.492 0.427l-0.905 6.052c-0.267 1.772 0.694 4.097 2.316 4.805l-0.773 10.191c-0.047 0.652 0.183 1.298 0.628 1.777s1.073 0.75 1.725 0.75h0.005c0.652 0 1.284-0.272 1.73-0.75s0.675-1.125 0.628-1.777l-0.773-10.191c1.617-0.708 2.583-3.033 2.316-4.805z"></path>
<path d="M7.641 0.103c-1.594 0.342-3.262 1.514-3.262 6.394 0 3.511 1.819 5.484 1.786 6.005-0.117 1.777-1.111 2.077-1.2 3.928-0.042 0.881-0.375 4.927-0.375 4.927-0.070 0.675 0.155 1.345 0.605 1.847 0.455 0.502 1.106 0.788 1.781 0.788 1.322 0 2.4-1.078 2.4-2.4v-19.87c0.005-0.164 0-1.987-1.734-1.617z"></path>
</svg>
