<!-- Generated by IcoMoon.io -->
<svg version="1.1" xmlns="http://www.w3.org/2000/svg" width="24" height="24" viewBox="0 0 24 24">
<title>right</title>
<path d="M13.819 6.295l4.627 4.627h-15.492c-0.595 0-1.078 0.483-1.078 1.078s0.483 1.078 1.078 1.078h15.492l-4.627 4.627c-0.422 0.422-0.422 1.102 0 1.523s1.102 0.422 1.523 0l6.469-6.469c0.005 0 0.005-0.009 0.009-0.009 0.094-0.098 0.173-0.211 0.225-0.342 0.112-0.262 0.112-0.563 0-0.825-0.052-0.131-0.136-0.248-0.234-0.352l-6.469-6.469c-0.422-0.422-1.102-0.422-1.523 0.005s-0.422 1.111 0 1.528z"></path>
</svg>
