<svg xmlns="http://www.w3.org/2000/svg" viewBox="0 0 1024 1024"><path d="M310.334 506.443h60.501l13.445-50.418h-50.418zm97.471-124.361h-40.332l-20.166 43.694h47.056zm410.056 433.584L764.084 704.75h-84.029l23.528 80.667H582.584l-47.056-544.5h43.694l366.359 524.331c36.973-70.584 57.139-147.889 57.139-231.915 0-275.612-221.832-500.806-490.72-500.806S21.28 257.721 21.28 533.333c0 77.305 16.807 147.889 47.056 215.111l356.276-507.527h43.694l-57.139 584.832H273.361l36.973-124.361h-77.305l-36.973 84.029H88.502C172.531 933.306 330.503 1034.139 512 1034.139c168.055 0 315.944-87.388 403.332-218.473h-97.471zM680.055 513.167l-20.166-50.418h-50.418l13.445 50.418zm53.777 120.999l-33.611-77.305h-63.86l23.528 77.305zm-473.916-6.721h73.943l23.528-77.305h-63.86zm326.027-242.001l13.445 43.694h47.056l-20.166-43.694z"/></svg>