<!-- Generated by IcoMoon.io -->
<svg version="1.1" xmlns="http://www.w3.org/2000/svg" width="24" height="24" viewBox="0 0 24 24">
<title>roadways</title>
<path d="M7.273 11.37h1.418l0.315-1.182h-1.182z"></path>
<path d="M9.558 8.455h-0.945l-0.473 1.024h1.103z"></path>
<path d="M19.169 18.617l-1.26-2.6h-1.969l0.551 1.891h-2.836l-1.103-12.762h1.024l8.587 12.289c0.867-1.654 1.339-3.466 1.339-5.436 0-6.46-5.199-11.738-11.501-11.738s-11.501 5.278-11.501 11.738c0 1.812 0.394 3.466 1.103 5.042l8.35-11.895h1.024l-1.339 13.707h-3.23l0.867-2.915h-1.812l-0.867 1.969h-2.521c1.969 3.466 5.672 5.829 9.926 5.829 3.939 0 7.405-2.048 9.453-5.12h-2.284z"></path>
<path d="M15.939 11.527l-0.473-1.182h-1.182l0.315 1.182z"></path>
<path d="M17.199 14.363l-0.788-1.812h-1.497l0.551 1.812z"></path>
<path d="M6.092 14.206h1.733l0.551-1.812h-1.497z"></path>
<path d="M13.733 8.534l0.315 1.024h1.103l-0.473-1.024z"></path>
</svg>
