<!-- Generated by IcoMoon.io -->
<svg version="1.1" xmlns="http://www.w3.org/2000/svg" width="24" height="24" viewBox="0 0 24 24">
<title>rss</title>
<path d="M8.918 17.565c0 1.371-1.112 2.483-2.483 2.483s-2.483-1.112-2.483-2.483c0-1.371 1.112-2.483 2.483-2.483s2.483 1.112 2.483 2.483z"></path>
<path d="M12.428 20.048c0-4.709-3.767-8.476-8.39-8.476v-3.51c6.592 0 11.9 5.394 11.9 11.986h-3.51z"></path>
<path d="M18.335 20.048c0-7.962-6.421-14.469-14.297-14.469v-3.681c9.845 0 17.893 8.133 17.893 18.064 0 0.086-3.596 0.086-3.596 0.086z"></path>
</svg>
