<!-- Generated by IcoMoon.io -->
<svg version="1.1" xmlns="http://www.w3.org/2000/svg" width="24" height="24" viewBox="0 0 24 24">
<title>rv</title>
<path d="M22.842 14.925h-3.834l0.806-1.345c0.403-0.67 0.614-1.439 0.614-2.222v-4.317c0-0.567-0.459-1.027-1.027-1.027h-4.378l-0.427-0.848h-3.909l-0.427 0.848h-7.791c-0.469 0-0.877 0.319-0.994 0.773l-1.158 4.57c-0.042 0.164-0.042 0.333-0.005 0.497l0.769 3.145c0.113 0.459 0.525 0.783 0.998 0.783h4.514c0.192 0.83 0.938 1.448 1.823 1.448s1.631-0.619 1.823-1.448h0.759v0.005l11.841-0.005v1.402h0.858v-2.93h-0.858v0.67zM6.375 10.8v-2.184h-0.642v2.184h-2.138c-0.281 0-0.511-0.23-0.511-0.511v-1.392c0-0.281 0.23-0.511 0.511-0.511h5.433v2.419h-2.653zM8.419 16.373c-0.563 0-1.017-0.455-1.017-1.017 0-0.558 0.455-1.017 1.017-1.017 0.558 0 1.017 0.455 1.017 1.017-0.005 0.563-0.459 1.017-1.017 1.017zM13.927 11.255h-0.652v0.478h0.652v3.202h-2.564v-6.234h2.564v2.555zM18.919 10.289c0 0.281-0.23 0.511-0.511 0.511h-2.142v-2.419h2.137c0.281 0 0.511 0.23 0.511 0.511v1.397z"></path>
</svg>
