<svg xmlns="http://www.w3.org/2000/svg" viewBox="0 0 1024 1024"><path d="M974.6 658.133H811l34.4-57.4c17.2-28.6 26.2-61.4 26.2-94.8v-184.2c0-24.2-19.6-43.8-43.8-43.8H641l-18.2-36.2H456l-18.2 36.2H105.4c-20 0-37.4 13.6-42.4 33l-49.4 195c-1.8 7-1.8 14.2-.2 21.2l32.8 134.2c4.8 19.6 22.4 33.4 42.6 33.4h192.6c8.2 35.4 40 61.8 77.8 61.8s69.6-26.4 77.8-61.8h32.4v.2l505.2-.2v59.8h36.6v-125h-36.6v28.6zm-702.6-176v-93.2h-27.4v93.2h-91.2c-12 0-21.8-9.8-21.8-21.8v-59.4c0-12 9.8-21.8 21.8-21.8h231.8v103.2H272zm87.2 237.8c-24 0-43.4-19.4-43.4-43.4 0-23.8 19.4-43.4 43.4-43.4 23.8 0 43.4 19.4 43.4 43.4-.2 24-19.6 43.4-43.4 43.4zm235-218.4h-27.8v20.4h27.8v136.6H484.8v-266h109.4v109zm213-41.2c0 12-9.8 21.8-21.8 21.8H694v-103.2h91.2c12 0 21.8 9.8 21.8 21.8v59.6z"/></svg>