<svg xmlns="http://www.w3.org/2000/svg" viewBox="0 0 1024 1024"><path d="M509 548.533v-494.8l-372.8 494.8zm56 0v-389.6l287 389.6zm242.8 202c37-41.2 60.6-90.4 65.4-143.8H162.8c5 53.4 28.4 102.6 65.2 143.8h579.8zm58 113.8c-19.6 0-38-9.4-49.2-25-6.4-9-16.6-14.2-28-14.2s-21.6 5.2-28 14.2c-11.2 15.8-29.6 25-49.2 25s-38-9.4-49.2-25c-6.4-9-16.6-14.2-28-14.2s-21.6 5.2-28 14.2c-11.2 15.8-29.6 25-49.2 25s-38-9.4-49.2-25c-6.4-9-16.6-14.2-28-14.2s-21.6 5.2-28 14.2c-11.2 15.8-29.6 25-49.2 25s-38-9.4-49.2-25c-6.4-9-16.6-14.2-28-14.2s-21.6 5.2-28 14.2c-11.2 15.8-29.6 25-49.2 25s-38-9.4-49.2-25c-6.4-9-16.6-14.2-28-14.2s-21.6 5.2-28 14.2c-11.2 15.8-29.6 25-49.2 25s-38-9.4-49.2-25c-4.2-5.8-2.8-14 3-18.2s14-2.8 18.2 3c6.4 9 16.6 14.2 28 14.2s21.6-5.2 28-14.2c11.2-15.8 29.6-25 49.2-25s38 9.4 49.2 25c6.4 9 16.6 14.2 28 14.2s21.6-5.2 28-14.2c11.2-15.8 29.6-25 49.2-25s38 9.4 49.2 25c6.4 9 16.6 14.2 28 14.2s21.6-5.2 28-14.2c11.2-15.8 29.6-25 49.2-25s38 9.4 49.2 25c6.4 9 16.6 14.2 28 14.2s21.6-5.2 28-14.2c11.2-15.8 29.6-25 49.2-25s38 9.4 49.2 25c6.4 9 16.6 14.2 28 14.2s21.6-5.2 28-14.2c11.2-15.8 29.6-25 49.2-25s38 9.4 49.2 25c6.4 9 16.6 14.2 28 14.2s21.6-5.2 28-14.2c11.2-15.8 29.6-25 49.2-25s38 9.4 49.2 25c4.2 5.8 2.8 14-3 18.2s-14 2.8-18.2-3c-6.4-9-16.6-14.2-28-14.2s-21.6 5.2-28 14.2c-11.2 15.6-29.6 25-49.2 25zm2.2 93.6c-19.6 0-38-9.4-49.2-25-6.4-9-16.6-14.2-28-14.2s-21.6 5.2-28 14.2c-11.2 15.8-29.6 25-49.2 25s-38-9.4-49.2-25c-6.4-9-16.6-14.2-28-14.2s-21.6 5.2-28 14.2c-11.2 15.8-29.6 25-49.2 25s-38-9.4-49.2-25c-6.4-9-16.6-14.2-28-14.2s-21.6 5.2-28 14.2c-11.2 15.8-29.6 25-49.2 25s-38-9.4-49.2-25c-6.4-9-16.6-14.2-28-14.2s-21.6 5.2-28 14.2c-11.2 15.8-29.6 25-49.2 25s-38-9.4-49.2-25c-6.4-9-16.6-14.2-28-14.2s-21.6 5.2-28 14.2c-4.2 5.8-12.2 7.2-18.2 3-5.8-4.2-7.2-12.2-3-18.2 11.2-15.8 29.6-25 49.2-25s38 9.4 49.2 25c6.4 9 16.6 14.2 28 14.2s21.6-5.2 28-14.2c11.2-15.8 29.6-25 49.2-25s38 9.4 49.2 25c6.4 9 16.6 14.2 28 14.2s21.6-5.2 28-14.2c11.2-15.8 29.6-25 49.2-25s38 9.4 49.2 25c6.4 9 16.6 14.2 28 14.2 11.4 0 21.6-5.2 28-14.2 11.2-15.8 29.6-25 49.2-25s38 9.4 49.2 25c6.4 9 16.6 14.2 28 14.2s21.6-5.2 28-14.2c11.2-15.8 29.6-25 49.2-25s38 9.4 49.2 25c6.4 9 16.6 14.2 28 14.2s21.6-5.2 28-14.2c4.2-5.8 12.2-7.2 18.2-3 5.8 4.2 7.2 12.2 3 18.2-11.2 15.6-29.6 25-49.2 25z"/></svg>