<svg xmlns="http://www.w3.org/2000/svg" viewBox="0 0 1024 1024"><path d="M81.408 810.325c15.36 23.872 47.616 52.288 114.176 52.288 41.856 0 95.424-12.224 155.072-33.536 25.792 113.664 73.216 216.256 161.344 216.256 89.6 0 137.216-106.112 162.688-222.144 59.776 20.224 113.536 31.872 155.584 31.872 70.4 0 103.424-29.952 118.784-55.04 49.664-81.408-27.84-184.768-121.408-270.208 17.28-16.64 33.536-33.28 47.808-49.472 80.896-92.096 103.488-167.424 67.136-224-15.36-23.872-47.616-52.288-114.176-52.288-41.856 0-95.424 12.224-155.072 33.536C647.552 123.925 600.128 21.333 512 21.333c-89.6 0-137.216 106.112-162.688 222.144-59.776-20.288-113.536-31.872-155.584-31.872-70.4 0-103.488 29.952-118.784 55.04-49.664 81.408 27.84 184.768 121.408 270.208-17.28 16.704-33.536 33.28-47.808 49.472-80.896 92.096-103.488 167.488-67.136 224zM512 981.333c-41.408 0-78.144-69.184-101.568-176 33.664-14.528 68.48-31.488 104.128-50.88 34.176 17.536 67.584 32.832 99.968 46.144C591.232 910.101 554.048 981.333 512 981.333zm-128-448c0-23.488.704-46.4 1.664-68.928 18.432-13.056 37.312-25.984 57.088-38.72 22.72-14.592 45.184-28.032 67.456-40.832 22.592 12.288 45.376 25.152 68.416 39.168 20.608 12.608 40.384 25.472 59.584 38.4 1.088 23.168 1.792 46.72 1.792 70.912 0 23.488-.704 46.4-1.664 68.928-18.432 13.056-37.312 25.984-57.088 38.72-22.72 14.592-45.184 28.032-67.456 40.832-22.592-12.288-45.376-25.152-68.416-39.168-20.608-12.608-40.384-25.472-59.584-38.4-1.088-23.168-1.792-46.72-1.792-70.912zm-63.68 24.064c-9.408-7.168-18.624-14.336-27.456-21.44 8.832-7.488 17.984-14.976 27.328-22.464-.128 8.576-.192 15.808-.192 19.84 0 4.672.128 13.504.32 24.064zm71.168-174.208c1.856-18.176 4.032-35.776 6.528-52.8 14.592 6.208 29.504 13.056 44.736 20.224-11.52 7.04-23.04 13.76-34.624 21.184-5.76 3.776-10.944 7.68-16.64 11.392zm185.472-34.176c16.512-8.32 32.64-16.064 48.448-23.168 2.688 18.112 4.992 36.992 6.976 56.384-8.896-5.696-16.384-10.368-20.352-12.8-11.712-7.168-23.424-13.632-35.072-20.416zm126.72 160.256c9.408 7.168 18.624 14.336 27.456 21.44-8.832 7.488-17.984 14.912-27.392 22.464.192-8.576.256-15.808.256-19.84 0-4.672-.128-13.504-.32-24.064zm-71.168 174.208c-1.856 18.176-3.968 35.84-6.464 52.8-14.592-6.208-29.568-13.056-44.736-20.224 11.52-7.04 23.04-13.76 34.624-21.184 5.696-3.776 10.88-7.68 16.576-11.392zm-220.544 13.76c11.712 7.168 23.36 13.632 35.072 20.416-16.512 8.32-32.64 16.064-48.448 23.168-2.688-18.048-4.992-36.928-6.976-56.384 8.896 5.632 16.384 10.368 20.352 12.8zm482.432 69.44c-10.112 16.512-32.512 24.384-64.128 24.384-36.928 0-86.784-11.264-143.616-31.232 6.784-43.904 11.008-86.784 13.504-123.392 28.608-21.12 55.04-42.496 80.064-64 90.304 81.984 137.28 156.416 114.176 194.24zm-65.984-498.624c29.312 0 50.368 7.36 60.352 22.912 24 37.312-21.312 112.896-109.76 197.056-27.52-22.4-54.656-42.88-79.104-60.224-2.624-37.76-6.976-81.792-14.208-126.784 56.768-21.056 106.368-32.96 142.72-32.96zM512 85.333c41.408 0 78.144 69.184 101.568 176-33.664 14.528-68.48 31.488-104.128 50.88-34.24-17.536-67.648-32.896-99.968-46.144C432.768 156.565 469.952 85.333 512 85.333zM129.6 299.989c10.112-16.512 32.512-24.384 64.128-24.384 36.928 0 86.784 11.264 143.616 31.232-6.848 43.904-11.008 86.72-13.504 123.392-28.608 21.12-55.04 42.496-80.064 64-90.304-81.984-137.28-156.416-114.176-194.24zm194.432 338.816c2.624 37.76 6.976 81.792 14.208 126.784-56.704 21.056-106.304 32.96-142.656 32.96-29.312 0-50.368-7.36-60.352-22.912-24-37.312 21.312-112.896 109.76-197.056 27.456 22.4 54.592 42.944 79.04 60.224z"/></svg>