<!-- Generated by IcoMoon.io -->
<svg version="1.1" xmlns="http://www.w3.org/2000/svg" width="24" height="24" viewBox="0 0 24 24">
<title>science</title>
<path d="M1.908 18.492c0.36 0.559 1.116 1.226 2.676 1.226 0.981 0 2.237-0.287 3.635-0.786 0.604 2.664 1.716 5.068 3.781 5.068 2.1 0 3.216-2.487 3.813-5.206 1.401 0.474 2.661 0.747 3.646 0.747 1.65 0 2.424-0.702 2.784-1.29 1.164-1.908-0.652-4.33-2.846-6.333 0.405-0.39 0.786-0.78 1.12-1.159 1.896-2.159 2.426-3.924 1.574-5.25-0.36-0.56-1.116-1.226-2.676-1.226v0c-0.981 0-2.236 0.286-3.635 0.786-0.604-2.664-1.716-5.069-3.781-5.069-2.1 0-3.216 2.487-3.813 5.207-1.401-0.476-2.661-0.747-3.646-0.747v0c-1.65 0-2.425 0.702-2.784 1.29-1.164 1.908 0.653 4.33 2.845 6.333-0.405 0.392-0.786 0.78-1.12 1.16-1.896 2.159-2.425 3.925-1.573 5.25zM12 22.5c-0.971 0-1.832-1.621-2.38-4.125 0.789-0.34 1.605-0.738 2.441-1.192 0.801 0.411 1.584 0.769 2.343 1.081-0.546 2.567-1.418 4.236-2.403 4.236zM9 12c0-0.55 0.017-1.087 0.039-1.616 0.432-0.306 0.874-0.609 1.338-0.907 0.532-0.342 1.059-0.657 1.581-0.957 0.53 0.288 1.064 0.589 1.604 0.918 0.483 0.296 0.947 0.597 1.397 0.9 0.025 0.543 0.042 1.095 0.042 1.662 0 0.551-0.017 1.087-0.039 1.616-0.432 0.306-0.874 0.609-1.338 0.907-0.533 0.342-1.059 0.657-1.581 0.957-0.53-0.288-1.063-0.59-1.604-0.918-0.483-0.296-0.947-0.597-1.396-0.9-0.026-0.543-0.042-1.095-0.042-1.662zM7.508 12.564c-0.221-0.168-0.437-0.336-0.644-0.503 0.207-0.176 0.421-0.351 0.64-0.527-0.003 0.201-0.005 0.37-0.005 0.465 0 0.11 0.003 0.317 0.008 0.564zM9.175 8.481c0.043-0.426 0.095-0.838 0.153-1.238 0.342 0.146 0.692 0.306 1.049 0.474-0.27 0.165-0.54 0.322-0.812 0.497-0.135 0.088-0.257 0.18-0.39 0.267zM13.523 7.68c0.387-0.195 0.765-0.377 1.136-0.543 0.063 0.425 0.117 0.867 0.163 1.322-0.208-0.134-0.384-0.243-0.477-0.3-0.274-0.168-0.549-0.319-0.822-0.479zM16.492 11.436c0.221 0.168 0.436 0.336 0.643 0.502-0.207 0.176-0.422 0.35-0.642 0.526 0.005-0.201 0.006-0.37 0.006-0.465 0-0.11-0.003-0.316-0.008-0.564zM14.824 15.519c-0.043 0.426-0.093 0.84-0.152 1.237-0.342-0.145-0.693-0.306-1.049-0.474 0.27-0.165 0.54-0.323 0.812-0.497 0.133-0.088 0.255-0.18 0.389-0.267zM9.655 15.841c0.274 0.168 0.548 0.319 0.822 0.479-0.387 0.195-0.765 0.377-1.136 0.543-0.063-0.423-0.117-0.865-0.163-1.321 0.208 0.132 0.384 0.243 0.477 0.3zM20.962 17.469c-0.237 0.387-0.762 0.572-1.503 0.572-0.866 0-2.034-0.264-3.366-0.732 0.159-1.029 0.258-2.034 0.317-2.892 0.67-0.495 1.29-0.996 1.876-1.5 2.117 1.921 3.218 3.666 2.676 4.553zM19.416 5.782c0.687 0 1.181 0.173 1.415 0.537 0.563 0.875-0.5 2.646-2.572 4.618-0.645-0.525-1.281-1.005-1.854-1.411-0.061-0.885-0.163-1.917-0.333-2.972 1.331-0.493 2.493-0.772 3.345-0.772zM12 1.5c0.971 0 1.832 1.622 2.38 4.125-0.789 0.34-1.605 0.738-2.441 1.192-0.803-0.411-1.585-0.771-2.343-1.082 0.546-2.567 1.418-4.236 2.403-4.236zM3.037 6.531c0.237-0.387 0.762-0.572 1.503-0.572 0.866 0 2.034 0.264 3.366 0.732-0.161 1.029-0.258 2.032-0.317 2.892-0.67 0.495-1.29 0.996-1.877 1.5-2.116-1.921-3.217-3.666-2.676-4.553zM7.595 14.472c0.062 0.885 0.163 1.917 0.333 2.972-1.329 0.494-2.492 0.773-3.344 0.773-0.687 0-1.18-0.172-1.414-0.537-0.563-0.875 0.5-2.646 2.573-4.619 0.643 0.525 1.279 1.006 1.853 1.412z"></path>
</svg>
