<!-- Generated by IcoMoon.io -->
<svg version="1.1" xmlns="http://www.w3.org/2000/svg" width="24" height="24" viewBox="0 0 24 24">
<title>scooter</title>
<path d="M19.125 16.716l-0.047-0.173c0.188 0.042 0.37 0.108 0.534 0.202 0.070 0.042 0.15 0.066 0.234 0.066 0.164 0 0.314-0.084 0.398-0.225 0.127-0.22 0.056-0.502-0.164-0.628-0.384-0.225-0.816-0.352-1.261-0.37l-1.355-5.006h-0.286l-2.409-8.883c-0.098-0.361-0.455-0.638-0.83-0.638h-0.53c-0.159-0.323-0.487-0.544-0.872-0.544-0.534 0-0.97 0.436-0.97 0.97s0.436 0.97 0.97 0.97c0.356 0 0.666-0.192 0.834-0.478h0.52l2.33 8.597h-0.286l0.548 2.030-2.142 4.8c-0.066 0.141-0.314 0.305-0.469 0.305h-5.695c-0.323-1.266-1.448-2.142-2.761-2.142-0.75 0-1.458 0.286-1.992 0.811-0.183 0.178-0.188 0.469-0.009 0.652 0.173 0.173 0.473 0.178 0.652 0.009 0.366-0.352 0.844-0.548 1.35-0.548 0.811 0 1.514 0.492 1.8 1.223h-0.291c-0.277-0.619-0.886-1.013-1.566-1.013-0.947 0-1.72 0.773-1.72 1.72s0.773 1.72 1.72 1.72c0.661 0 1.256-0.375 1.542-0.961h6.97c0.731 0 1.509-0.506 1.809-1.172l1.411-3.15 0.291 1.069c-0.862 0.478-1.392 1.373-1.392 2.367 0 0.253 0.206 0.459 0.459 0.459s0.459-0.206 0.459-0.459c0-0.577 0.272-1.102 0.722-1.439l0.075 0.281c-0.366 0.323-0.581 0.792-0.581 1.284 0 0.947 0.773 1.72 1.72 1.72s1.72-0.773 1.72-1.72c0.009-0.853-0.619-1.575-1.444-1.706z"></path>
</svg>
