<svg xmlns="http://www.w3.org/2000/svg" viewBox="0 0 1024 1024"><path d="M816 734.533l-2-7.4c8 1.8 15.8 4.6 22.8 8.6 3 1.8 6.4 2.8 10 2.8 7 0 13.4-3.6 17-9.6 5.4-9.4 2.4-21.4-7-26.8-16.4-9.6-34.8-15-53.8-15.8l-57.8-213.6H733l-102.8-379c-4.2-15.4-19.4-27.2-35.4-27.2h-22.6c-6.8-13.8-20.8-23.2-37.2-23.2-22.8 0-41.4 18.6-41.4 41.4s18.6 41.4 41.4 41.4c15.2 0 28.4-8.2 35.6-20.4h22.2l99.4 366.8H680l23.4 86.6-91.4 204.8c-2.8 6-13.4 13-20 13H349c-13.8-54-61.8-91.4-117.8-91.4-32 0-62.2 12.2-85 34.6-7.8 7.6-8 20-.4 27.8 7.4 7.4 20.2 7.6 27.8.4 15.6-15 36-23.4 57.6-23.4 34.6 0 64.6 21 76.8 52.2h-12.4c-11.8-26.4-37.8-43.2-66.8-43.2-40.4 0-73.4 33-73.4 73.4s33 73.4 73.4 73.4c28.2 0 53.6-16 65.8-41H592c31.2 0 64.4-21.6 77.2-50l60.2-134.4 12.4 45.6c-36.8 20.4-59.4 58.6-59.4 101 0 10.8 8.8 19.6 19.6 19.6s19.6-8.8 19.6-19.6c0-24.6 11.6-47 30.8-61.4l3.2 12c-15.6 13.8-24.8 33.8-24.8 54.8 0 40.4 33 73.4 73.4 73.4s73.4-33 73.4-73.4c.4-36.4-26.4-67.2-61.6-72.8z"/></svg>