<svg xmlns="http://www.w3.org/2000/svg" viewBox="0 0 1024 1024"><path d="M972.728 392.876c-4.333-5.777-8.666-11.193-13.721-16.609-2.528-2.528-4.694-5.055-7.221-7.583L676.649 93.547c-90.99-90.99-238.307-90.99-329.298 0L72.214 368.684c-2.166 2.166-3.972 3.972-5.777 6.138-5.416 5.777-10.471 11.915-15.165 18.054-62.827 82.685-62.827 197.867 0 280.914 6.499 8.305 13.36 16.609 20.942 24.192L346.99 972.758c90.99 90.99 238.307 90.99 329.298 0l274.776-275.137c7.583-7.583 14.804-15.887 20.942-24.192 63.549-82.685 63.549-197.506.722-280.553zM396.096 142.292c64.271-63.91 167.898-63.91 232.169 0l267.554 267.554c-16.609 9.027-36.829 15.887-67.52 15.887-44.773 0-67.882-15.887-88.824-29.247-18.054-12.276-33.941-22.386-66.437-22.386s-48.384 10.471-66.437 22.386c-9.749 6.499-19.859 13.36-32.858 18.776V257.474h68.604L514.889 122.072 387.431 257.474h69.326v155.261c-10.471-5.055-19.137-10.832-27.441-16.248-18.054-12.276-33.941-22.386-66.437-22.386s-48.384 10.471-66.437 22.386c-20.581 14.082-43.69 29.247-88.824 29.247-34.663 0-56.327-9.388-74.02-19.859l262.499-263.583zm367.932 646.319c-8.666-4.694-16.248-9.388-23.47-14.443-18.054-12.276-33.58-22.386-66.437-22.386-32.496 0-48.384 10.471-66.437 22.386-20.581 14.082-43.69 29.247-88.824 29.247-44.773 0-67.882-15.887-88.824-29.247-18.054-12.276-33.941-22.386-66.437-22.386s-48.384 10.471-66.437 22.386c-9.388 6.499-19.498 12.999-31.774 18.415l-31.774-31.774c16.97-3.972 28.525-11.554 41.523-19.859 20.581-14.082 43.69-29.247 88.824-29.247 44.773 0 67.882 15.887 88.824 29.247 18.054 12.276 33.58 22.386 66.437 22.386 32.496 0 48.384-10.471 66.437-22.386 20.581-14.082 43.69-29.247 88.824-29.247 44.773 0 67.882 15.887 88.824 29.247 10.11 6.86 19.498 12.999 31.774 17.331l-31.052 30.33zm139.013-139.374l-12.999 12.999c-15.165 7.221-34.302 12.638-60.66 12.638-44.773 0-67.882-15.887-88.824-29.247-18.054-12.276-33.58-22.386-66.437-22.386-32.496 0-48.384 10.471-66.437 22.386-20.581 14.082-43.69 29.247-88.824 29.247-44.773 0-67.882-15.887-88.824-29.247-18.054-12.276-33.941-22.386-66.437-22.386s-48.384 10.471-66.437 22.386c-20.581 14.082-43.69 29.247-88.824 29.247-44.773 0-68.243-15.887-88.824-29.247l-3.25-2.166c-15.526-17.331-27.08-36.829-33.941-57.772 26.719 5.055 44.051 16.609 59.577 26.719 18.054 12.276 33.58 22.386 66.437 22.386 32.496 0 48.384-10.471 66.437-22.386 20.581-14.082 43.69-29.247 88.824-29.247 44.773 0 67.882 15.887 88.824 29.247 18.054 12.276 33.58 22.386 66.437 22.386 32.496 0 48.384-10.471 66.437-22.386 20.581-14.082 43.69-29.247 88.824-29.247 44.773 0 67.882 15.887 88.824 29.247 18.054 12.276 33.58 22.386 66.437 22.386 32.496 0 48.384-10.471 66.437-22.386 12.638-8.666 26.358-17.693 45.495-23.47-7.944 22.025-20.581 42.606-38.274 60.299zm13.721-132.152c-20.581 14.082-43.69 29.247-88.824 29.247-44.773 0-67.882-15.887-88.824-29.247-18.054-12.276-33.941-22.386-66.437-22.386s-48.384 10.471-66.437 22.386c-20.581 14.082-43.69 29.247-88.824 29.247-44.773 0-67.882-15.887-88.824-29.247-18.054-12.276-33.941-22.386-66.437-22.386s-48.384 10.471-66.437 22.386c-20.581 14.082-43.69 29.247-88.824 29.247-44.773 0-67.882-15.887-88.824-29.247-12.276-8.305-23.831-15.887-40.801-19.859 2.889-12.999 7.583-25.636 13.36-37.913 20.942 5.777 35.746 15.526 49.467 24.553 18.054 12.276 33.58 22.386 66.437 22.386 32.496 0 48.384-10.471 66.437-22.386 20.581-14.082 43.69-29.247 88.824-29.247 44.773 0 67.882 15.887 88.824 29.247 18.054 12.276 33.941 22.386 66.437 22.386s48.384-10.471 66.437-22.386c20.581-14.082 43.69-29.247 88.824-29.247 44.773 0 67.882 15.887 88.824 29.247 18.054 12.276 33.58 22.386 66.437 22.386 32.496 0 48.384-10.471 66.437-22.386 11.554-7.944 23.831-15.887 40.079-21.664 5.777 12.276 10.11 24.914 12.999 38.274-10.832 3.972-20.22 10.11-30.33 16.609z"/></svg>