<svg xmlns="http://www.w3.org/2000/svg" viewBox="0 0 1024 1024"><path d="M882.934 510.424l-17.475 16.212c-15.092 14.226-63.546 51.054-105.538 51.054s-90.265-36.864-105.501-51.054l-17.764-16.609-17.8 16.284c-10.649 8.969-22.431 17.627-34.769 25.489l-1.337.796c-20.544 12.601-45.927 24.371-69.215 24.371-21.952 0-45.782-10.037-65.677-21.664-15.01-8.858-28.005-18.404-39.954-29.094l.238.209-18.053-16.609-17.764 16.753c-15.092 14.226-63.438 51.09-105.429 51.09s-89.832-36.792-105.032-51.018h-.289l-17.006-15.778s-13.251 1.697-16.248 29.101 16.248 35.673 16.248 35.673c24.877 19.244 72.79 49.321 122.327 49.321 50.151 0 98.244-30.871 123.23-50.079 25.021 19.208 73.114 50.079 123.23 50.079s98.208-30.871 123.23-50.079c25.021 19.208 73.295 50.079 123.41 50.079s96.15-30.473 122.941-49.682c11.748-7.493 19.427-20.457 19.427-35.215l-.002-.406v.021c0-24.805-19.425-29.246-19.425-29.246zm72.429-143.16L678.033 90.007C635.505 47.55 576.792 21.295 511.946 21.295S388.387 47.55 345.856 90.01L68.746 367.264C26.272 409.784.004 468.5.004 533.351S26.271 656.918 68.747 699.44l277.328 277.328c42.528 42.457 101.241 68.712 166.087 68.712s123.559-26.255 166.09-68.715l277.11-277.327c42.457-42.528 68.712-101.241 68.712-166.087s-26.255-123.559-68.715-166.09l.003.003zm-48.96 283.07l-277.33 277.33c-29.964 29.898-71.324 48.385-117.001 48.385s-87.037-18.488-117.004-48.388L117.705 650.334c-29.904-29.954-48.397-71.309-48.397-116.983s18.493-87.029 48.399-116.985l277.291-277.328c29.964-29.898 71.324-48.385 117.001-48.385s87.037 18.488 117.004 48.388l277.399 277.327c29.904 29.954 48.397 71.309 48.397 116.983S936.306 620.38 906.4 650.336l.002-.002zm-184.573 59.25c-19.93-7.221-55.567-25.274-69.973-37.55l-17.764-15.309-17.728 14.984c-10.453 8.119-22.242 16.122-34.531 23.368l-1.575.859c-20.508 11.626-45.855 22.494-69.107 22.494-21.916 0-45.746-9.279-65.604-20.075-15.092-8.161-28.094-16.971-40.132-26.907l.416.333-17.764-15.273-17.728 15.453c-14.442 12.673-43.869 28.668-70.659 37.622 0 0-22.205 6.03-14.154 28.885 7.221 20.472 34.914 11.843 34.914 11.843 25.832-7.725 48.323-19.273 68.136-34.189l-.546.394c24.985 17.692 73.006 46.143 123.085 46.143s98.1-28.451 123.085-46.143c16.825 11.915 47.371 30.798 75.57 38.381 8.088 2.166 21.916 2.455 28.451-11.409 10.11-21.916-16.392-33.903-16.392-33.903zm-266.498-199.81h118.427V305.956h69.071L514.185 169.44 385.576 305.956h69.757v203.818z"/></svg>