<!-- Generated by IcoMoon.io -->
<svg version="1.1" xmlns="http://www.w3.org/2000/svg" width="24" height="24" viewBox="0 0 24 24">
<title>sea-level-rise</title>
<path d="M20.694 11.463l-0.41 0.38c-0.354 0.333-1.489 1.197-2.474 1.197s-2.116-0.864-2.473-1.197l-0.416-0.389-0.417 0.382c-0.25 0.21-0.526 0.413-0.815 0.597l-0.031 0.019c-0.482 0.295-1.076 0.571-1.622 0.571-0.515 0-1.073-0.235-1.539-0.508-0.352-0.208-0.656-0.431-0.936-0.682l0.006 0.005-0.423-0.389-0.416 0.393c-0.354 0.333-1.487 1.197-2.471 1.197s-2.105-0.862-2.462-1.196h-0.007l-0.399-0.37s-0.311 0.040-0.381 0.682 0.381 0.836 0.381 0.836c0.583 0.451 1.706 1.156 2.867 1.156 1.175 0 2.303-0.724 2.888-1.174 0.586 0.45 1.714 1.174 2.888 1.174s2.302-0.724 2.888-1.174c0.586 0.45 1.718 1.174 2.892 1.174s2.254-0.714 2.881-1.164c0.275-0.176 0.455-0.479 0.455-0.825 0-0.003-0-0.006-0-0.010v0c0-0.581-0.455-0.685-0.455-0.685z"></path>
<path d="M22.391 8.108l-6.5-6.498c-0.997-0.995-2.373-1.61-3.893-1.61s-2.896 0.615-3.893 1.611l-6.495 6.498c-0.995 0.997-1.611 2.373-1.611 3.893s0.616 2.896 1.611 3.893l6.5 6.5c0.997 0.995 2.373 1.61 3.893 1.61s2.896-0.615 3.893-1.611l6.495-6.5c0.995-0.997 1.61-2.373 1.61-3.893s-0.615-2.896-1.611-3.893l0 0zM21.244 14.742l-6.5 6.5c-0.702 0.701-1.672 1.134-2.742 1.134s-2.040-0.433-2.742-1.134l-6.501-6.5c-0.701-0.702-1.134-1.671-1.134-2.742s0.433-2.040 1.134-2.742l6.499-6.5c0.702-0.701 1.672-1.134 2.742-1.134s2.040 0.433 2.742 1.134l6.502 6.5c0.701 0.702 1.134 1.671 1.134 2.742s-0.433 2.040-1.134 2.742l0-0z"></path>
<path d="M16.918 16.131c-0.467-0.169-1.302-0.592-1.64-0.88l-0.416-0.359-0.415 0.351c-0.245 0.19-0.521 0.378-0.809 0.548l-0.037 0.020c-0.481 0.272-1.075 0.527-1.62 0.527-0.514 0-1.072-0.217-1.538-0.471-0.354-0.191-0.658-0.398-0.941-0.631l0.010 0.008-0.416-0.358-0.415 0.362c-0.338 0.297-1.028 0.672-1.656 0.882 0 0-0.52 0.141-0.332 0.677 0.169 0.48 0.818 0.278 0.818 0.278 0.605-0.181 1.133-0.452 1.597-0.801l-0.013 0.009c0.586 0.415 1.711 1.081 2.885 1.081s2.299-0.667 2.885-1.081c0.394 0.279 1.11 0.722 1.771 0.9 0.19 0.051 0.514 0.058 0.667-0.267 0.237-0.514-0.384-0.795-0.384-0.795z"></path>
<path d="M10.672 11.448h2.776v-4.777h1.619l-3.015-3.2-3.014 3.2h1.635v4.777z"></path>
</svg>
