<!-- Generated by IcoMoon.io -->
<svg version="1.1" xmlns="http://www.w3.org/2000/svg" width="24" height="24" viewBox="0 0 24 24">
<title>sea-level-rise-alt</title>
<path d="M22.798 8.708c-0.102-0.135-0.203-0.262-0.322-0.389-0.059-0.059-0.11-0.118-0.169-0.178l-6.449-6.449c-2.133-2.133-5.585-2.133-7.718 0l-6.449 6.449c-0.051 0.051-0.093 0.093-0.135 0.144-0.127 0.135-0.245 0.279-0.355 0.423-1.473 1.938-1.473 4.638 0 6.584 0.152 0.195 0.313 0.389 0.491 0.567l6.44 6.44c2.133 2.133 5.585 2.133 7.718 0l6.44-6.449c0.178-0.178 0.347-0.372 0.491-0.567 1.489-1.938 1.489-4.629 0.017-6.575zM9.284 2.835c1.506-1.498 3.935-1.498 5.441 0l6.271 6.271c-0.389 0.212-0.863 0.372-1.582 0.372-1.049 0-1.591-0.372-2.082-0.685-0.423-0.288-0.795-0.525-1.557-0.525s-1.134 0.245-1.557 0.525c-0.228 0.152-0.465 0.313-0.77 0.44v-3.698h1.608l-2.987-3.173-2.987 3.173h1.625v3.639c-0.245-0.118-0.449-0.254-0.643-0.381-0.423-0.288-0.795-0.525-1.557-0.525s-1.134 0.245-1.557 0.525c-0.482 0.33-1.024 0.685-2.082 0.685-0.812 0-1.32-0.22-1.735-0.465l6.152-6.178zM17.907 17.983c-0.203-0.11-0.381-0.22-0.55-0.339-0.423-0.288-0.787-0.525-1.557-0.525-0.762 0-1.134 0.245-1.557 0.525-0.482 0.33-1.024 0.685-2.082 0.685-1.049 0-1.591-0.372-2.082-0.685-0.423-0.288-0.795-0.525-1.557-0.525s-1.134 0.245-1.557 0.525c-0.22 0.152-0.457 0.305-0.745 0.432l-0.745-0.745c0.398-0.093 0.669-0.271 0.973-0.465 0.482-0.33 1.024-0.685 2.082-0.685 1.049 0 1.591 0.372 2.082 0.685 0.423 0.288 0.787 0.525 1.557 0.525 0.762 0 1.134-0.245 1.557-0.525 0.482-0.33 1.024-0.685 2.082-0.685 1.049 0 1.591 0.372 2.082 0.685 0.237 0.161 0.457 0.305 0.745 0.406l-0.728 0.711zM21.165 14.716l-0.305 0.305c-0.355 0.169-0.804 0.296-1.422 0.296-1.049 0-1.591-0.372-2.082-0.685-0.423-0.288-0.787-0.525-1.557-0.525-0.762 0-1.134 0.245-1.557 0.525-0.482 0.33-1.024 0.685-2.082 0.685-1.049 0-1.591-0.372-2.082-0.685-0.423-0.288-0.795-0.525-1.557-0.525s-1.134 0.245-1.557 0.525c-0.482 0.33-1.024 0.685-2.082 0.685-1.049 0-1.599-0.372-2.082-0.685-0.025-0.017-0.051-0.034-0.076-0.051-0.364-0.406-0.635-0.863-0.795-1.354 0.626 0.118 1.032 0.389 1.396 0.626 0.423 0.288 0.787 0.525 1.557 0.525 0.762 0 1.134-0.245 1.557-0.525 0.482-0.33 1.024-0.685 2.082-0.685 1.049 0 1.591 0.372 2.082 0.685 0.423 0.288 0.787 0.525 1.557 0.525 0.762 0 1.134-0.245 1.557-0.525 0.482-0.33 1.024-0.685 2.082-0.685 1.049 0 1.591 0.372 2.082 0.685 0.423 0.288 0.787 0.525 1.557 0.525 0.762 0 1.134-0.245 1.557-0.525 0.296-0.203 0.618-0.415 1.066-0.55-0.186 0.516-0.482 0.999-0.897 1.413zM21.487 11.619c-0.482 0.33-1.024 0.685-2.082 0.685-1.049 0-1.591-0.372-2.082-0.685-0.423-0.288-0.795-0.525-1.557-0.525s-1.134 0.245-1.557 0.525c-0.482 0.33-1.024 0.685-2.082 0.685-1.049 0-1.591-0.372-2.082-0.685-0.423-0.288-0.795-0.525-1.557-0.525s-1.134 0.245-1.557 0.525c-0.482 0.33-1.024 0.685-2.082 0.685-1.049 0-1.591-0.372-2.082-0.685-0.288-0.195-0.559-0.372-0.956-0.465 0.068-0.305 0.178-0.601 0.313-0.889 0.491 0.135 0.838 0.364 1.159 0.575 0.423 0.288 0.787 0.525 1.557 0.525 0.762 0 1.134-0.245 1.557-0.525 0.482-0.33 1.024-0.685 2.082-0.685 1.049 0 1.591 0.372 2.082 0.685 0.423 0.288 0.795 0.525 1.557 0.525s1.134-0.245 1.557-0.525c0.482-0.33 1.024-0.685 2.082-0.685 1.049 0 1.591 0.372 2.082 0.685 0.423 0.288 0.787 0.525 1.557 0.525 0.762 0 1.134-0.245 1.557-0.525 0.271-0.186 0.559-0.372 0.939-0.508 0.135 0.288 0.237 0.584 0.305 0.897-0.254 0.093-0.474 0.237-0.711 0.389z"></path>
</svg>
