<!-- Generated by IcoMoon.io -->
<svg version="1.1" xmlns="http://www.w3.org/2000/svg" width="24" height="24" viewBox="0 0 24 24">
<title>search-right</title>
<path d="M13.973 1.445c-4.738 0-8.579 3.841-8.579 8.579 0 2.040 0.716 3.91 1.904 5.385l-5.671 5.671c-0.355 0.355-0.355 0.935 0 1.293 0.355 0.355 0.935 0.355 1.293 0l5.671-5.671c1.472 1.188 3.345 1.904 5.385 1.904 4.738 0 8.579-3.841 8.579-8.579s-3.841-8.582-8.582-8.582v0zM13.973 16.879c-3.779 0-6.854-3.073-6.854-6.854s3.075-6.852 6.854-6.852 6.854 3.073 6.854 6.854-3.073 6.852-6.854 6.852z"></path>
</svg>
