<!-- Generated by IcoMoon.io -->
<svg version="1.1" xmlns="http://www.w3.org/2000/svg" width="24" height="24" viewBox="0 0 24 24">
<title>searching</title>
<path d="M1.5 22.5h13.5c0.828 0 1.5-0.672 1.5-1.5v-2.025c0.319-0.153 0.618-0.336 0.898-0.547l4.604 4.603c0.147 0.147 0.339 0.219 0.531 0.219s0.384-0.073 0.531-0.219c0.293-0.293 0.293-0.768 0-1.061l-4.607-4.607c0.646-0.873 1.043-1.944 1.043-3.114 0-2.091-1.232-3.88-3-4.725v-8.025c0-0.828-0.672-1.5-1.5-1.5h-13.5c-0.828 0-1.5 0.672-1.5 1.5v19.5c0 0.828 0.672 1.5 1.5 1.5zM14.25 18c-2.067 0-3.75-1.683-3.75-3.75s1.683-3.75 3.75-3.75 3.75 1.683 3.75 3.75-1.683 3.75-3.75 3.75zM12.75 6h-9c-0.414 0-0.75-0.336-0.75-0.75s0.336-0.75 0.75-0.75h9c0.414 0 0.75 0.336 0.75 0.75s-0.336 0.75-0.75 0.75zM3.75 9h9c0.145 0 0.273 0.053 0.387 0.123-0.981 0.213-1.86 0.699-2.553 1.377h-6.834c-0.414 0-0.75-0.336-0.75-0.75s0.336-0.75 0.75-0.75zM3.75 13.5h5.325c-0.034 0.247-0.075 0.494-0.075 0.75s0.040 0.503 0.075 0.75h-5.325c-0.414 0-0.75-0.336-0.75-0.75s0.336-0.75 0.75-0.75z"></path>
</svg>
