<svg xmlns="http://www.w3.org/2000/svg" viewBox="0 0 1024 1024"><path d="M961.062 803.442l-30.177-25.048.161-.161-95.791-77.383L700.04 588.929c27.736-49.605 42.029-104.588 42.029-160.305 0-83.326-31.969-166.615-96.36-230.887-62.843-62.885-146.089-93.552-230.802-93.552-175.372 0-324.395 149.065-324.395 324.433 0 176.839 146.17 325.818 322.886 325.818 65.692 0 131.345-19.71 187.51-58.038l139.083 115.219 95.302 76.975-.084.084 32.744 27.124c16.045 13.359 39.835 11.079 52.988-4.931l45.167-54.452c13.281-15.968 10.918-39.707-5.05-52.988zm-403.08-233.088c-39.342 39.426-90.537 58.404-143.074 58.404-106.748 0-198.75-90.579-198.75-200.136 0-106.709 90.579-198.75 198.75-198.75 111.024 0 201.479 90.621 201.479 198.75 0 51.109-20.364 102.267-58.404 141.731z"/></svg>