<!-- Generated by IcoMoon.io -->
<svg version="1.1" xmlns="http://www.w3.org/2000/svg" width="24" height="24" viewBox="0 0 24 24">
<title>search</title>
<path d="M22.525 18.331l-0.707-0.587 0.004-0.004-2.245-1.814-3.169-2.623c0.65-1.163 0.985-2.451 0.985-3.757 0-1.953-0.749-3.905-2.258-5.411-1.473-1.474-3.424-2.193-5.409-2.193-4.11 0-7.603 3.494-7.603 7.604 0 4.145 3.426 7.636 7.568 7.636 1.54 0 3.078-0.462 4.395-1.36l3.26 2.7 2.234 1.804-0.002 0.002 0.767 0.636c0.376 0.313 0.934 0.26 1.242-0.116l1.059-1.276c0.311-0.374 0.256-0.931-0.118-1.242zM13.078 12.868c-0.922 0.924-2.122 1.369-3.353 1.369-2.502 0-4.658-2.123-4.658-4.691 0-2.501 2.123-4.658 4.658-4.658 2.602 0 4.722 2.124 4.722 4.658 0 1.198-0.477 2.397-1.369 3.322z"></path>
</svg>
