<svg xmlns="http://www.w3.org/2000/svg" viewBox="0 0 1024 1024"><path d="M64 981.333h576c35.328 0 64-28.672 64-64v-86.4c13.632-6.528 26.368-14.336 38.336-23.36l196.416 196.416c6.272 6.272 14.464 9.344 22.656 9.344s16.384-3.136 22.656-9.344c12.48-12.48 12.48-32.768 0-45.248L787.52 762.197C815.104 724.949 832 679.253 832 629.333c0-89.216-52.544-165.568-128-201.6v-342.4c0-35.328-28.672-64-64-64H64c-35.328 0-64 28.672-64 64v832c0 35.328 28.672 64 64 64zm544-192c-88.192 0-160-71.808-160-160s71.808-160 160-160 160 71.808 160 160-71.808 160-160 160zm-64-512H160c-17.664 0-32-14.336-32-32s14.336-32 32-32h384c17.664 0 32 14.336 32 32s-14.336 32-32 32zm-384 128h384c6.208 0 11.648 2.24 16.512 5.248-41.856 9.088-79.36 29.824-108.928 58.752H160c-17.664 0-32-14.336-32-32s14.336-32 32-32zm0 192h227.2c-1.472 10.56-3.2 21.056-3.2 32s1.728 21.44 3.2 32H160c-17.664 0-32-14.336-32-32s14.336-32 32-32z"/></svg>