<svg xmlns="http://www.w3.org/2000/svg" viewBox="0 0 1024 1024"><path d="M596.183 82.998c-202.162 0-366.05 163.888-366.05 366.05 0 87.033 30.538 166.84 81.231 229.748L69.401 920.759c-15.167 15.167-15.167 39.903 0 55.172 15.167 15.167 39.903 15.167 55.172 0l241.963-241.963c62.807 50.693 142.715 81.231 229.748 81.231 202.162 0 366.05-163.888 366.05-366.05S798.446 82.998 596.183 82.998zm0 658.503c-161.241 0-292.453-131.11-292.453-292.453s131.212-292.351 292.453-292.351 292.453 131.11 292.453 292.453-131.11 292.351-292.453 292.351z"/></svg>