<!-- Generated by IcoMoon.io -->
<svg version="1.1" xmlns="http://www.w3.org/2000/svg" width="24" height="24" viewBox="0 0 24 24">
<title>security-network</title>
<path d="M17.1 8.325h-1.5v-2.4c0-1.875-1.5-3.375-3.375-3.375s-3.375 1.5-3.375 3.375v2.4h-1.425c-0.525 0-0.975 0.375-0.975 0.975v7.725c0 0.525 0.375 0.975 0.975 0.975h9.675c0.525 0 0.975-0.375 0.975-0.975v-7.65c0-0.525-0.45-1.050-0.975-1.050zM13.875 16.35h-3.225v-0.075l0.9-3.075c-0.375-0.3-0.675-0.75-0.675-1.275 0-0.825 0.675-1.5 1.5-1.5 0.9 0 1.5 0.675 1.5 1.5 0 0.6-0.375 1.050-0.825 1.35l0.825 3.075zM13.875 8.475h-3.15v-2.475c0-0.9 0.675-1.575 1.575-1.575s1.575 0.675 1.575 1.575v2.475z"></path>
<path d="M19.35 11.325h0.075c0.75 0 2.625 0 2.625-2.625v-4.8c0.45-0.15 0.75-0.6 0.75-1.050 0-0.675-0.525-1.2-1.2-1.2s-1.2 0.525-1.2 1.2c0 0.525 0.375 0.975 0.825 1.125v4.725c0 1.725-0.9 1.875-1.875 1.875h-0.075c-0.225 0-0.375 0.15-0.375 0.375s0.225 0.375 0.45 0.375z"></path>
<path d="M22.050 20.4v-1.65c0-1.050 0-3.375-2.1-3.375h-0.6c-0.225 0-0.375 0.15-0.375 0.375s0.15 0.375 0.375 0.375h0.6c0.975 0 1.35 0.75 1.35 2.625v1.65c-0.525 0.15-0.825 0.6-0.825 1.125 0 0.675 0.525 1.2 1.2 1.2s1.2-0.525 1.2-1.2c-0.075-0.525-0.375-0.9-0.825-1.125z"></path>
<path d="M2.175 6.375v2.325c0 2.625 1.875 2.625 2.625 2.625 0 0 0.225 0 0.375 0s0.45-0.075 0.45-0.375-0.375-0.375-0.45-0.375-0.375 0-0.375 0c-0.975 0-1.875-0.15-1.875-1.875v-2.325c0.45-0.15 0.825-0.6 0.825-1.125 0-0.675-0.525-1.2-1.2-1.2s-1.2 0.525-1.2 1.2c0 0.525 0.375 0.975 0.825 1.125z"></path>
<path d="M2.55 16.875c0.525 0 0.9-0.3 1.125-0.75h1.65c0.225 0 0.375-0.15 0.375-0.375s-0.15-0.375-0.375-0.375h-1.65c-0.15-0.525-0.6-0.9-1.125-0.9-0.675 0-1.2 0.525-1.2 1.2s0.525 1.2 1.2 1.2z"></path>
<path d="M15.075 20.475v-1.125c0-0.225-0.15-0.375-0.375-0.375s-0.375 0.15-0.375 0.375v1.125c-0.45 0.15-0.825 0.6-0.825 1.125 0 0.675 0.525 1.2 1.2 1.2s1.2-0.525 1.2-1.2c0-0.525-0.375-0.975-0.825-1.125z"></path>
<path d="M9.825 19.425c0-0.15-0.075-0.45-0.375-0.45s-0.375 0.3-0.375 0.45c0 0.15 0 0.375 0 0.375 0 1.125-0.45 1.35-2.4 1.35h-3c-0.15-0.45-0.6-0.825-1.125-0.825-0.675 0-1.2 0.525-1.2 1.2s0.525 1.2 1.2 1.2c0.525 0 0.975-0.375 1.125-0.825h3c1.65 0 3.15-0.15 3.15-2.1 0 0 0-0.225 0-0.375z"></path>
</svg>
