<svg xmlns="http://www.w3.org/2000/svg" viewBox="0 0 1024 1024"><path d="M825.6 485.333h3.2c32 0 112 0 112-112v-204.8c19.2-6.4 35.2-25.6 35.2-48 0-28.8-22.4-51.2-51.2-51.2s-51.2 22.4-51.2 51.2c0 22.4 16 41.6 35.2 48v204.8c0 73.6-38.4 80-80 80h-3.2c-9.6 0-16 6.4-16 16s6.4 16 16 16zm-732.8-316.8v204.8c0 112 80 112 112 112 0 0 19.2 0 19.2-16s-12.8-16-12.8-16h-6.4c-41.6 0-80-6.4-80-80v-204.8c19.2-6.4 35.2-25.6 35.2-48 0-28.8-22.4-51.2-51.2-51.2s-51.2 22.4-51.2 51.2c0 22.4 16 41.6 35.2 48zm16 553.6c22.4 0 38.4-12.8 48-32h102.4c9.6 0 16-6.4 16-16s-6.4-16-16-16H156.8c-6.4-22.4-25.6-38.4-48-38.4-28.8 0-51.2 22.4-51.2 51.2s22.4 51.2 51.2 51.2zm534.4 153.6v-89.6c0-9.6-6.4-16-16-16s-16 6.4-16 16v89.6c-19.2 6.4-35.2 25.6-35.2 48 0 28.8 22.4 51.2 51.2 51.2s51.2-22.4 51.2-51.2c0-22.4-16-41.6-35.2-48zm-240-105.6c-16 0-16 16-16 16v60.8c0 48-19.2 57.6-102.4 57.6h-128c-6.4-19.2-25.6-35.2-48-35.2-28.8 0-51.2 22.4-51.2 51.2s22.4 51.2 51.2 51.2c22.4 0 41.6-16 48-35.2h128c70.4 0 134.4-6.4 134.4-89.6v-60.8s0-16-16-16zm537.6 96v-67.2c0-44.8 0-144-89.6-144h-25.6c-9.6 0-16 6.4-16 16s6.4 16 16 16h25.6c41.6 0 57.6 32 57.6 112v67.2c-22.4 6.4-38.4 25.6-38.4 51.2 0 28.8 22.4 51.2 51.2 51.2 28.8 0 51.2-22.4 51.2-51.2 3.2-25.6-12.8-44.8-32-51.2zM512 712.533c80-25.6 214.4-112 236.8-387.2l-236.8-89.6-236.8 89.6c22.4 275.2 156.8 361.6 236.8 387.2zm-102.4-268.8c9.6-6.4 16-3.2 22.4 3.2l60.8 60.8s131.2-137.6 134.4-144c6.4-6.4 16-12.8 25.6-3.2 3.2 3.2 9.6 9.6 16 12.8 6.4 6.4 6.4 16 0 25.6-3.2 6.4-147.2 166.4-147.2 166.4-9.6 9.6-19.2 12.8-25.6 12.8-9.6 0-19.2-3.2-25.6-9.6l-80-80c-9.6-9.6-6.4-16 0-25.6l19.2-19.2zm371.2-160L512 181.333l-268.8 102.4-19.2 9.6v22.4c25.6 339.2 201.6 425.6 288 448 83.2-22.4 262.4-112 288-448v-22.4l-19.2-9.6zm-268.8 448c-83.2-25.6-233.6-115.2-256-419.2l256-99.2 256 99.2c-22.4 304-172.8 393.6-256 419.2z"/></svg>