<svg xmlns="http://www.w3.org/2000/svg" viewBox="0 0 1024 1024"><path d="M729.6 376.533h-64v-102.4c0-80-64-144-144-144s-144 64-144 144v102.4h-60.8c-22.4 0-41.6 16-41.6 41.6v329.6c0 22.4 16 41.6 41.6 41.6h412.8c22.4 0 41.6-16 41.6-41.6v-326.4c0-22.4-19.2-44.8-41.6-44.8zM592 718.933H454.4v-3.2l38.4-131.2c-16-12.8-28.8-32-28.8-54.4 0-35.2 28.8-64 64-64 38.4 0 64 28.8 64 64 0 25.6-16 44.8-35.2 57.6l35.2 131.2zm0-336H457.6v-105.6c0-38.4 28.8-67.2 67.2-67.2s67.2 28.8 67.2 67.2v105.6zm233.6 121.6h3.2c32 0 112 0 112-112v-204.8c19.2-6.4 32-25.6 32-44.8 0-28.8-22.4-51.2-51.2-51.2s-51.2 22.4-51.2 51.2c0 22.4 16 41.6 35.2 48v201.6c0 73.6-38.4 80-80 80h-3.2c-9.6 0-16 6.4-16 16s9.6 16 19.2 16zm115.2 387.2v-70.4c0-44.8 0-144-89.6-144h-25.6c-9.6 0-16 6.4-16 16s6.4 16 16 16h25.6c41.6 0 57.6 32 57.6 112v70.4c-22.4 6.4-35.2 25.6-35.2 48 0 28.8 22.4 51.2 51.2 51.2s51.2-22.4 51.2-51.2c-3.2-22.4-16-38.4-35.2-48zm-848-598.4v99.2c0 112 80 112 112 112h16c6.4 0 19.2-3.2 19.2-16s-16-16-19.2-16h-16c-41.6 0-80-6.4-80-80v-99.2c19.2-6.4 35.2-25.6 35.2-48 0-28.8-22.4-51.2-51.2-51.2s-51.2 22.4-51.2 51.2c0 22.4 16 41.6 35.2 48zm16 448c22.4 0 38.4-12.8 48-32h70.4c9.6 0 16-6.4 16-16s-6.4-16-16-16h-70.4c-6.4-22.4-25.6-38.4-48-38.4-28.8 0-51.2 22.4-51.2 51.2s22.4 51.2 51.2 51.2zm534.4 153.6v-48c0-9.6-6.4-16-16-16s-16 6.4-16 16v48c-19.2 6.4-35.2 25.6-35.2 48 0 28.8 22.4 51.2 51.2 51.2s51.2-22.4 51.2-51.2c0-22.4-16-41.6-35.2-48zm-224-44.8c0-6.4-3.2-19.2-16-19.2s-16 12.8-16 19.2v16c0 48-19.2 57.6-102.4 57.6h-128c-6.4-19.2-25.6-35.2-48-35.2-28.8 0-51.2 22.4-51.2 51.2s22.4 51.2 51.2 51.2c22.4 0 41.6-16 48-35.2h128c70.4 0 134.4-6.4 134.4-89.6v-16z"/></svg>