<!-- Generated by IcoMoon.io -->
<svg version="1.1" xmlns="http://www.w3.org/2000/svg" width="24" height="24" viewBox="0 0 24 24">
<title>security-system</title>
<path d="M19.35 10.875h0.075c0.75 0 2.625 0 2.625-2.625v-4.8c0.45-0.15 0.825-0.6 0.825-1.125 0-0.675-0.525-1.2-1.2-1.2s-1.2 0.525-1.2 1.2c0 0.525 0.375 0.975 0.825 1.125v4.8c0 1.725-0.9 1.875-1.875 1.875h-0.075c-0.225 0-0.375 0.15-0.375 0.375s0.15 0.375 0.375 0.375z"></path>
<path d="M2.175 3.45v4.8c0 2.625 1.875 2.625 2.625 2.625 0 0 0.45 0 0.45-0.375s-0.3-0.375-0.3-0.375c-0.15 0-0.15 0-0.15 0-0.975 0-1.875-0.15-1.875-1.875v-4.8c0.45-0.15 0.825-0.6 0.825-1.125 0-0.675-0.525-1.2-1.2-1.2s-1.2 0.525-1.2 1.2c0 0.525 0.375 0.975 0.825 1.125z"></path>
<path d="M2.55 16.425c0.525 0 0.9-0.3 1.125-0.75h2.4c0.225 0 0.375-0.15 0.375-0.375s-0.15-0.375-0.375-0.375h-2.4c-0.15-0.525-0.6-0.9-1.125-0.9-0.675 0-1.2 0.525-1.2 1.2s0.525 1.2 1.2 1.2z"></path>
<path d="M15.075 20.025v-2.1c0-0.225-0.15-0.375-0.375-0.375s-0.375 0.15-0.375 0.375v2.1c-0.45 0.15-0.825 0.6-0.825 1.125 0 0.675 0.525 1.2 1.2 1.2s1.2-0.525 1.2-1.2c0-0.525-0.375-0.975-0.825-1.125z"></path>
<path d="M9.45 17.55c-0.375 0-0.375 0.375-0.375 0.375v1.425c0 1.125-0.45 1.35-2.4 1.35h-3c-0.15-0.45-0.6-0.825-1.125-0.825-0.675 0-1.2 0.525-1.2 1.2s0.525 1.2 1.2 1.2c0.525 0 0.975-0.375 1.125-0.825h3c1.65 0 3.15-0.15 3.15-2.1 0 0 0-1.275 0-1.425 0 0 0-0.375-0.375-0.375z"></path>
<path d="M22.050 19.8v-1.575c0-1.050 0-3.375-2.1-3.375h-0.6c-0.225 0-0.375 0.15-0.375 0.375s0.15 0.375 0.375 0.375h0.6c0.975 0 1.35 0.75 1.35 2.625v1.575c-0.525 0.15-0.9 0.6-0.9 1.2 0 0.675 0.525 1.2 1.2 1.2 0 0 0 0 0 0s0 0 0 0c0.675 0 1.2-0.525 1.2-1.2 0 0 0 0 0 0s0 0 0 0c0.075-0.6-0.3-1.050-0.75-1.2z"></path>
<path d="M12 16.2c1.875-0.6 5.025-2.625 5.55-9.075l-5.55-2.1-5.55 2.1c0.525 6.45 3.675 8.475 5.55 9.075zM9.6 9.9c0.225-0.15 0.375-0.075 0.525 0.075 0.075 0.075 1.425 1.425 1.425 1.425s3.075-3.225 3.15-3.375c0.15-0.15 0.375-0.3 0.6-0.075 0.075 0.075 0.225 0.225 0.375 0.3 0.15 0.15 0.15 0.375 0 0.6-0.075 0.15-3.45 3.9-3.45 3.9-0.225 0.225-0.45 0.3-0.6 0.3-0.225 0-0.45-0.075-0.6-0.225s-1.875-1.875-1.875-1.875c-0.225-0.225-0.15-0.375 0-0.6 0.075-0.075 0.375-0.375 0.45-0.45z"></path>
<path d="M18.3 6.15l-6.3-2.4-6.3 2.4-0.45 0.225v0.525c0.6 7.95 4.725 9.975 6.75 10.5 0 0 0 0 0 0s0 0 0 0c1.95-0.525 6.15-2.625 6.75-10.5v-0.525l-0.45-0.225zM12 16.65v0c0 0 0 0 0 0s0 0 0 0v0c-1.95-0.6-5.475-2.7-6-9.825l6-2.325 6 2.325c-0.525 7.125-4.050 9.225-6 9.825z"></path>
</svg>
