<!-- Generated by IcoMoon.io -->
<svg version="1.1" xmlns="http://www.w3.org/2000/svg" width="24" height="24" viewBox="0 0 24 24">
<title>server</title>
<path d="M20.372 7.709c0.628 0 0.942-0.209 0.837-0.419-1.256-2.302-2.512-4.605-3.767-6.907-0.104-0.209-0.523-0.419-0.837-0.419-3.663 0-5.546 0-9.209 0-0.314 0-0.733 0.209-0.837 0.419-1.256 2.302-2.512 4.605-3.767 6.907-0.104 0.209 0.209 0.419 0.837 0.419 5.546 0 11.198 0 16.744 0z"></path>
<path d="M21.314 9.279c-0.104 0.209-0.419 0.314-0.837 0.314-5.651 0-11.407 0-17.058 0-0.419 0-0.733-0.104-0.837-0.314v0.419c0 0 0 0 0 0s0 0 0 0v3.767c0 0 0 0 0 0s0 0 0 0v4.291c0 0.104 0 0.209 0.104 0.314 0 0 0 0-0.104-0.104v0.419c0 0 0 0 0 0s0 0 0 0v3.14c0 0.523 0.419 0.942 0.837 0.942h16.954c0.419 0 0.837-0.419 0.837-0.942v-3.14c0 0 0 0 0 0s0 0 0 0v-0.419c0 0 0 0-0.104 0.104 0-0.104 0.104-0.209 0.104-0.314v-4.291c0 0 0 0 0 0s0 0 0 0v0-3.558c0 0 0 0 0 0s0 0 0 0v-0.628zM6.035 12.523v8.581c0 0.209-0.314 0.314-0.628 0.314s-0.628-0.104-0.628-0.314v-10.256c0-0.209 0.314-0.314 0.628-0.314s0.628 0.104 0.628 0.314v1.675zM9.070 12.523v8.581c0 0.209-0.314 0.314-0.628 0.314s-0.628-0.104-0.628-0.314v-10.256c0-0.209 0.314-0.314 0.628-0.314s0.628 0.104 0.628 0.314v1.675zM12.209 12.523v8.581c0 0.209-0.314 0.314-0.628 0.314s-0.628-0.104-0.628-0.314v-10.256c0-0.209 0.314-0.314 0.628-0.314s0.628 0.104 0.628 0.314v1.675zM15.349 12.523v8.581c0 0.209-0.314 0.314-0.628 0.314s-0.628-0.104-0.628-0.314v-10.256c0-0.209 0.314-0.314 0.628-0.314s0.628 0.104 0.628 0.314v1.675zM18.175 12.942c-0.628 0-1.256-0.523-1.256-1.256 0-0.628 0.523-1.256 1.256-1.256 0.628 0 1.256 0.523 1.256 1.256 0 0.628-0.523 1.256-1.256 1.256z"></path>
</svg>
