<svg xmlns="http://www.w3.org/2000/svg" viewBox="0 0 1024 1024"><path d="M869.202 350.265c26.799 0 40.19-8.933 35.715-17.866A4614472.472 4614472.472 0 0 1 744.174 37.694c-4.458-8.933-22.324-17.866-35.715-17.866H315.525c-13.391 0-31.257 8.933-35.715 17.866a4614472.472 4614472.472 0 0 0-160.743 294.705c-4.458 8.933 8.933 17.866 35.715 17.866h714.421zm40.19 66.973c-4.458 8.933-17.866 13.391-35.715 13.391H145.865c-17.866 0-31.257-4.458-35.715-13.391v361.677c0 4.458 0 8.933 4.458 13.391l-4.458-4.458v151.827c0 22.324 17.866 40.19 35.715 40.19h723.352c17.866 0 35.715-17.866 35.715-40.19V787.848l-4.458 4.458c0-4.458 4.458-8.933 4.458-13.391V417.237zM257.485 555.657v366.135c0 8.933-13.391 13.391-26.799 13.391s-26.799-4.458-26.799-13.391V484.21c0-8.933 13.391-13.391 26.799-13.391s26.799 4.458 26.799 13.391v71.447zm129.487 0v366.135c0 8.933-13.391 13.391-26.799 13.391s-26.799-4.458-26.799-13.391V484.21c0-8.933 13.391-13.391 26.799-13.391s26.799 4.458 26.799 13.391v71.447zm133.961 0v366.135c0 8.933-13.391 13.391-26.799 13.391s-26.799-4.458-26.799-13.391V484.21c0-8.933 13.391-13.391 26.799-13.391s26.799 4.458 26.799 13.391v71.447zm133.945 0v366.135c0 8.933-13.391 13.391-26.799 13.391s-26.799-4.458-26.799-13.391V484.21c0-8.933 13.391-13.391 26.799-13.391s26.799 4.458 26.799 13.391v71.447zm120.569 17.866c-26.799 0-53.581-22.324-53.581-53.581 0-26.799 22.324-53.581 53.581-53.581 26.799 0 53.581 22.324 53.581 53.581 0 26.799-22.324 53.581-53.581 53.581z"/></svg>