<!-- Generated by IcoMoon.io -->
<svg version="1.1" xmlns="http://www.w3.org/2000/svg" width="24" height="24" viewBox="0 0 24 24">
<title>severe-weather</title>
<path d="M11.665 17.224l-0.044-0.076 3.839-3.837c-1.131 0-2.233 0-3.336 0.005-0.082 0.012-0.153 0.054-0.201 0.115l-0 0.001q-1.632 2.090-3.255 4.187c-0.202 0.259-0.396 0.527-0.622 0.83h2.821l-2.84 4.481 0.054 0.043 6.269-5.657c-0.017-0.030-0.035-0.060-0.054-0.086z"></path>
<path d="M18.52 18.446c-0.075-0.035-0.162-0.056-0.254-0.056-0.179 0-0.339 0.077-0.45 0.201l-0 0.001q-1.083 1.062-2.144 2.147c-0.112 0.113-0.194 0.256-0.23 0.416l-0.001 0.006c-0.010 0.038-0.016 0.082-0.016 0.127 0 0.206 0.122 0.383 0.297 0.464l0.003 0.001c0.268 0.131 0.54 0.093 0.777-0.141q1.077-1.067 2.143-2.148c0.113-0.115 0.177-0.279 0.263-0.42-0.052-0.286-0.134-0.488-0.388-0.598z"></path>
<path d="M4.904 17.871c-0.066-0.026-0.143-0.041-0.223-0.041-0.182 0-0.347 0.079-0.46 0.204l-0 0.001c-0.72 0.711-1.438 1.424-2.145 2.148-0.181 0.186-0.278 0.441-0.187 0.696 0.165 0.463 0.66 0.534 1.036 0.159 0.719-0.712 1.437-1.426 2.143-2.15 0.111-0.114 0.164-0.285 0.243-0.432 0-0.006 0-0.013 0-0.020 0-0.261-0.168-0.483-0.402-0.563l-0.004-0.001z"></path>
<path d="M23.906 9.604c-0.546-2.647-2.846-4.612-5.609-4.639l-0.003-0c-0.45 0-0.908 0.091-1.349 0.18-0.155 0.031-0.313 0.064-0.469 0.091h-0.025l-0.073 0.012c-0.013-0.017-0.022-0.037-0.027-0.060l-0-0.001c-0.406-1.292-1.209-2.362-2.263-3.095l-0.019-0.013c-1.353-0.959-2.908-1.291-4.62-0.987-1.278 0.226-2.392 0.849-3.312 1.849-0.641 0.678-1.121 1.515-1.372 2.446l-0.009 0.040c-0.086 0.349-0.162 0.779-0.211 1.218l-0.004 0.048c-0.022 0.173-0.044 0.345-0.070 0.518l-0.052 0.008c-0.108 0.016-0.235 0.035-0.362 0.052-1.21 0.141-2.257 0.744-2.975 1.625l-0.006 0.008c-0.961 1.166-1.279 2.529-0.95 4.048 0.227 1.024 0.784 1.893 1.551 2.51l0.009 0.007c0.7 0.595 1.594 0.981 2.576 1.051l0.014 0.001c0.37 0.024 0.744 0.033 1.117 0.033s0.77-0.009 1.148-0.018l0.369-0.008c0.226-0.004 0.425-0.119 0.544-0.293l0.001-0.002c0.078-0.112 0.125-0.25 0.125-0.4 0-0.082-0.014-0.162-0.040-0.235l0.002 0.005c-0.098-0.28-0.417-0.477-0.777-0.478h-0.345c-0.577 0-1.174-0.007-1.761 0.004-0.029 0.001-0.064 0.002-0.099 0.002-0.412 0-0.806-0.082-1.165-0.23l0.020 0.007c-1.175-0.484-1.998-1.6-2.048-2.913l-0-0.006c-0.001-0.029-0.001-0.062-0.001-0.096 0-0.709 0.228-1.365 0.614-1.898l-0.007 0.009c0.691-1.016 2.056-1.581 3.258-1.342 0.146 0.027 0.32 0.047 0.496 0.055l0.008 0c0.079 0.005 0.161 0.010 0.243 0.018l0.123 0.011-0.054-0.363c-0.024-0.162-0.046-0.309-0.067-0.456-0.044-0.25-0.069-0.537-0.069-0.83 0-0.339 0.034-0.67 0.098-0.991l-0.005 0.032c0.217-1.036 0.725-1.899 1.554-2.624 0.719-0.639 1.65-1.055 2.675-1.132l0.015-0.001c0.116-0.011 0.25-0.017 0.386-0.017 0.824 0 1.596 0.228 2.253 0.626l-0.020-0.011c1.166 0.684 1.923 1.676 2.245 2.948 0.065 0.251 0.117 0.504 0.173 0.771 0.026 0.124 0.052 0.25 0.080 0.379l0.025 0.116 0.109-0.047c0.086-0.038 0.173-0.073 0.249-0.106 0.173-0.073 0.331-0.14 0.487-0.218 0.581-0.306 1.27-0.485 2-0.485 1.427 0 2.693 0.684 3.49 1.742l0.008 0.011c0.534 0.695 0.866 1.571 0.893 2.523l0 0.006c0.002 0.051 0.004 0.111 0.004 0.171 0 0.834-0.246 1.611-0.669 2.262l0.010-0.016c-0.835 1.316-2.036 2.016-3.568 2.080-0.292 0.013-0.591 0.009-0.88 0.005s-0.573-0.006-0.863 0c-0.494 0.020-0.777 0.266-0.824 0.714-0.002 0.016-0.003 0.036-0.003 0.055 0 0.154 0.061 0.294 0.159 0.397l-0-0c0.138 0.145 0.332 0.234 0.548 0.234 0.009 0 0.018-0 0.027-0l-0.001 0c0.254-0.005 0.513 0 0.763 0 0.626 0.008 1.273 0.016 1.916-0.096 1.177-0.205 2.203-0.744 3.004-1.515l-0.002 0.002c0.508-0.494 0.925-1.078 1.226-1.727l0.015-0.036c0.521-1.073 0.66-2.272 0.42-3.546z"></path>
</svg>
