<svg xmlns="http://www.w3.org/2000/svg" viewBox="0 0 1024 1024"><path d="M497.708 756.219l-1.879-3.241 163.803-163.729c-48.253 0-95.291 0-142.329.221a13.205 13.205 0 0 0-8.561 4.908l-.021.028q-69.617 89.176-138.866 178.647c-8.619 11.05-16.907 22.506-26.558 35.398h120.375L342.486 999.622l2.284 1.842 267.492-241.377c-.737-1.289-1.51-2.578-2.284-3.683zm292.466 52.157c-3.181-1.511-6.912-2.394-10.85-2.394-7.619 0-14.466 3.304-19.186 8.558l-.021.024q-46.227 45.306-91.46 91.607a36.767 36.767 0 0 0-9.824 17.765l-.048.247c-.437 1.63-.688 3.5-.688 5.43 0 8.775 5.192 16.337 12.671 19.783l.135.056c11.419 5.599 23.022 3.978 33.151-6.004q45.969-45.527 91.423-91.644c4.825-4.899 7.551-11.898 11.235-17.902-2.21-12.192-5.709-20.812-16.539-25.526zM209.22 783.845c-2.824-1.12-6.096-1.77-9.519-1.77-7.786 0-14.788 3.36-19.633 8.709l-.02.022c-30.72 30.315-61.366 60.74-91.534 91.644-7.735 7.919-11.861 18.822-7.993 29.689 7.035 19.743 28.142 22.764 44.201 6.778 30.683-30.388 61.293-60.851 91.423-91.718 4.752-4.862 6.999-12.155 10.387-18.417.009-.251.014-.547.014-.843 0-11.142-7.17-20.61-17.148-24.041l-.179-.053zm810.765-352.728c-23.309-112.925-121.413-196.791-239.303-197.911l-.122-.001c-19.191 0-38.75 3.868-57.536 7.698-6.593 1.326-13.371 2.726-20.001 3.904h-1.068l-3.131.516a6.15 6.15 0 0 1-1.136-2.539l-.006-.039c-17.338-55.143-51.582-100.789-96.568-132.063l-.823-.541c-57.72-40.923-124.059-55.068-197.138-42.102-54.515 9.651-102.068 36.208-141.297 78.9-27.358 28.912-47.811 64.643-58.54 104.366l-.395 1.718c-3.689 14.873-6.928 33.24-9.023 51.953l-.186 2.047c-.921 7.367-1.879 14.734-2.984 22.101l-2.21.332c-4.604.7-10.019 1.51-15.434 2.21-51.614 6.006-96.282 31.741-126.953 69.344l-.274.347C4.86 451.12-8.732 509.245 5.339 574.074c9.677 43.704 33.441 80.759 66.194 107.088l.366.285c29.854 25.387 68.01 41.84 109.89 44.829l.614.035c15.802 1.031 31.751 1.4 47.664 1.4s32.856-.368 48.99-.774l15.728-.332c9.653-.185 18.123-5.092 23.216-12.5l.063-.097c3.341-4.764 5.34-10.683 5.34-17.068 0-3.518-.607-6.895-1.721-10.031l.065.209c-4.162-11.934-17.791-20.333-33.151-20.406h-14.734c-24.605 0-50.095-.295-75.142.184a126.5 126.5 0 0 1-4.21.068c-17.599 0-34.383-3.489-49.698-9.814l.865.317c-50.146-20.666-85.239-68.248-87.4-124.275l-.008-.262a132.169 132.169 0 0 1-.061-4.096c0-30.249 9.716-58.229 26.196-80.989l-.278.403c29.468-43.354 87.703-67.444 139.014-57.241 6.236 1.17 13.635 2.014 21.167 2.345l.344.012c3.389.221 6.851.442 10.387.774l5.267.479-2.284-15.471c-1.031-6.925-1.952-13.187-2.873-19.449-1.876-10.647-2.949-22.906-2.949-35.415 0-14.471 1.435-28.607 4.172-42.274l-.228 1.367c9.245-44.201 30.941-81.036 66.302-111.977a193.377 193.377 0 0 1 114.129-48.288l.647-.039c4.939-.465 10.679-.73 16.481-.73 35.177 0 68.078 9.747 96.149 26.688l-.836-.468c49.763 29.173 82.031 71.496 95.77 125.79 2.763 10.719 5.009 21.511 7.367 32.893 1.105 5.304 2.21 10.682 3.426 16.17l1.068 4.936 4.641-2.026c3.683-1.621 7.367-3.094 10.608-4.531 7.367-3.094 14.108-5.967 20.775-9.319 24.79-13.035 54.167-20.685 85.33-20.685 60.867 0 114.919 29.183 148.926 74.32l.343.475c22.801 29.667 36.941 67.04 38.081 107.665l.006.261c.096 2.181.151 4.738.151 7.308 0 35.598-10.496 68.745-28.563 96.514l.418-.685c-35.619 56.136-86.856 86.009-152.237 88.734-12.45.553-25.195.405-37.534.221s-24.458-.258-36.835 0c-21.069.847-33.151 11.345-35.177 30.462a23.647 23.647 0 0 0-.113 2.348 24.41 24.41 0 0 0 6.789 16.926l-.009-.009c5.893 6.167 14.183 10.001 23.369 10.001.383 0 .765-.007 1.144-.02l-.055.002c10.829-.221 21.88 0 32.562 0 26.705.332 54.331.663 81.736-4.089 50.215-8.746 93.989-31.755 128.19-64.647l-.079.076c21.673-21.076 39.475-45.997 52.329-73.682l.639-1.534c22.248-45.785 28.178-96.948 17.902-151.316z"/></svg>