<!-- Generated by IcoMoon.io -->
<svg version="1.1" xmlns="http://www.w3.org/2000/svg" width="24" height="24" viewBox="0 0 24 24">
<title>share</title>
<path d="M23.029 18.586c-0.397 2.38-2.618 3.967-4.919 3.57-2.38-0.397-3.967-2.618-3.57-4.919 0 0 0 0 0 0l-5.554-2.38c-0.793 0.873-2.063 1.349-3.332 1.111-2.063-0.317-3.412-2.222-3.094-4.285s2.222-3.412 4.285-3.094c0.635 0.079 1.27 0.397 1.746 0.793l5.951-3.491c-0.079-0.317-0.079-0.635 0-0.952 0.317-1.746 1.904-2.936 3.65-2.618s2.936 1.904 2.618 3.65c-0.317 1.746-1.904 2.936-3.65 2.618-0.555-0.079-0.952-0.317-1.349-0.555l-5.951 3.491c0.079 0.397 0.079 0.714 0.079 1.111l5.713 2.38c0.952-1.031 2.38-1.587 3.809-1.349 2.301 0.317 3.967 2.539 3.57 4.919z"></path>
</svg>
