<!-- Generated by IcoMoon.io -->
<svg version="1.1" xmlns="http://www.w3.org/2000/svg" width="24" height="24" viewBox="0 0 24 24">
<title>share-snapchat</title>
<path d="M20.725 0.267h-17.45c-1.65 0-3 1.35-3 3v17.458c0 1.65 1.35 3 3 3h17.458c1.65 0 3-1.35 3-3v-17.45c0-1.658-1.35-3.008-3.008-3.008zM20.375 16.617c-0.15 0.35-0.9 0.633-2.167 0.833-0.117 0.017-0.167 0.208-0.242 0.525-0.025 0.133-0.058 0.258-0.1 0.392-0.025 0.117-0.133 0.2-0.25 0.192h-0.017c-0.125-0.008-0.242-0.017-0.358-0.042-0.317-0.067-0.633-0.1-0.95-0.1-0.233 0-0.458 0.017-0.683 0.058-0.475 0.125-0.925 0.35-1.3 0.667-0.642 0.55-1.442 0.867-2.283 0.9-0.050 0-0.092 0-0.125 0-0.025 0-0.058 0-0.083 0-0.842-0.033-1.642-0.35-2.283-0.9-0.375-0.317-0.825-0.542-1.3-0.667-0.225-0.042-0.458-0.058-0.683-0.058-0.317 0-0.642 0.042-0.95 0.108-0.117 0.025-0.242 0.042-0.358 0.050-0.125 0.017-0.242-0.067-0.275-0.192-0.042-0.133-0.067-0.267-0.1-0.392-0.067-0.317-0.117-0.508-0.242-0.525-1.267-0.192-2.017-0.483-2.167-0.833-0.017-0.033-0.025-0.075-0.025-0.108-0.008-0.1 0.067-0.192 0.167-0.208 1.050-0.192 1.992-0.75 2.658-1.583 0.367-0.425 0.675-0.9 0.908-1.408l0.008-0.008c0.142-0.225 0.175-0.508 0.083-0.758-0.167-0.383-0.708-0.558-1.058-0.667-0.092-0.025-0.175-0.058-0.242-0.083-0.317-0.125-0.842-0.392-0.767-0.758 0.108-0.283 0.383-0.467 0.692-0.45 0.075 0 0.142 0.017 0.208 0.042 0.267 0.133 0.558 0.217 0.858 0.225 0.175 0.017 0.358-0.042 0.492-0.15-0.008-0.167-0.017-0.342-0.033-0.508-0.167-1.142-0.092-2.308 0.208-3.425 0.717-1.633 2.342-2.683 4.125-2.667h0.342c1.792-0.025 3.417 1.025 4.133 2.667 0.3 1.117 0.367 2.283 0.208 3.425v0.058c-0.008 0.158-0.017 0.308-0.025 0.45 0.125 0.1 0.283 0.158 0.45 0.15 0.283-0.025 0.558-0.1 0.808-0.225 0.083-0.033 0.175-0.058 0.267-0.050 0.1 0 0.208 0.017 0.3 0.058h0.008c0.225 0.050 0.392 0.233 0.425 0.458 0 0.175-0.125 0.442-0.775 0.7-0.067 0.025-0.15 0.050-0.242 0.083-0.358 0.117-0.9 0.283-1.058 0.667-0.083 0.258-0.050 0.533 0.083 0.758l0.008 0.008c0.658 1.5 1.975 2.608 3.567 2.992 0.1 0.017 0.175 0.108 0.167 0.208-0.008 0.017-0.017 0.050-0.033 0.092z"></path>
</svg>
