<svg xmlns="http://www.w3.org/2000/svg" viewBox="0 0 1024 1024"><path d="M850.457 117.056H183.179c-55.273 0-99.976 43.836-99.976 97.956v653.316c0 54.082 44.7 97.956 99.976 97.956h667.278c55.238 0 100.011-43.874 100.011-97.956V215.012c0-54.12-44.776-97.956-100.011-97.956zM719.346 680.029C623.556 804.61 542.452 866.88 476.174 866.88c-41.13 0-75.838-37.919-104.305-113.865-18.942-69.562-37.919-139.048-56.826-208.607-21.178-75.908-43.766-113.792-67.974-113.792-5.266 0-23.706 11.04-55.273 33.301l-33.158-42.864c34.778-30.522 69.127-61.117 102.898-91.75 46.326-40.12 81.177-61.26 104.413-63.356 54.838-5.266 88.644 32.256 101.38 112.566 13.638 86.624 23.09 140.455 28.432 161.598 15.766 71.833 33.19 107.767 52.208 107.767 14.794 0 36.906-23.306 66.456-69.956 29.55-46.58 45.278-82.006 47.444-106.398 4.224-40.266-11.618-60.466-47.444-60.466-16.957 0-34.276 3.862-52.132 11.58 34.6-113.503 100.732-168.668 198.507-165.495 72.376 2.09 106.506 49.178 102.32 140.96-3.176 68.66-51.052 162.643-143.774 281.923z"/></svg>