<!-- Generated by IcoMoon.io -->
<svg version="1.1" xmlns="http://www.w3.org/2000/svg" width="24" height="24" viewBox="0 0 24 24">
<title>share-Instagram</title>
<path d="M14.925 12c0 1.615-1.31 2.925-2.925 2.925s-2.925-1.31-2.925-2.925c0-1.615 1.31-2.925 2.925-2.925s2.925 1.31 2.925 2.925z"></path>
<path d="M16.35 1.5h-8.7c-3.45 0-6.15 2.7-6.15 6.15v8.775c0 3.375 2.775 6.15 6.15 6.15h8.775c3.375 0 6.15-2.775 6.15-6.15v-8.775c-0.075-3.45-2.775-6.15-6.225-6.15zM12 16.875c-2.7 0-4.875-2.175-4.875-4.875s2.175-4.875 4.875-4.875 4.875 2.175 4.875 4.875-2.175 4.875-4.875 4.875zM18.225 7.575c-0.675 0-1.275-0.6-1.275-1.275s0.6-1.275 1.275-1.275c0.675 0 1.275 0.6 1.275 1.275s-0.525 1.275-1.275 1.275z"></path>
</svg>
