<!-- Generated by IcoMoon.io -->
<svg version="1.1" xmlns="http://www.w3.org/2000/svg" width="24" height="24" viewBox="0 0 24 24">
<title>share-pinterest</title>
<path fill="#000" d="M19.933 2.243h-15.639c-1.295 0-2.343 1.027-2.343 2.296v15.312c0 1.268 1.048 2.296 2.343 2.296h15.639c1.295 0 2.344-1.028 2.344-2.296v-15.312c0-1.268-1.049-2.296-2.344-2.296zM13.565 16.057c-1.039 0-2.018-0.563-2.352-1.201 0 0-0.56 2.219-0.678 2.648-0.417 1.513-1.644 3.027-1.739 3.152-0.066 0.086-0.213 0.059-0.229-0.055-0.026-0.193-0.338-2.101 0.030-3.659 0.185-0.783 1.239-5.249 1.239-5.249s-0.307-0.615-0.307-1.525c0-1.427 0.828-2.492 1.857-2.492 0.876 0 1.299 0.657 1.299 1.445 0 0.882-0.561 2.199-0.851 3.419-0.241 1.021 0.512 1.854 1.52 1.854 1.824 0 3.053-2.343 3.053-5.122 0-2.111-1.421-3.69-4.006-3.69-2.921 0-4.741 2.179-4.741 4.613 0 0.838 0.248 1.431 0.636 1.888 0.178 0.21 0.202 0.296 0.138 0.537-0.047 0.177-0.152 0.605-0.196 0.773-0.063 0.244-0.262 0.332-0.482 0.241-1.345-0.548-1.973-2.024-1.973-3.68 0-2.735 2.308-6.016 6.884-6.016 3.678 0 6.098 2.66 6.098 5.518-0.002 3.778-2.102 6.602-5.198 6.602z"></path>
</svg>
