<!-- Generated by IcoMoon.io -->
<svg version="1.1" xmlns="http://www.w3.org/2000/svg" width="24" height="24" viewBox="0 0 24 24">
<title>share-googleplus</title>
<path fill="#000" d="M12.077 2.432h7.755c-0.017 0-0.032-0.005-0.050-0.005h-15.344c-0.017 0-0.032 0.004-0.050 0.005h7.688z"></path>
<path fill="#000" d="M9.419 10.246c0-1.179-0.301-2.368-0.905-3.567-0.285-0.574-0.655-1.042-1.116-1.403-0.472-0.341-1.015-0.523-1.625-0.542-0.812 0.019-1.486 0.347-2.021 0.979-0.454 0.664-0.674 1.403-0.654 2.223 0 1.082 0.319 2.208 0.951 3.378 0.306 0.545 0.703 1.007 1.187 1.387s1.038 0.571 1.662 0.571c0.786-0.028 1.441-0.312 1.968-0.847 0.252-0.38 0.417-0.771 0.488-1.169 0.044-0.4 0.066-0.737 0.066-1.010z"></path>
<path fill="#000" d="M7.868 18.086c-0.19-0.018-0.415-0.029-0.672-0.029-0.154-0.020-0.543 0-1.171 0.057-0.618 0.087-1.254 0.229-1.902 0.423-0.152 0.057-0.364 0.148-0.641 0.263-0.275 0.126-0.557 0.307-0.842 0.539-0.18 0.158-0.338 0.341-0.481 0.548 0.097 1.156 1.074 2.068 2.28 2.068h6.621c-0.017-0.723-0.26-1.356-0.735-1.901-0.523-0.535-1.343-1.191-2.456-1.969z"></path>
<path fill="#000" d="M6.18 15.201c0-0.263 0.035-0.482 0.114-0.659 0.062-0.188 0.124-0.358 0.183-0.514-0.34 0.037-0.661 0.059-0.962 0.059-1.426-0.017-2.546-0.423-3.366-1.211v5.334c0.732-0.336 1.49-0.571 2.272-0.708 1.057-0.155 1.934-0.244 2.632-0.261-0.216-0.284-0.407-0.587-0.576-0.91-0.197-0.31-0.296-0.688-0.296-1.13z"></path>
<path fill="#000" d="M22.004 4.122c-0.251-0.958-1.121-1.668-2.171-1.691h-15.444c-1.22 0.027-2.198 0.978-2.241 2.17v1.068c0.087-0.093 0.178-0.186 0.272-0.275 0.85-0.701 1.734-1.158 2.652-1.372 0.906-0.183 1.758-0.276 2.55-0.276h5.98l-1.847 1.078h-1.846c0.189 0.117 0.4 0.288 0.636 0.511 0.226 0.233 0.446 0.52 0.663 0.86 0.206 0.321 0.389 0.7 0.549 1.138 0.13 0.437 0.197 0.947 0.197 1.531-0.017 1.070-0.253 1.926-0.709 2.569-0.223 0.31-0.46 0.597-0.709 0.86-0.277 0.265-0.571 0.532-0.882 0.804-0.177 0.183-0.343 0.394-0.494 0.627-0.179 0.245-0.269 0.524-0.269 0.847 0 0.31 0.091 0.567 0.275 0.771 0.156 0.197 0.305 0.368 0.451 0.513l1.016 0.831c0.631 0.514 1.183 1.085 1.659 1.707 0.448 0.632 0.68 1.461 0.698 2.478 0 0.376-0.049 0.737-0.134 1.087h6.925c1.073 0 1.966-0.723 2.221-1.696v-16.139zM21.707 8.531h-3.139v3.139h-1.519v-3.139h-3.139v-1.521h3.139v-3.139h1.519v3.139h3.139v1.521z"></path>
</svg>
