<!-- Generated by IcoMoon.io -->
<svg version="1.1" xmlns="http://www.w3.org/2000/svg" width="24" height="24" viewBox="0 0 24 24">
<title>share-button</title>
<path fill="#000" d="M20.082 2.060h-15.934c-1.32 0-2.387 1.047-2.387 2.339v15.601c0 1.291 1.067 2.339 2.387 2.339h15.934c1.319 0 2.388-1.048 2.388-2.339v-15.601c0-1.292-1.069-2.339-2.388-2.339zM19.152 16.391c-0.272 1.68-1.855 2.82-3.535 2.547-1.678-0.273-2.818-1.855-2.544-3.535 0.001-0.004 0.003-0.009 0.003-0.013l-3.989-1.703c-0.586 0.619-1.458 0.948-2.361 0.8-1.453-0.236-2.436-1.604-2.202-3.057 0.237-1.45 1.605-2.436 3.057-2.2 0.481 0.078 0.901 0.289 1.252 0.577l4.264-2.503c-0.034-0.227-0.044-0.459-0.005-0.698 0.201-1.238 1.37-2.080 2.609-1.878s2.081 1.371 1.879 2.609c-0.202 1.24-1.369 2.081-2.608 1.88-0.37-0.060-0.699-0.214-0.98-0.423l-4.242 2.491c0.058 0.263 0.069 0.537 0.044 0.816l4.071 1.694c0.677-0.724 1.691-1.107 2.744-0.937 1.678 0.274 2.818 1.857 2.545 3.534z"></path>
</svg>
