<!-- Generated by IcoMoon.io -->
<svg version="1.1" xmlns="http://www.w3.org/2000/svg" width="24" height="24" viewBox="0 0 24 24">
<title>share-linkedin</title>
<path fill="#000" d="M19.783 2.427h-15.345c-1.271 0-2.299 1.008-2.299 2.253v15.024c0 1.244 1.028 2.253 2.299 2.253h15.345c1.27 0 2.3-1.009 2.3-2.253v-15.024c0-1.245-1.030-2.253-2.3-2.253zM6.97 8.438c-0.899 0-1.626-0.728-1.626-1.626s0.728-1.627 1.626-1.627c0.896 0 1.625 0.73 1.625 1.627s-0.729 1.626-1.625 1.626zM8.372 9.67v9.023h-2.808v-9.023h2.808zM18.872 18.694h-2.801v-4.386c0-1.050-0.020-2.393-1.459-2.393-1.459 0-1.68 1.137-1.68 2.316v4.462h-2.803v-9.023h2.69v1.233h0.038c0.373-0.709 1.289-1.458 2.653-1.458 2.837 0 3.362 1.868 3.362 4.298v4.951z"></path>
</svg>
