<!-- Generated by IcoMoon.io -->
<svg version="1.1" xmlns="http://www.w3.org/2000/svg" width="24" height="24" viewBox="0 0 24 24">
<title>share-youtube</title>
<path fill="#000" d="M19.933 2.244h-15.639c-1.295 0-2.343 1.027-2.343 2.296v15.312c0 1.268 1.048 2.296 2.343 2.296h15.639c1.295 0 2.344-1.028 2.344-2.296v-15.312c0-1.268-1.049-2.296-2.344-2.296zM19.717 12.769c0 1.249-0.153 2.496-0.153 2.496s-0.151 1.064-0.609 1.533c-0.583 0.616-1.235 0.617-1.535 0.654-2.143 0.156-5.36 0.16-5.36 0.16s-3.98-0.036-5.206-0.154c-0.341-0.065-1.105-0.046-1.689-0.66-0.458-0.469-0.608-1.533-0.608-1.533s-0.154-1.248-0.154-2.496v-1.17c0-1.25 0.154-2.498 0.154-2.498s0.15-1.064 0.608-1.531c0.583-0.616 1.235-0.618 1.535-0.654 2.143-0.157 5.356-0.157 5.356-0.157h0.008c0 0 3.213 0 5.356 0.157 0.299 0.036 0.951 0.039 1.535 0.654 0.458 0.468 0.609 1.531 0.609 1.531s0.153 1.249 0.153 2.498v1.171z"></path>
<path fill="#000" d="M9.873 15.329l5.884-3.205-5.884-3.081z"></path>
</svg>
