<svg xmlns="http://www.w3.org/2000/svg" viewBox="0 0 1024 1024"><path d="M982.567 814.317C965.64 915.879 870.85 983.584 772.674 966.657 671.112 949.73 603.407 854.94 620.334 756.764L383.359 655.202c-33.854 37.24-88.018 57.55-142.185 47.395-88.018-13.541-145.571-94.79-132.03-182.811s94.79-145.571 182.811-132.03c27.082 3.386 54.167 16.927 74.477 33.854l253.902-148.957c-3.386-13.541-3.386-27.082 0-40.623 13.541-74.477 81.249-125.258 155.726-111.717s125.258 81.249 111.717 155.726c-13.541 74.477-81.249 125.258-155.726 111.717-23.699-3.386-40.623-13.541-57.55-23.699L420.599 513.014c3.386 16.927 3.386 30.468 3.386 47.395l243.747 101.562c40.623-44.009 101.562-67.708 162.498-57.55 98.176 13.541 169.267 108.331 152.34 209.893z"/></svg>