<!-- Generated by IcoMoon.io -->
<svg version="1.1" xmlns="http://www.w3.org/2000/svg" width="24" height="24" viewBox="0 0 24 24">
<title>share-vimeo</title>
<path fill="#000" d="M19.933 2.244h-15.639c-1.295 0-2.343 1.027-2.343 2.296v15.312c0 1.268 1.048 2.296 2.343 2.296h15.639c1.295 0 2.344-1.028 2.344-2.296v-15.312c0-1.268-1.049-2.296-2.344-2.296zM16.86 15.438c-2.245 2.92-4.146 4.379-5.699 4.379-0.964 0-1.777-0.889-2.445-2.669-0.444-1.63-0.889-3.259-1.332-4.889-0.496-1.779-1.026-2.667-1.593-2.667-0.123 0-0.556 0.259-1.295 0.78l-0.777-1.005c0.815-0.715 1.62-1.432 2.412-2.15 1.086-0.94 1.903-1.436 2.447-1.485 1.285-0.123 2.078 0.756 2.376 2.638 0.32 2.030 0.541 3.292 0.666 3.787 0.37 1.684 0.778 2.526 1.224 2.526 0.347 0 0.865-0.546 1.558-1.64 0.693-1.092 1.061-1.922 1.112-2.494 0.099-0.944-0.272-1.417-1.112-1.417-0.397 0-0.803 0.091-1.222 0.271 0.811-2.66 2.361-3.953 4.653-3.879 1.696 0.049 2.496 1.153 2.398 3.304-0.074 1.609-1.197 3.812-3.37 6.608z"></path>
</svg>
