<svg xmlns="http://www.w3.org/2000/svg" viewBox="0 0 1024 1024"><path d="M856.835 109.208H176.983c-56.315 0-101.86 44.662-101.86 99.802v665.627c0 55.101 45.542 99.802 101.86 99.802h679.852c56.279 0 101.896-44.701 101.896-99.802V209.01c0-55.14-45.62-99.802-101.896-99.802zm-39.666 611.484c-11.617 71.682-79.144 120.311-150.823 108.659-71.604-11.649-120.237-79.144-108.549-150.823.039-.181.11-.369.149-.55l-170.193-72.672c-24.994 26.431-62.194 40.436-100.757 34.149-61.974-10.07-103.954-68.446-93.955-130.42 10.109-61.864 68.482-103.954 130.42-93.88 20.509 3.346 38.449 12.316 53.412 24.625l181.92-106.785c-1.437-9.669-1.877-19.59-.22-29.777 8.562-52.823 58.447-88.735 111.306-80.134 52.894 8.601 88.774 58.483 80.173 111.306-8.601 52.894-58.408 88.81-111.27 80.205-15.804-2.576-29.809-9.151-41.834-18.05L415.947 502.816c2.466 11.209 2.938 22.901 1.877 34.812l173.684 72.268c28.89-30.877 72.158-47.235 117.075-39.996 71.604 11.688 120.237 79.215 108.584 150.784z"/></svg>