<svg xmlns="http://www.w3.org/2000/svg" viewBox="0 0 1024 1024"><path d="M850.458 117.051h-667.28c-55.274 0-99.976 43.836-99.976 97.956v653.318c0 54.082 44.7 97.956 99.976 97.956h667.28c55.238 0 100.012-43.874 100.012-97.956V215.007c0-54.12-44.776-97.956-100.012-97.956zM806.55 406.839c.254 6.206.432 12.412.432 18.688 0 189.992-144.642 409.066-409.1 409.066-81.178 0-156.764-23.814-220.372-64.618 11.256 1.372 22.696 2.02 34.312 2.02 67.358 0 129.308-22.944 178.556-61.552-62.956-1.118-116.066-42.718-134.396-99.83 8.842 1.734 17.824 2.598 27.096 2.598 13.098 0 25.796-1.804 37.92-5.088-65.846-13.276-115.346-71.366-115.346-140.996v-1.842c19.374 10.786 41.528 17.284 65.16 18.04-38.64-25.834-63.966-69.814-63.966-119.71 0-26.304 7.038-51.014 19.412-72.268 70.966 87.024 176.932 144.21 296.388 150.196-2.42-10.424-3.716-21.468-3.716-32.688 0-79.408 64.366-143.774 143.774-143.774 41.346 0 78.726 17.424 104.918 45.352 32.796-6.422 63.5-18.364 91.316-34.816-10.754 33.552-33.552 61.696-63.284 79.516 29.15-3.538 56.858-11.218 82.622-22.658-19.304 28.756-43.69 54.152-71.726 74.358z"/></svg>