<!-- Generated by IcoMoon.io -->
<svg version="1.1" xmlns="http://www.w3.org/2000/svg" width="24" height="24" viewBox="0 0 24 24">
<title>share-twitter</title>
<path fill="#000" d="M19.933 2.243h-15.639c-1.295 0-2.343 1.027-2.343 2.296v15.312c0 1.268 1.048 2.296 2.343 2.296h15.639c1.295 0 2.344-1.028 2.344-2.296v-15.312c0-1.268-1.049-2.296-2.344-2.296zM18.904 9.035c0.006 0.145 0.010 0.291 0.010 0.438 0 4.453-3.39 9.587-9.588 9.587-1.903 0-3.674-0.558-5.165-1.514 0.264 0.032 0.532 0.047 0.804 0.047 1.579 0 3.031-0.538 4.185-1.443-1.476-0.026-2.72-1.001-3.15-2.34 0.207 0.041 0.418 0.061 0.635 0.061 0.307 0 0.605-0.042 0.889-0.119-1.543-0.311-2.703-1.673-2.703-3.305 0-0.015 0-0.028 0-0.043 0.454 0.253 0.973 0.405 1.527 0.423-0.906-0.605-1.499-1.636-1.499-2.806 0-0.616 0.165-1.196 0.455-1.694 1.663 2.040 4.147 3.38 6.947 3.52-0.057-0.244-0.087-0.503-0.087-0.766 0-1.861 1.509-3.37 3.37-3.37 0.969 0 1.845 0.408 2.459 1.063 0.769-0.151 1.488-0.43 2.14-0.816-0.252 0.786-0.786 1.446-1.483 1.864 0.683-0.083 1.333-0.263 1.936-0.531-0.452 0.674-1.024 1.269-1.681 1.743z"></path>
</svg>
