<svg xmlns="http://www.w3.org/2000/svg" viewBox="0 0 1024 1024"><path d="M856.837 109.204H176.975c-56.317 0-101.86 44.662-101.86 99.802v665.631c0 55.101 45.542 99.802 101.86 99.802h322.742V629.272h-118.77v-137.59h118.77V390.191c0-117.813 71.94-181.922 176.997-181.922 50.357 0 93.66 3.825 106.234 5.365v123.145h-72.821c-57.159 0-68.226 27.162-68.226 66.977v87.926h136.231l-17.642 137.59H641.907v345.167h214.967c56.279 0 101.898-44.701 101.898-99.802V209.006c-.039-55.14-45.652-99.802-101.931-99.802z"/></svg>