<svg xmlns="http://www.w3.org/2000/svg" viewBox="0 0 1024 1024"><path d="M515.291 125.111h330.875c-.742 0-1.383-.212-2.125-.212H189.372c-.742 0-1.383.175-2.125.212h328.042zM401.873 458.5c0-50.302-12.851-101.028-38.622-152.181-12.141-24.494-27.928-44.462-47.61-59.86-20.143-14.547-43.291-22.3-69.348-23.116-34.656.816-63.4 14.796-86.232 41.77-19.364 28.32-28.744 59.86-27.896 94.833 0 46.161 13.593 94.197 40.567 144.11 13.063 23.259 29.984 42.973 50.657 59.187 20.636 16.211 44.282 24.356 70.904 24.356 33.556-1.203 61.489-13.312 83.967-36.142 10.763-16.211 17.806-32.886 20.816-49.878 1.876-17.064 2.798-31.436 2.798-43.079zm-66.161 334.518c-8.108-.779-17.7-1.24-28.675-1.24-6.582-.848-23.185 0-49.984 2.443-26.37 3.715-53.524 9.772-81.134 18.055-6.476 2.443-15.538 6.301-27.364 11.219-11.754 5.379-23.752 13.098-35.93 23.01-7.682 6.762-14.441 14.547-20.53 23.365 4.144 49.311 45.808 88.251 97.276 88.251h282.483c-.742-30.832-11.081-57.843-31.362-81.1-22.3-22.83-57.311-50.832-104.78-84.001zm-72.035-123.116c0-11.219 1.489-20.567 4.849-28.108 2.655-8.002 5.31-15.257 7.79-21.913-14.515 1.558-28.214 2.512-41.063 2.512-60.851-.742-108.638-18.055-143.614-51.683v227.581c31.224-14.335 63.577-24.356 96.958-30.196 45.098-6.619 82.515-10.408 112.287-11.15-9.205-12.104-17.345-25.029-24.568-38.834-8.426-13.238-12.639-29.346-12.639-48.214zM938.842 197.22c-10.689-40.885-47.822-71.187-92.639-72.144H187.249c-52.072 1.134-93.773 41.736-95.612 92.568v45.559a302.9 302.9 0 0 1 11.611-11.754c36.285-29.91 73.985-49.417 113.135-58.548 38.654-7.822 75.011-11.786 108.816-11.786h255.154l-78.797 45.983h-78.763c8.071 4.992 17.064 12.284 27.117 21.807 9.629 9.947 19.046 22.194 28.283 36.709 8.781 13.699 16.603 29.878 23.434 48.569 5.559 18.654 8.389 40.392 8.389 65.31-.742 45.665-10.795 82.197-30.231 109.595-9.523 13.238-19.613 25.485-30.231 36.672-11.823 11.293-24.356 22.692-37.631 34.303-7.573 7.822-14.653 16.815-21.097 26.762-7.647 10.445-11.468 22.374-11.468 36.142 0 13.206 3.895 24.213 11.754 32.886 6.656 8.426 13.026 15.681 19.258 21.876l43.365 35.469c26.905 21.945 50.477 46.301 70.763 72.851 19.115 26.974 29.025 62.337 29.772 105.737 0 16.036-2.088 31.436-5.697 46.373H844.05c45.771 0 83.895-30.832 94.764-72.356V197.22zm-12.674 188.111H792.254v133.914h-64.817V385.331H593.486v-64.886h133.951V186.494h64.817v133.951h133.914v64.886z"/></svg>