<svg xmlns="http://www.w3.org/2000/svg" viewBox="0 0 1024 1024"><path d="M850.458 117.055h-667.28c-55.274 0-99.976 43.836-99.976 97.956v653.318c0 54.082 44.7 97.956 99.976 97.956h667.28c55.238 0 100.012-43.874 100.012-97.956V215.011c0-54.12-44.776-97.956-100.012-97.956zM578.78 706.439c-44.342 0-86.122-24.03-100.37-51.23 0 0-23.884 94.672-28.934 112.964-17.786 64.544-70.138 129.164-74.18 134.466-2.814 3.678-9.09 2.528-9.776-2.344-1.118-8.226-14.432-89.658 1.264-156.114 7.902-33.41 52.856-223.942 52.856-223.942s-13.098-26.228-13.098-65.052c0-60.902 35.322-106.326 79.23-106.326 37.376 0 55.416 28.032 55.416 61.66 0 37.63-23.922 93.806-36.296 145.868-10.284 43.548 21.864 79.122 64.868 79.122 77.82 0 130.244-99.976 130.244-218.53 0-90.054-60.612-157.448-170.942-157.448-124.616 0-202.294 92.976-202.294 196.812 0 35.756 10.57 61.044 27.13 80.564 7.578 8.95 8.62 12.628 5.882 22.912-2.02 7.54-6.492 25.796-8.372 32.974-2.706 10.424-11.186 14.178-20.566 10.284-57.402-23.38-84.172-86.338-84.172-157.016 0-116.68 98.458-256.7 293.72-256.7 156.942 0 260.168 113.504 260.168 235.414-.07 161.202-89.692 281.67-221.776 281.67z"/></svg>