<!-- Generated by IcoMoon.io -->
<svg version="1.1" xmlns="http://www.w3.org/2000/svg" width="24" height="24" viewBox="0 0 24 24">
<title>share-facebook</title>
<path fill="#000" d="M20.082 2.059h-15.934c-1.32 0-2.387 1.047-2.387 2.339v15.601c0 1.291 1.067 2.339 2.387 2.339h7.564v-8.090h-2.784v-3.225h2.784v-2.379c0-2.761 1.686-4.264 4.148-4.264 1.18 0 2.195 0.090 2.49 0.126v2.886h-1.707c-1.34 0-1.599 0.637-1.599 1.57v2.061h3.193l-0.413 3.225h-2.779v8.090h5.038c1.319 0 2.388-1.048 2.388-2.339v-15.601c-0.001-1.292-1.070-2.339-2.389-2.339z"></path>
</svg>
