<svg xmlns="http://www.w3.org/2000/svg" viewBox="0 0 1024 1024"><path d="M246.269 413.535v24.185h-.44v235.443L390.88 536.64zm489.039-35.142H294.937l220.15 187.545zm48.707 35.069L639.331 536.64l145.09 136.523V437.72h-.401zm71.02-304.256H175.181c-56.316 0-101.86 44.662-101.86 99.802v665.629c0 55.101 45.542 99.802 101.86 99.802h679.854c56.279 0 101.897-44.701 101.897-99.802V209.008c0-55.14-45.62-99.802-101.897-99.802zm-12.387 273.303v381.374h-655.08V381.48c-.039-.88-.291-1.767-.291-2.686 0-.958.259-1.909.291-2.796 1.437-29.997 25.072-53.923 54.92-55.871 1.288-.071 2.537-.401 3.825-.401v.401l537.707-.401c1.249 0 2.498.33 3.825.401 29.518 1.948 52.894 25.292 54.81 54.81.071 1.288.401 2.498.401 3.825 0 1.288-.33 2.498-.401 3.747zM515.087 642.435l-93.736-81.972-145.86 145.2h479.042l-145.124-145.75z"/></svg>