<!-- Generated by IcoMoon.io -->
<svg version="1.1" xmlns="http://www.w3.org/2000/svg" width="24" height="24" viewBox="0 0 24 24">
<title>share-flickr</title>
<path fill="#000" d="M15.71 10.241c-1.047 0-1.898 0.849-1.898 1.894s0.852 1.897 1.898 1.897c1.042 0 1.894-0.851 1.894-1.897s-0.852-1.894-1.894-1.894z"></path>
<path fill="#000" d="M19.898 2.243h-15.639c-1.295 0-2.343 1.027-2.343 2.296v15.312c0 1.268 1.048 2.296 2.343 2.296h15.639c1.295 0 2.344-1.028 2.344-2.296v-15.312c0-1.268-1.049-2.296-2.344-2.296zM8.257 15.043c-1.605 0-2.906-1.3-2.906-2.907 0-1.605 1.301-2.907 2.906-2.907 1.604 0 2.907 1.302 2.907 2.907 0 1.607-1.302 2.907-2.907 2.907zM15.71 15.043c-1.603 0-2.907-1.304-2.907-2.907s1.304-2.906 2.907-2.906c1.602 0 2.905 1.304 2.905 2.906s-1.304 2.907-2.905 2.907z"></path>
</svg>
