<svg xmlns="http://www.w3.org/2000/svg" viewBox="0 0 1024 1024"><path d="M844.08 124.899H189.374c-54.232 0-98.092 43.01-98.092 96.11v641.007c0 53.063 43.858 96.11 98.092 96.11H844.08c54.197 0 98.127-43.047 98.127-96.11V221.009c0-53.1-43.932-96.11-98.127-96.11zM297.376 381.364c-38.336 0-69.383-31.081-69.383-69.383 0-38.267 31.044-69.417 69.383-69.417 38.23 0 69.348 31.15 69.348 69.417 0 38.302-31.118 69.383-69.348 69.383zm59.823 52.568v385H237.408v-385h119.791zm448.01 385H685.702v-187.12c0-44.78-.848-102.091-62.231-102.091-62.268 0-71.683 48.532-71.683 98.834v190.376H432.175v-385h114.764v52.602h1.627c15.93-30.233 55.011-62.197 113.206-62.197 121.065 0 143.437 79.719 143.437 183.368v211.227z"/></svg>