<svg xmlns="http://www.w3.org/2000/svg" viewBox="0 0 1024 1024"><path d="M636.8 533.333c0 68.925-55.875 124.8-124.8 124.8s-124.8-55.875-124.8-124.8 55.875-124.8 124.8-124.8 124.8 55.875 124.8 124.8zm60.8-448H326.4c-147.2 0-262.4 115.2-262.4 262.4v374.4c0 144 118.4 262.4 262.4 262.4h374.4c144 0 262.4-118.4 262.4-262.4v-374.4c-3.2-147.2-118.4-262.4-265.6-262.4zm-185.6 656c-115.2 0-208-92.8-208-208s92.8-208 208-208 208 92.8 208 208-92.8 208-208 208zm265.6-396.8c-28.8 0-54.4-25.6-54.4-54.4s25.6-54.4 54.4-54.4c28.8 0 54.4 25.6 54.4 54.4s-22.4 54.4-54.4 54.4z"/></svg>