<svg xmlns="http://www.w3.org/2000/svg" viewBox="0 0 1024 1024"><path d="M921.6 245.333L512 88.533l-409.6 156.8-32 12.8 3.2 35.2c38.4 515.2 310.4 649.6 438.4 684.8 128-35.2 400-169.6 438.4-684.8l3.2-35.2-32-12.8zM512 930.133c-128-38.4-358.4-176-390.4-640l390.4-150.4 390.4 150.4c-32 464-262.4 601.6-390.4 640zm-364.8-627.2c41.6 512 329.6 588.8 364.8 598.4 35.2-9.6 323.2-86.4 364.8-598.4L512 165.333l-364.8 137.6zm550.4 57.6c6.4-6.4 25.6-19.2 41.6-6.4 3.2 3.2 16 12.8 25.6 22.4s9.6 25.6 0 38.4-240 262.4-240 262.4c-12.8 12.8-32 22.4-41.6 22.4-16 0-28.8-6.4-38.4-16s-124.8-124.8-124.8-128c-12.8-12.8-9.6-25.6 0-38.4 3.2-3.2 25.6-25.6 32-28.8 12.8-9.6 25.6-6.4 35.2 3.2l96 96s208-220.8 214.4-227.2z"/></svg>