<!-- Generated by IcoMoon.io -->
<svg version="1.1" xmlns="http://www.w3.org/2000/svg" width="24" height="24" viewBox="0 0 24 24">
<title>shield-check</title>
<path d="M21.6 5.25l-9.6-3.675-9.6 3.675-0.75 0.3 0.075 0.825c0.9 12.075 7.275 15.225 10.275 16.050 0 0 0 0 0 0s0 0 0 0c3-0.825 9.375-3.975 10.275-16.050l0.075-0.825-0.75-0.3zM12 21.3v0c0 0 0 0 0 0s0 0 0 0v0c-3-0.9-8.4-4.125-9.15-15l9.15-3.525 9.15 3.525c-0.75 10.875-6.15 14.1-9.15 15z"></path>
<path d="M3.45 6.6c0.975 12 7.725 13.8 8.55 14.025 0 0 0 0 0 0s0 0 0 0c0.825-0.225 7.575-2.025 8.55-14.025l-8.55-3.225-8.55 3.225zM16.35 7.95c0.15-0.15 0.6-0.45 0.975-0.15 0.075 0.075 0.375 0.3 0.6 0.525s0.225 0.6 0 0.9-5.625 6.15-5.625 6.15c-0.3 0.3-0.75 0.525-0.975 0.525-0.375 0-0.675-0.15-0.9-0.375s-2.925-2.925-2.925-3c-0.3-0.3-0.225-0.6 0-0.9 0.075-0.075 0.6-0.6 0.75-0.675 0.3-0.225 0.6-0.15 0.825 0.075 0.075 0.075 2.25 2.25 2.25 2.25s4.875-5.175 5.025-5.325z"></path>
</svg>
