<!-- Generated by IcoMoon.io -->
<svg version="1.1" xmlns="http://www.w3.org/2000/svg" width="24" height="24" viewBox="0 0 24 24">
<title>ship</title>
<path d="M11.845 23.616h-3.056l-3.553-8.784v-0.112l6.609-1.978v10.875z"></path>
<path d="M18.966 14.719v0.112l-3.553 8.784h-3.056v-10.875l6.609 1.978z"></path>
<path d="M12.098 10.608h0.708l6.159 1.795v1.786l-6.609-1.978h-0.511l-6.609 1.978v-1.786l6.159-1.795h0.703z"></path>
<path d="M11.367 2.077h0.375v-1.603h0.811v1.603h0.375v0.825h-0.211v0.084l1.987 5.503h0.202v0.792h2.053v2.189l-0.609-0.15-0.277-1.139h-7.856l-0.239 1.148-0.642 0.141v-2.189h2.053v-0.792h0.202l1.988-5.498v-0.084h-0.211v-0.83zM9.811 8.494h0.745v-0.764h1.186v-4.167h-0.15l-1.781 4.931zM12.698 3.563h-0.15v4.167h1.186v0.764h0.745l-1.781-4.931z"></path>
</svg>
