<svg xmlns="http://www.w3.org/2000/svg" viewBox="0 0 1024 1024"><path d="M505.4 1028.933H375l-151.6-374.8v-4.8l282-84.4v464zm303.8-379.6v4.8l-151.6 374.8H527.2v-464l282 84.4zm-293-175.4h30.2l262.8 76.6v76.2l-282-84.4h-21.8l-282 84.4v-76.2l262.8-76.6h30zm-31.2-364h16v-68.4h34.6v68.4h16v35.2h-9v3.6l84.8 234.8h8.6v33.8h87.6v93.4l-26-6.4-11.8-48.6H350.6l-10.2 49-27.4 6v-93.4h87.6v-33.8h8.6l84.8-234.6v-3.6h-9v-35.4zm-66.4 273.8h31.8v-32.6H501v-177.8h-6.4l-76 210.4zm123.2-210.4h-6.4v177.8H586v32.6h31.8l-76-210.4z"/></svg>