<svg xmlns="http://www.w3.org/2000/svg" viewBox="0 0 1024 1024"><path d="M844.84 701.665c-49.734 0-91.816 34.429-107.121 80.339H443.137c-11.476-38.258-42.081-72.687-84.163-80.339l-34.429-68.863c455.261 0 627.416-30.605 700.109-294.582h-818.7l-45.911-99.468H10.84l30.605 76.516h61.21l175.985 409.35c-26.782 19.129-45.911 53.558-45.911 87.992 0 61.21 49.734 110.945 110.945 110.945 49.734 0 91.816-34.429 107.121-84.163h290.753c11.476 45.911 53.558 84.163 107.121 84.163 61.21 0 110.945-49.734 110.945-110.945-3.823-61.21-53.558-110.945-114.774-110.945zm-80.345-298.406h76.516v57.387h-76.516v-57.387zm-153.027 0h76.516v57.387h-76.516v-57.387zm0 110.945h76.516v57.387h-76.516v-57.387zM458.442 403.259h76.516v57.387h-76.516v-57.387zm0 110.945h76.516v57.387h-76.516v-57.387zM301.587 403.259h76.516v57.387h-76.516v-57.387zm0 110.945h76.516v57.387h-76.516v-57.387z"/></svg>