<!-- Generated by IcoMoon.io -->
<svg version="1.1" xmlns="http://www.w3.org/2000/svg" width="24" height="24" viewBox="0 0 24 24">
<title>shopping-cart</title>
<path d="M19.801 15.945c-1.166 0-2.152 0.807-2.511 1.883h-6.904c-0.269-0.897-0.986-1.704-1.973-1.883l-0.807-1.614c10.67 0 14.705-0.717 16.409-6.904h-19.188l-1.076-2.331h-3.497l0.717 1.793h1.435l4.125 9.594c-0.628 0.448-1.076 1.255-1.076 2.062 0 1.435 1.166 2.6 2.6 2.6 1.166 0 2.152-0.807 2.511-1.973h6.815c0.269 1.076 1.255 1.973 2.511 1.973 1.435 0 2.6-1.166 2.6-2.6-0.090-1.435-1.255-2.6-2.69-2.6zM17.918 8.951h1.793v1.345h-1.793v-1.345zM14.331 8.951h1.793v1.345h-1.793v-1.345zM14.331 11.552h1.793v1.345h-1.793v-1.345zM10.745 8.951h1.793v1.345h-1.793v-1.345zM10.745 11.552h1.793v1.345h-1.793v-1.345zM7.068 8.951h1.793v1.345h-1.793v-1.345zM7.068 11.552h1.793v1.345h-1.793v-1.345z"></path>
</svg>
