<!-- Generated by IcoMoon.io -->
<svg version="1.1" xmlns="http://www.w3.org/2000/svg" width="24" height="24" viewBox="0 0 24 24">
<title>sign-language</title>
<path d="M7.8 7.975c0.483-0.142 0.958-0.083 1.433 0.050 0.9 0.25 1.317 0.833 1.333 1.4 0.025 0.383 0.292 0.658 0.658 0.675s0.683-0.267 0.7-0.633v-0.008c0.058-0.7-0.092-1.017-0.5-1.575s-0.992-0.883-1.633-1.125l-0.45-0.167 0.008-0.033c0.042-0.008 0.092-0.008 0.133-0.008 0.142 0.017 0.283 0.025 0.425 0.042 0.492 0.058 0.975 0.167 1.4 0.442 0.108 0.067 0.217 0.125 0.333 0.175 0.275 0.125 0.6 0.050 0.783-0.192 0.2-0.25 0.217-0.583 0.008-0.808-0.158-0.175-0.342-0.317-0.55-0.425-0.992-0.492-2.033-0.7-3.133-0.533-0.025 0-0.058 0.008-0.083 0.008s-0.050 0-0.067 0c0.633-0.208 1.267-0.392 1.925-0.425 0.333-0.025 0.675-0.042 1.008-0.083 0.3-0.042 0.467-0.233 0.517-0.525 0.067-0.442-0.233-0.783-0.708-0.8-1.042-0.025-2.083 0.133-3.075 0.475-0.6 0.217-1.175 0.508-1.708 0.867-0.050 0.033-0.1 0.058-0.167 0.092 0-0.017 0.008-0.033 0.008-0.042 0.017-0.025 0.042-0.050 0.058-0.075 0.533-0.583 1.192-1.033 1.933-1.317 0.267-0.1 0.542-0.183 0.8-0.292 0.242-0.092 0.392-0.342 0.358-0.592-0.017-0.325-0.192-0.533-0.483-0.667l-0.025-0.008c-0.775 0.008-1.433 0.358-2.075 0.725-0.783 0.45-1.467 1.008-1.95 1.792-0.333 0.533-0.583 1.1-0.825 1.675-0.408 0.933-0.892 1.833-1.45 2.683-0.25 0.383-0.608 0.658-0.983 0.908-0.483 0.325-0.717 0.408-1.133 0.608s-0.142 1.867 0.267 2.725c0.533 1.133 1.542 1.783 1.858 1.683s1.075-0.725 1.6-0.942c0.308-0.125 0.633-0.225 0.975-0.175 0.233 0.033 0.467 0.075 0.7 0.108 0.533 0.058 1.067 0.142 1.608 0.158 0.792 0.025 1.717 0.042 2.367-0.358 0.833-0.392 1.275-1.175 1.275-1.458 0.025-0.425-0.25-0.917-0.725-0.692s-0.85 0.758-1.542 0.867c-0.5 0.067-1 0-1.458-0.2-0.817-0.342-1.333-1.167-1.275-2.058 0.067-0.908 0.667-1.675 1.525-1.942z"></path>
<path d="M22.442 9.85c-0.875-1.092-1.775-1.867-2.225-1.4-0.817 0.842-0.983 1.167-1.7 1.492-0.058 0.025-0.125 0.042-0.192 0.050-0.642 0.017-1.275 0.025-1.917 0.033-1.017 0.008-1.808 0.175-2.692 0.675-0.825 0.458-1.283 1.692-1.133 1.908 0 0.5 0.425 0.75 0.725 0.567 0.225-0.125 0.817-0.875 1.067-1.067 0.617-0.408 0.908-0.425 1.617-0.242 1.15 0.292 1.842 1.45 1.55 2.6-0.15 0.6-0.558 1.108-1.108 1.392-0.642 0.325-1.317 0.3-1.983 0.083-0.575-0.192-0.933-0.3-1.1-0.908-0.167-0.625-0.6-0.792-0.908-0.692s-0.558 0.383-0.517 0.675c0.108 0.725 0.375 1.108 0.942 1.6s1.242 0.75 1.983 0.842c0.092 0.008 0.192 0.033 0.283 0.050v0.033c-0.042 0.008-0.075 0.017-0.117 0.025-0.692 0.033-1.383 0.1-2.042-0.208-0.075-0.033-0.142-0.058-0.217-0.075-0.333-0.117-0.7 0.058-0.817 0.392-0.017 0.042-0.025 0.083-0.033 0.125-0.058 0.342 0.067 0.592 0.408 0.767 0.558 0.283 1.175 0.433 1.808 0.458 0.567 0.025 1.142-0.058 1.683-0.225 0.075-0.025 0.158-0.042 0.233-0.067-0.025 0.042-0.067 0.075-0.108 0.092-0.467 0.242-0.95 0.433-1.458 0.575-0.392 0.108-0.792 0.2-1.183 0.292-0.233 0.050-0.408 0.242-0.442 0.475-0.058 0.242 0.017 0.5 0.192 0.667 0.217 0.208 0.475 0.2 0.742 0.15 1.633-0.283 3.1-0.917 4.333-2.058 0.067-0.058 0.133-0.108 0.2-0.167l0.025 0.025c-0.042 0.067-0.075 0.133-0.117 0.2-0.5 0.742-1.167 1.283-1.95 1.7-0.158 0.075-0.308 0.167-0.45 0.275-0.283 0.225-0.325 0.642-0.1 0.925 0.033 0.042 0.075 0.083 0.117 0.117 0.2 0.167 0.483 0.2 0.717 0.092 0.5-0.208 0.967-0.492 1.383-0.825 1.167-0.917 1.975-2.058 2.258-3.525 0.2-1.017 0.492-2.008 0.85-2.975 0.4-1.075 0.567-1.3 1.467-1.95 0.275-0.2 0.7-0.367 1.017-0.925 0.142-0.258-0.208-0.942-1.092-2.042z"></path>
</svg>
