<svg xmlns="http://www.w3.org/2000/svg" viewBox="0 0 1024 1024"><path d="M792.034 809.993c0 16.87-10.122 30.366-20.244 30.366-3.374 0-6.748-3.374-10.122-3.374L505.25 617.681v192.314c0 16.87-10.122 30.366-20.244 30.366-3.374 0-6.748-3.374-10.122-3.374L144.24 556.953c-6.748-6.748-10.122-13.496-10.122-26.992 0-10.122 3.374-20.244 10.122-26.992l330.644-280.034c3.374-3.374 6.748-3.374 10.122-3.374 10.122 0 20.244 13.496 20.244 30.366v192.314l256.418-219.304c3.374-3.374 6.748-3.374 10.122-3.374 10.122 0 20.244 13.496 20.244 30.366v560.07z"/></svg>