<!-- Generated by IcoMoon.io -->
<svg version="1.1" xmlns="http://www.w3.org/2000/svg" width="24" height="24" viewBox="0 0 24 24">
<title>skip-forward</title>
<path d="M12.787 19.657v0c-0.072 0.072-0.143 0.072-0.286 0.072-0.286 0-0.501-0.358-0.501-0.787v-4.795l-6.44 5.51c-0.072 0.072-0.143 0.143-0.215 0.143-0.286 0-0.501-0.358-0.501-0.787v-14.026c0-0.429 0.215-0.787 0.501-0.787 0.072 0 0.143 0.072 0.215 0.143v0l6.44 5.51v-4.866c0-0.429 0.215-0.787 0.501-0.787 0.072 0 0.143 0.072 0.215 0.143v0l8.301 6.941c0.143 0.143 0.286 0.358 0.286 0.644s-0.143 0.501-0.286 0.644v0l-8.229 7.084z"></path>
</svg>
