<!-- Generated by IcoMoon.io -->
<svg version="1.1" xmlns="http://www.w3.org/2000/svg" width="24" height="24" viewBox="0 0 24 24">
<title>skip-backwards</title>
<path d="M18.563 18.484c0 0.395-0.237 0.712-0.474 0.712-0.079 0-0.158-0.079-0.237-0.079v0l-6.010-5.14v4.507c0 0.395-0.237 0.712-0.474 0.712-0.079 0-0.158-0.079-0.237-0.079v0l-7.749-6.563c-0.158-0.158-0.237-0.316-0.237-0.633 0-0.237 0.079-0.474 0.237-0.633v0l7.749-6.563c0.079-0.079 0.158-0.079 0.237-0.079 0.237 0 0.474 0.316 0.474 0.712v4.507l6.010-5.14c0.079-0.079 0.158-0.079 0.237-0.079 0.237 0 0.474 0.316 0.474 0.712v13.127z"></path>
</svg>
