<svg xmlns="http://www.w3.org/2000/svg" viewBox="0 0 1024 1024"><path d="M545.586 860.027c-3.054 3.054-6.106 3.054-12.212 3.054-12.212 0-21.372-15.266-21.372-33.586V624.929L237.213 860.027c-3.054 3.054-6.106 6.106-9.16 6.106-12.212 0-21.372-15.266-21.372-33.586v-598.43c0-18.32 9.16-33.586 21.372-33.586 3.054 0 6.106 3.054 9.16 6.106l274.789 235.098V234.117c0-18.32 9.16-33.586 21.372-33.586 3.054 0 6.106 3.054 9.16 6.106l354.172 296.162c6.106 6.106 12.212 15.266 12.212 27.478s-6.106 21.372-12.212 27.478l-351.12 302.268z"/></svg>