<svg xmlns="http://www.w3.org/2000/svg" viewBox="0 0 1024 1024"><path d="M695.251 44.661H324.93c-38.18 0-68.72 34.36-68.72 76.36v836.092c0 42 30.54 76.36 68.72 76.36h370.321c38.18 0 68.72-34.36 68.72-76.36V121.021c0-42-30.54-76.36-68.72-76.36zM443.28 136.282h129.801c11.45 0 19.09 7.64 19.09 19.09s-7.64 19.09-19.09 19.09H443.28c-11.45 0-19.09-7.64-19.09-19.09s7.64-19.09 19.09-19.09zm64.9 855.182c-26.72 0-49.63-22.91-49.63-49.63s22.91-49.63 49.63-49.63c26.72 0 49.63 22.91 49.63 49.63s-22.91 49.63-49.63 49.63zm198.53-133.62H309.659V216.462H706.71v641.382z"/></svg>