<!-- Generated by IcoMoon.io -->
<svg version="1.1" xmlns="http://www.w3.org/2000/svg" width="24" height="24" viewBox="0 0 24 24">
<title>smartphone</title>
<path d="M16.295 0.547h-8.679c-0.895 0-1.611 0.805-1.611 1.79v19.596c0 0.984 0.716 1.79 1.611 1.79h8.679c0.895 0 1.611-0.805 1.611-1.79v-19.596c0-0.984-0.716-1.79-1.611-1.79zM10.389 2.694h3.042c0.268 0 0.447 0.179 0.447 0.447s-0.179 0.447-0.447 0.447h-3.042c-0.268 0-0.447-0.179-0.447-0.447s0.179-0.447 0.447-0.447zM11.91 22.737c-0.626 0-1.163-0.537-1.163-1.163s0.537-1.163 1.163-1.163c0.626 0 1.163 0.537 1.163 1.163s-0.537 1.163-1.163 1.163zM16.564 19.606h-9.306v-15.032h9.306v15.032z"></path>
</svg>
