<!-- Generated by IcoMoon.io -->
<svg version="1.1" xmlns="http://www.w3.org/2000/svg" width="24" height="24" viewBox="0 0 24 24">
<title>smoking</title>
<path d="M19.242 11.292h-17.692c-0.383 0-0.692 0.317-0.692 0.692v2.567c0 0.383 0.317 0.692 0.692 0.692h5.258c0 0 0 0 0 0h12.433c0.383 0 0.692-0.317 0.692-0.692v-2.567c0.008-0.375-0.308-0.692-0.692-0.692zM18.783 14.092h-10.158v-1.633h10.158v1.633z"></path>
<path d="M21.15 11.3c-0.317 0-0.583 0.258-0.583 0.583v2.833c0 0.317 0.258 0.583 0.583 0.583 0.317 0 0.583-0.258 0.583-0.583v-2.833c-0.008-0.325-0.267-0.583-0.583-0.583z"></path>
<path d="M22.825 11.3c-0.317 0-0.583 0.258-0.583 0.583v2.833c0 0.317 0.258 0.583 0.583 0.583s0.583-0.258 0.583-0.583v-2.833c0-0.325-0.258-0.583-0.583-0.583z"></path>
<path d="M20.167 7.108c-0.2-0.117-0.417-0.192-0.65-0.275-0.942-0.333-1.917-0.667-1.917-3.542 0-0.425-0.258-0.767-0.583-0.767s-0.583 0.342-0.583 0.767c0 1.75 0.167 2.45 0.825 3.3 0.575 0.733 1.45 1.117 2.333 1.483 0.867 0.358 0.967 1.183 0.967 2.092 0 0.425 0.258 0.767 0.583 0.767s0.583-0.342 0.583-0.767c0-1.525-0.467-2.433-1.558-3.058z"></path>
<path d="M22.8 7.208c-0.417-0.742-1.017-1.342-2.458-1.975-0.658-0.292-0.825-1.142-0.825-1.933 0-0.425-0.258-0.767-0.583-0.767s-0.6 0.342-0.583 0.767c0.058 1.017 0.175 2.325 1.4 2.858 1.342 0.583 1.842 1.2 2.075 1.6 0.358 0.642 0.433 1.275 0.433 2.233v0.183c0 0.425 0.242 0.767 0.567 0.767s0.583-0.342 0.583-0.767v-0.183c0-1.292-0.1-1.875-0.608-2.783z"></path>
</svg>
