<svg xmlns="http://www.w3.org/2000/svg" viewBox="0 0 1024 1024"><path d="M820.978 503.111H66.134c-16.356 0-29.511 13.511-29.511 29.511v109.511c0 16.356 13.511 29.511 29.511 29.511h754.845c16.356 0 29.511-13.511 29.511-29.511V532.622c.356-16-13.156-29.511-29.511-29.511zm-19.556 119.466H368v-69.689h433.422v69.689zM902.4 503.466c-13.511 0-24.889 11.022-24.889 24.889v120.889c0 13.511 11.022 24.889 24.889 24.889 13.511 0 24.889-11.022 24.889-24.889V528.355c-.356-13.867-11.378-24.889-24.889-24.889zm71.467 0c-13.511 0-24.889 11.022-24.889 24.889v120.889c0 13.511 11.022 24.889 24.889 24.889s24.889-11.022 24.889-24.889V528.355c0-13.867-11.022-24.889-24.889-24.889zM860.444 324.622c-8.533-4.978-17.778-8.178-27.733-11.733-40.178-14.222-81.778-28.444-81.778-151.111 0-18.133-11.022-32.711-24.889-32.711s-24.889 14.578-24.889 32.711c0 74.667 7.111 104.533 35.2 140.8 24.533 31.289 61.867 47.644 99.556 63.289 36.978 15.289 41.244 50.489 41.244 89.244 0 18.133 11.022 32.711 24.889 32.711s24.889-14.578 24.889-32.711c0-65.067-19.911-103.822-66.489-130.489zm112.356 4.267c-17.778-31.644-43.378-57.244-104.889-84.267-28.089-12.444-35.2-48.711-35.2-82.489 0-18.133-11.022-32.711-24.889-32.711s-25.6 14.578-24.889 32.711c2.489 43.378 7.467 99.2 59.733 121.956 57.244 24.889 78.578 51.2 88.533 68.267 15.289 27.378 18.489 54.4 18.489 95.289v7.822c0 18.133 10.311 32.711 24.178 32.711s24.889-14.578 24.889-32.711v-7.822c0-55.111-4.267-80-25.956-118.756z"/></svg>