<!-- Generated by IcoMoon.io -->
<svg version="1.1" xmlns="http://www.w3.org/2000/svg" width="24" height="24" viewBox="0 0 24 24">
<title>snapchat</title>
<path d="M12.225 0.933h-0.058l-0.408 0.008c-0.525 0-1.575 0.075-2.7 0.567-0.633 0.275-1.217 0.658-1.725 1.142-0.592 0.558-1.075 1.258-1.442 2.058-0.525 1.175-0.4 3.167-0.3 4.758v0l0.033 0.525c-0.075 0.033-0.2 0.075-0.383 0.075-0.3 0-0.65-0.092-1.050-0.283-0.125-0.058-0.258-0.083-0.4-0.083-0.242 0-0.492 0.067-0.708 0.2-0.275 0.158-0.45 0.383-0.5 0.642-0.033 0.167-0.033 0.492 0.333 0.825 0.2 0.183 0.5 0.35 0.875 0.5 0.1 0.042 0.217 0.075 0.342 0.117 0.433 0.142 1.1 0.35 1.267 0.75 0.092 0.208 0.050 0.475-0.108 0.8-0.008 0.008-0.008 0.017-0.008 0.025-0.042 0.092-0.417 0.942-1.192 1.842-0.442 0.508-0.925 0.933-1.433 1.267-0.608 0.4-1.292 0.667-2.017 0.783-0.275 0.042-0.475 0.292-0.458 0.575 0.008 0.083 0.025 0.158 0.058 0.242v0c0.117 0.267 0.375 0.483 0.8 0.683 0.517 0.242 1.292 0.442 2.308 0.6 0.050 0.1 0.108 0.342 0.142 0.508 0.042 0.175 0.075 0.358 0.133 0.55 0.058 0.208 0.225 0.458 0.633 0.458 0.158 0 0.333-0.033 0.542-0.075 0.3-0.058 0.717-0.142 1.242-0.142 0.292 0 0.583 0.025 0.883 0.075 0.575 0.1 1.075 0.45 1.65 0.85 0.842 0.592 1.8 1.267 3.258 1.267 0.042 0 0.083 0 0.117 0 0.058 0 0.117 0 0.175 0 1.458 0 2.417-0.675 3.258-1.267v0c0.575-0.408 1.075-0.758 1.65-0.85 0.3-0.050 0.6-0.075 0.883-0.075 0.492 0 0.892 0.067 1.242 0.133 0.225 0.042 0.408 0.067 0.542 0.067h0.025c0.3 0 0.525-0.167 0.608-0.45 0.058-0.192 0.1-0.367 0.133-0.55 0.033-0.158 0.092-0.408 0.142-0.508 1.017-0.158 1.792-0.358 2.308-0.6 0.425-0.2 0.683-0.417 0.8-0.683 0.033-0.075 0.050-0.158 0.058-0.242 0.017-0.283-0.183-0.533-0.458-0.575-3.158-0.517-4.575-3.75-4.633-3.892 0-0.008-0.008-0.017-0.017-0.025-0.158-0.325-0.2-0.6-0.108-0.8 0.175-0.408 0.833-0.617 1.267-0.75 0.125-0.042 0.25-0.075 0.342-0.117 0.433-0.167 0.742-0.35 0.942-0.558 0.242-0.25 0.292-0.492 0.283-0.642-0.008-0.375-0.3-0.717-0.758-0.875-0.158-0.067-0.333-0.1-0.517-0.1-0.125 0-0.308 0.017-0.475 0.1-0.367 0.175-0.7 0.267-0.983 0.283-0.108 0-0.225-0.025-0.325-0.075l0.025-0.458 0.008-0.067c0.1-1.6 0.225-3.583-0.3-4.767-0.358-0.808-0.85-1.5-1.442-2.067-0.508-0.475-1.092-0.858-1.725-1.142-0.825-0.358-1.742-0.55-2.675-0.558z"></path>
</svg>
