<svg xmlns="http://www.w3.org/2000/svg" viewBox="0 0 1024 1024"><path d="M521.6 61.155h-2.489l-17.422.356c-22.4 0-67.2 3.2-115.2 24.178-27.022 11.733-51.911 28.089-73.6 48.711-25.244 23.822-45.867 53.689-61.511 87.822-22.4 50.133-17.067 135.111-12.8 203.022l1.422 22.4c-3.2 1.422-8.533 3.2-16.356 3.2-12.8 0-27.733-3.911-44.8-12.089-5.333-2.489-11.022-3.556-17.067-3.556-10.311 0-20.978 2.844-30.222 8.533-11.733 6.756-19.2 16.356-21.333 27.378-1.422 7.111-1.422 20.978 14.222 35.2 8.533 7.822 21.333 14.933 37.333 21.333 4.267 1.778 9.244 3.2 14.578 4.978 18.489 6.044 46.933 14.933 54.044 32 3.911 8.889 2.133 20.267-4.622 34.133-.356.356-.356.711-.356 1.067-1.778 3.911-17.778 40.178-50.844 78.578-18.844 21.689-39.467 39.822-61.156 54.044-25.956 17.067-55.111 28.444-86.044 33.422-11.733 1.778-20.267 12.444-19.556 24.533.356 3.556 1.067 6.756 2.489 10.311 4.978 11.378 16 20.622 34.133 29.156 22.044 10.311 55.111 18.844 98.489 25.6 2.133 4.267 4.622 14.578 6.044 21.689 1.778 7.467 3.2 15.289 5.689 23.467 2.489 8.889 9.6 19.556 27.022 19.556 6.756 0 14.222-1.422 23.111-3.2 12.8-2.489 30.578-6.044 52.978-6.044 12.444 0 24.889 1.067 37.689 3.2 24.533 4.267 45.867 19.2 70.4 36.267 35.911 25.244 76.8 54.044 139.022 54.044h12.445c62.222 0 103.111-28.8 139.022-54.044 24.533-17.422 45.867-32.356 70.4-36.267 12.8-2.133 25.6-3.2 37.689-3.2 20.978 0 38.044 2.844 52.978 5.689 9.6 1.778 17.422 2.844 23.111 2.844h1.067c12.8 0 22.4-7.111 25.956-19.2a203.98 203.98 0 0 0 5.689-23.467c1.422-6.756 3.911-17.422 6.044-21.689 43.378-6.756 76.444-15.289 98.489-25.6 18.133-8.533 29.156-17.778 34.133-29.156 1.422-3.2 2.133-6.756 2.489-10.311.711-12.089-7.822-22.756-19.556-24.533-134.756-22.044-195.2-160-197.689-166.044 0-.356-.356-.711-.711-1.067-6.756-13.867-8.533-25.6-4.622-34.133 7.467-17.422 35.556-26.311 54.044-32 5.333-1.778 10.667-3.2 14.578-4.978 18.489-7.111 31.644-14.933 40.178-23.822 10.311-10.667 12.444-20.978 12.089-27.378-.356-16-12.8-30.578-32.356-37.333-6.756-2.844-14.222-4.267-22.044-4.267-5.333 0-13.156.711-20.267 4.267-15.644 7.467-29.867 11.378-41.956 12.089-4.622 0-9.6-1.067-13.867-3.2l1.067-19.556.356-2.844c4.267-68.267 9.6-152.889-12.8-203.378-15.289-34.489-36.267-64-61.511-88.178-21.689-20.267-46.578-36.622-73.6-48.711-35.2-15.289-74.311-23.467-114.133-23.822z"/></svg>