<!-- Generated by IcoMoon.io -->
<svg version="1.1" xmlns="http://www.w3.org/2000/svg" width="24" height="24" viewBox="0 0 24 24">
<title>soap</title>
<path d="M17.982 2.844c-0.246-0.144-0.714-0.342-1.932-0.552s-3.216-0.426-4.212-0.426-2.97 0.144-3.114 0.318c-0.144 0.174-0.594 0.528-0.396 1.068s0.87 0.342 1.23 0.66c0.354 0.318 0.78 0.894 0.87 1.176 0.186 0.582 0.432 1.008 0.972 1.008 0.528 0 0.444 0 0.438 0 0 0 0.072 0 0.246 0 0.426 0 0.834-0.438 0.912-1.002 0.078-0.57 0.288-1.086 1.014-1.176 0.732-0.090 2.964-0.114 3.546 0.030 0 0 0.39 0.066 0.504-0.15 0.198-0.378 0.438-0.654-0.078-0.954z"></path>
<path d="M13.146 7.356h-2.358c-1.968 0-3.174 2.13-3.468 4.116l-0.93 7.512-0.006 0.054c0 1.914 1.554 3.468 3.468 3.468h3.966c1.914 0 3.468-1.554 3.468-3.468l-0.678-7.44c-0.276-2.112-1.56-4.242-3.462-4.242zM11.838 11.598c0 0 1.704 1.644 1.704 2.586s-0.762 1.704-1.704 1.704-1.704-0.762-1.704-1.704 1.704-2.586 1.704-2.586zM13.824 21.66h-3.966c-1.44 0-2.61-1.164-2.622-2.598l0.078-0.624h9.078l0.054 0.618c-0.012 1.44-1.182 2.604-2.622 2.604z"></path>
</svg>
