<!-- Generated by IcoMoon.io -->
<svg version="1.1" xmlns="http://www.w3.org/2000/svg" width="24" height="24" viewBox="0 0 24 24">
<title>soccer</title>
<path d="M10.481 8.559c0 0-1.636 2.292-1.842 3.961 0 0 1.566 2.086 3.023 2.883 0 0 2.606-1.008 3.717-1.945 0 0-0.173-3.544-0.661-4.308 0.005 0-1.664-0.623-4.238-0.591z"></path>
<path d="M12 0.952c-6.103 0-11.048 4.945-11.048 11.048s4.945 11.048 11.048 11.048c6.103 0 11.048-4.945 11.048-11.048s-4.945-11.048-11.048-11.048zM13.219 21.567l0.975-1.383c0 0-2.414-0.717-3.328-1.594 0 0-2.264 1.106-3.502 0.389l1.116 1.997c-2.184-0.863-3.98-2.494-5.048-4.566l1.538 0.464c0 0-0.075-2.517 0.469-3.661 0 0-1.763-1.805-1.472-3.202l-1.603 1.748c0.070-2.775 1.313-5.259 3.253-6.98l0.042 1.622c0 0 2.395-0.764 3.647-0.553 0 0 1.252-2.189 2.677-2.292l-1.88-1.013c0.614-0.122 1.252-0.188 1.903-0.188 1.514 0 2.948 0.352 4.223 0.975l-1.486 0.553c0 0 1.589 1.955 1.847 3.197 0 0 2.494 0.366 3.113 1.655l0.206-2.259c1.097 1.566 1.744 3.469 1.744 5.522 0 0.53-0.042 1.050-0.127 1.556l-0.919-1.266c0 0-1.463 2.048-2.588 2.63 0 0 0.309 2.503-0.769 3.441l2.348-0.427c-1.533 1.955-3.802 3.305-6.38 3.633z"></path>
</svg>
