<svg xmlns="http://www.w3.org/2000/svg" viewBox="0 0 1024 1024"><path d="M512 53.333c-122.812 0-245.72 46.876-339.376 140.624-187.5 187.408-187.5 491.344 0 678.749 93.75 93.75 216.564 140.624 339.376 140.624s245.72-46.876 339.376-140.624c187.5-187.408 187.5-491.344 0-678.749C757.72 100.207 634.812 53.333 512 53.333zM342.312 703.021C296.936 657.741 272 597.457 272 533.333s24.936-124.408 70.312-169.688c45.28-45.376 105.564-70.312 169.688-70.312s124.408 24.936 169.688 70.312C727.064 408.925 752 469.209 752 533.333s-24.936 124.408-70.312 169.688c-45.28 45.376-105.564 70.312-169.688 70.312s-124.408-24.936-169.688-70.312zm355.312-546.188L605 249.457c-30.28-9.936-61.5-16.124-93-16.124-28.688 0-57.092 5.436-84.844 13.592l-93.564-93.564C388.716 127.485 449.28 113.329 512 113.329c65.532 0 128.532 15.28 185.624 43.5zm-565.5 198.092l93.564 93.564c-17.156 58.22-16.408 120 2.436 177.844L135.5 718.957C107.28 661.865 92 598.865 92 533.333c0-62.72 14.156-123.28 40.124-178.408zM215 830.241c0 .092 0 .092 0 0zm125.812 86.436l94.592-94.592c25.124 6.656 50.72 11.25 76.592 11.25 28.688 0 57.092-5.436 84.844-13.688l93.564 93.564c-55.124 25.968-115.688 40.124-178.408 40.124-60.092 0-117.936-12.936-171.188-36.656zM891.78 711.553l-93.376-93.376c15.468-52.78 16.408-108.376 2.344-161.436l94.408-94.408c49.408 111.092 48.28 238.968-3.376 349.22z"/></svg>