<!-- Generated by IcoMoon.io -->
<svg version="1.1" xmlns="http://www.w3.org/2000/svg" width="24" height="24" viewBox="0 0 24 24">
<title>sos</title>
<path d="M12 0.75c-2.878 0-5.759 1.099-7.954 3.296-4.395 4.392-4.395 11.516 0 15.908 2.197 2.197 5.076 3.296 7.954 3.296s5.759-1.099 7.954-3.296c4.395-4.392 4.395-11.516 0-15.908-2.195-2.197-5.076-3.296-7.954-3.296v0zM8.023 15.977c-1.064-1.061-1.648-2.474-1.648-3.977s0.584-2.916 1.648-3.977c1.061-1.064 2.474-1.648 3.977-1.648s2.916 0.584 3.977 1.648c1.064 1.061 1.648 2.474 1.648 3.977s-0.584 2.916-1.648 3.977c-1.061 1.064-2.474 1.648-3.977 1.648s-2.916-0.584-3.977-1.648zM16.351 3.176l-2.171 2.171c-0.71-0.233-1.441-0.378-2.18-0.378-0.672 0-1.338 0.127-1.989 0.319l-2.193-2.193c1.292-0.606 2.711-0.938 4.181-0.938 1.536 0 3.012 0.358 4.351 1.020zM3.097 7.819l2.193 2.193c-0.402 1.365-0.385 2.813 0.057 4.168l-2.171 2.171c-0.661-1.338-1.020-2.815-1.020-4.351 0-1.47 0.332-2.889 0.94-4.181zM5.039 18.959v0c0 0.002 0 0.002 0 0v0zM7.988 20.985l2.217-2.217c0.589 0.156 1.189 0.264 1.795 0.264 0.672 0 1.338-0.127 1.989-0.321l2.193 2.193c-1.292 0.609-2.711 0.94-4.181 0.94-1.408 0-2.764-0.303-4.012-0.859v0zM20.901 16.177l-2.189-2.188c0.363-1.237 0.385-2.54 0.055-3.784l2.213-2.213c1.158 2.604 1.132 5.601-0.079 8.185z"></path>
</svg>
