<!-- Generated by IcoMoon.io -->
<svg version="1.1" xmlns="http://www.w3.org/2000/svg" width="22" height="24" viewBox="0 0 22 24">
<title>spartan-helmet</title>
<path d="M11.123 17.624c0.014 0.239 0.057 0.477 0.069 0.716 0.012 0.119 0.018 0.258 0.018 0.399 0 0.614-0.126 1.199-0.354 1.73l0.011-0.029c-0.11 0.234-0.248 0.435-0.414 0.61l0.001-0.001c-0.027 0.028-0.062 0.048-0.102 0.055h-0.001c-1.072 0.218-1.996 0.488-2.888 0.823l0.129-0.043c-1.752 0.599-3.475 1.277-5.19 1.974l-0.332 0.136s0 0-0.021 0c-0.001-0.008-0.001-0.017-0.001-0.027 0-0.039 0.009-0.076 0.026-0.108l-0.001 0.001q1.124-4.463 2.253-8.925c0.019-0.076 0.053-0.095 0.129-0.095 0.774-0.022 1.51-0.151 2.204-0.374l-0.056 0.016c0.542-0.202 0.992-0.543 1.322-0.981l0.005-0.007c0.036-0.062 0.021-0.076-0.048-0.074-0.654 0.017-2.546 0.048-2.835 0.081-0.359 0.022-0.68 0.168-0.924 0.397l0.001-0.001c-0.356 0.356-1.105 2.58-1.16 2.747-0.006 0.040-0.032 0.073-0.068 0.088h-0.001c-0.356 0.134-0.716 0.272-1.067 0.408-0.026-0.021 0-0.038 0-0.055 0.802-2.518 1.663-4.63 2.664-6.661l-0.124 0.279c0.367-0.688 0.84-1.271 1.404-1.749l0.009-0.007c0.057-0.050 0.045-0.076 0-0.122-0.258-0.239-0.511-0.477-0.768-0.716-0.048-0.045-0.048-0.067 0-0.11 0.934-0.814 2.068-1.425 3.317-1.749l0.057-0.013c0.456-0.114 0.98-0.18 1.519-0.18 0.258 0 0.513 0.015 0.764 0.044l-0.030-0.003c1.631 0.164 3.080 0.837 4.212 1.855l-0.007-0.006c1.562 1.384 2.541 3.396 2.541 5.636 0 1.092-0.233 2.129-0.651 3.065l0.019-0.048c0 0.024-0.024 0.048-0.036 0.072s0 0-0.017 0.012c0.029-0.291 0.062-0.58 0.084-0.869 0.033-0.304 0.051-0.657 0.051-1.014 0-0.851-0.106-1.678-0.305-2.468l0.015 0.069c-0.327-1.286-0.981-2.389-1.869-3.254l-0.002-0.001c-0.72-0.681-1.601-1.2-2.579-1.494l-0.046-0.012c-0.552-0.185-1.188-0.291-1.849-0.291-0.133 0-0.264 0.004-0.395 0.013l0.018-0.001c-0.632 0.027-1.214 0.219-1.711 0.533l0.014-0.008c-0.045 0.023-0.082 0.055-0.112 0.092l-0.001 0.001c0.16-0.041 0.313-0.086 0.465-0.117 0.322-0.067 0.693-0.105 1.072-0.105 0.25 0 0.496 0.017 0.736 0.049l-0.028-0.003c0.828 0.091 1.584 0.317 2.274 0.655l-0.040-0.018c1.168 0.573 2.098 1.478 2.686 2.592l0.016 0.033c0.419 0.789 0.705 1.712 0.799 2.69l0.002 0.030c0.018 0.202 0.028 0.436 0.028 0.674 0 0.669-0.080 1.319-0.23 1.941l0.011-0.056c-0.048 0.239-0.11 0.458-0.179 0.685-0.007 0.015-0.010 0.032-0.010 0.050 0 0.030 0.010 0.057 0.027 0.079v0q1.694 2.355 3.382 4.713v0.014c-0.029 0.021-0.055 0-0.081 0-0.869-0.317-1.926-0.607-3.012-0.818l-0.138-0.022c-0.736-0.152-1.582-0.239-2.448-0.239-0.212 0-0.422 0.005-0.631 0.015l0.029-0.001c-0.008 0.002-0.018 0.004-0.027 0.004-0.047 0-0.087-0.030-0.101-0.072v-0.001c-0.296-0.632-1.16-2.463-1.272-2.689-0.073-0.174-0.146-0.319-0.229-0.458l0.009 0.017z"></path>
<path d="M16.256 1.737c-6.503-3.546-13.426-1.222-16.237 3.007-0.012 0.018-0.019 0.041-0.019 0.065 0 0.042 0.022 0.080 0.054 0.101v0l4.276 2.68c0.018 0.012 0.041 0.019 0.065 0.019 0.032 0 0.062-0.013 0.083-0.033v0c0.033-0.033 3.456-3.296 8.307-1.532 2.041 0.739 3.627 2.303 4.379 4.279l0.017 0.050c0.873 2.243 0.778 4.871-0.253 6.854-0.009 0.016-0.014 0.036-0.014 0.056 0 0.031 0.012 0.059 0.031 0.080v0l2.625 2.864c0.022 0.022 0.052 0.035 0.085 0.035s0.063-0.014 0.085-0.035v0c4.806-5.67 2.885-15.407-3.484-18.49zM17.053 17.387v-0.014c0.014 0.005 0.005 0.010 0 0.014zM21.955 14.717c-0.792 0.198-3.265 0.537-3.668 0.628 0.632 0.561 2.291 2 2.725 2.386-0.050 0.119-0.1 0.239-0.15 0.339l-3.52-0.649h-0.031l-0.129-0.158q0.091-0.179 0.172-0.365c0.632 0.079 1.883 0.239 2.057 0.239-0.532-0.518-1.091-1.019-1.63-1.534 0.057-0.239 0.105-0.499 0.143-0.754 0.749-0.196 1.475-0.377 2.236-0.573-0.716-0.37-1.432-0.704-2.148-1.062 0-0.239-0.026-0.477-0.055-0.716l1.888-1.358c-0.007-0.018-0.024-0.031-0.045-0.031-0.002 0-0.004 0-0.006 0v0c-0.737-0.112-1.496-0.313-2.224-0.387-0.060-0.184-0.126-0.368-0.2-0.549l1.53-1.821-2.401 0.258-0.336-0.449 0.931-2.148-2.191 0.916-0.367-0.265s0.203-1.503 0.298-2.277c-0.64 0.477-1.243 0.983-1.873 1.465l-0.091-0.033c-0.146-0.053-0.291-0.103-0.434-0.146-0.098-0.606-0.346-2.126-0.375-2.308-0.463 0.661-0.909 1.305-1.358 1.954-0.196-0.021-0.391-0.033-0.58-0.036l-1.007-2.071c-0.258 0.73-0.477 1.477-0.728 2.212-0.177 0.031-0.348 0.069-0.513 0.112l-1.525-1.701c-0.029 0.773-0.055 1.523-0.084 2.286-0.174 0.081-0.336 0.167-0.477 0.251l-2.014-1.231c0.167 0.716 0.375 1.432 0.554 2.16l-1.024-0.642q-0.683-1.826-1.36-3.644c0.115-0.095 0.239-0.193 0.365-0.289l3.019 2.227c-0.043-0.477-0.265-3.133-0.344-3.735 0.15-0.064 0.305-0.119 0.458-0.177l2.432 2.952c0.146-0.735 0.594-3.007 0.716-3.673 0.172-0.017 0.346-0.026 0.52-0.033l1.432 3.553c0.415-0.656 1.472-2.649 1.811-3.246 0.165 0.038 0.327 0.079 0.492 0.124 0.057 0.692 0.284 3.51 0.305 3.78 0.912-0.876 1.811-1.735 2.711-2.592 0.143 0.074 0.286 0.15 0.427 0.239-0.143 0.628-0.687 3.040-0.85 3.771 2.148-1.071 3.413-1.706 3.413-1.706l0.215 0.239s-1.026 1.766-1.94 3.413c1.248-0.193 3.732-0.632 3.732-0.632l0.181 0.329-2.83 2.625 3.73 0.506c0.024 0.146 0.043 0.296 0.060 0.446l-3.31 1.694c1.095 0.496 2.215 0.955 3.317 1.432-0.017 0.158-0.033 0.305-0.052 0.453z"></path>
</svg>
