<!-- Generated by IcoMoon.io -->
<svg version="1.1" xmlns="http://www.w3.org/2000/svg" width="24" height="24" viewBox="0 0 24 24">
<title>speedtrain</title>
<path d="M22.786 13.748l-0.155-0.23-1.903-2.869-0.155-0.23c-0.881-1.331-2.897-2.409-4.491-2.409h-13.838l-0.9 3.061h2.128v2.33h-2.306l-0.727 3.056h20.888c0.834 0 1.448-0.291 1.734-0.816 0.281-0.525 0.183-1.195-0.277-1.894zM13.397 11.067v2.33h-2.77v-2.33h2.77zM13.936 13.397v-2.33h2.77v2.33h-2.77zM10.087 11.067v2.33h-2.77v-2.33h2.77zM17.245 13.397v-2.33h3.113l1.547 2.33h-4.659zM4.012 11.067h2.77v2.33h-2.77v-2.33z"></path>
</svg>
