<!-- Generated by IcoMoon.io -->
<svg version="1.1" xmlns="http://www.w3.org/2000/svg" width="24" height="24" viewBox="0 0 24 24">
<title>speech-dialog</title>
<path d="M10.7 9.3h-6.9c-2.1 0-3.7 1.5-3.7 3.4v3.1c0 2 1.6 3.9 3.6 3.9v2.4l4.5-2.4h2.5c2 0 3.4-1.9 3.4-3.9v-3.1c-0.1-1.9-1.5-3.4-3.4-3.4zM3.9 15.4c-0.5 0-0.9-0.4-0.9-0.9s0.4-0.9 0.9-0.9c0.5 0 0.9 0.4 0.9 0.9s-0.4 0.9-0.9 0.9zM7 15.4c-0.5 0-0.9-0.4-0.9-0.9s0.4-0.9 0.9-0.9c0.5 0 0.9 0.4 0.9 0.9s-0.4 0.9-0.9 0.9zM10.3 15.4c-0.5 0-0.9-0.4-0.9-0.9s0.4-0.9 0.9-0.9c0.5 0 0.9 0.4 0.9 0.9s-0.4 0.9-0.9 0.9z"></path>
<path d="M20.3 1.1h-6.9c-2 0-3.6 1.4-3.6 3.4v4.2c0 0 0.8 0 0.9 0 1.7 0 3 1 3.3 1.6s0.4 1 0.4 1h1.5l4.3 2.4v-2.4h0.2c2 0 3.5-1.9 3.5-3.9v-2.8c-0.1-2-1.6-3.5-3.6-3.5zM13.6 7.2c-0.5 0-0.9-0.4-0.9-0.9s0.4-0.9 0.9-0.9 0.9 0.4 0.9 0.9-0.4 0.9-0.9 0.9zM16.9 7.2c-0.5 0-0.9-0.4-0.9-0.9s0.4-0.9 0.9-0.9 0.9 0.4 0.9 0.9-0.4 0.9-0.9 0.9zM20 7.2c-0.5 0-0.9-0.4-0.9-0.9s0.4-0.9 0.9-0.9 0.9 0.4 0.9 0.9-0.4 0.9-0.9 0.9z"></path>
</svg>
