<svg xmlns="http://www.w3.org/2000/svg" viewBox="0 0 1024 1024"><path d="M456.533 418.133h-294.4c-89.6 0-157.867 64-157.867 145.067v132.267c0 85.333 68.267 166.4 153.6 166.4v102.4l192-102.4h106.667c85.333 0 145.067-81.067 145.067-166.4V563.2c-4.267-81.067-64-145.067-145.067-145.067zM166.4 678.4c-21.333 0-38.4-17.067-38.4-38.4s17.067-38.4 38.4-38.4 38.4 17.067 38.4 38.4-17.067 38.4-38.4 38.4zm132.267 0c-21.333 0-38.4-17.067-38.4-38.4s17.067-38.4 38.4-38.4 38.4 17.067 38.4 38.4-17.067 38.4-38.4 38.4zm140.8 0c-21.333 0-38.4-17.067-38.4-38.4s17.067-38.4 38.4-38.4 38.4 17.067 38.4 38.4-17.067 38.4-38.4 38.4zM866.133 68.266h-294.4c-85.333 0-153.6 59.733-153.6 145.067v179.2h38.4c72.533 0 128 42.667 140.8 68.267s17.067 42.667 17.067 42.667h64l183.467 102.4v-102.4h8.533c85.333 0 149.333-81.067 149.333-166.4V217.6c-4.267-85.333-68.267-149.333-153.6-149.333zM580.267 328.533c-21.333 0-38.4-17.067-38.4-38.4s17.067-38.4 38.4-38.4 38.4 17.067 38.4 38.4-17.067 38.4-38.4 38.4zm140.8 0c-21.333 0-38.4-17.067-38.4-38.4s17.067-38.4 38.4-38.4 38.4 17.067 38.4 38.4-17.067 38.4-38.4 38.4zm132.266 0c-21.333 0-38.4-17.067-38.4-38.4s17.067-38.4 38.4-38.4 38.4 17.067 38.4 38.4-17.067 38.4-38.4 38.4z"/></svg>