<!-- Generated by IcoMoon.io -->
<svg version="1.1" xmlns="http://www.w3.org/2000/svg" width="24" height="24" viewBox="0 0 24 24">
<title>state</title>
<path d="M9.992 0.697c0.067 2.328 0.196 4.693 0.245 7.014 2.764 2.526 5.92 5.075 8.86 7.655 0.423 0.371 1.030 0.758 1.251 1.116 0.205 0.33 0.192 0.802 0.338 1.092 0.12 0.239 0.35 0.301 0.54 0.49 0.151 0.776-0.612 1.027-0.417 1.835-0.155 0.065-0.101 0.251-0.227 0.333 0.161 0.281 0.087 0.37 0.021 0.585 0.107 0.33 0.454 0.248 0.531 0.628-0.1 0.24-0.54 0.284-0.574 0.562-1.435 0.236-2.896 0.509-4.338 0.755-0.073-0.409-0.382-0.411-0.51-0.726 0.546-0.933-0.636-1.393-1.156-1.779-0.152-0.048-0.43 0.122-0.576 0.066-0.138-0.248 0.115-0.268 0.003-0.5-0.48-0.397-0.795-0.098-1.302-0.287-0.483-0.178-0.898-0.788-1.378-0.902-0.133-0.030-0.227 0.053-0.35 0.050-0.509-0.016-0.973-0.23-1.464-0.381-0.286-0.527-0.186-1.588-0.773-1.698-0.012-0.974-1.139-0.878-1.167-1.82-0.37-0.353-0.805-0.589-0.948-1.335 0.114-0.165 0.271-0.009 0.435-0.070 0.076-0.654-0.449-0.787-0.853-0.815-0.228-0.498-0.782-1.381-0.434-1.791 0.365-0.053 0.378 0.501 0.689 0.543 0.508 0.549 0.012-0.309-0.026-0.607 0.041-0.152 0.419-0.477 0.445-0.623-0.105-0.293-0.798-0.039-0.89-0.357-0.209 0.641-0.977 0.488-1.303 0.382-0.087-0.24 0.251-0.237 0.248-0.43-0.227-0.416-0.575-0.618-0.845-0.953 0.076-0.454-0.36-0.555-0.504-0.862-0.256-0.555 0.093-1.188-0.315-1.687 0.377-0.779-0.769-0.669-0.749-1.611 0.239-0.447 0.398-0.941 0.571-1.423-0.063-0.168 0.010-0.257-0.076-0.438 0.443-0.447 0.039-1.385 0.084-2.065 2.351-0.064 4.665-0.060 6.912 0.056z"></path>
</svg>
