<svg xmlns="http://www.w3.org/2000/svg" viewBox="0 0 1024 1024"><path d="M426.318 51.073c2.859 99.32 8.348 200.218 10.451 299.255 117.93 107.767 252.603 216.538 378.017 326.596 18.033 15.841 43.937 32.346 53.388 47.61 8.733 14.073 8.208 34.201 14.41 46.609 5.101 10.212 14.941 12.833 23.045 20.893 6.44 33.109-26.094 43.84-17.794 78.287-6.63 2.769-4.296 10.689-9.687 14.214 6.868 11.97 3.722 15.791.905 24.951 4.577 14.073 19.377 10.59 22.658 26.809-4.248 10.252-23.045 12.117-24.475 23.998-61.207 10.065-123.56 21.706-185.093 32.197-3.097-17.46-16.316-17.557-21.757-30.957 23.283-39.829-27.145-59.441-49.327-75.897-6.49-2.053-18.359 5.202-24.566 2.818-5.867-10.59 4.914-11.453.139-21.316-20.466-16.931-33.927-4.198-55.531-12.258-20.604-7.583-38.311-33.634-58.777-38.499-5.677-1.292-9.687 2.244-14.941 2.143-21.706-.664-41.508-9.827-62.449-16.268-12.22-22.47-7.92-67.739-32.962-72.464-.525-41.557-48.614-37.446-49.804-77.665-15.791-15.076-34.349-25.141-40.455-56.96 4.863-7.058 11.544-.378 18.562-3.007 3.245-27.909-19.174-33.586-36.396-34.778-9.736-21.229-33.349-58.914-18.511-76.424 15.552-2.244 16.128 21.369 29.387 23.187 21.656 23.422.525-13.17-1.102-25.905 1.766-6.49 17.898-20.367 18.987-26.571-4.485-12.495-34.063-1.667-37.974-15.215-8.922 27.335-41.693 20.804-55.579 16.316-3.722-10.252 10.689-10.113 10.59-18.359-9.687-17.746-24.525-26.381-36.068-40.643 3.245-19.377-15.363-23.661-21.518-36.783-10.926-23.661 3.959-50.667-13.447-71.988 16.079-33.249-32.821-28.525-31.961-68.741 10.212-19.086 16.982-40.167 24.375-60.73-2.672-7.155.428-10.978-3.245-18.699 18.89-19.086 1.667-59.104 3.572-88.116 100.323-2.721 199.029-2.579 294.915 2.383z"/></svg>