<!-- Generated by IcoMoon.io -->
<svg version="1.1" xmlns="http://www.w3.org/2000/svg" width="24" height="24" viewBox="0 0 24 24">
<title>stay-home</title>
<path d="M14.112 7.818c0 1.15-0.932 2.082-2.082 2.082s-2.082-0.932-2.082-2.082c0-1.15 0.932-2.082 2.082-2.082s2.082 0.932 2.082 2.082z"></path>
<path d="M12.072 10.944c-0.048 0-0.078 0-0.078 0-0.198 0-0.75 0-1.308 0-0.696 0-1.728 0.624-1.728 1.362s0 3.588 0 4.446 0.672 1.482 1.032 1.56c0 0 0 0.018 0 0.060h4.086c0-0.036 0-0.060 0-0.060 0.366-0.078 1.032-0.702 1.032-1.56s0-3.702 0-4.446-1.026-1.362-1.728-1.362c-0.558 0-1.11 0-1.308 0z"></path>
<path d="M23.322 6.576l-10.92-5.79c-0.144-0.078-0.306-0.108-0.462-0.096-0.156-0.012-0.312 0.018-0.462 0.096l-10.848 5.754c-0.42 0.222-0.582 0.75-0.36 1.17l0.384 0.726c0.222 0.42 0.75 0.582 1.17 0.36l0.39-0.204v13.344c0 0.474 0.39 0.864 0.864 0.864h0.822c0 0 0 0 0 0h16.26c0 0 0 0 0 0h0.822c0.414 0 0.768-0.3 0.846-0.69 0.012-0.054 0.018-0.114 0.018-0.174v-13.242l0.276 0.144c0.42 0.222 0.948 0.060 1.17-0.36l0.384-0.726c0.228-0.432 0.066-0.954-0.354-1.176zM19.296 7.38v12.864h-14.532v-13.008l7.176-3.81 7.356 3.9c0 0.024 0 0.036 0 0.054z"></path>
</svg>
