<svg xmlns="http://www.w3.org/2000/svg" viewBox="0 0 1024 1024"><path d="M602.112 354.901c0 49.061-39.771 88.832-88.832 88.832s-88.832-39.771-88.832-88.832c0-49.061 39.771-88.832 88.832-88.832s88.832 39.771 88.832 88.832zm-87.04 133.376h-59.136c-29.696 0-73.728 26.624-73.728 58.112v189.696c0 36.608 28.672 63.232 44.032 66.56v2.56h174.336v-2.56c15.616-3.328 44.032-29.952 44.032-66.56V546.389c0-31.744-43.776-58.112-73.728-58.112h-55.808zm480-186.368l-465.92-247.04c-6.144-3.328-13.056-4.608-19.712-4.096-6.656-.512-13.312.768-19.712 4.096L26.88 300.373c-17.92 9.472-24.832 32-15.36 49.92l16.384 30.976c9.472 17.92 32 24.832 49.92 15.36l16.64-8.704v569.344c0 20.224 16.64 36.864 36.864 36.864h763.904c17.664 0 32.768-12.8 36.096-29.44.512-2.304.768-4.864.768-7.424V392.277l11.776 6.144c17.92 9.472 40.448 2.56 49.92-15.36l16.384-30.976c9.728-18.432 2.816-40.704-15.104-50.176zm-171.776 34.304v548.864H203.264V330.069l306.176-162.56 313.856 166.4v2.304z"/></svg>