<!-- Generated by IcoMoon.io -->
<svg version="1.1" xmlns="http://www.w3.org/2000/svg" width="24" height="24" viewBox="0 0 24 24">
<title>stop-hand</title>
<path d="M23.383 11.758l-5.483-9.5c-0.083-0.15-0.242-0.242-0.408-0.242h-10.967c-0.167 0-0.325 0.092-0.408 0.242l-5.483 9.5c-0.083 0.15-0.083 0.325 0 0.475l5.483 9.5c0.083 0.15 0.242 0.242 0.408 0.242h10.958c0.167 0 0.325-0.092 0.408-0.242l5.483-9.5c0.092-0.142 0.092-0.325 0.008-0.475zM17.208 21.025h-10.425l-5.208-9.025 5.217-9.025h10.417l5.217 9.025-5.217 9.025z"></path>
<path d="M16.608 3.95h-9.217c-0.025 0-0.050 0.017-0.067 0.033l-4.608 7.975c-0.017 0.025-0.017 0.050 0 0.075l4.617 7.983c0.017 0.025 0.033 0.033 0.067 0.033h9.217c0.025 0 0.050-0.017 0.067-0.033l4.608-7.975c0.017-0.025 0.017-0.050 0-0.075l-4.625-7.983c-0.008-0.025-0.033-0.033-0.058-0.033zM14.192 17.3c-0.008 0.008-0.017 0.025-0.017 0.033-0.075 0.442-1.267 0.783-2.717 0.783-1.625 0-3.275-0.442-3.325-1.45-0.25-1.217-0.292-2.408-0.133-3.633v-5.075c0-0.35 0.283-0.633 0.625-0.633 0 0 0.008 0 0.008 0 0.35 0 0.633 0.283 0.633 0.633v3.7c0 0.025 0.017 0.050 0.042 0.067 0.183 0.083 0.392 0.1 0.583 0.033 0.025-0.008 0.050-0.042 0.050-0.067v-4.783c0-0.35 0.283-0.633 0.633-0.633s0.633 0.283 0.633 0.633v4.775c0 0.033 0.017 0.058 0.050 0.067 0.158 0.058 0.325 0.058 0.483 0.008 0.025-0.008 0.050-0.050 0.050-0.075l0.225-5.2c0.017-0.333 0.3-0.608 0.633-0.608h0.025c0.35 0.017 0.617 0.308 0.608 0.658l-0.208 4.85c0 0.033 0.017 0.058 0.042 0.067 0.158 0.075 0.333 0.092 0.508 0.050 0.033-0.008 0.050-0.033 0.058-0.067l0.358-3.683c0.033-0.342 0.333-0.6 0.692-0.567 0.167 0.017 0.317 0.1 0.425 0.225 0.108 0.133 0.158 0.292 0.142 0.467-0.017 0.167-0.058 0.492-0.117 0.908-0.4 2.983-0.575 4.875-0.242 5.108 0.192 0.133 0.433 0.175 0.658 0.117 0.017 0 0.025-0.008 0.033-0.017l1.292-1.333c0.233-0.242 0.65-0.25 0.892-0.017 0.117 0.117 0.192 0.275 0.192 0.442s-0.058 0.333-0.175 0.45l-3.642 3.767z"></path>
</svg>
