<svg xmlns="http://www.w3.org/2000/svg" viewBox="0 0 1024 1024"><path d="M997.689 523.022L763.733 117.689c-3.556-6.4-10.311-10.311-17.422-10.311H278.4c-7.111 0-13.867 3.911-17.422 10.311L27.022 523.022c-3.556 6.4-3.556 13.867 0 20.267l233.956 405.333c3.556 6.4 10.311 10.311 17.422 10.311h467.556c7.111 0 13.867-3.911 17.422-10.311l233.956-405.333c3.911-6.044 3.911-13.867.356-20.267zM734.222 918.4h-444.8L67.2 533.333l222.578-385.067h444.444L956.8 533.333 734.222 918.4zm-25.6-728.534H315.378c-1.067 0-2.133.711-2.844 1.422L115.912 531.555c-.711 1.067-.711 2.133 0 3.2L312.89 875.377c.711 1.067 1.422 1.422 2.844 1.422h393.244c1.067 0 2.133-.711 2.844-1.422L908.444 535.11c.711-1.067.711-2.133 0-3.2L711.111 191.288c-.356-1.067-1.422-1.422-2.489-1.422zm-103.111 569.6c-.356.356-.711 1.067-.711 1.422-3.2 18.844-54.044 33.422-115.911 33.422-69.333 0-139.733-18.844-141.867-61.867-10.667-51.911-12.444-102.756-5.689-155.022V360.888c0-14.933 12.089-27.022 26.667-27.022h.356c14.933 0 27.022 12.089 27.022 27.022v157.867c0 1.067.711 2.133 1.778 2.844 7.822 3.556 16.711 4.267 24.889 1.422 1.067-.356 2.133-1.778 2.133-2.844V316.088c0-14.933 12.089-27.022 27.022-27.022s27.022 12.089 27.022 27.022v203.733c0 1.422.711 2.489 2.133 2.844 6.756 2.489 13.867 2.489 20.622.356 1.067-.356 2.133-2.133 2.133-3.2l9.6-221.867c.711-14.222 12.8-25.956 27.022-25.956h1.067c14.933.711 26.311 13.156 25.956 28.089l-8.889 206.933c0 1.422.711 2.489 1.778 2.844 6.756 3.2 14.222 3.911 21.689 2.133 1.422-.356 2.133-1.422 2.489-2.844l15.289-157.156c1.422-14.578 14.222-25.6 29.511-24.178 7.111.711 13.511 4.267 18.133 9.6 4.622 5.689 6.756 12.444 6.044 19.911-.711 7.111-2.489 20.978-4.978 38.756-17.067 127.289-24.533 208-10.311 217.956 8.178 5.689 18.489 7.467 28.089 4.978.711 0 1.067-.356 1.422-.711l55.111-56.889c9.956-10.311 27.733-10.667 38.044-.711 4.978 4.978 8.178 11.733 8.178 18.844s-2.489 14.222-7.467 19.2L605.509 759.464z"/></svg>