<svg xmlns="http://www.w3.org/2000/svg" viewBox="0 0 1024 1024"><path d="M510.222 42.311c-270.933 0-490.667 220.089-490.667 491.022s219.378 491.022 490.667 491.022 491.022-219.733 491.022-491.022S781.155 42.311 510.222 42.311zM99.2 533.333c0-227.2 184.178-411.378 411.378-411.378 99.2 0 190.222 35.2 261.333 93.511l-84.978 84.978c-7.822-22.756-13.156-42.667-12.444-59.733-25.6 38.756-50.844 58.311-49.067 121.244l-37.689 37.689c-32.711-102.4-138.667-174.222-156.8-222.578-29.511 62.578 81.778 232.533.356 323.556-6.756-66.844-66.844-132.622-118.044-141.867 40.178 158.578-36.267 188.444-10.311 291.556 2.133 8.533 5.333 17.067 8.889 25.244L192.356 795.022C134.045 723.555 99.2 632.533 99.2 533.333zm411.378 411.022c-99.2 0-190.222-34.844-261.333-93.511l114.133-114.133c35.911 26.311 85.333 41.956 145.067 40.533-35.556-9.956-56.533-37.333-66.844-68.978-4.622-13.867-6.4-28.444-7.111-42.667l39.822-39.822c.356 1.067.356 2.133.711 2.844 6.756 40.889 29.511 40.178 29.511 40.178-9.956-19.911-12.8-41.244-11.378-61.867l38.756-38.756c4.978 30.222 16.356 62.578 41.956 77.511-6.4-29.511 9.956-66.133 30.578-77.156 4.978 73.244 41.6 75.378 45.156 123.022 1.422 22.756-8.889 45.511-29.867 62.578 99.911-40.533 135.467-126.578 135.111-213.689 0-56.533-17.778-110.578-36.267-158.933L828.09 271.998c58.311 71.111 93.511 162.133 93.867 260.978 0 227.2-184.178 411.378-411.378 411.378z"/></svg>