<!-- Generated by IcoMoon.io -->
<svg version="1.1" xmlns="http://www.w3.org/2000/svg" width="24" height="24" viewBox="0 0 24 24">
<title>stop-fire</title>
<path d="M11.958 0.492c-6.35 0-11.5 5.158-11.5 11.508s5.142 11.508 11.5 11.508 11.508-5.15 11.508-11.508-5.158-11.508-11.508-11.508zM2.325 12c0-5.325 4.317-9.642 9.642-9.642 2.325 0 4.458 0.825 6.125 2.192l-1.992 1.992c-0.183-0.533-0.308-1-0.292-1.4-0.6 0.908-1.192 1.367-1.15 2.842l-0.883 0.883c-0.767-2.4-3.25-4.083-3.675-5.217-0.692 1.467 1.917 5.45 0.008 7.583-0.158-1.567-1.567-3.108-2.767-3.325 0.942 3.717-0.85 4.417-0.242 6.833 0.050 0.2 0.125 0.4 0.208 0.592l-2.8 2.8c-1.367-1.675-2.183-3.808-2.183-6.133zM11.967 21.633c-2.325 0-4.458-0.817-6.125-2.192l2.675-2.675c0.842 0.617 2 0.983 3.4 0.95-0.833-0.233-1.325-0.875-1.567-1.617-0.108-0.325-0.15-0.667-0.167-1l0.933-0.933c0.008 0.025 0.008 0.050 0.017 0.067 0.158 0.958 0.692 0.942 0.692 0.942-0.233-0.467-0.3-0.967-0.267-1.45l0.908-0.908c0.117 0.708 0.383 1.467 0.983 1.817-0.15-0.692 0.233-1.55 0.717-1.808 0.117 1.717 0.975 1.767 1.058 2.883 0.033 0.533-0.208 1.067-0.7 1.467 2.342-0.95 3.175-2.967 3.167-5.008 0-1.325-0.417-2.592-0.85-3.725l2.567-2.567c1.367 1.667 2.192 3.8 2.2 6.117 0 5.325-4.317 9.642-9.642 9.642z"></path>
</svg>
