<!-- Generated by IcoMoon.io -->
<svg version="1.1" xmlns="http://www.w3.org/2000/svg" width="24" height="24" viewBox="0 0 24 24">
<title>suv</title>
<path d="M1.88 12.056c0 0-0.023-0.009-0.061-0.033-0.023-0.609 0.356-1.125 0.534-1.331 0.009-0.009 0.019-0.019 0.028-0.028l0.628 0.188c0.117 0.033 0.145 0.188 0.052 0.262l-1.181 0.942zM1.294 13.692h-0.628l0.094 0.97c0.014 0 0.023 0 0.038 0 0.675-0.070 0.497-0.97 0.497-0.97zM22.378 10.106v1.73l0.431-0.019c-0.005-0.352-0.033-0.998-0.159-1.739l-0.272 0.028zM5.016 13.575c-1.148 0-2.081 0.933-2.081 2.081 0 0.005 0 0.014 0 0.019 0.009 1.139 0.937 2.062 2.081 2.062s2.067-0.923 2.081-2.062c0-0.005 0-0.014 0-0.019 0-1.148-0.933-2.081-2.081-2.081zM5.016 16.636c-0.539 0-0.98-0.436-0.98-0.98s0.436-0.98 0.98-0.98c0.539 0 0.98 0.436 0.98 0.98s-0.441 0.98-0.98 0.98zM23.489 12.689c0 0.089-0.038 0.178-0.084 0.263-0.23 0.375-0.37 0.802-0.37 1.242v0.727c0 0.159-0.112 0.3-0.272 0.333l-1.669 0.338c-0.038-1.294-1.097-2.334-2.395-2.334-1.322 0-2.4 1.078-2.4 2.4 0 0.005 0 0.014 0 0.019h-8.883c0-0.005 0-0.014 0-0.019 0-1.322-1.078-2.4-2.4-2.4s-2.4 1.078-2.4 2.4c0 0.005 0 0.014 0 0.019h-2.048c-0.22-0.258 0.136-0.623 0.211-0.694 0.019 0 0.033 0 0.052-0.005 0.253-0.028 0.459-0.141 0.6-0.333 0.286-0.389 0.188-0.956 0.173-1.017-0.028-0.15-0.159-0.258-0.314-0.258h-0.656l-0.042-0.441c-0.014-0.145 0.066-0.286 0.202-0.342l0.783-0.342c0.089 0.066 0.169 0.098 0.188 0.108 0.037 0.014 0.075 0.023 0.117 0.023 0.070 0 0.141-0.023 0.197-0.070l1.186-0.938c0.141-0.108 0.202-0.286 0.169-0.459s-0.159-0.314-0.328-0.361l-0.112-0.033 4.242-0.656 1.636-2.278c0.459-0.638 1.191-1.013 1.978-1.013h0.619l0.994-0.961c0.047-0.047 0.112-0.070 0.178-0.070h7.242c0.089 0 0.173 0.047 0.216 0.122l0.548 0.909h1.383c0.164 0 0.248 0.197 0.136 0.314-0.089 0.094-0.197 0.183-0.291 0.258-0.141 0.108-0.173 0.309-0.080 0.459 0.408 0.661 0.656 1.444 0.802 2.17l-0.244 0.023c-0.164 0.014-0.291 0.155-0.291 0.319v1.73c0 0.089 0.037 0.169 0.098 0.23 0.061 0.056 0.141 0.089 0.22 0.089 0.005 0 0.009 0 0.014 0l0.464-0.019c0.014 0 0.023-0.005 0.037-0.005 0.178 0.080 0.595 0.3 0.595 0.553zM19.505 6.567l-0.248-0.53h-6.038l-0.333 0.53h6.619zM12.966 10.073c0.023 0 0.047-0.019 0.047-0.042l0.145-2.602c0-0.019-0.009-0.028-0.014-0.033s-0.019-0.014-0.033-0.014h-2.887c-0.014 0-0.028 0.009-0.038 0.019l-1.856 2.677c-0.014 0.019-0.009 0.038-0.005 0.047s0.019 0.023 0.042 0.023l4.598-0.075zM17.639 9.989c0.023 0 0.033-0.014 0.038-0.023s0.014-0.023 0.005-0.047l-1.163-2.522c-0.009-0.019-0.023-0.028-0.042-0.028h-2.273c-0.028 0-0.047 0.019-0.047 0.047v2.583c0 0.028 0.019 0.047 0.047 0.047l3.436-0.056zM21.553 9.923c0.019 0 0.028-0.009 0.038-0.014 0.005-0.005 0.014-0.019 0.009-0.033-0.061-0.577-0.253-1.664-0.877-2.48-0.009-0.009-0.023-0.019-0.038-0.019h-2.545c-0.023 0-0.038 0.014-0.042 0.023s-0.009 0.028 0 0.047l1.453 2.484c0.009 0.014 0.023 0.023 0.042 0.023l1.959-0.033zM18.694 13.575c-1.148 0-2.081 0.933-2.081 2.081 0 0.005 0 0.014 0 0.019 0.009 1.139 0.938 2.062 2.081 2.062 1.148 0 2.081-0.933 2.081-2.081 0 0 0 0 0-0.005-0.005-1.144-0.933-2.077-2.081-2.077zM18.694 16.636c-0.539 0-0.98-0.436-0.98-0.98s0.436-0.98 0.98-0.98c0.539 0 0.98 0.436 0.98 0.98s-0.441 0.98-0.98 0.98z"></path>
</svg>
