<svg xmlns="http://www.w3.org/2000/svg" viewBox="0 0 1024 1024"><path d="M80.2 535.733s-1-.4-2.6-1.4c-1-26 15.2-48 22.8-56.8l1.2-1.2 26.8 8c5 1.4 6.2 8 2.2 11.2l-50.4 40.2zm-25 69.8H28.4l4 41.4H34c28.8-3 21.2-41.4 21.2-41.4zm899.6-153v73.8l18.4-.8c-.2-15-1.4-42.6-6.8-74.2l-11.6 1.2zm-740.8 148c-49 0-88.8 39.8-88.8 88.8v.8c.4 48.6 40 88 88.8 88s88.2-39.4 88.8-88v-.8c0-49-39.8-88.8-88.8-88.8zm0 130.6c-23 0-41.8-18.6-41.8-41.8s18.6-41.8 41.8-41.8c23 0 41.8 18.6 41.8 41.8s-18.8 41.8-41.8 41.8zm788.2-168.4c0 3.8-1.6 7.6-3.6 11.2-9.8 16-15.8 34.2-15.8 53v31c0 6.8-4.8 12.8-11.6 14.2l-71.2 14.4c-1.6-55.2-46.8-99.6-102.2-99.6-56.4 0-102.4 46-102.4 102.4v.8h-379v-.8c0-56.4-46-102.4-102.4-102.4s-102.4 46-102.4 102.4v.8H24.2c-9.4-11 5.8-26.6 9-29.6.8 0 1.4 0 2.2-.2 10.8-1.2 19.6-6 25.6-14.2 12.2-16.6 8-40.8 7.4-43.4-1.2-6.4-6.8-11-13.4-11H27l-1.8-18.8c-.6-6.2 2.8-12.2 8.6-14.6l33.4-14.6c3.8 2.8 7.2 4.2 8 4.6 1.6.6 3.2 1 5 1 3 0 6-1 8.4-3l50.6-40c6-4.6 8.6-12.2 7.2-19.6s-6.8-13.4-14-15.4l-4.8-1.4 181-28 69.8-97.2c19.6-27.2 50.8-43.2 84.4-43.2h26.4l42.4-41c2-2 4.8-3 7.6-3h309c3.8 0 7.4 2 9.2 5.2l23.4 38.8h59c7 0 10.6 8.4 5.8 13.4-3.8 4-8.4 7.8-12.4 11-6 4.6-7.4 13.2-3.4 19.6 17.4 28.2 28 61.6 34.2 92.6l-10.4 1c-7 .6-12.4 6.6-12.4 13.6v73.8c0 3.8 1.6 7.2 4.2 9.8 2.6 2.4 6 3.8 9.4 3.8h.6l19.8-.8c.6 0 1-.2 1.6-.2 7.6 3.4 25.4 12.8 25.4 23.6zm-170-261.2l-10.6-22.6H564l-14.2 22.6h282.4zm-279 149.6c1 0 2-.8 2-1.8l6.2-111c0-.8-.4-1.2-.6-1.4s-.8-.6-1.4-.6H436.2c-.6 0-1.2.4-1.6.8l-79.2 114.2c-.6.8-.4 1.6-.2 2s.8 1 1.8 1l196.2-3.2zm199.4-3.6c1 0 1.4-.6 1.6-1s.6-1 .2-2l-49.6-107.6c-.4-.8-1-1.2-1.8-1.2h-97c-1.2 0-2 .8-2 2v110.2c0 1.2.8 2 2 2l146.6-2.4zm167-2.8c.8 0 1.2-.4 1.6-.6.2-.2.6-.8.4-1.4-2.6-24.6-10.8-71-37.4-105.8-.4-.4-1-.8-1.6-.8H774c-1 0-1.6.6-1.8 1s-.4 1.2 0 2l62 106c.4.6 1 1 1.8 1l83.6-1.4zm-122 155.8c-49 0-88.8 39.8-88.8 88.8v.8c.4 48.6 40 88 88.8 88 49 0 88.8-39.8 88.8-88.8v-.2c-.2-48.8-39.8-88.6-88.8-88.6zm0 130.6c-23 0-41.8-18.6-41.8-41.8s18.6-41.8 41.8-41.8c23 0 41.8 18.6 41.8 41.8s-18.8 41.8-41.8 41.8z"/></svg>