<svg xmlns="http://www.w3.org/2000/svg" viewBox="0 0 1024 1024"><path d="M997.361 165.376c-2.675-31.313-27.967-57.639-59.765-57.639H86.404c-31.798 0-57.09 26.326-59.765 57.639h-1.034v793.553c0 33.561 27.238 60.799 60.799 60.799h851.192c33.561 0 60.799-27.238 60.799-60.799V165.376h-1.034zM390.402 472.534V290.137h243.195v182.397H390.402zm243.196 60.799v187.445H390.403V533.333h243.195zM329.603 290.138v182.397H86.408V290.138h243.195zM86.404 533.333h243.195v187.445H86.404V533.333zm0 425.596V776.532h243.195v182.397H86.404zm303.998 0V776.532h243.195v182.397H390.402zm547.194 0H694.401V776.532h243.195v182.397zm0-238.151H694.401V533.333h243.195v187.445zm0-248.244H694.401V290.137h243.195v182.397z"/></svg>