<!-- Generated by IcoMoon.io -->
<svg version="1.1" xmlns="http://www.w3.org/2000/svg" width="24" height="24" viewBox="0 0 24 24">
<title>tablet</title>
<path d="M18.89 0.296h-13.862c-1.162 0-2.158 0.996-2.158 2.075v19.175c0 1.162 0.996 2.075 2.158 2.075h13.862c1.162 0 2.075-0.913 2.075-2.075v-19.175c0-1.079-0.913-2.075-2.075-2.075zM11.917 0.877c0.415 0 0.747 0.332 0.747 0.747s-0.332 0.747-0.747 0.747c-0.415 0-0.747-0.332-0.747-0.747 0.083-0.415 0.332-0.747 0.747-0.747zM11.917 23.040c-0.664 0-1.245-0.581-1.245-1.245s0.581-1.245 1.245-1.245c0.664 0 1.245 0.581 1.245 1.245s-0.498 1.245-1.245 1.245zM18.973 19.969h-14.028v-17.1h14.028v17.1z"></path>
</svg>
