<!-- Generated by IcoMoon.io -->
<svg version="1.1" xmlns="http://www.w3.org/2000/svg" width="24" height="24" viewBox="0 0 24 24">
<title>table</title>
<path d="M23.376 3.376c-0.063-0.734-0.655-1.351-1.401-1.351h-19.95c-0.745 0-1.338 0.617-1.401 1.351h-0.024v18.599c0 0.787 0.638 1.425 1.425 1.425h19.95c0.787 0 1.425-0.638 1.425-1.425v-18.599h-0.024zM9.15 10.575v-4.275h5.7v4.275h-5.7zM14.85 12v4.393h-5.7v-4.393h5.7zM7.725 6.3v4.275h-5.7v-4.275h5.7zM2.025 12h5.7v4.393h-5.7v-4.393zM2.025 21.975v-4.275h5.7v4.275h-5.7zM9.15 21.975v-4.275h5.7v4.275h-5.7zM21.975 21.975h-5.7v-4.275h5.7v4.275zM21.975 16.393h-5.7v-4.393h5.7v4.393zM21.975 10.575h-5.7v-4.275h5.7v4.275z"></path>
</svg>
