<!-- Generated by IcoMoon.io -->
<svg version="1.1" xmlns="http://www.w3.org/2000/svg" width="24" height="24" viewBox="0 0 24 24">
<title>tags</title>
<path d="M21.335 0.562c-0.013 0-0.026 0-0.039 0-0.011 0-0.021-0.001-0.033 0h-7.559c-0.219 0.011-0.716 0.353-0.781 0.417l-9.1 9.099c-0.558 0.558-0.558 1.461 0 2.019l1.135 1.135-1.135 1.135c-0.558 0.558-0.558 1.461 0 2.019l6.642 6.642c0.279 0.279 0.643 0.417 1.009 0.417s0.731-0.139 1.009-0.417l9.099-9.1c0.066-0.064 0.425-0.505 0.425-0.779v-11.877c0.020-0.399-0.282-0.711-0.673-0.711zM19.863 1.986c0.395 0 0.715 0.32 0.715 0.715s-0.32 0.715-0.715 0.715-0.715-0.32-0.715-0.715 0.32-0.715 0.715-0.715zM20.574 12.919l-9.096 9.1-6.642-6.64 1.135-1.135 4.496 4.496c0.279 0.279 0.643 0.417 1.009 0.417s0.731-0.139 1.009-0.417l8.092-8.094v2.26c-0.004 0.007-0.007 0.011-0.004 0.011-0.001 0-0.001 0 0 0z"></path>
</svg>
