<svg xmlns="http://www.w3.org/2000/svg" viewBox="0 0 1024 1024"><path d="M910.275 45.327h-1.647c-.488 0-.915-.061-1.403 0h-322.51c-9.333.488-30.561 15.067-33.306 17.812l-388.271 388.21c-23.79 23.79-23.79 62.342 0 86.132l48.434 48.434-48.434 48.434c-23.79 23.79-23.79 62.342 0 86.132l283.409 283.409c11.895 11.895 27.45 17.812 43.066 17.812s31.171-5.917 43.066-17.812l388.21-388.271c2.806-2.745 18.117-21.533 18.117-33.245V75.641c.854-17.019-12.017-30.317-28.731-30.317zm-62.772 60.756c16.836 0 30.5 13.664 30.5 30.5s-13.664 30.5-30.5 30.5-30.5-13.664-30.5-30.5 13.664-30.5 30.5-30.5zm30.317 466.473L489.732 960.827 206.323 677.54l48.434-48.434 191.848 191.848c11.895 11.895 27.45 17.812 43.066 17.812s31.171-5.917 43.066-17.812L878 475.63v96.441c-.183.305-.305.488-.183.488-.061 0-.061 0 0 0z"/></svg>