<svg xmlns="http://www.w3.org/2000/svg" viewBox="0 0 1024 1024"><path d="M349.867 930.133c-4.267 0-8.533 0-12.8-4.267 0 0-4.267 0-4.267-4.267-12.8-8.533-17.067-21.333-12.8-34.133 8.533-12.8 21.333-17.067 34.133-12.8 0 0 4.267 0 4.267 4.267 12.8 8.533 17.067 21.333 12.8 34.133s-12.8 17.067-21.333 17.067zM277.333 883.2c-4.267 0-12.8 0-17.067-4.267l-4.267-4.267c-12.8-8.533-12.8-25.6-4.267-38.4s25.6-12.8 38.4-4.267l4.267 4.267c12.8 8.533 12.8 25.6 4.267 38.4-8.533 4.267-17.067 8.533-21.333 8.533zm-64-59.734c-8.533 0-17.067-4.267-21.333-8.533l-4.267-4.267c-8.533-12.8-8.533-29.867 4.267-38.4s29.867-8.533 38.4 4.267l4.267 4.267c8.533 12.8 8.533 29.867-4.267 38.4-4.267 0-12.8 4.267-17.067 4.267zm-46.933-76.8c-8.533 0-21.333-4.267-25.6-17.067 0 0 0-4.267-4.267-4.267-4.267-12.8 0-29.867 12.8-34.133s29.867 0 34.133 12.8c0 0 0 4.267 4.267 4.267 4.267 12.8 0 29.867-12.8 34.133 0 4.267-4.267 4.267-8.533 4.267zM192 354.133c-4.267 0-8.533 0-12.8-4.267-12.8-8.533-17.067-25.6-8.533-38.4l4.267-4.267c8.533-12.8 25.6-17.067 38.4-8.533s17.067 25.6 8.533 38.4c0 0 0 4.267-4.267 4.267-8.533 8.533-17.067 12.8-25.6 12.8zm59.733-68.267c-8.533 0-17.067-4.267-21.333-8.533-8.533-8.533-8.533-25.6 0-38.4l4.267-4.267c12.8-8.533 25.6-8.533 38.4 0 8.533 12.8 8.533 25.6 0 38.4 0 4.267-4.267 4.267-4.267 4.267-4.267 4.267-12.8 8.533-17.067 8.533zM320 230.4c-8.533 0-17.067-4.267-21.333-12.8-8.533-12.8-4.267-25.6 8.533-34.133l4.267-4.267c12.8-8.533 29.867-4.267 38.4 8.533s4.267 29.867-8.533 34.133c0 0-4.267 0-4.267 4.267-8.533 4.267-12.8 4.267-17.067 4.267zm341.333 699.733c-8.533 0-21.333-4.267-25.6-12.8-8.533-12.8 0-29.867 12.8-34.133 0 0 4.267 0 4.267-4.267 12.8-8.533 29.867 0 34.133 12.8 8.533 12.8 0 29.867-12.8 34.133 0 0-4.267 0-4.267 4.267h-8.533zm76.8-46.933c-8.533 0-17.067-4.267-21.333-8.533-8.533-12.8-8.533-29.867 4.267-38.4l4.267-4.267c12.8-8.533 29.867-8.533 38.4 4.267s8.533 29.867-4.267 38.4l-4.267 4.267c-8.533 4.267-12.8 4.267-17.067 4.267zm59.734-59.734c-4.267 0-12.8 0-17.067-4.267-12.8-8.533-12.8-25.6-4.267-38.4l4.267-4.267c8.533-12.8 25.6-12.8 38.4-4.267s12.8 25.6 4.267 38.4l-4.267 4.267c-4.267 4.267-12.8 8.533-21.333 8.533zm46.933-76.8c-4.267 0-8.533 0-12.8-4.267-12.8-4.267-17.067-21.333-12.8-34.133 0 0 0-4.267 4.267-4.267 4.267-12.8 21.333-17.067 34.133-12.8s17.067 21.333 12.8 34.133c0 0 0 4.267-4.267 4.267 0 12.8-12.8 17.067-21.333 17.067zm-25.6-392.533c-8.533 0-17.067-4.267-21.333-12.8 0 0 0-4.267-4.267-4.267-8.533-12.8-4.267-29.867 8.533-38.4s29.867-4.267 38.4 8.533l4.267 4.267c8.533 12.8 4.267 29.867-8.533 38.4-8.533 0-12.8 4.267-17.067 4.267zm-59.733-68.267c-8.533 0-12.8-4.267-17.067-8.533l-4.267-4.267c-12.8-8.533-12.8-25.6 0-38.4 8.533-12.8 25.6-12.8 38.4 0l4.267 4.267c8.533 8.533 12.8 25.6 0 38.4-4.267 4.267-12.8 8.533-21.333 8.533zM691.2 230.4c-4.267 0-8.533 0-12.8-4.267 0 0-4.267 0-4.267-4.267-12.8-8.533-17.067-25.6-8.533-34.133 8.533-12.8 25.6-17.067 34.133-8.533 0 0 4.267 0 4.267 4.267 12.8 8.533 17.067 25.6 8.533 38.4-4.267 4.267-12.8 8.533-21.333 8.533zm-68.267 38.4c0-34.133-21.333-59.733-42.667-76.8-17.067-12.8-34.133-17.067-42.667-17.067 38.4-21.333 51.2-68.267 29.867-110.933-12.8-25.6-38.4-38.4-68.267-42.667-25.6 0-51.2 17.067-68.267 42.667-21.333 38.4-8.533 85.333 29.867 110.933-8.533 0-21.333 4.267-42.667 17.067-21.333 17.067-42.667 42.667-42.667 76.8 0 17.067 0 4.267 0 0v12.8c38.4 12.8 81.067 21.333 119.467 21.333s81.067-8.533 119.467-21.333c8.533-8.533 8.533-12.8 8.533-12.8 0 4.267 0 17.067 0 0zm0 721.066c0-34.133-21.333-59.733-42.667-76.8-17.067-12.8-34.133-17.067-42.667-17.067 38.4-21.333 51.2-68.267 29.867-110.933-12.8-25.6-38.4-38.4-68.267-42.667-25.6 0-51.2 17.067-68.267 42.667-21.333 38.4-8.533 85.333 29.867 110.933-8.533 0-21.333 4.267-42.667 17.067-21.333 17.067-42.667 42.667-42.667 76.8 0 17.067 0 4.267 0 0v12.8c38.4 12.8 81.067 21.333 119.467 21.333s81.067-8.533 119.467-21.333c8.533-8.533 8.533-12.8 8.533-12.8 0 4.267 0 17.067 0 0zm366.934-366.933c0-34.133-21.333-59.733-42.667-76.8-17.067-12.8-34.133-17.067-42.667-17.067 38.4-21.333 51.2-68.267 29.867-110.933-12.8-25.6-38.4-38.4-68.267-42.667-25.6 0-51.2 17.067-68.267 42.667-21.333 38.4-8.533 85.333 29.867 110.933-8.533 0-21.333 4.267-42.667 17.067-21.333 17.067-42.667 42.667-42.667 76.8 0 17.067 0 4.267 0 0v12.8c38.4 12.8 81.067 21.333 119.467 21.333s81.067-8.533 119.467-21.333c8.533-4.267 8.533-8.533 8.533-12.8 0 4.267 0 17.067 0 0zm-716.8 0c0-34.133-21.333-59.733-42.667-76.8-17.067-12.8-34.133-17.067-42.667-17.067 38.4-21.333 51.2-68.267 29.867-110.933-12.8-25.6-38.4-38.4-68.267-42.667-21.333 4.267-46.933 21.333-64 46.933C64 460.799 76.8 507.732 115.2 533.332c-8.533 0-21.333 4.267-42.667 17.067-21.333 17.067-42.667 42.667-42.667 76.8 0 17.067 0 4.267 0 0v12.8c38.4 12.8 81.067 21.333 119.467 21.333s81.067-8.533 119.467-21.333c4.267-8.533 4.267-12.8 4.267-17.067 0 4.267 0 17.067 0 0z"/></svg>