<!-- Generated by IcoMoon.io -->
<svg version="1.1" xmlns="http://www.w3.org/2000/svg" width="24" height="24" viewBox="0 0 24 24">
<title>team</title>
<path d="M22.9 7.6c-0.6-1.5-1.5-2.8-2.6-3.9-0.9-0.9-2-1.7-3.2-2.3-1.1-0.6-2.4-0.9-3.6-1.1s-2.5-0.1-3.7 0.1c-1.1 0.2-2.2 0.6-3.2 1.1l-0.8-1.2-1.7 3.8 4.1-0.4-0.7-1.1c4-1.9 8.7-1.1 11.9 2 3.6 3.6 4 9.3 1.2 13.3l1.1 0.8c0.5-0.7 0.9-1.5 1.3-2.3 0.6-1.4 0.9-2.9 0.9-4.4s-0.4-3-1-4.4z"></path>
<path d="M16.5 21.4c-4 1.9-8.7 1.1-11.9-2-3.6-3.7-4-9.3-1.1-13.4l-1.2-0.8c-0.5 0.8-0.9 1.5-1.2 2.4-0.6 1.4-0.9 2.9-0.9 4.4s0.3 3 0.9 4.4c0.6 1.5 1.5 2.8 2.6 3.9 0.9 0.9 2 1.7 3.2 2.3 1.1 0.6 2.4 0.9 3.6 1.1 0.5 0.1 1 0.1 1.5 0.1 0.8 0 1.5-0.1 2.2-0.2 1.1-0.2 2.1-0.6 3.1-1.1l0.8 1.1 1.7-3.8-4.1 0.4 0.8 1.2z"></path>
<path d="M4.7 17.2h2.7v-2.8c0-1 0.3-1.9 0.8-2.7 0 0 0 0-0.1 0-0.4 0.2-0.8 0.4-1.3 0.4s-0.9-0.1-1.3-0.4c-1 0.5-1.6 1.5-1.6 2.6v2.1c0 0.4 0.3 0.8 0.8 0.8z"></path>
<path d="M8.2 11.7c0 0 0 0 0 0s0 0.1 0 0z"></path>
<path d="M6.9 7.8c-1 0-1.9 0.8-1.9 1.9 0 0.5 0.3 1 0.7 1.4 0.1 0.1 0.2 0.2 0.3 0.2 0.2 0.1 0.3 0.2 0.5 0.2 0.1 0 0.2 0 0.4 0 0.1 0 0.2 0 0.4 0s0.4-0.1 0.5-0.2c0.1-0.1 0.2-0.2 0.3-0.3 0.4-0.3 0.6-0.8 0.6-1.4 0-1-0.8-1.8-1.8-1.8z"></path>
<path d="M18.4 11.7c-0.4 0.2-0.8 0.4-1.3 0.4s-0.9-0.1-1.3-0.4c0 0-0.1 0-0.1 0.1 0.5 0.8 0.8 1.7 0.8 2.6v2.8h2.7c0.4 0 0.8-0.3 0.8-0.8v-2.1c0-1.1-0.6-2.1-1.6-2.6z"></path>
<path d="M16.2 11.2c0.2 0.1 0.3 0.2 0.5 0.2 0.1 0 0.2 0 0.4 0 0.1 0 0.2 0 0.4 0s0.4-0.1 0.5-0.2c0.1-0.1 0.2-0.1 0.3-0.2 0.4-0.3 0.7-0.8 0.7-1.4 0-1-0.8-1.8-1.8-1.8s-1.8 0.8-1.8 1.8c-0.1 0.6 0.2 1.1 0.5 1.4 0.1 0.1 0.2 0.2 0.3 0.2z"></path>
<path d="M8.9 11.9c-0.1 0.1-0.1 0.2-0.2 0.2-0.4 0.7-0.7 1.5-0.7 2.4v2.8c0 0.1 0 0.2 0 0.3s0.1 0.2 0.1 0.3c0.2 0.3 0.6 0.5 1 0.5h5.7c0.4 0 0.8-0.2 1-0.5 0.1-0.1 0.1-0.2 0.1-0.3s0-0.2 0-0.3v-2.8c0-0.8-0.3-1.6-0.7-2.3 0-0.2-0.1-0.2-0.1-0.3-0.1-0.1-0.1-0.1-0.2-0.2 0 0 0 0-0.1-0.1-0.3-0.3-0.7-0.6-1.1-0.8-0.5 0.3-1.1 0.5-1.7 0.5s-1.2-0.2-1.7-0.5c-0.4 0.2-0.8 0.5-1.2 0.9-0.1 0.1-0.1 0.1-0.2 0.2z"></path>
<path d="M10.7 10.3c0.1 0.1 0.3 0.1 0.4 0.2 0.3 0.1 0.6 0.2 0.9 0.2s0.6-0.1 0.9-0.2c0.1-0.1 0.3-0.1 0.4-0.2s0.2-0.1 0.3-0.2c0.6-0.5 0.9-1.2 0.9-2 0-1.4-1.1-2.6-2.6-2.6s-2.5 1.3-2.5 2.7c0 0.8 0.4 1.5 1 1.9 0.1 0.1 0.2 0.1 0.3 0.2z"></path>
</svg>
