<!-- Generated by IcoMoon.io -->
<svg version="1.1" xmlns="http://www.w3.org/2000/svg" width="24" height="24" viewBox="0 0 24 24">
<title>teams</title>
<path d="M8.2 21.3c-0.1 0-0.2 0-0.3-0.1 0 0-0.1 0-0.1-0.1-0.3-0.2-0.4-0.5-0.3-0.8 0.2-0.3 0.5-0.4 0.8-0.3 0 0 0.1 0 0.1 0.1 0.3 0.2 0.4 0.5 0.3 0.8s-0.3 0.4-0.5 0.4zM6.5 20.2c-0.1 0-0.3 0-0.4-0.1s-0.1-0.1-0.1-0.1c-0.3-0.2-0.3-0.6-0.1-0.9s0.6-0.3 0.9-0.1c0 0 0.1 0.1 0.1 0.1 0.3 0.2 0.3 0.6 0.1 0.9-0.2 0.1-0.4 0.2-0.5 0.2zM5 18.8c-0.2 0-0.4-0.1-0.5-0.2 0 0-0.1-0.1-0.1-0.1-0.2-0.3-0.2-0.7 0.1-0.9s0.7-0.2 0.9 0.1c0 0 0.1 0.1 0.1 0.1 0.2 0.3 0.2 0.7-0.1 0.9-0.1 0-0.3 0.1-0.4 0.1zM3.9 17c-0.2 0-0.5-0.1-0.6-0.4 0 0 0-0.1-0.1-0.1-0.1-0.3 0-0.7 0.3-0.8s0.7 0 0.8 0.3c0 0 0 0.1 0.1 0.1 0.1 0.3 0 0.7-0.3 0.8 0 0.1-0.1 0.1-0.2 0.1z"></path>
<path d="M4.5 7.8c-0.1 0-0.2 0-0.3-0.1-0.3-0.2-0.4-0.6-0.2-0.9 0 0 0.1-0.1 0.1-0.1 0.2-0.3 0.6-0.4 0.9-0.2s0.4 0.6 0.2 0.9c0 0 0 0.1-0.1 0.1-0.2 0.2-0.4 0.3-0.6 0.3zM5.9 6.2c-0.2 0-0.4-0.1-0.5-0.2-0.2-0.2-0.2-0.6 0-0.9 0 0 0.1-0.1 0.1-0.1 0.3-0.2 0.6-0.2 0.9 0 0.2 0.3 0.2 0.6 0 0.9 0 0.1-0.1 0.1-0.1 0.1-0.1 0.1-0.3 0.2-0.4 0.2zM7.5 4.9c-0.2 0-0.4-0.1-0.5-0.3-0.2-0.3-0.1-0.6 0.2-0.8 0 0 0.1-0.1 0.1-0.1 0.3-0.2 0.7-0.1 0.9 0.2s0.1 0.7-0.2 0.8c0 0-0.1 0-0.1 0.1-0.2 0.1-0.3 0.1-0.4 0.1z"></path>
<path d="M15.5 21.3c-0.2 0-0.5-0.1-0.6-0.3-0.2-0.3 0-0.7 0.3-0.8 0 0 0.1 0 0.1-0.1 0.3-0.2 0.7 0 0.8 0.3 0.2 0.3 0 0.7-0.3 0.8 0 0-0.1 0-0.1 0.1 0 0-0.1 0-0.2 0zM17.3 20.2c-0.2 0-0.4-0.1-0.5-0.2-0.2-0.3-0.2-0.7 0.1-0.9 0 0 0.1-0.1 0.1-0.1 0.3-0.2 0.7-0.2 0.9 0.1s0.2 0.7-0.1 0.9c0 0-0.1 0.1-0.1 0.1-0.2 0.1-0.3 0.1-0.4 0.1zM18.7 18.8c-0.1 0-0.3 0-0.4-0.1-0.3-0.2-0.3-0.6-0.1-0.9 0 0 0.1-0.1 0.1-0.1 0.2-0.3 0.6-0.3 0.9-0.1s0.3 0.6 0.1 0.9c0 0-0.1 0.1-0.1 0.1-0.1 0.1-0.3 0.2-0.5 0.2zM19.8 17c-0.1 0-0.2 0-0.3-0.1-0.3-0.1-0.4-0.5-0.3-0.8 0 0 0-0.1 0.1-0.1 0.1-0.3 0.5-0.4 0.8-0.3s0.4 0.5 0.3 0.8c0 0 0 0.1-0.1 0.1 0 0.3-0.3 0.4-0.5 0.4z"></path>
<path d="M19.2 7.8c-0.2 0-0.4-0.1-0.5-0.3 0 0 0-0.1-0.1-0.1-0.2-0.3-0.1-0.7 0.2-0.9s0.7-0.1 0.9 0.2c0 0 0.1 0.1 0.1 0.1 0.2 0.3 0.1 0.7-0.2 0.9-0.2 0-0.3 0.1-0.4 0.1zM17.8 6.2c-0.2 0-0.3-0.1-0.4-0.2 0 0-0.1-0.1-0.1-0.1-0.3-0.2-0.3-0.6 0-0.9 0.2-0.3 0.6-0.3 0.9 0 0 0 0.1 0.1 0.1 0.1 0.2 0.2 0.3 0.6 0 0.9-0.1 0.1-0.3 0.2-0.5 0.2zM16.2 4.9c-0.1 0-0.2 0-0.3-0.1 0 0-0.1 0-0.1-0.1-0.3-0.2-0.4-0.6-0.2-0.8 0.2-0.3 0.6-0.4 0.8-0.2 0 0 0.1 0 0.1 0.1 0.3 0.2 0.4 0.6 0.2 0.9-0.1 0.1-0.3 0.2-0.5 0.2z"></path>
<path d="M14.6 5.8c0-0.8-0.5-1.4-1-1.8-0.4-0.3-0.8-0.4-1-0.4 0.9-0.5 1.2-1.6 0.7-2.6-0.3-0.6-0.9-0.9-1.6-1-0.6 0-1.2 0.4-1.6 1-0.5 0.9-0.2 2 0.7 2.6-0.2 0-0.5 0.1-1 0.4-0.5 0.4-1 1-1 1.8 0 0.4 0 0.1 0 0 0 0 0 0.1 0 0.3 0.9 0.3 1.9 0.5 2.8 0.5s1.9-0.2 2.8-0.5c0.2-0.2 0.2-0.3 0.2-0.3 0 0.1 0 0.4 0 0z"></path>
<path d="M14.6 22.7c0-0.8-0.5-1.4-1-1.8-0.4-0.3-0.8-0.4-1-0.4 0.9-0.5 1.2-1.6 0.7-2.6-0.3-0.6-0.9-0.9-1.6-1-0.6 0-1.2 0.4-1.6 1-0.5 0.9-0.2 2 0.7 2.6-0.2 0-0.5 0.1-1 0.4-0.5 0.4-1 1-1 1.8 0 0.4 0 0.1 0 0 0 0 0 0.1 0 0.3 0.9 0.3 1.9 0.5 2.8 0.5s1.9-0.2 2.8-0.5c0.2-0.2 0.2-0.3 0.2-0.3 0 0.1 0 0.4 0 0z"></path>
<path d="M23.2 14.1c0-0.8-0.5-1.4-1-1.8-0.4-0.3-0.8-0.4-1-0.4 0.9-0.5 1.2-1.6 0.7-2.6-0.3-0.6-0.9-0.9-1.6-1-0.6 0-1.2 0.4-1.6 1-0.5 0.9-0.2 2 0.7 2.6-0.2 0-0.5 0.1-1 0.4-0.5 0.4-1 1-1 1.8 0 0.4 0 0.1 0 0 0 0 0 0.1 0 0.3 0.9 0.3 1.9 0.5 2.8 0.5s1.9-0.2 2.8-0.5c0.2-0.1 0.2-0.2 0.2-0.3 0 0.1 0 0.4 0 0z"></path>
<path d="M6.4 14.1c0-0.8-0.5-1.4-1-1.8-0.4-0.3-0.8-0.4-1-0.4 0.9-0.5 1.2-1.6 0.7-2.6-0.3-0.6-0.9-0.9-1.6-1-0.5 0.1-1.1 0.5-1.5 1.1-0.5 0.9-0.2 2 0.7 2.6-0.2 0-0.5 0.1-1 0.4-0.5 0.4-1 1-1 1.8 0 0.4 0 0.1 0 0 0 0 0 0.1 0 0.3 0.9 0.3 1.9 0.5 2.8 0.5s1.9-0.2 2.8-0.5c0.1-0.2 0.1-0.3 0.1-0.4 0 0.1 0 0.4 0 0z"></path>
</svg>
