<svg xmlns="http://www.w3.org/2000/svg" viewBox="0 0 1024 1024"><path d="M977.067 345.6c-25.6-64-64-119.467-110.933-166.4-38.4-38.4-85.333-72.533-136.533-98.133-46.933-25.6-102.4-38.4-153.6-46.933s-106.667-4.267-157.867 4.267c-46.933 8.533-93.867 25.6-136.533 46.933l-34.133-51.2-72.533 162.133L349.868 179.2l-29.867-46.933C490.668 51.2 691.201 85.334 827.734 217.6c153.6 153.6 170.667 396.8 51.2 567.467l46.933 34.133c21.333-29.867 38.4-64 55.467-98.133 25.6-59.733 38.4-123.733 38.4-187.733s-17.067-128-42.667-187.733zM704 934.4c-170.667 81.067-371.2 46.933-507.733-85.333C42.667 691.2 25.6 452.267 149.334 277.334l-51.2-34.133c-21.333 34.133-38.4 64-51.2 102.4-25.6 59.733-38.4 123.733-38.4 187.733s12.8 128 38.4 187.733c25.6 64 64 119.467 110.933 166.4C196.267 925.867 243.2 960 294.4 985.6c46.933 25.6 102.4 38.4 153.6 46.933 21.333 4.267 42.667 4.267 64 4.267 34.133 0 64-4.267 93.867-8.533 46.933-8.533 89.6-25.6 132.267-46.933l34.133 46.933L844.8 866.134l-174.933 17.067 34.133 51.2zM200.533 755.2h115.2V635.733c0-42.667 12.8-81.067 34.133-115.2h-4.267c-17.067 8.533-34.133 17.067-55.467 17.067s-38.4-4.267-55.467-17.067c-42.667 21.333-68.267 64-68.267 110.933v89.6c0 17.067 12.8 34.133 34.133 34.133zm149.334-234.667s0 4.267 0 0zm-55.467-166.4c-42.667 0-81.067 34.133-81.067 81.067 0 21.333 12.8 42.667 29.867 59.733 4.267 4.267 8.533 8.533 12.8 8.533 8.533 4.267 12.8 8.533 21.333 8.533h34.134c8.534 0 17.067-4.267 21.333-8.533l12.8-12.8c17.067-12.8 25.6-34.133 25.6-59.733 0-42.667-34.133-76.8-76.8-76.8zm490.667 166.4C768 529.066 750.934 537.6 729.6 537.6s-38.4-4.267-55.467-17.067c0 0-4.267 0-4.267 4.267 21.333 34.133 34.133 72.533 34.133 110.933V755.2h115.2c17.067 0 34.133-12.8 34.133-34.133v-89.6c0-46.933-25.6-89.6-68.267-110.933zM691.2 499.2c8.533 4.267 12.8 8.533 21.333 8.533h34.134c8.534 0 17.067-4.267 21.333-8.533 4.267-4.267 8.533-4.267 12.8-8.533 17.067-12.8 29.867-34.133 29.867-59.733 0-42.667-34.133-76.8-76.8-76.8s-76.8 34.133-76.8 76.8c-4.267 25.6 8.533 46.933 21.333 59.733 4.267 4.267 8.533 8.533 12.8 8.533zm-311.467 29.866c-4.267 4.267-4.267 8.533-8.533 8.533-17.067 29.867-29.867 64-29.867 102.4v132.267c0 4.267 4.267 8.533 4.267 12.8 8.533 12.8 25.6 21.333 42.667 21.333h243.2c17.067 0 34.133-8.533 42.667-21.333 4.267-4.267 4.267-8.533 4.267-12.8V639.999c0-34.133-12.8-68.267-29.867-98.133 0-8.533-4.267-8.533-4.267-12.8l-8.533-8.533-4.267-4.267c-12.8-12.8-29.867-25.6-46.933-34.133-21.333 12.8-46.933 21.333-72.533 21.333s-51.2-8.533-72.533-21.333c-17.067 8.533-34.133 21.333-51.2 38.4l-8.533 8.533zm76.8-68.266c4.267 4.267 12.8 4.267 17.067 8.533 12.8 4.267 25.6 8.533 38.4 8.533s25.6-4.267 38.4-8.533c4.267-4.267 12.8-4.267 17.067-8.533s8.533-4.267 12.8-8.533c25.6-21.333 38.4-51.2 38.4-85.333 0-59.733-46.933-110.933-110.933-110.933s-106.667 55.467-106.667 115.2c0 34.133 17.067 64 42.667 81.067 4.267 4.267 8.533 4.267 12.8 8.533z"/></svg>