<!-- Generated by IcoMoon.io -->
<svg version="1.1" xmlns="http://www.w3.org/2000/svg" width="24" height="24" viewBox="0 0 24 24">
<title>technology-reuse</title>
<path d="M14.8 8c-0.5-0.3-1.1-0.5-1.7-0.5-1.2 0-2.3 0.7-2.7 1.9-0.2-0.1-0.4-0.2-0.7-0.2-0.9 0-1.7 0.8-1.7 1.7 0 0 0 0 0 0-1.1 0.1-2 1.1-2 2.2 0 0.4 0.1 0.8 0.3 1.1 0.4 0.7 1.1 1.1 1.9 1.1h7.4c1.2 0 2.2-1 2.2-2.2 0 0 0 0 0 0 0-1.1-0.7-2-1.8-2.2 0-0.2 0.1-0.4 0.1-0.5 0-1-0.5-1.8-1.3-2.4z"></path>
<path d="M20.5 12c0.2 0.3 0.5 0.5 0.8 0.5 0.1 0 0.3 0 0.4-0.1 0.4-0.2 0.6-0.7 0.4-1.2l-0.2-0.2c-0.2-0.4-0.7-0.6-1.2-0.4-0.4 0.2-0.6 0.7-0.4 1.2l0.2 0.2z"></path>
<path d="M23.2 14.1c0-0.1 0-0.2 0-0.2-0.1-0.5-0.6-0.8-1-0.7-0.5 0.1-0.8 0.6-0.7 1 0 0 0 0.1 0 0.1 0.1 0.4 0.4 0.7 0.9 0.7 0 0 0.1 0 0.1 0 0.5 0 0.8-0.4 0.7-0.9z"></path>
<path d="M22.1 15.9c-0.4-0.2-0.9 0-1.1 0.4 0 0.1-0.1 0.1-0.1 0.2s-0.1 0.2-0.1 0.3c0 0 0 0.4 0.3 0.6s0.6 0.2 0.6 0.2c0.2 0 0.6 0 0.9-0.7 0.2-0.3 0-0.8-0.5-1z"></path>
<path d="M20.3 18.5c-0.4-0.3-0.9-0.2-1.2 0.2-0.6 0.8-1.9 0.9-2.5 0.9-0.1 0-0.2 0-0.3 0v-1.4c0-0.3 0-0.5-0.2-0.6s-0.5-0.1-0.7 0l-3.3 2.4c-0.2 0.1-0.3 0.4-0.3 0.6 0 0.3 0.1 0.5 0.3 0.6l3.2 2.1c0.2 0.1 0.5 0.2 0.7 0.1s0.2-0.4 0.2-0.7v-1.4c0.1 0 0.2 0 0.3 0 1.8 0 3.2-0.6 3.9-1.7 0.4-0.3 0.3-0.8-0.1-1.1z"></path>
<path d="M4.2 17.7c-0.3-0.4-0.8-0.5-1.2-0.2s-0.5 0.8-0.2 1.2c0 0.1 0.1 0.1 0.1 0.2 0.2 0.2 0.4 0.3 0.7 0.3 0.2 0 0.4-0.1 0.5-0.2 0.4-0.3 0.4-0.8 0.1-1.2 0.1 0 0-0.1 0-0.1z"></path>
<path d="M8.7 19.8h-0.2c-0.5 0-0.9 0.3-0.9 0.8s0.3 0.9 0.8 0.9h0.2c0 0 0 0 0.1 0 0.5 0 0.8-0.4 0.9-0.8-0.1-0.4-0.5-0.8-0.9-0.9z"></path>
<path d="M6.2 19.5c0 0-0.1-0.1-0.1-0.1-0.4-0.2-0.9-0.1-1.2 0.3-0.2 0.4-0.1 0.9 0.3 1.2 0.1 0 0.1 0.1 0.2 0.1 0.1 0.1 0.3 0.1 0.4 0.1 0.3 0 0.6-0.2 0.8-0.4 0.2-0.5 0-1-0.4-1.2z"></path>
<path d="M2.9 15.5c-0.4-0.8-0.5-2.2-0.1-2.9 0.1-0.1 0.2-0.3 0.2-0.4l1.4 0.7c0.2 0.1 0.4 0.2 0.6 0.1s0.4-0.4 0.3-0.6l-0.6-4c0-0.2-0.2-0.4-0.4-0.5-0.3-0.1-0.5-0.1-0.7 0l-3.4 1.8c-0.2 0.1-0.4 0.4-0.4 0.7 0 0.2 0.3 0.3 0.5 0.5l1.2 0.6c-0.1 0.1-0.1 0.1-0.2 0.2-0.8 1.4-0.6 3.4 0 4.6 0.2 0.3 0.5 0.5 0.8 0.5 0.1 0 0.3 0 0.4-0.1 0.5-0.3 0.7-0.8 0.4-1.2z"></path>
<path d="M5.6 6c0.1 0.1 0.3 0.1 0.4 0.1 0.3 0 0.6-0.1 0.7-0.4l0.1-0.2c0.4-0.4 0.2-0.9-0.2-1.2-0.4-0.2-0.9-0.1-1.2 0.3l-0.1 0.2c-0.2 0.4-0.1 0.9 0.3 1.2z"></path>
<path d="M10.2 2.4c0 0 0 0 0 0 0.1 0 0.1 0 0.2 0 0.5 0 0.9-0.4 0.9-0.9s-0.4-0.9-0.9-0.9c-0.1 0-0.2 0-0.3 0-0.5 0-0.8 0.4-0.8 0.9 0.1 0.6 0.4 0.9 0.9 0.9z"></path>
<path d="M7.7 3.7c0.2 0 0.4-0.1 0.6-0.3 0 0 0.1-0.1 0.1-0.1 0.4-0.3 0.4-0.9 0-1.2-0.3-0.3-0.9-0.4-1.2 0 0 0-0.1 0.1-0.1 0.1-0.3 0.3-0.3 0.9 0 1.2 0.1 0.2 0.4 0.3 0.6 0.3z"></path>
<path d="M13.2 2.4c1.2 0 1.8 0.5 2.4 1.1l0.2 0.3-0.2 0.2-1 0.5c-0.2 0.1-0.4 0.2-0.5 0.4 0 0.2 0.1 0.5 0.3 0.6l3.7 1.8c0.2 0.1 0.5 0.1 0.7 0s0.4-0.3 0.4-0.5l0.3-3.8c0-0.2-0.1-0.6-0.3-0.7s-0.4 0.1-0.7 0.2l-1 0.5-0.3 0.2-0.2-0.6v-0.1c-0.6-0.9-1.7-1.9-3.8-1.9-0.5 0-0.9 0.4-0.9 0.9 0 0.6 0.4 0.9 0.9 0.9z"></path>
</svg>
