<svg xmlns="http://www.w3.org/2000/svg" viewBox="0 0 1024 1024"><path d="M631.467 362.666c-21.333-12.8-46.933-21.333-72.533-21.333-51.2 0-98.133 29.867-115.2 81.067-8.533-4.267-17.067-8.533-29.867-8.533-38.4 0-72.533 34.133-72.533 72.533-46.933 4.267-85.333 46.933-85.333 93.867 0 17.067 4.267 34.133 12.8 46.933 17.067 29.867 46.933 46.933 81.067 46.933h315.733c51.2 0 93.867-42.667 93.867-93.867 0-46.933-29.867-85.333-76.8-93.867 0-8.533 4.267-17.067 4.267-21.333 0-42.667-21.333-76.8-55.467-102.4zm243.2 170.667c8.533 12.8 21.333 21.333 34.133 21.333 4.267 0 12.8 0 17.067-4.267 17.067-8.533 25.6-29.867 17.067-51.2l-8.533-8.533c-8.533-17.067-29.867-25.6-51.2-17.067-17.067 8.533-25.6 29.867-17.067 51.2l8.533 8.533zm115.2 89.6V614.4c-4.267-21.333-25.6-34.133-42.667-29.867-21.333 4.267-34.133 25.6-29.867 42.667v4.267c4.267 17.067 17.067 29.867 38.4 29.867H960c21.333 0 34.133-17.067 29.867-38.4zm-46.934 76.8c-17.067-8.533-38.4 0-46.933 17.067 0 4.267-4.267 4.267-4.267 8.533s-4.267 8.533-4.267 12.8c0 0 0 17.067 12.8 25.6s25.6 8.533 25.6 8.533c8.533 0 25.6 0 38.4-29.867 8.533-12.8 0-34.133-21.333-42.667zm-76.8 110.933c-17.067-12.8-38.4-8.533-51.2 8.533-25.6 34.133-81.067 38.4-106.667 38.4h-12.8v-59.733c0-12.8 0-21.333-8.533-25.6s-21.333-4.267-29.867 0l-140.8 102.4c-8.533 4.267-12.8 17.067-12.8 25.6 0 12.8 4.267 21.333 12.8 25.6l136.533 89.6c8.533 4.267 21.333 8.533 29.867 4.267s8.533-17.067 8.533-29.867v-59.733h12.8c76.8 0 136.533-25.6 166.4-72.533 17.067-12.8 12.8-34.133-4.267-46.933zM179.2 776.533C166.4 759.466 145.067 755.2 128 768s-21.333 34.133-8.533 51.2c0 4.267 4.267 4.267 4.267 8.533 8.533 8.533 17.067 12.8 29.867 12.8 8.533 0 17.067-4.267 21.333-8.533 17.067-12.8 17.067-34.133 4.267-51.2 4.267 0 0-4.267 0-4.267zm192 89.6h-8.533c-21.333 0-38.4 12.8-38.4 34.133s12.8 38.4 34.133 38.4h12.8c21.333 0 34.133-17.067 38.4-34.133-4.267-17.067-21.333-34.133-38.4-38.4zm-106.667-12.8l-4.267-4.267c-17.067-8.533-38.4-4.267-51.2 12.8-8.533 17.067-4.267 38.4 12.8 51.2 4.267 0 4.267 4.267 8.533 4.267 4.267 4.267 12.8 4.267 17.067 4.267 12.8 0 25.6-8.533 34.133-17.067 8.533-21.333 0-42.667-17.067-51.2zm-140.8-170.667c-17.067-34.133-21.333-93.867-4.267-123.733 4.267-4.267 8.533-12.8 8.533-17.067l59.733 29.867c8.533 4.267 17.067 8.533 25.6 4.267s17.067-17.067 12.8-25.6l-25.6-170.667c0-8.533-8.533-17.067-17.067-21.333-12.8-4.267-21.333-4.267-29.867 0L8.531 435.2c-8.533 4.267-17.067 17.067-17.067 29.867 0 8.533 12.8 12.8 21.333 21.333l51.2 25.6-8.533 8.533c-34.133 59.733-25.6 145.067 0 196.267 8.533 12.8 21.333 21.333 34.133 21.333 4.267 0 12.8 0 17.067-4.267 21.333-12.8 29.867-34.133 17.067-51.2zm115.2-405.333c4.267 4.267 12.8 4.267 17.067 4.267 12.8 0 25.6-4.267 29.867-17.067l4.267-8.533c17.067-17.067 8.533-38.4-8.533-51.2-17.067-8.533-38.4-4.267-51.2 12.8l-4.267 8.533c-8.533 17.067-4.267 38.4 12.8 51.2zm196.267-153.6h8.533c21.333 0 38.4-17.067 38.4-38.4s-17.067-38.4-38.4-38.4h-12.8C409.6 46.933 396.8 64 396.8 85.333c4.267 25.6 17.067 38.4 38.4 38.4zM328.533 179.2c8.533 0 17.067-4.267 25.6-12.8l4.267-4.267c17.067-12.8 17.067-38.4 0-51.2-12.8-12.8-38.4-17.067-51.2 0l-4.267 4.267c-12.8 12.8-12.8 38.4 0 51.2 4.267 8.533 17.067 12.8 25.6 12.8zM563.2 123.733c51.2 0 76.8 21.333 102.4 46.933l8.533 12.8-8.533 8.533-42.667 21.333c-8.533 4.267-17.067 8.533-21.333 17.067 0 8.533 4.267 21.333 12.8 25.6l157.867 76.8c8.533 4.267 21.333 4.267 29.867 0s17.067-12.8 17.067-21.333l12.8-162.133c0-8.533-4.267-25.6-12.8-29.867s-17.067 4.267-29.867 8.533l-42.667 21.333-12.8 8.533-8.533-25.6v-4.267c-25.6-38.4-72.533-81.067-162.133-81.067-21.333 0-38.4 17.067-38.4 38.4 0 25.6 17.067 38.4 38.4 38.4z"/></svg>