<svg xmlns="http://www.w3.org/2000/svg" viewBox="0 0 1024 1024"><path d="M667.392 900.437H609.28c.768-3.584 1.28-7.168 1.28-11.008V560.981a28.939 28.939 0 0 0 0-6.656c0-.768-.256-1.536-.256-2.56l-.768-3.84c-.256-.768-.512-1.28-.512-2.048-1.28-3.584-2.816-6.656-4.864-9.728-.512-.768-1.024-1.28-1.536-2.048-.768-.768-1.28-1.792-2.048-2.56-3.072-3.328-6.912-6.144-11.264-8.448l-1.536-.768c-6.144-3.072-13.056-4.608-20.224-4.608H110.848c-19.456 0-37.376 12.8-42.24 30.208-.256.768-.256 1.28-.512 2.048-.256 1.28-.512 2.816-.512 4.352s-.256 2.816 0 4.352c0 .768 0 1.536.256 2.304v328.448c0 3.84.512 7.424 1.28 11.008H14.848c-8.192 0-5.632 5.632-4.864 8.448 8.192 28.16 33.792 47.36 61.696 47.36h539.136c27.904 0 53.248-18.944 61.696-47.36.512-2.816 3.072-8.448-5.12-8.448zm-563.968-344.32h471.04v340.992h-471.04V556.117zm897.28-189.184L595.456 104.021c-4.608-2.56-9.728-3.584-14.592-3.328-4.864-.256-9.984.768-14.592 3.328L163.328 365.653c-14.08 7.424-19.456 25.088-12.032 39.424l18.688 27.904c7.424 14.08 25.088 19.456 39.424 12.032l47.104-26.368v62.464h310.784c23.04 0 45.312 9.728 60.416 26.624 13.824 15.36 20.48 34.56 19.2 54.528v295.168h233.984c14.08 0 25.856-9.984 28.416-23.296.512-1.792.512-3.84.512-5.888V422.229l45.056 27.136c14.08 7.424 31.744 2.048 39.424-12.032l18.176-30.72c7.68-14.336 2.304-32-11.776-39.68z"/></svg>