<!-- Generated by IcoMoon.io -->
<svg version="1.1" xmlns="http://www.w3.org/2000/svg" width="24" height="24" viewBox="0 0 24 24">
<title>teleworking</title>
<path d="M15.642 20.604c-0.132 0-0.558 0-0.816 0h-0.546c0.018-0.084 0.030-0.168 0.030-0.258v-7.698c0.006-0.054 0.006-0.102 0-0.156 0-0.018-0.006-0.036-0.006-0.060-0.006-0.030-0.012-0.060-0.018-0.090-0.006-0.018-0.012-0.030-0.012-0.048-0.030-0.084-0.066-0.156-0.114-0.228-0.012-0.018-0.024-0.030-0.036-0.048-0.018-0.018-0.030-0.042-0.048-0.060-0.072-0.078-0.162-0.144-0.264-0.198-0.012-0.006-0.024-0.012-0.036-0.018-0.144-0.072-0.306-0.108-0.474-0.108h-10.704c-0.456 0-0.876 0.3-0.99 0.708-0.006 0.018-0.006 0.030-0.012 0.048-0.006 0.030-0.012 0.066-0.012 0.102s-0.006 0.066 0 0.102c0 0.018 0 0.036 0.006 0.054v7.698c0 0.090 0.012 0.174 0.030 0.258h-0.456c-0.252 0-0.684 0-0.816 0-0.192 0-0.132 0.132-0.114 0.198 0.192 0.66 0.792 1.11 1.446 1.11h12.636c0.654 0 1.248-0.444 1.446-1.11 0.012-0.066 0.072-0.198-0.12-0.198zM2.424 12.534h11.040v7.992h-11.040v-7.992z"></path>
<path d="M23.454 8.1l-9.498-6.162c-0.108-0.060-0.228-0.084-0.342-0.078-0.114-0.006-0.234 0.018-0.342 0.078l-9.444 6.132c-0.33 0.174-0.456 0.588-0.282 0.924l0.438 0.654c0.174 0.33 0.588 0.456 0.924 0.282l1.104-0.618v1.464h7.284c0.54 0 1.062 0.228 1.416 0.624 0.324 0.36 0.48 0.81 0.45 1.278v6.918h4.656c0 0 0 0 0 0h0.828c0.33 0 0.606-0.234 0.666-0.546 0.012-0.042 0.012-0.090 0.012-0.138v-9.516l1.056 0.636c0.33 0.174 0.744 0.048 0.924-0.282l0.426-0.72c0.18-0.336 0.054-0.75-0.276-0.93z"></path>
</svg>
