<svg xmlns="http://www.w3.org/2000/svg" viewBox="0 0 1024 1024"><path d="M68.8 64.733h889.6c18.6 0 33.6 15.2 33.6 33.6v29.6c0 18.6-15.2 33.6-33.6 33.6H68.8c-18.6 0-33.6-15.2-33.6-33.6v-29.6c-.2-18.4 15-33.6 33.6-33.6zm406.8 396.6v560.2h-88v-560.2H313v560.2h-88v-560.2h-23c-18.6 0-33.6-15.2-33.6-33.6v-29.6c0-18.6 15.2-33.6 33.6-33.6h623.6c18.6 0 33.6 15.2 33.6 33.6v29.6c0 18.6-15.2 33.6-33.6 33.6h-23v560.2h-88v-560.2H640v560.2h-88v-560.2h-76.4zm-336.2-246.6h748.4c18.6 0 33.6 15.2 33.6 33.6v29.6c0 18.4-15.2 33.6-33.6 33.6H139.4c-18.4 0-33.6-15.2-33.6-33.6v-29.6c-.2-18.6 15-33.6 33.6-33.6z"/></svg>