<!-- Generated by IcoMoon.io -->
<svg version="1.1" xmlns="http://www.w3.org/2000/svg" width="24" height="24" viewBox="0 0 24 24">
<title>temple</title>
<path d="M1.612 1.017h20.85c0.436 0 0.788 0.356 0.788 0.788v0.694c0 0.436-0.356 0.788-0.788 0.788h-20.85c-0.436 0-0.788-0.356-0.788-0.788v-0.694c-0.005-0.431 0.352-0.788 0.788-0.788v0zM11.147 10.313v13.13h-2.063v-13.13h-1.748v13.13h-2.063v-13.13h-0.539c-0.436 0-0.787-0.356-0.787-0.788v-0.694c0-0.436 0.356-0.787 0.787-0.787h14.616c0.436 0 0.788 0.356 0.788 0.787v0.694c0 0.436-0.356 0.788-0.788 0.788h-0.539v13.13h-2.063v-13.13h-1.748v13.13h-2.063v-13.13h-1.791zM3.267 4.533h17.541c0.436 0 0.788 0.356 0.788 0.787v0.694c0 0.431-0.356 0.788-0.788 0.788h-17.541c-0.431 0-0.787-0.356-0.787-0.788v-0.694c-0.005-0.436 0.352-0.788 0.787-0.788v0z"></path>
</svg>
