<!-- Generated by IcoMoon.io -->
<svg version="1.1" xmlns="http://www.w3.org/2000/svg" width="24" height="24" viewBox="0 0 24 24">
<title>tennis</title>
<path d="M0.867 21.117c-0.558 0.558-0.558 1.458 0 2.020 0.558 0.558 1.463 0.558 2.016 0l4.205-4.205-2.016-2.016-4.205 4.2z"></path>
<path d="M12.97 16.566c0.047-0.361 0.136-0.708 0.253-1.045-0.544-0.089-1.069-0.248-1.561-0.478l1.603-1.603 0.708 0.708c0.131-0.169 0.267-0.328 0.417-0.483l-0.675-0.675 1.767-1.767 1.153 1.153c0.22-0.061 0.441-0.108 0.666-0.136 0.028-0.005 0.061-0.005 0.089-0.005l-1.458-1.458 1.767-1.772 1.767 1.767-1.434 1.434c0.117 0 0.239 0.014 0.342 0.014 0.028 0 0.061 0 0.089 0.005 0.131 0.014 0.258 0.033 0.389 0.056l1.064-1.064 0.9 0.905c-0.164 0.23-0.342 0.45-0.534 0.666 0.366 0.192 0.708 0.431 1.017 0.713 2.887-3.38 3.028-8.175 0.202-11.002-2.986-2.995-8.18-2.667-11.569 0.722-2.358 2.358-3.234 5.583-2.545 8.334l-0.019-0.023c0 0 0.506 2.578-0.558 3.642l-0.867 0.867 2.016 2.016 0.867-0.872c1.064-1.059 3.642-0.553 3.642-0.553l-0.023-0.019c0.173 0.042 0.347 0.080 0.52 0.112-0.005-0.052 0-0.103 0.005-0.159zM13.27 12.539l-1.767-1.767 1.767-1.767 1.767 1.767-1.767 1.767zM12.82 8.555l-1.767 1.767-1.772-1.767 1.767-1.767 1.772 1.767zM11.498 6.337l1.767-1.767 1.767 1.767-1.767 1.772-1.767-1.772zM15.487 10.322l-1.767-1.767 1.767-1.767 1.767 1.767-1.767 1.767zM15.933 6.337l1.767-1.767 1.767 1.767-1.767 1.767-1.767-1.767zM18.15 8.555l1.767-1.767 1.767 1.767-1.767 1.767-1.767-1.767zM21.178 11.578l-0.811-0.811 1.767-1.767 0.042 0.042c-0.178 0.867-0.511 1.73-0.998 2.536zM21.75 4.955c0.427 0.909 0.614 1.927 0.567 2.972l-0.178 0.178-1.767-1.767 1.378-1.383zM20.634 3.366c0.309 0.309 0.577 0.647 0.797 1.008l-1.514 1.514-1.767-1.767 1.523-1.523c0.342 0.216 0.666 0.473 0.961 0.769zM16.153 1.683c1.036-0.033 2.044 0.159 2.944 0.595l-1.392 1.397-1.767-1.767 0.216-0.225zM17.255 4.12l-1.767 1.767-1.767-1.767 1.767-1.767 1.767 1.767zM14.958 1.823l0.080 0.080-1.767 1.767-0.848-0.848c0.806-0.487 1.669-0.82 2.536-0.998zM10.805 4.092c0.342-0.342 0.703-0.642 1.078-0.914l0.938 0.938-1.767 1.767-0.975-0.966c0.22-0.286 0.464-0.563 0.727-0.825zM9.708 5.438l0.895 0.895-1.767 1.767-0.22-0.22c0.216-0.834 0.581-1.664 1.092-2.442zM8.391 9.445l0.445-0.445 1.767 1.767-1.617 1.617c-0.436-0.895-0.628-1.903-0.595-2.939zM10.073 13.927c-0.295-0.295-0.548-0.619-0.769-0.961l1.748-1.748 1.767 1.767-1.739 1.739c-0.361-0.22-0.698-0.487-1.008-0.797z"></path>
<path d="M18.712 21.281c-0.933 0.178-1.898 0.033-2.737-0.417-0.834-0.45-1.495-1.172-1.861-2.048 0.131-0.056 0.267-0.108 0.403-0.15 0.844-0.253 1.734-0.169 2.508 0.248 0.895 0.483 1.519 1.364 1.688 2.367v0z"></path>
<path d="M21.361 15.741c-0.844 0.253-1.734 0.169-2.503-0.248-0.9-0.483-1.523-1.359-1.692-2.367 0.933-0.178 1.898-0.033 2.738 0.417 0.834 0.445 1.491 1.172 1.861 2.048-0.131 0.056-0.267 0.108-0.403 0.15v0z"></path>
<path d="M19.636 20.995c-0.248-1.261-1.031-2.32-2.161-2.93-0.998-0.534-2.147-0.647-3.234-0.319-0.136 0.042-0.267 0.089-0.398 0.141-0.155-0.905 0-1.838 0.436-2.648s1.13-1.453 1.964-1.828c0.248 1.261 1.031 2.32 2.161 2.93 0.998 0.534 2.147 0.647 3.234 0.319 0.136-0.042 0.267-0.089 0.398-0.141 0.15 0.905 0 1.838-0.436 2.648-0.431 0.811-1.125 1.453-1.964 1.828v0z"></path>
</svg>
