<svg xmlns="http://www.w3.org/2000/svg" viewBox="0 0 1024 1024"><path d="M37 922.333c-23.8 23.8-23.8 62.2 0 86.2 23.8 23.8 62.4 23.8 86 0l179.4-179.4-86-86L37 922.333zm516.4-194.2c2-15.4 5.8-30.2 10.8-44.6-23.2-3.8-45.6-10.6-66.6-20.4l68.4-68.4 30.2 30.2c5.6-7.2 11.4-14 17.8-20.6l-28.8-28.8 75.4-75.4 49.2 49.2c9.4-2.6 18.8-4.6 28.4-5.8 1.2-.2 2.6-.2 3.8-.2l-62.2-62.2 75.4-75.6 75.4 75.4-61.2 61.2c5 0 10.2.6 14.6.6 1.2 0 2.6 0 3.8.2 5.6.6 11 1.4 16.6 2.4l45.4-45.4 38.4 38.6c-7 9.8-14.6 19.2-22.8 28.4 15.6 8.2 30.2 18.4 43.4 30.4 123.2-144.2 129.2-348.8 8.6-469.4-127.4-127.8-349-113.8-493.6 30.8-100.6 100.6-138 238.2-108.6 355.6l-.8-1s21.6 110-23.8 155.4l-37 37 86 86 37-37.2c45.4-45.2 155.4-23.6 155.4-23.6l-1-.8c7.4 1.8 14.8 3.4 22.2 4.8-.2-2.2 0-4.4.2-6.8zm12.8-171.8l-75.4-75.4 75.4-75.4 75.4 75.4-75.4 75.4zm-19.2-170l-75.4 75.4-75.6-75.4 75.4-75.4 75.6 75.4zm-56.4-94.6l75.4-75.4 75.4 75.4-75.4 75.6-75.4-75.6zm170.2 170l-75.4-75.4 75.4-75.4 75.4 75.4-75.4 75.4zm19-170l75.4-75.4 75.4 75.4-75.4 75.4-75.4-75.4zm94.6 94.6l75.4-75.4 75.4 75.4-75.4 75.4-75.4-75.4zm129.2 129l-34.6-34.6 75.4-75.4 1.8 1.8c-7.6 37-21.8 73.8-42.6 108.2zm24.4-282.6c18.2 38.8 26.2 82.2 24.2 126.8l-7.6 7.6-75.4-75.4 58.8-59zm-47.6-67.8c13.2 13.2 24.6 27.6 34 43l-64.6 64.6-75.4-75.4 65-65c14.6 9.2 28.4 20.2 41 32.8zm-191.2-71.8c44.2-1.4 87.2 6.8 125.6 25.4l-59.4 59.6-75.4-75.4 9.2-9.6zm47 104l-75.4 75.4-75.4-75.4 75.4-75.4 75.4 75.4zm-98-98l3.4 3.4-75.4 75.4-36.2-36.2c34.4-20.8 71.2-35 108.2-42.6zm-177.2 96.8c14.6-14.6 30-27.4 46-39l40 40-75.4 75.4-41.6-41.2c9.4-12.2 19.8-24 31-35.2zm-46.8 57.4l38.2 38.2-75.4 75.4-9.4-9.4c9.2-35.6 24.8-71 46.6-104.2zm-56.2 171l19-19 75.4 75.4-69 69c-18.6-38.2-26.8-81.2-25.4-125.4zm71.8 191.2c-12.6-12.6-23.4-26.4-32.8-41l74.6-74.6 75.4 75.4-74.2 74.2c-15.4-9.4-29.8-20.8-43-34zm368.6 313.8c-39.8 7.6-81 1.4-116.8-17.8-35.6-19.2-63.8-50-79.4-87.4 5.6-2.4 11.4-4.6 17.2-6.4 36-10.8 74-7.2 107 10.6 38.2 20.6 64.8 58.2 72 101zm113-236.4c-36 10.8-74 7.2-106.8-10.6-38.4-20.6-65-58-72.2-101 39.8-7.6 81-1.4 116.8 17.8 35.6 19 63.6 50 79.4 87.4-5.6 2.4-11.4 4.6-17.2 6.4zm-73.6 224.2c-10.6-53.8-44-99-92.2-125-42.6-22.8-91.6-27.6-138-13.6-5.8 1.8-11.4 3.8-17 6-6.6-38.6 0-78.4 18.6-113s48.2-62 83.8-78c10.6 53.8 44 99 92.2 125 42.6 22.8 91.6 27.6 138 13.6 5.8-1.8 11.4-3.8 17-6 6.4 38.6 0 78.4-18.6 113-18.4 34.6-48 62-83.8 78z"/></svg>