<!-- Generated by IcoMoon.io -->
<svg version="1.1" xmlns="http://www.w3.org/2000/svg" width="19" height="24" viewBox="0 0 19 24">
<title>textbook</title>
<path d="M16.14 0h-14.4c-0.002 0-0.004 0-0.006 0-0.939 0-1.704 0.746-1.734 1.677l-0 0.003v0.377c0.031 0.934 0.795 1.68 1.734 1.68 0 0 0.001 0 0.001 0h15.154c-0.377-0.542-0.653-1.182-0.787-1.874l-0.005-0.031c-0.043-0.242-0.067-0.52-0.067-0.804 0-0.364 0.040-0.719 0.116-1.060l-0.006 0.032z"></path>
<path d="M1.68 4.678c-0.638-0.034-1.217-0.261-1.687-0.622l0.007 0.005v15.151c0 0.979 0.374 1.776 1.68 1.906z"></path>
<path d="M10.373 12.874c-0-0.005-0-0.011-0-0.018 0-0.45 0.264-0.839 0.646-1.019l0.007-0.003c0.137-0.067 0.297-0.106 0.467-0.106 0.283 0 0.541 0.109 0.733 0.287l-0.001-0.001 4.61 4.121v-11.458h-14.218v16.462h7.896z"></path>
<path d="M16.128 24c-0 0-0.001 0-0.001 0-0.071 0-0.133-0.039-0.164-0.097l-0-0.001-1.802-3.346-2.352 2.434c-0.035 0.034-0.083 0.055-0.136 0.055-0.024 0-0.048-0.005-0.069-0.013l0.001 0c-0.068-0.028-0.116-0.093-0.118-0.17v-0l-0.17-10.006c0-0.104 0.085-0.189 0.19-0.189 0.047 0 0.090 0.017 0.123 0.045l-0-0 7.586 6.727c0.039 0.034 0.064 0.085 0.064 0.141 0 0.023-0.004 0.044-0.011 0.065l0-0.001c-0.027 0.071-0.094 0.12-0.173 0.122h-0l-3.168 0.053 1.711 3.17c0.014 0.025 0.023 0.056 0.023 0.088 0 0.019-0.003 0.038-0.008 0.055l0-0.001c-0.014 0.049-0.047 0.088-0.090 0.11l-0.001 0-1.344 0.72c-0.025 0.019-0.055 0.033-0.088 0.038l-0.001 0z"></path>
</svg>
