<svg xmlns="http://www.w3.org/2000/svg" viewBox="0 0 823 1024"><path d="M688.64 21.333H73.998c-40.06 0-72.689 31.818-73.995 71.561l-.003.12v16.077c1.309 39.863 33.937 71.68 73.998 71.68H720.59c-16.071-23.108-27.87-50.451-33.576-79.966l-.216-1.34c-1.824-10.307-2.867-22.174-2.867-34.285a207.19 207.19 0 0 1 4.968-45.222l-.258 1.376zM71.68 220.911c-27.217-1.47-51.924-11.134-71.987-26.543l.307.226v646.451c0 41.779 15.974 75.776 71.68 81.306zm370.893 349.696a43.615 43.615 0 0 1-.006-.753c0-19.206 11.274-35.779 27.566-43.462l.293-.124c5.832-2.865 12.693-4.54 19.945-4.54 12.077 0 23.069 4.646 31.285 12.248l-.03-.028 196.71 175.821V220.911H111.718v702.362h336.896zm245.555 474.726h-.034a7.988 7.988 0 0 1-7.011-4.157l-.021-.042-76.902-142.746-100.352 103.834a8.265 8.265 0 0 1-5.802 2.367 8.278 8.278 0 0 1-2.959-.543l.057.019c-2.922-1.193-4.956-3.986-5.017-7.263v-.008l-7.27-426.906a8.09 8.09 0 0 1 13.324-6.135l-.012-.01L819.815 850.77a7.974 7.974 0 0 1 2.722 6.006c0 .968-.172 1.895-.487 2.753l.018-.055c-1.167 3.02-4.012 5.14-7.363 5.222h-.01l-135.168 2.253 73.011 135.27a7.686 7.686 0 0 1 .961 3.746c0 .819-.127 1.609-.361 2.351l.015-.055a7.518 7.518 0 0 1-3.848 4.691l-.043.02-57.344 30.72a8.53 8.53 0 0 1-3.738 1.631l-.051.007z"/></svg>