<svg xmlns="http://www.w3.org/2000/svg" viewBox="0 0 1024 1024"><path d="M928 542.933c19.2-22.4 28.8-51.2 28.8-83.2 0-28.8-9.6-54.4-32-73.6-22.4-22.4-44.8-32-73.6-32H681.6c0-6.4 3.2-9.6 3.2-12.8s3.2-32 6.4-38.4c3.2-3.2 3.2-6.4 6.4-9.6 6.4-12.8 12.8-22.4 16-32s6.4-19.2 9.6-32c3.2-12.8 6.4-28.8 6.4-41.6v-22.4c0-6.4 0-12.8-3.2-25.6-3.2-9.6-3.2-19.2-6.4-28.8-3.2-6.4-6.4-16-12.8-25.6s-12.8-16-22.4-22.4c-9.6-6.4-19.2-9.6-32-12.8s-9.6-6.4-25.6-6.4c-9.6 0-19.2 3.2-25.6 9.6s-12.8 16-19.2 28.8c-6.4 9.6-9.6 19.2-9.6 28.8-3.2 9.6-3.2 19.2-6.4 32-3.2 16-6.4 25.6-6.4 32-3.2 6.4-6.4 16-9.6 25.6s-9.6 19.2-16 25.6c-12.8 12.8-32 60.8-54.4 92.8-19.2 22.4-35.2 44.8-54.4 67.2s-32 32-41.6 32c-9.6 0-16 3.2-22.4 12.8-6.4 6.4-9.6 16-9.6 22.4v352c0 9.6 3.2 19.2 9.6 25.6s16 9.6 25.6 9.6c12.8 0 41.6 9.6 86.4 25.6 28.8 9.6 51.2 16 67.2 22.4s38.4 9.6 67.2 16c28.8 6.4 54.4 9.6 80 9.6h70.4c48 0 83.2-16 108.8-41.6 22.4-25.6 28.8-57.6 25.6-99.2 12.8-12.8 25.6-32 28.8-51.2 6.4-22.4 6.4-44.8 0-64 16-22.4 25.6-48 22.4-73.6-6.4-12.8-9.6-25.6-16-41.6zm-652.8-118.4h-160c-9.6 0-19.2 3.2-25.6 9.6s-9.6 16-9.6 25.6v352c0 9.6 3.2 19.2 9.6 25.6s16 9.6 25.6 9.6H272c9.6 0 19.2-3.2 25.6-9.6s9.6-16 9.6-25.6v-352c0-9.6-3.2-19.2-9.6-25.6-6.4-3.2-12.8-9.6-22.4-9.6zm-64 342.4c-6.4 6.4-16 9.6-25.6 9.6s-19.2-3.2-25.6-9.6c-6.4-6.4-9.6-16-9.6-25.6s3.2-19.2 9.6-25.6c6.4-6.4 16-9.6 25.6-9.6s19.2 3.2 25.6 9.6c6.4 6.4 9.6 16 9.6 25.6s-3.2 19.2-9.6 25.6z"/></svg>