<!-- Generated by IcoMoon.io -->
<svg version="1.1" xmlns="http://www.w3.org/2000/svg" width="24" height="24" viewBox="0 0 24 24">
<title>thumb-up</title>
<path d="M21.75 12.225c0.45-0.525 0.675-1.2 0.675-1.95 0-0.675-0.225-1.275-0.75-1.725-0.525-0.525-1.050-0.75-1.725-0.75h-3.975c0-0.15 0.075-0.225 0.075-0.3s0.075-0.75 0.15-0.9c0.075-0.075 0.075-0.15 0.15-0.225 0.15-0.3 0.3-0.525 0.375-0.75s0.15-0.45 0.225-0.75c0.075-0.3 0.15-0.675 0.15-0.975 0-0.225 0-0.375 0-0.525s0-0.3-0.075-0.6c-0.075-0.225-0.075-0.45-0.15-0.675-0.075-0.15-0.15-0.375-0.3-0.6s-0.3-0.375-0.525-0.525c-0.225-0.15-0.45-0.225-0.75-0.3s-0.225-0.15-0.6-0.15c-0.225 0-0.45 0.075-0.6 0.225s-0.3 0.375-0.45 0.675c-0.15 0.225-0.225 0.45-0.225 0.675-0.075 0.225-0.075 0.45-0.15 0.75-0.075 0.375-0.15 0.6-0.15 0.75-0.075 0.15-0.15 0.375-0.225 0.6s-0.225 0.45-0.375 0.6c-0.3 0.3-0.75 1.425-1.275 2.175-0.45 0.525-0.825 1.050-1.275 1.575s-0.75 0.75-0.975 0.75c-0.225 0-0.375 0.075-0.525 0.3-0.15 0.15-0.225 0.375-0.225 0.525v8.25c0 0.225 0.075 0.45 0.225 0.6s0.375 0.225 0.6 0.225c0.3 0 0.975 0.225 2.025 0.6 0.675 0.225 1.2 0.375 1.575 0.525s0.9 0.225 1.575 0.375c0.675 0.15 1.275 0.225 1.875 0.225h1.65c1.125 0 1.95-0.375 2.55-0.975 0.525-0.6 0.675-1.35 0.6-2.325 0.3-0.3 0.6-0.75 0.675-1.2 0.15-0.525 0.15-1.050 0-1.5 0.375-0.525 0.6-1.125 0.525-1.725-0.15-0.3-0.225-0.6-0.375-0.975z"></path>
<path d="M6.45 9.45h-3.75c-0.225 0-0.45 0.075-0.6 0.225s-0.225 0.375-0.225 0.6v8.25c0 0.225 0.075 0.45 0.225 0.6s0.375 0.225 0.6 0.225h3.675c0.225 0 0.45-0.075 0.6-0.225s0.225-0.375 0.225-0.6v-8.25c0-0.225-0.075-0.45-0.225-0.6-0.15-0.075-0.3-0.225-0.525-0.225zM4.95 17.475c-0.15 0.15-0.375 0.225-0.6 0.225s-0.45-0.075-0.6-0.225c-0.15-0.15-0.225-0.375-0.225-0.6s0.075-0.45 0.225-0.6c0.15-0.15 0.375-0.225 0.6-0.225s0.45 0.075 0.6 0.225c0.15 0.15 0.225 0.375 0.225 0.6s-0.075 0.45-0.225 0.6z"></path>
</svg>
