<svg xmlns="http://www.w3.org/2000/svg" viewBox="0 0 1024 1024"><path d="M512 40.533c-266.276 0-484.852 222.556-484.852 492.8s218.576 492.8 484.852 492.8c266.276 0 484.852-222.556 484.852-492.8S778.276 40.533 512 40.533zm341.776 337.808c11.928 0 19.876 7.948 19.876 19.876s-7.948 19.876-19.876 19.876-19.876-7.948-19.876-19.876c0-7.948 7.948-19.876 19.876-19.876zm-198.7-194.732c11.928 0 19.876 7.948 19.876 19.876s-7.948 19.876-19.876 19.876-19.876-7.948-19.876-19.876 11.928-19.876 19.876-19.876zM758.4 509.489c15.896 0 31.792 15.896 31.792 31.792 0 19.876-15.896 31.792-31.792 31.792H472.26v-325.88c0-19.876 15.896-31.792 35.772-31.792s31.792 15.896 31.792 31.792v262.296H758.4zM472.26 123.993c7.948-19.876 35.772-31.792 55.636-23.844 23.844 11.928 31.792 35.772 23.844 55.636s-35.772 31.792-55.636 23.844c-23.844-7.948-31.792-35.772-23.844-55.636zM166.244 378.341c11.928 0 19.876 7.948 19.876 19.876s-7.948 19.876-19.876 19.876-19.876-7.948-19.876-19.876 7.948-19.876 19.876-19.876zm-71.532 166.92c0-23.844 19.876-43.72 43.72-43.72s43.72 19.876 43.72 43.72c0 23.844-19.876 43.72-43.72 43.72-23.844-3.98-43.72-23.844-43.72-43.72zm83.46 158.96c-11.928 3.98-23.844 0-27.824-11.928s0-23.844 11.928-27.824c11.928-3.98 23.844 0 27.824 11.928 0 11.928-3.98 23.844-11.928 27.824zm43.708-421.268c0-11.928 7.948-19.876 19.876-19.876s19.876 7.948 19.876 19.876-7.948 19.876-19.876 19.876c-7.948 0-19.876-7.948-19.876-19.876zm39.74 540.5c-11.928 3.98-23.844 0-27.824-11.928s0-23.844 11.928-27.824c11.928-3.98 23.844 0 27.824 11.928 0 11.928-3.98 23.844-11.928 27.824zm103.336-639.844c11.928 0 19.876 7.948 19.876 19.876s-7.948 19.876-19.876 19.876-19.876-7.948-19.876-15.896c0-11.928 7.948-23.844 19.876-23.844zm11.916 719.324c-11.928 3.98-23.844 0-27.824-11.928s0-23.844 11.928-27.824c11.928-3.98 23.844 0 27.824 11.928 3.98 7.948 0 23.844-11.928 27.824zm174.868 19.876c-7.948 19.876-35.772 31.792-55.636 23.844s-31.792-35.772-23.844-55.636c7.948-19.876 35.772-31.792 55.636-23.844 23.844 7.948 31.792 31.792 23.844 55.636zm119.232-31.804c-3.98 11.928-15.896 15.896-27.824 11.928s-15.896-15.896-11.928-27.824c3.98-11.928 15.896-15.896 27.824-11.928s15.896 15.896 11.928 27.824zm119.22-79.48c-3.98 11.928-15.896 15.896-27.824 11.928s-15.896-15.896-11.928-27.824c3.98-11.928 15.896-15.896 27.824-11.928 11.928 7.948 15.896 19.876 11.928 27.824zm-11.916-508.696c-11.928 0-19.876-7.948-19.876-19.876s7.948-19.876 19.876-19.876 19.876 7.948 19.876 19.876-7.948 19.876-19.876 19.876zm95.376 389.476c-3.98 11.928-15.896 15.896-27.824 11.928s-15.896-15.896-11.928-27.824c3.98-11.928 15.896-15.896 27.824-11.928 11.928 7.948 15.896 19.876 11.928 27.824zm7.948-107.304c-23.844 0-43.72-19.876-43.72-43.72s19.876-43.72 43.72-43.72c23.844 0 43.72 19.876 43.72 43.72s-19.876 43.72-43.72 43.72z"/></svg>