<!-- Generated by IcoMoon.io -->
<svg version="1.1" xmlns="http://www.w3.org/2000/svg" width="24" height="24" viewBox="0 0 24 24">
<title>time</title>
<path d="M12 0.45c-6.241 0-11.364 5.216-11.364 11.55s5.123 11.55 11.364 11.55c6.241 0 11.364-5.216 11.364-11.55s-5.123-11.55-11.364-11.55zM20.010 8.367c0.28 0 0.466 0.186 0.466 0.466s-0.186 0.466-0.466 0.466c-0.28 0-0.466-0.186-0.466-0.466 0-0.186 0.186-0.466 0.466-0.466zM15.353 3.803c0.28 0 0.466 0.186 0.466 0.466s-0.186 0.466-0.466 0.466c-0.28 0-0.466-0.186-0.466-0.466s0.28-0.466 0.466-0.466zM17.775 11.441c0.373 0 0.745 0.373 0.745 0.745 0 0.466-0.373 0.745-0.745 0.745h-6.706v-7.638c0-0.466 0.373-0.745 0.838-0.745s0.745 0.373 0.745 0.745v6.148h5.123zM11.069 2.406c0.186-0.466 0.838-0.745 1.304-0.559 0.559 0.28 0.745 0.838 0.559 1.304s-0.838 0.745-1.304 0.559c-0.559-0.186-0.745-0.838-0.559-1.304zM3.896 8.367c0.28 0 0.466 0.186 0.466 0.466s-0.186 0.466-0.466 0.466c-0.28 0-0.466-0.186-0.466-0.466s0.186-0.466 0.466-0.466zM2.22 12.28c0-0.559 0.466-1.025 1.025-1.025s1.025 0.466 1.025 1.025c0 0.559-0.466 1.025-1.025 1.025-0.559-0.093-1.025-0.559-1.025-1.025zM4.176 16.005c-0.28 0.093-0.559 0-0.652-0.28s0-0.559 0.28-0.652c0.28-0.093 0.559 0 0.652 0.28 0 0.28-0.093 0.559-0.28 0.652zM5.2 6.132c0-0.28 0.186-0.466 0.466-0.466s0.466 0.186 0.466 0.466-0.186 0.466-0.466 0.466c-0.186 0-0.466-0.186-0.466-0.466zM6.132 18.8c-0.28 0.093-0.559 0-0.652-0.28s0-0.559 0.28-0.652c0.28-0.093 0.559 0 0.652 0.28 0 0.28-0.093 0.559-0.28 0.652zM8.554 3.803c0.28 0 0.466 0.186 0.466 0.466s-0.186 0.466-0.466 0.466-0.466-0.186-0.466-0.373c0-0.28 0.186-0.559 0.466-0.559zM8.833 20.663c-0.28 0.093-0.559 0-0.652-0.28s0-0.559 0.28-0.652c0.28-0.093 0.559 0 0.652 0.28 0.093 0.186 0 0.559-0.28 0.652zM12.931 21.128c-0.186 0.466-0.838 0.745-1.304 0.559s-0.745-0.838-0.559-1.304c0.186-0.466 0.838-0.745 1.304-0.559 0.559 0.186 0.745 0.745 0.559 1.304zM15.726 20.383c-0.093 0.28-0.373 0.373-0.652 0.28s-0.373-0.373-0.28-0.652c0.093-0.28 0.373-0.373 0.652-0.28s0.373 0.373 0.28 0.652zM18.52 18.52c-0.093 0.28-0.373 0.373-0.652 0.28s-0.373-0.373-0.28-0.652c0.093-0.28 0.373-0.373 0.652-0.28 0.28 0.186 0.373 0.466 0.28 0.652zM18.241 6.598c-0.28 0-0.466-0.186-0.466-0.466s0.186-0.466 0.466-0.466c0.28 0 0.466 0.186 0.466 0.466s-0.186 0.466-0.466 0.466zM20.476 15.726c-0.093 0.28-0.373 0.373-0.652 0.28s-0.373-0.373-0.28-0.652c0.093-0.28 0.373-0.373 0.652-0.28 0.28 0.186 0.373 0.466 0.28 0.652zM20.663 13.211c-0.559 0-1.025-0.466-1.025-1.025s0.466-1.025 1.025-1.025c0.559 0 1.025 0.466 1.025 1.025s-0.466 1.025-1.025 1.025z"></path>
</svg>
