<svg xmlns="http://www.w3.org/2000/svg" viewBox="0 0 1024 1024"><path d="M816.496 797.049h44.061l113.436 113.436c11.248-23.436 18-49.404 18-77.156 0-95.248-74.248-172.404-167.904-178.78-4.124-.28-7.968-1.22-12.092-1.22-21.936 0-42.748 4.5-62.248 11.72L380.285 295.585c7.22-19.406 11.72-40.22 11.72-62.248 0-4.124-.936-8.064-1.22-12.092-6.376-93.656-83.532-167.904-178.78-167.904-27.748 0-53.719 6.749-77.156 18l117.656 117.656v40.22l-42.188 42.188h-45.188L50.005 156.189c-11.248 23.436-18 49.404-18 77.156 0 95.248 74.248 172.404 167.904 178.78 4.124.28 7.968 1.22 12.092 1.22 21.936 0 42.748-4.5 62.248-11.72l369.464 369.464c-7.22 19.406-11.72 40.22-11.72 62.248 0 4.124.936 8.064 1.22 12.092 6.376 93.656 83.532 167.904 178.78 167.904 27.748 0 53.719-6.749 77.156-18L774.305 880.489v-41.344l42.188-42.092z"/></svg>