<!-- Generated by IcoMoon.io -->
<svg version="1.1" xmlns="http://www.w3.org/2000/svg" width="24" height="24" viewBox="0 0 24 24">
<title>tool</title>
<path d="M19.137 18.181h1.033l2.659 2.659c0.264-0.549 0.422-1.158 0.422-1.808 0-2.232-1.74-4.041-3.935-4.19-0.097-0.007-0.187-0.029-0.283-0.029-0.514 0-1.002 0.105-1.459 0.275l-8.659-8.659c0.169-0.455 0.275-0.943 0.275-1.459 0-0.097-0.022-0.189-0.029-0.283-0.149-2.195-1.958-3.935-4.19-3.935-0.65 0-1.259 0.158-1.808 0.422l2.758 2.758v0.943l-0.989 0.989h-1.059l-2.698-2.7c-0.264 0.549-0.422 1.158-0.422 1.808 0 2.232 1.74 4.041 3.935 4.19 0.097 0.007 0.187 0.029 0.283 0.029 0.514 0 1.002-0.105 1.459-0.275l8.659 8.659c-0.169 0.455-0.275 0.943-0.275 1.459 0 0.097 0.022 0.189 0.029 0.283 0.149 2.195 1.958 3.935 4.19 3.935 0.65 0 1.259-0.158 1.808-0.422l-2.692-2.692v-0.969l0.989-0.987z"></path>
</svg>
