<!-- Generated by IcoMoon.io -->
<svg version="1.1" xmlns="http://www.w3.org/2000/svg" width="24" height="24" viewBox="0 0 24 24">
<title>tools</title>
<path d="M2.055 19.16c-0.769 0.769-0.769 2.015 0 2.784 0.385 0.385 0.889 0.576 1.393 0.576s1.008-0.192 1.393-0.576l6.465-6.465-2.786-2.784-6.465 6.465zM18.213 7.179l2.813-1.456 1.475-2.85-1.374-1.374-2.85 1.475-1.456 2.813-3.429 3.429 1.391 1.391zM18.828 14.652c-0.089-0.005-0.175-0.026-0.265-0.026-0.48 0-0.936 0.098-1.361 0.256l-8.083-8.083c0.158-0.425 0.256-0.881 0.256-1.361 0-0.091-0.021-0.176-0.026-0.265-0.139-2.049-1.827-3.673-3.912-3.673-0.606 0-1.175 0.148-1.688 0.394l2.616 2.616c0.138 0.138 0.232 0.301 0.295 0.473 0.172 0.466 0.079 1.008-0.295 1.384-0.256 0.256-0.592 0.385-0.928 0.385-0.155 0-0.308-0.034-0.455-0.089-0.172-0.064-0.335-0.158-0.473-0.295l-2.616-2.616c-0.245 0.513-0.394 1.082-0.394 1.688 0 2.084 1.624 3.772 3.673 3.912 0.089 0.005 0.175 0.026 0.265 0.026 0.48 0 0.936-0.098 1.361-0.256l8.083 8.083c-0.158 0.425-0.256 0.881-0.256 1.361 0 0.091 0.021 0.176 0.026 0.265 0.139 2.049 1.827 3.673 3.912 3.673 0.606 0 1.175-0.148 1.688-0.394l-2.616-2.616c-0.138-0.138-0.232-0.301-0.295-0.473-0.172-0.466-0.079-1.008 0.295-1.384 0.256-0.256 0.592-0.385 0.928-0.385 0.155 0 0.308 0.034 0.455 0.089 0.172 0.064 0.335 0.157 0.473 0.295l2.616 2.616c0.245-0.513 0.394-1.082 0.394-1.688 0-2.084-1.624-3.773-3.673-3.912z"></path>
</svg>
