<svg xmlns="http://www.w3.org/2000/svg" viewBox="0 0 1024 1024"><path d="M87.696 838.845c-32.816 32.816-32.816 85.968 0 118.792 16.408 16.408 37.916 24.584 59.424 24.584s43.016-8.176 59.424-24.584l275.832-275.832-118.848-118.792L87.696 838.845zm689.382-511.224l120.024-62.112 62.952-121.592-58.64-58.64-121.592 62.952-62.112 120.024-146.288 146.288 59.368 59.368zm26.266 318.844c-3.808-.224-7.448-1.12-11.312-1.12-20.496 0-39.934 4.2-58.08 10.92L389.064 311.377c6.72-18.144 10.92-37.58 10.92-58.08 0-3.864-.896-7.504-1.12-11.312-5.936-87.424-77.96-156.704-166.896-156.704-25.872 0-50.128 6.328-72.024 16.8L271.563 213.7c5.88 5.88 9.912 12.824 12.6 20.16 7.336 19.88 3.36 43.016-12.6 59.032-10.92 10.92-25.256 16.408-39.598 16.408-6.608 0-13.16-1.456-19.432-3.808-7.336-2.744-14.28-6.72-20.16-12.6L80.754 181.273c-10.472 21.896-16.8 46.152-16.8 72.024 0 88.936 69.28 160.96 156.704 166.896 3.808.224 7.448 1.12 11.312 1.12 20.496 0 39.934-4.2 58.08-10.92l344.888 344.888c-6.72 18.144-10.92 37.58-10.92 58.08 0 3.864.896 7.504 1.12 11.312 5.936 87.424 77.96 156.704 166.896 156.704 25.872 0 50.128-6.328 72.024-16.8L752.439 852.958c-5.88-5.88-9.912-12.824-12.6-20.16-7.336-19.88-3.36-43.016 12.6-59.032 10.92-10.92 25.256-16.408 39.598-16.408 6.608 0 13.16 1.456 19.432 3.808 7.336 2.744 14.28 6.72 20.16 12.6l111.619 111.619c10.472-21.896 16.8-46.152 16.8-72.024 0-88.936-69.28-160.96-156.704-166.896z"/></svg>