<svg xmlns="http://www.w3.org/2000/svg" viewBox="0 0 1024 1024"><path d="M721.865 596.067c13.604 12.643 9.057 26.432-.185 35.785-17.412 17.597-35.489 35.858-56.634 48.058-101.661 59.148-212.563 74.563-328.124 64.176-19.777-1.68-37.665-4.427-55.142-8.273l2.759.509c-18.484-4.029-34.195-1.59-45.026 14.38-11.09 16.561-7.874 34.158 2.033 49.943 18.003 28.539 45.322 46.283 75.709 58.557 43.547 18.382 94.175 29.064 147.299 29.064 29.174 0 57.595-3.221 84.927-9.328l-2.584.485c6.432-1.368 12.939-2.551 19.445-3.697.591 0 1.331.591 3.327 1.627-11.608 28.28-32.753 47.799-58.261 62.845-17.079 10.092-35.341 18.151-52.679 27.8-15.896 8.835-26.099 20.924-22.181 41.182 3.992 20.85 16.488 33.936 36.635 35.563 3.517.334 7.605.525 11.737.525 13.616 0 26.749-2.07 39.101-5.913l-.931.25c68.856-21.854 125.494-65.711 163.058-123.168l.708-1.154c16.451-25.064 25.397-52.605 23.179-83.584-.444-6.1 6.802-15.12 12.902-18.964 41.367-26.21 79.591-55.858 109.276-95.302 41.588-55.192 57.226-114.045 22.476-180.18 17.301-12.865 34.712-24.768 50.978-38.114 46.135-37.781 82.881-82.844 92.936-143.175 15.711-94.156-18.299-170.827-90.607-230.64-64.176-53.085-140.477-79.11-221.435-92.715-125.69-21.182-249.494-14.306-369.047 33.53-41.404 16.672-78.963 39.814-108.167 74.49-51.755 61.551-48.354 134.007 10.018 189.532 54.379 51.755 121.993 75.894 194.523 86.43 84.508 12.236 165.873 2.514 241.731-39.592 24.842-13.789 38.705-34.121 36.006-62.845-4.177-44.361-47.577-67.946-90.459-48.982-80.367 35.6-161.215 37.337-241.878 2.551-14.343-6.211-33.53-17.634-36.524-29.981-4.88-20.369 17.19-30.572 33.271-38.594 74.453-36.968 154.339-46.949 236.259-43.326 57.854 2.551 113.601 14.787 165.319 42.291 104.507 55.266 109.572 131.567 80.774 168.239-31.607 40.221-75.303 63.399-121.993 80.663-151.789 56.191-305.389 66.542-460.356 13.456-56.492-19.627-104.383-51.749-142.193-93.221l-.243-.27c-20.924-22.809-44.176-27.319-67.096-14.454-20.369 11.46-30.572 33.603-20.258 61.514s23.548 56.302 42.217 78.63c65.728 77.928 155.079 115.339 252.562 133.416 128.351 23.77 255.076 11.941 379.989-24.029z"/></svg>