<!-- Generated by IcoMoon.io -->
<svg version="1.1" xmlns="http://www.w3.org/2000/svg" width="24" height="24" viewBox="0 0 24 24">
<title>tornado</title>
<path d="M16.919 13.47c0.319 0.296 0.212 0.619-0.004 0.839-0.408 0.412-0.832 0.84-1.327 1.126-2.383 1.386-4.982 1.748-7.69 1.504-0.464-0.039-0.883-0.104-1.292-0.194l0.065 0.012c-0.433-0.094-0.801-0.037-1.055 0.337-0.26 0.388-0.185 0.801 0.048 1.171 0.422 0.669 1.062 1.085 1.774 1.372 1.021 0.431 2.207 0.681 3.452 0.681 0.684 0 1.35-0.075 1.99-0.219l-0.061 0.011c0.151-0.032 0.303-0.060 0.456-0.087 0.014 0 0.031 0.014 0.078 0.038-0.272 0.663-0.768 1.12-1.365 1.473-0.4 0.237-0.828 0.425-1.235 0.652-0.373 0.207-0.612 0.49-0.52 0.965 0.094 0.489 0.386 0.795 0.859 0.834 0.082 0.008 0.178 0.012 0.275 0.012 0.319 0 0.627-0.049 0.916-0.139l-0.022 0.006c1.614-0.512 2.941-1.54 3.822-2.887l0.017-0.027c0.386-0.587 0.595-1.233 0.543-1.959-0.010-0.143 0.159-0.354 0.302-0.444 0.97-0.614 1.865-1.309 2.561-2.234 0.975-1.294 1.341-2.673 0.527-4.223 0.405-0.302 0.814-0.581 1.195-0.893 1.081-0.885 1.943-1.942 2.178-3.356 0.368-2.207-0.429-4.004-2.124-5.406-1.504-1.244-3.292-1.854-5.19-2.173-2.946-0.496-5.848-0.335-8.65 0.786-0.97 0.391-1.851 0.933-2.535 1.746-1.213 1.443-1.133 3.141 0.235 4.442 1.275 1.213 2.859 1.779 4.559 2.026 1.981 0.287 3.888 0.059 5.666-0.928 0.582-0.323 0.907-0.8 0.844-1.473-0.098-1.040-1.115-1.592-2.12-1.148-1.884 0.834-3.778 0.875-5.669 0.060-0.336-0.146-0.786-0.413-0.856-0.703-0.114-0.477 0.403-0.717 0.78-0.905 1.745-0.866 3.617-1.1 5.537-1.015 1.356 0.060 2.663 0.347 3.875 0.991 2.449 1.295 2.568 3.084 1.893 3.943-0.741 0.943-1.765 1.486-2.859 1.891-3.558 1.317-7.158 1.56-10.79 0.315-1.324-0.46-2.446-1.213-3.333-2.185l-0.006-0.006c-0.49-0.535-1.035-0.64-1.573-0.339-0.477 0.269-0.717 0.788-0.475 1.442s0.552 1.32 0.989 1.843c1.54 1.826 3.635 2.703 5.919 3.127 3.008 0.557 5.978 0.28 8.906-0.563z"></path>
</svg>
