<svg xmlns="http://www.w3.org/2000/svg" viewBox="0 0 1024 1024"><path d="M231.6 729.933c-23.2 0-42.2 18.8-42.2 42.2 0 23.2 18.8 42.2 42.2 42.2s42.2-18.8 42.2-42.2c0-23.4-18.8-42.2-42.2-42.2zm134.6 9.6c-2-1.8-4.4-3.2-6.8-4.6-3-1.6-6.2-2.8-9.6-3.8-3.4-.8-6.8-1.4-10.6-1.4-1.4 0-2.8 0-4.4.2l-4.2.6c-4.2.8-8 2.2-11.6 4.2-13.2 7.2-22 21-22 37s9 30 22 37c3.6 2 7.4 3.4 11.6 4.2l4.2.6c1.4.2 2.8.2 4.4.2 3.6 0 7.2-.4 10.6-1.4 3.4-.8 6.6-2.2 9.6-3.8 2.4-1.2 4.6-2.8 6.8-4.6 9.4-7.8 15.4-19.4 15.4-32.6-.2-12.4-6-24-15.4-31.8zm310.4-9.6c-1.4 0-2.8 0-4.4.2-2.8.2-5.6.8-8.2 1.6-6.6 2-12.6 5.6-17.2 10.4-7.6 7.6-12.4 18.2-12.4 29.8s4.8 22.2 12.4 29.8c4.8 4.8 10.6 8.4 17.2 10.4 2.6.8 5.4 1.4 8.2 1.6 1.4.2 2.8.2 4.4.2 23.2 0 42.2-18.8 42.2-42.2 0-23-19-41.8-42.2-41.8zm107.6 0c-23.2 0-42.2 18.8-42.2 42.2 0 23.2 18.8 42.2 42.2 42.2 23.2 0 42.2-18.8 42.2-42.2s-18.8-42.2-42.2-42.2zM352 188.533l129.4 84.8h-76.6c-14 0-25.6 11.4-25.6 25.6v18h244.4v-18c0-14-11.4-25.6-25.6-25.6h-78.6l130.4-85.6c3.2-2.2 5.2-5.8 5.2-9.8s-2-7.6-5.2-9.8l-142-93.2c-3.8-2.6-9-2.6-12.8 0l-143 94.2c-3.2 2.2-5.2 5.8-5.2 9.8s1.8 7.4 5.2 9.6zm149.4-89.6l120.8 79.2-121.8 80-120.8-79.2 121.8-80zm490 341.4l-6.6-33-9.8-25.2c-16.6-29.4-48-49.4-84-49.4H122.6c-55.8 0-101.4 45.6-101.4 101.4v245c0 48.2 22.8 88.8 53 99v-.4c5 1.6 10 2.6 15.2 2.6h77.4c-.4-2.8-.6-5.4-.6-8.2 0-36.2 29.4-65.4 65.4-65.4 22.4 0 42 11.2 53.8 28.4 11.8-17 31.6-28.4 53.8-28.4 36.2 0 65.4 29.4 65.4 65.4 0 2.8-.2 5.6-.6 8.2h207.4c-.4-2.8-.6-5.4-.6-8.2 0-36.2 29.4-65.4 65.4-65.4 22.4 0 42 11.2 53.8 28.4 11.8-17 31.6-28.4 53.8-28.4 36.2 0 65.4 29.4 65.4 65.4 0 2.8-.2 5.6-.6 8.2H898c38 0 73-23 88.6-57.6 1.6-3.6 3-7.2 4.2-11 2-6.6 2.2-13.8 2.2-20.6v-233.8c0-6-.6-11.6-1.6-17zm-752.6 123.8H83.6v-106.8c0-34.8 28.2-63 63-63h92.2v169.8zm178.6 0H262.2v-169.8h155.2v169.8zm178.6 0H440.8v-169.8H596v169.8zm23.2 0v-169.8h155.2v96c0 26 4.4 50.8 12.4 73.8H619.2zm350.4 115c-97-5.6-171.8-86.8-171.8-188.8v-96h109c34.8 0 63 28.2 63 63v221.8z"/></svg>