<!-- Generated by IcoMoon.io -->
<svg version="1.1" xmlns="http://www.w3.org/2000/svg" width="24" height="24" viewBox="0 0 24 24">
<title>train</title>
<path d="M5.428 16.608c-0.544 0-0.989 0.441-0.989 0.989 0 0.544 0.441 0.989 0.989 0.989s0.989-0.441 0.989-0.989c0-0.548-0.441-0.989-0.989-0.989z"></path>
<path d="M8.583 16.833c-0.047-0.042-0.103-0.075-0.159-0.108-0.070-0.038-0.145-0.066-0.225-0.089-0.080-0.019-0.159-0.033-0.248-0.033v0c-0.033 0-0.066 0-0.103 0.005-0.033 0.005-0.066 0.009-0.098 0.014-0.098 0.019-0.188 0.052-0.272 0.098-0.309 0.169-0.516 0.492-0.516 0.867s0.211 0.703 0.516 0.867c0.084 0.047 0.173 0.080 0.272 0.098 0.033 0.005 0.066 0.009 0.098 0.014s0.066 0.005 0.103 0.005v0c0.084 0 0.169-0.009 0.248-0.033 0.080-0.019 0.155-0.052 0.225-0.089 0.056-0.028 0.108-0.066 0.159-0.108 0.22-0.183 0.361-0.455 0.361-0.764-0.005-0.291-0.141-0.563-0.361-0.745z"></path>
<path d="M15.858 16.608c-0.033 0-0.066 0-0.103 0.005-0.066 0.005-0.131 0.019-0.192 0.038-0.155 0.047-0.295 0.131-0.403 0.244-0.178 0.178-0.291 0.427-0.291 0.698s0.113 0.52 0.291 0.698c0.112 0.113 0.248 0.197 0.403 0.244 0.061 0.019 0.127 0.033 0.192 0.038 0.033 0.005 0.066 0.005 0.103 0.005 0.544 0 0.989-0.441 0.989-0.989 0-0.539-0.445-0.98-0.989-0.98z"></path>
<path d="M18.38 16.608c-0.544 0-0.989 0.441-0.989 0.989 0 0.544 0.441 0.989 0.989 0.989 0.544 0 0.989-0.441 0.989-0.989s-0.441-0.989-0.989-0.989z"></path>
<path d="M8.25 3.919l3.033 1.988h-1.795c-0.328 0-0.6 0.267-0.6 0.6v0.422h5.728v-0.422c0-0.328-0.267-0.6-0.6-0.6h-1.842l3.056-2.006c0.075-0.052 0.122-0.136 0.122-0.23s-0.047-0.178-0.122-0.23l-3.328-2.184c-0.089-0.061-0.211-0.061-0.3 0l-3.352 2.208c-0.075 0.052-0.122 0.136-0.122 0.23s0.042 0.173 0.122 0.225zM11.752 1.819l2.831 1.856-2.855 1.875-2.831-1.856 2.855-1.875z"></path>
<path d="M23.236 9.82c-0.009-0.047-0.145-0.727-0.155-0.773l-0.23-0.591c-0.389-0.689-1.125-1.158-1.969-1.158h-18.009c-1.308 0-2.377 1.069-2.377 2.377v5.742c0 1.13 0.534 2.081 1.242 2.32 0-0.005 0-0.009 0-0.009 0.117 0.038 0.234 0.061 0.356 0.061h1.814c-0.009-0.066-0.014-0.127-0.014-0.192 0-0.848 0.689-1.533 1.533-1.533 0.525 0 0.984 0.262 1.261 0.666 0.277-0.398 0.741-0.666 1.261-0.666 0.848 0 1.533 0.689 1.533 1.533 0 0.066-0.005 0.131-0.014 0.192h4.861c-0.009-0.066-0.014-0.127-0.014-0.192 0-0.848 0.689-1.533 1.533-1.533 0.525 0 0.984 0.262 1.261 0.666 0.277-0.398 0.741-0.666 1.261-0.666 0.848 0 1.533 0.689 1.533 1.533 0 0.066-0.005 0.131-0.014 0.192h1.158c0.891 0 1.711-0.539 2.077-1.35 0.038-0.084 0.070-0.169 0.098-0.258 0.047-0.155 0.052-0.323 0.052-0.483v-5.48c0-0.141-0.014-0.272-0.037-0.398zM5.597 12.722h-3.638v-2.503c0-0.816 0.661-1.477 1.477-1.477h2.161v3.98zM9.783 12.722h-3.637v-3.98h3.637v3.98zM13.969 12.722h-3.637v-3.98h3.637v3.98zM14.513 12.722v-3.98h3.638v2.25c0 0.609 0.103 1.191 0.291 1.73h-3.928zM22.725 15.417c-2.273-0.131-4.027-2.034-4.027-4.425v-2.25h2.555c0.816 0 1.477 0.661 1.477 1.477v5.198z"></path>
</svg>
