<svg xmlns="http://www.w3.org/2000/svg" viewBox="0 0 1024 1024"><path d="M712.635 232.378l-64.49-17.915-250.795 154.06 272.29 64.49zm243.63 361.86l68.075-143.31-57.325-17.915-186.305 100.32-143.31-50.16-247.21-82.405-232.88-78.82c-39.41-14.33-121.815-7.165-136.145 32.245s46.575 93.15 85.985 107.485l200.635 68.075L454.68 934.608l82.405 28.66 71.655-329.615 85.985 28.66s236.465 57.325 293.79-42.995c-7.165-10.75-17.915-21.495-32.245-25.08zm-709.39-182.72c-7.165 25.08-25.08 39.41-42.995 35.83s-28.66-28.66-21.495-53.74c7.165-25.08 25.08-39.41 42.995-35.83 17.915 7.165 28.66 32.245 21.495 53.74zm93.15 21.495c0 39.41-39.41 46.575-32.245 46.575-39.41 0-35.83-39.41-35.83-46.575 0-39.41 39.41-46.575 35.83-46.575 42.995 3.585 32.245 57.325 32.245 46.575zm89.57 32.245c0 39.41-39.41 46.575-32.245 46.575-39.41 0-32.245-39.41-32.245-46.575 0-39.41 39.41-46.575 32.245-46.575 39.41 3.585 32.245 42.995 32.245 46.575zm93.155 28.665c0 39.41-39.41 46.575-32.245 46.575-39.41 0-35.83-39.41-35.83-46.575 0-39.41 39.41-46.575 35.83-46.575 35.83 3.585 32.245 42.995 32.245 46.575zm89.57 28.66c0 39.41-39.41 46.575-35.83 46.575-39.41 0-35.83-39.41-35.83-46.575 0-39.41 39.41-46.575 35.83-46.575 39.41 0 35.83 42.995 35.83 46.575z"/></svg>