<svg xmlns="http://www.w3.org/2000/svg" viewBox="0 0 1024 1024"><path d="M350.063 614.302c0 51.428-41.688 93.116-93.116 93.116s-93.116-41.688-93.116-93.116 41.688-93.116 93.116-93.116 93.116 41.688 93.116 93.116zm510.107 0c0 51.428-41.688 93.116-93.116 93.116s-93.116-41.688-93.116-93.116 41.688-93.116 93.116-93.116 93.116 41.688 93.116 93.116zM961.387 379.49H835.881v-89.069c0-28.337-141.695-117.406-165.991-117.406H358.157c-28.337 0-170.038 89.069-170.038 117.406v89.069H62.613c-36.437 0-64.774 28.337-64.774 64.774v186.233c0 36.437 28.337 64.774 64.774 64.774h44.532c-8.094-32.39-12.148-56.679-12.148-93.116 0-89.069 72.874-165.991 165.991-165.991 89.069 0 165.991 72.874 165.991 165.991 0 32.39 0 56.679-8.094 89.069h194.327c-8.094-36.437-8.094-56.679-8.094-89.069 0-89.069 72.874-165.991 165.991-165.991S937.1 509.038 937.1 602.155c0 32.39-4.047 60.727-12.148 93.116h44.532c36.437 0 64.774-28.337 64.774-64.774V444.264c-8.094-36.437-36.437-64.774-72.874-64.774zm-497.972-44.531c0 16.195-12.148 32.39-24.289 36.437H293.384c-4.047 0-12.148 0-16.195-4.047-8.094-8.094-16.195-20.242-16.195-32.39V310.67c0-20.242 56.679-64.774 105.264-76.921h64.774c16.195 0 32.39 16.195 32.39 36.437v64.774zm299.592 0c0 16.195-8.094 28.337-16.195 32.39-4.047 4.047-8.094 4.047-16.195 4.047H580.828c-16.195-4.047-24.289-20.242-24.289-36.437v-60.727c0-20.242 16.195-36.437 32.39-36.437h64.774c48.585 8.094 109.311 56.679 109.311 76.921v20.242z"/></svg>