<!-- Generated by IcoMoon.io -->
<svg version="1.1" xmlns="http://www.w3.org/2000/svg" width="24" height="24" viewBox="0 0 24 24">
<title>travel-air</title>
<path d="M16.702 4.946l-1.511-0.42-5.878 3.611 6.382 1.511z"></path>
<path d="M22.412 13.427l1.596-3.359-1.344-0.42-4.367 2.351-3.359-1.176-5.794-1.931-5.458-1.847c-0.924-0.336-2.855-0.168-3.191 0.756s1.092 2.183 2.015 2.519l4.702 1.596 3.443 9.489 1.931 0.672 1.679-7.725 2.015 0.672c0 0 5.542 1.344 6.886-1.008-0.168-0.252-0.42-0.504-0.756-0.588zM5.786 9.145c-0.168 0.588-0.588 0.924-1.008 0.84s-0.672-0.672-0.504-1.26c0.168-0.588 0.588-0.924 1.008-0.84 0.42 0.168 0.672 0.756 0.504 1.26zM7.969 9.649c0 0.924-0.924 1.092-0.756 1.092-0.924 0-0.84-0.924-0.84-1.092 0-0.924 0.924-1.092 0.84-1.092 1.008 0.084 0.756 1.344 0.756 1.092zM10.069 10.404c0 0.924-0.924 1.092-0.756 1.092-0.924 0-0.756-0.924-0.756-1.092 0-0.924 0.924-1.092 0.756-1.092 0.924 0.084 0.756 1.008 0.756 1.092zM12.252 11.076c0 0.924-0.924 1.092-0.756 1.092-0.924 0-0.84-0.924-0.84-1.092 0-0.924 0.924-1.092 0.84-1.092 0.84 0.084 0.756 1.008 0.756 1.092zM14.351 11.748c0 0.924-0.924 1.092-0.84 1.092-0.924 0-0.84-0.924-0.84-1.092 0-0.924 0.924-1.092 0.84-1.092 0.924 0 0.84 1.008 0.84 1.092z"></path>
</svg>
