<svg xmlns="http://www.w3.org/2000/svg" viewBox="0 0 1024 1024"><path d="M544 85.333c-265.088 0-480 214.912-480 480s214.912 480 480 480 480-214.912 480-480-214.912-480-480-480zm0 896c-229.376 0-416-186.624-416-416s186.624-416 416-416 416 186.624 416 416-186.624 416-416 416zm215.488-501.184c-5.056-6.656-12.096-10.816-19.968-10.816H348.48c-8 0-15.104 4.416-20.16 11.264l-.128-.128c-10.88 13.888-10.88 36.416 0 50.304L524.16 778.901c10.88 13.888 28.608 13.888 39.488 0 .32-.384.384-.896.704-1.28l195.52-246.848c10.88-13.888 10.88-36.416 0-50.304-.128-.128-.256-.192-.384-.32z"/></svg>