<!-- Generated by IcoMoon.io -->
<svg version="1.1" xmlns="http://www.w3.org/2000/svg" width="24" height="24" viewBox="0 0 24 24">
<title>triangle-line-up</title>
<path d="M12.75 1.5c-6.213 0-11.25 5.037-11.25 11.25s5.037 11.25 11.25 11.25 11.25-5.037 11.25-11.25-5.037-11.25-11.25-11.25zM12.75 22.5c-5.376 0-9.75-4.374-9.75-9.75s4.374-9.75 9.75-9.75 9.75 4.374 9.75 9.75-4.374 9.75-9.75 9.75zM13.2 9.245c-0.255-0.325-0.67-0.325-0.926 0-0.008 0.009-0.009 0.021-0.016 0.030l-4.581 5.785c-0.255 0.326-0.255 0.853 0 1.179 0.002 0.003 0.006 0.003 0.007 0.006 0.119 0.157 0.284 0.255 0.468 0.255h9.165c0.188 0 0.354-0.104 0.473-0.264l0.003 0.003c0.255-0.325 0.255-0.854 0-1.179l-4.593-5.816z"></path>
</svg>
