<svg xmlns="http://www.w3.org/2000/svg" viewBox="0 0 1024 1024"><path d="M544 85.333c-265.088 0-480 214.912-480 480s214.912 480 480 480 480-214.912 480-480-214.912-480-480-480zm0 896c-229.376 0-416-186.624-416-416s186.624-416 416-416 416 186.624 416 416-186.624 416-416 416zm84.864-632.448c-13.888-10.88-36.416-10.88-50.304 0L330.432 544.853c-13.888 10.88-13.888 28.608 0 39.488.384.32.896.384 1.28.704l246.848 195.52c13.888 10.88 36.416 10.88 50.304 0 .128-.064.128-.256.256-.32 6.72-5.12 10.88-12.16 10.88-20.032v-391.04c0-8-4.416-15.104-11.264-20.16l.128-.128z"/></svg>