<svg xmlns="http://www.w3.org/2000/svg" viewBox="0 0 1024 1024"><path d="M544 85.333c-265.088 0-480 214.912-480 480s214.912 480 480 480 480-214.912 480-480-214.912-480-480-480zm0 896c-229.376 0-416-186.624-416-416s186.624-416 416-416 416 186.624 416 416-186.624 416-416 416zm212.288-436.928L509.44 348.885c-13.888-10.88-36.416-10.88-50.304 0-.128.128-.192.256-.32.32C452.16 354.261 448 361.301 448 369.173v391.04c0 8 4.416 15.104 11.264 20.16l-.128.128c13.888 10.88 36.416 10.88 50.304 0l248.128-195.968c13.888-10.88 13.888-28.608 0-39.488-.384-.32-.896-.384-1.28-.64z"/></svg>