<!-- Generated by IcoMoon.io -->
<svg version="1.1" xmlns="http://www.w3.org/2000/svg" width="24" height="24" viewBox="0 0 24 24">
<title>triangle-line-down</title>
<path d="M12.75 1.5c-6.213 0-11.25 5.037-11.25 11.25s5.037 11.25 11.25 11.25 11.25-5.037 11.25-11.25-5.037-11.25-11.25-11.25zM12.75 22.5c-5.376 0-9.75-4.374-9.75-9.75s4.374-9.75 9.75-9.75 9.75 4.374 9.75 9.75-4.374 9.75-9.75 9.75zM17.8 10.753c-0.118-0.156-0.283-0.253-0.468-0.253h-9.165c-0.188 0-0.354 0.104-0.473 0.264l-0.003-0.003c-0.255 0.325-0.255 0.853 0 1.179l4.593 5.815c0.255 0.326 0.67 0.326 0.926 0 0.008-0.009 0.009-0.021 0.016-0.030l4.582-5.786c0.255-0.325 0.255-0.853 0-1.179-0.003-0.003-0.006-0.005-0.009-0.008z"></path>
</svg>
