<svg xmlns="http://www.w3.org/2000/svg" viewBox="0 0 1024 1024"><path d="M544 85.333c-265.088 0-480 214.912-480 480s214.912 480 480 480 480-214.912 480-480-214.912-480-480-480zm0 896c-229.376 0-416-186.624-416-416s186.624-416 416-416 416 186.624 416 416-186.624 416-416 416zm19.2-565.568c-10.88-13.888-28.608-13.888-39.488 0-.32.384-.384.896-.704 1.28L327.552 663.893c-10.88 13.888-10.88 36.416 0 50.304.064.128.256.128.32.256 5.056 6.72 12.096 10.88 19.968 10.88h391.04c8 0 15.104-4.416 20.16-11.264l.128.128c10.88-13.888 10.88-36.416 0-50.304L563.2 415.765z"/></svg>