<!-- Generated by IcoMoon.io -->
<svg version="1.1" xmlns="http://www.w3.org/2000/svg" width="24" height="24" viewBox="0 0 24 24">
<title>trolleybus</title>
<path d="M10.458 5.33h-0.769c-0.323 0-0.591 0.267-0.591 0.591v0.417h5.662v-0.417c0-0.323-0.267-0.591-0.591-0.591h-0.145c-0.005-0.005-0.005-0.009-0.009-0.009l-3.145-3.145c-0.108-0.108-0.277-0.108-0.384 0s-0.108 0.277 0 0.384l2.775 2.775h-2.048c-0.005-0.005-0.005-0.009-0.009-0.009l-3.141-3.15c-0.108-0.108-0.277-0.108-0.384 0s-0.108 0.277 0 0.384l2.78 2.77z"></path>
<path d="M6.333 15.136c-0.75 0-1.359 0.609-1.359 1.359 0 0.206 0.047 0.408 0.131 0.581 0.22 0.459 0.689 0.778 1.228 0.778s1.008-0.319 1.228-0.778c0.084-0.178 0.131-0.375 0.131-0.581 0-0.75-0.609-1.359-1.359-1.359z"></path>
<path d="M17.278 15.136c-0.75 0-1.359 0.609-1.359 1.359 0 0.206 0.047 0.408 0.131 0.581 0.22 0.459 0.684 0.778 1.228 0.778s1.012-0.319 1.228-0.778c0.084-0.178 0.131-0.375 0.131-0.581 0.005-0.75-0.609-1.359-1.359-1.359z"></path>
<path d="M23.316 9.591c0-0.136-0.014-0.267-0.042-0.398 0 0 0 0.005 0.005 0.005-0.009-0.047-0.145-0.717-0.155-0.764l-0.225-0.586c-0.384-0.68-1.111-1.144-1.945-1.144h-17.803c-1.294 0-2.348 1.055-2.348 2.348v5.677c0 1.294 0.703 2.348 1.566 2.348 0.638 0 1.627 0 2.105 0-0.056-0.183-0.089-0.38-0.089-0.581 0-1.073 0.872-1.95 1.95-1.95 1.073 0 1.95 0.877 1.95 1.95 0 0.202-0.033 0.398-0.089 0.581h7.228c-0.056-0.183-0.089-0.38-0.089-0.581 0-1.073 0.877-1.95 1.95-1.95s1.95 0.877 1.95 1.95c0 0.202-0.033 0.398-0.089 0.581h1.809c1.036 0 2.184-0.9 2.353-1.997 0.009-0.023 0.014-0.052 0.014-0.080v-5.409zM22.777 14.728c-2.25-0.127-3.98-2.011-3.98-4.373v-2.227h2.522c0.806 0 1.458 0.656 1.458 1.458v5.142zM2.25 12.066v-2.475c0-0.806 0.656-1.458 1.458-1.458h2.137v3.933h-3.595zM6.384 12.066v-3.933h3.595v3.933h-3.595zM10.523 12.066v-3.933h3.6v3.933h-3.6zM14.658 8.133h3.595v2.227c0 0.605 0.103 1.181 0.286 1.711h-3.881v-3.938z"></path>
</svg>
