<svg xmlns="http://www.w3.org/2000/svg" viewBox="0 0 1024 1024"><path d="M446.2 248.733h-32.8c-13.8 0-25.2 11.4-25.2 25.2v17.8h241.6v-17.8c0-13.8-11.4-25.2-25.2-25.2h-6.2c-.2-.2-.2-.4-.4-.4l-134.2-134.2c-4.6-4.6-11.8-4.6-16.4 0s-4.6 11.8 0 16.4l118.4 118.4h-87.4c-.2-.2-.2-.4-.4-.4l-134-134.4c-4.6-4.6-11.8-4.6-16.4 0s-4.6 11.8 0 16.4l118.6 118.2zm-176 418.4c-32 0-58 26-58 58 0 8.8 2 17.4 5.6 24.8 9.4 19.6 29.4 33.2 52.4 33.2s43-13.6 52.4-33.2c3.6-7.6 5.6-16 5.6-24.8 0-32-26-58-58-58zm467 0c-32 0-58 26-58 58 0 8.8 2 17.4 5.6 24.8 9.4 19.6 29.2 33.2 52.4 33.2s43.2-13.6 52.4-33.2c3.6-7.6 5.6-16 5.6-24.8.2-32-26-58-58-58zm257.6-236.6c0-5.8-.6-11.4-1.8-17 0 0 0 .2.2.2-.4-2-6.2-30.6-6.6-32.6l-9.6-25c-16.4-29-47.4-48.8-83-48.8H134.4c-55.2 0-100.2 45-100.2 100.2v242.2c0 55.2 30 100.2 66.8 100.2h89.8c-2.4-7.8-3.8-16.2-3.8-24.8 0-45.8 37.2-83.2 83.2-83.2 45.8 0 83.2 37.4 83.2 83.2 0 8.6-1.4 17-3.8 24.8H658c-2.4-7.8-3.8-16.2-3.8-24.8 0-45.8 37.4-83.2 83.2-83.2s83.2 37.4 83.2 83.2c0 8.6-1.4 17-3.8 24.8H894c44.2 0 93.2-38.4 100.4-85.2.4-1 .6-2.2.6-3.4v-230.8zm-23 219.2c-96-5.4-169.8-85.8-169.8-186.6v-95h107.6c34.4 0 62.2 28 62.2 62.2v219.4zM96 536.133v-105.6c0-34.4 28-62.2 62.2-62.2h91.2v167.8H96zm176.4 0v-167.8h153.4v167.8H272.4zm176.6 0v-167.8h153.6v167.8H449zm176.4-167.8h153.4v95c0 25.8 4.4 50.4 12.2 73H625.4v-168z"/></svg>