<!-- Generated by IcoMoon.io -->
<svg version="1.1" xmlns="http://www.w3.org/2000/svg" width="24" height="24" viewBox="0 0 24 24">
<title>truck</title>
<path d="M21.764 15.609v1.008h-0.113l-0.427-1.008h0.539zM14.855 17.63l0.853-2.016h-4.509v0.652c0 0.408-0.333 0.741-0.741 0.741h-1.064v0.623h2.006v-0.675h1.2v0.675h2.255zM0.886 15.806h-0.464c-0.103 0-0.183 0.084-0.183 0.183v1.622c0 0.206 0.164 0.37 0.37 0.37h0.422v-2.030c0-0.080-0.066-0.145-0.145-0.145zM7.387 17.77c0-1.233-0.998-2.227-2.227-2.227-1.233 0-2.227 0.998-2.227 2.227 0 1.233 0.998 2.227 2.227 2.227s2.227-0.994 2.227-2.227zM5.156 18.816c-0.577 0-1.045-0.469-1.045-1.045s0.469-1.045 1.045-1.045c0.577 0 1.045 0.469 1.045 1.045 0.005 0.577-0.464 1.045-1.045 1.045zM20.747 17.77c0-1.233-0.998-2.227-2.227-2.227-1.233 0-2.227 0.998-2.227 2.227 0 1.233 0.998 2.227 2.227 2.227s2.227-0.994 2.227-2.227zM18.516 18.816c-0.577 0-1.045-0.469-1.045-1.045s0.469-1.045 1.045-1.045c0.577 0 1.045 0.469 1.045 1.045 0.005 0.577-0.464 1.045-1.045 1.045zM23.583 3.844v9.563h-14.578v0.37h14.578v0.595h-0.6v2.728h-0.848v-1.856h-1.467l0.886 2.095h-0.684l-0.886-2.095h-3.028l-0.886 2.095h-0.694l0.886-2.095h-5.433v1.022c0 0.206-0.164 0.37-0.37 0.37h-1.434v1.35h-1.28c0.005-0.070 0.009-0.141 0.009-0.216 0-1.434-1.167-2.597-2.597-2.597s-2.597 1.167-2.597 2.597c0 0.070 0.005 0.145 0.009 0.216h-1.172v-2.030c0-0.286-0.23-0.516-0.516-0.516h-0.23l-0.009-3.206c0-0.506 0.098-1.008 0.295-1.477 0.591-1.397 1.341-2.752 2.213-4.059 0.272-0.408 0.736-0.656 1.228-0.656h4.181v1.917h0.441v-4.116c0-0.45 0.253-0.816 0.572-0.816h13.439c0.319 0.005 0.572 0.366 0.572 0.816zM7.425 7.214h-3.047c-0.098 0-0.192 0.047-0.248 0.131-0.858 1.28-1.566 2.583-2.109 3.867 0 0 0 0.005 0 0.005-0.098 0.234 0.080 0.492 0.333 0.492h5.072v-4.495zM12.131 3.741c0-0.084-0.066-0.155-0.145-0.155s-0.145 0.070-0.145 0.155v6.103c0 0.084 0.066 0.155 0.145 0.155s0.145-0.070 0.145-0.155v-6.103zM15.009 3.741c0-0.084-0.066-0.155-0.145-0.155s-0.145 0.070-0.145 0.155v6.103c0 0.084 0.066 0.155 0.145 0.155s0.145-0.070 0.145-0.155v-6.103zM17.888 3.741c0-0.084-0.066-0.155-0.145-0.155s-0.145 0.070-0.145 0.155v6.103c0 0.084 0.066 0.155 0.145 0.155s0.145-0.070 0.145-0.155v-6.103zM20.766 3.741c0-0.084-0.066-0.155-0.145-0.155s-0.145 0.070-0.145 0.155v6.103c0 0.084 0.066 0.155 0.145 0.155s0.145-0.070 0.145-0.155v-6.103z"></path>
</svg>
