<!-- Generated by IcoMoon.io -->
<svg version="1.1" xmlns="http://www.w3.org/2000/svg" width="24" height="24" viewBox="0 0 24 24">
<title>truck-delivery</title>
<path d="M12 0.644c-6.291 0-11.438 5.147-11.438 11.438s5.147 11.438 11.438 11.438c6.291 0 11.438-5.147 11.438-11.438 0-6.372-5.147-11.438-11.438-11.438zM21.804 12.082c0 2.042-0.654 3.921-1.716 5.474h-3.268c-0.899 0-1.225-0.163-1.225-0.899 0 0.735-0.49 1.389-1.225 1.634h-0.98c0.245-0.735 0.163-1.225 0.163-1.961 0-1.961-1.552-3.513-3.513-3.513s-3.513 1.552-3.513 3.513c0 0.735 0.082 1.307 0.245 1.961h-0.899c-0.654 0-1.225-0.654-1.225-1.389v-3.921c0-0.735 0.572-1.389 1.389-1.389h2.696v-1.879c0-0.572 2.941-2.533 3.595-2.533h3.35v-2.941c0-0.49 0.245-0.899 0.572-1.062 3.268 1.634 5.555 4.984 5.555 8.905zM8.16 16.493c0-1.062 0.899-1.961 1.961-1.961s1.961 0.899 1.961 1.961c0 1.062-0.899 1.961-1.961 1.961-1.062 0.082-1.961-0.817-1.961-1.961z"></path>
<path d="M13.961 8.487h-1.389c-1.062 0.163-2.369 1.225-2.369 1.634v0.49c0 0.327 0.163 0.572 0.327 0.735 0.082 0.082 0.245 0.082 0.327 0.082h3.023c0.082 0 0.082 0 0.163 0 0.327-0.082 0.572-0.409 0.572-0.817 0 0 0-1.389 0-1.389 0-0.327-0.245-0.735-0.654-0.735z"></path>
</svg>
