<svg xmlns="http://www.w3.org/2000/svg" viewBox="0 0 1024 1024"><path d="M928.6 687.333v43h-4.8l-18.2-43h23zm-294.8 86.2l36.4-86H477.8v27.8c0 17.4-14.2 31.6-31.6 31.6h-45.4v26.6h85.6v-28.8h51.2v28.8h96.2zm-596-77.8H18c-4.4 0-7.8 3.6-7.8 7.8v69.2c0 8.8 7 15.8 15.8 15.8h18v-86.6c0-3.4-2.8-6.2-6.2-6.2zm277.4 83.8c0-52.6-42.6-95-95-95-52.6 0-95 42.6-95 95 0 52.6 42.6 95 95 95s95-42.4 95-95zm-95.2 44.6c-24.6 0-44.6-20-44.6-44.6s20-44.6 44.6-44.6 44.6 20 44.6 44.6c.2 24.6-19.8 44.6-44.6 44.6zm665.2-44.6c0-52.6-42.6-95-95-95-52.6 0-95 42.6-95 95 0 52.6 42.6 95 95 95s95-42.4 95-95zm-95.2 44.6c-24.6 0-44.6-20-44.6-44.6s20-44.6 44.6-44.6 44.6 20 44.6 44.6c.2 24.6-19.8 44.6-44.6 44.6zm216.2-638.8v408h-622v15.8h622v25.4h-25.6v116.4h-36.2v-79.2h-62.6l37.8 89.4h-29.2l-37.8-89.4H723.4l-37.8 89.4H656l37.8-89.4H462v43.6c0 8.8-7 15.8-15.8 15.8H385v57.6h-54.6c.2-3 .4-6 .4-9.2 0-61.2-49.8-110.8-110.8-110.8s-110.8 49.8-110.8 110.8c0 3 .2 6.2.4 9.2h-50v-86.6c0-12.2-9.8-22-22-22h-9.8l-.4-136.8c0-21.6 4.2-43 12.6-63 25.2-59.6 57.2-117.4 94.4-173.2 11.6-17.4 31.4-28 52.4-28h178.4v81.8H384v-175.6c0-19.2 10.8-34.8 24.4-34.8h573.4c13.6.2 24.4 15.6 24.4 34.8zm-689.4 143.8h-130c-4.2 0-8.2 2-10.6 5.6-36.6 54.6-66.8 110.2-90 165v.2c-4.2 10 3.4 21 14.2 21h216.4v-191.8zm200.8-148.2c0-3.6-2.8-6.6-6.2-6.6s-6.2 3-6.2 6.6v260.4c0 3.6 2.8 6.6 6.2 6.6s6.2-3 6.2-6.6v-260.4zm122.8 0c0-3.6-2.8-6.6-6.2-6.6s-6.2 3-6.2 6.6v260.4c0 3.6 2.8 6.6 6.2 6.6s6.2-3 6.2-6.6v-260.4zm122.8 0c0-3.6-2.8-6.6-6.2-6.6s-6.2 3-6.2 6.6v260.4c0 3.6 2.8 6.6 6.2 6.6s6.2-3 6.2-6.6v-260.4zm122.8 0c0-3.6-2.8-6.6-6.2-6.6s-6.2 3-6.2 6.6v260.4c0 3.6 2.8 6.6 6.2 6.6s6.2-3 6.2-6.6v-260.4z"/></svg>