<svg xmlns="http://www.w3.org/2000/svg" viewBox="0 0 1024 1024"><path d="M512 48.815c-268.403 0-488.006 219.603-488.006 488.006S243.597 1024.827 512 1024.827c268.403 0 488.006-219.603 488.006-488.006 0-271.888-219.603-488.006-488.006-488.006zm418.288 488.003c0 87.145-27.885 167.315-73.2 233.545h-139.43c-38.345 0-52.285-6.97-52.285-38.345 0 31.37-20.915 59.258-52.285 69.715h-41.83c10.455-31.37 6.97-52.285 6.97-83.658 0-83.658-66.23-149.888-149.888-149.888s-149.888 66.23-149.888 149.888c0 31.37 3.485 55.77 10.455 83.658h-38.345c-27.885 0-52.285-27.885-52.285-59.258V575.16c0-31.37 24.4-59.258 59.258-59.258h115.03v-80.173c0-24.4 125.488-108.058 153.373-108.058h142.915V202.183c0-20.915 10.455-38.345 24.4-45.315 139.43 69.715 237.03 212.63 237.03 379.948zM348.17 725.048c0-45.315 38.345-83.658 83.658-83.658s83.658 38.345 83.658 83.658c0 45.315-38.345 83.658-83.658 83.658-45.315 3.485-83.658-34.858-83.658-83.658zm247.488-341.603H536.4c-45.315 6.97-101.085 52.285-101.085 69.715v20.915c0 13.945 6.97 24.4 13.945 31.37 3.485 3.485 10.455 3.485 13.945 3.485h135.943c13.945-3.485 24.4-17.43 24.4-34.858v-59.258c0-13.945-10.455-31.37-27.885-31.37z"/></svg>