<svg xmlns="http://www.w3.org/2000/svg" viewBox="0 0 1024 1024"><path d="M164.2 208.133v-122.8c0-26.4 21.4-47.8 47.8-47.8h600c26.4 0 47.8 21.4 47.8 47.8v122.6c-13.8-12.4-32.2-20-52.2-20H790v-64.4c0-10.4-8.6-19-19-19H253c-10.4 0-19 8.6-19 19v64.6h-17.6c-20.2-.2-38.4 7.4-52.2 20zm93-20.2h509.4v-60.2H257.2v60.2zm695 273.8l-8.2 94.6c-.4 4.4-4.2 7.8-8.6 7.8h-40.2v12.2c0 9.6-7.8 17.2-17.2 17.2h-18v299.2c0 13.4-10.2 24.2-23.2 25.6v89.8c0 16.2-13 29.2-29.2 29.2H762c-16.2 0-29.2-13-29.2-29.2v-89.6H291.4v89.6c0 16.2-13 29.2-29.2 29.2h-45.6c-16.2 0-29.2-13-29.2-29.2v-89.8c-13-1.4-23.2-12.2-23.2-25.6v-299.2h-18c-9.6 0-17.2-7.8-17.2-17.2v-12.2H88.6c-4.4 0-8.2-3.4-8.6-7.8l-8.2-94.6c-.4-5 3.6-9.4 8.6-9.4H134c4.4 0 8.2 3.4 8.6 7.8l8.2 94.6c.4 3.6-1.8 7-4.8 8.4v4.6c0 4.8 3.8 8.6 8.6 8.6h9.4v-310.2c0-28.8 23.4-52.2 52.2-52.2h591.4c28.8 0 52.2 23.4 52.2 52.2v310.4h9.4c4.8 0 8.6-3.8 8.6-8.6v-4.6c-3-1.6-5.2-4.8-4.8-8.4l8.2-94.6c.4-4.4 4.2-7.8 8.6-7.8h53.8c5-.2 9 4.2 8.6 9.2zm-727.2 78.6h574v-239.4c0-14.4-11.6-26-26-26H251.2c-14.4 0-26 11.6-26 26v239.4zm72.4 202.4c-4-61.6-34-93.2-92-92.2-4.8 0-8.6 3.8-8.6 8.6v84.2c0 4.8 3.8 8.6 8.6 8.6H289c4.8.2 8.6-4.2 8.4-9.2zm104.8 122.6H322v20.4h80.4v-20.4zm0-48H322v20.4h80.4v-20.4zm101.2 48h-84v20.4h84v-20.4zm0-48h-84v20.4h84v-20.4zm101.2 48h-83.8v20.4h83.8v-20.4zm0-48h-83.8v20.4h83.8v-20.4zm97.4 48h-80.4v20.4H702v-20.4zm0-48h-80.4v20.4H702v-20.4zm125.4-158.2c0-4.8-3.8-8.6-8.6-8.6-58-1-88 30.6-92 92.2-.4 5 3.6 9.4 8.6 9.4H819c4.8 0 8.6-3.8 8.6-8.6v-84.4z"/></svg>