<!-- Generated by IcoMoon.io -->
<svg version="1.1" xmlns="http://www.w3.org/2000/svg" width="24" height="24" viewBox="0 0 24 24">
<title>truck-alt</title>
<path d="M3.848 4.378v-2.878c0-0.619 0.502-1.12 1.12-1.12h14.063c0.619 0 1.12 0.502 1.12 1.12v2.873c-0.323-0.291-0.755-0.469-1.223-0.469h-0.413v-1.509c0-0.244-0.202-0.445-0.445-0.445h-12.141c-0.244 0-0.445 0.202-0.445 0.445v1.514h-0.412c-0.473-0.005-0.9 0.173-1.223 0.469zM6.028 3.905h11.939v-1.411h-11.939v1.411zM22.317 10.322l-0.192 2.217c-0.009 0.103-0.098 0.183-0.202 0.183h-0.942v0.286c0 0.225-0.183 0.403-0.403 0.403h-0.422v7.013c0 0.314-0.239 0.567-0.544 0.6v2.105c0 0.38-0.305 0.684-0.684 0.684h-1.069c-0.38 0-0.684-0.305-0.684-0.684v-2.1h-10.345v2.1c0 0.38-0.305 0.684-0.684 0.684h-1.069c-0.38 0-0.684-0.305-0.684-0.684v-2.105c-0.305-0.033-0.544-0.286-0.544-0.6v-7.013h-0.422c-0.225 0-0.403-0.183-0.403-0.403v-0.286h-0.947c-0.103 0-0.192-0.080-0.202-0.183l-0.192-2.217c-0.009-0.117 0.084-0.22 0.202-0.22h1.256c0.103 0 0.192 0.080 0.202 0.183l0.192 2.217c0.009 0.084-0.042 0.164-0.113 0.197v0.108c0 0.113 0.089 0.202 0.202 0.202h0.22v-7.27c0-0.675 0.548-1.223 1.223-1.223h13.861c0.675 0 1.223 0.548 1.223 1.223v7.275h0.22c0.113 0 0.202-0.089 0.202-0.202v-0.108c-0.070-0.038-0.122-0.112-0.113-0.197l0.192-2.217c0.009-0.103 0.098-0.183 0.202-0.183h1.261c0.117-0.005 0.211 0.098 0.202 0.216zM5.273 12.164h13.453v-5.611c0-0.337-0.272-0.609-0.609-0.609h-12.23c-0.338 0-0.609 0.272-0.609 0.609v5.611zM6.97 16.908c-0.094-1.444-0.797-2.184-2.156-2.161-0.112 0-0.202 0.089-0.202 0.202v1.973c0 0.112 0.089 0.202 0.202 0.202h1.959c0.113 0.005 0.202-0.098 0.197-0.216zM9.427 19.781h-1.88v0.478h1.884v-0.478zM9.427 18.656h-1.88v0.478h1.884v-0.478zM11.798 19.781h-1.969v0.478h1.969v-0.478zM11.798 18.656h-1.969v0.478h1.969v-0.478zM14.17 19.781h-1.964v0.478h1.964v-0.478zM14.17 18.656h-1.964v0.478h1.964v-0.478zM16.453 19.781h-1.884v0.478h1.884v-0.478zM16.453 18.656h-1.884v0.478h1.884v-0.478zM19.392 14.948c0-0.112-0.089-0.202-0.202-0.202-1.359-0.023-2.063 0.717-2.156 2.161-0.009 0.117 0.084 0.22 0.202 0.22h1.959c0.112 0 0.202-0.089 0.202-0.202v-1.978z"></path>
</svg>
