<svg xmlns="http://www.w3.org/2000/svg" viewBox="0 0 1024 1024"><path d="M1019.733 856.889V944h-688C159.289 944 7.822 929.422 7.822 699.378c.356-18.844 0-72.178 7.111-115.911 48.711-344.533 323.2-491.378 574.933-470.756 71.467 6.044 139.378 23.467 197.689 66.489 20.622 15.644 38.756 37.689 51.2 60.444 15.289 27.022 13.156 71.822-11.378 93.156-21.333 18.844-56.889 20.267-82.489 7.111-28.444-14.933-39.111-39.111-34.133-70.4 1.422-8.178 3.556-16 6.756-29.511-16.356 5.333-30.578 8.533-43.733 14.578-119.822 56.178-190.933 176-181.333 304.356 9.244 121.6 109.511 240.711 239.289 276.267 51.2 14.222 106.311 17.067 160 21.333 41.956 2.844 84.267.356 128 .356z"/></svg>