<!-- Generated by IcoMoon.io -->
<svg version="1.1" xmlns="http://www.w3.org/2000/svg" width="24" height="24" viewBox="0 0 24 24">
<title>tsunami-alt</title>
<path d="M23.9 19.583c0 0.725 0 1.35 0 2.042-6.967 0-9.067 0-16.125 0-4.042 0-7.592-0.342-7.592-5.733 0.008-0.442 0-1.692 0.167-2.717 1.142-8.075 7.575-11.517 13.475-11.033 1.675 0.142 3.267 0.55 4.633 1.558 0.483 0.367 0.908 0.883 1.2 1.417 0.358 0.633 0.308 1.683-0.267 2.183-0.5 0.442-1.333 0.475-1.933 0.167-0.667-0.35-0.917-0.917-0.8-1.65 0.033-0.192 0.083-0.375 0.158-0.692-0.383 0.125-0.717 0.2-1.025 0.342-2.808 1.317-4.475 4.125-4.25 7.133 0.217 2.85 2.567 5.642 5.608 6.475 1.2 0.333 2.492 0.4 3.75 0.5 0.983 0.067 1.975 0.008 3 0.008z"></path>
</svg>
