<!-- Generated by IcoMoon.io -->
<svg version="1.1" xmlns="http://www.w3.org/2000/svg" width="24" height="24" viewBox="0 0 24 24">
<title>tsunami</title>
<path d="M19.19 23.997h-14.219c-0.017 0-0.037 0-0.057 0-0.419 0-0.827-0.045-1.22-0.13l0.038 0.007c-2.11-0.495-3.665-2.339-3.714-4.554l-0-0.005c-0.030-1.268-0.012-2.543-0.013-3.819q0-2.448 0-4.896c0-1.955-0.016-3.904 0.008-5.855 0.009-0.493 0.091-0.965 0.236-1.408l-0.010 0.034c0.613-1.961 2.413-3.36 4.54-3.36 0.004 0 0.007 0 0.011 0h-0.001q7.204-0.020 14.408 0c0.002 0 0.005 0 0.008 0 2.653 0 4.803 2.15 4.803 4.803v0q-0.007 4.404-0.006 8.807c0 1.851 0.027 3.701-0.009 5.551-0.042 2.13-1.082 3.628-3.028 4.478-0.518 0.219-1.121 0.347-1.754 0.347-0.007 0-0.015-0-0.022-0h0.001zM21.804 21.673c-0.077-0.011-0.105-0.016-0.133-0.018-0.84-0.065-1.683-0.096-2.517-0.203-1.494-0.192-2.95-0.55-4.322-1.197-1.072-0.506-2.028-1.17-2.77-2.102-1.167-1.466-1.551-3.138-1.172-4.968 0.316-1.523 1.034-2.818 2.351-3.714 0.454-0.327 1.022-0.523 1.636-0.523 0.225 0 0.444 0.026 0.653 0.076l-0.019-0.004c-0.794 0.72-0.955 2.195 0.13 2.883 1.261 0.8 2.474 0.319 2.819-1.052 0.315-1.254-0.014-2.38-0.876-3.337-1.065-1.181-2.44-1.694-3.995-1.738-0.113-0.003-0.246-0.005-0.379-0.005-1.051 0-2.077 0.103-3.070 0.3l0.1-0.017c-1.601 0.299-3.109 0.85-4.485 1.726-2.063 1.316-3.517 3.15-4.505 5.372-0.020 0.049-0.031 0.105-0.031 0.164 0 0.006 0 0.012 0 0.019l-0-0.001c0 2.030-0.005 4.061 0.016 6.091 0.009 0.825 0.34 1.549 0.887 2.159 0.752 0.836 1.7 1.217 2.827 1.212 2.662-0.012 5.325-0.008 7.991-0.008q3.080 0 6.16 0.006c1.039 0.003 1.929-0.349 2.706-1.12z"></path>
</svg>
