<svg xmlns="http://www.w3.org/2000/svg" viewBox="0 0 1024 1024"><path d="M818.787 1045.224H212.105c-.726.008-1.584.012-2.442.012-17.863 0-35.277-1.92-52.048-5.565l1.609.293C69.192 1018.853 2.839 940.187.766 845.676l-.004-.226C-.507 791.336.254 736.931.218 682.527V473.65c0-83.42-.689-166.55.326-249.825.371-21.055 3.873-41.162 10.057-60.055l-.409 1.443C36.335 81.523 113.142 21.839 203.89 21.839l.478.001h-.024q307.385-.87 614.734 0h.326c113.176 0 204.923 91.747 204.923 204.923q-.29 187.913-.254 375.753c0 78.959 1.161 157.918-.363 236.841-1.777 90.892-46.171 154.799-129.192 191.068-22.117 9.36-47.836 14.8-74.825 14.8l-.955-.002h.049zm111.529-99.161c-3.301-.472-4.497-.689-5.694-.762-35.834-2.793-71.814-4.098-107.394-8.668-63.762-8.197-125.856-23.466-184.395-51.068-45.736-21.58-86.539-49.907-118.203-89.695-49.798-62.565-66.192-133.907-50.016-211.96 13.492-64.995 44.104-120.234 100.322-158.462 19.39-13.946 43.614-22.303 69.789-22.303 9.593 0 18.924 1.122 27.868 3.243l-.817-.163c-33.876 30.72-40.731 93.648 5.549 123.027 53.788 34.13 105.545 13.601 120.27-44.902 13.456-53.498-.617-101.555-37.394-142.395-45.446-50.378-104.094-72.285-170.467-74.171a646.847 646.847 0 0 0-16.167-.195c-44.83 0-88.631 4.401-130.996 12.795l4.261-.704c-68.296 12.767-132.638 36.27-191.358 73.627-88.026 56.145-150.047 134.415-192.229 229.224-.836 2.076-1.321 4.482-1.321 7.002 0 .267.005.533.016.797l-.001-.038c0 86.612-.218 173.26.689 259.872.363 35.218 14.508 66.083 37.829 92.125 32.099 35.689 72.539 51.938 120.633 51.72 113.596-.508 227.193-.326 340.934-.326q131.405 0 262.846.254c44.321.145 82.296-14.871 115.446-47.767z"/></svg>