<svg xmlns="http://www.w3.org/2000/svg" viewBox="0 0 1024 1024"><path d="M904.759 362.569v27.322c0 256.146-194.67 549.862-549.862 549.862-109.288 0-208.334-30.738-297.129-85.382 13.661 0 30.738 3.416 44.399 3.416 92.214 0 174.18-30.738 242.485-81.966-85.382 0-153.687-58.06-181.009-133.197 13.661 3.416 23.906 3.416 37.567 3.416 17.077 0 37.567-3.416 51.228-3.416-85.382-17.077-153.687-95.627-153.687-191.257v-3.416c27.322 13.661 54.644 23.906 85.382 23.906-51.228-37.567-85.382-95.627-85.382-160.519 0-37.567 10.245-68.305 27.322-95.627 95.627 119.536 235.656 194.67 396.175 201.502-10.245-13.661-10.245-27.322-10.245-47.815 0-105.875 85.382-191.257 191.257-191.257 54.644 0 105.875 23.906 140.026 58.06 44.399-10.245 85.382-23.906 122.949-44.399-10.245 47.815-44.399 81.966-85.382 105.875 40.983-3.416 78.553-13.661 109.288-30.738-13.661 30.738-44.399 68.305-85.382 95.627z"/></svg>