<!-- Generated by IcoMoon.io -->
<svg version="1.1" xmlns="http://www.w3.org/2000/svg" width="24" height="24" viewBox="0 0 24 24">
<title>twitter</title>
<path d="M21.205 7.998c0 0.24 0 0.4 0 0.64 0 6.003-4.563 12.887-12.887 12.887-2.561 0-4.883-0.72-6.964-2.001 0.32 0 0.72 0.080 1.041 0.080 2.161 0 4.082-0.72 5.683-1.921-2.001 0-3.602-1.361-4.242-3.122 0.32 0.080 0.56 0.080 0.88 0.080 0.4 0 0.88-0.080 1.201-0.080-2.001-0.4-3.602-2.241-3.602-4.483 0 0 0 0 0-0.080 0.64 0.32 1.281 0.56 2.001 0.56-1.201-0.88-2.001-2.241-2.001-3.762 0-0.88 0.24-1.601 0.64-2.241 2.241 2.802 5.523 4.563 9.285 4.723-0.24-0.32-0.24-0.64-0.24-1.121 0-2.481 2.001-4.483 4.483-4.483 1.281 0 2.481 0.56 3.282 1.361 1.041-0.24 2.001-0.56 2.882-1.041-0.24 1.121-1.041 1.921-2.001 2.481 0.961-0.080 1.841-0.32 2.561-0.72-0.32 0.72-1.041 1.601-2.001 2.241z"></path>
</svg>
