<!-- Generated by IcoMoon.io -->
<svg version="1.1" xmlns="http://www.w3.org/2000/svg" width="24" height="24" viewBox="0 0 24 24">
<title>up</title>
<path d="M6.295 10.181l4.627-4.627v15.492c0 0.595 0.483 1.078 1.078 1.078s1.078-0.483 1.078-1.078v-15.492l4.627 4.627c0.422 0.422 1.102 0.422 1.523 0s0.422-1.102 0-1.523l-6.469-6.469c0-0.005-0.009-0.005-0.009-0.009-0.098-0.094-0.211-0.173-0.342-0.225-0.262-0.112-0.563-0.112-0.825 0-0.131 0.052-0.248 0.136-0.352 0.234l-6.469 6.469c-0.422 0.422-0.422 1.102 0.005 1.523s1.111 0.422 1.528 0z"></path>
</svg>
