<svg xmlns="http://www.w3.org/2000/svg" viewBox="0 0 1025 1024"><path d="M987.364 535.328c-.363-23.578-19.588-42.077-43.165-41.714s-42.077 19.588-41.714 43.165v.363c0 215.827-175.564 391.028-391.391 391.028S119.703 752.606 119.703 536.779c0-215.827 175.564-391.391 391.391-391.391 62.753 0 124.055 14.872 178.828 43.165-5.804 7.255-11.245 14.147-15.96 19.95l-32.283 40.264c-22.49 27.931-11.608 52.959 24.303 55.861l30.107 2.176c35.911 2.539 94.311 7.255 130.222 9.794l30.107 2.176c35.911 2.539 56.587-23.215 46.43-57.675l-8.706-28.656c-10.157-34.46-26.842-90.684-37.362-125.143l-8.706-28.656c-10.157-34.46-36.999-39.538-59.488-11.608L756.303 107.3c-3.627 4.353-7.617 9.431-11.608 14.509C673.962 82.271 593.797 60.87 511.457 60.87 248.474 60.507 34.824 274.158 34.824 536.778s213.651 476.271 476.271 476.271 476.271-213.651 476.271-476.271v-1.451z"/></svg>