<!-- Generated by IcoMoon.io -->
<svg version="1.1" xmlns="http://www.w3.org/2000/svg" width="24" height="24" viewBox="0 0 24 24">
<title>upload-cloud</title>
<path d="M23.083 10.808c-0.608-0.758-1.442-1.442-2.425-1.742 0-0.225 0.075-0.458 0.075-0.758 0.075-0.833-0.225-2.050-1.517-2.958s-2.5-0.908-3.333-0.683c-0.3 0.075-0.608 0.225-0.833 0.3-0.3-0.3-0.683-0.758-1.133-1.133-1.367-1.133-2.958-1.517-4.7-1.292-1.817 0.225-3.333 1.058-4.325 2.35-0.758 0.983-1.058 2.125-0.983 3.258-0.458 0.225-0.983 0.533-1.592 0.983-1.367 1.058-2.125 2.5-2.2 4.167 0 1.133 0.458 2.2 1.292 3.108 0.983 1.058 2.425 1.667 3.867 1.667h1.058c0.375 0 0.683-0.3 0.683-0.683 0-0.375-0.3-0.683-0.683-0.683h-1.067c-1.058 0-2.125-0.458-2.883-1.217-0.458-0.458-0.908-1.133-0.908-2.125 0-1.217 0.608-2.275 1.592-2.958 0.908-0.683 1.742-0.983 1.742-0.983l0.15-0.075c0.375-0.075 0.458-0.225 0.375-0.608v-0.075c-0.15-1.058 0.075-1.975 0.683-2.808 0.683-0.983 1.892-1.667 3.333-1.817 1.292-0.15 2.5 0.15 3.567 0.983 0.833 0.683 1.217 1.367 1.217 1.367s0.075 0.225 0.15 0.3c0.075 0.075 0.375 0.225 0.608 0.075 0.225-0.15 0.3-0.225 0.3-0.225s1.517-1.133 3.108 0c0.608 0.458 0.908 0.983 0.908 1.667 0 0.533-0.225 0.983-0.225 0.983s-0.075 0.075-0.15 0.3c-0.075 0.225-0.075 0.608 0.375 0.683 0.075 0 0.3 0.075 0.3 0.075 0.908 0.15 1.742 0.683 2.275 1.442 0.533 0.683 0.683 1.517 0.533 2.425s-0.683 1.667-1.592 2.125c-0.758 0.375-1.592 0.533-2.125 0.533h-1.217c-0.375 0-0.683 0.3-0.683 0.683 0 0.375 0.3 0.683 0.683 0.683h1.217c0.375 0 1.592-0.075 2.958-0.758 1.292-0.683 2.050-1.742 2.275-3.108 0.242-1.267 0.008-2.483-0.75-3.467z"></path>
<path d="M15.35 13.917l-2.575-2.733c-0.15-0.15-0.375-0.375-0.758-0.375-0.375 0-0.608 0.225-0.758 0.375l-2.583 2.733c-0.15 0.15-0.225 0.533-0.075 0.683l0.458 0.458c0.15 0.15 0.458 0.225 0.683-0.075l1.517-1.592c0 0 0 0.533 0 1.292 0 0.208 0 5.375 0 7.525 0 0.3 0.175 0.4 0.35 0.4s0.617 0 0.783 0 0.383-0.083 0.383-0.375c0-1.408 0-8.842 0-8.842l1.517 1.592c0.225 0.225 0.458 0.225 0.683 0.075l0.458-0.458c0.225-0.225 0.15-0.533-0.083-0.683z"></path>
</svg>
