<!-- Generated by IcoMoon.io -->
<svg version="1.1" xmlns="http://www.w3.org/2000/svg" width="24" height="24" viewBox="0 0 24 24">
<title>users</title>
<path d="M6.075 7.5c0.525 0 1.050-0.15 1.5-0.375 0.15-1.275 0.825-2.4 1.8-3.075-0.075-1.725-1.575-3.225-3.375-3.225s-3.375 1.575-3.375 3.375c0.15 1.8 1.65 3.3 3.45 3.3z"></path>
<path d="M9.975 11.475c-1.050-0.6-1.875-1.575-2.25-2.7-0.525-0.15-1.125-0.3-1.65-0.3-4.8 0-5.85 2.7-5.85 8.1 0 1.575 2.25 2.475 4.725 2.7 0.225-3.6 1.125-6.975 5.025-7.8z"></path>
<path d="M16.35 7.125c0.45 0.225 0.975 0.375 1.5 0.375 1.8 0 3.375-1.575 3.375-3.375s-1.575-3.375-3.375-3.375c-1.725 0-3.3 1.5-3.375 3.225 1.050 0.75 1.725 1.875 1.875 3.15z"></path>
<path d="M8.625 6.45c-0.075 0.15-0.075 0.3-0.15 0.45 0 0.075 0 0.075 0 0.15 0 0.225-0.075 0.375-0.075 0.6s0 0.375 0.075 0.6c0 0.075 0 0.15 0.075 0.225 0 0.075 0.075 0.15 0.075 0.225 0 0 0 0.075 0 0.075 0.075 0.15 0.15 0.375 0.225 0.525 0 0 0 0.075 0 0.075s0 0 0 0c0.6 1.125 1.8 1.8 3.15 1.8 2.025 0 3.6-1.65 3.6-3.6 0-2.025-1.65-3.6-3.6-3.6-1.5 0-2.85 0.975-3.375 2.475 0-0.075 0 0 0 0z"></path>
<path d="M17.85 8.475c-0.6 0-1.125 0.075-1.65 0.3-0.375 1.2-1.2 2.175-2.25 2.775 3.075 0.75 4.8 3.3 5.025 7.725 2.55-0.225 4.8-1.125 4.8-2.7 0-5.4-1.275-8.1-5.925-8.1z"></path>
<path d="M12.825 12.15c-0.225 0-0.525 0-0.825 0s-0.525 0-0.825 0c-3.675 0.3-5.175 2.7-5.4 7.125 0 0.45 0 0.9 0 1.35 0 0.975 0.75 1.725 1.95 2.175 0.3 0.15 0.6 0.225 0.975 0.3 0.3 0.075 0.675 0.15 1.050 0.225 0.75 0.15 1.5 0.15 2.25 0.15 0.6 0 1.2 0 1.725-0.075 0.375-0.075 0.75-0.075 1.125-0.15 0.9-0.225 1.65-0.45 2.25-0.825 0.375-0.225 0.675-0.525 0.825-0.75 0.225-0.3 0.3-0.6 0.3-0.975 0-0.45 0-0.9-0.075-1.35-0.225-4.5-1.95-6.9-5.325-7.2z"></path>
</svg>
