<svg xmlns="http://www.w3.org/2000/svg" viewBox="0 0 1024 1024"><path d="M930.133 174.932H631.464v59.732c32.948 0 59.732 26.788 59.732 59.732s-26.788 59.732-59.732 59.732H392.532c-32.948 0-59.732-26.788-59.732-59.732s26.788-59.732 59.732-59.732v-59.732H93.863c-32.948 0-59.732 26.788-59.732 59.732v657.071c0 32.948 26.788 59.732 59.732 59.732h836.271c32.948 0 59.732-26.788 59.732-59.732V234.664c0-32.948-26.788-59.732-59.732-59.732zM482.132 473.601h363.35c16.52 0 29.868 13.348 29.868 29.868s-13.348 29.868-29.868 29.868h-363.35c-16.52 0-29.868-13.348-29.868-29.868s13.348-29.868 29.868-29.868zm0 119.464h363.35c16.52 0 29.868 13.348 29.868 29.868s-13.348 29.868-29.868 29.868h-363.35c-16.52 0-29.868-13.348-29.868-29.868s13.348-29.868 29.868-29.868zm0 119.469h363.35c16.52 0 29.868 13.348 29.868 29.868s-13.348 29.868-29.868 29.868h-363.35c-16.52 0-29.868-13.348-29.868-29.868s13.348-29.868 29.868-29.868zm-89.601 32.76c0 87.452-236.132 87.452-236.132 0s52.829-158.292 118.069-158.292c65.24 0 118.069 70.84 118.069 158.292zm-47.412-259.281c0 39.852-32.292 72.149-72.149 72.149s-72.149-32.292-72.149-72.149c.092-39.852 32.292-72.149 72.149-72.149s72.149 32.292 72.149 72.149zm107.149-430.55h119.469v238.932H452.268V55.463z"/></svg>