<!-- Generated by IcoMoon.io -->
<svg version="1.1" xmlns="http://www.w3.org/2000/svg" width="24" height="24" viewBox="0 0 24 24">
<title>users-alt</title>
<path d="M1.125 15.825c0.225-4.5 1.2-7.2 5.625-7.2 1.95 0 3.15 0.45 3.975 1.2 0.6-1.050 1.575-1.65 3.375-1.65 1.5 0 2.4 0.3 2.925 0.975 0.375-1.125 1.125-1.725 2.7-1.725 2.7 0 2.925 1.5 3 3.9 0 0.225 0 2.55 0 2.775 0 0.525-0.375 0.975-1.050 1.2-0.15 0.075-0.3 0.15-0.525 0.15-0.15 0.075-0.375 0.075-0.6 0.15-0.375 0.075-0.45 0.075-0.825 0.075-0.3 0-0.375 0-0.675-0.075-0.225-0.075-0.375-0.075-0.6-0.075-0.15 0-0.225-0.075-0.375-0.075 0 0.825 0 1.575 0 1.725 0 0.675-0.525 1.275-1.425 1.575-0.225 0.075-0.45 0.15-0.675 0.225s-0.525 0.075-0.75 0.15-0.6 0.075-1.125 0.075c-0.45 0-0.525 0-0.9-0.075-0.3-0.075-0.525-0.075-0.825-0.075 0 0-0.075 0-0.075 0 0 0.9 0 1.725 0 1.875 0 0.975-0.75 1.725-1.95 2.175-0.3 0.15-0.6 0.225-0.975 0.3-0.3 0.075-0.675 0.15-1.050 0.225-0.75 0.15-0.825 0.15-1.575 0.15-0.6 0-0.675 0-1.2-0.075-0.375-0.075-0.75-0.075-1.125-0.15-0.9-0.225-1.65-0.45-2.25-0.825-0.375-0.225-0.675-0.525-0.825-0.75-0.225-0.3-0.3-0.6-0.3-0.975 0-0.525 0-4.725 0.075-5.175z"></path>
<path d="M7.538 0.654c1.975 0.466 3.198 2.446 2.732 4.421s-2.446 3.198-4.421 2.732c-1.975-0.466-3.198-2.446-2.732-4.421s2.446-3.198 4.421-2.732z"></path>
<path d="M13.875 7.5c-1.65 0-2.925-1.35-2.925-2.925 0-1.65 1.35-2.925 2.925-2.925s2.925 1.35 2.925 2.925c0 1.575-1.35 2.925-2.925 2.925z"></path>
<path d="M21.975 4.875c0 1.16-0.94 2.1-2.1 2.1s-2.1-0.94-2.1-2.1c0-1.16 0.94-2.1 2.1-2.1s2.1 0.94 2.1 2.1z"></path>
</svg>
