<!-- Generated by IcoMoon.io -->
<svg version="1.1" xmlns="http://www.w3.org/2000/svg" width="20" height="24" viewBox="0 0 20 24">
<title>users-check-mark</title>
<path d="M12.1 20.1c0 0 0 0 0 0 0 0.1-0.1 0.1-0.1 0.2-0.1 0.1-0.1 0.1-0.2 0.1 0 0 0 0-0.1 0-0.1 0.1-0.2 0.1-0.3 0.1 0 0-0.1 0-0.1 0-0.1 0-0.2 0-0.3 0s-0.1 0-0.2 0-0.1 0-0.2-0.1c-0.1 0-0.1 0-0.2-0.1 0 0-0.1-0.1-0.1-0.1s0 0 0 0l-3.8-3.5 1.6-1.7 2.7 2.5 3.4-5.2c-1.1-0.8-2.4-1.4-3.9-1.4-0.1 0-0.1 0-0.2 0-0.2 0-0.3 0-0.5 0-0.9 0.1-1.7 0.4-2.5 0.8-1.7 0.9-2.9 2.6-3.1 4.6 0 0.3-0.1 0.6-0.1 0.9 0 1.5 0.5 2.9 1.4 4 1.1 1.4 2.8 2.3 4.8 2.3 0.1 0 0.1 0 0.2 0 2.5 0 4.7-1.5 5.7-3.6 0.1-0.1 0.1-0.2 0.2-0.4 0.3-0.7 0.5-1.5 0.5-2.4 0-1.1-0.3-2.2-0.8-3.1l-3.8 6.1z"></path>
<path d="M4 8.3c0.1 0 0.1 0 0.2 0 1.3-0.1 2.4-1.2 2.4-2.5 0-1.4-1.1-2.5-2.5-2.5-1.3 0-2.4 1-2.5 2.4 0 0.1 0 0.1 0 0.2-0.1 1.3 1 2.4 2.4 2.4z"></path>
<path d="M10 5.3c0.1 0 0.2 0 0.3 0 1.2-0.2 2.2-1.2 2.2-2.5 0-0.7-0.3-1.3-0.7-1.7-0.5-0.5-1.1-0.8-1.9-0.8-1.4 0-2.5 1.1-2.5 2.5 0.1 1.4 1.2 2.5 2.6 2.5z"></path>
<path d="M14.4 7.7c0.4 0.3 1 0.5 1.5 0.5 1.4 0 2.5-1.1 2.5-2.5s-1.1-2.5-2.5-2.5c-0.1 0-0.1 0-0.2 0-1.3 0.1-2.3 1.2-2.3 2.5 0 0.6 0.2 1.1 0.5 1.5 0.2 0.2 0.4 0.4 0.5 0.5z"></path>
<path d="M19.8 14.2c-0.1-2.6-1.8-5.2-3.9-5.2-0.4 0-0.9 0.1-1.3 0.3-0.3 0.2-0.6 0.4-0.9 0.7 0 0 0 0 0 0 0-0.1-0.1-0.3-0.1-0.4-0.4-1.4-1.3-2.7-2.3-3.3-0.4-0.2-0.8-0.3-1.2-0.4 0 0-0.1 0-0.1 0-0.3 0-0.5 0-0.7 0.1-1.4 0.4-2.6 2.1-3 4-0.3-0.3-0.6-0.5-1-0.7-0.4-0.1-0.9-0.2-1.3-0.2-0.5 0-1 0.1-1.4 0.3-1.4 0.8-2.5 2.8-2.5 4.9 0 2.3 0.1 1.9 0.1 2.6 0 0.1 0.1 0.3 0.2 0.4 0.4 0.6 1.3 1.2 2.8 1.3 0-0.2-0.1-1-0.1-1.5 0-4 3.2-7.2 7.2-7.2s7.2 3.2 7.2 7.2c0 0.5-0.1 1.4-0.1 1.4s2.4-1.2 2.4-1.7c0 0 0 0 0-0.1 0.1-0.5 0.1-0.1 0-2.5z"></path>
</svg>
