<!-- Generated by IcoMoon.io -->
<svg version="1.1" xmlns="http://www.w3.org/2000/svg" width="19" height="24" viewBox="0 0 19 24">
<title>user-laptop</title>
<path d="M11.566 9.312h-0.766c-0.265 0-0.48-0.215-0.48-0.48s0.215-0.48 0.48-0.48v0h0.773c0.264 0.002 0.476 0.216 0.476 0.48 0 0.265-0.215 0.48-0.48 0.48-0.001 0-0.003 0-0.004-0h0z"></path>
<path d="M8.472 9.312h-0.773c-0.265 0-0.48-0.215-0.48-0.48s0.215-0.48 0.48-0.48v0h0.773c0.265 0 0.48 0.215 0.48 0.48s-0.215 0.48-0.48 0.48v0z"></path>
<path d="M6.96 10.663c-0.19-0.386-0.317-0.6-0.341-0.667-0.061-0.184-0.199-0.327-0.375-0.395l-0.004-0.001c-0.112-0.041-0.199-0.128-0.239-0.237l-0.001-0.003c-0.202-0.537-0.326-1.158-0.341-1.805l-0-0.007c0-0.072 0.017-0.288 0.029-0.348 0.547 0.050 1.973 0.18 3.154-0.569s1.783-1.942 2.006-2.378c1.399 0.385 2.487 1.442 2.91 2.793l0.008 0.030v0.022c0.054 0.134 0.097 0.292 0.123 0.455l0.002 0.013c-0.017 0.656-0.14 1.278-0.354 1.857l0.013-0.040c-0.042 0.112-0.128 0.198-0.237 0.239l-0.003 0.001c-0.184 0.059-0.327 0.197-0.392 0.373l-0.001 0.004c-0.024 0.067-0.151 0.281-0.341 0.667h4.166c-0.216-4.534-1.498-10.649-6.854-10.666s-6.636 6.13-6.852 10.663z"></path>
<path d="M18.204 11.63h-17.004c-0.026-0.002-0.056-0.003-0.087-0.003-0.622 0-1.126 0.504-1.126 1.126 0 0.059 0.005 0.117 0.013 0.173l-0.001-0.006 1.222 9.677c0.111 0.766 0.739 1.355 1.515 1.404l0.005 0h13.92c0.744 0 1.44-0.682 1.519-1.418l1.212-9.648c0.008-0.050 0.012-0.108 0.012-0.167 0-0.628-0.509-1.138-1.138-1.138-0.022 0-0.044 0.001-0.066 0.002l0.003-0zM9.701 19.123c-1.68-0.050-1.68-2.486 0-2.537 1.675 0.053 1.675 2.486 0 2.537z"></path>
</svg>
