<svg xmlns="http://www.w3.org/2000/svg" viewBox="0 0 1024 1024"><path d="M259.2 341.333c22.4 0 44.8-6.4 64-16 6.4-54.4 35.2-102.4 76.8-131.2-3.2-73.6-67.2-137.6-144-137.6s-144 67.2-144 144c6.4 76.8 70.4 140.8 147.2 140.8zm166.4 169.6c-44.8-25.6-80-67.2-96-115.2-22.4-6.4-48-12.8-70.4-12.8-204.8 0-249.6 115.2-249.6 345.6 0 67.2 96 105.6 201.6 115.2 9.6-153.6 48-297.6 214.4-332.8zm272-185.6c19.2 9.6 41.6 16 64 16 76.8 0 144-67.2 144-144s-67.2-144-144-144c-73.6 0-140.8 64-144 137.6 44.8 32 73.6 80 80 134.4zm-329.6-28.8c-3.2 6.4-3.2 12.8-6.4 19.2v6.4c0 9.6-3.2 16-3.2 25.6s0 16 3.2 25.6c0 3.2 0 6.4 3.2 9.6 0 3.2 3.2 6.4 3.2 9.6v3.2c3.2 6.4 6.4 16 9.6 22.4v3.2c25.6 48 76.8 76.8 134.4 76.8 86.4 0 153.6-70.4 153.6-153.6 0-86.4-70.4-153.6-153.6-153.6-64 0-121.6 41.6-144 105.6 0-3.2 0 0 0 0zm393.6 86.4c-25.6 0-48 3.2-70.4 12.8-16 51.2-51.2 92.8-96 118.4 131.2 32 204.8 140.8 214.4 329.6 108.8-9.6 204.8-48 204.8-115.2 0-230.4-54.4-345.6-252.8-345.6zm-214.4 156.8h-70.4c-156.8 12.8-220.8 115.2-230.4 304v57.6c0 41.6 32 73.6 83.2 92.8 12.8 6.4 25.6 9.6 41.6 12.8 12.8 3.2 28.8 6.4 44.8 9.6 32 6.4 64 6.4 96 6.4 25.6 0 51.2 0 73.6-3.2 16-3.2 32-3.2 48-6.4 38.4-9.6 70.4-19.2 96-35.2 16-9.6 28.8-22.4 35.2-32 9.6-12.8 12.8-25.6 12.8-41.6 0-19.2 0-38.4-3.2-57.6-9.6-192-83.2-294.4-227.2-307.2z"/></svg>