<svg xmlns="http://www.w3.org/2000/svg" viewBox="0 0 1024 1024"><path d="M246.4 334.933h-51.2c-118.4 9.6-169.6 83.2-179.2 224h409.6c-16-140.8-70.4-214.4-179.2-224zm588.8 483.2H784c-118.4 9.6-169.6 83.2-179.2 224h409.6c-12.8-137.6-70.4-214.4-179.2-224zm-307.2-128h-80l67.2 67.2H332.8c-54.4 0-86.4-22.4-86.4-67.2v-70.4H192v70.4c0 54.4 38.4 121.6 140.8 121.6h182.4l-67.2 64h80l92.8-92.8-92.8-92.8zm44.8-291.2l-67.2-67.2H688c76.8 0 86.4 44.8 86.4 67.2v70.4h54.4v-70.4c0-54.4-38.4-121.6-140.8-121.6H505.6l67.2-64h-80l-92.8 92.8 92.8 92.8h80zm108.8 265.6c0 70.4 57.6 128 128 128 67.2 0 121.6-54.4 128-118.4v-6.4-3.2-3.2-6.4c0-9.6-3.2-19.2-6.4-28.8 0-3.2 0-3.2-3.2-6.4-19.2-48-64-83.2-118.4-83.2-70.4 0-128 57.6-128 128zm-464-358.4c67.2 0 124.8-54.4 124.8-124.8 0-19.2-3.2-35.2-9.6-51.2 0-3.2-3.2-3.2-3.2-6.4l-3.2-3.2c-22.4-38.4-60.8-64-108.8-64-67.2 3.2-121.6 57.6-121.6 124.8s54.4 124.8 121.6 124.8z"/></svg>