<svg xmlns="http://www.w3.org/2000/svg" viewBox="0 0 853 1024"><path d="M516.267 878.933c0 4.267-4.267 4.267-4.267 8.533-4.267 4.267-4.267 4.267-8.533 4.267H499.2C494.933 896 490.667 896 486.4 896h-25.6c-4.266 0-4.267 0-8.533-4.267-4.267 0-4.267 0-8.533-4.267l-4.267-4.267-162.133-149.333 68.267-72.533L460.801 768l145.067-221.867C558.935 512 503.468 486.4 439.468 486.4h-29.866c-38.4 4.267-72.533 17.067-106.667 34.133-72.533 38.4-123.733 110.933-132.267 196.267 0 12.8-4.267 25.6-4.267 38.4 0 64 21.333 123.733 59.733 170.667C273.067 985.6 345.601 1024 430.934 1024h8.533c106.667 0 200.533-64 243.2-153.6 4.267-4.267 4.267-8.533 8.533-17.067 12.8-29.867 21.333-64 21.333-102.4 0-46.933-12.8-93.867-34.133-132.267L516.267 878.933zm-345.6-503.467h8.533c55.467-4.267 102.4-51.2 102.4-106.667 0-59.733-46.933-106.667-106.667-106.667-55.467 0-102.4 42.667-106.667 102.4v8.533c-4.267 55.467 42.667 102.4 102.4 102.4zm256-128h12.8c51.2-8.533 93.867-51.2 93.867-106.667 0-29.867-12.8-55.467-29.867-72.533-21.333-21.333-46.933-34.133-81.067-34.133-59.733 0-106.667 46.933-106.667 106.667 4.267 59.733 51.2 106.667 110.933 106.667zm187.733 102.4c17.067 12.8 42.667 21.333 64 21.333 59.733 0 106.667-46.933 106.667-106.667S738.134 157.865 678.4 157.865h-8.533c-55.467 4.267-98.133 51.2-98.133 106.667 0 25.6 8.533 46.933 21.333 64l21.333 21.333zM844.8 627.2c-4.267-110.933-76.8-221.867-166.4-221.867-17.067 0-38.4 4.267-55.467 12.8-12.8 8.533-25.6 17.067-38.4 29.867 0-4.267-4.267-12.8-4.267-17.067-17.067-59.733-55.467-115.2-98.133-140.8-17.067-8.533-34.133-12.8-51.2-17.067h-4.267c-12.8 0-21.333 0-29.867 4.267-59.733 17.067-110.933 89.6-128 170.667-12.8-12.8-25.6-21.333-42.667-29.867-17.067-4.267-38.4-8.533-55.467-8.533-21.333 0-42.667 4.267-59.733 12.8C51.199 456.533 4.265 541.867 4.265 631.467c0 98.133 4.267 81.067 4.267 110.933 0 4.267 4.267 12.8 8.533 17.067 17.067 25.6 55.467 51.2 119.467 55.467 0-8.533-4.267-42.667-4.267-64 0-170.667 136.533-307.2 307.2-307.2s307.2 136.533 307.2 307.2c0 21.333-4.267 59.733-4.267 59.733s102.4-51.2 102.4-72.533v-4.267c4.267-21.333 4.267-4.267 0-106.667z"/></svg>