<svg xmlns="http://www.w3.org/2000/svg" viewBox="0 0 1024 1024"><path d="M221.867 537.6c-162.133 93.867-12.8 341.333 149.333 243.2S384 443.733 221.867 537.6zM38.4 332.8c0-4.267 0-4.267 0 0zm337.067 482.133h-8.533c-8.533 4.267-21.333 8.533-34.133 12.8-162.133 38.4-277.333-157.867-170.667-281.6l25.6-25.6 4.267-8.533s-12.8-64-17.067-106.667C157.867 375.466 51.201 337.066 38.401 332.8c-25.6 59.733-38.4 123.733-38.4 196.267 0 264.533 200.533 482.133 460.8 516.267l4.267-4.267s17.067-123.733 0-157.867c-38.4-25.6-89.6-68.267-89.6-68.267zm349.866-298.667c-128 0-209.067 187.733-72.533 264.533 21.333 12.8 46.933 21.333 72.533 21.333 128 0 209.067-187.733 72.533-264.533-17.067-12.8-42.667-17.067-72.533-21.333zM985.6 328.533c0 4.267 0 4.267 0 0zm0 4.267h-4.267S861.866 375.467 844.8 409.6c-8.533 42.667-17.067 106.667-17.067 106.667L832 524.8c8.533 8.533 17.067 12.8 25.6 25.6 102.4 115.2 12.8 285.867-128 285.867-12.8 0-25.6 0-38.4-4.267s-25.6-8.533-34.133-12.8h-8.533s-51.2 42.667-85.333 68.267c-17.067 34.133-4.267 140.8 0 157.867 260.267-29.867 460.8-251.733 460.8-520.533 0-68.267-12.8-132.267-38.4-192zm-332.8-51.2c0-192-290.133-192-285.867 0s285.867 192 285.867 0zm-418.133 25.6c38.4-17.067 102.4-38.4 102.4-38.4l4.267-4.267c0-12.8 4.267-25.6 8.533-34.133 51.2-157.867 277.333-157.867 328.533 0 0 8.533 4.267 21.333 4.267 34.133l4.267 4.267s59.733 25.6 102.4 38.4c38.4 0 123.733-68.267 136.533-76.8C827.734 102.4 678.4 21.333 507.734 21.333c-166.4 0-315.733 76.8-409.6 200.533v4.267c0 4.267 98.133 81.067 136.533 81.067z"/></svg>