<svg xmlns="http://www.w3.org/2000/svg" viewBox="0 0 1024 1024"><path d="M857.6 338.133c-6.4 0-9.6-3.2-16-3.2s-9.6 0-16 3.2h-3.2c-3.2 0-9.6 3.2-12.8 3.2 0 0-3.2 0-3.2 3.2-3.2 0-6.4 3.2-9.6 6.4-3.2 0-3.2 3.2-6.4 3.2l-6.4 6.4-6.4 6.4c-6.4 6.4-12.8 16-16 22.4 0 3.2-3.2 3.2-3.2 6.4s-3.2 6.4-3.2 9.6v3.2c0 6.4-3.2 9.6-3.2 16v22.4c0 3.2 0 3.2 3.2 6.4 3.2 6.4 3.2 12.8 6.4 16 9.6 16 22.4 25.6 35.2 35.2 3.2 3.2 9.6 3.2 16 6.4 3.2 0 3.2 0 6.4 3.2H864c3.2 0 3.2 0 6.4-3.2 6.4-3.2 9.6-3.2 16-6.4 16-9.6 28.8-19.2 35.2-35.2 3.2-6.4 6.4-9.6 6.4-16 0-3.2 0-3.2 3.2-6.4v-6.4-16c0-6.4 0-9.6-3.2-16v-3.2c0-3.2-3.2-6.4-3.2-9.6s-3.2-6.4-3.2-6.4c-3.2-9.6-9.6-16-16-22.4l-6.4-6.4-6.4-6.4c-3.2-3.2-3.2-3.2-6.4-3.2-3.2-3.2-6.4-3.2-9.6-6.4 0 0-3.2 0-3.2-3.2-3.2-3.2-9.6-3.2-12.8-3.2h-3.2zm-16 201.6h-19.2c-89.6 6.4-128 64-134.4 169.6h310.4c-9.6-105.6-51.2-163.2-134.4-169.6h-22.4zm-736-92.8c0 3.2 0 3.2 3.2 6.4 3.2 6.4 3.2 12.8 6.4 16 9.6 16 22.4 25.6 35.2 35.2 3.2 3.2 9.6 3.2 16 6.4 3.2 0 3.2 0 6.4 3.2h44.8c3.2 0 3.2 0 6.4-3.2 6.4-3.2 9.6-3.2 16-6.4 16-9.6 28.8-19.2 35.2-35.2 3.2-6.4 6.4-9.6 6.4-16 0-3.2 0-3.2 3.2-6.4v-6.4-16c0-6.4 0-9.6-3.2-16v-3.2c0-3.2-3.2-6.4-3.2-9.6s-3.2-6.4-3.2-6.4c-3.2-9.6-9.6-16-16-22.4l-6.4-6.4-6.4-6.4c-3.2-3.2-3.2-3.2-6.4-3.2-3.2-3.2-6.4-3.2-9.6-6.4 0 0-3.2 0-3.2-3.2-3.2 0-9.6-3.2-12.8-3.2h-3.2c-6.4 0-9.6-3.2-16-3.2s-9.6 0-16 3.2H176c-6.4 0-9.6 3.2-16 3.2 0 0-3.2 0-3.2 3.2-3.2 0-6.4 3.2-9.6 6.4-3.2 0-3.2 3.2-6.4 3.2l-6.4 6.4-6.4 6.4c-6.4 6.4-12.8 16-16 22.4 0 3.2-3.2 3.2-3.2 6.4s-3.2 6.4-3.2 9.6v3.2c0 6.4-3.2 9.6-3.2 16v16c3.2 3.2 3.2 3.2 3.2 6.4zm108.8 92.8H176c-89.6 6.4-128 64-134.4 169.6H352c-12.8-105.6-54.4-160-137.6-169.6zm-6.4-243.2c76.8-102.4 201.6-160 329.6-153.6 105.6 6.4 204.8 54.4 275.2 134.4l-51.2-9.6 25.6 38.4 76.8 12.8 12.8-76.8-25.6-38.4-9.6 54.4c-76.8-89.6-185.6-144-300.8-147.2-140.8-6.4-275.2 54.4-358.4 163.2-6.4 9.6-6.4 19.2 3.2 25.6 6.4 3.2 16 3.2 22.4-3.2zm614.4 476.8c-76.8 99.2-198.4 153.6-323.2 147.2-102.4-3.2-201.6-51.2-268.8-128l51.2 6.4-28.8-38.4-76.8-12.8-12.8 76.8 28.8 41.6 9.6-54.4c76.8 86.4 182.4 137.6 297.6 144h19.2c128 0 252.8-60.8 332.8-160 6.4-6.4 3.2-16-3.2-22.4-9.6-9.6-19.2-6.4-25.6 0z"/></svg>