<svg xmlns="http://www.w3.org/2000/svg" viewBox="0 0 969 1024"><path d="M444.211 371.746c-84.435 0-152.883 68.448-152.883 152.883v.108-.006c7.987 202.854 297.779 202.752 305.766 0v-.102c0-84.435-68.448-152.883-152.883-152.883zm0 207.667c-72.397-2.15-72.397-107.213 0-109.466 72.397 1.946 72.397 107.315 0 109.466zm524.186 50.995c-17.408-57.344-62.464-75.469-100.864-135.27s-44.749-173.363-44.749-173.363C817.05 164.693 694.579 82.773 545.792 63.113v292.659c166.093 107.725 102.4 360.141-101.274 365.568-197.939 0-271.565-267.366-100.045-365.466V69.871C125.747 111.855-24.474 292.079 3.276 489.097 26.93 656.828 185.65 782.268 199.782 883.03c7.373 52.326-1.331 109.773-11.059 162.304h465.408c4.403-17.51 18.125-50.381 50.278-59.187 40.96-11.264 139.059 0 178.995-34.816 27.546-24.166 12.39-57.754 15.36-92.774 1.229-15.565 27.75-31.437 24.269-55.91s-35.84-32.768-35.84-32.768 52.634-8.294 49.971-42.701c-3.27-15.383-6.8-28.114-10.986-40.543l.746 2.553c-7.168-22.733 50.278-29.901 41.472-58.778zM445.235 328.533h.291c20.171 0 39.625 3.069 57.92 8.767l-1.378-.37V52.053c0-19.251-16.794-30.72-36.045-30.72h-43.827a29.683 29.683 0 0 0-3.175-.164c-16.966 0-30.72 13.754-30.72 30.72v.173-.009V336.52c16.389-5.076 35.23-8 54.754-8 .766 0 1.532.005 2.296.013l-.116-.001z"/></svg>