<svg xmlns="http://www.w3.org/2000/svg" viewBox="0 0 828 1024"><path d="M493.466 418.645H460.8c-11.311 0-20.48-9.169-20.48-20.48s9.169-20.48 20.48-20.48h32.973c11.245.087 20.327 9.223 20.327 20.48 0 11.311-9.169 20.481-20.481 20.481l-.162-.001h.008zm-131.994 0h-32.973c-11.311 0-20.48-9.169-20.48-20.48s9.169-20.48 20.48-20.48h32.973c11.311 0 20.48 9.169 20.48 20.48s-9.169 20.48-20.48 20.48zm-64.512 57.651c-8.09-16.486-13.517-25.6-14.541-28.467-2.605-7.842-8.494-13.966-15.995-16.834l-.185-.062c-4.774-1.767-8.473-5.466-10.202-10.122l-.038-.118c-8.624-22.919-13.9-49.402-14.536-77.033l-.005-.279c0-3.072.717-12.288 1.229-14.848 23.347 2.15 84.173 7.68 134.554-24.269s76.083-82.842 85.606-101.478c59.699 16.446 106.131 61.525 124.177 119.156l.342 1.267v.922c2.293 5.734 4.148 12.453 5.253 19.422l.071.546c-.709 27.994-5.98 54.539-15.092 79.223l.551-1.706c-1.78 4.766-5.474 8.46-10.121 10.201l-.119.039c-7.836 2.513-13.953 8.395-16.735 15.895l-.059.181c-1.024 2.867-6.451 11.981-14.541 28.467H714.34C705.124 282.965 650.442 22.05 421.886 21.333S138.75 282.863 129.534 476.296zm479.744 41.267H51.2a46.46 46.46 0 0 0-3.703-.143c-26.524 0-48.026 21.502-48.026 48.026 0 2.508.192 4.971.563 7.375L0 572.553 52.122 985.43c4.72 32.68 31.542 57.817 64.619 59.894l.201.01h593.92c31.744 0 61.44-29.082 64.819-60.518l51.712-411.648c.336-2.146.528-4.62.528-7.14 0-26.807-21.731-48.538-48.538-48.538-.942 0-1.878.027-2.807.08l.129-.006zM413.901 837.256c-71.68-2.15-71.68-106.086 0-108.237 71.475 2.253 71.475 106.086 0 108.237z"/></svg>