<svg xmlns="http://www.w3.org/2000/svg" viewBox="0 0 1024 1024"><path d="M48 696.533c9.6-192 51.2-307.2 240-307.2 83.2 0 134.4 19.2 169.6 51.2 25.6-44.8 67.2-70.4 144-70.4 64 0 102.4 12.8 124.8 41.6 16-48 48-73.6 115.2-73.6 115.2 0 124.8 64 128 166.4v118.4c0 22.4-16 41.6-44.8 51.2-6.4 3.2-12.8 6.4-22.4 6.4-6.4 3.2-16 3.2-25.6 6.4-16 3.2-19.2 3.2-35.2 3.2-12.8 0-16 0-28.8-3.2-9.6-3.2-16-3.2-25.6-3.2-6.4 0-9.6-3.2-16-3.2v73.6c0 28.8-22.4 54.4-60.8 67.2l-28.8 9.6c-9.6 3.2-22.4 3.2-32 6.4s-25.6 3.2-48 3.2c-19.2 0-22.4 0-38.4-3.2-12.8-3.2-22.4-3.2-35.2-3.2h-3.2v80c0 41.6-32 73.6-83.2 92.8-12.8 6.4-25.6 9.6-41.6 12.8-12.8 3.2-28.8 6.4-44.8 9.6-32 6.4-35.2 6.4-67.2 6.4-25.6 0-28.8 0-51.2-3.2-16-3.2-32-3.2-48-6.4-38.4-9.6-70.4-19.2-96-35.2-16-9.6-28.8-22.4-35.2-32-9.6-12.8-12.8-25.6-12.8-41.6 0-22.4 0-201.6 3.2-220.8zM321.625 49.221c84.277 19.9 136.465 104.353 116.565 188.63S333.837 374.316 249.56 354.416c-84.277-19.9-136.465-104.353-116.565-188.63S237.348 29.321 321.625 49.221zM592 341.333c-70.4 0-124.8-57.6-124.8-124.8 0-70.4 57.6-124.8 124.8-124.8s124.8 57.6 124.8 124.8c0 67.2-57.6 124.8-124.8 124.8zm345.6-112c0 49.485-40.115 89.6-89.6 89.6s-89.6-40.115-89.6-89.6c0-49.485 40.115-89.6 89.6-89.6s89.6 40.115 89.6 89.6z"/></svg>