<svg xmlns="http://www.w3.org/2000/svg" viewBox="0 0 1024 1024"><path d="M276.48 456.328c.29-57.522 46.987-104.04 104.549-104.04l.541.001h-.028c139.264 5.53 139.264 202.65 0 208.077l-.615.002c-57.542 0-104.215-46.531-104.447-104.018v-.022zm685.261-316.109H837.427c21.991 18.449 39.771 41.142 52.213 66.896l.523 1.2h65.024v492.237H68.813V208.315h410.931c12.965-26.954 30.745-49.647 52.426-67.843l.31-.253H75.264C37.478 140.219 0 168.174 0 205.653v552.96c0 37.478 37.478 70.861 75.264 70.861H419.84v75.571h-46.49c-10.462 0-18.944 8.482-18.944 18.944s8.482 18.944 18.944 18.944h290.304c10.462 0 18.944-8.482 18.944-18.944s-8.482-18.944-18.944-18.944H604.16v-75.674h358.4c37.786 0 62.259-33.382 62.259-70.861V205.652c-.819-37.478-25.293-65.434-63.078-65.434zM518.554 781.755c-12.212-.835-21.802-10.945-21.802-23.296s9.59-22.461 21.73-23.292l.072-.004c12.212.835 21.802 10.945 21.802 23.296s-9.59 22.461-21.73 23.292l-.072.004zm166.4-658.022c-101.581 0-184.32 71.68-184.32 160.358 0 35.84 30.72 87.757 36.25 95.539 4.837 6.904 7.73 15.478 7.73 24.728 0 1.28-.055 2.547-.164 3.799l.011-.163c-1.726 12.399-5.582 23.592-11.205 33.663l.249-.485s55.808-17.101 66.048-15.155 54.579 18.432 85.402 18.432c101.581 0 184.32-71.68 184.32-160.461s-82.739-160.256-184.32-160.256zM550.195 662.767v-22.733c.025-.672.039-1.461.039-2.254 0-36.29-29.314-65.734-65.554-65.944H270.661c-38.363 0-69.687 30.137-71.589 68.028l-.007.17v22.733z"/></svg>