<!-- Generated by IcoMoon.io -->
<svg version="1.1" xmlns="http://www.w3.org/2000/svg" width="24" height="24" viewBox="0 0 24 24">
<title>users-huddle</title>
<path d="M5.2 12.1c-3.8 2.2-0.3 8 3.5 5.7s0.3-7.9-3.5-5.7z"></path>
<path d="M0.9 7.3v0 0c0-0.1 0-0.1 0 0v0z"></path>
<path d="M8.8 18.6h-0.2c-0.2 0.1-0.5 0.2-0.8 0.3-3.8 0.9-6.5-3.7-4-6.6v0c0.2-0.2 0.4-0.4 0.6-0.6l0.1-0.2c0 0-0.3-1.5-0.4-2.5-0.4-0.7-2.9-1.6-3.2-1.7-0.6 1.4-0.9 2.9-0.9 4.6 0 6.2 4.7 11.3 10.8 12.1l0.1-0.1c0 0 0.4-2.9 0-3.7-0.9-0.6-2.1-1.6-2.1-1.6z"></path>
<path d="M17 11.6v0c-3 0-4.9 4.4-1.7 6.2 0.5 0.3 1.1 0.5 1.7 0.5v0c3 0 4.9-4.4 1.7-6.2-0.4-0.3-1-0.4-1.7-0.5v0 0c0 0 0 0 0 0v0z"></path>
<path d="M23.1 7.2c0 0.1 0 0.1 0 0v0 0z"></path>
<path d="M23.1 7.3h-0.1c0 0-2.8 1-3.2 1.8-0.2 1-0.4 2.5-0.4 2.5l0.1 0.2c0.2 0.2 0.4 0.3 0.6 0.6v0c2.4 2.7 0.3 6.7-3 6.7-0.3 0-0.6 0-0.9-0.1s-0.6-0.2-0.8-0.3v0h-0.2c0 0-1.2 1-2 1.6-0.4 0.8-0.1 3.3 0 3.7 6.1-0.7 10.8-5.9 10.8-12.2 0-1.6-0.3-3.1-0.9-4.5z"></path>
<path d="M15.3 6.1c0-4.5-6.8-4.5-6.7 0s6.7 4.5 6.7 0z"></path>
<path d="M5.5 6.7c0.9-0.4 2.4-0.9 2.4-0.9l0.1-0.1c0-0.3 0.1-0.6 0.2-0.8 1.2-3.7 6.5-3.7 7.7 0 0 0.2 0.1 0.5 0.1 0.8l0.1 0.1c0 0 1.4 0.6 2.4 0.9 0.9 0 2.9-1.6 3.2-1.8v0 0c-2.3-3-5.8-4.9-9.8-4.9-3.9 0-7.4 1.8-9.6 4.7v0.1c0 0.1 2.3 1.9 3.2 1.9z"></path>
</svg>
