<!-- Generated by IcoMoon.io -->
<svg version="1.1" xmlns="http://www.w3.org/2000/svg" width="24" height="24" viewBox="0 0 24 24">
<title>user-desk</title>
<path d="M6.684 5.774c1.232-0.194 2.164-1.248 2.164-2.52 0-0.132-0.010-0.262-0.030-0.389l0.002 0.014c-0.641-3.322-5.414-2.594-5.040 0.766 0.194 1.23 1.246 2.159 2.515 2.159 0.137 0 0.272-0.011 0.404-0.032l-0.015 0.002z"></path>
<path d="M9.77 21.78v-0.48c-0.001-0.207-0.145-0.38-0.338-0.424l-0.003-0.001-3.305-0.751v-0.864h2.117c0.002 0 0.003 0 0.005 0 0.487 0 0.897-0.327 1.025-0.773l0.002-0.008c0.226-0.641 0.096-1.649-0.449-2.086-0.218-0.175-0.686-0.35-2.501-0.35-0.756 0-1.536 0.034-2.033 0.060 0.047-0.393 0.073-0.849 0.073-1.31 0-0.826-0.085-1.631-0.247-2.409l0.013 0.076c-0.28-1.053-0.625-1.963-1.050-2.827l0.039 0.089c-0.259-0.571-0.504-1.111-0.518-1.385-0-0.023-0-0.050-0-0.076 0-0.692 0.080-1.365 0.23-2.011l-0.012 0.060c0.149-0.799 0.259-1.378 0.019-1.788-0.454-0.838-2.045-0.768-2.575-0.019-0.55 0.694-0.185 3.343 0.72 8.846 0.547 3.31 0.979 5.911 2.422 5.911h1.853v0.864l-3.307 0.742c-0.195 0.046-0.338 0.219-0.338 0.425v0.48c-0.201 0.14-0.331 0.37-0.331 0.63 0 0.423 0.343 0.766 0.766 0.766s0.766-0.343 0.766-0.766c0-0.26-0.13-0.49-0.329-0.629l-0.003-0.002v-0.144l2.777-0.624v0.768c-0.202 0.14-0.332 0.37-0.332 0.631 0 0.423 0.343 0.766 0.766 0.766s0.766-0.343 0.766-0.766c0-0.261-0.131-0.491-0.33-0.63l-0.003-0.002v-0.768l2.777 0.624v0.144c-0.201 0.14-0.331 0.37-0.331 0.63 0 0.423 0.343 0.766 0.766 0.766s0.766-0.343 0.766-0.766c0-0.26-0.13-0.49-0.329-0.629l-0.003-0.002z"></path>
<path d="M23.566 12.492h-4.661l-2.201-6 0.636-4.812c0.001-0.012 0.002-0.026 0.002-0.040 0-0.24-0.194-0.434-0.434-0.434-0.216 0-0.395 0.158-0.429 0.364l-0 0.003-1.236 9.36c-0.001 0.012-0.002 0.026-0.002 0.040 0 0.24 0.194 0.434 0.434 0.434 0.216 0 0.395-0.158 0.429-0.364l0-0.003 0.355-2.698 1.522 4.145h-3.274c0.005-0.025 0.008-0.054 0.008-0.084 0-0.24-0.193-0.435-0.433-0.437h-1.735c-0.241 0.001-0.435 0.196-0.435 0.437 0 0.030 0.003 0.059 0.009 0.087l-0-0.003h-1.56c-0.247 0.007-0.444 0.208-0.444 0.456 0 0.006 0 0.012 0 0.018l-0-0.001v1.032c0.002 0.226 0.186 0.409 0.413 0.409 0.011 0 0.022-0 0.033-0.001l-0.001 0h1.301v8.443c0.002 0.226 0.186 0.409 0.413 0.409 0.008 0 0.015-0 0.023-0.001l-0.001 0h9.545c0.006 0 0.014 0.001 0.022 0.001 0.227 0 0.41-0.182 0.413-0.408v-8.443h1.301c0.004 0 0.008 0 0.012 0 0.226 0 0.41-0.182 0.413-0.408v-1.032c0-0.004 0-0.008 0-0.012 0-0.244-0.192-0.444-0.434-0.455l-0.001-0z"></path>
<path d="M10.985 15.269h-0.425c-0.009 0-0.019 0-0.029 0-0.703 0-1.272-0.569-1.272-1.272 0-0.002 0-0.004 0-0.005v0-0.072l-0.931-0.259-0.122-1.709 0.254 0.408c0.147 0.241 0.382 0.416 0.66 0.479l0.007 0.001 2.971 0.629c0.060 0.012 0.128 0.019 0.198 0.019 0.575 0 1.042-0.466 1.042-1.042 0-0.492-0.342-0.905-0.801-1.014l-0.007-0.001-2.537-0.55-2.285-3.696c-1.078-2.026-3.725-1.303-3.6 0.938l0.451 6.254c0.012 0.937 0.6 1.734 1.425 2.054l0.015 0.005 4.054 1.128 0.696 4.207c0.040 0.23 0.124 0.436 0.244 0.616l-0.004-0.006z"></path>
</svg>
