<svg xmlns="http://www.w3.org/2000/svg" viewBox="0 0 1024 1024"><path d="M285.184 267.707c52.578-8.26 92.319-53.239 92.319-107.5 0-5.644-.43-11.187-1.259-16.599l.076.605C348.979 2.491 145.306 33.519 161.28 176.879c8.26 52.461 53.146 92.107 107.292 92.107 5.864 0 11.619-.465 17.23-1.36l-.619.081zM416.87 950.613v-20.48c-.028-8.818-6.174-16.192-14.415-18.1l-.126-.025-141.005-32.051v-36.864h90.317l.23.001c20.773 0 38.292-13.931 43.724-32.96l.078-.321c9.626-27.341 4.096-70.349-19.149-88.986-9.318-7.475-29.286-14.95-106.701-14.95-32.256 0-65.536 1.434-86.733 2.56 1.994-16.778 3.131-36.211 3.131-55.91 0-35.23-3.638-69.61-10.559-102.785l.567 3.252c-11.927-44.923-26.651-83.765-44.793-120.621l1.683 3.783c-11.059-24.371-21.504-47.411-22.118-59.085-.009-.97-.014-2.115-.014-3.263 0-29.52 3.401-58.246 9.832-85.808l-.5 2.542c6.349-34.099 11.059-58.778.819-76.288-19.354-35.738-87.245-32.768-109.875-.819-23.45 29.594-7.885 142.643 30.72 377.446 23.347 141.21 41.779 252.211 103.322 252.211h79.053v36.864L83.251 911.598c-8.323 1.973-14.422 9.334-14.438 18.123v20.482c-8.584 5.971-14.131 15.787-14.131 26.898 0 18.041 14.625 32.666 32.666 32.666s32.666-14.625 32.666-32.666c0-11.111-5.548-20.927-14.024-26.828l-.107-.07v-6.144l118.477-26.624v32.768c-8.613 5.968-14.182 15.8-14.182 26.933 0 18.041 14.625 32.666 32.666 32.666s32.666-14.625 32.666-32.666c0-11.133-5.57-20.965-14.074-26.863l-.108-.071v-32.768l118.477 26.624v6.144c-8.584 5.971-14.131 15.787-14.131 26.898 0 18.041 14.625 32.666 32.666 32.666s32.666-14.625 32.666-32.666c0-11.111-5.548-20.927-14.024-26.828l-.107-.07zm588.596-396.288H806.605l-93.901-256L739.84 93.013c.05-.512.079-1.106.079-1.707 0-10.236-8.298-18.534-18.534-18.534-9.212 0-16.855 6.721-18.292 15.527l-.014.107-52.736 399.36c-.05.512-.079 1.106-.079 1.707 0 10.236 8.298 18.534 18.534 18.534 9.212 0 16.855-6.721 18.292-15.527l.014-.107 15.155-115.098 64.922 176.845H627.507a18.16 18.16 0 0 0 .348-3.585c0-10.235-8.251-18.543-18.464-18.636h-74.044c-10.266.035-18.575 8.366-18.575 18.637 0 1.268.127 2.507.368 3.703l-.02-.119h-66.56c-10.529.278-18.957 8.88-18.957 19.45 0 .254.005.508.015.759l-.001-.036v44.032c.087 9.661 7.939 17.458 17.612 17.458.469 0 .933-.018 1.393-.054l-.061.004h55.501v360.243c.102 9.649 7.948 17.432 17.612 17.432.325 0 .647-.009.967-.026l-.045.002h407.245c.276.015.598.024.923.024 9.664 0 17.51-7.783 17.612-17.423V635.732h55.501c.153.005.333.007.513.007 9.658 0 17.5-7.773 17.612-17.405v-44.043c.005-.159.007-.346.007-.533 0-10.424-8.197-18.933-18.497-19.433l-.045-.002zM468.685 672.802H450.56c-.366.009-.797.014-1.229.014-29.974 0-54.272-24.298-54.272-54.272v-.231.012-3.072l-39.731-11.059-5.222-72.909 10.854 17.408c6.251 10.288 16.308 17.734 28.17 20.423l.297.057 126.771 26.829c2.546.518 5.472.814 8.468.814 24.544 0 44.442-19.897 44.442-44.442 0-21.011-14.581-38.617-34.176-43.25l-.302-.06-108.237-23.45-97.485-157.696c-45.978-86.426-158.925-55.603-153.6 40.038l19.251 266.854c.511 39.98 25.579 73.976 60.79 87.637l.65.222 172.954 48.128 29.696 179.507c1.718 9.833 5.305 18.591 10.398 26.262l-.158-.253z"/></svg>