<!-- Generated by IcoMoon.io -->
<svg version="1.1" xmlns="http://www.w3.org/2000/svg" width="24" height="24" viewBox="0 0 24 24">
<title>user-id</title>
<path d="M21.8 3.6h-7v1.4c0.772 0 1.4 0.628 1.4 1.4s-0.628 1.4-1.4 1.4h-5.6c-0.772 0-1.4-0.628-1.4-1.4s0.628-1.4 1.4-1.4v-1.4h-7c-0.772 0-1.4 0.628-1.4 1.4v15.4c0 0.772 0.628 1.4 1.4 1.4h19.6c0.772 0 1.4-0.628 1.4-1.4v-15.4c0-0.772-0.628-1.4-1.4-1.4zM11.3 10.6h8.516c0.387 0 0.7 0.313 0.7 0.7s-0.313 0.7-0.7 0.7h-8.516c-0.387 0-0.7-0.313-0.7-0.7s0.313-0.7 0.7-0.7zM11.3 13.4h8.516c0.387 0 0.7 0.313 0.7 0.7s-0.313 0.7-0.7 0.7h-8.516c-0.387 0-0.7-0.313-0.7-0.7s0.313-0.7 0.7-0.7zM11.3 16.2h8.516c0.387 0 0.7 0.313 0.7 0.7s-0.313 0.7-0.7 0.7h-8.516c-0.387 0-0.7-0.313-0.7-0.7s0.313-0.7 0.7-0.7zM9.2 16.968c0 2.050-5.534 2.050-5.534 0s1.238-3.71 2.767-3.71c1.529 0 2.767 1.66 2.767 3.71zM8.089 10.891c0 0.934-0.757 1.691-1.691 1.691s-1.691-0.757-1.691-1.691c0.002-0.934 0.757-1.691 1.691-1.691s1.691 0.757 1.691 1.691zM10.6 0.8h2.8v5.6h-2.8v-5.6z"></path>
</svg>
