<!-- Generated by IcoMoon.io -->
<svg version="1.1" xmlns="http://www.w3.org/2000/svg" width="24" height="24" viewBox="0 0 24 24">
<title>user-desktop-instructor</title>
<path d="M6.48 10.195c0.007-1.348 1.101-2.438 2.45-2.438 0.004 0 0.008 0 0.013 0h-0.001c3.264 0.13 3.264 4.75 0 4.877-0.004 0-0.009 0-0.014 0-1.349 0-2.443-1.091-2.448-2.438v-0.001z"></path>
<path d="M22.541 2.786h-2.914c0.515 0.432 0.932 0.964 1.224 1.568l0.012 0.028h1.524v11.537h-20.774v-11.537h9.631c0.304-0.632 0.721-1.164 1.229-1.59l0.007-0.006h-10.716c-0.886 0-1.764 0.655-1.764 1.534v12.96c0 0.878 0.878 1.661 1.764 1.661h8.076v1.771h-1.090c-0.245 0-0.444 0.199-0.444 0.444s0.199 0.444 0.444 0.444v0h6.804c0.245 0 0.444-0.199 0.444-0.444s-0.199-0.444-0.444-0.444v0h-1.394v-1.774h8.4c0.886 0 1.459-0.782 1.459-1.661v-12.958c-0.019-0.878-0.593-1.534-1.478-1.534zM12.154 17.822c-0.286-0.020-0.511-0.257-0.511-0.546s0.225-0.526 0.509-0.546l0.002-0c0.286 0.020 0.511 0.257 0.511 0.546s-0.225 0.526-0.509 0.546l-0.002 0z"></path>
<path d="M16.054 2.4c-2.381 0-4.32 1.68-4.32 3.758 0 0.84 0.72 2.057 0.85 2.239 0.113 0.162 0.181 0.363 0.181 0.58 0 0.030-0.001 0.060-0.004 0.089l0-0.004c-0.040 0.291-0.131 0.553-0.263 0.789l0.006-0.011s1.308-0.401 1.548-0.355 1.279 0.432 2.002 0.432c2.381 0 4.32-1.68 4.32-3.761s-1.939-3.756-4.32-3.756z"></path>
<path d="M12.895 15.034v-0.533c0.001-0.016 0.001-0.034 0.001-0.053 0-0.851-0.687-1.541-1.536-1.546h-5.014c-0.001 0-0.001 0-0.002 0-0.899 0-1.633 0.706-1.678 1.594l-0 0.004v0.533z"></path>
</svg>
