<!-- Generated by IcoMoon.io -->
<svg version="1.1" xmlns="http://www.w3.org/2000/svg" width="24" height="24" viewBox="0 0 24 24">
<title>users-dialog</title>
<path d="M5.775 7.35c-0.225 0-0.375 0-0.6 0s-0.45 0-0.6 0c-2.775 0.225-3.975 1.95-4.2 5.25h9.6c-0.375-3.3-1.65-5.025-4.2-5.25z"></path>
<path d="M19.575 18.675c-0.225 0-0.375 0-0.6 0s-0.45 0-0.6 0c-2.775 0.225-3.975 1.95-4.2 5.25h9.6c-0.3-3.225-1.65-5.025-4.2-5.25z"></path>
<path d="M12.375 15.675h-1.875l1.575 1.575h-4.275c-1.275 0-2.025-0.525-2.025-1.575v-1.65h-1.275v1.65c0 1.275 0.9 2.85 3.3 2.85h4.275l-1.575 1.5h1.875l2.175-2.175-2.175-2.175z"></path>
<path d="M13.425 8.85l-1.575-1.575h4.275c1.8 0 2.025 1.050 2.025 1.575v1.65h1.275v-1.65c0-1.275-0.9-2.85-3.3-2.85h-4.275l1.575-1.5h-1.875l-2.175 2.175 2.175 2.175h1.875z"></path>
<path d="M15.975 15.075c0 1.65 1.35 3 3 3 1.575 0 2.85-1.275 3-2.775 0-0.075 0-0.075 0-0.15 0 0 0 0 0-0.075 0 0 0 0 0 0s0 0 0-0.075 0-0.075 0-0.15c0-0.225-0.075-0.45-0.15-0.675 0 0 0 0 0 0 0-0.075 0-0.075-0.075-0.15-0.45-1.125-1.5-1.95-2.775-1.95-1.65 0-3 1.35-3 3z"></path>
<path d="M5.1 6.675c1.575 0 2.925-1.275 2.925-2.925 0-0.45-0.075-0.825-0.225-1.2 0-0.075-0.075-0.075-0.075-0.15 0 0 0 0-0.075-0.075-0.525-0.9-1.425-1.5-2.55-1.5-1.575 0.075-2.85 1.35-2.85 2.925s1.275 2.925 2.85 2.925z"></path>
</svg>
