<!-- Generated by IcoMoon.io -->
<svg version="1.1" xmlns="http://www.w3.org/2000/svg" width="23" height="24" viewBox="0 0 23 24">
<title>user-headphone</title>
<path d="M10.411 8.213c-1.979 0-3.583 1.604-3.583 3.583 0 0.001 0 0.002 0 0.003v-0c0.187 4.754 6.979 4.752 7.166 0 0-0.001 0-0.002 0-0.002 0-1.979-1.604-3.583-3.583-3.583v0zM10.411 13.080c-1.697-0.050-1.697-2.513 0-2.566 1.697 0.046 1.697 2.515 0 2.566z"></path>
<path d="M22.697 14.275c-0.408-1.344-1.464-1.769-2.364-3.17s-1.049-4.063-1.049-4.063c-0.134-3.682-3.005-5.602-6.492-6.062v6.859c3.893 2.525 2.4 8.441-2.374 8.568-4.639 0-6.365-6.266-2.345-8.566v-6.703c-5.126 0.984-8.647 5.208-7.997 9.826 0.554 3.931 4.274 6.871 4.606 9.233 0.173 1.226-0.031 2.573-0.259 3.804h10.908c0.103-0.41 0.425-1.181 1.178-1.387 0.96-0.264 3.259 0 4.195-0.816 0.646-0.566 0.29-1.354 0.36-2.174 0.029-0.365 0.65-0.737 0.569-1.31s-0.84-0.768-0.84-0.768 1.234-0.194 1.171-1.001c-0.077-0.361-0.159-0.659-0.257-0.95l0.017 0.060c-0.168-0.533 1.178-0.701 0.972-1.378z"></path>
<path d="M10.435 7.2c0.002 0 0.004 0 0.007 0 0.473 0 0.929 0.072 1.358 0.205l-0.032-0.009v-6.677c0-0.451-0.394-0.72-0.845-0.72h-1.027c-0.022-0.002-0.048-0.004-0.074-0.004-0.398 0-0.72 0.322-0.72 0.72 0 0.001 0 0.003 0 0.004v-0 6.667c0.384-0.119 0.826-0.188 1.283-0.188 0.018 0 0.036 0 0.054 0l-0.003-0z"></path>
</svg>
