<!-- Generated by IcoMoon.io -->
<svg version="1.1" xmlns="http://www.w3.org/2000/svg" width="24" height="24" viewBox="0 0 24 24">
<title>users-interaction</title>
<path d="M20.1 7.425c-0.15 0-0.225-0.075-0.375-0.075s-0.225 0-0.375 0.075c0 0-0.075 0-0.075 0-0.075 0-0.225 0.075-0.3 0.075 0 0-0.075 0-0.075 0.075-0.075 0-0.15 0.075-0.225 0.15-0.075 0-0.075 0.075-0.15 0.075-0.075 0.075-0.075 0.075-0.15 0.15s-0.075 0.075-0.15 0.15c-0.15 0.15-0.3 0.375-0.375 0.525 0 0.075-0.075 0.075-0.075 0.15s-0.075 0.15-0.075 0.225c0 0 0 0.075 0 0.075 0 0.15-0.075 0.225-0.075 0.375s0 0.225 0 0.375c0 0.075 0 0.075 0 0.15s0 0.075 0.075 0.15c0.075 0.15 0.075 0.3 0.15 0.375 0.225 0.375 0.525 0.6 0.825 0.825 0.075 0.075 0.225 0.075 0.375 0.15 0.075 0 0.075 0 0.15 0.075 0.075 0 0.075 0 0.15 0 0.15 0 0.225 0 0.375 0s0.225 0 0.375 0c0.075 0 0.075 0 0.15 0s0.075 0 0.15-0.075c0.15-0.075 0.225-0.075 0.375-0.15 0.375-0.225 0.675-0.45 0.825-0.825 0.075-0.15 0.15-0.225 0.15-0.375 0-0.075 0-0.075 0.075-0.15 0-0.075 0-0.075 0-0.15 0-0.15 0-0.225 0-0.375s0-0.225-0.075-0.375c0 0 0-0.075 0-0.075 0-0.075-0.075-0.15-0.075-0.225s-0.075-0.15-0.075-0.15c-0.075-0.225-0.225-0.375-0.375-0.525-0.075-0.075-0.075-0.075-0.15-0.15s-0.075-0.075-0.15-0.15-0.075-0.075-0.15-0.075c-0.075-0.075-0.15-0.075-0.225-0.15 0 0-0.075 0-0.075-0.075-0.075-0.075-0.225-0.075-0.3-0.075 0 0 0 0-0.075 0z"></path>
<path d="M19.725 12.15c-0.15 0-0.3 0-0.45 0-2.1 0.15-3 1.5-3.15 3.975h7.275c-0.225-2.475-1.2-3.825-3.15-3.975-0.15 0-0.3 0-0.525 0z"></path>
<path d="M2.475 9.975c0 0.075 0 0.075 0.075 0.15 0.075 0.15 0.075 0.3 0.15 0.375 0.225 0.375 0.525 0.6 0.825 0.825 0.075 0.075 0.225 0.075 0.375 0.15 0.075 0 0.075 0 0.15 0.075 0.075 0 0.075 0 0.15 0 0.15 0 0.225 0 0.375 0s0.225 0 0.375 0c0.075 0 0.075 0 0.15 0s0.075 0 0.15-0.075c0.15-0.075 0.225-0.075 0.375-0.15 0.375-0.225 0.675-0.45 0.825-0.825 0.075-0.15 0.15-0.225 0.15-0.375 0-0.075 0-0.075 0.075-0.15 0-0.075 0-0.075 0-0.15 0-0.15 0-0.225 0-0.375s0-0.225-0.075-0.375c0 0 0-0.075 0-0.075 0-0.075-0.075-0.15-0.075-0.225s-0.075-0.15-0.075-0.15c-0.075-0.225-0.225-0.375-0.375-0.525-0.075-0.075-0.075-0.075-0.15-0.15s-0.075-0.075-0.15-0.15-0.075-0.075-0.15-0.075c-0.075-0.075-0.15-0.075-0.225-0.15 0 0-0.075 0-0.075-0.075-0.075 0-0.225-0.075-0.3-0.075 0 0-0.075 0-0.075 0-0.15 0-0.225-0.075-0.375-0.075s-0.225 0-0.375 0.075c0 0-0.075 0-0.075 0-0.15 0-0.225 0.075-0.375 0.075 0 0-0.075 0-0.075 0.075-0.075 0-0.15 0.075-0.225 0.15-0.075 0-0.075 0.075-0.15 0.075-0.075 0.075-0.075 0.075-0.15 0.15s-0.075 0.075-0.15 0.15c-0.15 0.15-0.3 0.375-0.375 0.525v0c0 0 0 0 0 0 0 0.075-0.075 0.075-0.075 0.15s-0.075 0.15-0.075 0.225c0 0 0 0.075 0 0.075 0 0.15-0.075 0.225-0.075 0.375s0 0.225 0 0.375c0.075 0.075 0.075 0.075 0.075 0.15z"></path>
<path d="M5.025 12.15c-0.15 0-0.3 0-0.45 0s-0.3 0-0.45 0c-2.1 0.15-3 1.5-3.15 3.975h7.275c-0.3-2.475-1.275-3.75-3.225-3.975z"></path>
<path d="M4.875 6.45c1.8-2.4 4.725-3.75 7.725-3.6 2.475 0.15 4.8 1.275 6.45 3.15l-1.2-0.225 0.6 0.9 1.8 0.3 0.3-1.8-0.6-0.9-0.225 1.275c-1.8-2.1-4.35-3.375-7.050-3.45-3.3-0.15-6.45 1.275-8.4 3.825-0.15 0.225-0.15 0.45 0.075 0.6 0.15 0.075 0.375 0.075 0.525-0.075z"></path>
<path d="M19.275 17.625c-1.8 2.325-4.65 3.6-7.575 3.45-2.4-0.075-4.725-1.2-6.3-3l1.2 0.15-0.675-0.9-1.8-0.3-0.3 1.8 0.675 0.975 0.225-1.275c1.8 2.025 4.275 3.225 6.975 3.375 0.15 0 0.3 0 0.45 0 3 0 5.925-1.425 7.8-3.75 0.15-0.15 0.075-0.375-0.075-0.525-0.225-0.225-0.45-0.15-0.6 0z"></path>
</svg>
