<svg xmlns="http://www.w3.org/2000/svg" viewBox="0 0 1024 1024"><path d="M1024 486.4c0-4.267-4.267-12.8-8.533-12.8L832 320c-8.533-8.533-17.067-8.533-29.867-4.267-17.067 4.267-25.6 21.333-21.333 38.4 0 4.267 4.267 12.8 8.533 12.8l55.467 46.933-46.933 51.2 72.533 59.733 46.933-55.467 55.467 46.933c8.533 8.533 21.333 8.533 29.867 4.267 17.067 0 25.6-17.067 21.333-34.133zm-140.8 98.133L746.667 465.066c-8.533-8.533-21.333-12.8-29.867-4.267-4.267 0-8.533 4.267-12.8 8.533l-213.333 243.2c-8.533 8.533-8.533 17.067-4.267 29.867 0 4.267 4.267 12.8 8.533 12.8l21.333 17.067-17.067 25.6c-8.533 8.533-8.533 17.067-4.267 29.867 0 4.267 4.267 12.8 8.533 12.8l-110.933 128c-8.533 8.533-8.533 21.333-4.267 34.133 4.267 17.067 21.333 25.6 38.4 21.333 4.267 0 12.8-4.267 12.8-8.533l110.933-128c8.533 8.533 17.067 8.533 29.867 4.267 4.267 0 12.8-4.267 12.8-8.533 0 0 4.267-8.533 12.8-17.067l25.6 21.333c8.533 8.533 17.067 8.533 29.867 4.267 4.267 0 12.8-4.267 12.8-8.533 0 0 17.067-21.333 21.333-25.6l-59.733-51.2c0-4.267-4.267-8.533-4.267-12.8-4.267-12.8 4.267-25.6 17.067-29.867 8.533-4.267 21.333 0 25.6 4.267l59.733 51.2c12.8-17.067 21.333-25.6 38.4-51.2l-64-55.467c0-4.267-4.267-8.533-4.267-12.8-4.267-12.8 4.267-25.6 17.067-29.867 8.533-4.267 21.333 0 25.6 4.267l59.733 55.467c21.333-25.6 25.6-34.133 38.4-51.2l-64-59.733c0-4.267-4.267-8.533-4.267-12.8-4.267-12.8 4.267-25.6 17.067-29.867 4.267 0 17.067 0 21.333 8.533l64 59.733c4.267-4.267 17.067-21.333 17.067-21.333v-25.6c-4.267-8.533-8.533-12.8-12.8-12.8zM648.533 349.866c0-179.2-145.067-328.533-328.533-328.533C145.067 25.6 0 174.933 0 349.866c0 179.2 145.067 328.533 320 328.533 183.467-4.267 328.533-149.333 328.533-328.533zm-128-59.733L311.466 537.6c-12.8 12.8-21.333 12.8-29.867 0L136.532 388.267c-21.333-8.533-21.333-29.867-8.533-34.133l42.667-51.2c12.8-12.8 21.333-12.8 29.867 0l93.867 89.6L448 204.801c8.533-12.8 21.333-12.8 25.6-4.267l46.933 46.933c4.267 12.8 4.267 29.867 0 42.667z"/></svg>