<svg xmlns="http://www.w3.org/2000/svg" viewBox="0 0 1024 1024"><path d="M806.4 486.4c-51.2-38.4-123.733-59.733-200.533-59.733-46.933 0-89.6 8.533-128 21.333l81.067 115.2c21.333 34.133 17.067 81.067-17.067 102.4s-81.067 17.067-102.4-17.067l-81.067-115.2c-21.333 29.867-34.133 64-34.133 98.133v328.533c89.6 42.667 192 68.267 294.4 68.267 93.867 0 187.733-17.067 273.067-55.467V631.466c0-55.467-34.133-106.667-85.333-145.067zm-204.8-93.867c89.6 0 166.4-76.8 166.4-166.4 0-93.867-72.533-166.4-166.4-166.4-89.6 0-166.4 76.8-166.4 166.4s76.8 166.4 166.4 166.4zM64 153.6L217.6 42.667c4.267-4.267 8.533-4.267 12.8-4.267 12.8 0 25.6 8.533 25.6 21.333 0 8.533-4.267 17.067-8.533 21.333l-46.933 34.133 34.133 46.933-64 46.933-34.133-46.933-42.667 29.867c-4.267 4.267-8.533 4.267-12.8 4.267-12.8 0-25.6-8.533-25.6-21.333-4.267-8.533 0-17.067 8.533-21.333zm93.867 93.866l119.467-85.333c4.267-4.267 8.533-4.267 12.8-4.267 8.533 0 17.067 4.267 21.333 8.533 0 0 8.533 12.8 12.8 17.067L268.8 226.133c-4.267 4.267-8.533 8.533-8.533 17.067s8.533 17.067 21.333 17.067c4.267 0 8.533 0 8.533-4.267l59.733-38.4c8.533 12.8 17.067 21.333 29.867 42.667l-55.467 38.4c-4.267 0-8.533 8.533-8.533 17.067s8.533 17.067 21.333 17.067c4.267 0 8.533 0 8.533-4.267l55.467-38.4c17.067 21.333 21.333 25.6 29.867 42.667l-51.2 34.133c-4.267 4.267-8.533 12.8-8.533 17.067 0 8.533 8.533 17.067 21.333 17.067 4.267 0 8.533 0 8.533-4.267l51.2-34.133c4.267 4.267 17.067 21.333 17.067 21.333 4.267 4.267 4.267 8.533 4.267 12.8 0 8.533-4.267 17.067-12.8 21.333l-25.6 17.067c4.267 8.533 8.533 12.8 8.533 12.8 4.267 4.267 4.267 8.533 4.267 12.8 0 8.533-4.267 17.067-8.533 21.333l76.8 110.933c4.267 4.267 4.267 8.533 4.267 12.8 0 12.8-8.533 25.6-21.333 25.6-8.533 0-17.067-4.267-21.333-8.533l-76.8-110.933c-4.267 4.267-8.533 4.267-12.8 4.267-8.533 0-17.067-4.267-21.333-8.533l-12.8-17.067-17.067 12.8c-4.267 4.267-8.533 4.267-12.8 4.267-8.533 0-17.067-4.267-21.333-8.533l-149.333-217.6c-4.267-4.267-4.267-8.533-4.267-12.8 0-8.533 4.267-17.067 8.533-21.333z"/></svg>