<!-- Generated by IcoMoon.io -->
<svg version="1.1" xmlns="http://www.w3.org/2000/svg" width="24" height="24" viewBox="0 0 24 24">
<title>vaccine-patient</title>
<path d="M18.9 10.9c-1.2-0.9-2.9-1.4-4.7-1.4-1.1 0-2.1 0.2-3 0.5l1.9 2.7c0.5 0.8 0.4 1.9-0.4 2.4s-1.9 0.4-2.4-0.4l-1.9-2.7c-0.5 0.7-0.8 1.5-0.8 2.3v7.7c2.1 1 4.5 1.6 6.9 1.6 2.2 0 4.4-0.4 6.4-1.3v-8c0-1.3-0.8-2.5-2-3.4z"></path>
<path d="M14.1 8.7c2.1 0 3.9-1.8 3.9-3.9 0-2.2-1.7-3.9-3.9-3.9-2.1 0-3.9 1.8-3.9 3.9s1.8 3.9 3.9 3.9z"></path>
<path d="M1.5 3.1l3.6-2.6c0.1-0.1 0.2-0.1 0.3-0.1 0.3 0 0.6 0.2 0.6 0.5 0 0.2-0.1 0.4-0.2 0.5l-1.1 0.8 0.8 1.1-1.5 1.1-0.8-1.1-1 0.7c-0.1 0.1-0.2 0.1-0.3 0.1-0.3 0-0.6-0.2-0.6-0.5-0.1-0.2 0-0.4 0.2-0.5z"></path>
<path d="M3.7 5.3l2.8-2c0.1-0.1 0.2-0.1 0.3-0.1 0.2 0 0.4 0.1 0.5 0.2 0 0 0.2 0.3 0.3 0.4l-1.3 1c-0.1 0.1-0.2 0.2-0.2 0.4s0.2 0.4 0.5 0.4c0.1 0 0.2 0 0.2-0.1l1.4-0.9c0.2 0.3 0.4 0.5 0.7 1l-1.3 0.9c-0.1 0-0.2 0.2-0.2 0.4s0.2 0.4 0.5 0.4c0.1 0 0.2 0 0.2-0.1l1.3-0.9c0.4 0.5 0.5 0.6 0.7 1l-1.2 0.8c-0.1 0.1-0.2 0.3-0.2 0.4 0 0.2 0.2 0.4 0.5 0.4 0.1 0 0.2 0 0.2-0.1l1.2-0.8c0.1 0.1 0.4 0.5 0.4 0.5 0.1 0.1 0.1 0.2 0.1 0.3 0 0.2-0.1 0.4-0.3 0.5l-0.6 0.4c0.1 0.2 0.2 0.3 0.2 0.3 0.1 0.1 0.1 0.2 0.1 0.3 0 0.2-0.1 0.4-0.2 0.5l1.8 2.6c0.1 0.1 0.1 0.2 0.1 0.3 0 0.3-0.2 0.6-0.5 0.6-0.2 0-0.4-0.1-0.5-0.2l-1.8-2.6c-0.1 0.1-0.2 0.1-0.3 0.1-0.2 0-0.4-0.1-0.5-0.2l-0.3-0.4-0.4 0.3c-0.1 0.1-0.2 0.1-0.3 0.1-0.2 0-0.4-0.1-0.5-0.2l-3.5-5.1c-0.1-0.1-0.1-0.2-0.1-0.3 0-0.2 0.1-0.4 0.2-0.5z"></path>
</svg>
