<svg xmlns="http://www.w3.org/2000/svg" viewBox="0 0 1024 1024"><path d="M85.333 234.666l256-183.467c4.267-4.267 12.8-8.533 21.333-8.533 21.333 0 42.667 17.067 42.667 38.4 0 12.8-4.267 29.867-17.067 38.4l-81.067 55.467 55.467 76.8-102.4 72.533-51.2-76.8-76.8 55.467c-4.267 4.267-12.8 4.267-21.333 4.267-21.333 0-42.667-17.067-42.667-38.4 0-12.8 4.267-25.6 17.067-34.133zm157.867 153.6l196.267-136.533c4.267-4.267 12.8-8.533 21.333-8.533 12.8 0 29.867 4.267 38.4 17.067 0 0 17.067 25.6 21.333 29.867l-98.133 64c-12.8 4.267-17.067 17.067-17.067 25.6 0 17.067 17.067 29.867 34.133 29.867 4.267 0 12.8-4.267 17.067-4.267l98.133-64c17.067 25.6 25.6 34.133 51.2 68.267l-93.867 59.733c-8.533 4.267-12.8 17.067-12.8 29.867 0 17.067 17.067 29.867 34.133 29.867 4.267 0 12.8-4.267 17.067-4.267l89.6-64c25.6 34.133 34.133 46.933 51.2 68.267l-85.333 59.733c-8.533 4.267-12.8 17.067-12.8 29.867 0 17.067 17.067 29.867 34.133 29.867 4.267 0 12.8-4.267 17.067-4.267l85.333-59.733c4.267 4.267 25.6 34.133 25.6 34.133 4.267 4.267 8.533 12.8 8.533 21.333 0 17.067-4.267 29.867-17.067 38.4l-38.4 25.6c8.533 12.8 17.067 21.333 17.067 21.333 4.267 4.267 8.533 12.8 8.533 21.333 0 12.8-4.267 25.6-17.067 34.133l128 183.467c4.267 4.267 8.533 12.8 8.533 21.333 0 21.333-17.067 42.667-38.4 42.667-17.067 0-29.867-4.267-38.4-17.067l-128-183.467c-4.267 4.267-12.8 8.533-21.333 8.533-17.067 0-29.867-4.267-38.4-17.067l-25.6-29.867-29.867 21.333c-4.267 4.267-12.8 8.533-21.333 8.533-17.067 0-29.867-4.267-38.4-17.067l-243.2-354.133c-4.267-8.533-4.267-17.067-4.267-21.333-4.267-17.067 4.267-29.867 17.067-38.4z"/></svg>