<!-- Generated by IcoMoon.io -->
<svg version="1.1" xmlns="http://www.w3.org/2000/svg" width="24" height="24" viewBox="0 0 24 24">
<title>vaccine-check</title>
<path d="M24 10.9c0-0.1-0.1-0.3-0.2-0.3l-4.3-3.6c-0.2-0.2-0.4-0.2-0.7-0.1-0.4 0.1-0.6 0.5-0.5 0.9 0 0.1 0.1 0.3 0.2 0.3l1.3 1.1-1.1 1.2 1.7 1.4 1.1-1.3 1.3 1.1c0.2 0.2 0.5 0.2 0.7 0.1 0.4 0 0.6-0.4 0.5-0.8z"></path>
<path d="M20.7 13.2l-3.2-2.8c-0.2-0.2-0.5-0.3-0.7-0.1-0.1 0-0.2 0.1-0.3 0.2l-5 5.7c-0.2 0.2-0.2 0.4-0.1 0.7 0 0.1 0.1 0.3 0.2 0.3l0.5 0.4-0.4 0.6c-0.2 0.2-0.2 0.4-0.1 0.7 0 0.1 0.1 0.3 0.2 0.3l-2.6 3c-0.2 0.2-0.2 0.5-0.1 0.8 0.1 0.4 0.5 0.6 0.9 0.5 0.1 0 0.3-0.1 0.3-0.2l2.6-3c0.2 0.2 0.4 0.2 0.7 0.1 0.1 0 0.3-0.1 0.3-0.2 0 0 0.1-0.2 0.3-0.4l0.6 0.5c0.2 0.2 0.4 0.2 0.7 0.1 0.1 0 0.3-0.1 0.3-0.2 0 0 0.4-0.5 0.5-0.6l-1.4-1.2c0-0.1-0.1-0.2-0.1-0.3-0.1-0.3 0.1-0.6 0.4-0.7 0.2-0.1 0.5 0 0.6 0.1l1.4 1.2c0.3-0.4 0.5-0.6 0.9-1.2l-1.5-1.3c0-0.1-0.1-0.2-0.1-0.3-0.1-0.3 0.1-0.6 0.4-0.7 0.2-0.1 0.5 0 0.6 0.1l1.4 1.3c0.5-0.6 0.6-0.8 0.9-1.2l-1.5-1.4c0-0.1-0.1-0.2-0.1-0.3-0.1-0.3 0.1-0.6 0.4-0.7 0.1 0 0.4 0 0.5 0.2l1.5 1.4c0.1-0.1 0.4-0.5 0.4-0.5 0-0.1 0-0.4 0-0.6-0.1-0.2-0.2-0.3-0.3-0.3z"></path>
<path d="M15.2 7.7c0-4.2-3.4-7.7-7.7-7.7-4.1 0.1-7.5 3.6-7.5 7.7 0 4.2 3.4 7.7 7.5 7.7 4.3-0.1 7.7-3.5 7.7-7.7zM12.2 6.3l-4.9 5.8c-0.3 0.3-0.5 0.3-0.7 0l-3.4-3.5c-0.5-0.2-0.5-0.7-0.2-0.8l1-1.2c0.3-0.3 0.5-0.3 0.7 0l2.2 2.1 3.6-4.4c0.2-0.3 0.5-0.3 0.6-0.1l1.1 1.1c0.1 0.3 0.1 0.7 0 1z"></path>
</svg>
