<!-- Generated by IcoMoon.io -->
<svg version="1.1" xmlns="http://www.w3.org/2000/svg" width="24" height="24" viewBox="0 0 24 24">
<title>vaccine</title>
<path d="M2 5l6-4.3c0.1-0.1 0.3-0.2 0.5-0.2 0.5 0 1 0.4 1 0.9 0 0.3-0.1 0.7-0.4 0.9l-1.9 1.3 1.3 1.8-2.4 1.7-1.2-1.8-1.8 1.3c-0.1 0.1-0.3 0.1-0.5 0.1-0.5 0-1-0.4-1-0.9 0-0.3 0.1-0.6 0.4-0.8z"></path>
<path d="M5.7 8.6l4.6-3.2c0.1-0.1 0.3-0.2 0.5-0.2 0.3 0 0.7 0.1 0.9 0.4 0 0 0.4 0.6 0.5 0.7l-2.3 1.5c-0.3 0.1-0.4 0.4-0.4 0.6 0 0.4 0.4 0.7 0.8 0.7 0.1 0 0.3-0.1 0.4-0.1l2.3-1.5c0.4 0.6 0.6 0.8 1.2 1.6l-2.2 1.4c-0.2 0.1-0.3 0.4-0.3 0.7 0 0.4 0.4 0.7 0.8 0.7 0.1 0 0.3-0.1 0.4-0.1l2.1-1.5c0.6 0.8 0.8 1.1 1.2 1.6l-2 1.4c-0.2 0.1-0.3 0.4-0.3 0.7 0 0.4 0.4 0.7 0.8 0.7 0.1 0 0.3-0.1 0.4-0.1l2-1.4c0.1 0.1 0.6 0.8 0.6 0.8 0.1 0.1 0.2 0.3 0.2 0.5 0 0.4-0.1 0.7-0.4 0.9l-0.9 0.6c0.2 0.3 0.4 0.5 0.4 0.5 0.1 0.1 0.2 0.3 0.2 0.5 0 0.3-0.1 0.6-0.4 0.8l3 4.3c0.1 0.1 0.2 0.3 0.2 0.5 0 0.5-0.4 1-0.9 1-0.4 0-0.7-0.1-0.9-0.4l-3-4.3c-0.1 0.1-0.3 0.2-0.5 0.2-0.4 0-0.7-0.1-0.9-0.4l-0.6-0.7-0.7 0.5c-0.1 0.1-0.3 0.2-0.5 0.2-0.4 0-0.7-0.1-0.9-0.4l-5.7-8.3c-0.1-0.2-0.1-0.4-0.1-0.5-0.1-0.4 0.1-0.7 0.4-0.9z"></path>
</svg>
