<svg xmlns="http://www.w3.org/2000/svg" viewBox="0 0 1024 1024"><path d="M864.2 688.533c0 3.2-.2 6.4-.6 9.6-4.8 42.2-40.4 74.8-83.8 74.8s-79-32.8-83.8-74.8c-.4-3.2-.6-6.4-.6-9.6 0-46.6 37.8-84.4 84.4-84.4s84.4 37.8 84.4 84.4zm-44.6 0c0-22-17.8-39.6-39.6-39.6-22 0-39.6 17.8-39.6 39.6 0 22 17.8 39.6 39.6 39.6s39.6-17.6 39.6-39.6zm-734.8-148.2l-47.6 7.4c-1 22-1 42.8-.6 62.6l48.2-14.6v-55.4zm870-34l23.6 32c-.4-21.2-1.2-46.6-2.4-73.2h-21.2v41.2zm24 56c10 27.4 11.6 69.6 11.2 99.6-.2 20.2-16.6 36.2-36.8 36.2h-75.6c.4-3.2.4-6.4.4-9.6 0-54.2-44.2-98.4-98.4-98.4s-98.4 44.2-98.4 98.4c0 3.2.2 6.4.4 9.6H362c.4-3.2.4-6.4.4-9.6 0-54.2-44.2-98.4-98.4-98.4s-98.4 44.2-98.4 98.4c0 3.2.2 6.4.4 9.6H59c-8 0-14.8-5.8-16-13.8-3-18.4-5-38.4-6-59.6l51.8-15.6c5.8-1.8 10-7.2 10-13.4v-55.6c0-4-1.8-8-4.8-10.6-2.6-2.2-5.8-3.4-9-3.4-.8 0-1.4 0-2.2.2l-44.8 7c.8-13.4 1.6-27.2 3-41.2 2.6-30.2 14.6-58.8 34-81.8l100.4-119.6c28.2-33.8 70-53.2 114-53.2h688c7 0 10.8 8.4 6 13.6l-18.6 19.8s6.8 93.4 10.8 180H955c-7.6 0-14 6.2-14 14v41.2c0 3 1 5.8 2.8 8.2l35 47.4c-.2.4 0 .4 0 .6zm-869.4-108.8l215.4-28.8 12-121.4c.4-3.2-.6-6-2.8-8.4-2-2.4-5-3.6-8-3.6h-76.8c-21.8 0-42.8 10.4-55.8 28l-86.6 116c-.4.4-.6 1-.6 1.6v13.8c0 1.6 1.2 2.8 2.8 2.8h.4zm527.2 1.2v-163.4h-222c-3 0-5.8 1.2-7.8 3.4s-3.2 5-3 8l6.2 125.8 27.6 16.2c11 6.6 23.8 10 36.6 10h162.4zm274.8 0c5 0 9.4-3.4 10.6-8 11.8-49.2 11.8-98.6 0-147.4-1.2-4.6-5.6-8-10.6-8h-225v163.4h225zm-562.8 233.8c0 3.2-.2 6.4-.6 9.6-4.8 42.2-40.4 74.8-83.8 74.8s-79-32.8-83.8-74.8c-.4-3.2-.6-6.4-.6-9.6 0-46.6 37.8-84.4 84.4-84.4s84.4 37.8 84.4 84.4zm-44.8 0c0-22-17.8-39.6-39.6-39.6-22 0-39.6 17.8-39.6 39.6 0 22 17.8 39.6 39.6 39.6s39.6-17.6 39.6-39.6z"/></svg>