<!-- Generated by IcoMoon.io -->
<svg version="1.1" xmlns="http://www.w3.org/2000/svg" width="24" height="24" viewBox="0 0 24 24">
<title>van</title>
<path d="M20.255 15.638c0 0.075-0.005 0.15-0.014 0.225-0.113 0.989-0.947 1.753-1.964 1.753s-1.852-0.769-1.964-1.753c-0.009-0.075-0.014-0.15-0.014-0.225 0-1.092 0.886-1.978 1.978-1.978s1.978 0.886 1.978 1.978zM19.209 15.638c0-0.516-0.417-0.928-0.928-0.928-0.516 0-0.928 0.417-0.928 0.928 0 0.516 0.417 0.928 0.928 0.928s0.928-0.412 0.928-0.928zM1.987 12.164l-1.116 0.173c-0.023 0.516-0.023 1.003-0.014 1.467l1.13-0.342v-1.298zM22.378 11.367l0.553 0.75c-0.009-0.497-0.028-1.092-0.056-1.716h-0.497v0.966zM22.941 12.68c0.234 0.642 0.272 1.631 0.263 2.334-0.005 0.473-0.389 0.848-0.862 0.848h-1.772c0.009-0.075 0.009-0.15 0.009-0.225 0-1.27-1.036-2.306-2.306-2.306s-2.306 1.036-2.306 2.306c0 0.075 0.005 0.15 0.009 0.225h-7.491c0.009-0.075 0.009-0.15 0.009-0.225 0-1.27-1.036-2.306-2.306-2.306s-2.306 1.036-2.306 2.306c0 0.075 0.005 0.15 0.009 0.225h-2.508c-0.188 0-0.347-0.136-0.375-0.323-0.070-0.431-0.117-0.9-0.141-1.397l1.214-0.366c0.136-0.042 0.234-0.169 0.234-0.314v-1.303c0-0.094-0.042-0.188-0.112-0.248-0.061-0.052-0.136-0.080-0.211-0.080-0.019 0-0.033 0-0.052 0.005l-1.050 0.164c0.019-0.314 0.038-0.637 0.070-0.966 0.061-0.708 0.342-1.378 0.797-1.917l2.353-2.803c0.661-0.792 1.641-1.247 2.672-1.247h16.125c0.164 0 0.253 0.197 0.141 0.319l-0.436 0.464c0 0 0.159 2.189 0.253 4.219h-0.483c-0.178 0-0.328 0.145-0.328 0.328v0.966c0 0.070 0.023 0.136 0.066 0.192l0.82 1.111c-0.005 0.009 0 0.009 0 0.014zM2.564 10.13l5.048-0.675 0.281-2.845c0.009-0.075-0.014-0.141-0.066-0.197-0.047-0.056-0.117-0.084-0.188-0.084h-1.8c-0.511 0-1.003 0.244-1.308 0.656l-2.030 2.719c-0.009 0.009-0.014 0.023-0.014 0.038v0.323c0 0.038 0.028 0.066 0.066 0.066h0.009zM14.92 10.158v-3.83h-5.203c-0.070 0-0.136 0.028-0.183 0.080s-0.075 0.117-0.070 0.188l0.145 2.948 0.647 0.38c0.258 0.155 0.558 0.234 0.858 0.234h3.806zM21.361 10.158c0.117 0 0.22-0.080 0.248-0.188 0.277-1.153 0.277-2.311 0-3.455-0.028-0.108-0.131-0.188-0.248-0.188h-5.273v3.83h5.273zM8.17 15.638c0 0.075-0.005 0.15-0.014 0.225-0.113 0.989-0.947 1.753-1.964 1.753s-1.852-0.769-1.964-1.753c-0.009-0.075-0.014-0.15-0.014-0.225 0-1.092 0.886-1.978 1.978-1.978s1.978 0.886 1.978 1.978zM7.12 15.638c0-0.516-0.417-0.928-0.928-0.928-0.516 0-0.928 0.417-0.928 0.928 0 0.516 0.417 0.928 0.928 0.928s0.928-0.412 0.928-0.928z"></path>
</svg>
