<svg xmlns="http://www.w3.org/2000/svg" viewBox="0 0 1024 1024"><path d="M680.186 417.205c48.057-28.034 80.092-80.092 80.092-140.152 0-88.094-72.081-164.185-164.185-164.185S431.908 188.95 431.908 277.053c0 60.069 32.035 108.117 76.082 140.152H339.804c32.035-24.024 52.058-60.069 52.058-104.116 0-68.08-56.059-124.139-124.139-124.139s-124.139 56.059-124.139 124.139c0 44.047 20.023 80.092 52.058 104.116h-8.011c-28.034 0-56.059 12.012-76.082 32.035-16.022-8.011-32.035-20.023-48.057-28.034-32.035 52.058-40.046 88.094-40.046 152.173 20.023 0 40.046-4.001 56.059-4.001V709.53c0 60.069 48.057 108.117 108.117 108.117h476.533c48.057 0 84.093-32.035 100.115-72.081 20.023-112.127 12.012-196.22 0-248.278-8.011-44.047-44.047-76.082-84.093-80.092zm-164.185 260.29h-328.37V493.287h328.37v184.208zm124.139-72.081c-28.034 0-52.058-24.024-52.058-52.058s24.024-52.058 52.058-52.058 52.058 24.024 52.058 52.058-24.024 52.058-52.058 52.058zm352.394-184.208c-68.08 24.024-112.127 40.046-164.185 60.069 12.012 60.069 20.023 160.175-4.001 288.324 52.058 20.023 100.115 36.036 168.186 60.069 32.035-164.185 32.035-252.279 0-408.453z"/></svg>