<!-- Generated by IcoMoon.io -->
<svg version="1.1" xmlns="http://www.w3.org/2000/svg" width="24" height="24" viewBox="0 0 24 24">
<title>video-camera</title>
<path d="M15.942 9.278c1.126-0.657 1.877-1.877 1.877-3.285 0-2.065-1.689-3.848-3.848-3.848s-3.848 1.783-3.848 3.848c0 1.408 0.751 2.534 1.783 3.285h-3.942c0.751-0.563 1.22-1.408 1.22-2.44 0-1.596-1.314-2.91-2.91-2.91s-2.91 1.314-2.91 2.91c0 1.032 0.469 1.877 1.22 2.44h-0.188c-0.657 0-1.314 0.282-1.783 0.751-0.376-0.188-0.751-0.469-1.126-0.657-0.751 1.22-0.939 2.065-0.939 3.567 0.469 0 0.939-0.094 1.314-0.094v3.285c0 1.408 1.126 2.534 2.534 2.534h11.169c1.126 0 1.971-0.751 2.346-1.689 0.469-2.628 0.282-4.599 0-5.819-0.188-1.032-1.032-1.783-1.971-1.877zM12.094 15.379h-7.696v-4.317h7.696v4.317zM15.003 13.689c-0.657 0-1.22-0.563-1.22-1.22s0.563-1.22 1.22-1.22 1.22 0.563 1.22 1.22c0 0.657-0.563 1.22-1.22 1.22z"></path>
<path d="M23.263 9.372c-1.596 0.563-2.628 0.939-3.848 1.408 0.282 1.408 0.469 3.754-0.094 6.758 1.22 0.469 2.346 0.845 3.942 1.408 0.751-3.848 0.751-5.913 0-9.573z"></path>
</svg>
