<!-- Generated by IcoMoon.io -->
<svg version="1.1" xmlns="http://www.w3.org/2000/svg" width="24" height="24" viewBox="0 0 24 24">
<title>video</title>
<path d="M21.15 6.3c-0.9 0.525-5.55 3.075-6.6 3.75v-1.575c0-1.575-1.275-3.075-3.075-3.075h-7.2c-1.575 0-3.075 1.275-3.075 3.075v7.125c0 1.575 1.275 3.075 3.075 3.075h7.2c1.575 0 3.075-1.275 3.075-3.075v-1.425c1.050 0.75 5.925 3.375 6.6 3.75 1.050 0.525 1.575 0.375 1.575-0.375 0-1.275 0-5.025 0-5.55s0-4.275 0-5.4-0.675-0.9-1.575-0.3z"></path>
</svg>
