<!-- Generated by IcoMoon.io -->
<svg version="1.1" xmlns="http://www.w3.org/2000/svg" width="24" height="24" viewBox="0 0 24 24">
<title>vimeo</title>
<path d="M18.437 16.523c-2.958 3.914-5.48 5.741-7.568 5.741-1.218 0-2.349-1.131-3.219-3.48-0.609-2.175-1.131-4.349-1.74-6.524-0.609-2.349-1.305-3.48-2.088-3.48-0.174 0-0.696 0.348-1.74 1.044l-1.044-1.305c1.131-0.957 2.262-1.914 3.306-2.958 1.479-1.218 2.436-1.827 3.219-2.001 1.74-0.174 2.784 1.044 3.219 3.48 0.435 2.697 0.696 4.349 0.957 5.045 0.522 2.262 1.044 3.306 1.653 3.306 0.435 0 1.131-0.696 2.088-2.175s1.479-2.61 1.479-3.306c0.087-1.218-0.348-1.827-1.479-1.827-0.522 0-1.044 0.087-1.653 0.348 1.044-3.48 3.132-5.219 6.176-5.132 2.262 0.087 3.306 1.566 3.219 4.436-0.435 2.088-1.827 5.045-4.784 8.786z"></path>
</svg>
