<svg xmlns="http://www.w3.org/2000/svg" viewBox="0 0 1024 1024"><path d="M786.649 726.333C660.454 893.349 552.821 971.294 463.75 971.294c-51.961 0-100.211-48.25-137.328-148.461-25.984-92.789-48.25-185.578-74.227-278.367-25.984-100.211-55.672-148.461-89.078-148.461-7.422 0-29.695 14.844-74.227 44.539l-44.539-55.672c48.25-40.828 96.5-81.656 141.039-126.195 63.094-51.961 103.922-77.945 137.328-85.367 74.227-7.422 118.766 44.539 137.328 148.461 18.555 115.055 29.695 185.578 40.828 215.266 22.266 96.5 44.539 141.039 70.516 141.039 18.555 0 48.25-29.695 89.078-92.789s63.094-111.344 63.094-141.039c3.711-51.961-14.844-77.945-63.094-77.945-22.266 0-44.539 3.711-70.516 14.844 44.539-148.461 133.617-222.688 263.516-218.977 96.5 3.711 141.039 66.805 137.328 189.289-18.555 89.078-77.945 215.266-204.133 374.86z"/></svg>