<svg xmlns="http://www.w3.org/2000/svg" viewBox="0 0 1024 1024"><path d="M976.64 632.405c-300.032-79.36-300.032-116.48 0-195.84-234.24 34.304-239.872 16.896-29.952-92.928-289.536 112.128-311.04 82.176-114.944-158.464-169.216 165.376-184.32 154.624-79.104-57.344-168.192 260.864-203.008 249.344-185.856-60.416-39.936 233.472-58.112 233.472-97.792 0 17.152 309.76-17.92 321.28-186.112 60.416 104.96 212.224 89.856 222.976-79.36 57.344 196.096 240.64 174.336 270.336-114.944 158.464 209.664 109.824 204.288 127.232-29.952 92.928 300.032 79.36 300.032 116.48 0 195.84 234.24-34.304 239.872-16.896 29.952 92.928 289.536-112.128 311.04-82.176 114.944 158.464 169.216-165.376 184.32-154.624 79.104 57.344 168.192-260.864 203.008-249.344 186.112 60.416 39.936-233.472 58.112-233.472 97.792 0-17.152-309.76 17.92-321.28 186.112-60.416-105.216-212.224-90.112-222.976 79.104-57.344-195.84-240.64-174.08-270.592 115.456-158.464-210.176-109.824-204.544-127.232 29.44-92.928zm-537.6-120.576c-33.792 0-61.44-27.648-61.44-61.44s27.648-61.44 61.44-61.44 61.44 27.648 61.44 61.44c.256 33.792-27.392 61.44-61.44 61.44zm110.592 101.376c-17.92 0-31.744-14.336-31.744-32.256s14.336-31.744 31.744-31.744c17.92 0 31.744 14.336 31.744 31.744 0 17.92-14.336 32.256-31.744 32.256z"/></svg>