<!-- Generated by IcoMoon.io -->
<svg version="1.1" xmlns="http://www.w3.org/2000/svg" width="24" height="24" viewBox="0 0 24 24">
<title>virus</title>
<path d="M22.89 14.322c-7.032-1.86-7.032-2.73 0-4.59-5.49 0.804-5.622 0.396-0.702-2.178-6.786 2.628-7.29 1.926-2.694-3.714-3.966 3.876-4.32 3.624-1.854-1.344-3.942 6.114-4.758 5.844-4.356-1.416-0.936 5.472-1.362 5.472-2.292 0 0.402 7.26-0.42 7.53-4.362 1.416 2.46 4.974 2.106 5.226-1.86 1.344 4.596 5.64 4.086 6.336-2.694 3.714 4.914 2.574 4.788 2.982-0.702 2.178 7.032 1.86 7.032 2.73 0 4.59 5.49-0.804 5.622-0.396 0.702 2.178 6.786-2.628 7.29-1.926 2.694 3.714 3.966-3.876 4.32-3.624 1.854 1.344 3.942-6.114 4.758-5.844 4.362 1.416 0.936-5.472 1.362-5.472 2.292 0-0.402-7.26 0.42-7.53 4.362-1.416-2.466-4.974-2.112-5.226 1.854-1.344-4.59-5.64-4.080-6.342 2.706-3.714-4.926-2.574-4.794-2.982 0.69-2.178zM10.29 11.496c-0.792 0-1.44-0.648-1.44-1.44s0.648-1.44 1.44-1.44c0.792 0 1.44 0.648 1.44 1.44 0.006 0.792-0.642 1.44-1.44 1.44zM12.882 13.872c-0.42 0-0.744-0.336-0.744-0.756s0.336-0.744 0.744-0.744c0.42 0 0.744 0.336 0.744 0.744 0 0.42-0.336 0.756-0.744 0.756z"></path>
</svg>
