<!-- Generated by IcoMoon.io -->
<svg version="1.1" xmlns="http://www.w3.org/2000/svg" width="24" height="24" viewBox="0 0 24 24">
<title>viruses</title>
<path d="M22.416 9.624c-1.764-0.756-2.178-2.556-0.912-4.008 0.636-0.726 1.014-1.050 0.714-1.374-0.288-0.312-0.654-0.054-1.494 0.396-1.692 0.912-3.36 0.108-3.702-1.782-0.156-0.864-0.15-1.416-0.576-1.41-0.516 0.012-0.486 0.384-0.672 1.41-0.342 1.89-2.010 2.694-3.702 1.782-0.846-0.456-1.224-0.726-1.5-0.396-0.3 0.366 0.084 0.648 0.72 1.374 1.26 1.446 0.852 3.252-0.912 4.008-0.906 0.39-1.32 0.51-1.236 0.942 0.090 0.456 0.582 0.318 1.518 0.276 1.92-0.084 3.072 1.362 2.562 3.21-0.252 0.912-0.498 1.35-0.060 1.542 0.372 0.162 0.612-0.21 1.188-1.002 1.128-1.554 2.982-1.554 4.11 0 0.564 0.774 0.762 1.194 1.176 1.008 0.468-0.216 0.204-0.624-0.054-1.548-0.51-1.854 0.642-3.3 2.562-3.21 0.96 0.042 1.398 0.126 1.524-0.294 0.12-0.456-0.372-0.546-1.254-0.924zM14.778 11.1c-0.468 0-0.846-0.378-0.846-0.846s0.378-0.846 0.846-0.846 0.846 0.378 0.846 0.846c0 0.468-0.378 0.846-0.846 0.846zM16.926 9.012c-0.72 0-1.302-0.582-1.302-1.302s0.582-1.302 1.302-1.302c0.72 0 1.302 0.582 1.302 1.302s-0.588 1.302-1.302 1.302z"></path>
<path d="M10.752 17.826c-1.386-0.594-1.71-2.010-0.72-3.144 0.498-0.57 0.798-0.822 0.564-1.080-0.222-0.246-0.516-0.042-1.176 0.312-1.326 0.714-2.634 0.084-2.904-1.398-0.126-0.678-0.12-1.11-0.45-1.104-0.408 0.012-0.384 0.3-0.528 1.104-0.27 1.482-1.578 2.112-2.904 1.398-0.666-0.354-0.96-0.57-1.176-0.312-0.234 0.288 0.066 0.51 0.564 1.080 0.99 1.134 0.666 2.55-0.72 3.144-0.708 0.306-1.038 0.402-0.972 0.738 0.072 0.36 0.456 0.252 1.188 0.216 1.506-0.066 2.412 1.068 2.010 2.52-0.198 0.714-0.39 1.062-0.048 1.212 0.288 0.126 0.48-0.168 0.93-0.786 0.888-1.218 2.34-1.218 3.222 0 0.444 0.612 0.6 0.936 0.924 0.786 0.366-0.168 0.162-0.486-0.042-1.218-0.402-1.452 0.504-2.586 2.010-2.52 0.75 0.036 1.098 0.102 1.194-0.234 0.114-0.342-0.27-0.42-0.966-0.714zM6.378 17.814c-0.636 0-1.158-0.516-1.158-1.158 0-0.636 0.516-1.158 1.158-1.158s1.158 0.516 1.158 1.158c0 0.642-0.516 1.158-1.158 1.158z"></path>
</svg>
