<svg xmlns="http://www.w3.org/2000/svg" viewBox="0 0 1024 1024"><path d="M956.416 431.957c-75.264-32.256-92.928-109.056-38.912-171.008 27.136-30.976 43.264-44.8 30.464-58.624-12.288-13.312-27.904-2.304-63.744 16.896-72.192 38.912-143.36 4.608-157.952-76.032-6.656-36.864-6.4-60.416-24.576-60.16-22.016.512-20.736 16.384-28.672 60.16-14.592 80.64-85.76 114.944-157.952 76.032-36.096-19.456-52.224-30.976-64-16.896-12.8 15.616 3.584 27.648 30.72 58.624 53.76 61.696 36.352 138.752-38.912 171.008-38.656 16.64-56.32 21.76-52.736 40.192 3.84 19.456 24.832 13.568 64.768 11.776 81.92-3.584 131.072 58.112 109.312 136.96-10.752 38.912-21.248 57.6-2.56 65.792 15.872 6.912 26.112-8.96 50.688-42.752 48.128-66.304 127.232-66.304 175.36 0 24.064 33.024 32.512 50.944 50.176 43.008 19.968-9.216 8.704-26.624-2.304-66.048-21.76-79.104 27.392-140.8 109.312-136.96 40.96 1.792 59.648 5.376 65.024-12.544 5.12-19.456-15.872-23.296-53.504-39.424zm-325.888 62.976c-19.968 0-36.096-16.128-36.096-36.096s16.128-36.096 36.096-36.096 36.096 16.128 36.096 36.096c0 19.968-16.128 36.096-36.096 36.096zm91.648-89.088c-30.72 0-55.552-24.832-55.552-55.552s24.832-55.552 55.552-55.552 55.552 24.832 55.552 55.552-25.088 55.552-55.552 55.552zM458.752 781.909c-59.136-25.344-72.96-85.76-30.72-134.144 21.248-24.32 34.048-35.072 24.064-46.08-9.472-10.496-22.016-1.792-50.176 13.312-56.576 30.464-112.384 3.584-123.904-59.648-5.376-28.928-5.12-47.36-19.2-47.104-17.408.512-16.384 12.8-22.528 47.104-11.52 63.232-67.328 90.112-123.904 59.648-28.416-15.104-40.96-24.32-50.176-13.312-9.984 12.288 2.816 21.76 24.064 46.08 42.24 48.384 28.416 108.8-30.72 134.144-30.208 13.056-44.288 17.152-41.472 31.488 3.072 15.36 19.456 10.752 50.688 9.216 64.256-2.816 102.912 45.568 85.76 107.52-8.448 30.464-16.64 45.312-2.048 51.712 12.288 5.376 20.48-7.168 39.68-33.536 37.888-51.968 99.84-51.968 137.472 0 18.944 26.112 25.6 39.936 39.424 33.536 15.616-7.168 6.912-20.736-1.792-51.968-17.152-61.952 21.504-110.336 85.76-107.52 32 1.536 46.848 4.352 50.944-9.984 4.864-14.592-11.52-17.92-41.216-30.464zm-186.624-.512c-27.136 0-49.408-22.016-49.408-49.408 0-27.136 22.016-49.408 49.408-49.408s49.408 22.016 49.408 49.408a49.275 49.275 0 0 1-49.408 49.408z"/></svg>