<svg xmlns="http://www.w3.org/2000/svg" viewBox="0 0 1024 1024"><path d="M855.467 485.333c-9.244 19.911-25.6 59.022-35.2 80.356h44.444c-2.133-21.333-3.911-60.089-5.689-80-1.067-.356-2.489-.356-3.556-.356zm166.044-254.222v-59.022c0-22.756-18.844-41.6-41.6-41.6H44.089c-22.756 0-41.6 18.489-41.6 41.6v59.022c-.356 2.133-.711 4.622-.711 6.756v594.489c0 2.489.356 4.622.711 6.756v55.111c0 22.756 18.844 41.6 41.6 41.6h935.822c22.756 0 41.6-18.844 41.6-41.6v-55.111c.356-2.133.711-4.622.711-6.756V238.223c0-2.489-.356-4.622-.711-7.111zM236.089 668.8c-5.689 11.022-12.089 15.644-24.533 14.933-18.133-1.067-36.622-.356-55.111-.356-7.467 0-11.378-2.133-12.444-10.311-9.6-71.467-22.756-169.956-32.711-243.556-17.067-13.511-34.489-27.733-52.978-42.311h129.067c6.044 61.156 11.733 122.311 17.778 183.467.711.356 1.422.711 2.489 1.067 8.533-18.489 17.067-36.622 25.6-55.111 18.844-40.178 38.044-80 56.533-120.178 3.556-7.467 7.822-10.667 16.356-10.311 23.822.711 47.644.356 74.311.356l-21.689 43.378c-40.889 80-82.133 159.289-122.667 238.933zm206.222 3.911c-.711 3.911-4.622 10.311-7.111 10.311-24.178.356-46.933.356-72.178.356 2.489-13.156 4.978-23.822 6.756-34.489 15.644-82.133 31.289-164.267 46.578-246.756 2.133-11.378 5.689-16.711 18.489-15.644 19.556 1.067 39.111.356 61.511.356-7.111 37.689-13.511 72.533-20.267 107.378-11.022 59.378-22.4 119.111-33.778 178.489zm176.711 7.822c-41.244 12.8-81.778 9.6-121.244-7.467-17.067-7.467-17.422-8.889-10.667-25.6 6.4-16 12.8-32 18.133-44.444 24.178 6.044 46.222 12.8 68.622 16.356 9.244 1.422 21.689.711 31.644-7.467 11.378-9.244 11.378-20.267.356-30.222-8.533-7.467-18.844-13.156-28.8-19.2-23.822-14.933-48-29.867-56.178-59.022-10.311-36.978 5.333-77.156 37.333-98.844 41.244-27.733 109.511-29.156 153.956-2.489-7.822 20.978-16 42.311-23.111 61.156-20.267-4.267-38.4-8.533-56.533-11.733-5.333-1.067-12.089-2.133-19.2 1.067-7.111 2.844-13.156 9.244-13.156 17.067.356 7.467 3.556 13.867 8.889 18.133 9.956 8.178 21.333 14.933 32.356 21.333 33.778 19.911 56.533 46.222 50.489 88.889-6.044 43.733-32.356 69.689-72.889 82.489zm261.689 2.489c-2.489 0-6.4-6.4-7.111-9.956-1.778-14.933-3.2-29.867-3.2-44.8 0-13.156-3.556-17.778-18.133-17.778H819.2c-13.867-.711-20.978 4.978-25.6 17.067-6.044 15.289-13.156 29.867-19.556 44.8-3.556 7.822-8.178 11.733-17.422 11.378-22.044-.711-44.089-.356-70.044-.356 10.667-22.4 19.2-41.244 28.444-60.089 36.622-75.378 73.244-150.756 110.222-225.778 2.133-4.622 7.467-10.311 11.733-10.667l83.2-.356c11.733 98.844 23.111 196.622 34.844 296.533-26.311.356-50.489.711-74.311 0z"/></svg>