<svg xmlns="http://www.w3.org/2000/svg" viewBox="0 0 1024 1024"><path d="M661.688 697.595l-266.93 242.884 159.89-219.872L421.72 583.575 15.342 1046.599h993.165L661.689 697.595zM275.905 470.627h40.5l121.576 1.342v54.268c.512 12.006 10.369 21.546 22.455 21.546s21.943-9.54 22.454-21.5l.002-.046v-53.693h17.067v103.551c.512 12.006 10.369 21.546 22.455 21.546s21.943-9.54 22.454-21.5l.002-.046V472.544h28.534v173.85c0 21.592 21.132 27.613 40.27 12.004s54.728-46.022 66.311-56.953 21.822-25.849 21.822-44.45V472.62h83.416c14.459 0 76.359-2.071 128.441-20.633 49.206-18.601 71.105-42.187 79.811-79.159 8.668-35.13-8.591-73.636-37.508-100.482a206.903 206.903 0 0 0-91.221-47.246l-1.399-.272c11.812-16.568-12.503-92.045-74.633-117.894-84.375-35.361-145.163 12.503-165.719 28.496-10.393-20.403-61.363-131.202-213.659-111.95C251.134 43.5 220.912 169.218 223.827 199.899c-17.373 6.213-137.607 30.375-144.702 140.407-8.553 133.082 141.788 130.32 196.784 130.32zm539.843 59.561c0 16.267-13.187 29.454-29.454 29.454s-29.454-13.187-29.454-29.454c0-16.267 13.187-29.454 29.454-29.454s29.454 13.187 29.454 29.454z"/></svg>