<!-- Generated by IcoMoon.io -->
<svg version="1.1" xmlns="http://www.w3.org/2000/svg" width="24" height="24" viewBox="0 0 24 24">
<title>volcano</title>
<path d="M15.508 15.85l-6.256 5.693 3.747-5.153-3.115-3.212-9.524 10.852h23.277l-8.129-8.18z"></path>
<path d="M6.467 10.53h0.949l2.849 0.031v1.272c0.012 0.281 0.243 0.505 0.526 0.505s0.514-0.224 0.526-0.504l0-0.001v-1.258h0.4v2.427c0.012 0.281 0.243 0.505 0.526 0.505s0.514-0.224 0.526-0.504l0-0.001v-2.427h0.669v4.075c0 0.506 0.495 0.647 0.944 0.281s1.283-1.079 1.554-1.335 0.511-0.606 0.511-1.042v-1.978h1.955c0.339 0 1.79-0.049 3.010-0.484 1.153-0.436 1.667-0.989 1.871-1.855 0.203-0.823-0.201-1.726-0.879-2.355-0.595-0.531-1.328-0.92-2.138-1.107l-0.033-0.006c0.277-0.388-0.293-2.157-1.749-2.763-1.978-0.829-3.402 0.293-3.884 0.668-0.244-0.478-1.438-3.075-5.008-2.624-3.708 0.469-4.416 3.416-4.348 4.135-0.407 0.146-3.225 0.712-3.391 3.291-0.2 3.119 3.323 3.054 4.612 3.054z"></path>
<path d="M19.119 11.926c0 0.381-0.309 0.69-0.69 0.69s-0.69-0.309-0.69-0.69c0-0.381 0.309-0.69 0.69-0.69s0.69 0.309 0.69 0.69z"></path>
</svg>
