<svg xmlns="http://www.w3.org/2000/svg" viewBox="0 0 1024 1024"><path d="M84.97 785.098h140.004c11.041 10.98 265.429 225.106 265.429 225.106 15.311 9.272 28.307 11.956 39.409 10.919 22.573-2.135 38.433-21.047 43.252-40.995.244-1.952.244-891.642-.061-893.594-4.758-20.009-20.681-38.921-43.191-41.056-11.102-1.037-24.098 1.647-39.409 10.919 0 0-254.388 221.933-265.429 232.916H84.97c-33.675 0-61.004 27.331-61.004 61.004v373.774c0 33.736 27.331 61.004 61.004 61.004zm582.043-145.189c-15.067 7.625-21.108 25.928-13.542 40.995a30.526 30.526 0 0 0 27.209 16.775c4.636 0 9.272-1.037 13.725-3.233 61.676-31.113 99.985-92.787 99.985-161.113s-38.311-130-99.985-161.113c-15.067-7.625-33.309-1.525-40.934 13.542-7.564 15.067-1.525 33.37 13.542 40.995 40.934 20.62 66.374 61.431 66.374 106.576s-25.44 85.955-66.374 106.576zm-41.971 243.53c2.867 14.579 15.616 24.647 29.893 24.647 1.952 0 3.904-.183 5.917-.549 178.864-34.895 308.684-192.287 308.684-374.201S839.719 194.03 660.791 159.135c-16.287-3.294-32.577 7.564-35.749 24.098-3.233 16.531 7.564 32.577 24.098 35.81 150.316 29.283 259.39 161.479 259.39 314.296S799.453 818.352 649.14 847.635c-16.531 3.233-27.331 19.276-24.098 35.81z"/></svg>