<!-- Generated by IcoMoon.io -->
<svg version="1.1" xmlns="http://www.w3.org/2000/svg" width="24" height="24" viewBox="0 0 24 24">
<title>volume</title>
<path d="M1.991 17.901h3.281c0.259 0.257 6.221 5.276 6.221 5.276 0.359 0.217 0.663 0.28 0.924 0.256 0.529-0.050 0.901-0.493 1.014-0.961 0.006-0.046 0.006-20.898-0.001-20.944-0.112-0.469-0.485-0.912-1.012-0.962-0.26-0.024-0.565 0.039-0.924 0.256 0 0-5.962 5.202-6.221 5.459h-3.281c-0.789 0-1.43 0.641-1.43 1.43v8.76c0 0.791 0.641 1.43 1.43 1.43zM15.633 14.498c-0.353 0.179-0.495 0.608-0.317 0.961 0.126 0.249 0.377 0.393 0.638 0.393 0.109 0 0.217-0.024 0.322-0.076 1.446-0.729 2.343-2.175 2.343-3.776s-0.898-3.047-2.343-3.776c-0.353-0.179-0.781-0.036-0.959 0.317-0.177 0.353-0.036 0.782 0.317 0.961 0.959 0.483 1.556 1.44 1.556 2.498s-0.596 2.015-1.556 2.498zM14.649 20.206c0.067 0.342 0.366 0.578 0.701 0.578 0.046 0 0.091-0.004 0.139-0.013 4.192-0.818 7.235-4.507 7.235-8.77s-3.043-7.952-7.236-8.77c-0.382-0.077-0.764 0.177-0.838 0.565-0.076 0.387 0.177 0.764 0.565 0.839 3.523 0.686 6.079 3.785 6.079 7.366s-2.556 6.68-6.079 7.366c-0.387 0.076-0.641 0.452-0.565 0.839z"></path>
</svg>
