<svg xmlns="http://www.w3.org/2000/svg" viewBox="0 0 1024 1024"><path d="M690.598 711.931V533.333c0-32.862 26.672-59.532 59.532-59.532h178.598V354.737c0-32.862-26.672-59.532-59.532-59.532h-68.344L771.8 122.621a29.672 29.672 0 0 0-12.264-19.408c-6.548-4.584-14.704-6.192-22.504-4.94L149.384 206.385c-7.8 1.428-14.764 5.952-19.228 12.56s-6.132 14.704-4.524 22.564l10.656 53.7H95.27c-32.862 0-59.532 26.672-59.532 59.532v535.793c0 32.862 26.672 59.532 59.532 59.532h773.924c32.862 0 59.532-26.672 59.532-59.532V771.47H750.128c-32.862 0-59.532-26.672-59.532-59.532zm-500.73-452.45L718.1 162.265l22.384 132.936H196.952l-7.084-35.72zm768.628 273.852H750.132v178.598h208.364c16.432 0 29.768-13.336 29.768-29.768V563.099c0-16.432-13.336-29.768-29.768-29.768zM839.428 652.397c-16.432 0-29.768-13.336-29.768-29.768s13.336-29.768 29.768-29.768 29.768 13.336 29.768 29.768c0 16.432-13.336 29.768-29.768 29.768z"/></svg>