<!-- Generated by IcoMoon.io -->
<svg version="1.1" xmlns="http://www.w3.org/2000/svg" width="24" height="24" viewBox="0 0 24 24">
<title>wallet</title>
<path d="M16.186 16.186v-4.186c0-0.77 0.625-1.395 1.395-1.395h4.186v-2.791c0-0.77-0.625-1.395-1.395-1.395h-1.602l-0.681-4.045c-0.031-0.184-0.135-0.349-0.287-0.455-0.153-0.107-0.345-0.145-0.527-0.116l-13.773 2.534c-0.183 0.033-0.346 0.139-0.451 0.294s-0.144 0.345-0.106 0.529l0.25 1.259h-0.961c-0.77 0-1.395 0.625-1.395 1.395v12.558c0 0.77 0.625 1.395 1.395 1.395h18.139c0.77 0 1.395-0.625 1.395-1.395v-2.791h-4.186c-0.77 0-1.395-0.625-1.395-1.395zM4.45 5.582l12.38-2.278 0.525 3.116h-12.739l-0.166-0.837zM22.465 12h-4.884v4.186h4.884c0.385 0 0.698-0.313 0.698-0.698v-2.791c0-0.385-0.313-0.698-0.698-0.698zM19.674 14.791c-0.385 0-0.698-0.313-0.698-0.698s0.313-0.698 0.698-0.698 0.698 0.313 0.698 0.698c0 0.385-0.313 0.698-0.698 0.698z"></path>
</svg>
