<!-- Generated by IcoMoon.io -->
<svg version="1.1" xmlns="http://www.w3.org/2000/svg" width="24" height="24" viewBox="0 0 24 24">
<title>warning-fill</title>
<path d="M17.241 0.801c-0.273-0.273-0.642-0.426-1.029-0.426h-8.425c-0.385 0-0.756 0.153-1.027 0.426l-5.958 5.959c-0.275 0.272-0.427 0.641-0.427 1.027v8.427c0 0.385 0.153 0.756 0.426 1.027l5.958 5.959c0.273 0.272 0.642 0.424 1.029 0.424h8.427c0.385 0 0.756-0.153 1.027-0.426l5.958-5.959c0.273-0.272 0.426-0.641 0.426-1.027v-8.425c0-0.385-0.153-0.756-0.426-1.027l-5.958-5.959zM12 14.906c-0.802 0-1.453-0.651-1.453-1.453v-8.719c0-0.802 0.651-1.453 1.453-1.453s1.453 0.651 1.453 1.453v8.719c0 0.802-0.651 1.453-1.453 1.453zM13.453 19.266c0 0.802-0.651 1.453-1.453 1.453s-1.453-0.651-1.453-1.453c0-0.802 0.651-1.453 1.453-1.453s1.453 0.651 1.453 1.453z"></path>
</svg>
