<!-- Generated by IcoMoon.io -->
<svg version="1.1" xmlns="http://www.w3.org/2000/svg" width="24" height="24" viewBox="0 0 24 24">
<title>warning-square</title>
<path d="M1.050 1.017v21.917h21.917v-21.917h-21.917zM12.008 19.458c-0.875 0-1.583-0.708-1.583-1.583s0.708-1.583 1.583-1.583c0.875 0 1.583 0.708 1.583 1.583s-0.708 1.583-1.583 1.583zM13.342 13.525c0 0.85-0.508 1.533-1.142 1.533h-0.392c-0.625 0-1.142-0.683-1.142-1.533l-0.458-7.5c0-0.85 0.683-1.533 1.533-1.533h0.525c0.85 0 1.533 0.683 1.533 1.533l-0.458 7.5z"></path>
</svg>
