<!-- Generated by IcoMoon.io -->
<svg version="1.1" xmlns="http://www.w3.org/2000/svg" width="24" height="24" viewBox="0 0 24 24">
<title>warning-circle</title>
<path d="M12 0.683c-6.242 0-11.317 5.075-11.317 11.317s5.075 11.317 11.317 11.317c6.242 0 11.317-5.075 11.317-11.317s-5.075-11.317-11.317-11.317zM12 19.15c-0.833 0-1.517-0.675-1.517-1.517 0-0.833 0.675-1.517 1.517-1.517 0.833 0 1.517 0.675 1.517 1.517s-0.683 1.517-1.517 1.517zM13.275 13.475c0 0.808-0.483 1.467-1.092 1.467h-0.375c-0.6 0-1.092-0.658-1.092-1.467l-0.442-7.167c0-0.808 0.658-1.467 1.467-1.467h0.5c0.808 0 1.467 0.658 1.467 1.467l-0.433 7.167z"></path>
</svg>
