<svg xmlns="http://www.w3.org/2000/svg" viewBox="0 0 1024 1024"><path d="M735.632 55.503c-11.656-11.656-27.404-18.166-43.896-18.166H332.262c-16.43 0-32.24 6.51-43.834 18.166L34.23 309.763c-11.718 11.594-18.228 27.342-18.228 43.834v359.536c0 16.43 6.51 32.24 18.166 43.834l254.198 254.26a62.181 62.181 0 0 0 43.896 18.104h359.536c16.43 0 32.24-6.51 43.834-18.166l254.198-254.26c11.656-11.594 18.166-27.342 18.166-43.834V353.597c0-16.43-6.51-32.24-18.166-43.834L735.632 55.503zM512 657.333c-34.224 0-62-27.776-62-62V223.335c0-34.224 27.776-62 62-62s62 27.776 62 62v371.998c0 34.224-27.776 62-62 62zm62 185.998c0 34.224-27.776 62-62 62s-62-27.776-62-62c0-34.224 27.776-62 62-62s62 27.776 62 62z"/></svg>