<svg xmlns="http://www.w3.org/2000/svg" viewBox="0 0 1024 1024"><path d="M80.854 966.397h860.312a61.882 61.882 0 0 0 53.082-30.067c11.198-18.622 11.754-41.76 1.546-60.938L566.566 71.13c-10.702-20.106-31.676-32.728-54.504-32.728H512c-22.828 0-43.74 12.558-54.504 32.666L26.35 875.33c-10.27 19.178-9.713 42.316 1.422 61 11.198 18.622 31.366 30.067 53.082 30.067zM512 718.931c34.15 0 61.866 27.716 61.866 61.866S546.15 842.663 512 842.663s-61.866-27.716-61.866-61.866S477.85 718.931 512 718.931zm-61.866-122.742V348.724c0-34.15 27.716-61.866 61.866-61.866s61.866 27.716 61.866 61.866v247.465c0 34.15-27.716 61.866-61.866 61.866s-61.866-27.716-61.866-61.866z"/></svg>