<!-- Generated by IcoMoon.io -->
<svg version="1.1" xmlns="http://www.w3.org/2000/svg" width="24" height="24" viewBox="0 0 24 24">
<title>warning-triangle</title>
<path d="M1.895 22.15h20.164c0.509 0 0.982-0.267 1.244-0.705 0.262-0.436 0.275-0.979 0.036-1.428l-10.060-18.85c-0.251-0.471-0.742-0.767-1.277-0.767h-0.001c-0.535 0-1.025 0.294-1.277 0.766l-10.105 18.85c-0.241 0.449-0.228 0.992 0.033 1.43 0.262 0.436 0.735 0.705 1.244 0.705zM12 16.35c0.8 0 1.45 0.65 1.45 1.45s-0.65 1.45-1.45 1.45-1.45-0.65-1.45-1.45c0-0.8 0.65-1.45 1.45-1.45zM10.55 13.473v-5.8c0-0.8 0.65-1.45 1.45-1.45s1.45 0.65 1.45 1.45v5.8c0 0.8-0.65 1.45-1.45 1.45s-1.45-0.65-1.45-1.45z"></path>
</svg>
