<svg xmlns="http://www.w3.org/2000/svg" viewBox="0 0 1024 1024"><path d="M512 50.489c-266.311 0-482.844 216.533-482.844 482.844S245.689 1016.177 512 1016.177c266.311 0 482.844-216.533 482.844-482.844S778.311 50.489 512 50.489zm0 787.911c-35.556 0-64.711-28.8-64.711-64.711 0-35.556 28.8-64.711 64.711-64.711 35.556 0 64.711 28.8 64.711 64.711S547.555 838.4 512 838.4zm54.4-242.134c0 34.489-20.622 62.578-46.578 62.578h-16c-25.6 0-46.578-28.089-46.578-62.578L438.4 290.488c0-34.489 28.089-62.578 62.578-62.578h21.333c34.489 0 62.578 28.089 62.578 62.578L566.4 596.266z"/></svg>