<!-- Generated by IcoMoon.io -->
<svg version="1.1" xmlns="http://www.w3.org/2000/svg" width="24" height="24" viewBox="0 0 24 24">
<title>wash</title>
<path d="M23.148 8.34c0.018-0.108-0.084-1.080-0.282-1.476-0.108-0.222-0.396-0.408-0.624-0.492-0.474-0.162-0.984 0.24-1.17 1.038-0.186 0.804-0.126 1.944-0.144 1.992-0.078 0.222-0.426-1.932-2.124-5.988-0.24-0.576-0.432-1.020-0.516-1.254-0.090-0.246-0.258-0.432-0.486-0.54-0.228-0.102-0.48-0.12-0.714-0.036-0.504 0.18-0.744 0.72-0.576 1.2l1.452 4.104c-0.096 0.108-0.204 0.21-0.306 0.258-0.198 0.096-0.432 0.102-0.6 0.084l-2.334-5.61c-0.21-0.48-0.756-0.702-1.236-0.504l-0.036 0.018c-0.45 0.21-0.66 0.762-0.468 1.224l2.394 5.748c-0.090 0.096-0.192 0.192-0.288 0.234-0.198 0.096-0.426 0.102-0.594 0.084l-2.328-4.98c-0.222-0.474-0.78-0.678-1.254-0.456s-0.678 0.78-0.456 1.254l2.112 4.512c0.834 0.27 1.608 0.618 2.292 0.96l0.324 0.168v0.006c0.024 0.042 0.060 0.066 0.108 0.060 0 0 0.006 0 0.006 0l0.318 0.168c0.264 0.144 0.504 0.276 0.72 0.396 1.14 0.624 3.42 1.872 4.080 3.042 0.786 1.404 1.302 2.856 0.756 4.68 0.906-0.714 1.578-1.746 1.788-2.934 0.546-3.15 0.174-6.864 0.186-6.96z"></path>
<path d="M8.928 5.634c-0.462 0.216-0.666 0.78-0.444 1.248l0.852 1.824c0.372-0.258 0.978-0.462 1.956-0.282l-1.098-2.34c-0.222-0.474-0.78-0.678-1.254-0.456l-0.012 0.006z"></path>
<path d="M5.526 7.128c0 1.359-1.101 2.46-2.46 2.46s-2.46-1.101-2.46-2.46c0-1.359 1.101-2.46 2.46-2.46s2.46 1.101 2.46 2.46z"></path>
<path d="M8.738 1.535c0.651 0.651 0.651 1.707 0 2.359s-1.707 0.651-2.359 0c-0.651-0.651-0.651-1.707 0-2.359s1.707-0.651 2.359 0z"></path>
<path d="M18.768 17.748c0.48 0 0.93 0.126 1.326 0.348 0.498-1.86-0.204-4.044-1.878-5.226-2.61-1.848-6.132-3.090-6.216-3.138-0.096-0.060-1.014-0.384-1.458-0.372-0.246 0.006-0.54 0.186-0.714 0.36-0.348 0.36-0.204 0.99 0.444 1.5s1.71 0.942 1.746 0.978c0.174 0.162-1.926-0.438-6.318-0.618-0.624-0.024-1.104-0.036-1.356-0.060-0.258-0.024-0.498 0.048-0.696 0.21-0.186 0.162-0.312 0.384-0.336 0.636-0.048 0.534 0.336 0.984 0.846 1.032l5.49 0.534c0.048 0.012 0.084 0.036 0.102 0.084 0.060 0.258 0.036 0.522-0.072 0.756-0.012 0.036-0.048 0.060-0.102 0.060l-7.23-0.312c-0.522-0.012-0.954 0.384-0.984 0.906v0.036c0 0.498 0.408 0.918 0.906 0.942l7.752 0.336c0.036 0 0.102 0.036 0.114 0.072 0.072 0.234 0.072 0.486-0.012 0.72-0.012 0.048-0.048 0.072-0.102 0.072h-7.116c-0.522 0-0.942 0.42-0.942 0.942s0.42 0.942 0.942 0.942h7.128c0.036 0 0.084 0.036 0.102 0.072 0.102 0.288 0.072 0.594-0.048 0.87-0.024 0.036-0.060 0.060-0.102 0.060h-5.514c-0.522 0-0.942 0.42-0.942 0.942v0.012c0 0.51 0.42 0.93 0.942 0.93h7.566c0.63 0.018 3.222 0.036 4.176-0.036 0.192-0.012 0.372-0.048 0.552-0.090-0.438-0.48-0.702-1.116-0.702-1.818-0.006-1.47 1.212-2.682 2.706-2.682z"></path>
<path d="M18.852 18.54c-1.086 0-1.962 0.876-1.962 1.962 0 0.582 0.252 1.098 0.654 1.458-0.006 0.006-0.012 0.006-0.018 0.012 0.102 0.084 0.216 0.156 0.33 0.216 0.294 0.174 0.63 0.276 0.996 0.276 1.086 0 1.962-0.876 1.962-1.962s-0.876-1.962-1.962-1.962z"></path>
</svg>
