<svg xmlns="http://www.w3.org/2000/svg" viewBox="0 0 1024 1024"><path d="M987.648 377.173c.768-4.608-3.584-46.08-12.032-62.976-4.608-9.472-16.896-17.408-26.624-20.992-20.224-6.912-41.984 10.24-49.92 44.288-7.936 34.304-5.376 82.944-6.144 84.992-3.328 9.472-18.176-82.432-90.624-255.488-10.24-24.576-18.432-43.52-22.016-53.504-3.84-10.496-11.008-18.432-20.736-23.04-9.728-4.352-20.48-5.12-30.464-1.536-21.504 7.68-31.744 30.72-24.576 51.2l61.952 175.104c-4.096 4.608-8.704 8.96-13.056 11.008-8.448 4.096-18.432 4.352-25.6 3.584l-99.584-239.36c-8.96-20.48-32.256-29.952-52.736-21.504l-1.536.768c-19.2 8.96-28.16 32.512-19.968 52.224l102.144 245.248c-3.84 4.096-8.192 8.192-12.288 9.984-8.448 4.096-18.176 4.352-25.344 3.584l-99.328-212.48c-9.472-20.224-33.28-28.928-53.504-19.456s-28.928 33.28-19.456 53.504l90.112 192.512c35.584 11.52 68.608 26.368 97.792 40.96l13.824 7.168v.256c1.024 1.792 2.56 2.816 4.608 2.56h.256l13.568 7.168a4555.623 4555.623 0 0 1 30.72 16.896c48.64 26.624 145.92 79.872 174.08 129.792 33.536 59.904 55.552 121.856 32.256 199.68 38.656-30.464 67.328-74.496 76.288-125.184 23.296-134.4 7.424-292.864 7.936-296.96zm-606.72-115.456c-19.712 9.216-28.416 33.28-18.944 53.248l36.352 77.824c15.872-11.008 41.728-19.712 83.456-12.032l-46.848-99.84c-9.472-20.224-33.28-28.928-53.504-19.456l-.512.256zm-145.152 63.744c0 57.968-46.992 104.96-104.96 104.96s-104.96-46.992-104.96-104.96c0-57.968 46.992-104.96 104.96-104.96s104.96 46.992 104.96 104.96zM372.825 86.817c27.793 27.793 27.793 72.853 0 100.646s-72.853 27.793-100.646 0c-27.793-27.793-27.793-72.853 0-100.646s72.853-27.793 100.646 0zm427.943 691.764c20.48 0 39.68 5.376 56.576 14.848 21.248-79.36-8.704-172.544-80.128-222.976C665.856 491.605 515.584 438.613 512 436.565c-4.096-2.56-43.264-16.384-62.208-15.872-10.496.256-23.04 7.936-30.464 15.36-14.848 15.36-8.704 42.24 18.944 64s72.96 40.192 74.496 41.728c7.424 6.912-82.176-18.688-269.568-26.368-26.624-1.024-47.104-1.536-57.856-2.56-11.008-1.024-21.248 2.048-29.696 8.96-7.936 6.912-13.312 16.384-14.336 27.136-2.048 22.784 14.336 41.984 36.096 44.032l234.24 22.784c2.048.512 3.584 1.536 4.352 3.584 2.56 11.008 1.536 22.272-3.072 32.256-.512 1.536-2.048 2.56-4.352 2.56l-308.48-13.312c-22.272-.512-40.704 16.384-41.984 38.656v1.536c0 21.248 17.408 39.168 38.656 40.192l330.752 14.336c1.536 0 4.352 1.536 4.864 3.072 3.072 9.984 3.072 20.736-.512 30.72-.512 2.048-2.048 3.072-4.352 3.072H123.904c-22.272 0-40.192 17.92-40.192 40.192s17.92 40.192 40.192 40.192h304.128c1.536 0 3.584 1.536 4.352 3.072 4.352 12.288 3.072 25.344-2.048 37.12-1.024 1.536-2.56 2.56-4.352 2.56H190.72c-22.272 0-40.192 17.92-40.192 40.192v.512c0 21.76 17.92 39.68 40.192 39.68h322.816c26.88.768 137.472 1.536 178.176-1.536 8.192-.512 15.872-2.048 23.552-3.84-18.688-20.48-29.952-47.616-29.952-77.568-.256-62.72 51.712-114.432 115.456-114.432zm3.584 33.792c-46.336 0-83.712 37.376-83.712 83.712 0 24.832 10.752 46.848 27.904 62.208-.256.256-.512.256-.768.512 4.352 3.584 9.216 6.656 14.08 9.216 12.544 7.424 26.88 11.776 42.496 11.776 46.336 0 83.712-37.376 83.712-83.712s-37.376-83.712-83.712-83.712z"/></svg>