<svg xmlns="http://www.w3.org/2000/svg" viewBox="0 0 1024 1024"><path d="M128.128 252.047c-56.258 79.422-89.35 175.39-89.35 281.286s33.092 201.864 89.35 281.286v-562.57zm565.88-86.04L899.18 367.871v443.438c56.258-79.422 89.35-175.39 89.35-281.286 0-264.738-211.792-483.148-473.22-483.148-115.824 0-225.028 43.02-307.758 115.824-3.31 3.31 486.458 3.31 486.458 3.31zm148.916 251.502H644.37l-3.31-198.554H181.076v658.538c86.04 86.04 201.864 138.988 330.924 138.988s244.884-52.948 330.924-138.988V417.509zm-89.35 109.206L594.73 847.711h-76.112v-215.1L399.486 844.403H283.662V523.407H247.26v-52.948h152.224v52.948h-36.402v195.244l145.606-248.192h86.04v221.718l82.73-168.772h-29.784v-52.948h138.988v52.948H753.57z"/></svg>