<!-- Generated by IcoMoon.io -->
<svg version="1.1" xmlns="http://www.w3.org/2000/svg" width="24" height="24" viewBox="0 0 24 24">
<title>word</title>
<path d="M3.003 5.407c-1.319 1.861-2.094 4.111-2.094 6.593s0.776 4.731 2.094 6.593v-13.185z"></path>
<path d="M16.266 3.391l4.809 4.731v10.393c1.319-1.861 2.094-4.111 2.094-6.593 0-6.205-4.964-11.324-11.091-11.324-2.715 0-5.274 1.008-7.213 2.715-0.078 0.078 11.401 0.078 11.401 0.078z"></path>
<path d="M19.756 9.285h-4.654l-0.078-4.654h-10.781v15.434c2.017 2.017 4.731 3.258 7.756 3.258s5.739-1.241 7.756-3.258v-10.781zM17.662 11.845l-3.723 7.523h-1.784v-5.041l-2.792 4.964h-2.715v-7.523h-0.853v-1.241h3.568v1.241h-0.853v4.576l3.413-5.817h2.017v5.197l1.939-3.956h-0.698v-1.241h3.258v1.241h-0.776z"></path>
</svg>
