<svg xmlns="http://www.w3.org/2000/svg" viewBox="0 0 1024 1024"><path d="M779.8 584.133h208l18.2-18h-38.4l-9.8-11.4c-5.2-6.2-12.8-9.6-20.4-9.6H804.2c-7.6 0-15.2 3.4-20.4 9.6l-9.8 11.4h-19l9.2 10.6c3.8 4.6 9.6 7.4 15.6 7.4zm88.2-18h-49.4v-14.8H868v14.8zm5.6-14.8H923v15h-49.4v-15zm80.2 7.6l6.2 7.2h-31.8v-14.8h9c6.4 0 12.4 2.8 16.6 7.6zm-166.2 0c4.2-5 10.2-7.8 16.4-7.8h9v15h-31.8l6.4-7.2zm192 33.2H779.8c-8 0-15.6-3.6-21-10l-14-16H128l-41.4 67.2H26.4c-4.6 0-8.4 4.2-8.4 9.2s3.8 9.2 8.4 9.2h761c16.4 0 138.8-7 189.4-57.2l2.8-2.4zm-676-10.4h65.2v15.8h-65.2v-15.8zm-8 15.8h-65v-15.8h65v15.8zm-110.6-7.8c0-4.4 3.2-8 7.2-8h30v15.8h-30c-3.8 0-7.2-3.6-7.2-7.8zm221.8 7.8h-30v-15.8h30c4 0 7.2 3.6 7.2 8 0 4.2-3.2 7.8-7.2 7.8zm-114.4-61.6H182.8l-8.4 16.8h142l-8-9.4c-4.2-4.8-10-7.4-16-7.4zm498.4 136v-5.6c0-3-2.2-5.2-4.8-5.2H57c-2.6 0-4.8 2.4-4.8 5.2v5.6c0 3 2.2 5.2 4.8 5.2h729c2.6.2 4.8-2.2 4.8-5.2zm-418-383.8h-4.2v42.4h-5.2v-82.4h-4.2v82.4h-6.6v-11.8c0-5-3.6-9-8.2-9-4.4 0-8.2 4-8.2 9v11.8c-67.6.2-79.8 5.2-79.8 11.4 0 4.6 6.4 8.4 36 10.2l-39.4 74.8h-68l-13.8 19.8h56.2l-40.6 81h105.8c8 0 15.6 3.6 21 10l12.8 14.8h423c-14.6-16-32.6-26.2-51.6-29.4l-141.6-24.4c-8.8-1.6-17.2-5.6-24.4-12.2l-47.2-42c-8.4-7.6-18-12.8-28-15.4l.2-.2-9.6-11.2c-3.6-4.2-8.8-6.6-14.2-6.6h-88c-5.4 0-10.4 2.4-14.2 6.6l-8 9.4h-19.6l20.8-73.8c5.4 0 11.4.2 17.8.2 72.4 0 198-5.2 198-11.6 0-5.6-94.6-10.2-167-11.2v-42.6zm140 194.4H304.6l13.2-32.6h158l3 2.4 34 30.2zm-121.2-55.4v-10h30.8v10h-30.8zm-5.4 0h-30.8v-10h30.8v10zm57-5.2l5 5.6c-2.4-.2-4.8-.4-7.2-.4h-13v-10h5c3.8 0 7.6 1.8 10.2 4.8zm-108.4 0c2.6-3 6.4-4.8 10.2-4.8h5v10h-19.8l4.6-5.2z"/></svg>