<!-- Generated by IcoMoon.io -->
<svg version="1.1" xmlns="http://www.w3.org/2000/svg" width="24" height="24" viewBox="0 0 24 24">
<title>yacht</title>
<path d="M18.277 13.191h4.875l0.427-0.422h-0.9l-0.23-0.267c-0.122-0.145-0.3-0.225-0.478-0.225h-3.122c-0.178 0-0.356 0.080-0.478 0.225l-0.23 0.267h-0.445l0.216 0.248c0.089 0.108 0.225 0.173 0.366 0.173zM20.344 12.769h-1.158v-0.347h1.158v0.347zM20.475 12.422h1.158v0.352h-1.158v-0.352zM22.355 12.6l0.145 0.169h-0.745v-0.347h0.211c0.15 0 0.291 0.066 0.389 0.178zM18.459 12.6c0.098-0.117 0.239-0.183 0.384-0.183h0.211v0.352h-0.745l0.15-0.169z"></path>
<path d="M22.959 13.378h-4.683c-0.188 0-0.366-0.084-0.492-0.234l-0.328-0.375h-14.456l-0.97 1.575h-1.411c-0.108 0-0.197 0.098-0.197 0.216s0.089 0.216 0.197 0.216h17.836c0.384 0 3.253-0.164 4.439-1.341l0.066-0.056zM7.116 13.134h1.528v0.37h-1.528v-0.37zM6.928 13.505h-1.523v-0.37h1.523v0.37zM4.336 13.322c0-0.103 0.075-0.188 0.169-0.188h0.703v0.37h-0.703c-0.089 0-0.169-0.084-0.169-0.183zM9.534 13.505h-0.703v-0.37h0.703c0.094 0 0.169 0.084 0.169 0.188 0 0.098-0.075 0.183-0.169 0.183z"></path>
<path d="M6.853 12.061h-2.569l-0.197 0.394h3.328l-0.188-0.22c-0.098-0.112-0.234-0.173-0.375-0.173z"></path>
<path d="M18.534 15.248v-0.131c0-0.070-0.052-0.122-0.112-0.122h-17.086c-0.061 0-0.112 0.056-0.112 0.122v0.131c0 0.070 0.052 0.122 0.112 0.122h17.086c0.061 0.005 0.112-0.052 0.112-0.122z"></path>
<path d="M8.738 6.253h-0.098v0.994c-0.042 0-0.080 0-0.122 0v-1.931h-0.098v1.931c-0.052 0-0.103 0-0.155 0v-0.277c0-0.117-0.084-0.211-0.192-0.211v0c-0.103 0-0.192 0.094-0.192 0.211v0.277c-1.584 0.005-1.87 0.122-1.87 0.267 0 0.108 0.15 0.197 0.844 0.239l-0.923 1.753h-1.594l-0.323 0.464h1.317l-0.952 1.898h2.48c0.188 0 0.366 0.084 0.492 0.234l0.3 0.347h9.914c-0.342-0.375-0.764-0.614-1.209-0.689l-3.319-0.572c-0.206-0.037-0.403-0.131-0.572-0.286l-1.106-0.984c-0.197-0.178-0.422-0.3-0.656-0.361l0.005-0.005-0.225-0.263c-0.084-0.098-0.206-0.155-0.333-0.155h-2.063c-0.127 0-0.244 0.056-0.333 0.155l-0.188 0.22h-0.459l0.488-1.73c0.127 0 0.267 0.005 0.417 0.005 1.697 0 4.641-0.122 4.641-0.272 0-0.131-2.217-0.239-3.914-0.263v-0.998zM12.019 10.809h-4.88l0.309-0.764h3.703c0.023 0.019 0.047 0.037 0.070 0.056l0.797 0.708zM9.178 9.511v-0.234h0.722v0.234h-0.722zM9.052 9.511h-0.722v-0.234h0.722v0.234zM10.387 9.389l0.117 0.131c-0.056-0.005-0.113-0.009-0.169-0.009h-0.305v-0.234h0.117c0.089 0 0.178 0.042 0.239 0.113zM7.847 9.389c0.061-0.070 0.15-0.113 0.239-0.113h0.117v0.234h-0.464l0.108-0.122z"></path>
</svg>
