<!-- Generated by IcoMoon.io -->
<svg version="1.1" xmlns="http://www.w3.org/2000/svg" width="24" height="24" viewBox="0 0 24 24">
<title>youtube</title>
<path d="M22.962 6.647c0 0-0.255-1.614-0.85-2.209-0.85-0.85-1.785-0.85-2.209-0.935-3.229-0.255-7.903-0.255-7.903-0.255s-4.674 0-7.903 0.255c-0.425 0-1.36 0-2.209 0.935-0.68 0.68-0.85 2.209-0.85 2.209s-0.255 1.954-0.255 3.739v1.699c0 1.954 0.255 3.739 0.255 3.739s0.255 1.614 0.85 2.209c0.85 0.85 1.954 0.85 2.464 0.935 1.785 0.085 7.648 0.255 7.648 0.255s4.674 0 7.903-0.255c0.425 0 1.36 0 2.209-0.935 0.68-0.68 0.85-2.209 0.85-2.209s0.255-1.785 0.255-3.739v-1.699c0-1.954-0.255-3.739-0.255-3.739zM8.686 15.909v-9.262l8.752 4.589-8.752 4.674z"></path>
</svg>
