<svg xmlns="http://www.w3.org/2000/svg" viewBox="0 0 1024 1024"><path d="M979.705 304.918s-10.875-68.885-36.255-94.265c-36.255-36.255-76.14-36.255-94.265-39.88-137.775-10.875-337.184-10.875-337.184-10.875s-199.41 0-337.184 10.875c-18.13 0-58.01 0-94.265 39.88-29.005 29.005-36.255 94.265-36.255 94.265s-10.875 83.39-10.875 159.525v72.51c0 83.39 10.875 159.525 10.875 159.525s10.875 68.885 36.255 94.265c36.255 36.255 83.39 36.255 105.145 39.88 76.14 3.625 326.305 10.875 326.305 10.875s199.41 0 337.184-10.875c18.13 0 58.01 0 94.265-39.88 29.005-29.005 36.255-94.265 36.255-94.265s10.875-76.14 10.875-159.525v-72.51c0-83.39-10.875-159.525-10.875-159.525zM370.6 700.113V304.92l373.44 195.785-373.44 199.41z"/></svg>