<!-- Generated by IcoMoon.io -->
<svg version="1.1" xmlns="http://www.w3.org/2000/svg" width="24" height="24" viewBox="0 0 24 24">
<title>zipped-file</title>
<path d="M9.063 19.709h1.652v0.918h-1.652v-0.918z"></path>
<path d="M16.221 3.374l4.772 4.772v10.462c1.285-1.835 2.111-4.13 2.111-6.607 0-6.24-5.047-11.379-11.196-11.379-2.753 0-5.323 1.009-7.25 2.753 0.092 0 11.563 0 11.563 0z"></path>
<path d="M2.915 5.393c-1.285 1.835-2.111 4.13-2.111 6.607s0.734 4.772 2.111 6.607v-13.215z"></path>
<path d="M19.8 9.247h-4.68v-4.68h-3.854v1.377h-1.377v-1.377h-5.69v15.509c1.193 1.193 2.661 2.111 4.313 2.661v-4.13h2.753v4.588c0.275 0 0.459 0 0.734 0 3.028 0 5.782-1.285 7.8-3.304v-10.645zM9.798 16.313h-1.377v-1.377h1.377v1.377zM9.798 13.377h-1.377v-1.377h1.377v1.377zM9.798 10.44h-1.377v-1.377h1.377v1.377zM9.798 7.503h-1.377v-1.377h1.377v1.377zM11.266 17.873h-1.377v-1.377h1.377v1.377zM11.266 14.845h-1.377v-1.377h1.377v1.377zM11.266 11.908h-1.377v-1.377h1.377v1.377zM11.266 8.972h-1.377v-1.377h1.377v1.377zM17.965 18.516v1.285h-4.956v-1.193l3.212-5.047h-3.12v-1.285h4.772v1.193l-3.12 5.047h3.212z"></path>
</svg>
