<svg xmlns="http://www.w3.org/2000/svg" viewBox="0 0 1024 1024"><path d="M386.705 862.23h70.481v39.15h-70.481v-39.15zm305.407-696.955l203.606 203.606V815.25c54.821-78.311 90.056-176.197 90.056-281.917 0-266.257-215.351-485.523-477.693-485.523-117.465 0-227.096 43.069-309.322 117.465h493.353zm-567.745 86.141c-54.821 78.311-90.056 176.197-90.056 281.917s31.32 203.606 90.056 281.917V251.416zm720.445 164.452H645.121V216.177H480.669v58.736h-58.736v-58.736H179.17v661.72c50.906 50.906 113.55 90.056 184.031 113.55V815.25h117.465v195.776h31.32c129.21 0 246.678-54.821 332.812-140.955V415.872zM418.029 717.364h-58.736v-58.736h58.736v58.736zm0-125.295h-58.736v-58.736h58.736v58.736zm0-125.302h-58.736v-58.736h58.736v58.736zm0-125.295h-58.736v-58.736h58.736v58.736zm62.651 442.454h-58.736V725.19h58.736v58.736zm0-129.213h-58.736v-58.736h58.736v58.736zm0-125.295h-58.736v-58.736h58.736v58.736zm0-125.295h-58.736v-58.736h58.736v58.736zm285.832 407.212v54.821H555.076V815.25l137.04-215.351H558.991v-54.821h203.606v50.906L629.472 811.335h137.04z"/></svg>