<!-- Generated by IcoMoon.io -->
<svg version="1.1" xmlns="http://www.w3.org/2000/svg" width="24" height="24" viewBox="0 0 24 24">
<title>zoo-alt</title>
<path d="M22.908 12.834c-0.234-2.217-0.966-6.305-5.175-8.405-3.652-1.819-5.184-1.294-4.5 1.711 0.023 0.098-0.019 0.197-0.103 0.253-0.089 0.056-0.192 0.052-0.277-0.014-5.662-4.472-13.791 4.533-11.555 10.345 1.069 2.78 4.697 4.13 7.448 3.244 3.97-1.275 3.394-6.698-0.084-6.9-1.58-0.094-3.103 0.783-3.141 2.503-0.033 1.472 1.308 2.728 2.93 1.758 1.256-0.755 1.003-2.428 0.169-2.175-0.839 0.253 0.169 0.961-0.797 1.425-1.163 0.553-1.809-1.777 0.22-2.142 0.637-0.117 1.383 0.047 1.87 0.848 0.919 1.505-0.417 3.347-2.719 3.558-4.552 0.413-4.111-7.889 2.208-6.886 0.637 0.103 1.237 0.281 1.819 0.506 0.844 0.323 1.341 1.308 1.552 2.194 0.145 0.605 0 0.9-0.084 1.777s0.755 0.919 1.172 0.877c0.417-0.042-0.417-1.003 0.019-1.317 0.441-0.314 0.755 0.042 1.57 0.169s0.253-0.731-0.23-1.069c-0.483-0.333-1.069-0.188-1.505-0.773-0.281-0.38-0.319-1.027-0.375-1.495l0.445 0.825c0.942 0.455 1.922 0.886 3.028 1.125 2.775 0.6 6.323 0.277 6.094-1.941zM18.581 13.102c-1.158 0-2.091-0.938-2.091-2.091 0-1.158 0.938-2.091 2.091-2.091s2.091 0.938 2.091 2.091c0 1.153-0.938 2.091-2.091 2.091z"></path>
<path d="M18.581 9.759c-0.689 0-1.247 0.558-1.247 1.247s0.558 1.247 1.247 1.247 1.247-0.558 1.247-1.247c0-0.684-0.558-1.247-1.247-1.247zM18.033 11.011c-0.23 0-0.417-0.188-0.417-0.417s0.188-0.417 0.417-0.417c0.23 0 0.417 0.188 0.417 0.417 0.005 0.23-0.183 0.417-0.417 0.417z"></path>
</svg>
