<svg xmlns="http://www.w3.org/2000/svg" viewBox="0 0 1024 1024"><path d="M514 637.733c19.2 2.4 32 0 36.4-4 11.8-10.8 61-62 61-62s-45.2 28.6-77.8 43.4c-32.4 14.8-229.4-136.8-238.2-152.6s56.2-183.2 115.2-192c59-8.8 118.8 7.2 138 .2 34-11.2 67-15.4 93.2-10.2 69 13.8 150.2 93.8 187.6 96s74.8-52.8 32-104.6c-43-52-123.4-70.6-140-96-9.6-14.8-7.6-34.8.8-48.8 4.4-6 11.2-3 14.6 5.4s8.8 9.2 12 6.2c3.2-2.8 7-9.8 8.8-9.8s3.2 1.8 4.2 5.8c1.2 6.2 4 13.4 11.4 21.2 18.6 19.4 172.2 49.2 215.8 151.4 69.4 163.2-86.4 250-223.2 262.2 43.4 15.6 78.4 17.8 89.6 18.2 17.6.6 35.4 4.2 22.6 13.6-12.6 9.4-63.6 19.6-160.4 6-4.2-.6-8.2-1.2-12-1.8-1.4 110.2-48.4 265-108.6 362.4v.2h217v18.8H65.4v-18.8H232c-48.6-80.4-94.2-177.6-112.4-275.8-35.2 44.6-53.4 105-53.4 105s1.6 3.8 9 30c7.6 26.4-8.2 76-8.2 76s-21-27.8-18.8-80.4c1.8-42 35.8-125.8 64.6-183.8v-.2c.8-41.8 14.4-71.8 32.8-93.4 17.2-26.8 97.6-63.4 107.8-65.2 10.4-2 13.2-3.4 13.2-3.4s-1.4 11.8 7.4 20.2c8.8 8.4 103.8 85.2 144.8 111.8 40.8 26.6 61.4 40 95.2 48.8zm-59.4 310.6c7-27.6 12.8-58.8 12.4-83.2-2.2-96-102.8-96-105 0-.6 24.4 5.4 55.4 12.4 83.2h80.2zm254.6-569.4c-16.2 0-29.2 13-29.2 29.2s13 29.2 29.2 29.2 29.2-13 29.2-29.2-13-29.2-29.2-29.2z"/></svg>