<!-- Generated by IcoMoon.io -->
<svg version="1.1" xmlns="http://www.w3.org/2000/svg" width="24" height="24" viewBox="0 0 24 24">
<title>zoo</title>
<path d="M12.047 14.447c0.45 0.056 0.75 0 0.853-0.094 0.277-0.253 1.43-1.453 1.43-1.453s-1.059 0.67-1.823 1.017c-0.759 0.347-5.377-3.206-5.583-3.577s1.317-4.294 2.7-4.5c1.383-0.206 2.784 0.169 3.234 0.005v0c0.797-0.263 1.57-0.361 2.184-0.239 1.617 0.323 3.52 2.198 4.397 2.25s1.753-1.237 0.75-2.452c-1.008-1.219-2.892-1.655-3.281-2.25-0.225-0.347-0.178-0.816 0.019-1.144 0.103-0.141 0.262-0.070 0.342 0.127s0.206 0.216 0.281 0.145c0.075-0.066 0.164-0.23 0.206-0.23s0.075 0.042 0.098 0.136v0c0.028 0.145 0.094 0.314 0.267 0.497 0.436 0.455 4.036 1.153 5.058 3.548 1.627 3.825-2.025 5.859-5.231 6.145 1.017 0.366 1.838 0.417 2.1 0.427 0.413 0.014 0.83 0.098 0.53 0.319-0.295 0.22-1.491 0.459-3.759 0.141-0.098-0.014-0.192-0.028-0.281-0.042-0.033 2.583-1.134 6.211-2.545 8.494v0.005h5.086v0.441h-17.545v-0.441h3.905c-1.139-1.884-2.208-4.162-2.634-6.464-0.825 1.045-1.252 2.461-1.252 2.461s0.037 0.089 0.211 0.703c0.178 0.619-0.192 1.781-0.192 1.781s-0.492-0.652-0.441-1.884c0.042-0.984 0.839-2.948 1.514-4.308v-0.005c0.019-0.98 0.338-1.683 0.769-2.189v0c0.403-0.628 2.288-1.486 2.527-1.528 0.244-0.047 0.309-0.080 0.309-0.080s-0.033 0.277 0.173 0.473c0.206 0.197 2.433 1.997 3.394 2.62 0.956 0.623 1.439 0.938 2.231 1.144v0zM10.655 21.727c0.164-0.647 0.3-1.378 0.291-1.95-0.052-2.25-2.409-2.25-2.461 0-0.014 0.572 0.127 1.298 0.291 1.95h1.88zM16.622 8.381c-0.38 0-0.684 0.305-0.684 0.684s0.305 0.684 0.684 0.684c0.38 0 0.684-0.305 0.684-0.684s-0.305-0.684-0.684-0.684z"></path>
</svg>
