<svg xmlns="http://www.w3.org/2000/svg" viewBox="0 0 1024 1024"><path d="M443.199 261.753c-57.937 3.62-105.011 28.967-133.982 57.937-32.587 32.587-57.937 86.908-57.937 144.842 0 61.561 25.347 112.255 61.561 144.842 123.118 119.495 347.624 32.587 344.001-148.465-3.62-123.118-94.148-206.403-213.646-199.159zm119.495 231.746H356.291c-21.727 0-39.834-18.107-39.834-39.834s18.107-39.834 39.834-39.834h206.403c21.727 0 39.834 18.107 39.834 39.834s-18.107 39.834-39.834 39.834zm202.783 278.827c-43.454-28.967-94.148-47.074-101.391-112.255-28.967 21.727-54.314 47.074-86.908 61.561-199.159 94.148-409.182-61.561-409.182-260.72 0-148.465 123.118-289.687 278.827-289.687 213.646 0 358.488 206.403 267.96 412.802 57.937-18.107 105.011 32.587 144.842 57.937 50.694 32.587 61.561 39.834 97.768 47.074 14.487-47.074 25.347-97.768 25.347-155.705 0-264.34-210.023-481.606-470.743-481.606S41.254 268.993 41.254 533.333s210.023 481.606 470.743 481.606c137.602 0 260.72-61.561 347.624-155.705-21.727-39.834-43.454-54.314-94.148-86.908z"/></svg>