<!-- Generated by IcoMoon.io -->
<svg version="1.1" xmlns="http://www.w3.org/2000/svg" width="24" height="24" viewBox="0 0 24 24">
<title>zoom-in</title>
<path d="M18.123 17.735c-1.085-0.698-2.325-1.085-2.48-2.635-0.697 0.465-1.318 1.085-2.092 1.473-4.805 2.248-9.92-1.473-9.92-6.278 0-3.565 2.945-6.975 6.743-6.975 5.193 0 8.68 5.038 6.433 9.998 1.395-0.465 2.48 0.775 3.488 1.395 1.24 0.853 1.55 0.93 2.403 1.163 0.388-1.24 0.698-2.48 0.698-3.875 0-6.355-5.115-11.625-11.393-11.625s-11.393 5.27-11.393 11.625 5.115 11.625 11.393 11.625c3.333 0 6.278-1.473 8.37-3.798-0.465-0.93-1.007-1.24-2.248-2.092z"></path>
<path d="M10.373 5.412c-1.395 0.077-2.558 0.698-3.178 1.395-0.775 0.775-1.395 2.092-1.395 3.488 0 1.55 0.62 2.713 1.473 3.487 2.945 2.868 8.37 0.775 8.293-3.565-0.155-2.945-2.403-4.96-5.193-4.805zM13.24 11.070h-1.473v1.86c0 0.542-0.465 1.007-1.007 1.007s-1.007-0.465-1.007-1.007v-1.86h-1.473c-0.542 0-1.007-0.465-1.007-1.007s0.465-1.007 1.007-1.007h1.473v-1.163c0-0.542 0.465-1.007 1.007-1.007s1.007 0.465 1.007 1.007v1.163h1.473c0.542 0 1.007 0.465 1.007 1.007s-0.465 1.007-1.007 1.007z"></path>
</svg>
