<!-- Generated by IcoMoon.io -->
<svg version="1.1" xmlns="http://www.w3.org/2000/svg" width="24" height="24" viewBox="0 0 24 24">
<title>zoom-out</title>
<path d="M10.387 5.635c-1.358 0.085-2.461 0.679-3.14 1.358-0.764 0.764-1.358 2.037-1.358 3.395 0 1.443 0.594 2.631 1.443 3.395 2.886 2.801 8.147 0.764 8.063-3.48-0.085-2.886-2.207-4.838-5.007-4.668zM13.188 11.066h-4.838c-0.509 0-0.934-0.424-0.934-0.934s0.424-0.934 0.934-0.934h4.838c0.509 0 0.934 0.424 0.934 0.934s-0.424 0.934-0.934 0.934z"></path>
<path d="M17.941 17.601c-1.018-0.679-2.207-1.103-2.376-2.631-0.679 0.509-1.273 1.103-2.037 1.443-4.668 2.207-9.59-1.443-9.59-6.111 0-3.48 2.886-6.79 6.535-6.79 5.007 0 8.402 4.838 6.28 9.675 1.358-0.424 2.461 0.764 3.395 1.358 1.188 0.764 1.443 0.934 2.291 1.103 0.34-1.103 0.594-2.291 0.594-3.649 0-6.195-4.922-11.288-11.033-11.288s-11.033 5.092-11.033 11.288 4.922 11.288 11.033 11.288c3.225 0 6.111-1.443 8.147-3.649-0.509-0.934-1.018-1.273-2.207-2.037z"></path>
</svg>
