<svg xmlns="http://www.w3.org/2000/svg" viewBox="0 0 1024 1024"><path d="M773.228 778.027c-46.294-29.76-99.2-46.294-105.814-112.428-29.76 19.84-56.214 46.294-89.28 62.828-205.014 95.894-423.256-62.828-423.256-267.842 0-152.108 125.654-297.602 287.682-297.602 221.548 0 370.35 214.934 274.456 426.562 59.52-19.84 105.814 33.066 148.8 59.52 52.908 36.374 66.134 39.68 102.508 49.6 16.534-52.908 29.76-105.814 29.76-165.334 0-271.148-218.242-496.004-486.084-496.004S25.916 262.181 25.916 533.331 244.158 1029.335 512 1029.335c142.188 0 267.842-62.828 357.122-162.028-19.84-39.68-42.986-52.908-95.894-89.28zM442.56 252.265c-59.52 3.306-109.12 29.76-135.574 59.52-33.066 33.066-59.52 89.28-59.52 148.8 0 66.134 26.454 115.734 62.828 148.8 125.654 122.348 357.122 33.066 353.816-152.108-6.614-125.654-102.508-211.628-221.548-205.014zm122.348 241.388H502.08v79.36c0 23.146-19.84 42.986-42.986 42.986s-42.986-19.84-42.986-42.986v-79.36H353.28c-23.146 0-42.986-19.84-42.986-42.986s19.84-42.986 42.986-42.986h62.828v-49.6c0-23.146 19.84-42.986 42.986-42.986s42.986 19.84 42.986 42.986v49.6h62.828c23.146 0 42.986 19.84 42.986 42.986s-19.84 42.986-42.986 42.986z"/></svg>