<svg viewBox="0 0 440 250" fill="none" xmlns="http://www.w3.org/2000/svg">
<path d="M434.877 140H5.12343C2.25431 140 0 138.02 0 135.499V43.5009C0 40.9804 2.25431 39 5.12343 39H434.877C437.746 39 440 40.9804 440 43.5009V135.499C440 138.02 437.643 140 434.877 140Z" fill="#B3C9EB"/>
<path d="M434.877 250H5.12343C2.25431 250 0 247.806 0 245.014V215.796C0 213.003 2.25431 210.81 5.12343 210.81H434.877C437.746 210.81 440 213.003 440 215.796V245.014C440 247.806 437.643 250 434.877 250Z" fill="#4D80D0"/>
<path d="M434.877 195.19H5.12343C2.25431 195.19 0 192.996 0 190.204V160.986C0 158.194 2.25431 156 5.12343 156H434.877C437.746 156 440 158.194 440 160.986V190.204C440 192.897 437.643 195.19 434.877 195.19Z" fill="#4D80D0"/>
<path d="M434.877 39.1903H5.12343C2.25431 39.1903 0 36.9964 0 34.2042V4.98604C0 2.19386 2.25431 0 5.12343 0H434.877C437.746 0 440 2.19386 440 4.98604V34.2042C440 36.9964 437.643 39.1903 434.877 39.1903Z" fill="#4D80D0"/>
<path d="M417.252 173.95H408.44V165.374C408.44 163.978 407.312 162.98 405.98 162.98C404.648 162.98 403.521 164.077 403.521 165.374V173.95H394.709C393.274 173.95 392.25 175.047 392.25 176.343C392.25 177.639 393.377 178.736 394.709 178.736H403.521V187.312C403.521 188.708 404.648 189.706 405.98 189.706C407.312 189.706 408.44 188.609 408.44 187.312V178.736H417.252C418.686 178.736 419.711 177.639 419.711 176.343C419.711 175.047 418.686 173.95 417.252 173.95Z" fill="white"/>
<path d="M417.252 227.962H408.44V219.386C408.44 217.99 407.313 216.992 405.98 216.992C404.648 216.992 403.521 218.089 403.521 219.386V227.962H394.709C393.274 227.962 392.25 229.059 392.25 230.355C392.25 231.651 393.377 232.748 394.709 232.748H403.521V241.324C403.521 242.72 404.648 243.718 405.98 243.718C407.313 243.718 408.44 242.621 408.44 241.324V232.748H417.252C418.687 232.748 419.711 231.651 419.711 230.355C419.711 229.059 418.687 227.962 417.252 227.962Z" fill="white"/>
<path d="M389.475 68.5676H51.1234C48.2543 68.5676 46 66.3738 46 63.5816V61.986C46 59.1939 48.2543 57 51.1234 57H389.577C392.446 57 394.701 59.1939 394.701 61.986V63.5816C394.598 66.274 392.344 68.5676 389.475 68.5676Z" fill="white"/>
<path d="M389.475 94.7942H51.1234C48.2543 94.7942 46 92.6003 46 89.8081V88.2126C46 85.4204 48.2543 83.2266 51.1234 83.2266H389.577C392.446 83.2266 394.701 85.4204 394.701 88.2126V89.8081C394.598 92.5006 392.344 94.7942 389.475 94.7942Z" fill="white"/>
<path d="M389.475 120.921H51.1234C48.2543 120.921 46 118.727 46 115.935V114.34C46 111.547 48.2543 109.354 51.1234 109.354H389.577C392.446 109.354 394.701 111.547 394.701 114.34V115.935C394.598 118.727 392.344 120.921 389.475 120.921Z" fill="white"/>
<path d="M420.633 22.0383H397.988C396.553 22.0383 395.529 20.9414 395.529 19.645C395.529 18.3486 396.656 17.2517 397.988 17.2517H420.633C422.068 17.2517 423.093 18.3486 423.093 19.645C423.093 20.9414 421.966 22.0383 420.633 22.0383Z" fill="white"/>
</svg>
