<svg viewBox="0 0 440 250" fill="none" xmlns="http://www.w3.org/2000/svg">
<path d="M434.992 250H5.00797C2.20351 250 0 247.797 0 244.994V5.00601C0 2.20264 2.20351 0 5.00797 0H434.992C437.796 0 440 2.20264 440 5.00601V244.994C440 247.697 437.696 250 434.992 250Z" fill="#B3C9EB"/>
<path d="M232.57 141.57C230.366 141.57 228.564 143.372 228.564 145.575V206.147C228.564 208.35 230.366 210.152 232.57 210.152H440V141.57H232.57Z" fill="#4D80D0"/>
<path d="M306.387 193.432C305.085 193.432 303.783 192.931 302.882 191.93L279.044 168.202L256.809 190.428C254.805 192.431 251.7 192.431 249.697 190.428C247.694 188.426 247.694 185.322 249.697 183.32L275.438 157.589C276.34 156.688 277.642 156.087 278.944 156.087C280.246 156.087 281.548 156.588 282.449 157.589L309.793 184.922C311.796 186.924 311.796 190.028 309.793 192.03C308.992 192.931 307.689 193.432 306.387 193.432Z" fill="white"/>
</svg>
