<svg viewBox="0 0 440 250" fill="none" xmlns="http://www.w3.org/2000/svg">
<path fill-rule="evenodd" clip-rule="evenodd" d="M217.149 55.066V96.7161V169.103V197.637C217.149 208.25 211.948 212.655 199.245 212.655H161.337V222.667H199.245C222.25 222.667 227.152 209.051 227.152 197.537V169.103V96.7161V55.066C227.152 36.9443 217.549 27.3328 199.245 27.3328H161.337V37.3448H199.245C211.948 37.3448 217.149 42.4509 217.149 55.066Z" fill="#B3C9EB"></path>
<path d="M5.00114 0H167.938C170.739 0 172.939 2.20264 172.939 5.00601V59.6716C172.939 62.475 170.739 64.6776 167.938 64.6776H5.00114C2.2005 64.6776 0 62.475 0 59.6716V5.00601C0 2.20264 2.2005 0 5.00114 0Z" fill="#B3C9EB"></path>
<path d="M268 120H171V130H268V120Z" fill="#B3C9EB"></path>
<path d="M5.00114 92.6111H167.938C170.739 92.6111 172.939 94.8137 172.939 97.6171V152.283C172.939 155.086 170.739 157.289 167.938 157.289L5.00114 157.389C2.2005 157.389 0 155.186 0 152.383V97.7172C0 94.9138 2.2005 92.6111 5.00114 92.6111Z" fill="#B3C9EB"></path>
<path d="M5.00114 185.322H167.938C170.739 185.322 172.939 187.525 172.939 190.328V244.994C172.939 247.797 170.739 250 167.938 250H5.00114C2.2005 250 0 247.797 0 244.994V190.328C0 187.525 2.2005 185.322 5.00114 185.322Z" fill="#B3C9EB"></path>
<path d="M272.062 76.9924H434.999C437.799 76.9924 440 79.1951 440 81.9984V164.097C440 166.9 437.799 169.103 434.999 169.103H272.062C269.261 169.103 267.061 166.9 267.061 164.097V81.9984C267.061 79.1951 269.261 76.9924 272.062 76.9924Z" fill="#4D80D0"></path>
</svg>
