<svg viewBox="0 0 440 250" fill="none" xmlns="http://www.w3.org/2000/svg">
<path d="M5.34188 0C2.35043 0 0 2.22222 0 5.0505V244.949C0 247.778 2.02991 250 4.91453 250H175V0H5.34188Z" fill="#B3C9EB"></path>
<path d="M136.679 62.7273H38.3759C31.6345 62.7273 26.1006 57.1717 26.1006 50.404C26.1006 43.6364 31.6345 38.0808 38.3759 38.0808H136.78C143.521 38.0808 149.055 43.6364 149.055 50.404C148.954 57.1717 143.521 62.7273 136.679 62.7273Z" fill="white"></path>
<path d="M31.0309 173.131H82.1445C84.9618 173.131 87.1754 175.354 87.1754 178.182V194.748C87.1754 197.576 84.9618 199.798 82.1445 199.798H31.0309C28.2136 199.798 26 197.576 26 194.748V178.182C26 175.354 28.3142 173.131 31.0309 173.131Z" fill="#4D80D0"></path>
<path d="M119.775 99.9999H31.4332C28.6159 99.9999 26.4023 97.7777 26.4023 94.9494C26.4023 92.1211 28.6159 89.8989 31.4332 89.8989H119.876C122.693 89.8989 124.907 92.1211 124.907 94.9494C124.907 97.7777 122.593 99.9999 119.775 99.9999Z" fill="white"></path>
<path d="M119.775 123.03H31.4332C28.6159 123.03 26.4023 120.808 26.4023 117.98C26.4023 115.151 28.6159 112.929 31.4332 112.929H119.876C122.693 112.929 124.907 115.151 124.907 117.98C124.907 120.808 122.593 123.03 119.775 123.03Z" fill="white"></path>
<path d="M119.775 146.667H31.4332C28.6159 146.667 26.4023 144.444 26.4023 141.616C26.4023 138.788 28.6159 136.566 31.4332 136.566H119.876C122.693 136.566 124.907 138.788 124.907 141.616C124.907 144.444 122.593 146.667 119.775 146.667Z" fill="white"></path>
<path d="M175 250L434.969 250C437.686 250 440 247.778 440 244.949V5.0505C440 2.22222 437.786 0 434.969 0H175V250Z" fill="#4D80D0"></path>
</svg>
