<svg viewBox="0 0 440 250" fill="none" xmlns="http://www.w3.org/2000/svg">
<path d="M435.035 250H4.96502C2.18461 250 0 247.778 0 244.949V5.0505C0 2.22222 2.18461 0 4.96502 0H435.035C437.815 0 440 2.22222 440 5.0505V244.949C440 247.778 437.815 250 435.035 250Z" fill="#B3C9EB"></path>
<path d="M423.062 91H274.262V158.636H423.062V91Z" fill="white"></path>
<path d="M307.543 133.277C305.627 130.651 303.711 128.109 301.796 125.567C301.129 124.635 301.046 123.618 301.546 122.602C302.545 120.568 305.127 120.484 306.46 122.432C308.042 124.72 309.791 126.923 311.541 129.295C315.122 125.228 317.704 120.907 319.287 115.824C318.87 115.824 318.62 115.739 318.287 115.739C310.041 115.739 301.712 115.739 293.466 115.739C291.551 115.739 290.301 114.468 290.385 112.774C290.468 111.164 291.634 110.062 293.217 110.062C298.131 110.062 303.045 110.062 307.959 110.062C308.292 110.062 308.625 110.062 309.042 110.062C309.042 108.537 309.042 107.182 309.042 105.826C309.042 104.047 310.291 102.691 311.874 102.691C313.456 102.691 314.622 104.047 314.622 105.826C314.622 107.097 314.622 108.453 314.622 109.724C314.622 109.808 314.622 109.808 314.706 110.062C315.039 110.062 315.372 110.062 315.705 110.062C320.619 110.062 325.533 110.062 330.448 110.062C332.363 110.062 333.529 111.503 333.279 113.451C333.113 114.722 331.947 115.739 330.531 115.739C328.698 115.739 326.949 115.739 325.117 115.739C323.368 122.263 320.203 128.024 315.705 133.023C319.12 135.904 322.701 138.191 326.699 140.055C327.532 140.479 328.449 140.818 329.365 141.157C330.947 141.834 331.614 143.359 331.031 144.969C330.448 146.409 328.865 147.087 327.282 146.494C321.869 144.376 316.871 141.411 312.457 137.598C311.957 137.174 311.624 137.09 311.041 137.598C306.626 141.411 301.546 144.207 296.132 146.409C294.466 147.087 292.8 146.409 292.217 144.884C291.634 143.275 292.3 141.834 294.049 141.157C298.714 139.293 303.045 136.836 306.96 133.616C307.376 133.531 307.543 133.362 307.543 133.277Z" fill="#4D80D0"></path>
<path d="M233.881 108.038C233.881 108.897 234.198 109.648 234.831 110.292L249.818 125.645L235.781 139.924C234.514 141.212 234.514 143.252 235.781 144.433C237.047 145.721 239.053 145.721 240.214 144.433L256.573 127.792C257.206 127.148 257.523 126.396 257.523 125.537C257.523 124.679 257.206 123.82 256.573 123.283L239.264 105.783C237.997 104.495 235.992 104.495 234.831 105.783C234.198 106.32 233.881 107.179 233.881 108.038Z" fill="#4D80D0"></path>
<path d="M203.485 142.178C203.485 141.319 203.168 140.568 202.535 139.924L187.548 124.571L201.585 110.292C202.852 109.004 202.852 106.964 201.585 105.783C200.319 104.495 198.313 104.495 197.152 105.783L180.793 122.424C180.16 123.068 179.844 123.82 179.844 124.679C179.844 125.537 180.16 126.396 180.793 126.933L198.102 144.54C199.369 145.828 201.374 145.828 202.535 144.54C203.168 143.896 203.485 143.037 203.485 142.178Z" fill="#4D80D0"></path>
<rect x="183.326" y="121.995" width="71.7686" height="6.44157" fill="#4D80D0"></rect>
<path d="M164.8 91H16V158.636H164.8V91Z" fill="white"></path>
<path fill-rule="evenodd" clip-rule="evenodd" d="M49.7318 104.289C48.8708 104.289 48.12 104.532 47.4924 105.026C46.9165 105.471 46.4675 106.057 46.1435 106.774L31.3535 141.148L31.3529 141.149C31.1538 141.62 31.0435 142.035 31.0435 142.387C31.0435 143.168 31.2961 143.839 31.8059 144.383L31.8129 144.39C32.3663 144.935 33.0685 145.203 33.8996 145.203C34.4834 145.203 35.0127 145.058 35.4803 144.766L35.4847 144.763C35.9861 144.434 36.365 143.999 36.6167 143.462L40.3262 134.698H59.7173L63.423 143.454L63.427 143.462C63.676 143.994 64.0314 144.427 64.4925 144.757L64.5026 144.764L64.5133 144.77C65.015 145.059 65.56 145.203 66.1438 145.203C66.9729 145.203 67.6592 144.935 68.176 144.386C68.7247 143.844 69 143.173 69 142.387C69 142.035 68.8896 141.62 68.6905 141.149L53.9017 106.778L53.8999 106.774C53.5752 106.055 53.1062 105.47 52.4932 105.026C51.9023 104.53 51.1693 104.289 50.3117 104.289H49.7318ZM57.4793 129.466H42.5642L50.0217 111.792L57.4793 129.466Z" fill="#4D80D0"></path>
</svg>
