<!--?xml version="1.0" encoding="utf-8"?-->
<svg version="1.1" id="Layer_1" xmlns="http://www.w3.org/2000/svg" xmlns:xlink="http://www.w3.org/1999/xlink" x="0px" y="0px" viewBox="0 0 575 390" style="enable-background:new 0 0 575 390;" xml:space="preserve">
<style type="text/css">
	.st0{fill:#FFECC1;stroke:#EFCD88;stroke-miterlimit:10;}
	.st1{fill:#FABF2D;}
	.st2{fill:#037C53;}
	.st3{fill:#014024;}
	.st4{fill:#F47F20;}
	.st5{fill-rule:evenodd;clip-rule:evenodd;fill:#832619;}
	.st6{fill:#2A53A3;}
	.st7{fill-rule:evenodd;clip-rule:evenodd;fill:#1B1D52;}
	.st8{fill:#77542E;}
	.st9{fill:#FFECC0;}
</style>
<rect id="BackgroundColor" x="0.2" y="-0.2" class="st0" width="575" height="390"></rect>
<ellipse class="st1" cx="296.8" cy="243.1" rx="173.8" ry="173.8"></ellipse>
<ellipse class="st2" cx="114" cy="243.7" rx="83.2" ry="83.2"></ellipse>
<path class="st3" d="M39.4,279c-0.9-1.8-1.6-3.6-2.3-5.5l107.2-107.2c1.9,0.8,3.6,1.5,5.4,2.4L39.4,279z M56.5,303.1
	c-1.3-1.3-2.6-2.6-3.8-4.1l117-117c1.3,1.2,2.6,2.5,3.9,3.9L56.5,303.1z M80.9,319.9c-1.8-0.8-3.5-1.6-5.3-2.5l111.6-111.7
	c0.9,1.8,1.8,3.5,2.5,5.4L80.9,319.9z M115.2,326.9c-0.4,0-0.8,0-1.2,0c-2.2,0-4.3-0.1-6.5-0.2l88.6-88.6c0.1,1.9,0.2,3.7,0.2,5.6
	c0,0.7,0,1.4,0,2.1L115.2,326.9z M116.7,160.3l-85.1,85.1c0-0.7,0-1.3,0-2c0-2.1,0.1-4.1,0.2-6.1l77-77c1.8-0.1,3.4-0.1,5.1-0.1
	C114.9,160.3,115.9,160.3,116.7,160.3z"></path>
<ellipse class="st4" cx="466.1" cy="114.8" rx="83.2" ry="83.2"></ellipse>
<path class="st5" d="M548.7,122.6c0.3-2.6,0.4-5.3,0.4-7.9c0-0.3,0-0.5,0-0.8l-82.9-82.7c-0.1,0-0.3,0-0.3,0c-0.3,0-0.5,0-0.8,0
	l-82.4,82.3c0,0.4,0,0.8,0,1.1c0,2.5,0.1,5,0.4,7.6l82.7-82.4L548.7,122.6z M393.6,156c-1.1-1.9-2.1-3.9-3-5.9l75.1-75l75.5,75.4
	c-1,2-2,4-3.2,5.9l-72.3-72.2L393.6,156z M414.1,180.1c-1.6-1.4-3.3-2.8-4.8-4.2l56.6-56.6l56.7,56.6c-1.5,1.5-3.2,2.9-4.8,4.2
	l-51.8-51.8L414.1,180.1z M443.4,195.1c-2.3-0.6-4.5-1.4-6.8-2.3l29.4-29.2l29.4,29.4c-2.3,0.9-4.5,1.6-6.8,2.3l-22.6-22.6
	L443.4,195.1z"></path>
<ellipse class="st6" cx="435" cy="339.6" rx="83.2" ry="83.2"></ellipse>
<path class="st7" d="M355.6,364.4c0.6,2.3,1.5,4.4,2.4,6.5c8.9-8.6,19.9-15.6,31.9-15.6c14.4,0,25.9,10,37.8,21.2
	c0.5,0.5,1.1,1,1.6,1.5c5.3,5,10.6,10,16.1,13.9c6.1,4.4,12.9,7.5,20.4,7.5s14.3-3.1,20.2-7.5c6-4.4,11.5-10,16.9-15.5l0.1-0.1
	c3.6-3.8,7.3-7.4,10.8-10.6c1.1-3.3,2-6.8,2.6-10.1c-0.5,0.4-1,0.6-1.5,1c-5.8,4.3-11.1,9.8-16.3,15.1l-0.4,0.4
	c-5.4,5.5-10.6,10.9-16,14.8c-5.4,3.9-10.8,6.3-16.5,6.3c-5.8,0-11.1-2.4-16.8-6.3c-5.1-3.6-10.1-8.4-15.5-13.4l0,0l0,0l0,0
	c-0.5-0.5-1-1-1.5-1.4C420.5,361,407.2,349,389.8,349C376.7,349,364.9,356,355.6,364.4z M515.9,320.4c0.5,2.3,1,4.6,1.3,7
	c-4.6,3.8-9.3,8.4-14,13.4L503,341c-5.3,5.5-10.9,11.3-16.9,15.5c-6,4.4-12.6,7.5-20.2,7.5s-14.3-3.1-20.4-7.5
	c-5.5-3.9-10.9-9-16.1-13.9l0,0c-0.5-0.5-1.1-1-1.6-1.5c-11.9-11.1-23.4-21.2-37.8-21.2c-14.5,0-27.3,10.1-36.9,21
	c-0.4,0.4-0.6,0.8-1,1.1c0-0.8,0-1.6,0-2.4c0-2.4,0.1-4.9,0.3-7.3c9.6-9.8,22.5-18.9,37.7-18.9c17.4,0,30.7,12,42.2,22.9
	c0.5,0.5,1,1,1.6,1.5c5.4,5,10.4,9.8,15.5,13.4c5.6,4,11,6.3,16.8,6.3c5.8,0,11-2.4,16.5-6.3c5.4-4,10.6-9.3,16-14.8l0.4-0.4
	c5.1-5.4,10.6-10.9,16.3-15.1C515.4,320.8,515.6,320.7,515.9,320.4z M505,294.5c1.1,1.9,2.3,3.8,3.3,5.6c-1.6,1.6-3.4,3.4-5.1,5.1
	l-0.1,0.1c-5.3,5.5-10.9,11.3-16.9,15.5c-6,4.4-12.6,7.5-20.2,7.5s-14.3-3.1-20.4-7.5c-5.5-3.9-10.9-9-16.1-13.9
	c-0.5-0.5-1.1-1-1.6-1.5c-11.9-11.1-23.4-21.2-37.8-21.2c-8.8,0-16.9,3.8-24.2,9c3.1-4.6,6.6-9,10.5-13c4.3-1.5,8.9-2.5,13.6-2.5
	c17.4,0,30.7,12,42.2,22.9c0.5,0.5,1,1,1.6,1.5c5.4,5,10.4,9.8,15.5,13.4c5.6,4,11,6.3,16.8,6.3c5.8,0,11-2.4,16.5-6.3
	c5.4-4,10.6-9.3,16-14.8l0.4-0.4C500.8,298.7,502.8,296.5,505,294.5z M488.3,275.6c1.6,1.4,3.3,2.8,4.8,4.3c-2.3,2-4.5,4-6.9,5.8
	c-6,4.4-12.6,7.5-20.2,7.5s-14.3-3.1-20.4-7.5c-5.5-3.9-10.9-9-16.1-13.9c-0.5-0.5-1.1-1-1.6-1.5c-4.4-4.1-8.8-8.1-13.1-11.5
	c2.6-0.6,5.4-1.3,8.1-1.6c3.3,2.8,6.4,5.6,9.4,8.5c0.5,0.5,1,1,1.5,1.5l0,0l0,0l0,0c5.4,5,10.4,9.8,15.5,13.4c5.6,4,11,6.3,16.8,6.3
	c5.8,0,11-2.4,16.5-6.3C484.4,279,486.4,277.4,488.3,275.6z M448.8,421.8c-5-3.6-9.9-8.1-15-13.1c-0.5-0.5-1-1-1.6-1.5
	c-11.5-10.9-24.8-22.9-42.2-22.9c-7.6,0-14.6,2.3-21,5.8c1.3,1.8,2.6,3.4,4.1,5c5.3-2.8,10.9-4.5,16.9-4.5c14.4,0,25.9,10,37.8,21.2
	c0.5,0.5,1.1,1,1.6,1.5c3.4,3.3,6.9,6.5,10.4,9.4C442.8,422.7,445.8,422.3,448.8,421.8z"></path>
<path id="BearBody_00000039832202601959873250000015531131882665737395_" class="st8" d="M343.3,466.4l-72.9,18L225,463.6l-63.8,2.3
	l-8.4,10.9h-34.5l-32.8-20.5l-10.5-25l28-9.2l17.5,5.2l41.8-36.6l34.4-6.9l12.7-29l-13.1-23l-10.9,8.9l6.8,11.2l-10.2,23.2
	l-35.3-34.6v-31.2l42.5-62.8l2.8-31.1l33.7-32.6l10-23.6l-8-33.1l-8.5-8.1l-0.5-25.3l31.4-17l3.1-15.5l12.6-2.5l11.1,11.4h34.5
	l4.5-10.8l13.2-3.6l10,7.1l0.2,14.6l-8.1,7.5l28.2,46.4L394.5,241l-5.4,14.3l26.3,53.1l-8.5,52.8l20.5,33.6l-14.8,56.4l7.8,6.1
	l-13,22.5l-35.3,4.9L343.3,466.4z"></path>
<path id="BearPolygons_00000062870971520280839090000006520669468227934375_" class="st9" d="M429.7,393.8l-20.3-33.2l8.5-52.2
	c0-0.3,0-0.6-0.1-0.8l-26-52.4l5.2-13.6c0.1-0.3,0.1-0.6,0-0.9l-35.1-109.7l0.1-0.1l-0.1-0.1l-0.4-1.1c0-0.1-0.1-0.2-0.1-0.3
	l-27.3-45l7.1-6.6c0.3-0.3,0.4-0.6,0.4-1l-0.2-15.4c0-0.4-0.2-0.8-0.6-1.1l-10.6-7.5c-0.3-0.2-0.7-0.3-1.1-0.2l-14,3.8
	c-0.4,0.1-0.7,0.4-0.9,0.8l-4.2,9.9h-32l-10.7-11.2c-0.3-0.3-0.8-0.5-1.2-0.4L252.3,58c-0.5,0.1-0.9,0.5-1,1l-3,15l-30.9,16.8
	c-0.4,0.2-0.7,0.7-0.7,1.2l0.5,26.2l0,0c0,0.1,0,0.2,0,0.2s0,0,0,0.1v0.1c0,0,0,0,0,0.1c0,0,0,0,0,0.1c0,0.1,0.1,0.1,0.1,0.2l0,0
	c0,0.1,0.1,0.1,0.2,0.2l0,0l8.3,7.9l7.7,31.7l-9.6,22.6L190.3,214c-0.2,0.2-0.4,0.5-0.4,0.8l-2.8,30.9l-42.3,62.5
	c-0.1,0.2-0.2,0.5-0.2,0.7v31.8c0,0.4,0.1,0.7,0.4,0.9l36.5,35.9c0.3,0.3,0.7,0.4,1.2,0.4c0.4-0.1,0.8-0.4,1-0.8l10.8-24.9
	c0.2-0.4,0.1-0.8-0.1-1.2l-5.9-10l7.3-6l11.2,19.7l-11.9,26.9l-33.5,6.8l0,0c-0.1,0-0.2,0.1-0.3,0.1l0,0l0,0c-0.1,0-0.2,0.1-0.2,0.2
	l0,0l-41,36l-16.5-5c-0.3-0.1-0.5-0.1-0.8,0l-29.1,9.6c-0.4,0.1-0.6,0.4-0.8,0.7c-0.2,0.3-0.2,0.7,0,1.1l11,26.1
	c0.1,0.3,0.3,0.5,0.5,0.6l33.4,20.7c0.2,0.1,0.5,0.2,0.7,0.2h35.3l0,0c0.1,0,0.2,0,0.3,0h0.1c0.1,0,0.1,0,0.2-0.1c0,0,0.1,0,0.1-0.1
	l0.1-0.1l0.1-0.1l0.1-0.1l0,0l0,0l8-10.4l62.1-2.2l45.1,20.8c0.3,0.1,0.6,0.2,0.9,0.1l72.3-17.9l28.2,17.7c0.2,0.1,0.5,0.2,0.7,0.2
	c0.1,0,0.1,0,0.2,0l36-5c0.4-0.1,0.8-0.3,1-0.6l13.6-23.5c0.3-0.6,0.2-1.4-0.3-1.8l-7.2-5.7l14.5-55.3
	C429.9,394.5,429.8,394.1,429.7,393.8z M412.2,448.4l-21.5-8.9L410,415L412.2,448.4z M134.9,428.7l-11.8-3l37.9-33.2l14.5,72.3
	l-12.9,0.4l-25.9-35.4C136.3,429.3,135.6,428.9,134.9,428.7z M164.3,394.9l57.9,68.4l-43.8,1.6L164.3,394.9z M223.8,460.8
	l-59.3-70.1l31.4-6.3l30,15.7L223.8,460.8z M199.3,383.1L311.5,334L256,412.8L199.3,383.1z M250.3,169l49-15.7l25.9,22.8l-80.4,12.1
	L250.3,169z M219.7,115.5l-0.2-12.3l8.1,5.8L219.7,115.5z M219.3,93.6l19.4,1.9l-0.1,4.7l-8.7,7.2l-10.4-7.5L219.3,93.6z
	 M229.9,110.7l9.4,6.8l-17.2-0.4L229.9,110.7z M232.1,108.9l8.6-7.1c0.3-0.2,0.5-0.6,0.5-1l0.1-4.3l83.4,45.6l-55,17.7l-25-41.4
	c-0.1-0.2-0.2-0.3-0.4-0.4l0,0L232.1,108.9z M379.9,220.5L330.4,177l11.5-12L379.9,220.5z M362.5,236.4l-8.3-16.5l6.6-12.7
	l25.6,22.5l7.9,11.5l-1,2.6L362.5,236.4z M253.1,286.2l-0.6-23.8l19.4-23.1l17.7,26.3l0,0L253.1,286.2z M243.8,190.9l27.5-4.2
	l0.3,0.3v0.2l0.4,0.1l43.3,36.7l-76-17.6L243.8,190.9z M355.4,202.5l-77.5-16.6l49.9-7.5L355.4,202.5z M351.6,218.7l-30.8,6.6
	l-43.1-36.6l80.4,17.3L351.6,218.7z M314.1,226.6l-42.3,9.1c-0.3,0.1-0.5,0.2-0.7,0.4l-10.4,12.4l-20-38.9L314.1,226.6z M274.3,238
	l46.2-9.8l0,0c0.2,0,0.4-0.1,0.6-0.1l30.7-6.6l7.8,15.5l-67.3,27.7L274.3,238z M359,240.1l-22.7,56.3l-41.8-29.8L359,240.1z
	 M328.4,175.2l-26.1-23l25.5-8.2l12.7,18.6L328.4,175.2z M237.4,203.4l-10.8-21.1l3.7-8.8l11.1,16L237.4,203.4z M236.2,207.3
	c-0.1,0.3,0,0.7,0.1,0.9c0.1,0.2,0.4,0.4,0.6,0.5l21.6,42l-8.6,10.2c-0.2,0.2-0.3,0.6-0.3,0.9l0.3,13.8l-43.8-15.1l19.1-74.5
	L236.2,207.3z M226.9,307.4l-19.7-43.5l43,14.8l0.5,20.2L226.9,307.4z M224.2,308l-43.5,8.2l23.9-51.3L224.2,308z M285.8,271
	l-6.2,20l0,0l0,0l-3.5,12.2l-22.2,10.6l-0.6-24.6L285.8,271z M289.2,269.1l1.7-0.9l0.6-0.3l40.2,28.6l-49.1-6.2L289.2,269.1z
	 M372,304.4l-56.3,24.7l-31.5-35.9L372,304.4z M387.5,439l-22.4,13.5l-2.3-45.5l45.7,5.4L387.5,439z M360.2,407.5l2.3,46.6
	L344.4,465l-2.7-39.7L360.2,407.5z M339.8,423.4l-51.9,4.3l39-47l31.4,24.9L339.8,423.4z M317,331.5l59.5-26.1l29.3,54.5l-78.1,17.2
	L317,331.5z M314.8,334l10.4,44.3l-40.9,49.2L258.4,414L314.8,334z M339.1,426.2l2.8,40.2l-36.1,8.9l-19-44.7L339.1,426.2z
	 M368.3,453.9l2,28.8l-24.3-15.3L368.3,453.9z M371,452.3l17.7-10.6l13.1,5.5l-28.8,35L371,452.3z M360.8,404l-31-24.6l76.9-16.9
	l3,47.2L360.8,404z M415.1,308.4l-7.8,48.3l-28.6-53.2l12.1-44.5L415.1,308.4z M389,254.7v0.1l0,0l-12.8,47.3l-37.3-4.8l23.4-58.2
	l29.8,7.1L389,254.7z M391.5,232.4l-47.7-69.7l16.3-28.6L391.5,232.4z M359,130.6l-16.9,29.7l-12.4-18.1l7.4-47.6L359,130.6
	L359,130.6z M335,90.9l-7.6,48.5l-47-51.9l27.8-16.1l-0.8,2.2c-0.2,0.5-0.1,1.1,0.4,1.6l16,14.3c0.4,0.4,1,0.4,1.6,0.2l6.7-3.6
	L335,90.9z M323.7,85.6l-12.6-11.1l15.3-7.4L323.7,85.6z M316.4,58.8l12.8-3.5l9.6,6.8l0.2,14l-7.4,6.8l-5.2,2.9l3.1-20.9
	c0.1-0.5-0.1-1-0.5-1.4s-0.9-0.3-1.5-0.1l-16.3,8l0.9-2.5L316.4,58.8z M305.8,69.7l-27.3,15.7l-7.6-8.3c-0.4-0.5-1.1-0.6-1.7-0.3
	l-11,6c-0.3,0.2-0.6,0.5-0.7,0.9c-0.1,0.4,0,0.8,0.2,1.1l7.4,10c0.4,0.5,1.1,0.7,1.8,0.4l11.1-6.5l43.9,48.5l-79.7-43.5l21.4-24.2
	h13.7h28.4V69.7z M253.6,60.6l12-2.4L274,67h-11.1c-0.2,0-0.4,0-0.6,0.1l-11.1,5.5L253.6,60.6z M250,76.3l7.3-3.6l-17.9,20.2
	l-16.9-1.7L250,76.3z M221.9,119.9l20.9,0.5l24.2,40.3l-17.1,5.5l-6.7-31.2c-0.1-0.4-0.3-0.7-0.6-0.9l-14.8-8.6L221.9,119.9z
	 M229.1,129.3l11.7,6.8l6.2,29l-10.9-6.9L229.1,129.3z M235.5,161.2l12,7.6l-5,17.3l-10.9-15.6L235.5,161.2z M192.5,215.6l30-28.9
	L203.9,259l-14.2-13.3L192.5,215.6z M188.6,248.3l14.4,13.6l-25.4,54.5l-29.6-8.2L188.6,248.3z M147.2,310.8l29.3,8.1l-12.7,37.8
	l-16.6-16.4V310.8z M191.7,352l-9.8,22.4L166,358.9l12.3-36.6l7,19.1l0,0c0,0.1,0.1,0.2,0.1,0.2L191.7,352z M187.2,338.6l-7.2-19.6
	l40.9-7.7l-25.7,20.6l0,0l0,0L187.2,338.6z M209.6,354.1l-11.8-20.7l28.9-23.2l23.9-8.4L251,316c0,0.4,0.2,0.9,0.6,1.1
	c0.2,0.1,0.4,0.2,0.7,0.2c0.2,0,0.4,0,0.6-0.1l24.7-12c0.3-0.2,0.6-0.5,0.7-0.8l3-10.3l31.6,36.1l-114.4,50.2l10.9-25
	C209.9,354.9,209.8,354.5,209.6,354.1z M119.9,427.6L119.9,427.6l14.4,3.7l25.8,35.3l-6.8,8.8l-46.1-51.6L119.9,427.6L119.9,427.6z
	 M77.2,431.1l25.4-8.3l44,49.2L77.2,431.1z M76.6,434l33.6,19.8l-24.7,1.6L76.6,434z M89,457.9l25.6-1.6l33.8,19.9h-29.9L89,457.9z
	 M270.5,483.9l-44.1-20.4l2.2-62.1l55,28.8l19.5,45.7L270.5,483.9z M419.9,457.2l-12.7,22l-31.8,4.4l29.1-35.4l8.6,3.6L419.9,457.2z
	 M414.6,442l-4.9-75.6l17.3,28.4L414.6,442z"></path>
</svg>
