<svg viewBox="0 0 440 250" fill="none" xmlns="http://www.w3.org/2000/svg">
<g clip-path="url(#clip0_1141_5577)">
<path d="M82.873 47.0027C67.7525 47.0027 52.9718 51.4875 40.4006 59.8897C27.8295 68.2918 18.033 80.2339 12.2503 94.2049C6.46767 108.176 4.95879 123.548 7.91458 138.377C10.8704 153.206 18.158 166.825 28.8555 177.511C39.553 188.197 53.1797 195.47 68.0116 198.41C82.8435 201.35 98.2142 199.825 112.179 194.027C126.144 188.23 138.076 178.421 146.464 165.841C154.853 153.261 159.322 138.475 159.306 123.354C159.285 103.097 151.222 83.6771 136.891 69.3607C122.559 55.0443 103.13 47.0027 82.873 47.0027ZM119.61 103.124L119.48 103.303L82.9381 159.164V159.262C82.7821 159.566 82.5969 159.855 82.3852 160.124C82.0532 160.466 81.6756 160.762 81.2631 161.002C81.1618 161.061 81.0641 161.126 80.9703 161.197L80.5963 161.457C79.8683 161.912 79.0722 162.247 78.2383 162.449C77.9864 162.516 77.7313 162.57 77.4739 162.612C77.0978 162.676 76.7171 162.708 76.3356 162.709C76.027 162.733 75.7171 162.733 75.4086 162.709C74.9649 162.68 74.5244 162.615 74.0914 162.514C73.61 162.371 73.142 162.186 72.6928 161.961H72.4977C72.1844 161.869 71.8839 161.738 71.6032 161.571C71.3463 161.413 71.1204 161.209 70.9365 160.969L70.6763 160.79L49.2262 140.902C47.6088 139.392 46.6573 137.302 46.5811 135.091C46.5048 132.88 47.3101 130.729 48.8196 129.111C50.3292 127.494 52.4195 126.542 54.6306 126.466C56.8416 126.39 58.9925 127.195 60.6099 128.705L74.628 141.715L105.705 94.0172C106.608 92.6461 107.895 91.5729 109.407 90.9328C110.918 90.2928 112.585 90.1146 114.198 90.4208C115.81 90.7269 117.296 91.5037 118.467 92.6531C119.639 93.8025 120.444 95.273 120.781 96.8793C121.01 97.9458 121.025 99.0473 120.824 100.12C120.622 101.192 120.21 102.213 119.61 103.124Z" fill="#4D80D0"></path>
</g>
<path d="M119.504 102.768L119.374 102.963L82.7642 158.904V159.002C82.6195 159.308 82.4332 159.593 82.2105 159.848C81.8878 160.196 81.5144 160.492 81.1031 160.728L80.7937 160.923L80.4191 161.2C79.6933 161.646 78.902 161.976 78.074 162.177L77.3086 162.356C76.9238 162.388 76.5371 162.388 76.1523 162.356H75.2403C74.7901 162.323 74.3434 162.252 73.9049 162.145C73.4245 162.003 72.9561 161.823 72.5044 161.607H72.3089C71.9964 161.512 71.6958 161.381 71.4132 161.216C71.1713 161.044 70.9524 160.842 70.7618 160.614L70.5012 160.435L49.0533 140.615C47.4355 139.116 46.4776 137.037 46.389 134.834C46.3005 132.63 47.0887 130.481 48.581 128.857C50.0844 127.244 52.1657 126.292 54.3693 126.21C56.5729 126.127 58.7194 126.921 60.3391 128.417L74.3609 141.446L105.564 93.7456C106.775 91.9035 108.666 90.6157 110.823 90.1641C112.981 89.7124 115.23 90.1335 117.078 91.3354C117.998 91.9318 118.79 92.7056 119.408 93.6115C120.026 94.5175 120.457 95.5374 120.677 96.6119C121.11 98.7382 120.689 100.95 119.504 102.768Z" fill="white"></path>
<path d="M191.103 176.225H287.248C289.675 176.225 291.93 174.952 293.18 172.864C294.429 170.785 294.491 168.196 293.351 166.055L245.384 76.1753C244.187 73.9295 241.846 72.5181 239.295 72.5181H239.29C236.739 72.5181 234.403 73.92 233.201 76.1705L185.019 166.05C183.87 168.191 183.932 170.78 185.176 172.869C186.426 174.948 188.681 176.23 191.108 176.23L191.103 176.225ZM239.285 148.57C243.1 148.57 246.199 151.669 246.199 155.484C246.199 159.299 243.1 162.398 239.285 162.398C235.471 162.398 232.371 159.299 232.371 155.484C232.371 151.669 235.471 148.57 239.285 148.57ZM232.371 134.852V107.197C232.371 103.382 235.471 100.283 239.285 100.283C243.1 100.283 246.199 103.382 246.199 107.197V134.852C246.199 138.667 243.1 141.766 239.285 141.766C235.471 141.766 232.371 138.667 232.371 134.852Z" fill="#B3C9EB"></path>
<path fill-rule="evenodd" clip-rule="evenodd" d="M391.475 71.7068H418.745L418.735 71.6962C425.158 71.6962 427.047 73.9815 427.047 80.4047V107.28C427.047 113.703 423.353 115.196 418.825 110.668L407.567 99.4103L387.775 119.202L379.552 110.979L399.344 91.1874L388.086 79.9297C383.516 75.4013 385.052 71.7068 391.475 71.7068ZM407.53 149.027L418.787 137.77L418.798 137.759C423.326 133.231 427.068 134.767 426.979 141.19V168.46C426.979 174.884 424.735 176.731 418.312 176.731H391.437C385.014 176.731 383.521 173.036 388.049 168.508L399.307 157.25L379.515 137.458L387.738 129.235L407.53 149.027ZM349.558 91.1926L360.816 79.9771C365.344 75.4487 363.85 71.7542 357.427 71.7542H330.157C323.733 71.7542 321.886 73.9973 321.886 80.4205V107.295C321.886 113.719 325.581 115.254 330.109 110.684L341.367 99.4261L361.159 119.218L369.382 110.995L364.278 105.891L349.542 91.2032L349.558 91.1926ZM341.292 148.98L355.981 134.292L355.991 134.302L361.137 129.199L369.36 137.422L349.568 157.213L360.784 168.429C365.354 172.957 363.818 176.652 357.395 176.652H330.125C323.701 176.652 321.854 174.409 321.854 167.986V141.111C321.854 134.688 325.549 133.194 330.077 137.722L341.292 148.98Z" fill="#B3C9EB"></path>
<defs>
<clipPath id="clip0_1141_5577">
<rect width="152.72" height="152.72" fill="white" transform="translate(6.505 47.0027)"></rect>
</clipPath>
</defs>
</svg>
