<svg viewBox="0 0 440 250" fill="none" xmlns="http://www.w3.org/2000/svg">
<path d="M5.00797 0H434.992C437.796 0 440 2.20264 440 5.00601V244.994C440 247.797 437.796 250 434.992 250H5.00797C2.20351 250 0 247.797 0 244.994V5.00601C0 2.20264 2.20351 0 5.00797 0Z" fill="#B3C9EB"></path>
<path d="M38.5613 52.6632H201.721C204.525 52.6632 206.729 54.8659 206.729 57.6692V106.528C206.729 109.331 204.525 111.534 201.721 111.534H38.5613C35.7569 111.534 33.5534 109.331 33.5534 106.528V57.6692C33.5534 54.8659 35.7569 52.6632 38.5613 52.6632Z" fill="#4D80D0"></path>
<path d="M238.279 52.6632H401.439C404.243 52.6632 406.447 54.8659 406.447 57.6692V106.528C406.447 109.331 404.243 111.534 401.439 111.534H238.279C235.475 111.534 233.271 109.331 233.271 106.528V57.6692C233.271 54.8659 235.575 52.6632 238.279 52.6632Z" fill="#4D80D0"></path>
<path d="M38.5613 136.964H201.721C204.525 136.964 206.729 139.167 206.729 141.97V190.829C206.729 193.632 204.525 195.835 201.721 195.835H38.5613C35.7569 195.835 33.5534 193.632 33.5534 190.829V141.97C33.5534 139.167 35.7569 136.964 38.5613 136.964Z" fill="#4D80D0"></path>
<path d="M238.279 136.964H401.439C404.243 136.964 406.447 139.167 406.447 141.97V190.829C406.447 193.632 404.243 195.835 401.439 195.835H238.279C235.475 195.835 233.271 193.632 233.271 190.829V141.97C233.271 139.167 235.575 136.964 238.279 136.964Z" fill="#4D80D0"></path>
<path d="M176.781 178.114C176.781 177.513 176.982 177.013 177.382 176.512L187.899 165.999L178.083 156.188C177.182 155.286 177.182 153.885 178.083 153.084C178.985 152.183 180.387 152.183 181.188 153.084L192.506 164.397C192.907 164.798 193.107 165.399 193.107 165.999C193.107 166.6 192.907 167.101 192.506 167.601L180.487 179.616C179.586 180.517 178.183 180.517 177.382 179.616C176.982 179.215 176.781 178.614 176.781 178.114Z" fill="white"></path>
<path d="M176.781 93.2118C176.781 92.6111 176.982 92.1105 177.382 91.6099L187.899 81.0973L178.083 71.2855C177.182 70.3844 177.182 68.9828 178.083 68.1818C178.985 67.2807 180.387 67.2807 181.188 68.1818L192.506 79.4954C192.907 79.8959 193.107 80.4966 193.107 81.0973C193.107 81.698 192.907 82.1986 192.506 82.6992L180.487 94.7136C179.586 95.6147 178.183 95.6147 177.382 94.7136C176.982 94.3132 176.781 93.7124 176.781 93.2118Z" fill="white"></path>
<path d="M374.095 178.114C374.095 177.513 374.295 177.013 374.696 176.512L385.213 165.999L375.397 156.188C374.496 155.286 374.496 153.885 375.397 153.084C376.299 152.183 377.701 152.183 378.502 153.084L389.82 164.397C390.221 164.798 390.421 165.399 390.421 165.999C390.421 166.6 390.221 167.101 389.82 167.601L377.801 179.616C376.9 180.517 375.497 180.517 374.696 179.616C374.295 179.215 374.095 178.614 374.095 178.114Z" fill="white"></path>
<path d="M374.095 93.2118C374.095 92.6111 374.295 92.1105 374.696 91.6099L385.213 81.0973L375.397 71.2855C374.496 70.3844 374.496 68.9828 375.397 68.1818C376.299 67.2807 377.701 67.2807 378.502 68.1818L389.82 79.4954C390.221 79.8959 390.421 80.4966 390.421 81.0973C390.421 81.698 390.221 82.1986 389.82 82.6992L377.801 94.7136C376.9 95.6147 375.497 95.6147 374.696 94.7136C374.295 94.3132 374.095 93.7124 374.095 93.2118Z" fill="white"></path>
</svg>
