<svg viewBox="0 0 440 250" fill="none" xmlns="http://www.w3.org/2000/svg">
<path d="M434.888 250H5.11152C2.24907 250 0 247.778 0 244.949V5.0505C0 2.22222 2.24907 0 5.11152 0H434.888C437.751 0 440 2.22222 440 5.0505V244.949C440 247.778 437.751 250 434.888 250Z" fill="#B3C9EB"></path>
<path d="M236.255 151.01H50.9108C38.1319 151.01 27.7044 140.808 27.7044 128.081C27.7044 115.455 38.0297 105.152 50.9108 105.152H236.152C248.931 105.152 259.359 115.354 259.359 128.081C259.359 140.808 249.033 151.01 236.255 151.01Z" fill="white"></path>
<path d="M290.437 133.131C303.592 133.131 314.257 122.594 314.257 109.596C314.257 96.5977 303.592 86.0606 290.437 86.0606C277.282 86.0606 266.617 96.5977 266.617 109.596C266.617 122.594 277.282 133.131 290.437 133.131Z" fill="#4D80D0"></path>
</svg>
