<svg viewBox="0 0 440 250" fill="none" xmlns="http://www.w3.org/2000/svg">
<path d="M72.5457 72H143.319C146.627 72 149.227 74.5994 149.227 77.9076V172.902C149.227 176.211 146.627 178.81 143.319 178.81H72.5457C69.2374 178.81 66.638 176.211 66.638 172.902V77.9076C66.638 74.5994 69.2374 72 72.5457 72Z" fill="#4D80D0"></path>
<path d="M185.381 72H256.155C259.463 72 262.062 74.5994 262.062 77.9076V172.902C262.062 176.211 259.463 178.81 256.155 178.81H185.381C182.073 178.81 179.474 176.211 179.474 172.902V77.9076C179.474 74.5994 182.191 72 185.381 72Z" fill="#B3C9EB"></path>
<path d="M298.335 72H369.108C372.417 72 375.016 74.5994 375.016 77.9076V172.902C375.016 176.211 372.417 178.81 369.108 178.81H298.335C295.027 178.81 292.427 176.211 292.427 172.902V77.9076C292.427 74.5994 295.027 72 298.335 72Z" fill="#B3C9EB"></path>
<path d="M37.4544 100.12C37.4544 101.42 36.9817 102.72 36.0365 103.665L12.1697 127.532L34.3824 149.744C36.391 151.753 36.391 154.825 34.3824 156.834C32.3738 158.842 29.3018 158.842 27.2932 156.834L1.41783 131.076C0.47261 130.131 0 128.831 0 127.532C0 126.232 0.47261 124.932 1.41783 123.987L28.8292 96.5757C30.8378 94.5671 33.9098 94.5671 35.9184 96.5757C36.9817 97.5209 37.4544 98.8206 37.4544 100.12Z" fill="#B3C9EB"></path>
<path d="M402.546 100.12C402.546 101.42 403.018 102.72 403.963 103.665L427.83 127.532L405.618 149.744C403.609 151.753 403.609 154.825 405.618 156.834C407.626 158.842 410.698 158.842 412.707 156.834L438.464 131.076C439.409 130.131 439.882 128.831 439.882 127.532C439.882 126.232 439.409 124.932 438.464 123.987L411.053 96.5758C409.044 94.5672 405.972 94.5672 403.963 96.5758C403.018 97.521 402.546 98.8206 402.546 100.12Z" fill="#B3C9EB"></path>
<path d="M93.9313 141.828H104.329V111.227H95.7035V105.91C100.311 105.083 103.502 103.901 106.455 102.129H112.718V141.828H121.933V148.681H93.9313V141.828Z" fill="white"></path>
</svg>
