<svg viewBox="0 0 440 250" fill="none" xmlns="http://www.w3.org/2000/svg">
<path d="M434.992 250H5.00797C2.20351 250 0 247.797 0 244.994V5.00601C0 2.20264 2.20351 0 5.00797 0H434.992C437.796 0 440 2.20264 440 5.00601V244.994C440 247.697 437.696 250 434.992 250Z" fill="#B3C9EB"/>
<path d="M258.37 56.4293H78.884C72.1733 56.4293 66.6646 50.9227 66.6646 44.2147C66.6646 37.5066 72.1733 32 78.884 32H258.37C265.08 32 270.589 37.5066 270.589 44.2147C270.589 51.0228 265.18 56.4293 258.37 56.4293Z" fill="white"/>
<path d="M38.2194 56.4293C31.5088 56.4293 26 50.9227 26 44.2147C26 37.5066 31.5088 32 38.2194 32C44.9301 32 50.4389 37.5066 50.4389 44.2147C50.4389 51.0228 45.0303 56.4293 38.2194 56.4293Z" fill="#4D80D0"/>
<path d="M217.505 103.286H119.649C112.938 103.286 107.429 97.7789 107.429 91.0709C107.429 84.3628 112.938 78.8562 119.649 78.8562H217.605C224.315 78.8562 229.824 84.3628 229.824 91.0709C229.724 97.7789 224.315 103.286 217.505 103.286Z" fill="white"/>
<path d="M78.884 103.286C72.1733 103.286 66.6646 97.7789 66.6646 91.0709C66.6646 84.3628 72.1733 78.8562 78.884 78.8562C85.5947 78.8562 91.1034 84.3628 91.1034 91.0709C91.2036 97.7789 85.6948 103.286 78.884 103.286Z" fill="#4D80D0"/>
<path d="M217.505 142.132H119.649C112.938 142.132 107.429 136.626 107.429 129.917C107.429 123.209 112.938 117.703 119.649 117.703H217.605C224.315 117.703 229.824 123.209 229.824 129.917C229.724 136.626 224.315 142.132 217.505 142.132Z" fill="white"/>
<path d="M78.884 142.132C72.1733 142.132 66.6646 136.626 66.6646 129.917C66.6646 123.209 72.1733 117.703 78.884 117.703C85.5947 117.703 91.1034 123.209 91.1034 129.917C91.2036 136.626 85.6948 142.132 78.884 142.132Z" fill="#4D80D0"/>
<path d="M258.37 180.879H160.414C153.703 180.879 148.194 175.372 148.194 168.664C148.194 161.956 153.703 156.449 160.414 156.449H258.37C265.08 156.449 270.589 161.956 270.589 168.664C270.589 175.372 265.18 180.879 258.37 180.879Z" fill="white"/>
<path d="M119.749 180.879C113.039 180.879 107.53 175.372 107.53 168.664C107.53 161.956 113.039 156.449 119.749 156.449C126.46 156.449 131.969 161.956 131.969 168.664C131.969 175.372 126.56 180.879 119.749 180.879Z" fill="#4D80D0"/>
<path d="M258.37 217.523H160.414C153.703 217.523 148.194 212.016 148.194 205.308C148.194 198.6 153.703 193.093 160.414 193.093H258.37C265.08 193.093 270.589 198.6 270.589 205.308C270.589 212.016 265.18 217.523 258.37 217.523Z" fill="white"/>
<path d="M119.749 217.523C113.039 217.523 107.53 212.016 107.53 205.308C107.53 198.6 113.039 193.093 119.749 193.093C126.46 193.093 131.969 198.6 131.969 205.308C131.969 212.016 126.56 217.523 119.749 217.523Z" fill="#4D80D0"/>
</svg>
