<svg viewBox="0 0 440 250" fill="none" xmlns="http://www.w3.org/2000/svg">
<g clip-path="url(#clip0_687_4548)">
<path d="M129.824 140.132H5.08318C2.2366 140.132 0 137.896 0 135.051V30.0808C0 27.2356 2.2366 25 5.08318 25H129.824C132.671 25 134.908 27.2356 134.908 30.0808V135.051C134.908 137.896 132.569 140.132 129.824 140.132Z" fill="#B3C9EB"/>
<path d="M21.0444 106.293H55.61C58.4566 106.293 60.6932 108.529 60.6932 111.374V120.418C60.6932 123.263 58.4566 125.499 55.61 125.499H21.0444C18.1978 125.499 15.9612 123.263 15.9612 120.418V111.374C15.9612 108.631 18.1978 106.293 21.0444 106.293Z" fill="#4D80D0"/>
<path d="M86.0074 60.0578H23.8909C19.5194 60.0578 15.9612 56.5012 15.9612 52.1317C15.9612 47.7621 19.5194 44.2056 23.8909 44.2056H86.0074C90.3789 44.2056 93.9372 47.7621 93.9372 52.1317C93.9372 56.5012 90.3789 60.0578 86.0074 60.0578Z" fill="white"/>
<path d="M105.73 81.3973H21.0444C18.1978 81.3973 15.9612 79.1617 15.9612 76.3164C15.9612 73.4712 18.1978 71.2356 21.0444 71.2356H105.73C108.577 71.2356 110.813 73.4712 110.813 76.3164C110.813 79.0601 108.577 81.3973 105.73 81.3973Z" fill="white"/>
<path d="M105.73 96.6397H21.0444C18.1978 96.6397 15.9612 94.4041 15.9612 91.5589C15.9612 88.7136 18.1978 86.478 21.0444 86.478H105.73C108.577 86.478 110.813 88.7136 110.813 91.5589C110.813 94.3025 108.577 96.6397 105.73 96.6397Z" fill="white"/>
<path d="M282.32 140.132H157.579C154.732 140.132 152.495 137.896 152.495 135.051V30.0808C152.495 27.2356 154.732 25 157.579 25H282.32C285.166 25 287.403 27.2356 287.403 30.0808V135.051C287.403 137.896 285.065 140.132 282.32 140.132Z" fill="#B3C9EB"/>
<path d="M173.54 106.293H208.105C210.952 106.293 213.189 108.529 213.189 111.374V120.418C213.189 123.263 210.952 125.499 208.105 125.499H173.54C170.693 125.499 168.457 123.263 168.457 120.418V111.374C168.457 108.631 170.693 106.293 173.54 106.293Z" fill="#4D80D0"/>
<path d="M238.503 60.0578H176.386C172.015 60.0578 168.457 56.5012 168.457 52.1317C168.457 47.7621 172.015 44.2056 176.386 44.2056H238.503C242.874 44.2056 246.433 47.7621 246.433 52.1317C246.433 56.5012 242.874 60.0578 238.503 60.0578Z" fill="white"/>
<path d="M258.226 81.3973H173.438C170.592 81.3973 168.355 79.1617 168.355 76.3164C168.355 73.4712 170.592 71.2356 173.438 71.2356H258.226C261.072 71.2356 263.309 73.4712 263.309 76.3164C263.309 79.0601 261.072 81.3973 258.226 81.3973Z" fill="white"/>
<path d="M258.226 96.6397H173.438C170.592 96.6397 168.355 94.4041 168.355 91.5589C168.355 88.7136 170.592 86.478 173.438 86.478H258.226C261.072 86.478 263.309 88.7136 263.309 91.5589C263.309 94.3025 261.072 96.6397 258.226 96.6397Z" fill="white"/>
<path d="M434.917 140.132H310.277C307.431 140.132 305.194 137.896 305.194 135.051V30.0808C305.194 27.2356 307.431 25 310.277 25H435.018C437.865 25 440.102 27.2356 440.102 30.0808V135.051C440 137.896 437.763 140.132 434.917 140.132Z" fill="#B3C9EB"/>
<path d="M326.137 106.293H360.702C363.549 106.293 365.786 108.529 365.786 111.374V120.418C365.786 123.263 363.549 125.499 360.702 125.499H326.137C323.29 125.499 321.054 123.263 321.054 120.418V111.374C321.054 108.631 323.392 106.293 326.137 106.293Z" fill="#4D80D0"/>
<path d="M391.1 60.0578H328.983C324.612 60.0578 321.054 56.5012 321.054 52.1317C321.054 47.7621 324.612 44.2056 328.983 44.2056H391.1C395.471 44.2056 399.03 47.7621 399.03 52.1317C399.131 56.5012 395.573 60.0578 391.1 60.0578Z" fill="white"/>
<path d="M410.924 81.3973H326.137C323.29 81.3973 321.054 79.1617 321.054 76.3164C321.054 73.4712 323.29 71.2356 326.137 71.2356H410.924C413.771 71.2356 416.007 73.4712 416.007 76.3164C416.007 79.0601 413.669 81.3973 410.924 81.3973Z" fill="white"/>
<path d="M410.924 96.6397H326.137C323.29 96.6397 321.054 94.4041 321.054 91.5589C321.054 88.7136 323.29 86.478 326.137 86.478H410.924C413.771 86.478 416.007 88.7136 416.007 91.5589C416.007 94.3025 413.669 96.6397 410.924 96.6397Z" fill="white"/>
<path d="M159.409 224.27C169.515 224.27 177.708 216.081 177.708 205.979C177.708 195.877 169.515 187.688 159.409 187.688C149.302 187.688 141.109 195.877 141.109 205.979C141.109 216.081 149.302 224.27 159.409 224.27Z" fill="#4D80D0"/>
<path d="M216.035 224.27C226.142 224.27 234.335 216.081 234.335 205.979C234.335 195.877 226.142 187.688 216.035 187.688C205.929 187.688 197.736 195.877 197.736 205.979C197.736 216.081 205.929 224.27 216.035 224.27Z" fill="#B3C9EB"/>
<path d="M272.357 224.27C282.463 224.27 290.656 216.081 290.656 205.979C290.656 195.877 282.463 187.688 272.357 187.688C262.25 187.688 254.057 195.877 254.057 205.979C254.057 216.081 262.25 224.27 272.357 224.27Z" fill="#B3C9EB"/>
</g>
<defs>
<clipPath id="clip0_687_4548">
<rect width="440" height="250" fill="white"/>
</clipPath>
</defs>
</svg>
