<svg viewBox="0 0 440 250" fill="none" xmlns="http://www.w3.org/2000/svg">
<g clip-path="url(#clip0_687_4536)">
<path d="M434.888 250H5.11152C2.24907 250 0 247.813 0 245.029V81.9713C0 79.1874 2.24907 77 5.11152 77H434.888C437.751 77 440 79.1874 440 81.9713V245.029C440 247.813 437.751 250 434.888 250Z" fill="#B3C9EB"/>
<path fill-rule="evenodd" clip-rule="evenodd" d="M434.888 0H5.11152C2.24907 0 0 2.22222 0 5.05051V56.3636C0 59.1919 2.24907 61.4141 5.11152 61.4141H99.2658V176.869C99.2658 179.697 101.515 181.919 104.377 181.919H223.987C226.849 181.919 229.099 179.596 229.201 176.768V61.4141H434.888C437.751 61.4141 440 59.1919 440 56.3636V5.05051C440 2.22222 437.751 0 434.888 0Z" fill="#4D80D0"/>
<path d="M75.2416 43.6465H33.4294C26.5799 43.6465 20.9572 38.0909 20.9572 31.3232C20.9572 24.5556 26.5799 19 33.4294 19H75.2416C82.0911 19 87.7138 24.5556 87.7138 31.3232C87.7138 38.1919 82.0911 43.6465 75.2416 43.6465Z" fill="white"/>
<path d="M172.463 43.6465H130.651C123.801 43.6465 118.178 38.0909 118.178 31.3232C118.178 24.5556 123.801 19 130.651 19H172.463C179.312 19 184.935 24.5556 184.935 31.3232C184.935 38.1919 179.414 43.6465 172.463 43.6465Z" fill="white"/>
<path d="M269.786 43.6465H227.974C221.125 43.6465 215.502 38.0909 215.502 31.3232C215.502 24.5556 221.125 19 227.974 19H269.786C276.636 19 282.258 24.5556 282.258 31.3232C282.258 38.1919 276.636 43.6465 269.786 43.6465Z" fill="white"/>
<path d="M367.007 43.6465H325.195C318.346 43.6465 312.723 38.0909 312.723 31.3232C312.723 24.5556 318.346 19 325.195 19H367.007C373.857 19 379.48 24.5556 379.48 31.3232C379.48 38.1919 373.959 43.6465 367.007 43.6465Z" fill="white"/>
<path d="M124.21 83.0303H202.11C204.972 83.0303 207.221 85.2525 207.221 88.0808V89.495C207.221 92.3232 204.972 94.5455 202.11 94.5455H124.21C121.348 94.5455 119.099 92.3232 119.099 89.495V88.0808C119.099 85.2525 121.348 83.0303 124.21 83.0303Z" fill="white"/>
<path d="M124.21 114.141H176.041C178.903 114.141 181.152 116.364 181.152 119.192V120.606C181.152 123.434 178.903 125.657 176.041 125.657H124.21C121.348 125.657 119.099 123.434 119.099 120.606V119.192C119.099 116.364 121.348 114.141 124.21 114.141Z" fill="white"/>
<path d="M124.21 143.737H176.041C178.903 143.737 181.152 145.96 181.152 148.788V150.202C181.152 153.03 178.903 155.253 176.041 155.253H124.21C121.348 155.253 119.099 153.03 119.099 150.202V148.788C119.099 145.96 121.348 143.737 124.21 143.737Z" fill="white"/>
</g>
<defs>
<clipPath id="clip0_687_4536">
<rect width="440" height="250" fill="white"/>
</clipPath>
</defs>
</svg>
