<svg viewBox="0 0 440 250" fill="none" xmlns="http://www.w3.org/2000/svg">
<path d="M434.992 173H5.00797C2.20351 173 0 170.85 0 168.113V4.88701C0 2.15028 2.20351 0 5.00797 0H434.992C437.796 0 440 2.15028 440 4.88701V168.113C440 170.85 437.696 173 434.992 173Z" fill="#B3C9EB"></path>
<path d="M434.992 250H5.00797C2.20351 250 0 247.797 0 244.994V194.133C0 191.33 2.20351 189.127 5.00797 189.127H434.992C437.796 189.127 440 191.33 440 194.133V244.994C440 247.697 437.696 250 434.992 250Z" fill="#4D80D0"></path>
<path d="M49.3785 237.886C59.6121 237.886 67.908 229.593 67.908 219.363C67.908 209.134 59.6121 200.841 49.3785 200.841C39.145 200.841 30.8491 209.134 30.8491 219.363C30.8491 229.593 39.145 237.886 49.3785 237.886Z" fill="white"></path>
<path d="M365.982 230.977C372.399 230.977 377.601 225.777 377.601 219.363C377.601 212.949 372.399 207.749 365.982 207.749C359.566 207.749 354.364 212.949 354.364 219.363C354.364 225.777 359.566 230.977 365.982 230.977Z" fill="white"></path>
<path d="M399.035 230.977C405.452 230.977 410.653 225.777 410.653 219.363C410.653 212.949 405.452 207.749 399.035 207.749C392.618 207.749 387.416 212.949 387.416 219.363C387.416 225.777 392.618 230.977 399.035 230.977Z" fill="white"></path>
<path d="M126.201 225.07H90.4439C87.6394 225.07 85.4359 222.867 85.4359 220.064V218.662C85.4359 215.859 87.6394 213.656 90.4439 213.656H126.201C129.005 213.656 131.209 215.859 131.209 218.662V220.064C131.209 222.867 128.905 225.07 126.201 225.07Z" fill="white"></path>
<path d="M186.397 225.07H150.64C147.835 225.07 145.632 222.867 145.632 220.064V218.662C145.632 215.859 147.835 213.656 150.64 213.656H186.397C189.201 213.656 191.405 215.859 191.405 218.662V220.064C191.405 222.867 189.101 225.07 186.397 225.07Z" fill="white"></path>
<path d="M246.492 225.07H210.735C207.931 225.07 205.727 222.867 205.727 220.064V218.662C205.727 215.859 207.931 213.656 210.735 213.656H246.492C249.297 213.656 251.5 215.859 251.5 218.662V220.064C251.5 222.867 249.196 225.07 246.492 225.07Z" fill="white"></path>
</svg>
