<svg viewBox="0 0 440 250" fill="none" xmlns="http://www.w3.org/2000/svg">
<path d="M5.00797 77H434.992C437.796 77 440 79.1503 440 81.887V245.113C440 247.85 437.796 250 434.992 250H5.00797C2.20351 250 0 247.85 0 245.113V81.887C0 79.1503 2.20351 77 5.00797 77Z" fill="#B3C9EB"/>
<path d="M5.00797 0H434.992C437.796 0 440 2.20264 440 5.00601V55.867C440 58.6704 437.796 60.873 434.992 60.873H5.00797C2.20351 60.873 0 58.6704 0 55.867V5.00601C0 2.20264 2.20351 0 5.00797 0Z" fill="#4D80D0"/>
<path d="M55.7083 43.0336C62.5647 35.4402 61.9649 23.7285 54.3686 16.8747C46.7722 10.0209 35.0559 10.6205 28.1994 18.2138C21.3429 25.8072 21.9427 37.519 29.5391 44.3728C37.1354 51.2266 48.8518 50.627 55.7083 43.0336Z" fill="white"/>
<path d="M77.1227 33.3401H112.88C115.684 33.3401 117.888 35.5427 117.888 38.3461V39.7478C117.888 42.5511 115.684 44.7538 112.88 44.7538H77.1227C74.3182 44.7538 72.1147 42.5511 72.1147 39.7478V38.3461C72.1147 35.6429 74.4184 33.3401 77.1227 33.3401Z" fill="white"/>
<path d="M77.1227 15.4186H135.115C137.919 15.4186 140.123 17.6212 140.123 20.4246V21.8263C140.123 24.6296 137.919 26.8323 135.115 26.8323H77.1227C74.3182 26.8323 72.1147 24.6296 72.1147 21.8263V20.4246C72.1147 17.7213 74.4184 15.4186 77.1227 15.4186Z" fill="white"/>
</svg>
