<svg viewBox="0 0 440 250" fill="none" xmlns="http://www.w3.org/2000/svg">
<path d="M5.01025 0H434.99C437.796 0 440 2.22402 440 5.05459V244.945C440 247.776 437.796 250 434.99 250H5.01025C2.20451 250 0 247.776 0 244.945V5.05459C0 2.22402 2.20451 0 5.01025 0Z" fill="#B3C9EB"></path>
<path d="M349.315 75.2123H109.624C102.911 75.2123 97.3992 69.6523 97.3992 62.8791V55.6005C97.3992 48.8274 102.911 43.2673 109.624 43.2673H349.315C356.028 43.2673 361.539 48.8274 361.539 55.6005V62.8791C361.64 69.7534 356.128 75.2123 349.315 75.2123Z" fill="white"></path>
<path d="M62.9287 79.9635C52.9082 79.9635 44.6914 71.7751 44.6914 61.5648C44.6914 51.4557 52.808 43.1661 62.9287 43.1661C72.9492 43.1661 81.166 51.3546 81.166 61.5648C81.166 71.7751 72.9492 79.9635 62.9287 79.9635Z" fill="#4D80D0"></path>
<path d="M285.083 140.619H109.624C102.911 140.619 97.3992 135.059 97.3992 128.286V121.007C97.3992 114.234 102.911 108.674 109.624 108.674H285.083C291.797 108.674 297.308 114.234 297.308 121.007V128.286C297.308 135.059 291.897 140.619 285.083 140.619Z" fill="white"></path>
<path d="M62.9287 144.258C52.9082 144.258 44.6914 136.07 44.6914 125.859C44.6914 115.75 52.808 107.461 62.9287 107.461C72.9492 107.461 81.166 115.649 81.166 125.859C81.166 135.968 72.9492 144.258 62.9287 144.258Z" fill="#4D80D0"></path>
<path d="M285.083 206.025H109.624C102.911 206.025 97.3992 200.465 97.3992 193.692V186.413C97.3992 179.64 102.911 174.08 109.624 174.08H285.083C291.797 174.08 297.308 179.64 297.308 186.413V193.692C297.308 200.465 291.897 206.025 285.083 206.025Z" fill="white"></path>
<path d="M62.9287 208.451C52.9082 208.451 44.6914 200.263 44.6914 190.053C44.6914 179.943 52.808 171.654 62.9287 171.654C72.9492 171.654 81.166 179.842 81.166 190.053C81.166 200.162 72.9492 208.451 62.9287 208.451Z" fill="#4D80D0"></path>
<path d="M65.4338 61.666H60.4236V190.053H65.4338V61.666Z" fill="#4D80D0"></path>
</svg>
