<svg viewBox="0 0 440 250" fill="none" xmlns="http://www.w3.org/2000/svg">
<path d="M5.01025 0H434.99C437.796 0 440 2.22402 440 5.05459V244.945C440 247.776 437.796 250 434.99 250H5.01025C2.20451 250 0 247.776 0 244.945V5.05459C0 2.22402 2.20451 0 5.01025 0Z" fill="#4D80D0"/>
<path d="M430.581 9.50269H149.406V78.6495H430.581V9.50269Z" fill="#B3C9EB"/>
<path d="M430.581 89.9717H149.406V159.118H430.581V89.9717Z" fill="white"/>
<path d="M430.581 170.34H149.406V239.486H430.581V170.34Z" fill="white"/>
<path d="M140.588 170.34H8.81799V239.486H140.588V170.34Z" fill="white"/>
<path d="M140.588 89.9717H8.81799V159.118H140.588V89.9717Z" fill="white"/>
<path d="M140.588 9.50269H8.81799V78.6495H140.588V9.50269Z" fill="#B3C9EB"/>
</svg>
