<svg width="440" height="250" viewBox="0 0 440 250" fill="none" xmlns="http://www.w3.org/2000/svg">
<path d="M434.992 250H5.00797C2.20351 250 0 247.797 0 244.994V5.00601C0 2.20264 2.20351 0 5.00797 0H434.992C437.796 0 440 2.20264 440 5.00601V244.994C440 247.697 437.696 250 434.992 250Z" fill="#4D80D0"/>
<path d="M377.2 200.441H62.6997C59.8953 200.441 57.6918 198.238 57.6918 195.435V54.5656C57.6918 51.7622 59.8953 49.5596 62.6997 49.5596H377.2C380.005 49.5596 382.208 51.7622 382.208 54.5656V195.435C382.208 198.138 380.005 200.441 377.2 200.441Z" fill="#B3C9EB"/>
<path d="M318.707 156.488H121.293C118.489 156.488 116.285 154.285 116.285 151.482V98.5182C116.285 95.7149 118.489 93.5122 121.293 93.5122H318.707C321.512 93.5122 323.715 95.7149 323.715 98.5182V151.482C323.715 154.185 321.411 156.488 318.707 156.488Z" fill="white"/>
</svg>
