<svg width="440" height="250" viewBox="0 0 440 250" fill="none" xmlns="http://www.w3.org/2000/svg">
<path d="M434.992 250H5.00797C2.20351 250 0 247.797 0 244.994V5.00601C0 2.20264 2.20351 0 5.00797 0H434.992C437.796 0 440 2.20264 440 5.00601V244.994C440 247.697 437.696 250 434.992 250Z" fill="#B3C9EB"/>
<path d="M341.373 118.542H54.0157C48.5069 118.542 43.9998 114.037 43.9998 108.53C43.9998 103.023 48.5069 98.5181 54.0157 98.5181H341.373C346.882 98.5181 351.389 103.023 351.389 108.53C351.389 114.037 346.882 118.542 341.373 118.542Z" fill="white"/>
<path d="M341.373 154.786H54.0157C48.5069 154.786 43.9998 150.28 43.9998 144.774C43.9998 139.267 48.5069 134.762 54.0157 134.762H341.373C346.882 134.762 351.389 139.267 351.389 144.774C351.389 150.28 346.882 154.786 341.373 154.786Z" fill="white"/>
<path d="M49.0077 180.417H121.423C124.227 180.417 126.431 182.619 126.431 185.423V211.254C126.431 214.057 124.227 216.26 121.423 216.26H49.0077C46.2033 216.26 43.9998 214.057 43.9998 211.254V185.423C43.9998 182.619 46.2033 180.417 49.0077 180.417Z" fill="#4D80D0"/>
<path d="M210.866 71.6861H56.2197C49.509 71.6861 44.0002 66.1795 44.0002 59.4714V52.2628C44.0002 45.5547 49.509 40.0481 56.2197 40.0481H210.866C217.576 40.0481 223.085 45.5547 223.085 52.2628V59.4714C223.085 66.2796 217.576 71.6861 210.866 71.6861Z" fill="white"/>
</svg>
