<svg width="440" height="250" viewBox="0 0 440 250" fill="none" xmlns="http://www.w3.org/2000/svg">
<path d="M434.971 250H155.029C152.213 250 150 247.778 150 244.949V5.0505C150 2.22222 152.213 0 155.029 0H434.971C437.787 0 440 2.22222 440 5.0505V244.949C440 247.778 437.686 250 434.971 250Z" fill="#B3C9EB"/>
<path d="M5.03087 0C2.21358 0 0 2.22222 0 5.0505V244.949C0 247.778 1.91173 250 4.6284 250H164.811V0H5.03087Z" fill="#4D80D0"/>
<path d="M301.679 62.7273H203.275C196.534 62.7273 191 57.1717 191 50.404C191 43.6364 196.534 38.0808 203.275 38.0808H301.679C308.421 38.0808 313.954 43.6364 313.954 50.404C313.954 57.1717 308.521 62.7273 301.679 62.7273Z" fill="white"/>
<path d="M301.679 128.182H203.275C196.534 128.182 191 122.626 191 115.859C191 109.091 196.534 103.535 203.275 103.535H301.679C308.421 103.535 313.954 109.091 313.954 115.859C313.954 122.626 308.521 128.182 301.679 128.182Z" fill="white"/>
<path d="M301.679 162.626H203.275C196.534 162.626 191 157.071 191 150.303C191 143.535 196.534 137.98 203.275 137.98H301.679C308.421 137.98 313.954 143.535 313.954 150.303C313.954 157.172 308.521 162.626 301.679 162.626Z" fill="white"/>
<path d="M228.43 211.414H203.275C196.534 211.414 191 205.859 191 199.091C191 192.323 196.534 186.768 203.275 186.768H228.43C235.171 186.768 240.705 192.323 240.705 199.091C240.806 205.859 235.272 211.414 228.43 211.414Z" fill="white"/>
</svg>
