<svg width="440" height="250" viewBox="0 0 440 250" fill="none" xmlns="http://www.w3.org/2000/svg">
<path d="M435.035 250H4.96502C2.18461 250 0 247.778 0 244.949V5.0505C0 2.22222 2.18461 0 4.96502 0H435.035C437.815 0 440 2.22222 440 5.0505V244.949C440 247.778 437.815 250 435.035 250Z" fill="#B3C9EB"/>
<path d="M202.176 57.8788H38.9257C32.2726 57.8788 26.8111 52.3232 26.8111 45.5555C26.8111 38.7879 32.2726 33.2323 38.9257 33.2323H202.176C208.829 33.2323 214.29 38.7879 214.29 45.5555C214.29 52.3232 208.829 57.8788 202.176 57.8788Z" fill="white"/>
<path d="M294.624 72.7273H26.8111V165.455H294.624V72.7273Z" fill="white"/>
<path d="M31.2796 180.303H103.074C105.854 180.303 108.039 182.525 108.039 185.353V211.414C108.039 214.242 105.854 216.465 103.074 216.465H31.2796C28.4992 216.465 26.3146 214.242 26.3146 211.414V185.353C26.3146 182.626 28.4992 180.303 31.2796 180.303Z" fill="#4D80D0"/>
</svg>
