<svg width="440" height="250" viewBox="0 0 440 250" fill="none" xmlns="http://www.w3.org/2000/svg">
<path d="M435.091 249H169.909C167.16 249 165 246.787 165 243.97V5.0303C165 2.21333 167.16 0 169.909 0H435.091C437.84 0 440 2.21333 440 5.0303V243.97C440 246.787 437.742 249 435.091 249Z" fill="#B3C9EB"/>
<path d="M133.922 125.051H5.03087C2.21358 125.051 0 122.828 0 120V5.0505C0 2.22222 2.21358 0 5.03087 0H133.922C136.739 0 138.953 2.22222 138.953 5.0505V120C138.953 122.727 136.638 125.051 133.922 125.051Z" fill="#4D80D0"/>
<path d="M113.698 36.4647H25.255C22.4377 36.4647 20.2241 34.2424 20.2241 31.4142C20.2241 28.5859 22.4377 26.3636 25.255 26.3636H113.698C116.515 26.3636 118.729 28.5859 118.729 31.4142C118.729 34.2424 116.414 36.4647 113.698 36.4647Z" fill="white"/>
<path d="M113.698 68.2828H25.255C22.4377 68.2828 20.2241 66.0606 20.2241 63.2323C20.2241 60.404 22.4377 58.1818 25.255 58.1818H113.698C116.515 58.1818 118.729 60.404 118.729 63.2323C118.729 65.9595 116.414 68.2828 113.698 68.2828Z" fill="white"/>
<path d="M113.698 99.9999H25.255C22.4377 99.9999 20.2241 97.7777 20.2241 94.9494C20.2241 92.1211 22.4377 89.8989 25.255 89.8989H113.698C116.515 89.8989 118.729 92.1211 118.729 94.9494C118.729 97.7777 116.414 99.9999 113.698 99.9999Z" fill="white"/>
</svg>
