<svg width="440" height="250" viewBox="0 0 440 250" fill="none" xmlns="http://www.w3.org/2000/svg">
<path d="M434.992 250H5.00797C2.20351 250 0 247.773 0 244.939V131.377C0 128.543 2.20351 126.316 5.00797 126.316H434.992C437.796 126.316 440 128.543 440 131.377V244.939C440 247.773 437.696 250 434.992 250Z" fill="#B3C9EB"/>
<path d="M434.992 44.4332H5.00797C2.20351 44.4332 0 42.2065 0 39.3725V5.06073C0 2.22672 2.20351 0 5.00797 0H434.992C437.796 0 440 2.22672 440 5.06073V39.3725C440 42.1053 437.696 44.4332 434.992 44.4332Z" fill="#B3C9EB"/>
<path d="M434.992 110H5.00797C2.20351 110 0 107.773 0 104.939V65.0607C0 62.2267 2.20351 60 5.00797 60H434.992C437.796 60 440 62.2267 440 65.0607V104.838C440 107.672 437.696 110 434.992 110Z" fill="#4D80D0"/>
<path d="M25.8411 95.3239C20.3324 95.3239 15.8252 90.7693 15.8252 85.2025C15.8252 79.6356 20.3324 75.081 25.8411 75.081C31.3499 75.081 35.8571 79.6356 35.8571 85.2025C35.8571 90.7693 31.4501 95.3239 25.8411 95.3239Z" fill="white"/>
<path d="M230.166 95.3239H58.0924C52.5836 95.3239 48.0764 90.7693 48.0764 85.2025C48.0764 79.6356 52.5836 75.081 58.0924 75.081H230.166C235.675 75.081 240.182 79.6356 240.182 85.2025C240.182 90.7693 235.675 95.3239 230.166 95.3239Z" fill="white"/>
</svg>
