<svg width="440" height="250" viewBox="0 0 440 250" fill="none" xmlns="http://www.w3.org/2000/svg">
<path d="M219.937 249.875C288.938 249.875 344.875 193.938 344.875 124.937C344.875 55.9363 288.938 0 219.937 0C150.936 0 95 55.9363 95 124.937C95 193.938 150.936 249.875 219.937 249.875Z" fill="#4D80D0"/>
<path fill-rule="evenodd" clip-rule="evenodd" d="M234.576 109V63.2899C234.576 54.7686 227.684 47.8764 219.288 48.0017C210.892 48.0017 204 54.8939 204 63.2899V109H158.288C149.892 109 143 115.892 143 124.288C143 132.684 149.892 139.576 158.288 139.576H204V185.846C204 194.242 210.892 201.134 219.288 201.134C227.684 201.134 234.576 194.242 234.576 185.846V139.576H280.719C289.241 139.576 296.008 132.684 296.133 124.288C296.133 115.892 289.241 109 280.845 109H234.576Z" fill="white"/>
</svg>
