<svg width="440" height="250" viewBox="0 0 440 250" fill="none" xmlns="http://www.w3.org/2000/svg">
<path d="M434.992 250H5.00797C2.20351 250 0 247.775 0 244.944V83.0558C0 80.2246 2.20351 78 5.00797 78H434.992C437.796 78 440 80.2246 440 83.0558V244.944C440 247.674 437.696 250 434.992 250Z" fill="#B3C9EB"/>
<path d="M434.992 62.475H5.00797C2.20351 62.475 0 60.2723 0 57.469V5.00601C0 2.20264 2.20351 0 5.00797 0H434.992C437.796 0 440 2.20264 440 5.00601V57.469C440 60.2723 437.696 62.475 434.992 62.475Z" fill="#B3C9EB"/>
<path d="M78.0242 0V37.8454C78.0242 41.7501 80.9288 44.8538 84.5345 44.8538H355.365C358.971 44.8538 361.876 41.65 361.876 37.8454V0H78.0242Z" fill="#4D80D0"/>
<path d="M157.25 17.0204H282.65C285.454 17.0204 287.658 19.2231 287.658 22.0264V23.4281C287.658 26.2315 285.454 28.4341 282.65 28.4341H157.25C154.446 28.4341 152.242 26.2315 152.242 23.4281V22.0264C152.242 19.3232 154.546 17.0204 157.25 17.0204Z" fill="white"/>
</svg>
