<svg width="440" height="250" viewBox="0 0 440 250" fill="none" xmlns="http://www.w3.org/2000/svg">
<path d="M5.00797 56H434.992C437.796 56 440 58.161 440 60.9114V244.99C440 247.741 437.796 249.902 434.992 249.902L5.00797 250C2.20351 250 0 247.839 0 245.089V60.9114C0 58.2592 2.20351 56 5.00797 56Z" fill="#B3C9EB"/>
<path d="M5.00797 0H434.992C437.796 0 440 2.20264 440 5.00601V35.4425C440 38.2459 437.796 40.4485 434.992 40.4485H5.00797C2.20351 40.4485 0 38.2459 0 35.4425V5.00601C0 2.20264 2.20351 0 5.00797 0Z" fill="#4D80D0"/>
<path d="M66.2053 14.8177H162.158C164.962 14.8177 167.166 17.0204 167.166 19.8238V21.2254C167.166 24.0288 164.962 26.2314 162.158 26.2314H66.2053C63.4009 26.2314 61.1974 24.0288 61.1974 21.2254V19.8238C61.1974 17.1205 63.4009 14.8177 66.2053 14.8177Z" fill="white"/>
<path d="M377.4 14.8177H407.849C410.653 14.8177 412.857 17.0204 412.857 19.8238C412.857 22.6271 410.653 24.8298 407.849 24.8298H377.4C374.596 24.8298 372.392 22.6271 372.392 19.8238C372.392 17.1205 374.596 14.8177 377.4 14.8177Z" fill="white"/>
<path d="M41.7665 30.3365C47.3534 30.3365 51.8825 25.8091 51.8825 20.2243C51.8825 14.6395 47.3534 10.1122 41.7665 10.1122C36.1795 10.1122 31.6504 14.6395 31.6504 20.2243C31.6504 25.8091 36.1795 30.3365 41.7665 30.3365Z" fill="white"/>
</svg>
