<svg width="440" height="250" viewBox="0 0 440 250" fill="none" xmlns="http://www.w3.org/2000/svg">
<g clip-path="url(#clip0_687_4544)">
<path d="M434.992 175H5.00797C2.20351 175 0 172.832 0 170.073V4.9268C0 2.16779 2.20351 0 5.00797 0H434.992C437.796 0 440 2.16779 440 4.9268V170.073C440 172.832 437.696 175 434.992 175Z" fill="#B3C9EB"/>
<path d="M434.992 250H5.00797C2.20351 250 0 247.797 0 244.994V195.635C0 192.831 2.20351 190.629 5.00797 190.629H434.992C437.796 190.629 440 192.831 440 195.635V244.994C440 247.697 437.696 250 434.992 250Z" fill="#4D80D0"/>
<path d="M63.501 216.159H27.8443C25.0398 216.159 22.8363 213.957 22.8363 211.153V209.752C22.8363 206.948 25.0398 204.746 27.8443 204.746H63.6012C66.4057 204.746 68.6092 206.948 68.6092 209.752V211.153C68.509 213.957 66.3055 216.159 63.501 216.159Z" fill="white"/>
<path d="M123.697 216.159H88.0401C85.2356 216.159 83.0321 213.957 83.0321 211.153V209.752C83.0321 206.948 85.2356 204.746 88.0401 204.746H123.797C126.601 204.746 128.805 206.948 128.805 209.752V211.153C128.705 213.957 126.501 216.159 123.697 216.159Z" fill="white"/>
<path d="M123.697 235.182H27.8443C25.0399 235.182 22.8364 232.98 22.8364 230.176V228.775C22.8364 225.971 25.0399 223.769 27.8443 223.769H123.797C126.601 223.769 128.805 225.971 128.805 228.775V230.176C128.705 232.879 126.501 235.182 123.697 235.182Z" fill="white"/>
<path d="M183.792 216.159H148.036C145.231 216.159 143.028 213.957 143.028 211.153V209.752C143.028 206.948 145.231 204.746 148.036 204.746H183.792C186.597 204.746 188.8 206.948 188.8 209.752V211.153C188.8 213.957 186.597 216.159 183.792 216.159Z" fill="white"/>
<path d="M246.292 216.159H210.535C207.73 216.159 205.527 213.957 205.527 211.153V209.752C205.527 206.948 207.73 204.746 210.535 204.746H246.292C249.096 204.746 251.3 206.948 251.3 209.752V211.153C251.3 213.957 248.996 216.159 246.292 216.159Z" fill="white"/>
</g>
<defs>
<clipPath id="clip0_687_4544">
<rect width="440" height="250" fill="white"/>
</clipPath>
</defs>
</svg>
