<?xml version="1.0" encoding="utf-8"?>
<svg version="1.1" id="Layer_1" xmlns="http://www.w3.org/2000/svg" xmlns:xlink="http://www.w3.org/1999/xlink" x="0px" y="0px"
	 viewBox="0 0 1920 1080" style="enable-background:new 0 0 1920 1080;" xml:space="preserve">
<style type="text/css">
	.st0{fill:none;stroke:#000000;stroke-width:5;stroke-linecap:round;stroke-linejoin:round;}
	.st1{fill:none;stroke:#000000;stroke-width:7;stroke-miterlimit:10;}
</style>
<path class="st0" d="M612.98,164.02L612.98,164.02 M664.85,224.83L664.85,224.83 M637,291 M621,256 M612.88,164l-45.61,33.85
	 M624.26,265.85l-69,25 M637,291 M739,458 M745,415l-78.74-44.16 M555.01,303.09 M580.26,419.85l27.67-21.79 M482.88,341.83
	 M450,294 M450,294l32,48l78.26-14.16 M333.26,297.85L369,307l34-20 M357,456l-8-93l20-56 M330.04,343.05L349,363l54-37 M416,459
	 M433,471l-17-12l-59-3l-33-47l6.04-65.96L335,260c11.49,26.7,43.89,38.31,68,27v39l6.43,3.67L422,320l28-26l2-10l8-1
	c14,10.01,18.83,13.41,33,16c5.83,0.97,61.29,3.68,64.26,3.84l106.65,58.66L717,333 M416,459l-6.57-129.33 M446.85,407.88
	l-34.58-28.03L357,456 M508.87,370.1 M422,320l48,57l96.26-25.16 M666,513l-0.12-0.08 M608.26,470.85l-3,53 M726,493l-22,12l-38,8
	l14.26-65.16L739,458 M466.98,474.1l41.95-39.02 M609.97,652.92L610,653 M575,556l0,0.01 M689,805l-0.09,0.09 M542.9,525.95
	 M535.68,736.12l68.57-40.16 M592,795l18-142l70-60 M505.31,715.62 M555,814 M762,937l-73-132l-5.33-90.27L784,675 M709,973l-19-54
	l-0.03-0.01 M620,945l75.86-8.99 M525.26,806.85l-28.35,29.12 M496.91,835.97L496.91,835.97 M406,869l19,18l62,59 M395,939
	l30.27-51.38l119,6.23 M417.87,840.01l-14-56L399,734l-3.93-57.03L395,677l-0.13-69.99l17.21-82.19L433,471l13.85-63.13l23.15-30.87
	l12.27-35.16 M508.93,435.07L508.93,435.07 M604.9,529.33 M625.87,342.01l-18,56l72,50 M629.26,483.85l50.6-35.83l-16-87L621,256
	l-31-26h-20l-18,47l28,143l20,45 M664.95,224.95L693,205l1-47l-27-23l-35-1L612.88,164l46.99,1.02L665,225l-28.74,67.84
	 M601.81,801.01l21,97l0.13,0.04c0,0-3.77,35.72-2.99,46.95l24,24l65,4l29-13l24-23l9-29l-13-64l26-169l-6.74-49.16L733.94,527
	l-8-34l13-35l6-43l-28-82l-52-108l-52.12-61.01l-99.88-12.15l-38-28.84l-42,8v33.99l45,0.01l39,10l39,14l18,14l12.27,26.84
	 M575.01,555.85l66.61,2.02 M508.93,435.07L680,593l97.26,32.84 M412.07,524.82l-0.21,0.19 M466.92,474.05l0.06,0.05 M734,527
	l-68-14l-66-48l-92.74-97.16l1.66,67.23l-96.86,89.75 M466.98,474.1L575,556.02l-0.14,0L610,653l73.68,61.73L758,844 M394.87,607.01
	l121.08,90.32L566,797 M411.87,525.01l44.4,127.83l-61.2,24.13 M535.77,526.85l-19.46,171.77L433,781l-29.13,3.01 M553,832
	l-85.74-85.16L399,734l116.94-36.67 M551,883c-0.09-0.04-54.13-46.99-54.13-46.99L452.76,818L418,840l-12,29
	c-20.7,28.47-17.64,20.03-22,55l11,15l44,17l48-10l34-25l25-28L551,883l2-51l13-35 M469.87,889.01L452.76,818l14.5-71.15
	 M670.86,913.01l-0.18-1.09 M688.91,805.09l-0.04-0.08l-30.94,29.94L592,795l-26,2 M657.87,835.01l12.82,76.9 M625.13,898.67
	c0,0,64.72,20.44,64.84,20.32l56.32-9.88L771,908 M513,151.85l-45.74-3l-34,16.15"/>
<path class="st1" d="M448.03,207.44l-10.54-17.68l-12.62-7.25l-32.77-9.63 M586.21,229.84L573.94,203l-18-14l-39-14l-39-10l-45-0.01
	l-5.47,2.94l-7.89,12.18 M377.64,184.12c-22.09,0-40,19.92-40,44.5s17.91,44.5,40,44.5s40-19.92,40-44.5
	S399.73,184.12,377.64,184.12z M495.64,186.34c-23.47,0-42.5,21.17-42.5,47.28s19.03,47.28,42.5,47.28s42.5-21.17,42.5-47.28
	S519.11,186.34,495.64,186.34z M382.58,171.96c-28.99,0-52.5,26.15-52.5,58.41s23.51,58.41,52.5,58.41
	c28.99,0,52.5-26.15,52.5-58.41S411.58,171.96,382.58,171.96z M501.14,173.12c-31.76,0-57.5,27.53-57.5,61.5s25.74,61.5,57.5,61.5
	s57.5-27.53,57.5-61.5S532.9,173.12,501.14,173.12z M501.15,296.12l54.62,4.23 M397.31,286.48l62-9"/>
<path class="st0" d="M1291.02,164.02L1291.02,164.02 M1239.15,224.83L1239.15,224.83 M1267,291 M1283,256 M1336.73,197.85
	L1291.12,164 M1348.73,290.85l-69-25 M1267,291 M1165,458 M1237.73,370.85L1159,415 M1348.99,303.09 M1296.07,398.06l27.67,21.79
	 M1421.12,341.83 M1454,294 M1343.73,327.85L1422,342l32-48 M1501,287l34,20l35.73-9.16 M1535,307l20,56l-8,93 M1501,326l54,37
	l18.96-19.96 M1488,459 M1187,333l53.09,28.5l106.65-58.66c2.97-0.16,58.43-2.87,64.27-3.84c14.17-2.59,19-5.99,33-16l8,1l2,10
	l28,26l12.57,9.67L1501,326v-39c24.11,11.31,56.51-0.3,68-27l4.96,83.04L1580,409l-33,47l-59,3l-17,12 M1494.57,329.68L1488,459
	 M1547,456l-55.27-76.16l-34.58,28.03 M1395.13,370.1 M1337.73,351.85L1434,377l48-57 M1238.12,512.93L1238,513 M1298.73,523.85
	l-3-53 M1165,458l58.73-10.16L1238,513l-38-8l-22-12 M1395.07,435.07l41.95,39.02 M1294,653l0.03-0.08 M1329,556.02l0-0.01
	 M1215.09,805.09L1215,805 M1361.1,525.95 M1299.75,695.95l68.57,40.16 M1224,593l70,60l18,142 M1398.69,715.62 M1349,814 M1120,675
	l100.33,39.73L1215,805l-73,132 M1214.03,918.99L1214,919l-19,54 M1208.14,936.01L1284,945 M1407.09,835.97l-28.35-29.12
	 M1407.09,835.97L1407.09,835.97 M1417,946l62-59l19-18 M1359.73,893.85l119-6.23L1509,939 M1421.73,341.85l12.27,35.16l23.15,30.87
	L1471,471l20.93,53.82l17.21,82.19L1509,677l-0.07-0.03L1505,734l-4.87,50.01l-14,56 M1395.07,435.07L1395.07,435.07 M1299.1,529.33
	 M1224.13,448.01l72-50l-18-56 M1304,465l20-45l28-143l-18-47h-20l-31,26l-42.87,105.01l-16,87l50.6,35.83 M1267.73,292.85L1239,225
	l5.13-59.99l46.99-1.02L1272,134l-35,1l-27,23l1,47l28.05,19.95 M1317.79,229.84l12.27-26.84l18-14l39-14l39-10l45-0.01V131l-42-8
	l-38,28.84l-99.88,12.15L1239.06,225l-52,108l-28,82l6,43l13,35l-8,34l-43.26,98.84l-6.74,49.16l26,169l-13,64l9,29l24,23l29,13
	l65-4l24-24c0.77-11.23-2.99-46.95-2.99-46.95l0.13-0.04l21-97 M1262.38,557.87l66.61-2.02 M1126.73,625.85L1224,593l171.07-157.93
	 M1492.13,525.01l-0.21-0.19 M1437.02,474.1l0.06-0.05 M1491.93,524.82l-96.86-89.75l1.66-67.23L1304,465l-66,48l-68,14 M1146,844
	l74.32-129.27L1294,653l35.13-96.99l-0.14,0l108.03-81.92 M1338,797l50.06-99.67l121.08-90.32 M1508.93,676.98l-61.2-24.13
	l44.4-127.83 M1500.13,784.01L1471,781l-83.31-82.38l-19.46-171.77 M1388.06,697.34L1505,734l-68.27,12.84L1351,832 M1338,797l13,35
	l2,51l5,10l25,28l34,25l48,10l44-17l11-15c-4.36-34.97-1.3-26.53-22-55l-12-29L1451.23,818l-44.1,18.02c0,0-54.04,46.95-54.13,46.99
	 M1436.73,746.85l14.5,71.15l-17.1,71.02 M1233.32,911.91l-0.18,1.09 M1338,797l-26-2l-65.92,39.95l-30.94-29.94l-0.04,0.08
	 M1233.32,911.91l12.82-76.9 M1133,908l24.71,1.11l56.32,9.88c0.12,0.11,64.84-20.32,64.84-20.32 M1470.73,165l-34-16.15l-45.73,3"
	/>
<path class="st1" d="M1511.89,172.88l-32.77,9.63l-12.62,7.25l-10.54,17.68 M1484.41,180.11l-7.89-12.18l-5.47-2.94l-45,0.01l-39,10
	l-39,14l-18,14l-12.27,26.84 M1486.36,228.62c0,24.58,17.91,44.5,40,44.5c22.09,0,40-19.92,40-44.5s-17.91-44.5-40-44.5
	C1504.27,184.12,1486.36,204.04,1486.36,228.62z M1365.86,233.62c0,26.11,19.03,47.28,42.5,47.28c23.47,0,42.5-21.17,42.5-47.28
	s-19.03-47.28-42.5-47.28C1384.89,186.34,1365.86,207.51,1365.86,233.62z M1468.92,230.37c0,32.26,23.51,58.41,52.5,58.41
	c28.99,0,52.5-26.15,52.5-58.41s-23.51-58.41-52.5-58.41C1492.42,171.96,1468.92,198.11,1468.92,230.37z M1345.36,234.62
	c0,33.97,25.74,61.5,57.5,61.5c31.76,0,57.5-27.53,57.5-61.5s-25.74-61.5-57.5-61.5C1371.1,173.12,1345.36,200.65,1345.36,234.62z
	 M1348.23,300.35l54.62-4.23 M1444.69,277.48l62,9"/>
</svg>
