<svg width="332" height="83" viewBox="0 0 332 83" fill="none" xmlns="http://www.w3.org/2000/svg">
<g style="mix-blend-mode:multiply">
<ellipse cx="20.7523" cy="20.6467" rx="20.6467" ry="20.7521" transform="rotate(90 20.7523 20.6467)" fill="#FEC02F"/>
<ellipse cx="62.2479" cy="20.6467" rx="20.6467" ry="20.7521" transform="rotate(90 62.2479 20.6467)" fill="#FEC02F"/>
<ellipse cx="20.7523" cy="61.9401" rx="20.6467" ry="20.7521" transform="rotate(90 20.7523 61.9401)" fill="#FEC02F"/>
<ellipse cx="62.2479" cy="61.9401" rx="20.6467" ry="20.7521" transform="rotate(90 62.2479 61.9401)" fill="#FEC02F"/>
<ellipse cx="103.752" cy="20.6467" rx="20.6467" ry="20.7521" transform="rotate(90 103.752 20.6467)" fill="#FF8000"/>
<ellipse cx="145.248" cy="20.6467" rx="20.6467" ry="20.7521" transform="rotate(90 145.248 20.6467)" fill="#FF8000"/>
<ellipse cx="103.752" cy="61.9401" rx="20.6467" ry="20.7521" transform="rotate(90 103.752 61.9401)" fill="#FF8000"/>
<ellipse cx="145.248" cy="61.9401" rx="20.6467" ry="20.7521" transform="rotate(90 145.248 61.9401)" fill="#FF8000"/>
<ellipse cx="186.752" cy="20.6467" rx="20.6467" ry="20.7521" transform="rotate(90 186.752 20.6467)" fill="#004ABC"/>
<ellipse cx="228.248" cy="20.6467" rx="20.6467" ry="20.7521" transform="rotate(90 228.248 20.6467)" fill="#004ABC"/>
<ellipse cx="186.752" cy="61.9401" rx="20.6467" ry="20.7521" transform="rotate(90 186.752 61.9401)" fill="#004ABC"/>
<ellipse cx="228.248" cy="61.9401" rx="20.6467" ry="20.7521" transform="rotate(90 228.248 61.9401)" fill="#004ABC"/>
<ellipse cx="269.752" cy="20.6467" rx="20.6467" ry="20.7521" transform="rotate(90 269.752 20.6467)" fill="#00856D"/>
<ellipse cx="311.248" cy="20.6467" rx="20.6467" ry="20.7521" transform="rotate(90 311.248 20.6467)" fill="#00856D"/>
<ellipse cx="269.752" cy="61.9401" rx="20.6467" ry="20.7521" transform="rotate(90 269.752 61.9401)" fill="#00856D"/>
<ellipse cx="311.248" cy="61.9401" rx="20.6467" ry="20.7521" transform="rotate(90 311.248 61.9401)" fill="#00856D"/>
</g>
</svg>
