<svg width="376" height="336" viewBox="0 0 376 336" fill="none" xmlns="http://www.w3.org/2000/svg">
<path d="M363.426 328.236H0.0139465" stroke="#003484" stroke-width="0.5616" stroke-miterlimit="10"/>
<path d="M31.7576 334.818H239.866" stroke="#003484" stroke-width="0.5616" stroke-miterlimit="10"/>
<path d="M344.699 246.561H286.578C283.827 246.561 281.592 248.796 281.592 251.547V328.235H349.672V251.547C349.684 248.796 347.45 246.561 344.699 246.561Z" fill="#B3C9EB"/>
<path d="M344.699 246.561H286.578C283.827 246.561 281.592 248.796 281.592 251.547V328.235H349.672V251.547C349.684 248.796 347.45 246.561 344.699 246.561Z" stroke="#FEC02F" stroke-width="0.5616" stroke-miterlimit="10"/>
<path d="M357.63 160.405H273.758V328.223H357.63V160.405Z" stroke="#FEC02F" stroke-width="0.5616" stroke-miterlimit="10"/>
<path d="M359.827 139.395H72.1947V160.406H376" stroke="#FEC02F" stroke-width="0.5616" stroke-miterlimit="10"/>
<path d="M344.698 199.848H286.688C283.937 199.848 281.702 197.613 281.702 194.863V174.38C281.702 171.629 283.937 169.394 286.688 169.394H344.698C347.449 169.394 349.684 171.629 349.684 174.38V194.875C349.684 197.626 347.449 199.848 344.698 199.848Z" stroke="#FEC02F" stroke-width="0.5616" stroke-miterlimit="10"/>
<path d="M344.698 236.934H286.688C283.937 236.934 281.702 234.699 281.702 231.948V211.466C281.702 208.715 283.937 206.48 286.688 206.48H344.698C347.449 206.48 349.684 208.715 349.684 211.466V231.948C349.684 234.699 347.449 236.934 344.698 236.934Z" stroke="#FEC02F" stroke-width="0.5616" stroke-miterlimit="10"/>
<path d="M315.89 188.355C318.094 188.355 319.881 186.568 319.881 184.364C319.881 182.16 318.094 180.373 315.89 180.373C313.685 180.373 311.899 182.16 311.899 184.364C311.899 186.568 313.685 188.355 315.89 188.355Z" stroke="#003484" stroke-width="0.5616" stroke-miterlimit="10"/>
<path d="M315.89 225.551C318.094 225.551 319.881 223.764 319.881 221.56C319.881 219.356 318.094 217.569 315.89 217.569C313.685 217.569 311.899 219.356 311.899 221.56C311.899 223.764 313.685 225.551 315.89 225.551Z" stroke="#003484" stroke-width="0.5616" stroke-miterlimit="10"/>
<path d="M340.807 272.103L340.721 272.631L340.684 272.938L339.407 281.08L339.272 281.952L338.695 285.66L338.486 286.962L337.945 290.4L337.81 291.272L336.496 299.696V299.733L336.361 300.605L336.288 300.998L335.035 309.054L334.9 309.926L334.311 313.72V313.732L334.102 315.034L333.574 318.374L333.439 319.246L332.125 327.707L332.112 327.756L332.051 328.149L332.039 328.235H297.532L297.52 328.137L297.459 327.793L297.446 327.682L296.12 319.234L295.985 318.35L295.469 315.071L295.273 313.757L294.671 309.901L294.536 309.029L293.283 301.035L293.21 300.581L293.075 299.721V299.709L291.748 291.248L291.613 290.376L291.085 286.999L290.889 285.697L290.299 281.927L290.164 281.055L288.899 272.975L288.764 272.103H340.807Z" fill="white"/>
<path d="M332.37 328.616H297.201L297.053 327.707L288.31 271.723H341.249L332.37 328.616ZM297.851 327.854H331.707L340.352 272.496H289.194L297.851 327.854Z" fill="#003484"/>
<path d="M341.285 272.104C341.285 272.275 341.261 272.46 341.199 272.632C340.782 273.921 338.866 275.112 335.858 276.094C335.637 276.168 335.416 276.23 335.195 276.303C333.254 276.88 330.933 277.384 328.318 277.765C328.072 277.801 327.827 277.838 327.569 277.875C325.26 278.194 322.743 278.428 320.078 278.563C319.808 278.575 319.55 278.587 319.28 278.6C317.818 278.661 316.308 278.698 314.773 278.698C313.594 278.698 312.428 278.673 311.285 278.636C311.003 278.624 310.721 278.612 310.438 278.6C307.368 278.477 304.47 278.219 301.842 277.851C301.523 277.801 301.216 277.765 300.909 277.715C296.451 277.04 292.866 276.045 290.667 274.854C289.39 274.167 288.592 273.417 288.334 272.632L288.261 272.116C288.261 268.481 300.123 265.546 314.761 265.546C329.312 265.546 341.126 268.456 341.261 272.067C341.285 272.067 341.285 272.079 341.285 272.104Z" fill="#003484"/>
<path d="M332.137 327.719V328.21L332.051 328.149L332.038 328.223H331.719L327.802 323.163L327.397 322.635L323.455 317.551L323.05 317.023L319.108 311.939L318.702 311.411L314.761 306.328L314.355 305.8L310.414 300.716L310.008 300.188L306.079 295.104L305.673 294.576L301.732 289.492L301.326 288.964L297.397 283.88L296.992 283.352L293.062 278.268L292.657 277.74L288.887 272.877L288.825 272.521C289.071 273.295 289.857 274.031 291.109 274.707L293.05 277.212L293.455 277.74L297.397 282.824L297.802 283.352L301.744 288.436L302.149 288.964L306.091 294.048L306.496 294.576L310.438 299.66L310.843 300.188L314.785 305.271L315.19 305.8L319.132 310.883L319.538 311.411L323.479 316.495L323.885 317.023L327.826 322.107L328.232 322.635L332.149 327.695L332.137 327.719Z" fill="#003484"/>
<path d="M333.573 318.374L333.438 319.246L332.137 317.564L331.731 317.036L327.79 311.952L327.384 311.424L323.442 306.34L323.037 305.812L319.095 300.728L318.69 300.2L314.748 295.116L314.343 294.588L310.438 289.553L310.033 289.025L306.091 283.941L305.686 283.413L301.744 278.329L301.339 277.801L301.167 277.58C301.461 277.63 301.768 277.666 302.075 277.715L302.137 277.801L306.079 282.885L306.484 283.413L310.426 288.497L310.831 289.025L314.773 294.109L315.178 294.637L319.12 299.721L319.525 300.249L323.467 305.333L323.872 305.861L327.814 310.945L328.219 311.473L332.161 316.557L332.566 317.085L333.573 318.374Z" fill="#003484"/>
<path d="M335.035 309.053L334.9 309.925L332.137 306.364L331.732 305.836L327.79 300.752L327.385 300.224L323.443 295.14L323.037 294.612L319.096 289.528L318.69 289L314.748 283.916L314.343 283.388L310.5 278.427C310.782 278.44 311.052 278.452 311.335 278.464L314.748 282.86L315.154 283.388L319.096 288.472L319.501 289L323.443 294.084L323.848 294.612L327.79 299.696L328.195 300.224L332.137 305.308L332.542 305.836L335.035 309.053Z" fill="#003484"/>
<path d="M336.496 299.733L336.361 300.605L336.079 300.237L332.137 295.153L331.732 294.625L327.79 289.541L327.385 289.013L323.443 283.929L323.038 283.401L319.194 278.44C319.452 278.428 319.722 278.415 319.98 278.403L323.443 282.873L323.848 283.401L327.79 288.485L328.195 289.013L332.137 294.097L332.542 294.625L336.484 299.709L336.496 299.733Z" fill="#003484"/>
<path d="M306.337 328.039L306.091 328.224L306.079 328.236H305.674L301.744 323.177L301.339 322.649L297.409 317.565L297.004 317.049L295.469 315.072L295.272 313.758L297.409 316.521L297.814 317.049L301.744 322.121L302.149 322.649L306.091 327.732L306.337 328.039Z" fill="#003484"/>
<path d="M297.642 328.039L297.52 328.137L297.458 327.794L297.642 328.039Z" fill="#003484"/>
<path d="M315.019 328.038L314.773 328.223L314.761 328.235H314.356L310.438 323.176L310.033 322.648L306.091 317.564L305.686 317.048L301.744 311.964L301.339 311.448V311.436L297.409 306.364L297.004 305.836L293.283 301.035L293.21 300.581L293.075 299.721L293.467 300.237L297.409 305.321L297.815 305.836L301.744 310.92L302.149 311.448L306.091 316.52L306.496 317.048L310.438 322.12L310.844 322.648L314.773 327.731L315.019 328.038Z" fill="#003484"/>
<path d="M323.701 328.039L323.455 328.224L323.443 328.236H323.038L319.12 323.176L318.715 322.648L314.773 317.565L314.368 317.049L310.438 311.965L310.033 311.449L306.091 306.365L305.686 305.837L301.744 300.766L301.339 300.238L297.409 295.154L297.004 294.638L293.062 289.554L292.657 289.038L291.085 287L290.889 285.698L293.062 288.51L293.468 289.038L297.409 294.11L297.815 294.638L301.744 299.71L302.149 300.238L306.091 305.321L306.497 305.837L310.438 310.921L310.844 311.449L314.773 316.521L315.178 317.049L319.12 322.12L319.526 322.648L323.455 327.732L323.701 328.039Z" fill="#003484"/>
<path d="M337.945 290.401L337.81 291.273L336.484 289.554L336.079 289.026L332.137 283.942L331.732 283.414L327.79 278.33L327.384 277.802L327.335 277.741C327.581 277.704 327.827 277.667 328.06 277.63L328.195 277.802L332.137 282.886L332.542 283.414L336.484 288.498L336.889 289.026L337.945 290.401Z" fill="#003484"/>
<path d="M339.407 281.08L339.272 281.952L336.484 278.354L336.079 277.826L334.839 276.217C335.06 276.156 335.281 276.082 335.49 276.008L336.484 277.298L336.889 277.826L339.407 281.08Z" fill="#003484"/>
<path d="M341.163 272.3L340.819 272.742L340.721 272.62C340.782 272.448 340.807 272.276 340.807 272.104C340.807 272.079 340.807 272.067 340.807 272.042L340.819 272.03L341.163 272.3Z" fill="#003484"/>
<path d="M338.695 285.661L338.486 286.962L336.89 289.038L336.484 289.553L332.542 294.637L332.137 295.153L328.208 300.237L327.802 300.765L323.861 305.837L323.455 306.365L319.526 311.448L319.12 311.964L315.179 317.048L314.773 317.564L310.844 322.648L310.439 323.176L306.509 328.235H306.104L306.091 328.223L305.858 328.039L306.091 327.732L310.033 322.648L310.439 322.12L314.368 317.048L314.773 316.52L318.715 311.448L319.12 310.92L323.05 305.837L323.455 305.321L327.397 300.237L327.802 299.709L331.732 294.637L332.137 294.109L336.079 289.038L336.484 288.51L338.695 285.661Z" fill="#003484"/>
<path d="M340.684 272.939L336.889 277.839L336.484 278.367L332.542 283.451L332.137 283.979L328.195 289.062L327.79 289.591L323.848 294.674L323.443 295.202L319.525 300.237L319.12 300.765L315.178 305.849L314.773 306.377L310.831 311.461L310.426 311.989L306.484 317.073L306.079 317.601L302.137 322.685L301.732 323.213L297.814 328.272H297.52L297.507 328.174L297.458 327.83L297.409 327.769L297.446 327.72L301.351 322.685L301.756 322.157L305.698 317.073L306.103 316.545L310.045 311.461L310.451 310.933L314.392 305.849L314.798 305.321L318.739 300.237L319.145 299.709L323.087 294.625L323.492 294.097L327.434 289.013L327.839 288.485L331.781 283.401L332.186 282.873L336.116 277.789L336.521 277.261L338.449 274.769C339.714 274.093 340.512 273.356 340.77 272.571L340.684 272.939Z" fill="#003484"/>
<path d="M328.367 277.617L328.195 277.838L327.79 278.366L323.848 283.45L323.443 283.978L319.501 289.062L319.096 289.59L315.154 294.674L314.749 295.202L310.807 300.286L310.402 300.814L306.46 305.898L306.055 306.426L302.113 311.51L301.707 312.038L297.766 317.122L297.36 317.65L296.071 319.308L295.936 318.436L296.955 317.122L297.36 316.594L301.29 311.51L301.695 310.982L305.637 305.898L306.042 305.37L309.972 300.286L310.377 299.758L314.319 294.674L314.724 294.146L318.666 289.062L319.071 288.534L323.013 283.45L323.418 282.922L327.36 277.838L327.422 277.752C327.63 277.728 327.839 277.691 328.036 277.666C328.171 277.642 328.269 277.629 328.367 277.617Z" fill="#003484"/>
<path d="M319.022 278.477L315.178 283.426L314.773 283.954L310.831 289.038L310.426 289.566L306.484 294.65L306.079 295.178L302.137 300.261L301.732 300.79L297.79 305.873L297.385 306.401L294.646 309.938L294.511 309.066L296.979 305.873L297.385 305.345L301.326 300.261L301.732 299.733L305.674 294.65L306.079 294.122L310.021 289.038L310.426 288.51L314.368 283.426L314.773 282.898L318.187 278.501C318.457 278.501 318.739 278.489 319.022 278.477Z" fill="#003484"/>
<path d="M334.31 313.733L334.102 315.035L332.542 317.049L332.137 317.565L328.207 322.648L327.802 323.176L323.873 328.236H323.467L323.455 328.224L323.222 328.039L323.455 327.732L327.397 322.648L327.802 322.12L331.732 317.049L332.137 316.521L334.31 313.733Z" fill="#003484"/>
<path d="M336.287 300.999L332.542 305.838L332.137 306.366L328.207 311.449L327.802 311.965L323.86 317.049L323.455 317.565L319.525 322.649L319.12 323.177L315.19 328.236H314.785L314.773 328.224L314.54 328.04L314.773 327.733L318.715 322.649L319.12 322.121L323.05 317.049L323.455 316.521L327.397 311.449L327.802 310.921L331.732 305.838L332.137 305.322L336.079 300.238L336.484 299.71L336.496 299.698V299.734L336.361 300.606L336.287 300.999Z" fill="#003484"/>
<path d="M310.34 278.464L306.496 283.425L306.091 283.953L302.149 289.037L301.744 289.565L297.802 294.649L297.397 295.177L293.455 300.261L293.197 300.605L293.062 299.758L293.05 299.745L293.062 299.733L296.992 294.662L297.397 294.134L301.327 289.05L301.732 288.522L305.674 283.438L306.079 282.91L309.542 278.44C309.824 278.44 310.082 278.452 310.34 278.464Z" fill="#003484"/>
<path d="M302.211 277.765L302.161 277.839L301.756 278.367L297.814 283.451L297.409 283.979L293.467 289.063L293.062 289.591L291.748 291.286L291.613 290.414L292.657 289.063L293.062 288.535L296.992 283.451L297.397 282.923L301.339 277.839L301.474 277.667C301.67 277.692 301.879 277.729 302.088 277.753L302.211 277.765Z" fill="#003484"/>
<path d="M294.72 276.218L293.467 277.827L293.062 278.355L290.287 281.928L290.152 281.056L292.657 277.827L293.062 277.299L294.069 276.009C294.278 276.083 294.499 276.157 294.72 276.218Z" fill="#003484"/>
<path d="M343.336 264.895H332.002V261.444H338.878C341.027 261.444 342.82 262.918 343.336 264.895Z" fill="white" stroke="#FEC02F" stroke-width="0.468" stroke-miterlimit="10"/>
<path d="M338.952 261.445C335.735 261.482 332.923 263.631 332.063 266.738L329.447 276.23C329.079 276.292 328.698 276.353 328.318 276.402C328.072 276.439 327.826 276.476 327.569 276.513C325.26 276.832 322.743 277.065 320.078 277.2C319.808 277.213 319.55 277.225 319.28 277.237C317.818 277.299 316.308 277.335 314.773 277.335C313.594 277.335 312.427 277.311 311.285 277.274C311.003 277.262 310.721 277.249 310.438 277.237C310.328 277.237 310.217 277.225 310.107 277.225L313.005 266.738C313.864 263.606 316.713 261.445 319.967 261.445H338.952V261.445Z" fill="white" stroke="#FEC02F" stroke-width="0.468" stroke-miterlimit="10"/>
<path d="M331.191 56.8246L360.184 139.395H254.012L282.231 56.8246H331.191Z" fill="#FEC02F"/>
<path d="M306.938 46.988C306.938 43.5496 309.726 40.7621 313.164 40.7621H316.762C320.201 40.7621 322.988 43.5496 322.988 46.988V127.557" stroke="#003484" stroke-width="0.5616" stroke-miterlimit="10"/>
<path d="M331.351 136.766V139.259H305.096V136.766C305.096 134.642 305.821 132.677 307.036 131.117C308.719 128.956 311.359 127.556 314.306 127.556H322.128C322.251 127.556 322.386 127.556 322.509 127.569C327.433 127.765 331.351 131.805 331.351 136.766Z" fill="white" stroke="#FF8000" stroke-width="0.5616" stroke-miterlimit="10"/>
<path d="M337.184 57.1678H276.435V55.2644C276.435 50.7086 280.131 47.0246 284.675 47.0246H328.944C333.5 47.0246 337.184 50.7209 337.184 55.2644V57.1678Z" fill="#FF8000"/>
<path d="M337.184 55.6459H276.435" stroke="white" stroke-width="0.468" stroke-miterlimit="10" stroke-linecap="round"/>
<path d="M330.835 57.1679C330.835 59.3415 329.484 61.1098 327.802 61.1098H285.288C283.618 61.1098 282.255 59.3415 282.255 57.1679H330.835Z" fill="white"/>
<path d="M322.988 129.963C322.988 133.905 319.39 137.11 314.957 137.11C310.966 137.11 307.65 134.519 307.036 131.117C308.719 128.956 311.359 127.556 314.306 127.556H322.128C322.251 127.556 322.386 127.556 322.509 127.569C322.828 128.318 322.988 129.128 322.988 129.963Z" fill="white" stroke="#FF8000" stroke-width="0.5616" stroke-miterlimit="10"/>
<path d="M315.178 125.874V129.73C315.178 130.516 314.454 131.154 313.569 131.154C312.685 131.154 311.961 130.516 311.961 129.73V125.874H311.985C312.133 126.549 312.783 127.065 313.557 127.065C314.331 127.065 314.982 126.549 315.129 125.874H315.178Z" fill="#FF8000"/>
<path d="M314.834 125.738C314.834 125.824 314.822 125.91 314.809 125.996C314.699 126.61 314.183 127.065 313.557 127.065C312.943 127.065 312.427 126.61 312.304 125.996C312.292 125.91 312.28 125.824 312.28 125.738C312.28 125.002 312.845 124.412 313.557 124.412C314.257 124.412 314.834 125.014 314.834 125.738Z" fill="white" stroke="#FF8000" stroke-width="0.5616" stroke-miterlimit="10"/>
<path d="M273.008 83.4228H268.809V139.395H273.008V83.4228Z" fill="#004ABC"/>
<path d="M267.053 139.395H259.857C259.095 139.395 258.481 138.781 258.481 138.019V96.4149C258.481 95.6535 259.095 95.0395 259.857 95.0395H267.053C267.814 95.0395 268.428 95.6535 268.428 96.4149V138.019C268.428 138.781 267.814 139.395 267.053 139.395Z" fill="white" stroke="#FEC02F" stroke-width="0.468" stroke-miterlimit="10"/>
<path d="M290.201 138.498H281.936C281.335 138.498 280.819 138.068 280.708 137.479L273.291 98.9443C273.144 98.1707 273.733 97.4584 274.519 97.4584H282.784C283.385 97.4584 283.901 97.8882 284.012 98.4777L291.429 137.012C291.576 137.786 290.987 138.498 290.201 138.498Z" stroke="#003484" stroke-width="0.5616" stroke-miterlimit="10"/>
<path d="M256.836 139.395H217.909C217 139.395 216.263 138.658 216.263 137.75V129.78C216.263 128.871 217 128.134 217.909 128.134H256.836C257.745 128.134 258.481 128.871 258.481 129.78V137.75C258.481 138.658 257.745 139.395 256.836 139.395Z" fill="#FF8000"/>
<path d="M111.061 2.79353V28.1884C111.061 33.1618 107.021 37.2019 102.048 37.2019H73.89C78.8633 37.2019 82.9034 33.1741 82.9034 28.1884V2.79353H111.061Z" fill="white" stroke="#FEC02F" stroke-width="0.468" stroke-miterlimit="10"/>
<path d="M98.057 0.337456H95.7852V5.75291H98.057V0.337456Z" fill="#FF8000"/>
<path d="M102.871 12.4452C102.551 12.4452 102.232 12.3224 101.974 12.0891L101.029 11.2541C100.734 10.9962 100.341 10.9962 100.046 11.2541L99.1497 12.0523C98.6217 12.5189 97.8849 12.5189 97.3446 12.0523L96.5218 11.3277C96.2271 11.0699 95.8341 11.0699 95.5394 11.3277L94.7781 12.0031C94.25 12.4698 93.5132 12.4698 92.9729 12.0031L92.3466 11.4505C92.0519 11.1927 91.659 11.1927 91.3642 11.4505L90.6888 12.0523C90.1608 12.5189 89.424 12.5189 88.8837 12.0523L88.2574 11.4997C87.9627 11.2418 87.5697 11.2418 87.275 11.4997C87.1522 11.6102 86.9557 11.5979 86.8452 11.4751C86.7347 11.3523 86.747 11.1558 86.8698 11.0453C87.3978 10.5787 88.1346 10.5787 88.6749 11.0453L89.3012 11.5979C89.5959 11.8558 89.9889 11.8558 90.2836 11.5979L90.959 10.9962C91.487 10.5295 92.2238 10.5295 92.7642 10.9962L93.3904 11.5488C93.6852 11.8067 94.0781 11.8067 94.3728 11.5488L95.1342 10.8734C95.6622 10.4067 96.399 10.4067 96.9393 10.8734L97.7621 11.5979C98.0568 11.8558 98.4498 11.8558 98.7445 11.5979L99.6409 10.7997C100.169 10.3331 100.906 10.3331 101.446 10.7997L102.392 11.6347C102.686 11.8926 103.079 11.8926 103.374 11.6347L104.356 10.7629C104.884 10.2962 105.621 10.2962 106.162 10.7629C106.284 10.8734 106.297 11.0699 106.186 11.1927C106.076 11.3155 105.879 11.3277 105.756 11.2172C105.462 10.9593 105.069 10.9593 104.774 11.2172L103.792 12.0891C103.497 12.3224 103.19 12.4452 102.871 12.4452Z" fill="#FEC02F"/>
<path d="M102.87 17.4922C102.551 17.4922 102.232 17.3694 101.974 17.1361L101.028 16.301C100.734 16.0432 100.341 16.0432 100.046 16.301L99.1496 17.0992C98.6216 17.5659 97.8848 17.5659 97.3445 17.0992L96.5217 16.3747C96.227 16.1168 95.834 16.1168 95.5393 16.3747L94.778 17.0501C94.2499 17.5168 93.5131 17.5168 92.9728 17.0501L92.3465 16.4975C92.0518 16.2396 91.6589 16.2396 91.3642 16.4975L90.6888 17.0992C90.1607 17.5659 89.4239 17.5659 88.8836 17.0992L88.2573 16.5466C87.9626 16.2888 87.5696 16.2888 87.2749 16.5466C87.1521 16.6572 86.9557 16.6449 86.8451 16.5221C86.7346 16.3993 86.7469 16.2028 86.8697 16.0923C87.3977 15.6256 88.1345 15.6256 88.6748 16.0923L89.3011 16.6449C89.5958 16.9028 89.9888 16.9028 90.2835 16.6449L90.9589 16.0432C91.4869 15.5765 92.2238 15.5765 92.7641 16.0432L93.3903 16.5958C93.6851 16.8536 94.078 16.8536 94.3727 16.5958L95.1341 15.9204C95.6621 15.4537 96.3989 15.4537 96.9392 15.9204L97.762 16.6449C98.0567 16.9028 98.4497 16.9028 98.7444 16.6449L99.6408 15.8467C100.169 15.38 100.906 15.38 101.446 15.8467L102.392 16.6817C102.686 16.9396 103.079 16.9396 103.374 16.6817L104.356 15.8098C104.884 15.3432 105.621 15.3432 106.161 15.8098C106.284 15.9204 106.297 16.1168 106.186 16.2396C106.076 16.3624 105.879 16.3747 105.756 16.2642C105.462 16.0063 105.069 16.0063 104.774 16.2642L103.791 17.1361C103.497 17.3817 103.19 17.4922 102.87 17.4922Z" fill="#FEC02F"/>
<path d="M102.87 22.5402C102.551 22.5402 102.232 22.4174 101.974 22.184L101.028 21.349C100.734 21.0911 100.341 21.0911 100.046 21.349L99.1496 22.1472C98.6216 22.6138 97.8848 22.6138 97.3445 22.1472L96.5217 21.4227C96.227 21.1648 95.834 21.1648 95.5393 21.4227L94.778 22.0981C94.2499 22.5647 93.5131 22.5647 92.9728 22.0981L92.3465 21.5455C92.0518 21.2876 91.6589 21.2876 91.3642 21.5455L90.6888 22.1472C90.1607 22.6138 89.4239 22.6138 88.8836 22.1472L88.2573 21.5946C87.9626 21.3367 87.5696 21.3367 87.2749 21.5946C87.1521 21.7051 86.9557 21.6928 86.8451 21.57C86.7346 21.4472 86.7469 21.2508 86.8697 21.1402C87.3977 20.6736 88.1345 20.6736 88.6748 21.1402L89.3011 21.6928C89.5958 21.9507 89.9888 21.9507 90.2835 21.6928L90.9589 21.0911C91.4869 20.6245 92.2238 20.6245 92.7641 21.0911L93.3903 21.6437C93.6851 21.9016 94.078 21.9016 94.3727 21.6437L95.1341 20.9683C95.6621 20.5017 96.3989 20.5017 96.9392 20.9683L97.762 21.6928C98.0567 21.9507 98.4497 21.9507 98.7444 21.6928L99.6408 20.8946C100.169 20.428 100.906 20.428 101.446 20.8946L102.392 21.7297C102.686 21.9876 103.079 21.9876 103.374 21.7297L104.356 20.8578C104.884 20.3912 105.621 20.3912 106.161 20.8578C106.284 20.9683 106.297 21.1648 106.186 21.2876C106.076 21.4104 105.879 21.4227 105.756 21.3122C105.462 21.0543 105.069 21.0543 104.774 21.3122L103.791 22.184C103.497 22.4296 103.19 22.5402 102.87 22.5402Z" fill="#FEC02F"/>
<path d="M102.87 27.5997C102.551 27.5997 102.232 27.4769 101.974 27.2435L101.028 26.4085C100.734 26.1506 100.341 26.1506 100.046 26.4085L99.1496 27.2067C98.6216 27.6733 97.8848 27.6733 97.3445 27.2067L96.5217 26.4822C96.227 26.2243 95.834 26.2243 95.5393 26.4822L94.778 27.1576C94.2499 27.6242 93.5131 27.6242 92.9728 27.1576L92.3465 26.605C92.0518 26.3471 91.6589 26.3471 91.3642 26.605L90.6888 27.2067C90.1607 27.6733 89.4239 27.6733 88.8836 27.2067L88.2573 26.6541C87.9626 26.3962 87.5696 26.3962 87.2749 26.6541C87.1521 26.7646 86.9557 26.7523 86.8451 26.6295C86.7346 26.5067 86.7469 26.3103 86.8697 26.1997C87.3977 25.7331 88.1345 25.7331 88.6748 26.1997L89.3011 26.7523C89.5958 27.0102 89.9888 27.0102 90.2835 26.7523L90.9589 26.1506C91.4869 25.684 92.2238 25.684 92.7641 26.1506L93.3903 26.7032C93.6851 26.9611 94.078 26.9611 94.3727 26.7032L95.1341 26.0278C95.6621 25.5612 96.3989 25.5612 96.9392 26.0278L97.762 26.7523C98.0567 27.0102 98.4497 27.0102 98.7444 26.7523L99.6408 25.9541C100.169 25.4875 100.906 25.4875 101.446 25.9541L102.392 26.7892C102.686 27.0471 103.079 27.0471 103.374 26.7892L104.356 25.9173C104.884 25.4507 105.621 25.4507 106.161 25.9173C106.284 26.0278 106.297 26.2243 106.186 26.3471C106.076 26.4699 105.879 26.4822 105.756 26.3717C105.462 26.1138 105.069 26.1138 104.774 26.3717L103.791 27.2435C103.497 27.4769 103.19 27.5997 102.87 27.5997Z" fill="#FEC02F"/>
<path d="M140.054 2.79348H120.357V22.4905H140.054V2.79348Z" fill="#003484"/>
<path d="M124.687 1.95065L123.259 0.183655L118.053 4.3906L119.481 6.1576L124.687 1.95065Z" fill="#FEC02F"/>
<path d="M141.076 6.15558L142.504 4.38859L137.298 0.181643L135.87 1.94864L141.076 6.15558Z" fill="#FEC02F"/>
<path d="M135.891 7.45965H123.943V8.19644H135.891V7.45965Z" fill="white"/>
<path d="M135.891 10.6396H123.943V11.3764H135.891V10.6396Z" fill="white"/>
<path d="M135.891 13.8324H123.943V14.5692H135.891V13.8324Z" fill="white"/>
<path d="M135.891 17.0136H123.943V17.7504H135.891V17.0136Z" fill="white"/>
<path d="M215.342 139.396H169.428L178.318 119.748L179.62 116.862H205.15L208.736 124.783L215.342 139.396Z" fill="white" stroke="#003484" stroke-width="0.5616" stroke-miterlimit="10"/>
<path d="M208.736 124.783L178.318 119.749L179.62 116.863H205.15L208.736 124.783Z" fill="#003484"/>
<path d="M246.497 116.862H138.421C134.455 116.862 131.25 113.644 131.25 109.69V39.1419C131.25 35.1755 134.467 31.9705 138.421 31.9705H246.497C250.463 31.9705 253.668 35.1878 253.668 39.1419V109.678C253.668 113.644 250.451 116.862 246.497 116.862Z" fill="white" stroke="#003484" stroke-width="0.5616" stroke-miterlimit="10"/>
<path d="M214.115 111.876H170.791C168.679 111.876 166.972 110.169 166.972 108.057V102.814C166.972 100.702 168.679 98.9947 170.791 98.9947H214.115C216.227 98.9947 217.934 100.702 217.934 102.814V108.057C217.934 110.169 216.215 111.876 214.115 111.876Z" fill="#003484"/>
<path d="M202.744 108.377H199.821C199.097 108.377 198.507 107.787 198.507 107.063V104.779C198.507 104.054 199.097 103.465 199.821 103.465H202.744C203.468 103.465 204.058 104.054 204.058 104.779V107.063C204.058 107.787 203.468 108.377 202.744 108.377Z" fill="white"/>
<path d="M206.464 107.996L205.384 107.308C205.089 107.124 204.905 106.793 204.905 106.436V105.405C204.905 105.049 205.089 104.717 205.384 104.533L206.464 103.845C206.722 103.686 207.054 103.87 207.054 104.165V107.664C207.066 107.971 206.722 108.156 206.464 107.996Z" fill="white"/>
<path d="M191.667 107.222H191.397C190.329 107.222 189.457 106.35 189.457 105.282V104.14C189.457 104.042 189.543 103.956 189.641 103.956H193.411C193.509 103.956 193.595 104.042 193.595 104.14V105.282C193.608 106.35 192.736 107.222 191.667 107.222ZM189.825 104.324V105.282C189.825 106.142 190.525 106.854 191.397 106.854H191.667C192.527 106.854 193.239 106.154 193.239 105.282V104.324H189.825Z" fill="white"/>
<path d="M191.532 109.346C191.434 109.346 191.348 109.261 191.348 109.162V107.775C191.348 107.676 191.434 107.59 191.532 107.59C191.631 107.59 191.716 107.676 191.716 107.775V109.162C191.716 109.261 191.631 109.346 191.532 109.346Z" fill="white"/>
<path d="M192.503 109.346H190.575C190.476 109.346 190.39 109.26 190.39 109.162C190.39 109.064 190.476 108.978 190.575 108.978H192.503C192.601 108.978 192.687 109.064 192.687 109.162C192.687 109.26 192.601 109.346 192.503 109.346Z" fill="white"/>
<path d="M191.618 106.363H191.446C190.832 106.363 190.341 105.871 190.341 105.257V103.022C190.341 102.408 190.832 101.917 191.446 101.917H191.618C192.232 101.917 192.723 102.408 192.723 103.022V105.257C192.723 105.871 192.232 106.363 191.618 106.363Z" fill="white"/>
<path d="M180.32 104.975L180.308 104.987C180.075 105.27 180.148 105.699 180.455 105.957L181.585 106.866C181.892 107.112 182.334 107.087 182.568 106.805L182.58 106.792C182.813 106.51 183.255 106.498 183.55 106.755L184.569 107.676C184.889 107.971 184.889 108.462 184.569 108.683C183.501 109.432 182.113 109.162 180.971 108.241L179.252 106.854C178.11 105.92 177.557 104.619 178.061 103.415C178.221 103.047 178.699 102.949 179.043 103.206L180.161 104.017C180.468 104.263 180.541 104.692 180.32 104.975Z" fill="white"/>
<path d="M183.317 105.687C183.219 105.687 183.145 105.613 183.133 105.515C183.071 104.631 182.31 103.955 181.426 104.017C181.328 104.017 181.242 103.943 181.229 103.845C181.217 103.746 181.303 103.661 181.401 103.648C182.494 103.575 183.427 104.41 183.501 105.49C183.513 105.588 183.44 105.674 183.317 105.687C183.329 105.687 183.329 105.687 183.317 105.687Z" fill="white"/>
<path d="M184.471 105.503C184.373 105.503 184.299 105.429 184.287 105.331C184.238 104.594 183.906 103.907 183.341 103.415C182.776 102.924 182.064 102.679 181.327 102.728C181.229 102.728 181.143 102.654 181.131 102.556C181.118 102.457 181.204 102.372 181.303 102.359C182.138 102.31 182.948 102.58 183.587 103.133C184.225 103.685 184.594 104.459 184.655 105.294C184.667 105.417 184.581 105.503 184.471 105.503C184.483 105.503 184.483 105.503 184.471 105.503Z" fill="white"/>
<path d="M226.002 38.6146C226.707 38.6146 227.279 38.0428 227.279 37.3375C227.279 36.6322 226.707 36.0604 226.002 36.0604C225.296 36.0604 224.725 36.6322 224.725 37.3375C224.725 38.0428 225.296 38.6146 226.002 38.6146Z" stroke="#FEC02F" stroke-width="0.468" stroke-miterlimit="10"/>
<path d="M231.221 38.6147C231.926 38.6147 232.498 38.0429 232.498 37.3376C232.498 36.6322 231.926 36.0605 231.221 36.0605C230.515 36.0605 229.944 36.6322 229.944 37.3376C229.944 38.0429 230.515 38.6147 231.221 38.6147Z" stroke="#FEC02F" stroke-width="0.468" stroke-miterlimit="10"/>
<path d="M236.452 38.6147C237.157 38.6147 237.729 38.0429 237.729 37.3376C237.729 36.6322 237.157 36.0605 236.452 36.0605C235.747 36.0605 235.175 36.6322 235.175 37.3376C235.175 38.0429 235.747 38.6147 236.452 38.6147Z" stroke="#FEC02F" stroke-width="0.468" stroke-miterlimit="10"/>
<path d="M187.909 95.851H149.424C148.245 95.851 147.299 94.8932 147.299 93.7266V73.1208C147.299 71.942 148.257 70.9964 149.424 70.9964H187.909C189.088 70.9964 190.033 71.9542 190.033 73.1208V93.7266C190.033 94.8932 189.088 95.851 187.909 95.851Z" stroke="#003484" stroke-width="0.5616" stroke-miterlimit="10"/>
<path d="M236.452 95.851H197.967C196.788 95.851 195.842 94.8932 195.842 93.7266V73.1208C195.842 71.942 196.8 70.9964 197.967 70.9964H236.452C237.631 70.9964 238.576 71.9542 238.576 73.1208V93.7266C238.576 94.8932 237.631 95.851 236.452 95.851Z" fill="#004ABC"/>
<path d="M229.182 95.7886H204.033C206.575 92.6572 210.455 90.6433 214.802 90.6433H218.413C222.76 90.6556 226.64 92.6572 229.182 95.7886Z" fill="#FF8000"/>
<path d="M215.822 90.6561C215.576 92.5104 213.992 93.9348 212.077 93.9348C210.664 93.9348 209.436 93.1612 208.786 92.0192C210.603 91.1473 212.642 90.6561 214.791 90.6561H215.822V90.6561Z" fill="white"/>
<path d="M223.251 91.5152C222.699 92.9274 221.336 93.922 219.727 93.922C217.811 93.922 216.227 92.4976 215.982 90.6433H218.425C220.12 90.6556 221.741 90.9503 223.251 91.5152Z" fill="white"/>
<path d="M220.488 85.1789V90.754C220.488 91.6259 218.744 92.3259 216.608 92.3259C216.215 92.3259 215.834 92.3013 215.478 92.2645C213.882 92.068 212.727 91.4663 212.727 90.754V85.1789H220.488Z" fill="#A0505A"/>
<path d="M219.972 86.3204C219.972 88.7396 217.86 91.6745 215.478 92.2516C213.882 92.0552 212.727 91.4534 212.727 90.7412V85.1661H219.85L219.972 86.3204Z" fill="#73325A"/>
<path d="M222.477 84.4667V84.6018C222.477 85.5474 221.704 86.321 220.758 86.321H219.113C218.364 87.9297 216.73 89.0349 214.839 89.0349H214.52C212.408 89.0349 210.701 87.328 210.701 85.2158V81.274C213.145 81.4336 216.252 79.2969 216.252 79.2969C217.271 83.2388 220.181 83.1896 221.532 82.9318C222.085 83.2142 222.477 83.8036 222.477 84.4667Z" fill="#A0505A"/>
<path d="M220.058 85.0682C219.96 85.0682 219.874 84.9823 219.874 84.884C219.874 84.0981 220.512 83.4595 221.298 83.4595C221.397 83.4595 221.483 83.5455 221.483 83.6437C221.483 83.742 221.397 83.8279 221.298 83.8279C220.721 83.8279 220.242 84.2946 220.242 84.884C220.242 84.9823 220.156 85.0682 220.058 85.0682Z" fill="#73325A"/>
<path d="M220.488 86.3208H220.758C221.704 86.3208 222.478 85.5471 222.478 84.6016V84.4665C222.478 83.7911 222.097 83.2139 221.532 82.9315C221.164 83.0052 220.66 83.0543 220.12 83.0174C218.72 82.9069 216.988 82.1456 216.252 79.2966C216.252 79.2966 213.145 81.4333 210.701 81.2737C210.247 81.2491 209.817 81.1386 209.436 80.9176C207.41 79.7633 212.31 74.3601 217.934 75.1706C222.428 75.8214 222.33 81.2 222.244 82.4771C222.465 82.4526 222.686 82.4403 222.907 82.4403C226.198 82.4403 228.863 84.97 228.863 88.1013C228.863 90.1398 227.733 91.9327 226.027 92.9274C224.393 91.8467 222.514 91.1099 220.488 90.8029V86.3208Z" fill="#FEC02F"/>
<path d="M213.182 85.2039C213.157 85.2039 213.132 85.2039 213.12 85.1917C213.022 85.1548 212.973 85.0443 213.01 84.9583C213.01 84.946 213.378 83.9514 212.764 82.883C212.236 81.962 211.069 82.1217 211.02 82.1339C210.922 82.1462 210.824 82.0848 210.812 81.9743C210.799 81.8761 210.861 81.7778 210.971 81.7655C211.033 81.7533 212.432 81.5568 213.096 82.6988C213.796 83.9145 213.378 85.0443 213.366 85.0811C213.317 85.1548 213.255 85.2039 213.182 85.2039Z" fill="#73325A"/>
<path d="M217.369 82.8703C217.332 82.8703 217.295 82.858 217.258 82.8335C216.19 82.0107 214.766 82.1089 214.753 82.1089C214.655 82.1212 214.569 82.0353 214.557 81.937C214.544 81.8388 214.63 81.7528 214.729 81.7405C214.79 81.7405 216.3 81.63 217.479 82.5387C217.565 82.6001 217.578 82.7107 217.516 82.7966C217.467 82.8458 217.418 82.8703 217.369 82.8703Z" fill="#73325A"/>
<path d="M212.543 85.6209C212.543 85.6209 212.837 87.5612 214.839 85.6701C214.839 85.6701 213.439 85.8543 212.543 85.6209Z" fill="white"/>
<path d="M215.625 83.9873C215.767 83.9873 215.883 83.729 215.883 83.4102C215.883 83.0914 215.767 82.833 215.625 82.833C215.483 82.833 215.367 83.0914 215.367 83.4102C215.367 83.729 215.483 83.9873 215.625 83.9873Z" fill="#73325A"/>
<path d="M211.794 83.8895C211.916 83.8895 212.015 83.6751 212.015 83.4106C212.015 83.1461 211.916 82.9317 211.794 82.9317C211.672 82.9317 211.573 83.1461 211.573 83.4106C211.573 83.6751 211.672 83.8895 211.794 83.8895Z" fill="#73325A"/>
<path d="M235.973 67.6926H197.488C196.309 67.6926 195.363 66.7347 195.363 65.5681V44.9624C195.363 43.7835 196.321 42.838 197.488 42.838H235.973C237.152 42.838 238.097 43.7958 238.097 44.9624V65.5681C238.097 66.7347 237.139 67.6926 235.973 67.6926Z" fill="#003484"/>
<path d="M228.138 67.6935H204.646C207.016 64.5375 210.639 62.5236 214.704 62.5236H218.081C222.145 62.5236 225.768 64.5375 228.138 67.6935Z" fill="#FEC02F"/>
<path d="M215.146 66.6367H215.674C217.97 66.6367 219.837 64.7701 219.837 62.4738V59.5143C219.837 59.502 219.824 59.4897 219.812 59.4897H212.088C212.076 59.4897 212.063 59.502 212.063 59.5143V63.579C212.076 65.2736 213.451 66.6367 215.146 66.6367Z" fill="white"/>
<path d="M212.076 59.4897V63.4807C212.076 63.5298 212.076 63.5912 212.076 63.6404C212.186 65.9244 217.872 65.028 219.579 59.4897H212.076Z" fill="#FEC02F"/>
<path d="M222.084 57.7089C222.084 58.2001 221.887 58.6422 221.556 58.9738C221.236 59.2931 220.794 59.4895 220.291 59.4895H218.609C218.007 61.0859 216.46 62.2157 214.654 62.2157H213.34C211.511 62.2157 210.037 60.7298 210.037 58.9124V53.7548C211.928 53.9144 213.525 52.3917 213.586 52.3303C213.561 52.4163 212.604 55.1179 214.777 55.2652C216.938 55.4126 217.651 53.853 217.675 53.7916C217.675 53.853 217.688 55.9406 219.394 56.0512H220.291C221.286 56.0512 222.084 56.7266 222.084 57.7089Z" fill="white"/>
<path d="M219.554 56.0515H219.517C219.481 56.0515 219.444 56.0515 219.407 56.0515C217.7 55.941 217.688 53.8657 217.688 53.792C217.663 53.8534 216.939 55.4129 214.79 55.2656C212.628 55.1182 213.574 52.4166 213.599 52.3307C213.537 52.3798 211.941 53.9148 210.05 53.7552C209.632 53.7183 209.215 53.6078 208.785 53.3745C206.022 51.8763 207.802 48.7941 210.516 48.7572C212.678 48.7327 213.599 49.9115 213.599 49.9115C213.599 49.9115 214.065 47.4924 216.718 47.9099C219.37 48.3274 218.891 50.6729 218.891 50.6729C218.891 50.6729 221.114 49.6414 222.342 51.5448C223.791 53.7797 221.617 56.0515 219.554 56.0515Z" fill="#FF8000"/>
<path d="M212.297 58.2983C212.284 58.2983 212.272 58.2983 212.248 58.2983C212.149 58.2737 212.088 58.1755 212.112 58.0773C212.112 58.065 212.407 56.8493 211.879 55.8546C211.302 54.7985 210.307 54.9704 210.271 54.9704C210.172 54.9827 210.074 54.9213 210.062 54.8231C210.037 54.7248 210.111 54.6266 210.209 54.6143C210.221 54.6143 211.511 54.381 212.211 55.6827C212.812 56.8002 212.493 58.1141 212.481 58.1632C212.444 58.2369 212.37 58.2983 212.297 58.2983Z" fill="#FEC02F"/>
<path d="M212.948 59.7225C212.69 59.7225 212.456 59.6857 212.285 59.6366C212.186 59.612 212.125 59.5138 212.149 59.4155C212.174 59.3173 212.272 59.2559 212.371 59.2804C212.432 59.2927 213.832 59.6611 214.348 58.5805C214.397 58.4945 214.495 58.4454 214.593 58.4945C214.691 58.5437 214.728 58.6419 214.679 58.7401C214.323 59.5138 213.574 59.7225 212.948 59.7225Z" fill="#FEC02F"/>
<path d="M214.728 56.8248C214.87 56.8248 214.986 56.5664 214.986 56.2476C214.986 55.9288 214.87 55.6705 214.728 55.6705C214.586 55.6705 214.47 55.9288 214.47 56.2476C214.47 56.5664 214.586 56.8248 214.728 56.8248Z" fill="#FEC02F"/>
<path d="M210.909 56.7269C211.031 56.7269 211.13 56.5125 211.13 56.248C211.13 55.9835 211.031 55.7691 210.909 55.7691C210.787 55.7691 210.688 55.9835 210.688 56.248C210.688 56.5125 210.787 56.7269 210.909 56.7269Z" fill="#FEC02F"/>
<path d="M219.37 58.3848C219.272 58.3848 219.186 58.2988 219.186 58.2006C219.186 57.4147 219.824 56.7761 220.61 56.7761C220.708 56.7761 220.794 56.8621 220.794 56.9603C220.794 57.0586 220.708 57.1445 220.61 57.1445C220.033 57.1445 219.554 57.6112 219.554 58.2006C219.554 58.2988 219.468 58.3848 219.37 58.3848Z" fill="#FEC02F"/>
<path d="M187.418 67.6926H148.932C147.753 67.6926 146.808 66.7347 146.808 65.5681V44.9624C146.808 43.7835 147.766 42.838 148.932 42.838H187.418C188.596 42.838 189.542 43.7958 189.542 44.9624V65.5681C189.554 66.7347 188.596 67.6926 187.418 67.6926Z" fill="#FEC02F"/>
<path d="M178.121 67.6919H154.249C156.656 64.0939 160.34 61.7975 164.466 61.7975H167.905C172.031 61.7975 175.702 64.0939 178.121 67.6919Z" fill="white"/>
<path d="M178.121 67.6919H154.249C154.323 67.5814 154.396 67.4832 154.47 67.3727C154.482 67.3481 154.494 67.3235 154.519 67.3113H177.863C177.875 67.3358 177.888 67.3481 177.912 67.3727C177.974 67.4709 178.047 67.5814 178.121 67.6919Z" fill="#FEB040"/>
<path d="M177.114 66.3531H155.256C155.366 66.218 155.477 66.0952 155.587 65.9724H176.783C176.893 66.0952 177.004 66.218 177.114 66.3531Z" fill="#FEB040"/>
<path d="M175.764 64.9527H156.607C156.754 64.8176 156.902 64.6948 157.049 64.572H175.322C175.469 64.6948 175.616 64.8176 175.764 64.9527Z" fill="#FEB040"/>
<path d="M173.7 63.4178H158.657C158.879 63.2827 159.112 63.1599 159.345 63.0371H173C173.246 63.1599 173.467 63.2827 173.7 63.4178Z" fill="#FEB040"/>
<path d="M169.992 57.2052V62.6943C169.992 63.2592 168.248 63.7136 166.111 63.7136C164.024 63.7136 162.317 63.2838 162.231 62.7312C162.231 62.7189 162.231 62.7066 162.231 62.6943V57.2052H169.992Z" fill="#E57281"/>
<path d="M169.943 57.2047V57.3275C169.943 60.0291 166.591 63.1236 164.172 63.4797C163.791 63.5411 162.612 63.3078 162.244 62.7184C162.244 62.7061 162.244 62.6938 162.244 62.6815V57.1924H169.943V57.2047Z" fill="#9A3B82"/>
<path d="M172.104 55.4741V55.5969C172.104 56.5425 171.331 57.3161 170.385 57.3161H168.899C168.42 59.0353 166.848 60.2878 164.982 60.2878H163.398C161.642 60.2878 160.205 58.8634 160.205 57.0951V50.1078C163.152 50.9305 168.42 50.1569 168.42 50.1569C168.42 50.1569 167.941 51.8761 168.85 53.7426H170.397C171.331 53.7549 172.104 54.5286 172.104 55.4741Z" fill="#E57281"/>
<path d="M170.324 53.5335H168.924C167.733 51.5196 168.408 50.181 168.408 50.181C168.408 50.181 163.14 50.9424 160.193 50.1319C158.854 49.7635 157.995 49.0636 158.314 47.8233C159.333 43.8446 170.312 48.0812 171.073 49.5179C171.847 50.9547 170.324 53.5335 170.324 53.5335Z" fill="white" stroke="#FEB040" stroke-width="0.3744" stroke-miterlimit="10"/>
<path d="M164.871 57.304C164.835 57.3408 164.798 57.3531 164.749 57.3531C164.699 57.3531 164.65 57.3285 164.613 57.2917L164.442 57.1075C163.914 57.5741 163.41 57.8075 162.943 57.8075C162.894 57.8075 162.845 57.8075 162.808 57.7952C162.293 57.7461 162.035 57.4022 162.022 57.3899C161.961 57.304 161.973 57.1935 162.059 57.1321C162.145 57.0707 162.256 57.0829 162.317 57.1689C162.329 57.1812 162.501 57.4022 162.857 57.4391C163.25 57.4759 163.705 57.2671 164.196 56.8373L164.098 56.7268C164.024 56.6531 164.036 56.5303 164.11 56.4689C164.184 56.3953 164.306 56.4075 164.368 56.4812L164.884 57.0461C164.957 57.1198 164.945 57.2303 164.871 57.304Z" fill="#9A3B82"/>
<path d="M166.738 53.6443C166.689 53.6443 166.64 53.632 166.603 53.5952C165.522 52.5391 164.147 52.7479 164.135 52.7479C164.036 52.7602 163.938 52.6988 163.926 52.6005C163.914 52.5023 163.975 52.404 164.073 52.3918C164.135 52.3795 165.645 52.1339 166.861 53.3373C166.935 53.411 166.935 53.5215 166.861 53.5952C166.836 53.632 166.787 53.6443 166.738 53.6443Z" fill="#9A3B82"/>
<path d="M162.55 56.2231C162.538 56.2231 162.513 56.2231 162.501 56.2109C162.403 56.1863 162.354 56.0758 162.378 55.9775C162.378 55.9653 162.759 54.7127 162.145 53.6444C161.617 52.7234 160.426 53.0058 160.414 53.0181C160.315 53.0426 160.217 52.9812 160.193 52.883C160.168 52.7848 160.229 52.6865 160.328 52.662C160.831 52.5392 161.936 52.5392 162.464 53.4724C163.164 54.6881 162.759 56.0389 162.734 56.1003C162.698 56.174 162.636 56.2231 162.55 56.2231Z" fill="#9A3B82"/>
<path d="M161.175 54.7867C161.297 54.7867 161.396 54.5723 161.396 54.3078C161.396 54.0433 161.297 53.8288 161.175 53.8288C161.053 53.8288 160.954 54.0433 160.954 54.3078C160.954 54.5723 161.053 54.7867 161.175 54.7867Z" fill="#9A3B82"/>
<path d="M164.994 54.8845C165.136 54.8845 165.252 54.6261 165.252 54.3073C165.252 53.9886 165.136 53.7302 164.994 53.7302C164.851 53.7302 164.736 53.9886 164.736 54.3073C164.736 54.6261 164.851 54.8845 164.994 54.8845Z" fill="#9A3B82"/>
<path d="M169.427 56.1001C169.329 56.1001 169.243 56.0142 169.243 55.9159C169.243 55.1177 169.894 54.4669 170.692 54.4669C170.79 54.4669 170.876 54.5528 170.876 54.6511C170.876 54.7493 170.79 54.8353 170.692 54.8353C170.09 54.8353 169.611 55.3142 169.611 55.9159C169.611 56.0142 169.537 56.1001 169.427 56.1001Z" fill="#9A3B82"/>
<path d="M232.644 287.761C232.312 287.663 232.128 287.614 232.128 287.614L228.112 300.766L212.996 296.799C212.873 296.689 212.812 296.627 212.812 296.627C212.812 296.627 151.596 248.65 148.379 225.625C145.174 202.6 170.814 180.754 170.814 180.754C170.814 180.754 225.497 284.114 232.263 287.491C232.398 287.565 232.533 287.651 232.644 287.761Z" fill="#A0505A"/>
<path d="M183.758 204.933C181.842 215.186 175.113 235.952 168.15 256.042C157.835 244.928 149.509 233.717 148.379 225.612C146.341 211.023 155.907 196.889 163.177 188.514C165.841 186.378 168.715 184.413 171.822 182.657C173.725 186.23 178.134 194.507 183.758 204.933Z" fill="#73325A"/>
<path d="M267.003 296.614L244.519 311.043L237.998 310.061L231.993 313.867L233.933 317.846L224.048 324.195C210.945 312.271 212.8 296.761 212.8 296.761L228.1 300.777L232.116 287.625C232.116 287.625 245.857 291.641 256 291.297C266.168 290.953 267.003 296.614 267.003 296.614Z" fill="white" stroke="#FF8000" stroke-width="0.5616" stroke-miterlimit="10"/>
<path d="M241.448 289.382C241.448 289.382 240.503 279.386 238.133 280.012C235.763 280.651 238.735 290.622 241.399 289.529C244.064 288.436 246.729 281.351 246.729 281.351" stroke="#FF8000" stroke-width="0.5616" stroke-miterlimit="10"/>
<path d="M215.145 311.032L230.212 311.265L237.691 306.795L244.789 307.937L266.07 294.65" stroke="#FF8000" stroke-width="0.5616" stroke-miterlimit="10"/>
<path d="M238.33 288.817L236.93 295.337" stroke="#FF8000" stroke-width="0.5616" stroke-miterlimit="10"/>
<path d="M241.375 289.553L239.975 296.074" stroke="#FF8000" stroke-width="0.5616" stroke-miterlimit="10"/>
<path d="M244.556 290.081L243.156 296.602" stroke="#FF8000" stroke-width="0.5616" stroke-miterlimit="10"/>
<path d="M165.621 175.732C165.621 175.732 174.622 179.931 174.622 195.33C174.622 210.214 140.263 301.355 140.263 301.355L129.69 310.32L118.957 298.568C124.2 293.582 109.145 203.448 165.621 175.732Z" fill="#A0505A"/>
<path d="M164.662 327.782L137.941 327.806L132.98 323.459L125.87 323.423L125.354 327.819L114.88 327.831C109.182 310.099 119.006 298.556 119.006 298.556L129.665 310.295L140.311 301.343C140.311 301.343 149.546 312.174 158.265 317.356C167.008 322.551 164.662 327.782 164.662 327.782Z" fill="white" stroke="#FF8000" stroke-width="0.5616" stroke-miterlimit="10"/>
<path d="M146.403 307.655C146.403 307.655 156.89 300.889 153.906 298.298C150.922 295.707 144.917 306.955 146.55 307.852C148.183 308.748 159.493 305.347 159.493 305.347" stroke="#FF8000" stroke-width="0.5616" stroke-miterlimit="10"/>
<path d="M113.467 312.149L126.005 320.058H134.712L140.225 324.687H164.871" stroke="#FF8000" stroke-width="0.5616" stroke-miterlimit="10"/>
<path d="M144.069 305.101L139.354 309.817" stroke="#FF8000" stroke-width="0.5616" stroke-miterlimit="10"/>
<path d="M146.23 307.373L141.515 312.089" stroke="#FF8000" stroke-width="0.5616" stroke-miterlimit="10"/>
<path d="M148.613 309.535L143.897 314.25" stroke="#FF8000" stroke-width="0.5616" stroke-miterlimit="10"/>
<path d="M165.621 175.732C144.389 186.145 133.263 205.4 127.381 225.625H62.9485C46.4565 225.625 34.1643 210.41 37.6396 194.287L42.3673 172.33H154.397C158.548 172.33 162.404 173.583 165.621 175.732Z" fill="#FF8000"/>
<path d="M117.778 196.78L140.975 196.73L137.537 202.367L117.778 196.78Z" fill="#A0505A"/>
<path d="M165.744 175.609C155.183 180.791 147.128 188.159 140.963 196.742H82.1791C71.5816 196.742 63.6733 187.004 65.8345 176.628L66.731 172.33" stroke="white" stroke-width="0.5616" stroke-miterlimit="10" stroke-linecap="round"/>
<path d="M127.467 225.612C129.813 217.544 132.981 209.623 137.291 202.366L117.778 196.766" stroke="white" stroke-width="0.5616" stroke-miterlimit="10" stroke-linecap="round"/>
<path d="M27.3119 113.349L39.113 159.645H17.095C4.27478 159.645 -3.97732 146.026 1.96616 134.667L18.8756 102.334C23.6648 93.1858 33.1326 87.451 43.4601 87.451H47.451C33.894 87.4388 23.9595 100.21 27.3119 113.349Z" fill="#004ABC"/>
<path d="M163.202 101.339C170.14 101.339 175.911 100.418 177.311 99.1289L155.785 145.793C151.892 154.241 143.431 159.644 134.135 159.644C131.409 159.644 128.732 159.178 126.202 158.281C123.673 157.385 121.29 156.071 119.166 154.352L105.596 143.398C105.596 143.398 104.246 151.343 94.606 153.369V172.305H42.3549L27.3119 113.337C23.9595 100.197 33.894 87.4139 47.451 87.4139H84.0329C87.2626 87.4139 90.4431 87.8191 93.513 88.605C101.913 90.7417 109.452 95.6783 114.782 102.752L132.661 126.476L148.724 98.4044C148.724 98.429 148.711 98.4658 148.711 98.4904C148.724 100.124 155.22 101.339 163.202 101.339Z" fill="#004ABC"/>
<path d="M27.189 113.349L38.7444 160.013" stroke="white" stroke-width="0.5616" stroke-miterlimit="10" stroke-linecap="round"/>
<path d="M105.719 144.025L95.4532 133.095" stroke="white" stroke-width="0.5616" stroke-miterlimit="10" stroke-linecap="round"/>
<path d="M177.63 98.4409L177.311 99.1286C175.911 100.43 170.139 101.339 163.201 101.339C155.219 101.339 148.723 100.123 148.723 98.5146C148.723 98.49 148.723 98.4532 148.736 98.4286C148.957 96.8568 155.367 95.506 163.214 95.506C171.048 95.506 177.409 96.8568 177.63 98.4409C177.63 98.4286 177.63 98.4286 177.63 98.4409Z" fill="#FF8000"/>
<path d="M184.067 74.8638C184.067 75.5637 183.895 76.2514 183.576 76.8531C183.256 77.4548 182.79 77.9829 182.212 78.3881L181.93 78.5846L179.732 90.3119C179.376 92.2153 178.246 93.8976 176.613 94.9414L173.604 96.8571L171.222 98.3798L170.117 101.02C168.066 101.229 165.721 101.352 163.215 101.352C160.686 101.352 158.303 101.229 156.228 101.008V82.8212C156.228 82.0352 156.4 81.2616 156.732 80.5494L160.735 71.9289C160.735 71.9289 165.107 73.0095 163.093 78.3758C161.263 83.251 165.438 81.9984 167.784 81.1265C169.883 80.3406 179.057 75.6742 182.642 73.9673C183.305 73.648 184.067 74.1392 184.067 74.8638Z" fill="#A0505A"/>
<path d="M180.234 85.8544C179.878 87.7578 178.749 89.4278 177.115 90.4716L171.724 93.91" stroke="#73325A" stroke-width="0.468" stroke-miterlimit="10" stroke-linecap="round"/>
<path d="M181.118 80.8807C180.762 82.7841 179.633 84.4542 177.999 85.498L172.608 88.9364" stroke="#73325A" stroke-width="0.468" stroke-miterlimit="10" stroke-linecap="round"/>
<path d="M181.536 78.7193L172.867 84.2207" stroke="#73325A" stroke-width="0.468" stroke-miterlimit="10" stroke-linecap="round"/>
<path d="M174.07 96.5503L173.591 96.8573L171.208 98.38L170.103 101.02C168.052 101.229 165.707 101.352 163.202 101.352C160.672 101.352 158.29 101.229 156.215 101.008V95.8994C158.29 95.6538 160.672 95.5188 163.202 95.5188C167.537 95.5065 171.417 95.9117 174.07 96.5503Z" fill="#73325A"/>
<path d="M92.3712 88.323C90.5907 90.7176 83.9595 96.3541 61.6346 96.3541C32.9118 96.3541 51.2949 87.4634 51.2949 87.4634L63.4766 67.1156L76.5424 75.1344V81.5813C76.5424 84.8355 79.1826 87.4634 82.4245 87.4634H83.2718C86.3172 87.4511 89.4609 87.5862 92.3712 88.323Z" fill="#A0505A"/>
<path d="M76.5299 75.1215V76.7671L51.2823 87.4506L63.464 67.1028L76.5299 75.1215Z" fill="#73325A"/>
<path d="M77.2178 75.9198H79.9931C82.5473 75.9198 84.6226 73.8445 84.6226 71.2903V55.8299H68.057V66.759C68.057 71.8183 72.1585 75.9198 77.2178 75.9198Z" fill="#A0505A"/>
<path d="M84.2663 70.3936C82.4858 70.3936 81.7735 69.1656 81.7735 69.1656" stroke="#73325A" stroke-width="0.468" stroke-miterlimit="10" stroke-linecap="round"/>
<path d="M82.6576 65.4446C82.9832 65.4446 83.2471 64.9333 83.2471 64.3026C83.2471 63.6719 82.9832 63.1606 82.6576 63.1606C82.3321 63.1606 82.0682 63.6719 82.0682 64.3026C82.0682 64.9333 82.3321 65.4446 82.6576 65.4446Z" fill="#73325A"/>
<path d="M71.2127 57.4387C71.2127 57.4387 84.8803 65.6908 89.3256 58.507C93.2306 52.2074 75.9282 48.9655 69.8865 48.9409C63.3167 48.9164 54.6102 51.8267 54.7576 61.491C54.8804 69.4484 55.2119 81.0898 50.4965 79.0636C33.7221 71.8676 18.8142 79.3829 18.7651 93.7013C18.716 108.02 35.3307 109.358 35.7483 105.662C36.1781 101.978 25.4331 102.825 26.8822 112.391C28.3189 121.957 34.729 133.918 49.3667 133.918C67.0498 133.93 78.3105 110.648 67.3691 108.278C58.9819 106.46 75.9159 122.645 80.9384 105.822C86.3416 87.7087 66.8165 81.7775 66.3376 70.8361C65.8586 59.8947 71.2127 57.4387 71.2127 57.4387Z" fill="#FEC02F" stroke="white" stroke-width="0.468" stroke-miterlimit="10"/>
<path d="M70.255 64.0089H80.0298" stroke="#FF8000" stroke-width="0.5616" stroke-miterlimit="10"/>
<path d="M83.0384 67.9384C84.5712 67.9384 85.8137 66.344 85.8137 64.3773C85.8137 62.4105 84.5712 60.8161 83.0384 60.8161C81.5057 60.8161 80.2632 62.4105 80.2632 64.3773C80.2632 66.344 81.5057 67.9384 83.0384 67.9384Z" stroke="#FF8000" stroke-width="0.5616" stroke-miterlimit="10"/>
<path d="M65.0723 59.6254V49.2857C65.0723 47.7384 66.3249 46.4735 67.8844 46.4735H70.9544C72.5017 46.4735 73.7665 47.7261 73.7665 49.2857" stroke="#003484" stroke-width="0.5616" stroke-miterlimit="10"/>
<path d="M68.032 71.0087H62.1254C60.6149 71.0087 59.3869 69.7807 59.3869 68.2702V62.3636C59.3869 60.8532 60.6149 59.6252 62.1254 59.6252H68.032C69.5424 59.6252 70.7704 60.8532 70.7704 62.3636V68.2702C70.7582 69.7807 69.5424 71.0087 68.032 71.0087Z" fill="white" stroke="#003484" stroke-width="0.5616" stroke-miterlimit="10"/>
<path d="M66.4969 69.0568H63.6112C62.3709 69.0568 61.3517 68.0499 61.3517 66.7973V63.9115C61.3517 62.6713 62.3586 61.652 63.6112 61.652H66.4969C67.7372 61.652 68.7565 62.659 68.7565 63.9115V66.7973C68.7565 68.0499 67.7495 69.0568 66.4969 69.0568Z" fill="white" stroke="#003484" stroke-width="0.5616" stroke-miterlimit="10"/>
<path d="M67.6393 61.9452L62.5063 68.7729" stroke="#003484" stroke-width="0.5616" stroke-miterlimit="10"/>
<path d="M65.9452 61.7121L61.4999 67.6064" stroke="#003484" stroke-width="0.5616" stroke-miterlimit="10"/>
<path d="M68.6339 63.1611L64.1885 69.0555" stroke="#003484" stroke-width="0.5616" stroke-miterlimit="10"/>
<path d="M68.7569 65.3597L65.9694 69.0559" stroke="#003484" stroke-width="0.5616" stroke-miterlimit="10"/>
<path d="M64.1391 61.7126L61.3638 65.3843" stroke="#003484" stroke-width="0.5616" stroke-miterlimit="10"/>
<path d="M60.7006 232.612V239.378C60.7006 242.645 58.0482 245.297 54.7817 245.297H39.6037" stroke="#003484" stroke-width="0.5616" stroke-miterlimit="10"/>
<path d="M66.3618 232.686V294.761" stroke="#003484" stroke-width="0.5616" stroke-miterlimit="10"/>
<path d="M38.8792 314.667C38.8792 303.676 49.796 294.761 63.2548 294.761H69.3703C82.8291 294.761 93.7459 303.676 93.7459 314.667" stroke="#003484" stroke-width="0.5616" stroke-miterlimit="10"/>
<path d="M125.416 233.631H36.2639C31.794 233.631 28.1837 230.009 28.1837 225.551H127.528L125.416 233.631Z" fill="#FEC02F"/>
<path d="M38.339 327.831C41.9741 327.831 44.921 324.884 44.921 321.249C44.921 317.614 41.9741 314.667 38.339 314.667C34.7038 314.667 31.7569 317.614 31.7569 321.249C31.7569 324.884 34.7038 327.831 38.339 327.831Z" fill="#FEC02F"/>
<path d="M34.9868 246.979H48.2C49.2806 246.979 50.1525 246.107 50.1525 245.027V244.879C50.1525 243.799 49.2806 242.927 48.2 242.927H34.9868C33.9062 242.927 33.0343 243.799 33.0343 244.879V245.027C33.0343 246.107 33.9062 246.979 34.9868 246.979Z" fill="#FEC02F"/>
<path d="M28.1836 225.796H91.4376L70.2792 166.509C68.8057 162.395 64.9129 159.644 60.5413 159.644H14.0372C9.41991 159.644 6.20256 164.212 7.74983 168.559L28.1836 225.796Z" stroke="#FEC02F" stroke-width="0.5616" stroke-miterlimit="10"/>
<path d="M31.3146 225.797H86.3041L65.858 168.474C64.4336 164.496 60.6759 161.843 56.4516 161.843H9.37036" stroke="#FEC02F" stroke-width="0.5616" stroke-miterlimit="10"/>
<path d="M93.6353 327.831C97.2705 327.831 100.217 324.884 100.217 321.249C100.217 317.614 97.2705 314.667 93.6353 314.667C90.0002 314.667 87.0533 317.614 87.0533 321.249C87.0533 324.884 90.0002 327.831 93.6353 327.831Z" fill="#FEC02F"/>
</svg>
