<svg width="376" height="336" viewBox="0 0 376 336" fill="none" xmlns="http://www.w3.org/2000/svg">
<path d="M363.426 328.236H0.0136719" stroke="#003484" stroke-width="0.5616" stroke-miterlimit="10"/>
<path d="M31.7578 334.818H239.866" stroke="#003484" stroke-width="0.5616" stroke-miterlimit="10"/>
<path d="M344.698 246.562H286.577C283.827 246.562 281.592 248.796 281.592 251.547V328.235H349.672V251.547C349.684 248.796 347.449 246.562 344.698 246.562Z" fill="#B3C9EB"/>
<path d="M344.698 246.562H286.577C283.827 246.562 281.592 248.796 281.592 251.547V328.235H349.672V251.547C349.684 248.796 347.449 246.562 344.698 246.562Z" stroke="#FEC02F" stroke-width="0.5616" stroke-miterlimit="10"/>
<path d="M357.629 160.405H273.757V328.223H357.629V160.405Z" stroke="#FEC02F" stroke-width="0.5616" stroke-miterlimit="10"/>
<path d="M359.827 139.395H72.1943V160.406H376" stroke="#FEC02F" stroke-width="0.5616" stroke-miterlimit="10"/>
<path d="M344.698 199.848H286.688C283.937 199.848 281.702 197.613 281.702 194.862V174.379C281.702 171.628 283.937 169.394 286.688 169.394H344.698C347.449 169.394 349.684 171.628 349.684 174.379V194.874C349.684 197.625 347.449 199.848 344.698 199.848Z" stroke="#FEC02F" stroke-width="0.5616" stroke-miterlimit="10"/>
<path d="M344.698 236.934H286.688C283.937 236.934 281.702 234.699 281.702 231.948V211.465C281.702 208.714 283.937 206.479 286.688 206.479H344.698C347.449 206.479 349.684 208.714 349.684 211.465V231.948C349.684 234.699 347.449 236.934 344.698 236.934Z" stroke="#FEC02F" stroke-width="0.5616" stroke-miterlimit="10"/>
<path d="M315.889 188.354C318.094 188.354 319.88 186.567 319.88 184.363C319.88 182.159 318.094 180.372 315.889 180.372C313.685 180.372 311.898 182.159 311.898 184.363C311.898 186.567 313.685 188.354 315.889 188.354Z" stroke="#003484" stroke-width="0.5616" stroke-miterlimit="10"/>
<path d="M315.889 225.55C318.094 225.55 319.88 223.763 319.88 221.559C319.88 219.355 318.094 217.568 315.889 217.568C313.685 217.568 311.898 219.355 311.898 221.559C311.898 223.763 313.685 225.55 315.889 225.55Z" stroke="#003484" stroke-width="0.5616" stroke-miterlimit="10"/>
<path d="M340.806 272.104L340.72 272.632L340.683 272.939L339.406 281.08L339.271 281.952L338.694 285.661L338.485 286.962L337.945 290.401L337.81 291.272L336.496 299.697V299.733L336.361 300.605L336.287 300.998L335.034 309.054L334.899 309.926L334.31 313.72V313.732L334.101 315.034L333.573 318.374L333.438 319.246L332.124 327.707L332.112 327.756L332.05 328.149L332.038 328.235H297.532L297.519 328.137L297.458 327.793L297.446 327.682L296.119 319.234L295.984 318.35L295.469 315.071L295.272 313.757L294.67 309.901L294.535 309.029L293.283 301.035L293.209 300.581L293.074 299.721V299.709L291.748 291.248L291.613 290.376L291.085 286.999L290.888 285.697L290.299 281.927L290.164 281.056L288.899 272.975L288.764 272.104H340.806Z" fill="white"/>
<path d="M332.37 328.616H297.2L297.053 327.707L288.31 271.723H341.248L332.37 328.616ZM297.851 327.854H331.707L340.352 272.496H289.194L297.851 327.854Z" fill="#003484"/>
<path d="M341.285 272.103C341.285 272.275 341.26 272.459 341.199 272.631C340.781 273.921 338.865 275.112 335.857 276.094C335.636 276.168 335.415 276.229 335.194 276.303C333.253 276.88 330.933 277.384 328.317 277.764C328.071 277.801 327.826 277.838 327.568 277.875C325.259 278.194 322.742 278.428 320.077 278.563C319.807 278.575 319.549 278.587 319.279 278.599C317.818 278.661 316.307 278.698 314.772 278.698C313.593 278.698 312.427 278.673 311.285 278.636C311.002 278.624 310.72 278.612 310.437 278.599C307.367 278.477 304.469 278.219 301.841 277.85C301.522 277.801 301.215 277.764 300.908 277.715C296.45 277.04 292.865 276.045 290.667 274.854C289.39 274.166 288.591 273.417 288.333 272.631L288.26 272.116C288.26 268.481 300.122 265.546 314.76 265.546C329.312 265.546 341.125 268.456 341.26 272.067C341.285 272.067 341.285 272.079 341.285 272.103Z" fill="#003484"/>
<path d="M332.136 327.719V328.21L332.05 328.149L332.037 328.222H331.718L327.801 323.163L327.395 322.635L323.454 317.551L323.048 317.023L319.107 311.939L318.701 311.411L314.759 306.327L314.354 305.799L310.412 300.715L310.007 300.187L306.078 295.103L305.672 294.575L301.73 289.491L301.325 288.963L297.396 283.879L296.99 283.351L293.061 278.268L292.656 277.739L288.886 272.877L288.824 272.521C289.07 273.294 289.856 274.031 291.108 274.706L293.049 277.211L293.454 277.739L297.396 282.823L297.801 283.351L301.743 288.435L302.148 288.963L306.09 294.047L306.495 294.575L310.437 299.659L310.842 300.187L314.784 305.271L315.189 305.799L319.131 310.883L319.536 311.411L323.478 316.495L323.883 317.023L327.825 322.107L328.231 322.635L332.148 327.694L332.136 327.719Z" fill="#003484"/>
<path d="M333.572 318.374L333.437 319.246L332.135 317.564L331.73 317.035L327.788 311.952L327.383 311.424L323.441 306.34L323.036 305.812L319.094 300.728L318.688 300.2L314.747 295.116L314.341 294.588L310.436 289.553L310.031 289.025L306.089 283.941L305.684 283.413L301.742 278.329L301.337 277.801L301.165 277.58C301.46 277.629 301.767 277.666 302.074 277.715L302.135 277.801L306.077 282.885L306.482 283.413L310.424 288.497L310.829 289.025L314.771 294.109L315.176 294.637L319.118 299.721L319.524 300.249L323.465 305.333L323.871 305.861L327.812 310.945L328.218 311.473L332.16 316.557L332.565 317.085L333.572 318.374Z" fill="#003484"/>
<path d="M335.033 309.054L334.898 309.926L332.135 306.365L331.73 305.837L327.788 300.753L327.383 300.225L323.441 295.141L323.036 294.613L319.094 289.529L318.689 289.001L314.747 283.917L314.342 283.389L310.498 278.428C310.78 278.44 311.051 278.452 311.333 278.465L314.747 282.861L315.152 283.389L319.094 288.473L319.499 289.001L323.441 294.085L323.846 294.613L327.788 299.697L328.193 300.225L332.135 305.309L332.541 305.837L335.033 309.054Z" fill="#003484"/>
<path d="M336.495 299.734L336.36 300.605L336.077 300.237L332.135 295.153L331.73 294.625L327.788 289.541L327.383 289.013L323.441 283.929L323.036 283.401L319.192 278.44C319.45 278.428 319.72 278.416 319.978 278.403L323.441 282.873L323.846 283.401L327.788 288.485L328.194 289.013L332.135 294.097L332.541 294.625L336.483 299.709L336.495 299.734Z" fill="#003484"/>
<path d="M306.336 328.039L306.09 328.224L306.078 328.236H305.673L301.743 323.177L301.338 322.648L297.408 317.565L297.003 317.049L295.468 315.072L295.271 313.758L297.408 316.521L297.813 317.049L301.743 322.12L302.148 322.648L306.09 327.732L306.336 328.039Z" fill="#003484"/>
<path d="M297.641 328.04L297.518 328.138L297.457 327.794L297.641 328.04Z" fill="#003484"/>
<path d="M315.017 328.038L314.772 328.222L314.76 328.235H314.354L310.437 323.175L310.032 322.647L306.09 317.563L305.685 317.048L301.743 311.964L301.338 311.448V311.436L297.408 306.364L297.003 305.836L293.282 301.035L293.208 300.58L293.073 299.721L293.466 300.236L297.408 305.32L297.813 305.836L301.743 310.92L302.148 311.448L306.09 316.52L306.495 317.048L310.437 322.119L310.842 322.647L314.772 327.731L315.017 328.038Z" fill="#003484"/>
<path d="M323.7 328.039L323.454 328.224L323.442 328.236H323.037L319.119 323.177L318.714 322.649L314.772 317.565L314.367 317.049L310.437 311.965L310.032 311.449L306.09 306.365L305.685 305.837L301.743 300.766L301.338 300.238L297.408 295.154L297.003 294.638L293.061 289.554L292.656 289.038L291.084 287L290.888 285.698L293.061 288.51L293.466 289.038L297.408 294.11L297.814 294.638L301.743 299.71L302.148 300.238L306.09 305.322L306.495 305.837L310.437 310.921L310.843 311.449L314.772 316.521L315.177 317.049L319.119 322.12L319.524 322.649L323.454 327.732L323.7 328.039Z" fill="#003484"/>
<path d="M337.944 290.402L337.809 291.274L336.483 289.555L336.077 289.027L332.135 283.943L331.73 283.415L327.788 278.331L327.383 277.803L327.334 277.741C327.58 277.705 327.825 277.668 328.058 277.631L328.194 277.803L332.135 282.887L332.541 283.415L336.483 288.499L336.888 289.027L337.944 290.402Z" fill="#003484"/>
<path d="M339.406 281.08L339.271 281.952L336.483 278.354L336.078 277.826L334.838 276.218C335.059 276.156 335.28 276.082 335.489 276.009L336.483 277.298L336.889 277.826L339.406 281.08Z" fill="#003484"/>
<path d="M341.162 272.3L340.818 272.743L340.72 272.62C340.781 272.448 340.806 272.276 340.806 272.104C340.806 272.079 340.806 272.067 340.806 272.043L340.818 272.03L341.162 272.3Z" fill="#003484"/>
<path d="M338.694 285.66L338.485 286.962L336.889 289.037L336.484 289.553L332.542 294.637L332.136 295.153L328.207 300.236L327.802 300.764L323.86 305.836L323.455 306.364L319.525 311.448L319.12 311.964L315.178 317.048L314.773 317.563L310.843 322.647L310.438 323.175L306.508 328.235H306.103L306.091 328.222L305.857 328.038L306.091 327.731L310.033 322.647L310.438 322.119L314.367 317.048L314.773 316.52L318.715 311.448L319.12 310.92L323.049 305.836L323.455 305.32L327.396 300.236L327.802 299.708L331.731 294.637L332.136 294.109L336.078 289.037L336.484 288.509L338.694 285.66Z" fill="#003484"/>
<path d="M340.684 272.939L336.889 277.838L336.484 278.366L332.542 283.45L332.137 283.978L328.195 289.062L327.79 289.59L323.848 294.674L323.443 295.202L319.525 300.237L319.12 300.765L315.178 305.849L314.773 306.377L310.831 311.461L310.426 311.989L306.484 317.073L306.079 317.601L302.137 322.685L301.732 323.213L297.814 328.272H297.52L297.507 328.174L297.458 327.83L297.409 327.769L297.446 327.719L301.351 322.685L301.756 322.157L305.698 317.073L306.103 316.545L310.045 311.461L310.45 310.933L314.392 305.849L314.798 305.321L318.739 300.237L319.145 299.709L323.087 294.625L323.492 294.097L327.434 289.013L327.839 288.485L331.781 283.401L332.186 282.873L336.116 277.789L336.521 277.261L338.449 274.768C339.714 274.093 340.512 273.356 340.77 272.57L340.684 272.939Z" fill="#003484"/>
<path d="M328.367 277.617L328.195 277.838L327.79 278.366L323.848 283.45L323.443 283.978L319.501 289.062L319.096 289.59L315.154 294.674L314.748 295.202L310.807 300.286L310.401 300.814L306.459 305.898L306.054 306.426L302.112 311.51L301.707 312.038L297.765 317.122L297.36 317.65L296.071 319.308L295.936 318.436L296.955 317.122L297.36 316.594L301.29 311.51L301.695 310.982L305.637 305.898L306.042 305.37L309.972 300.286L310.377 299.758L314.319 294.674L314.724 294.146L318.666 289.062L319.071 288.534L323.013 283.45L323.418 282.922L327.36 277.838L327.421 277.752C327.63 277.728 327.839 277.691 328.035 277.666C328.17 277.642 328.269 277.629 328.367 277.617Z" fill="#003484"/>
<path d="M319.021 278.477L315.178 283.425L314.773 283.953L310.831 289.037L310.426 289.565L306.484 294.649L306.078 295.177L302.137 300.261L301.731 300.789L297.789 305.873L297.384 306.401L294.646 309.938L294.511 309.066L296.979 305.873L297.384 305.345L301.326 300.261L301.731 299.733L305.673 294.649L306.078 294.121L310.02 289.037L310.426 288.509L314.367 283.425L314.773 282.897L318.186 278.501C318.457 278.501 318.739 278.489 319.021 278.477Z" fill="#003484"/>
<path d="M334.31 313.733L334.102 315.035L332.542 317.049L332.137 317.565L328.207 322.649L327.802 323.177L323.872 328.236H323.467L323.455 328.224L323.222 328.04L323.455 327.733L327.397 322.649L327.802 322.121L331.732 317.049L332.137 316.521L334.31 313.733Z" fill="#003484"/>
<path d="M336.287 300.999L332.541 305.837L332.136 306.365L328.207 311.449L327.801 311.965L323.86 317.049L323.454 317.565L319.525 322.648L319.119 323.176L315.19 328.236H314.785L314.772 328.224L314.539 328.039L314.772 327.732L318.714 322.648L319.119 322.12L323.049 317.049L323.454 316.521L327.396 311.449L327.801 310.921L331.731 305.837L332.136 305.321L336.078 300.238L336.483 299.71L336.496 299.697V299.734L336.361 300.606L336.287 300.999Z" fill="#003484"/>
<path d="M310.34 278.464L306.496 283.425L306.091 283.953L302.149 289.037L301.744 289.565L297.802 294.649L297.397 295.177L293.455 300.261L293.197 300.605L293.062 299.757L293.05 299.745L293.062 299.733L296.992 294.661L297.397 294.133L301.326 289.049L301.732 288.521L305.674 283.437L306.079 282.909L309.542 278.439C309.824 278.439 310.082 278.452 310.34 278.464Z" fill="#003484"/>
<path d="M302.21 277.765L302.161 277.839L301.756 278.367L297.814 283.451L297.408 283.979L293.467 289.063L293.061 289.591L291.747 291.285L291.612 290.414L292.656 289.063L293.061 288.535L296.991 283.451L297.396 282.923L301.338 277.839L301.473 277.667C301.67 277.692 301.878 277.728 302.087 277.753L302.21 277.765Z" fill="#003484"/>
<path d="M294.719 276.218L293.467 277.826L293.062 278.354L290.286 281.928L290.151 281.056L292.656 277.826L293.062 277.298L294.069 276.009C294.277 276.082 294.498 276.156 294.719 276.218Z" fill="#003484"/>
<path d="M343.335 264.895H332.001V261.444H338.878C341.027 261.444 342.82 262.918 343.335 264.895Z" fill="white" stroke="#FEC02F" stroke-width="0.468" stroke-miterlimit="10"/>
<path d="M338.951 261.445C335.734 261.482 332.922 263.631 332.062 266.738L329.446 276.23C329.078 276.292 328.697 276.353 328.317 276.402C328.071 276.439 327.825 276.476 327.568 276.513C325.259 276.832 322.742 277.065 320.077 277.2C319.807 277.213 319.549 277.225 319.279 277.237C317.817 277.299 316.307 277.336 314.772 277.336C313.593 277.336 312.426 277.311 311.284 277.274C311.002 277.262 310.719 277.25 310.437 277.237C310.327 277.237 310.216 277.225 310.105 277.225L313.004 266.738C313.863 263.607 316.712 261.445 319.966 261.445H338.951Z" fill="white" stroke="#FEC02F" stroke-width="0.468" stroke-miterlimit="10"/>
<path d="M331.191 56.8242L360.184 139.394H254.012L282.231 56.8242H331.191Z" fill="#FEC02F"/>
<path d="M306.938 46.9876C306.938 43.5493 309.726 40.7617 313.164 40.7617H316.762C320.201 40.7617 322.988 43.5493 322.988 46.9876V127.556" stroke="#003484" stroke-width="0.5616" stroke-miterlimit="10"/>
<path d="M331.35 136.766V139.258H305.096V136.766C305.096 134.641 305.82 132.676 307.036 131.117C308.718 128.956 311.358 127.556 314.306 127.556H322.128C322.251 127.556 322.386 127.556 322.509 127.568C327.433 127.764 331.35 131.805 331.35 136.766Z" fill="white" stroke="#FF8000" stroke-width="0.5616" stroke-miterlimit="10"/>
<path d="M337.183 57.1676H276.435V55.2642C276.435 50.7084 280.131 47.0244 284.674 47.0244H328.944C333.499 47.0244 337.183 50.7207 337.183 55.2642V57.1676Z" fill="#FF8000"/>
<path d="M337.183 55.6455H276.435" stroke="white" stroke-width="0.468" stroke-miterlimit="10" stroke-linecap="round"/>
<path d="M330.834 57.168C330.834 59.3415 329.483 61.1098 327.801 61.1098H285.288C283.618 61.1098 282.255 59.3415 282.255 57.168H330.834Z" fill="white"/>
<path d="M322.988 129.963C322.988 133.904 319.39 137.109 314.957 137.109C310.966 137.109 307.65 134.518 307.036 131.117C308.718 128.956 311.359 127.556 314.306 127.556H322.128C322.251 127.556 322.386 127.556 322.509 127.568C322.828 128.317 322.988 129.127 322.988 129.963Z" fill="white" stroke="#FF8000" stroke-width="0.5616" stroke-miterlimit="10"/>
<path d="M315.178 125.874V129.73C315.178 130.516 314.454 131.154 313.57 131.154C312.685 131.154 311.961 130.516 311.961 129.73V125.874H311.986C312.133 126.549 312.784 127.065 313.557 127.065C314.331 127.065 314.982 126.549 315.129 125.874H315.178Z" fill="#FF8000"/>
<path d="M314.834 125.738C314.834 125.824 314.821 125.91 314.809 125.996C314.698 126.61 314.183 127.065 313.556 127.065C312.942 127.065 312.427 126.61 312.304 125.996C312.292 125.91 312.279 125.824 312.279 125.738C312.279 125.002 312.844 124.412 313.556 124.412C314.256 124.412 314.834 125.014 314.834 125.738Z" fill="white" stroke="#FF8000" stroke-width="0.5616" stroke-miterlimit="10"/>
<path d="M273.008 83.4229H268.809V139.395H273.008V83.4229Z" fill="#004ABC"/>
<path d="M267.053 139.395H259.857C259.095 139.395 258.481 138.781 258.481 138.02V96.4154C258.481 95.654 259.095 95.04 259.857 95.04H267.053C267.814 95.04 268.428 95.654 268.428 96.4154V138.02C268.428 138.781 267.814 139.395 267.053 139.395Z" fill="white" stroke="#FEC02F" stroke-width="0.468" stroke-miterlimit="10"/>
<path d="M290.201 138.499H281.936C281.335 138.499 280.819 138.069 280.708 137.479L273.291 98.9449C273.144 98.1712 273.733 97.459 274.519 97.459H282.784C283.385 97.459 283.901 97.8888 284.012 98.4782L291.429 137.013C291.576 137.786 290.987 138.499 290.201 138.499Z" stroke="#003484" stroke-width="0.5616" stroke-miterlimit="10"/>
<path d="M256.836 139.395H217.908C216.999 139.395 216.263 138.659 216.263 137.75V129.78C216.263 128.872 216.999 128.135 217.908 128.135H256.836C257.744 128.135 258.481 128.872 258.481 129.78V137.75C258.481 138.659 257.744 139.395 256.836 139.395Z" fill="#FF8000"/>
<path d="M111.061 2.79395V28.1888C111.061 33.1622 107.021 37.2023 102.048 37.2023H73.8896C78.863 37.2023 82.9031 33.1745 82.9031 28.1888V2.79395H111.061Z" fill="white" stroke="#FEC02F" stroke-width="0.468" stroke-miterlimit="10"/>
<path d="M98.0569 0.337891H95.7852V5.75334H98.0569V0.337891Z" fill="#FF8000"/>
<path d="M102.87 12.4454C102.55 12.4454 102.231 12.3226 101.973 12.0893L101.028 11.2543C100.733 10.9964 100.34 10.9964 100.045 11.2543L99.1488 12.0525C98.6208 12.5191 97.884 12.5191 97.3436 12.0525L96.5209 11.3279C96.2262 11.0701 95.8332 11.0701 95.5385 11.3279L94.7772 12.0033C94.2491 12.47 93.5123 12.47 92.972 12.0033L92.3457 11.4507C92.051 11.1929 91.658 11.1929 91.3633 11.4507L90.6879 12.0525C90.1599 12.5191 89.4231 12.5191 88.8828 12.0525L88.2565 11.4999C87.9618 11.242 87.5688 11.242 87.2741 11.4999C87.1513 11.6104 86.9548 11.5981 86.8443 11.4753C86.7338 11.3525 86.7461 11.156 86.8689 11.0455C87.3969 10.5789 88.1337 10.5789 88.674 11.0455L89.3003 11.5981C89.595 11.856 89.988 11.856 90.2827 11.5981L90.9581 10.9964C91.4861 10.5297 92.2229 10.5297 92.7632 10.9964L93.3895 11.549C93.6842 11.8069 94.0772 11.8069 94.3719 11.549L95.1333 10.8736C95.6613 10.4069 96.3981 10.4069 96.9384 10.8736L97.7612 11.5981C98.0559 11.856 98.4488 11.856 98.7436 11.5981L99.64 10.7999C100.168 10.3333 100.905 10.3333 101.445 10.7999L102.391 11.6349C102.685 11.8928 103.078 11.8928 103.373 11.6349L104.356 10.7631C104.884 10.2964 105.62 10.2964 106.161 10.7631C106.283 10.8736 106.296 11.0701 106.185 11.1929C106.075 11.3157 105.878 11.3279 105.755 11.2174C105.461 10.9595 105.068 10.9595 104.773 11.2174L103.791 12.0893C103.496 12.3226 103.189 12.4454 102.87 12.4454Z" fill="#FEC02F"/>
<path d="M102.87 17.4923C102.55 17.4923 102.231 17.3695 101.973 17.1362L101.028 16.3011C100.733 16.0433 100.34 16.0433 100.045 16.3011L99.1488 17.0993C98.6208 17.566 97.884 17.566 97.3436 17.0993L96.5209 16.3748C96.2262 16.1169 95.8332 16.1169 95.5385 16.3748L94.7772 17.0502C94.2491 17.5169 93.5123 17.5169 92.972 17.0502L92.3457 16.4976C92.051 16.2397 91.658 16.2397 91.3633 16.4976L90.6879 17.0993C90.1599 17.566 89.4231 17.566 88.8828 17.0993L88.2565 16.5467C87.9618 16.2889 87.5688 16.2889 87.2741 16.5467C87.1513 16.6573 86.9548 16.645 86.8443 16.5222C86.7338 16.3994 86.7461 16.2029 86.8689 16.0924C87.3969 15.6257 88.1337 15.6257 88.674 16.0924L89.3003 16.645C89.595 16.9029 89.988 16.9029 90.2827 16.645L90.9581 16.0433C91.4861 15.5766 92.2229 15.5766 92.7632 16.0433L93.3895 16.5959C93.6842 16.8537 94.0772 16.8537 94.3719 16.5959L95.1333 15.9205C95.6613 15.4538 96.3981 15.4538 96.9384 15.9205L97.7612 16.645C98.0559 16.9029 98.4488 16.9029 98.7436 16.645L99.64 15.8468C100.168 15.3801 100.905 15.3801 101.445 15.8468L102.391 16.6818C102.685 16.9397 103.078 16.9397 103.373 16.6818L104.356 15.8099C104.884 15.3433 105.62 15.3433 106.161 15.8099C106.283 15.9205 106.296 16.1169 106.185 16.2397C106.075 16.3625 105.878 16.3748 105.755 16.2643C105.461 16.0064 105.068 16.0064 104.773 16.2643L103.791 17.1362C103.496 17.3818 103.189 17.4923 102.87 17.4923Z" fill="#FEC02F"/>
<path d="M102.87 22.5401C102.55 22.5401 102.231 22.4173 101.973 22.184L101.028 21.349C100.733 21.0911 100.34 21.0911 100.045 21.349L99.1488 22.1472C98.6208 22.6138 97.884 22.6138 97.3436 22.1472L96.5209 21.4227C96.2262 21.1648 95.8332 21.1648 95.5385 21.4227L94.7772 22.0981C94.2491 22.5647 93.5123 22.5647 92.972 22.0981L92.3457 21.5455C92.051 21.2876 91.658 21.2876 91.3633 21.5455L90.6879 22.1472C90.1599 22.6138 89.4231 22.6138 88.8828 22.1472L88.2565 21.5946C87.9618 21.3367 87.5688 21.3367 87.2741 21.5946C87.1513 21.7051 86.9548 21.6928 86.8443 21.57C86.7338 21.4472 86.7461 21.2507 86.8689 21.1402C87.3969 20.6736 88.1337 20.6736 88.674 21.1402L89.3003 21.6928C89.595 21.9507 89.988 21.9507 90.2827 21.6928L90.9581 21.0911C91.4861 20.6245 92.2229 20.6245 92.7632 21.0911L93.3895 21.6437C93.6842 21.9016 94.0772 21.9016 94.3719 21.6437L95.1333 20.9683C95.6613 20.5017 96.3981 20.5017 96.9384 20.9683L97.7612 21.6928C98.0559 21.9507 98.4488 21.9507 98.7436 21.6928L99.64 20.8946C100.168 20.428 100.905 20.428 101.445 20.8946L102.391 21.7297C102.685 21.9875 103.078 21.9875 103.373 21.7297L104.356 20.8578C104.884 20.3912 105.62 20.3912 106.161 20.8578C106.283 20.9683 106.296 21.1648 106.185 21.2876C106.075 21.4104 105.878 21.4227 105.755 21.3121C105.461 21.0543 105.068 21.0543 104.773 21.3121L103.791 22.184C103.496 22.4296 103.189 22.5401 102.87 22.5401Z" fill="#FEC02F"/>
<path d="M102.87 27.5997C102.55 27.5997 102.231 27.4769 101.973 27.2436L101.028 26.4086C100.733 26.1507 100.34 26.1507 100.045 26.4086L99.1488 27.2068C98.6208 27.6734 97.884 27.6734 97.3436 27.2068L96.5209 26.4822C96.2262 26.2244 95.8332 26.2244 95.5385 26.4822L94.7772 27.1576C94.2491 27.6243 93.5123 27.6243 92.972 27.1576L92.3457 26.605C92.051 26.3472 91.658 26.3472 91.3633 26.605L90.6879 27.2068C90.1599 27.6734 89.4231 27.6734 88.8828 27.2068L88.2565 26.6542C87.9618 26.3963 87.5688 26.3963 87.2741 26.6542C87.1513 26.7647 86.9548 26.7524 86.8443 26.6296C86.7338 26.5068 86.7461 26.3103 86.8689 26.1998C87.3969 25.7332 88.1337 25.7332 88.674 26.1998L89.3003 26.7524C89.595 27.0103 89.988 27.0103 90.2827 26.7524L90.9581 26.1507C91.4861 25.684 92.2229 25.684 92.7632 26.1507L93.3895 26.7033C93.6842 26.9612 94.0772 26.9612 94.3719 26.7033L95.1333 26.0279C95.6613 25.5612 96.3981 25.5612 96.9384 26.0279L97.7612 26.7524C98.0559 27.0103 98.4488 27.0103 98.7436 26.7524L99.64 25.9542C100.168 25.4876 100.905 25.4876 101.445 25.9542L102.391 26.7892C102.685 27.0471 103.078 27.0471 103.373 26.7892L104.356 25.9174C104.884 25.4507 105.62 25.4507 106.161 25.9174C106.283 26.0279 106.296 26.2244 106.185 26.3472C106.075 26.47 105.878 26.4822 105.755 26.3717C105.461 26.1138 105.068 26.1138 104.773 26.3717L103.791 27.2436C103.496 27.4769 103.189 27.5997 102.87 27.5997Z" fill="#FEC02F"/>
<path d="M140.053 2.79395H120.356V22.491H140.053V2.79395Z" fill="#003484"/>
<path d="M124.686 1.95059L123.258 0.183594L118.052 4.39054L119.48 6.15753L124.686 1.95059Z" fill="#FEC02F"/>
<path d="M141.075 6.15567L142.503 4.38867L137.297 0.181727L135.869 1.94872L141.075 6.15567Z" fill="#FEC02F"/>
<path d="M135.891 7.45996H123.942V8.19676H135.891V7.45996Z" fill="white"/>
<path d="M135.891 10.6396H123.942V11.3764H135.891V10.6396Z" fill="white"/>
<path d="M135.891 13.832H123.942V14.5688H135.891V13.832Z" fill="white"/>
<path d="M135.891 17.0137H123.942V17.7505H135.891V17.0137Z" fill="white"/>
<path d="M215.341 139.396H169.427L178.317 119.748L179.619 116.862H205.149L208.735 124.783L215.341 139.396Z" fill="white" stroke="#003484" stroke-width="0.5616" stroke-miterlimit="10"/>
<path d="M208.735 124.783L178.317 119.748L179.619 116.862H205.149L208.735 124.783Z" fill="#003484"/>
<path d="M246.496 116.862H138.42C134.454 116.862 131.249 113.645 131.249 109.69V39.1422C131.249 35.1758 134.466 31.9707 138.42 31.9707H246.496C250.463 31.9707 253.668 35.188 253.668 39.1422V109.678C253.668 113.645 250.45 116.862 246.496 116.862Z" fill="white" stroke="#003484" stroke-width="0.5616" stroke-miterlimit="10"/>
<path d="M214.114 111.877H170.791C168.679 111.877 166.972 110.17 166.972 108.058V102.814C166.972 100.702 168.679 98.9951 170.791 98.9951H214.114C216.226 98.9951 217.933 100.702 217.933 102.814V108.058C217.933 110.17 216.214 111.877 214.114 111.877Z" fill="#003484"/>
<path d="M202.743 108.377H199.821C199.096 108.377 198.507 107.787 198.507 107.063V104.779C198.507 104.054 199.096 103.465 199.821 103.465H202.743C203.468 103.465 204.057 104.054 204.057 104.779V107.063C204.057 107.787 203.468 108.377 202.743 108.377Z" fill="white"/>
<path d="M206.464 107.997L205.383 107.309C205.088 107.125 204.904 106.793 204.904 106.437V105.406C204.904 105.049 205.088 104.718 205.383 104.534L206.464 103.846C206.722 103.686 207.053 103.871 207.053 104.165V107.665C207.066 107.972 206.722 108.156 206.464 107.997Z" fill="white"/>
<path d="M191.666 107.223H191.396C190.328 107.223 189.456 106.351 189.456 105.282V104.14C189.456 104.042 189.542 103.956 189.64 103.956H193.41C193.508 103.956 193.594 104.042 193.594 104.14V105.282C193.607 106.351 192.735 107.223 191.666 107.223ZM189.824 104.324V105.282C189.824 106.142 190.524 106.854 191.396 106.854H191.666C192.526 106.854 193.238 106.154 193.238 105.282V104.324H189.824Z" fill="white"/>
<path d="M191.531 109.347C191.433 109.347 191.347 109.261 191.347 109.163V107.775C191.347 107.677 191.433 107.591 191.531 107.591C191.629 107.591 191.715 107.677 191.715 107.775V109.163C191.715 109.261 191.629 109.347 191.531 109.347Z" fill="white"/>
<path d="M192.502 109.347H190.574C190.476 109.347 190.39 109.261 190.39 109.163C190.39 109.064 190.476 108.979 190.574 108.979H192.502C192.6 108.979 192.686 109.064 192.686 109.163C192.686 109.261 192.6 109.347 192.502 109.347Z" fill="white"/>
<path d="M191.617 106.363H191.445C190.831 106.363 190.34 105.872 190.34 105.258V103.023C190.34 102.409 190.831 101.918 191.445 101.918H191.617C192.231 101.918 192.722 102.409 192.722 103.023V105.258C192.722 105.872 192.231 106.363 191.617 106.363Z" fill="white"/>
<path d="M180.319 104.975L180.307 104.988C180.074 105.27 180.148 105.7 180.455 105.958L181.584 106.866C181.891 107.112 182.333 107.087 182.567 106.805L182.579 106.793C182.812 106.51 183.254 106.498 183.549 106.756L184.568 107.677C184.888 107.972 184.888 108.463 184.568 108.684C183.5 109.433 182.112 109.163 180.97 108.242L179.251 106.854C178.109 105.921 177.556 104.619 178.06 103.416C178.22 103.047 178.699 102.949 179.042 103.207L180.16 104.017C180.467 104.263 180.54 104.693 180.319 104.975Z" fill="white"/>
<path d="M183.316 105.687C183.218 105.687 183.144 105.613 183.132 105.515C183.071 104.63 182.309 103.955 181.425 104.016C181.327 104.016 181.241 103.943 181.229 103.845C181.216 103.746 181.302 103.66 181.401 103.648C182.494 103.574 183.427 104.409 183.5 105.49C183.513 105.588 183.439 105.674 183.316 105.687C183.329 105.687 183.329 105.687 183.316 105.687Z" fill="white"/>
<path d="M184.47 105.503C184.372 105.503 184.298 105.429 184.286 105.331C184.237 104.594 183.905 103.906 183.34 103.415C182.776 102.924 182.063 102.678 181.327 102.728C181.228 102.728 181.142 102.654 181.13 102.556C181.118 102.457 181.204 102.371 181.302 102.359C182.137 102.31 182.948 102.58 183.586 103.133C184.225 103.685 184.593 104.459 184.654 105.294C184.667 105.417 184.581 105.503 184.47 105.503C184.482 105.503 184.482 105.503 184.47 105.503Z" fill="white"/>
<path d="M226.002 38.6148C226.707 38.6148 227.279 38.043 227.279 37.3377C227.279 36.6323 226.707 36.0605 226.002 36.0605C225.296 36.0605 224.725 36.6323 224.725 37.3377C224.725 38.043 225.296 38.6148 226.002 38.6148Z" stroke="#FEC02F" stroke-width="0.468" stroke-miterlimit="10"/>
<path d="M231.22 38.6148C231.926 38.6148 232.498 38.043 232.498 37.3377C232.498 36.6323 231.926 36.0605 231.22 36.0605C230.515 36.0605 229.943 36.6323 229.943 37.3377C229.943 38.043 230.515 38.6148 231.22 38.6148Z" stroke="#FEC02F" stroke-width="0.468" stroke-miterlimit="10"/>
<path d="M236.452 38.6148C237.157 38.6148 237.729 38.043 237.729 37.3377C237.729 36.6323 237.157 36.0605 236.452 36.0605C235.747 36.0605 235.175 36.6323 235.175 37.3377C235.175 38.043 235.747 38.6148 236.452 38.6148Z" stroke="#FEC02F" stroke-width="0.468" stroke-miterlimit="10"/>
<path d="M187.909 95.8516H149.423C148.244 95.8516 147.299 94.8938 147.299 93.7272V73.1215C147.299 71.9426 148.257 70.9971 149.423 70.9971H187.909C189.087 70.9971 190.033 71.9549 190.033 73.1215V93.7272C190.033 94.8938 189.087 95.8516 187.909 95.8516Z" stroke="#003484" stroke-width="0.5616" stroke-miterlimit="10"/>
<path d="M236.452 95.8516H197.966C196.787 95.8516 195.842 94.8938 195.842 93.7272V73.1215C195.842 71.9426 196.8 70.9971 197.966 70.9971H236.452C237.63 70.9971 238.576 71.9549 238.576 73.1215V93.7272C238.576 94.8938 237.63 95.8516 236.452 95.8516Z" fill="#004ABC"/>
<path d="M229.182 95.7888H204.032C206.574 92.6575 210.455 90.6436 214.802 90.6436H218.412C222.759 90.6558 226.64 92.6575 229.182 95.7888Z" fill="#FF8000"/>
<path d="M215.822 90.6572C215.576 92.5115 213.992 93.936 212.076 93.936C210.664 93.936 209.436 93.1623 208.785 92.0203C210.603 91.1484 212.641 90.6572 214.79 90.6572H215.822Z" fill="white"/>
<path d="M223.25 91.5154C222.698 92.9276 221.335 93.9223 219.726 93.9223C217.81 93.9223 216.226 92.4978 215.98 90.6436H218.424C220.119 90.6558 221.74 90.9506 223.25 91.5154Z" fill="white"/>
<path d="M220.487 85.1797V90.7548C220.487 91.6267 218.744 92.3266 216.607 92.3266C216.214 92.3266 215.833 92.3021 215.477 92.2652C213.881 92.0687 212.727 91.467 212.727 90.7548V85.1797H220.487Z" fill="#A0505A"/>
<path d="M219.972 86.3213C219.972 88.7405 217.86 91.6754 215.477 92.2525C213.881 92.056 212.727 91.4543 212.727 90.7421V85.167H219.849L219.972 86.3213Z" fill="#73325A"/>
<path d="M222.477 84.4677V84.6028C222.477 85.5483 221.703 86.322 220.757 86.322H219.112C218.363 87.9306 216.73 89.0358 214.839 89.0358H214.519C212.407 89.0358 210.7 87.3289 210.7 85.2168V81.2749C213.144 81.4346 216.251 79.2979 216.251 79.2979C217.27 83.2397 220.18 83.1906 221.531 82.9327C222.084 83.2151 222.477 83.8046 222.477 84.4677Z" fill="#A0505A"/>
<path d="M220.057 85.0686C219.959 85.0686 219.873 84.9827 219.873 84.8844C219.873 84.0985 220.512 83.46 221.298 83.46C221.396 83.46 221.482 83.5459 221.482 83.6442C221.482 83.7424 221.396 83.8284 221.298 83.8284C220.72 83.8284 220.241 84.295 220.241 84.8844C220.241 84.9827 220.155 85.0686 220.057 85.0686Z" fill="#73325A"/>
<path d="M220.488 86.3215H220.758C221.704 86.3215 222.477 85.5479 222.477 84.6023V84.4672C222.477 83.7918 222.097 83.2147 221.532 82.9322C221.163 83.0059 220.66 83.055 220.119 83.0182C218.72 82.9077 216.988 82.1463 216.251 79.2974C216.251 79.2974 213.144 81.4341 210.701 81.2745C210.246 81.2499 209.817 81.1394 209.436 80.9183C207.41 79.764 212.309 74.3608 217.934 75.1713C222.428 75.8222 222.33 81.2008 222.244 82.4779C222.465 82.4533 222.686 82.441 222.907 82.441C226.198 82.441 228.863 84.9707 228.863 88.1021C228.863 90.1406 227.733 91.9334 226.026 92.9281C224.393 91.8475 222.514 91.1107 220.488 90.8037V86.3215Z" fill="#FEC02F"/>
<path d="M213.181 85.2047C213.157 85.2047 213.132 85.2047 213.12 85.1925C213.022 85.1556 212.972 85.0451 213.009 84.9591C213.009 84.9469 213.378 83.9522 212.764 82.8838C212.236 81.9628 211.069 82.1225 211.02 82.1348C210.922 82.147 210.823 82.0856 210.811 81.9751C210.799 81.8769 210.86 81.7786 210.971 81.7664C211.032 81.7541 212.432 81.5576 213.095 82.6996C213.795 83.9153 213.378 85.0451 213.365 85.0819C213.316 85.1556 213.255 85.2047 213.181 85.2047Z" fill="#73325A"/>
<path d="M217.368 82.8713C217.331 82.8713 217.294 82.859 217.257 82.8345C216.189 82.0117 214.765 82.1099 214.752 82.1099C214.654 82.1222 214.568 82.0363 214.556 81.938C214.544 81.8398 214.63 81.7538 214.728 81.7415C214.789 81.7415 216.3 81.631 217.478 82.5397C217.564 82.6011 217.577 82.7117 217.515 82.7976C217.466 82.8467 217.417 82.8713 217.368 82.8713Z" fill="#73325A"/>
<path d="M212.542 85.6221C212.542 85.6221 212.837 87.5623 214.838 85.6712C214.838 85.6712 213.438 85.8554 212.542 85.6221Z" fill="white"/>
<path d="M215.624 83.9883C215.766 83.9883 215.882 83.7299 215.882 83.4112C215.882 83.0924 215.766 82.834 215.624 82.834C215.482 82.834 215.366 83.0924 215.366 83.4112C215.366 83.7299 215.482 83.9883 215.624 83.9883Z" fill="#73325A"/>
<path d="M211.793 83.8904C211.915 83.8904 212.014 83.676 212.014 83.4115C212.014 83.147 211.915 82.9326 211.793 82.9326C211.671 82.9326 211.572 83.147 211.572 83.4115C211.572 83.676 211.671 83.8904 211.793 83.8904Z" fill="#73325A"/>
<path d="M235.972 67.6925H197.487C196.308 67.6925 195.362 66.7346 195.362 65.568V44.9623C195.362 43.7834 196.32 42.8379 197.487 42.8379H235.972C237.151 42.8379 238.096 43.7957 238.096 44.9623V65.568C238.096 66.7346 237.139 67.6925 235.972 67.6925Z" fill="#003484"/>
<path d="M228.137 67.6933H204.646C207.016 64.5373 210.638 62.5234 214.703 62.5234H218.08C222.144 62.5234 225.767 64.5373 228.137 67.6933Z" fill="#FEC02F"/>
<path d="M215.145 66.6362H215.673C217.969 66.6362 219.836 64.7696 219.836 62.4733V59.5138C219.836 59.5015 219.823 59.4893 219.811 59.4893H212.087C212.075 59.4893 212.062 59.5015 212.062 59.5138V63.5785C212.075 65.2731 213.45 66.6362 215.145 66.6362Z" fill="white"/>
<path d="M212.074 59.4893V63.4802C212.074 63.5294 212.074 63.5908 212.074 63.6399C212.185 65.9239 217.87 65.0275 219.577 59.4893H212.074Z" fill="#FEC02F"/>
<path d="M222.083 57.7087C222.083 58.1999 221.886 58.642 221.555 58.9735C221.235 59.2928 220.793 59.4893 220.29 59.4893H218.608C218.006 61.0857 216.459 62.2154 214.653 62.2154H213.339C211.51 62.2154 210.036 60.7295 210.036 58.9121V53.7545C211.927 53.9142 213.524 52.3915 213.585 52.3301C213.56 52.416 212.603 55.1176 214.776 55.265C216.937 55.4123 217.65 53.8528 217.674 53.7914C217.674 53.8528 217.687 55.9404 219.393 56.0509H220.29C221.285 56.0509 222.083 56.7263 222.083 57.7087Z" fill="white"/>
<path d="M219.553 56.0514H219.516C219.48 56.0514 219.443 56.0514 219.406 56.0514C217.699 55.9408 217.687 53.8655 217.687 53.7918C217.662 53.8532 216.938 55.4128 214.789 55.2654C212.627 55.1181 213.573 52.4165 213.597 52.3305C213.536 52.3797 211.94 53.9146 210.049 53.755C209.631 53.7182 209.214 53.6076 208.784 53.3743C206.021 51.8762 207.801 48.7939 210.515 48.7571C212.677 48.7325 213.597 49.9114 213.597 49.9114C213.597 49.9114 214.064 47.4922 216.717 47.9098C219.369 48.3273 218.89 50.6727 218.89 50.6727C218.89 50.6727 221.113 49.6412 222.341 51.5446C223.79 53.7796 221.616 56.0514 219.553 56.0514Z" fill="#FF8000"/>
<path d="M212.295 58.2979C212.283 58.2979 212.271 58.2979 212.246 58.2979C212.148 58.2733 212.087 58.1751 212.111 58.0768C212.111 58.0646 212.406 56.8489 211.878 55.8542C211.301 54.7981 210.306 54.97 210.269 54.97C210.171 54.9823 210.073 54.9209 210.06 54.8227C210.036 54.7244 210.11 54.6262 210.208 54.6139C210.22 54.6139 211.509 54.3806 212.209 55.6823C212.811 56.7997 212.492 58.1137 212.48 58.1628C212.443 58.2365 212.369 58.2979 212.295 58.2979Z" fill="#FEC02F"/>
<path d="M212.947 59.7221C212.689 59.7221 212.456 59.6853 212.284 59.6362C212.186 59.6116 212.124 59.5134 212.149 59.4151C212.174 59.3169 212.272 59.2555 212.37 59.28C212.431 59.2923 213.831 59.6607 214.347 58.5801C214.396 58.4941 214.494 58.445 214.593 58.4941C214.691 58.5432 214.728 58.6415 214.679 58.7397C214.323 59.5134 213.573 59.7221 212.947 59.7221Z" fill="#FEC02F"/>
<path d="M214.727 56.8242C214.869 56.8242 214.985 56.5658 214.985 56.2471C214.985 55.9283 214.869 55.6699 214.727 55.6699C214.584 55.6699 214.469 55.9283 214.469 56.2471C214.469 56.5658 214.584 56.8242 214.727 56.8242Z" fill="#FEC02F"/>
<path d="M210.909 56.7264C211.031 56.7264 211.13 56.512 211.13 56.2475C211.13 55.983 211.031 55.7686 210.909 55.7686C210.786 55.7686 210.688 55.983 210.688 56.2475C210.688 56.512 210.786 56.7264 210.909 56.7264Z" fill="#FEC02F"/>
<path d="M219.369 58.385C219.271 58.385 219.185 58.2991 219.185 58.2008C219.185 57.4149 219.823 56.7764 220.609 56.7764C220.707 56.7764 220.793 56.8623 220.793 56.9606C220.793 57.0588 220.707 57.1448 220.609 57.1448C220.032 57.1448 219.553 57.6114 219.553 58.2008C219.553 58.2991 219.467 58.385 219.369 58.385Z" fill="#FEC02F"/>
<path d="M187.417 67.6925H148.932C147.753 67.6925 146.808 66.7346 146.808 65.568V44.9623C146.808 43.7834 147.765 42.8379 148.932 42.8379H187.417C188.596 42.8379 189.542 43.7957 189.542 44.9623V65.568C189.554 66.7346 188.596 67.6925 187.417 67.6925Z" fill="#FEC02F"/>
<path d="M178.121 67.6922H154.249C156.656 64.0942 160.34 61.7979 164.466 61.7979H167.904C172.03 61.7979 175.702 64.0942 178.121 67.6922Z" fill="white"/>
<path d="M178.121 67.6922H154.249C154.323 67.5817 154.396 67.4834 154.47 67.3729C154.482 67.3484 154.495 67.3238 154.519 67.3115H177.863C177.876 67.3361 177.888 67.3484 177.912 67.3729C177.974 67.4712 178.048 67.5817 178.121 67.6922Z" fill="#FEB040"/>
<path d="M177.114 66.3533H155.256C155.366 66.2183 155.477 66.0955 155.587 65.9727H176.783C176.893 66.0955 177.004 66.2183 177.114 66.3533Z" fill="#FEB040"/>
<path d="M175.764 64.9529H156.607C156.755 64.8179 156.902 64.6951 157.049 64.5723H175.322C175.469 64.6951 175.617 64.8179 175.764 64.9529Z" fill="#FEB040"/>
<path d="M173.7 63.4178H158.657C158.878 63.2827 159.112 63.1599 159.345 63.0371H173C173.246 63.1599 173.467 63.2827 173.7 63.4178Z" fill="#FEB040"/>
<path d="M169.992 57.2051V62.6942C169.992 63.2591 168.249 63.7134 166.112 63.7134C164.024 63.7134 162.317 63.2836 162.231 62.731C162.231 62.7188 162.231 62.7065 162.231 62.6942V57.2051H169.992Z" fill="#E57281"/>
<path d="M169.944 57.2047V57.3275C169.944 60.0291 166.591 63.1236 164.172 63.4797C163.791 63.5411 162.613 63.3078 162.244 62.7184C162.244 62.7061 162.244 62.6938 162.244 62.6815V57.1924H169.944V57.2047Z" fill="#9A3B82"/>
<path d="M172.104 55.4747V55.5975C172.104 56.5431 171.331 57.3167 170.385 57.3167H168.899C168.42 59.0359 166.849 60.2885 164.982 60.2885H163.398C161.642 60.2885 160.205 58.864 160.205 57.0957V50.1084C163.152 50.9312 168.42 50.1575 168.42 50.1575C168.42 50.1575 167.941 51.8767 168.85 53.7433H170.397C171.331 53.7555 172.104 54.5292 172.104 55.4747Z" fill="#E57281"/>
<path d="M170.324 53.5336H168.924C167.733 51.5197 168.408 50.1812 168.408 50.1812C168.408 50.1812 163.14 50.9426 160.193 50.1321C158.854 49.7637 157.994 49.0637 158.314 47.8235C159.333 43.8448 170.311 48.0813 171.073 49.5181C171.846 50.9548 170.324 53.5336 170.324 53.5336Z" fill="white" stroke="#FEB040" stroke-width="0.3744" stroke-miterlimit="10"/>
<path d="M164.872 57.3045C164.835 57.3413 164.798 57.3536 164.749 57.3536C164.7 57.3536 164.651 57.329 164.614 57.2922L164.442 57.108C163.914 57.5746 163.41 57.8079 162.944 57.8079C162.895 57.8079 162.846 57.8079 162.809 57.7957C162.293 57.7465 162.035 57.4027 162.023 57.3904C161.961 57.3045 161.974 57.1939 162.06 57.1325C162.146 57.0711 162.256 57.0834 162.317 57.1694C162.33 57.1817 162.502 57.4027 162.858 57.4395C163.251 57.4764 163.705 57.2676 164.196 56.8378L164.098 56.7273C164.024 56.6536 164.037 56.5308 164.11 56.4694C164.184 56.3957 164.307 56.408 164.368 56.4817L164.884 57.0466C164.958 57.1203 164.945 57.2308 164.872 57.3045Z" fill="#9A3B82"/>
<path d="M166.738 53.6445C166.689 53.6445 166.64 53.6322 166.603 53.5953C165.523 52.5393 164.147 52.748 164.135 52.748C164.037 52.7603 163.939 52.6989 163.926 52.6007C163.914 52.5024 163.976 52.4042 164.074 52.3919C164.135 52.3796 165.646 52.134 166.861 53.3375C166.935 53.4111 166.935 53.5217 166.861 53.5953C166.837 53.6322 166.788 53.6445 166.738 53.6445Z" fill="#9A3B82"/>
<path d="M162.551 56.2233C162.538 56.2233 162.514 56.2233 162.502 56.211C162.403 56.1865 162.354 56.076 162.379 55.9777C162.379 55.9654 162.759 54.7129 162.145 53.6445C161.617 52.7235 160.426 53.006 160.414 53.0183C160.316 53.0428 160.217 52.9814 160.193 52.8832C160.168 52.7849 160.23 52.6867 160.328 52.6621C160.831 52.5393 161.937 52.5393 162.465 53.4726C163.165 54.6883 162.759 56.0391 162.735 56.1005C162.698 56.1742 162.637 56.2233 162.551 56.2233Z" fill="#9A3B82"/>
<path d="M161.175 54.7869C161.297 54.7869 161.396 54.5725 161.396 54.308C161.396 54.0435 161.297 53.8291 161.175 53.8291C161.053 53.8291 160.954 54.0435 160.954 54.308C160.954 54.5725 161.053 54.7869 161.175 54.7869Z" fill="#9A3B82"/>
<path d="M164.994 54.8848C165.137 54.8848 165.252 54.6264 165.252 54.3076C165.252 53.9889 165.137 53.7305 164.994 53.7305C164.852 53.7305 164.736 53.9889 164.736 54.3076C164.736 54.6264 164.852 54.8848 164.994 54.8848Z" fill="#9A3B82"/>
<path d="M169.427 56.1C169.329 56.1 169.243 56.0141 169.243 55.9158C169.243 55.1176 169.894 54.4668 170.692 54.4668C170.79 54.4668 170.876 54.5528 170.876 54.651C170.876 54.7492 170.79 54.8352 170.692 54.8352C170.09 54.8352 169.612 55.3141 169.612 55.9158C169.612 56.0141 169.538 56.1 169.427 56.1Z" fill="#9A3B82"/>
<path d="M232.643 287.761C232.311 287.663 232.127 287.614 232.127 287.614L228.111 300.766L212.995 296.799C212.872 296.689 212.811 296.627 212.811 296.627C212.811 296.627 151.595 248.65 148.378 225.625C145.173 202.6 170.813 180.754 170.813 180.754C170.813 180.754 225.496 284.114 232.262 287.491C232.397 287.565 232.532 287.651 232.643 287.761Z" fill="#A0505A"/>
<path d="M183.757 204.932C181.841 215.186 175.112 235.951 168.149 256.041C157.834 244.928 149.508 233.716 148.378 225.611C146.34 211.023 155.906 196.889 163.176 188.514C165.84 186.377 168.714 184.412 171.821 182.656C173.724 186.23 178.133 194.506 183.757 204.932Z" fill="#73325A"/>
<path d="M267.002 296.615L244.517 311.044L237.997 310.061L231.992 313.868L233.932 317.847L224.047 324.196C210.944 312.272 212.798 296.762 212.798 296.762L228.099 300.778L232.115 287.626C232.115 287.626 245.856 291.642 255.999 291.298C266.167 290.954 267.002 296.615 267.002 296.615Z" fill="white" stroke="#FF8000" stroke-width="0.5616" stroke-miterlimit="10"/>
<path d="M241.447 289.382C241.447 289.382 240.501 279.386 238.131 280.013C235.761 280.651 238.733 290.622 241.398 289.53C244.063 288.437 246.727 281.351 246.727 281.351" stroke="#FF8000" stroke-width="0.5616" stroke-miterlimit="10"/>
<path d="M215.144 311.032L230.211 311.265L237.69 306.795L244.787 307.937L266.068 294.65" stroke="#FF8000" stroke-width="0.5616" stroke-miterlimit="10"/>
<path d="M238.329 288.817L236.929 295.338" stroke="#FF8000" stroke-width="0.5616" stroke-miterlimit="10"/>
<path d="M241.374 289.554L239.974 296.074" stroke="#FF8000" stroke-width="0.5616" stroke-miterlimit="10"/>
<path d="M244.554 290.082L243.154 296.603" stroke="#FF8000" stroke-width="0.5616" stroke-miterlimit="10"/>
<path d="M165.62 175.731C165.62 175.731 174.621 179.931 174.621 195.33C174.621 210.213 140.262 301.355 140.262 301.355L129.689 310.319L118.956 298.568C124.2 293.582 109.144 203.447 165.62 175.731Z" fill="#A0505A"/>
<path d="M164.662 327.782L137.941 327.806L132.98 323.459L125.87 323.423L125.354 327.819L114.879 327.831C109.181 310.099 119.005 298.556 119.005 298.556L129.664 310.295L140.311 301.343C140.311 301.343 149.545 312.174 158.264 317.356C167.007 322.551 164.662 327.782 164.662 327.782Z" fill="white" stroke="#FF8000" stroke-width="0.5616" stroke-miterlimit="10"/>
<path d="M146.402 307.655C146.402 307.655 156.889 300.889 153.905 298.298C150.921 295.707 144.916 306.955 146.549 307.852C148.182 308.748 159.492 305.346 159.492 305.346" stroke="#FF8000" stroke-width="0.5616" stroke-miterlimit="10"/>
<path d="M113.467 312.149L126.005 320.058H134.711L140.225 324.687H164.871" stroke="#FF8000" stroke-width="0.5616" stroke-miterlimit="10"/>
<path d="M144.068 305.102L139.353 309.817" stroke="#FF8000" stroke-width="0.5616" stroke-miterlimit="10"/>
<path d="M146.229 307.373L141.514 312.089" stroke="#FF8000" stroke-width="0.5616" stroke-miterlimit="10"/>
<path d="M148.612 309.535L143.896 314.251" stroke="#FF8000" stroke-width="0.5616" stroke-miterlimit="10"/>
<path d="M165.62 175.732C144.388 186.145 133.263 205.4 127.381 225.625H62.9478C46.4558 225.625 34.1636 210.41 37.6388 194.287L42.3666 172.33H154.396C158.547 172.33 162.403 173.583 165.62 175.732Z" fill="#FF8000"/>
<path d="M117.777 196.78L140.974 196.73L137.536 202.367L117.777 196.78Z" fill="#A0505A"/>
<path d="M165.744 175.609C155.183 180.791 147.127 188.159 140.963 196.743H82.1788C71.5812 196.743 63.6729 187.005 65.8342 176.628L66.7306 172.33" stroke="white" stroke-width="0.5616" stroke-miterlimit="10" stroke-linecap="round"/>
<path d="M127.466 225.612C129.812 217.544 132.98 209.624 137.29 202.366L117.777 196.767" stroke="white" stroke-width="0.5616" stroke-miterlimit="10" stroke-linecap="round"/>
<path d="M27.3115 113.35L39.1125 159.645H17.0945C4.2743 159.645 -3.97781 146.026 1.96567 134.668L18.8751 102.334C23.6643 93.1859 33.1321 87.4512 43.4596 87.4512H47.4505C33.8935 87.4389 23.959 100.21 27.3115 113.35Z" fill="#004ABC"/>
<path d="M163.201 101.34C170.139 101.34 175.911 100.419 177.311 99.1291L155.784 145.793C151.891 154.241 143.431 159.645 134.135 159.645C131.408 159.645 128.731 159.178 126.202 158.282C123.672 157.385 121.29 156.071 119.165 154.352L105.596 143.398C105.596 143.398 104.245 151.343 94.6055 153.37V172.305H42.3544L27.3115 113.337C23.9591 100.197 33.8936 87.4141 47.4506 87.4141H84.0325C87.2621 87.4141 90.4426 87.8193 93.5126 88.6052C101.912 90.7419 109.452 95.6785 114.781 102.752L132.661 126.477L148.723 98.4046C148.723 98.4292 148.711 98.466 148.711 98.4906C148.723 100.124 155.219 101.34 163.201 101.34Z" fill="#004ABC"/>
<path d="M27.1885 113.35L38.7439 160.013" stroke="white" stroke-width="0.5616" stroke-miterlimit="10" stroke-linecap="round"/>
<path d="M105.719 144.025L95.4531 133.096" stroke="white" stroke-width="0.5616" stroke-miterlimit="10" stroke-linecap="round"/>
<path d="M177.63 98.4408L177.31 99.1284C175.91 100.43 170.139 101.339 163.201 101.339C155.219 101.339 148.723 100.123 148.723 98.5144C148.723 98.4899 148.723 98.453 148.735 98.4285C148.956 96.8566 155.366 95.5059 163.213 95.5059C171.048 95.5059 177.409 96.8566 177.63 98.4408C177.63 98.4285 177.63 98.4285 177.63 98.4408Z" fill="#FF8000"/>
<path d="M184.066 74.8636C184.066 75.5636 183.894 76.2513 183.575 76.853C183.256 77.4547 182.789 77.9827 182.212 78.388L181.929 78.5844L179.731 90.3118C179.375 92.2152 178.245 93.8975 176.612 94.9413L173.604 96.857L171.221 98.3797L170.116 101.02C168.065 101.229 165.72 101.351 163.215 101.351C160.685 101.351 158.303 101.229 156.228 101.008V82.821C156.228 82.0351 156.399 81.2615 156.731 80.5492L160.734 71.9287C160.734 71.9287 165.106 73.0094 163.092 78.3757C161.262 83.2508 165.437 81.9983 167.783 81.1264C169.883 80.3405 179.056 75.6741 182.642 73.9672C183.305 73.6479 184.066 74.1391 184.066 74.8636Z" fill="#A0505A"/>
<path d="M180.234 85.8535C179.878 87.7569 178.748 89.427 177.115 90.4708L171.724 93.9092" stroke="#73325A" stroke-width="0.468" stroke-miterlimit="10" stroke-linecap="round"/>
<path d="M181.117 80.8799C180.761 82.7833 179.632 84.4534 177.998 85.4971L172.607 88.9355" stroke="#73325A" stroke-width="0.468" stroke-miterlimit="10" stroke-linecap="round"/>
<path d="M181.536 78.7188L172.866 84.2202" stroke="#73325A" stroke-width="0.468" stroke-miterlimit="10" stroke-linecap="round"/>
<path d="M174.069 96.5503L173.59 96.8573L171.208 98.38L170.102 101.02C168.052 101.229 165.706 101.352 163.201 101.352C160.671 101.352 158.289 101.229 156.214 101.008V95.8995C158.289 95.6539 160.671 95.5188 163.201 95.5188C167.536 95.5065 171.416 95.9118 174.069 96.5503Z" fill="#73325A"/>
<path d="M92.3713 88.3227C90.5907 90.7173 83.9596 96.3537 61.6347 96.3537C32.9119 96.3537 51.295 87.4631 51.295 87.4631L63.4767 67.1152L76.5425 75.134V81.581C76.5425 84.8352 79.1827 87.4631 82.4246 87.4631H83.2719C86.3173 87.4508 89.461 87.5859 92.3713 88.3227Z" fill="#A0505A"/>
<path d="M76.5298 75.1213V76.7668L51.2822 87.4504L63.4639 67.1025L76.5298 75.1213Z" fill="#73325A"/>
<path d="M77.2175 75.92H79.9927C82.547 75.92 84.6223 73.8447 84.6223 71.2905V55.8301H68.0566V66.7592C68.0566 71.8185 72.1581 75.92 77.2175 75.92Z" fill="#A0505A"/>
<path d="M84.2663 70.394C82.4857 70.394 81.7734 69.166 81.7734 69.166" stroke="#73325A" stroke-width="0.468" stroke-miterlimit="10" stroke-linecap="round"/>
<path d="M82.6568 65.4452C82.9823 65.4452 83.2463 64.9339 83.2463 64.3032C83.2463 63.6724 82.9823 63.1611 82.6568 63.1611C82.3313 63.1611 82.0674 63.6724 82.0674 64.3032C82.0674 64.9339 82.3313 65.4452 82.6568 65.4452Z" fill="#73325A"/>
<path d="M71.2123 57.4383C71.2123 57.4383 84.8799 65.6904 89.3252 58.5067C93.2303 52.207 75.9278 48.9651 69.8861 48.9406C63.3163 48.916 54.6099 51.8264 54.7572 61.4907C54.88 69.4481 55.2116 81.0894 50.4961 79.0633C33.7217 71.8672 18.8139 79.3825 18.7648 93.7009C18.7156 108.019 35.3304 109.358 35.7479 105.662C36.1777 101.978 25.4328 102.825 26.8818 112.391C28.3185 121.957 34.7287 133.918 49.3663 133.918C67.0494 133.93 78.3101 110.647 67.3687 108.277C58.9815 106.46 75.9155 122.645 80.938 105.821C86.3412 87.7083 66.8161 81.7771 66.3372 70.8357C65.8583 59.8943 71.2123 57.4383 71.2123 57.4383Z" fill="#FEC02F" stroke="white" stroke-width="0.468" stroke-miterlimit="10"/>
<path d="M70.2549 64.0088H80.0297" stroke="#FF8000" stroke-width="0.5616" stroke-miterlimit="10"/>
<path d="M83.038 67.9388C84.5707 67.9388 85.8132 66.3444 85.8132 64.3776C85.8132 62.4108 84.5707 60.8164 83.038 60.8164C81.5052 60.8164 80.2627 62.4108 80.2627 64.3776C80.2627 66.3444 81.5052 67.9388 83.038 67.9388Z" stroke="#FF8000" stroke-width="0.5616" stroke-miterlimit="10"/>
<path d="M65.0723 59.6254V49.2857C65.0723 47.7385 66.3248 46.4736 67.8844 46.4736H70.9544C72.5016 46.4736 73.7664 47.7262 73.7664 49.2857" stroke="#003484" stroke-width="0.5616" stroke-miterlimit="10"/>
<path d="M68.0318 71.0085H62.1251C60.6147 71.0085 59.3867 69.7805 59.3867 68.2701V62.3634C59.3867 60.853 60.6147 59.625 62.1251 59.625H68.0318C69.5422 59.625 70.7702 60.853 70.7702 62.3634V68.2701C70.7579 69.7805 69.5422 71.0085 68.0318 71.0085Z" fill="white" stroke="#003484" stroke-width="0.5616" stroke-miterlimit="10"/>
<path d="M66.4969 69.0571H63.6111C62.3708 69.0571 61.3516 68.0502 61.3516 66.7976V63.9119C61.3516 62.6716 62.3585 61.6523 63.6111 61.6523H66.4969C67.7371 61.6523 68.7564 62.6593 68.7564 63.9119V66.7976C68.7564 68.0502 67.7494 69.0571 66.4969 69.0571Z" fill="white" stroke="#003484" stroke-width="0.5616" stroke-miterlimit="10"/>
<path d="M67.6389 61.9453L62.5059 68.773" stroke="#003484" stroke-width="0.5616" stroke-miterlimit="10"/>
<path d="M65.9444 61.7119L61.499 67.6063" stroke="#003484" stroke-width="0.5616" stroke-miterlimit="10"/>
<path d="M68.6328 63.1611L64.1875 69.0555" stroke="#003484" stroke-width="0.5616" stroke-miterlimit="10"/>
<path d="M68.7563 65.3594L65.9688 69.0556" stroke="#003484" stroke-width="0.5616" stroke-miterlimit="10"/>
<path d="M64.1386 61.7129L61.3633 65.3846" stroke="#003484" stroke-width="0.5616" stroke-miterlimit="10"/>
<path d="M60.6995 232.612V239.379C60.6995 242.645 58.047 245.297 54.7805 245.297H39.6025" stroke="#003484" stroke-width="0.5616" stroke-miterlimit="10"/>
<path d="M66.3613 232.687V294.762" stroke="#003484" stroke-width="0.5616" stroke-miterlimit="10"/>
<path d="M38.8789 314.667C38.8789 303.676 49.7958 294.761 63.2546 294.761H69.37C82.8288 294.761 93.7456 303.676 93.7456 314.667" stroke="#003484" stroke-width="0.5616" stroke-miterlimit="10"/>
<path d="M125.415 233.632H36.2628C31.7929 233.632 28.1826 230.009 28.1826 225.552H127.527L125.415 233.632Z" fill="#FEC02F"/>
<path d="M38.3379 327.831C41.9731 327.831 44.92 324.884 44.92 321.249C44.92 317.614 41.9731 314.667 38.3379 314.667C34.7027 314.667 31.7559 317.614 31.7559 321.249C31.7559 324.884 34.7027 327.831 38.3379 327.831Z" fill="#FEC02F"/>
<path d="M34.9857 246.98H48.1989C49.2796 246.98 50.1514 246.108 50.1514 245.028V244.88C50.1514 243.8 49.2796 242.928 48.1989 242.928H34.9857C33.9051 242.928 33.0332 243.8 33.0332 244.88V245.028C33.0332 246.108 33.9051 246.98 34.9857 246.98Z" fill="#FEC02F"/>
<path d="M28.1829 225.797H91.4368L70.2785 166.509C68.8049 162.395 64.9122 159.645 60.5405 159.645H14.0364C9.41918 159.645 6.20183 164.213 7.7491 168.56L28.1829 225.797Z" stroke="#FEC02F" stroke-width="0.5616" stroke-miterlimit="10"/>
<path d="M31.3143 225.798H86.3039L65.8578 168.475C64.4333 164.496 60.6757 161.844 56.4514 161.844H9.37012" stroke="#FEC02F" stroke-width="0.5616" stroke-miterlimit="10"/>
<path d="M93.6348 327.831C97.2699 327.831 100.217 324.884 100.217 321.249C100.217 317.614 97.2699 314.667 93.6348 314.667C89.9996 314.667 87.0527 317.614 87.0527 321.249C87.0527 324.884 89.9996 327.831 93.6348 327.831Z" fill="#FEC02F"/>
</svg>
