<svg width="186" height="145" viewBox="0 0 186 145" fill="none" xmlns="http://www.w3.org/2000/svg">
<path d="M41.0054 133.419L14.4222 7.76333C14.2843 7.1053 14.2966 6.42466 14.458 5.77202C14.6195 5.11938 14.926 4.51152 15.3547 3.99365C15.7834 3.47578 16.3234 3.06121 16.9344 2.78077C17.5454 2.50033 18.2118 2.36124 18.884 2.37383H143.984C145.721 2.3798 147.4 2.99808 148.726 4.1199C150.052 5.24171 150.939 6.79517 151.233 8.50696L172.051 135.451C172.151 136.095 172.111 136.752 171.933 137.379C171.755 138.005 171.443 138.586 171.019 139.08C170.595 139.575 170.068 139.971 169.476 140.243C168.884 140.514 168.24 140.654 167.589 140.653L48.2539 139.151C46.5667 139.191 44.9184 138.641 43.5945 137.594C42.2706 136.547 41.3547 135.07 41.0054 133.419Z" fill="#FFECC1"/>
<path d="M38.2152 136.394L11.6321 10.7381C11.4934 10.0797 11.5052 9.39844 11.6665 8.74521C11.8279 8.09197 12.1347 7.4836 12.564 6.96548C12.9933 6.44735 13.534 6.03285 14.1459 5.75289C14.7578 5.47292 15.4249 5.33473 16.0977 5.34861H141.205C142.942 5.35309 144.622 5.97084 145.948 7.09291C147.275 8.21499 148.162 9.7693 148.454 11.4817L169.276 138.426C169.377 139.07 169.337 139.728 169.159 140.355C168.981 140.982 168.669 141.563 168.245 142.058C167.821 142.552 167.295 142.949 166.702 143.221C166.11 143.493 165.466 143.633 164.814 143.631L45.4789 142.129C43.7956 142.145 42.1576 141.585 40.8364 140.542C39.5152 139.498 38.5904 138.035 38.2152 136.394Z" fill="#FED36D"/>
<path d="M52.5287 126.358L30.4111 21.5205H133.762L151.046 127.47L52.5287 126.358Z" stroke="#3F3E4D" stroke-width="3.34637" stroke-linecap="round" stroke-linejoin="round"/>
<path d="M60.8926 21.5205L83.2017 126.726" stroke="#3F3E4D" stroke-width="3.34637" stroke-linecap="round" stroke-linejoin="round"/>
<path d="M35.9844 48.1001H137.476" stroke="#3F3E4D" stroke-width="3.34637" stroke-linecap="round" stroke-linejoin="round"/>
<path d="M41.3779 73.7515H141.938" stroke="#3F3E4D" stroke-width="3.34637" stroke-linecap="round" stroke-linejoin="round"/>
<path d="M47.5107 99.7754L146.771 101.075" stroke="#3F3E4D" stroke-width="3.34637" stroke-linecap="round" stroke-linejoin="round"/>
<path d="M78.7393 34.5303H118.332" stroke="#3F3E4D" stroke-width="3.34637" stroke-linecap="round" stroke-linejoin="round"/>
<path d="M83.9453 60.9258H123.535" stroke="#3F3E4D" stroke-width="3.34637" stroke-linecap="round" stroke-linejoin="round"/>
<path d="M89.8906 86.7656L129.484 87.3215" stroke="#3F3E4D" stroke-width="3.34637" stroke-linecap="round" stroke-linejoin="round"/>
<path d="M95.4678 112.229L133.574 113.161" stroke="#3F3E4D" stroke-width="3.34637" stroke-linecap="round" stroke-linejoin="round"/>
<path d="M41.1895 28.2095L57.5495 40.6635" stroke="#004ABC" stroke-width="3.34637" stroke-linecap="round" stroke-linejoin="round"/>
<path d="M53.0877 28.2095L44.7236 40.6635" stroke="#004ABC" stroke-width="3.34637" stroke-linecap="round" stroke-linejoin="round"/>
<path d="M51.6006 80.6284L67.9569 92.8984" stroke="#004ABC" stroke-width="3.34637" stroke-linecap="round" stroke-linejoin="round"/>
<path d="M63.4953 80.6284L54.9473 92.8984" stroke="#004ABC" stroke-width="3.34637" stroke-linecap="round" stroke-linejoin="round"/>
<path d="M57.5498 106.468L73.9061 118.922" stroke="#004ABC" stroke-width="3.34637" stroke-linecap="round" stroke-linejoin="round"/>
<path d="M69.4441 106.468L61.0801 118.922" stroke="#004ABC" stroke-width="3.34637" stroke-linecap="round" stroke-linejoin="round"/>
<path d="M47.5107 59.4383L53.088 65.1997L61.0803 54.7925" stroke="#FF8000" stroke-width="3.34637" stroke-linecap="round" stroke-linejoin="round"/>
</svg>
