<svg width="182" height="141" viewBox="0 0 182 141" fill="none" xmlns="http://www.w3.org/2000/svg">
<path d="M149.245 120.315L19.1409 139.829C18.4538 139.934 17.752 139.897 17.0802 139.72C16.4084 139.542 15.7812 139.229 15.2382 138.799C14.6952 138.369 14.2484 137.832 13.9261 137.222C13.6037 136.612 13.4129 135.942 13.3656 135.255L5.58626 19.2319C5.53293 18.4771 5.64386 17.7198 5.91156 17.0111C6.17926 16.3024 6.59748 15.6589 7.13797 15.1241C7.67845 14.5893 8.3286 14.1756 9.04446 13.9109C9.76032 13.6463 10.5252 13.537 11.2874 13.5903L141.621 21.8252C142.818 21.8968 143.95 22.3891 144.812 23.2137C145.675 24.0382 146.212 25.1406 146.326 26.3224L153.794 114.673C153.877 116.004 153.457 117.319 152.617 118.361C151.776 119.404 150.575 120.1 149.245 120.315Z" fill="#C4C3C8"/>
<path d="M152.786 120.161L22.0636 139.756C21.377 139.859 20.6762 139.821 20.0055 139.642C19.3347 139.464 18.7087 139.15 18.1669 138.719C17.6252 138.289 17.1795 137.752 16.858 137.143C16.5366 136.533 16.3464 135.864 16.2994 135.178L8.43858 18.6229C8.3854 17.8583 8.49833 17.0914 8.76975 16.3737C9.04118 15.656 9.4648 15.0042 10.0121 14.4623C10.5593 13.9204 11.2175 13.501 11.9423 13.2322C12.6671 12.9634 13.4417 12.8516 14.2138 12.9043L145.085 21.1392C146.292 21.2163 147.431 21.7209 148.293 22.5607C149.156 23.4005 149.684 24.5196 149.782 25.7134L157.328 114.446C157.477 115.797 157.085 117.153 156.236 118.221C155.387 119.29 154.148 119.986 152.786 120.161Z" fill="#3F3E4D"/>
<path d="M67.5615 80.2184L30.7651 82.1992C30.2069 82.2214 29.662 82.0267 29.2467 81.6566C28.8315 81.2866 28.5787 80.7704 28.5424 80.2184L26.3865 49.4061C26.372 49.1168 26.4163 48.8277 26.5166 48.5556C26.6169 48.2836 26.7712 48.0342 26.9705 47.8223C27.1697 47.6103 27.4098 47.44 27.6766 47.3214C27.9434 47.2028 28.2315 47.1383 28.5239 47.1318L65.324 47.3629C65.8721 47.3535 66.4027 47.5544 66.8046 47.9237C67.2065 48.2929 67.4485 48.8018 67.48 49.3437L69.6434 77.9295C69.6624 78.216 69.6233 78.5034 69.5283 78.7747C69.4333 79.046 69.2844 79.2957 69.0903 79.509C68.8962 79.7224 68.661 79.8951 68.3984 80.0169C68.1358 80.1388 67.8513 80.2073 67.5615 80.2184Z" fill="#4D80D0"/>
<path d="M107.133 68.3262L76.3381 69.3936C75.7792 69.4158 75.2338 69.2206 74.8184 68.8498C74.4031 68.4789 74.1507 67.9618 74.1154 67.4092L72.804 49.648C72.788 49.3564 72.8317 49.0645 72.9324 48.79C73.0332 48.5155 73.1889 48.264 73.3903 48.0506C73.5916 47.8371 73.8345 47.6662 74.1042 47.548C74.374 47.4298 74.6651 47.3668 74.96 47.3628L105.755 47.5902C106.297 47.6036 106.814 47.8123 107.211 48.177C107.608 48.5418 107.857 49.0374 107.911 49.571L109.211 66.0263C109.238 66.3147 109.205 66.6055 109.114 66.8806C109.022 67.1557 108.874 67.4091 108.679 67.625C108.484 67.8408 108.246 68.0145 107.98 68.1352C107.714 68.2558 107.426 68.3209 107.133 68.3262Z" fill="#FFA64D"/>
<path d="M142.007 67.1816L116.076 68.095C115.517 68.1181 114.972 67.9238 114.556 67.5535C114.141 67.1832 113.888 66.6665 113.853 66.1142L112.545 50.0294C112.529 49.7376 112.572 49.4456 112.673 49.1708C112.773 48.8961 112.929 48.6443 113.13 48.4308C113.332 48.2172 113.575 48.0463 113.845 47.9283C114.115 47.8103 114.406 47.7476 114.701 47.7441L140.633 47.8945C141.175 47.9081 141.693 48.1172 142.09 48.4827C142.487 48.8482 142.735 49.3448 142.789 49.879L144.018 64.8927C144.047 65.1755 144.017 65.4611 143.93 65.7319C143.843 66.0027 143.7 66.253 143.512 66.4674C143.324 66.6818 143.093 66.8558 142.834 66.9786C142.575 67.1014 142.294 67.1705 142.007 67.1816Z" fill="#FED36D"/>
<path d="M69.8731 110.099L33.073 114.079C32.783 114.113 32.4889 114.089 32.209 114.006C31.9291 113.924 31.6692 113.785 31.4456 113.599C31.2219 113.413 31.0392 113.183 30.9088 112.925C30.7784 112.666 30.703 112.383 30.6874 112.094L29.3019 92.1838C29.2773 91.622 29.4709 91.0721 29.8429 90.6471C30.2149 90.2221 30.7371 89.9543 31.3023 89.8986L68.1802 87.4593C68.4632 87.4388 68.7474 87.4739 69.0167 87.5624C69.286 87.6509 69.535 87.7912 69.7494 87.9753C69.9638 88.1593 70.1394 88.3834 70.2662 88.6348C70.3929 88.8861 70.4683 89.1598 70.488 89.4401L71.8661 107.814C71.8674 108.368 71.6666 108.905 71.3004 109.325C70.9343 109.745 70.4275 110.02 69.8731 110.099V110.099Z" stroke="#C4C3C8" stroke-width="1.81032" stroke-linecap="round" stroke-linejoin="round"/>
<path d="M110.596 109.336L79.879 112.92C79.5893 112.954 79.2956 112.929 79.0158 112.847C78.7361 112.765 78.4765 112.627 78.2529 112.441C78.0293 112.255 77.8465 112.026 77.7159 111.768C77.5852 111.509 77.5095 111.227 77.4934 110.939L75.0299 78.0833C74.9891 77.5172 75.1769 76.9582 75.5519 76.5291C75.927 76.0999 76.4587 75.8357 77.0303 75.7944L107.825 74.3455C108.384 74.3233 108.93 74.5185 109.345 74.8893C109.76 75.2602 110.013 75.7772 110.048 76.3299L112.512 107.051C112.545 107.601 112.366 108.144 112.01 108.568C111.654 108.992 111.149 109.267 110.596 109.336Z" fill="#FED36D"/>
<path d="M104.207 80.064L82.1135 81.3588C81.9885 81.3581 81.8649 81.3845 81.7513 81.4362C81.6377 81.4879 81.5369 81.5636 81.4561 81.6581C81.3752 81.7525 81.3162 81.8633 81.2832 81.9827C81.2503 82.1021 81.2441 82.2272 81.2652 82.3492L82.2691 95.9213C82.2737 96.0432 82.304 96.1629 82.358 96.2726C82.412 96.3822 82.4885 96.4795 82.5826 96.5583C82.6768 96.637 82.7865 96.6954 82.9047 96.7297C83.023 96.764 83.1472 96.7736 83.2693 96.7576L105.363 94.8539C105.486 94.8487 105.606 94.8184 105.717 94.7648C105.828 94.7112 105.926 94.6355 106.006 94.5425C106.085 94.4494 106.145 94.3411 106.18 94.2242C106.215 94.1074 106.226 93.9846 106.211 93.8635L105.207 80.904C105.158 80.674 105.033 80.4666 104.852 80.3146C104.671 80.1625 104.444 80.0743 104.207 80.064Z" fill="#4D80D0"/>
<path d="M145.085 101.791L119.154 104.611C118.864 104.646 118.57 104.622 118.289 104.54C118.009 104.457 117.749 104.319 117.525 104.133C117.302 103.947 117.119 103.717 116.989 103.458C116.858 103.199 116.783 102.916 116.768 102.627L114.69 76.1759C114.649 75.6102 114.837 75.0516 115.212 74.6231C115.587 74.1945 116.119 73.9311 116.69 73.8907L142.622 72.6692C143.18 72.647 143.726 72.8422 144.141 73.2131C144.557 73.5839 144.809 74.101 144.844 74.6536L146.923 99.5016C146.954 99.7715 146.932 100.045 146.857 100.306C146.782 100.568 146.655 100.812 146.485 101.024C146.314 101.237 146.102 101.414 145.862 101.546C145.622 101.677 145.358 101.76 145.085 101.791Z" fill="#FFA64D"/>
<path d="M51.0879 97.521L51.5509 103.163" stroke="#C4C3C8" stroke-width="1.81032" stroke-linecap="round" stroke-linejoin="round"/>
<path d="M48.625 100.569L54.015 100.114" stroke="#C4C3C8" stroke-width="1.81032" stroke-linecap="round" stroke-linejoin="round"/>
<path d="M87.9623 103.771C87.8104 102.245 86.6546 101.028 85.2691 101.182C83.8837 101.336 82.8057 102.704 82.9612 104.307C83.1168 105.91 84.3467 107.051 85.7322 106.897C87.0547 106.669 88.0401 105.297 87.9623 103.771Z" fill="#6C6B77"/>
<path d="M92.4297 103.313L106.825 101.868" stroke="#6C6B77" stroke-width="1.81032" stroke-linecap="round" stroke-linejoin="round"/>
<path d="M124.469 81.0657C124.314 79.6167 123.314 78.5493 122.084 78.5493C120.85 78.6263 120.006 79.8478 120.08 81.2968C120.235 82.742 121.236 83.8865 122.469 83.8094C123.762 83.7251 124.607 82.5036 124.469 81.0657Z" fill="#4D80D0"/>
<path d="M128.382 80.8269L140.777 80.064" stroke="#6C6B77" stroke-width="1.81032" stroke-linecap="round" stroke-linejoin="round"/>
<path d="M125.148 89.2123C124.993 87.7451 123.992 86.696 122.763 86.773C121.533 86.8501 120.684 88.1449 120.758 89.5938C120.914 91.0427 121.992 92.1835 123.148 92.0331C124.378 91.8791 125.304 90.6613 125.148 89.2123Z" fill="#4D80D0"/>
<path d="M128.997 88.9079L141.47 87.9175" stroke="#6C6B77" stroke-width="1.81032" stroke-linecap="round" stroke-linejoin="round"/>
<path d="M125.841 97.3667C125.685 95.9215 124.685 94.854 123.455 94.9274C122.225 95.0008 121.377 96.3029 121.451 97.7482C121.606 99.1971 122.684 100.265 123.84 100.187C125.07 100.037 125.918 98.8156 125.841 97.3667Z" fill="#4D80D0"/>
<path d="M129.689 96.9891L142.085 95.7676" stroke="#6C6B77" stroke-width="1.81032" stroke-linecap="round" stroke-linejoin="round"/>
<path d="M39.2337 59.4823L34.229 59.5593C34.0001 59.5478 33.7823 59.4577 33.6133 59.3043C33.4443 59.151 33.3345 58.9441 33.3029 58.7193L32.9325 53.5362C32.9272 53.4149 32.9475 53.2938 32.992 53.1807C33.0365 53.0675 33.1042 52.9647 33.191 52.8788C33.2777 52.793 33.3815 52.7259 33.4958 52.6818C33.61 52.6378 33.7323 52.6177 33.8549 52.6229H38.8596C39.0873 52.635 39.3038 52.725 39.472 52.8776C39.6402 53.0301 39.7497 53.2356 39.782 53.4592L40.1524 58.5689C40.1232 58.8004 40.0171 59.0158 39.8508 59.1811C39.6845 59.3464 39.4674 59.4524 39.2337 59.4823Z" fill="#FFA64D"/>
<path d="M44.6201 52.6229L61.9422 52.5459" stroke="#6C6B77" stroke-width="1.81032" stroke-linecap="round" stroke-linejoin="round"/>
<path d="M44.9316 57.0432L62.25 56.8892" stroke="#6C6B77" stroke-width="1.81032" stroke-linecap="round" stroke-linejoin="round"/>
<path d="M122.299 58.2607L118.373 58.3378C118.249 58.3207 118.132 58.2688 118.037 58.1881C117.942 58.1075 117.872 58.0016 117.835 57.8829L117.465 52.9273C117.463 52.8567 117.476 52.7865 117.502 52.7208C117.528 52.6552 117.567 52.5955 117.618 52.5454C117.668 52.4953 117.728 52.4559 117.794 52.4295C117.86 52.403 117.931 52.3902 118.002 52.3917H121.929C122.053 52.4102 122.17 52.4629 122.266 52.544C122.362 52.6251 122.432 52.7312 122.47 52.8502L122.84 57.7289C122.831 57.8674 122.77 57.9978 122.671 58.0956C122.571 58.1935 122.439 58.2522 122.299 58.2607Z" fill="#6C6B77"/>
<path d="M125.996 52.3184H138.851" stroke="#6C6B77" stroke-width="1.81032" stroke-linecap="round" stroke-linejoin="round"/>
<path d="M126.378 56.2031L139.158 56.0527" stroke="#6C6B77" stroke-width="1.81032" stroke-linecap="round" stroke-linejoin="round"/>
<path d="M118.221 62.5304L139.621 61.9985" stroke="#6C6B77" stroke-width="1.81032" stroke-linecap="round" stroke-linejoin="round"/>
<path d="M40.0784 71.2973L35.0737 71.4513C34.8416 71.4512 34.6181 71.3648 34.4472 71.2093C34.2764 71.0537 34.1708 70.8403 34.1513 70.6113L33.7809 65.4283C33.7739 65.3126 33.7905 65.1968 33.8297 65.0877C33.8689 64.9786 33.9299 64.8784 34.0091 64.7931C34.0883 64.7079 34.184 64.6393 34.2905 64.5915C34.3971 64.5437 34.5122 64.5177 34.6292 64.5149L39.6339 64.3608C39.8622 64.3732 40.0791 64.4637 40.2473 64.6169C40.4156 64.7702 40.5249 64.9766 40.5563 65.2008L40.9268 70.3069C40.9414 70.5484 40.8614 70.7862 40.7034 70.9707C40.5453 71.1552 40.3215 71.2722 40.0784 71.2973Z" fill="#FFA64D"/>
<path d="M45.4688 64.284L62.7908 63.8291" stroke="#6C6B77" stroke-width="1.81032" stroke-linecap="round" stroke-linejoin="round"/>
<path d="M45.7764 68.7809L63.0984 68.249" stroke="#6C6B77" stroke-width="1.81032" stroke-linecap="round" stroke-linejoin="round"/>
<path d="M52.7034 34.4032L26.7722 33.6403C26.3598 33.6295 25.9662 33.4674 25.6677 33.1854C25.3693 32.9035 25.1873 32.5217 25.1571 32.1143L24.8496 28.0794C24.83 27.8508 24.8597 27.6207 24.9368 27.4043C25.0138 27.188 25.1365 26.9903 25.2966 26.8245C25.4567 26.6587 25.6506 26.5284 25.8654 26.4425C26.0802 26.3566 26.3111 26.3168 26.5426 26.326L52.4738 27.3934C52.8847 27.4058 53.2764 27.568 53.5739 27.849C53.8713 28.13 54.0534 28.5099 54.0852 28.9157L54.4001 32.6462C54.4128 32.8737 54.3782 33.1014 54.2984 33.3152C54.2186 33.5289 54.0954 33.7242 53.9364 33.8889C53.7774 34.0536 53.5859 34.1842 53.3738 34.2727C53.1617 34.3612 52.9336 34.4056 52.7034 34.4032Z" fill="#4D80D0"/>
<path d="M78.957 52.4686L103.44 52.3916" stroke="#6C6B77" stroke-width="1.81032" stroke-linecap="round" stroke-linejoin="round"/>
<path d="M79.2646 56.7385L103.747 56.4341" stroke="#6C6B77" stroke-width="1.81032" stroke-linecap="round" stroke-linejoin="round"/>
<path d="M79.7275 63.4475L92.8895 63.1431" stroke="#6C6B77" stroke-width="1.81032" stroke-linecap="round" stroke-linejoin="round"/>
<path d="M141.236 34.0221C141.162 32.8776 140.313 31.8872 139.313 31.8212C138.387 31.7479 137.62 32.7382 137.772 33.879C137.85 35.1005 138.698 36.0799 139.699 36.0799C140.621 36.157 141.314 35.1666 141.236 34.0221Z" fill="#C4C3C8"/>
<path d="M134.386 33.7944C134.308 32.573 133.386 31.5936 132.46 31.5936C131.46 31.5165 130.767 32.5069 130.845 33.7284C130.923 34.9499 131.845 35.9293 132.845 35.9293C133.768 35.9256 134.471 34.9352 134.386 33.7944Z" fill="#C4C3C8"/>
<path d="M127.304 33.486C127.226 32.2682 126.303 31.2852 125.303 31.2008C124.303 31.1164 123.532 32.1142 123.606 33.3356C123.681 34.5571 124.607 35.5365 125.611 35.6209C126.692 35.6979 127.381 34.7075 127.304 33.486Z" fill="#C4C3C8"/>
<path d="M172.495 44.0175L138.314 43.4086C137.645 43.4098 137.002 43.1578 136.515 42.7043C136.028 42.2507 135.734 41.63 135.695 40.9693L132.62 3.66801C132.602 3.37438 132.647 3.08035 132.753 2.80533C132.858 2.53031 133.021 2.28055 133.231 2.07255C133.441 1.86455 133.694 1.70303 133.971 1.59867C134.249 1.49431 134.546 1.44948 134.843 1.46713L169.179 5.05089C169.805 5.1099 170.389 5.38794 170.826 5.83505C171.264 6.28216 171.525 6.86903 171.565 7.4902L174.569 41.7176C174.603 42.0069 174.574 42.3 174.485 42.5775C174.396 42.8551 174.249 43.1108 174.053 43.328C173.857 43.5452 173.617 43.7189 173.348 43.8377C173.08 43.9566 172.789 44.0178 172.495 44.0175Z" fill="#FFD9B3"/>
<path d="M174.339 43.3976L140.158 42.7887C139.49 42.7898 138.847 42.5377 138.36 42.0841C137.874 41.6305 137.581 41.0098 137.543 40.3494L134.472 3.07377C134.454 2.78014 134.499 2.48611 134.604 2.21109C134.71 1.93607 134.873 1.68631 135.083 1.47831C135.293 1.27031 135.545 1.1088 135.823 1.00443C136.101 0.900074 136.398 0.855238 136.694 0.872888L171.031 4.45666C171.657 4.51494 172.241 4.79275 172.679 5.24C173.116 5.68726 173.378 6.27454 173.417 6.89597L176.417 41.1233C176.44 41.4096 176.403 41.6975 176.31 41.9693C176.216 42.2411 176.068 42.4911 175.873 42.704C175.679 42.9169 175.442 43.0883 175.178 43.2075C174.914 43.3268 174.629 43.3915 174.339 43.3976Z" fill="#FFA64D"/>
<path d="M149.396 7.79834L167.489 9.47468" stroke="#C4C3C8" stroke-width="1.81032" stroke-linecap="round" stroke-linejoin="round"/>
<path d="M149.704 11.459L167.797 12.9813" stroke="#C4C3C8" stroke-width="1.81032" stroke-linecap="round" stroke-linejoin="round"/>
<path d="M150.397 19.8447L168.568 21.0625" stroke="#C4C3C8" stroke-width="1.81032" stroke-linecap="round" stroke-linejoin="round"/>
<path d="M150.705 23.4248L168.798 24.4922" stroke="#C4C3C8" stroke-width="1.81032" stroke-linecap="round" stroke-linejoin="round"/>
<path d="M151.476 31.8872L169.568 32.6502" stroke="#C4C3C8" stroke-width="1.81032" stroke-linecap="round" stroke-linejoin="round"/>
<path d="M151.782 35.4707L169.875 36.0796" stroke="#C4C3C8" stroke-width="1.81032" stroke-linecap="round" stroke-linejoin="round"/>
<path d="M143.162 9.85598L144.085 11.0004L145.396 9.24707" stroke="#4D80D0" stroke-width="1.81032" stroke-linecap="round" stroke-linejoin="round"/>
<path d="M144.162 22.0526L145.085 23.1201L146.47 21.3667" stroke="#4D80D0" stroke-width="1.81032" stroke-linecap="round" stroke-linejoin="round"/>
<path d="M145.163 34.0218L146.163 35.0892L147.475 33.2588" stroke="#4D80D0" stroke-width="1.81032" stroke-linecap="round" stroke-linejoin="round"/>
</svg>
