<svg width="576" height="319" viewBox="0 0 576 319" fill="none" xmlns="http://www.w3.org/2000/svg">
<ellipse cx="72.1245" cy="72.9263" rx="72.4263" ry="72.1245" transform="rotate(90 72.1245 72.9263)" fill="#FEC02F"/>
<path d="M103.18 72.5428C103.18 89.3479 89.464 102.999 72.5104 102.999C55.5568 102.999 41.8408 89.3479 41.8408 72.5428C41.8408 55.7377 55.5568 42.0869 72.5104 42.0869C89.464 42.0869 103.18 55.7377 103.18 72.5428Z" stroke="#8B6339" stroke-width="5"/>
<ellipse cx="312.347" cy="105.499" rx="72.4263" ry="72.5102" transform="rotate(90 312.347 105.499)" fill="#FF8000"/>
<mask id="mask0_893_12208" style="mask-type:alpha" maskUnits="userSpaceOnUse" x="239" y="33" width="146" height="145">
<ellipse cx="312.347" cy="105.499" rx="72.4263" ry="72.5103" transform="rotate(90 312.347 105.499)" fill="#FF8000"/>
</mask>
<g mask="url(#mask0_893_12208)">
<g style="mix-blend-mode:darken">
<path d="M388.324 149.254L312.152 73.5732L235.981 149.254" stroke="#844300" stroke-width="5" stroke-linecap="round"/>
<path d="M388.324 112.752L312.152 37.0713L235.981 112.752" stroke="#844300" stroke-width="5" stroke-linecap="round"/>
<path d="M388.324 76.2511L312.152 0.570312L235.981 76.2511" stroke="#844300" stroke-width="5" stroke-linecap="round"/>
<path d="M388.485 185.755L312.313 110.074L236.142 185.755" stroke="#844300" stroke-width="5" stroke-linecap="round"/>
<path d="M388.485 222.257L312.313 146.576L236.142 222.257" stroke="#844300" stroke-width="5" stroke-linecap="round"/>
</g>
</g>
<ellipse cx="193.292" cy="246.074" rx="72.4263" ry="72.5102" transform="rotate(90 193.292 246.074)" fill="#004ABC"/>
<mask id="mask1_893_12208" style="mask-type:alpha" maskUnits="userSpaceOnUse" x="120" y="173" width="146" height="146">
<g style="mix-blend-mode:multiply">
<ellipse cx="193.292" cy="246.074" rx="72.4263" ry="72.5103" transform="rotate(90 193.292 246.074)" fill="#004ABC"/>
</g>
</mask>
<g mask="url(#mask1_893_12208)">
<path d="M106.125 174.414C106.125 174.414 126.181 136.093 153.951 136.093C181.721 136.093 197.149 174.414 220.29 174.414C243.432 174.414 258.088 136.093 280.458 136.093" stroke="#073173" stroke-width="5" stroke-linecap="round"/>
<path d="M106.125 296.838C106.125 296.838 126.181 258.518 153.951 258.518C181.721 258.518 197.148 296.838 220.29 296.838C243.432 296.838 258.088 258.518 280.458 258.518" stroke="#073173" stroke-width="5" stroke-linecap="round"/>
<path d="M106.125 205.02C106.125 205.02 126.181 166.699 153.951 166.699C181.721 166.699 197.148 205.02 220.29 205.02C243.432 205.02 258.088 166.699 280.458 166.699" stroke="#073173" stroke-width="5" stroke-linecap="round"/>
<path d="M106.125 327.445C106.125 327.445 126.181 289.124 153.951 289.124C181.721 289.124 197.148 327.445 220.29 327.445C243.432 327.445 258.088 289.124 280.458 289.124" stroke="#073173" stroke-width="5" stroke-linecap="round"/>
<path d="M106.125 235.626C106.125 235.626 126.181 197.306 153.951 197.306C181.721 197.306 197.148 235.626 220.29 235.626C243.432 235.626 258.088 197.306 280.458 197.306" stroke="#073173" stroke-width="5" stroke-linecap="round"/>
<path d="M106.125 358.051C106.125 358.051 126.181 319.73 153.951 319.73C181.721 319.73 197.148 358.051 220.29 358.051C243.432 358.051 258.088 319.73 280.458 319.73" stroke="#073173" stroke-width="5" stroke-linecap="round"/>
<path d="M106.125 266.233C106.125 266.233 126.181 227.912 153.951 227.912C181.721 227.912 197.148 266.233 220.29 266.233C243.432 266.233 258.088 227.912 280.458 227.912" stroke="#073173" stroke-width="5" stroke-linecap="round"/>
</g>
<ellipse cx="456.9" cy="198.073" rx="72.4263" ry="72.1245" transform="rotate(90 456.9 198.073)" fill="#007B52"/>
<g style="mix-blend-mode:multiply">
<mask id="mask2_893_12208" style="mask-type:alpha" maskUnits="userSpaceOnUse" x="384" y="125" width="146" height="146">
<g style="mix-blend-mode:multiply">
<ellipse cx="456.9" cy="198.073" rx="72.4263" ry="72.1245" transform="rotate(90 456.9 198.073)" fill="#00856D"/>
</g>
</mask>
<g mask="url(#mask2_893_12208)">
<line y1="-2.5" x2="219.138" y2="-2.5" transform="matrix(-0.709388 0.704818 -0.709388 -0.704818 481.289 63.5664)" stroke="#00856D" stroke-width="5"/>
<line y1="-2.5" x2="219.138" y2="-2.5" transform="matrix(-0.709388 0.704818 -0.709388 -0.704818 557.862 128.599)" stroke="#00856D" stroke-width="5"/>
<line y1="-2.5" x2="219.138" y2="-2.5" transform="matrix(-0.709389 0.704818 -0.709389 -0.704818 500.433 79.8242)" stroke="#00856D" stroke-width="5"/>
<line y1="-2.5" x2="219.138" y2="-2.5" transform="matrix(-0.709388 0.704818 -0.709388 -0.704818 577.006 144.857)" stroke="#00856D" stroke-width="5"/>
<line y1="-2.5" x2="219.138" y2="-2.5" transform="matrix(-0.709388 0.704818 -0.709388 -0.704818 519.575 96.083)" stroke="#00856D" stroke-width="5"/>
<line y1="-2.5" x2="219.138" y2="-2.5" transform="matrix(-0.709388 0.704818 -0.709388 -0.704818 596.149 161.115)" stroke="#00856D" stroke-width="5"/>
<line y1="-2.5" x2="219.138" y2="-2.5" transform="matrix(-0.709389 0.704818 -0.709388 -0.704818 538.719 112.341)" stroke="#00856D" stroke-width="5"/>
<line y1="-2.5" x2="219.138" y2="-2.5" transform="matrix(-0.709388 0.704818 -0.709388 -0.704818 615.293 177.373)" stroke="#00856D" stroke-width="5"/>
</g>
</g>
<path fill-rule="evenodd" clip-rule="evenodd" d="M384.856 92.2926C386.328 92.1786 387.794 92.0685 389.255 91.9625C390.443 91.8762 391.336 90.8495 391.249 89.6691C391.163 88.4888 390.129 87.6018 388.941 87.688C387.552 87.7888 386.159 87.8932 384.76 88.0012C384.825 89.2538 384.857 90.5149 384.857 91.7836C384.857 91.9534 384.857 92.1231 384.856 92.2926ZM238.402 114.166C239.565 113.912 240.302 112.769 240.046 111.613C239.791 110.457 238.64 109.726 237.477 109.979C235.801 110.345 234.13 110.713 232.466 111.085C231.304 111.344 230.573 112.49 230.834 113.645C231.095 114.8 232.248 115.526 233.411 115.267C235.069 114.897 236.732 114.53 238.402 114.166ZM223.511 117.524C224.67 117.253 225.39 116.1 225.118 114.948C224.846 113.796 223.686 113.081 222.526 113.351C220.856 113.74 219.193 114.132 217.535 114.527C216.377 114.802 215.663 115.959 215.941 117.11C216.218 118.261 217.382 118.97 218.541 118.694C220.191 118.301 221.848 117.911 223.511 117.524ZM208.669 121.096C209.825 120.809 210.527 119.645 210.238 118.497C209.949 117.349 208.778 116.651 207.622 116.938C205.961 117.351 204.306 117.767 202.659 118.185C201.505 118.478 200.808 119.645 201.103 120.792C201.398 121.938 202.573 122.63 203.727 122.337C205.367 121.921 207.015 121.507 208.669 121.096ZM193.886 124.889C195.037 124.585 195.721 123.41 195.414 122.267C195.107 121.123 193.925 120.443 192.774 120.748C191.123 121.185 189.48 121.625 187.844 122.068C186.694 122.379 186.016 123.557 186.329 124.698C186.642 125.84 187.827 126.514 188.977 126.203C190.605 125.763 192.242 125.325 193.886 124.889ZM179.17 128.913C180.316 128.589 180.981 127.404 180.655 126.266C180.33 125.127 179.137 124.467 177.991 124.79C176.353 125.252 174.722 125.717 173.101 126.185C171.957 126.514 171.298 127.703 171.63 128.84C171.962 129.976 173.158 130.63 174.302 130.301C175.916 129.836 177.539 129.373 179.17 128.913ZM399.156 87.0055C397.967 87.078 397.062 88.0944 397.135 89.2756C397.208 90.4569 398.231 91.3558 399.42 91.2833C401.113 91.1801 402.799 91.0824 404.475 90.9902C405.665 90.9248 406.576 89.9138 406.51 88.7322C406.444 87.5505 405.426 86.6455 404.237 86.7109C402.552 86.8036 400.858 86.9018 399.156 87.0055ZM164.535 133.177C165.675 132.834 166.319 131.638 165.974 130.505C165.629 129.372 164.425 128.732 163.285 129.075C161.653 129.566 160.03 130.059 158.418 130.554C157.28 130.904 156.643 132.104 156.995 133.235C157.347 134.366 158.554 134.999 159.692 134.649C161.297 134.156 162.911 133.665 164.535 133.177ZM149.997 137.694C151.131 137.33 151.753 136.122 151.387 134.996C151.02 133.87 149.805 133.252 148.671 133.616C147.033 134.142 145.406 134.67 143.789 135.2C142.658 135.572 142.044 136.784 142.418 137.907C142.792 139.031 144.012 139.641 145.143 139.27C146.75 138.742 148.368 138.217 149.997 137.694ZM414.447 86.2128C413.257 86.2634 412.333 87.2629 412.384 88.4453C412.435 89.6277 413.441 90.5453 414.631 90.4947C416.342 90.422 418.043 90.3553 419.734 90.2945C420.925 90.2517 421.855 89.2582 421.812 88.0755C421.769 86.8928 420.769 85.9687 419.578 86.0115C417.877 86.0726 416.167 86.1397 414.447 86.2128ZM429.787 85.7133C428.596 85.7399 427.652 86.7206 427.679 87.9038C427.706 89.087 428.693 90.0246 429.884 89.9981C431.594 89.9599 433.293 89.9281 434.98 89.9025C436.171 89.8845 437.122 88.9106 437.104 87.7273C437.086 86.5439 436.106 85.5992 434.915 85.6172C433.216 85.6429 431.507 85.6749 429.787 85.7133ZM135.523 142.499C136.649 142.113 137.246 140.893 136.857 139.774C136.468 138.655 135.24 138.062 134.114 138.449C132.488 139.007 130.874 139.568 129.273 140.131C128.15 140.525 127.561 141.75 127.959 142.865C128.356 143.981 129.588 144.566 130.711 144.171C132.303 143.612 133.907 143.054 135.523 142.499ZM445.146 85.5391C443.955 85.539 442.989 86.4984 442.989 87.6819C442.989 88.8654 443.955 89.8248 445.146 89.8249C446.839 89.825 448.52 89.8317 450.188 89.8451C451.379 89.8547 452.353 88.9031 452.362 87.7196C452.372 86.5361 451.414 85.569 450.223 85.5594C448.543 85.5459 446.851 85.5391 445.146 85.5391ZM121.153 147.611C122.27 147.199 122.84 145.966 122.425 144.857C122.011 143.747 120.77 143.181 119.653 143.593C118.055 144.182 116.47 144.773 114.9 145.367C113.787 145.787 113.227 147.025 113.65 148.131C114.074 149.237 115.32 149.793 116.433 149.373C117.992 148.784 119.566 148.196 121.153 147.611ZM460.466 85.7286C459.275 85.6985 458.285 86.6332 458.255 87.8164C458.224 88.9995 459.165 89.983 460.356 90.0131C462.071 90.0564 463.771 90.1072 465.456 90.1654C466.646 90.2066 467.645 89.2811 467.686 88.0983C467.728 86.9155 466.796 85.9233 465.606 85.8822C463.908 85.8235 462.194 85.7723 460.466 85.7286ZM106.959 153.044C108.065 152.604 108.603 151.357 108.16 150.258C107.717 149.159 106.462 148.625 105.356 149.065C103.751 149.703 102.162 150.343 100.591 150.985C99.4889 151.435 98.9629 152.687 99.4158 153.782C99.8687 154.877 101.129 155.399 102.231 154.949C103.79 154.312 105.366 153.677 106.959 153.044ZM475.834 86.3365C474.644 86.2715 473.627 87.1768 473.562 88.3585C473.496 89.5402 474.408 90.5509 475.597 90.6159C477.297 90.7088 478.98 90.8098 480.644 90.9189C481.833 90.9969 482.86 90.1027 482.939 88.9218C483.017 87.7409 482.117 86.7204 480.928 86.6424C479.248 86.5322 477.55 86.4302 475.834 86.3365ZM92.8805 158.876C93.9729 158.404 94.4733 157.142 93.9983 156.056C93.5233 154.971 92.2527 154.474 91.1603 154.946C89.5845 155.626 88.0279 156.309 86.4909 156.993C85.4038 157.477 84.9173 158.745 85.4042 159.825C85.8912 160.905 87.1672 161.388 88.2543 160.904C89.7767 160.227 91.3189 159.551 92.8805 158.876ZM491.14 87.4327C489.953 87.3262 488.905 88.1953 488.797 89.374C488.69 90.5527 489.565 91.5946 490.751 91.7011C492.465 91.8549 494.156 92.0181 495.825 92.1906C497.01 92.313 498.07 91.458 498.193 90.2809C498.316 89.1037 497.456 88.0502 496.271 87.9277C494.582 87.7532 492.872 87.5882 491.14 87.4327ZM79.0522 165.13C80.1272 164.621 80.5827 163.342 80.0695 162.273C79.5564 161.205 78.269 160.753 77.194 161.263C75.6243 162.007 74.0782 162.753 72.5562 163.5C71.4883 164.024 71.0503 165.31 71.5779 166.371C72.1056 167.432 73.399 167.867 74.467 167.343C75.9711 166.604 77.4996 165.867 79.0522 165.13ZM506.462 89.1324C505.282 88.9743 504.196 89.7969 504.036 90.9698C503.877 92.1427 504.705 93.2217 505.886 93.3798C507.572 93.6057 509.23 93.8422 510.861 94.0891C512.039 94.2674 513.139 93.4635 513.319 92.2935C513.498 91.1235 512.689 90.0305 511.511 89.8522C509.855 89.6014 508.172 89.3615 506.462 89.1324ZM65.4505 171.934C66.5019 171.378 66.9004 170.08 66.3406 169.036C65.7807 167.991 64.4746 167.595 63.4231 168.152C61.9004 168.957 60.4062 169.764 58.9412 170.571C57.8996 171.145 57.5236 172.45 58.1014 173.485C58.6793 174.52 59.9921 174.893 61.0337 174.319C62.4764 173.524 63.9488 172.729 65.4505 171.934ZM52.2667 179.375C53.2842 178.76 53.6068 177.442 52.9873 176.431C52.3679 175.42 51.0409 175.099 50.0235 175.715C48.5443 176.609 47.102 177.505 45.6974 178.4C44.6948 179.039 44.4036 180.365 45.0469 181.361C45.6902 182.357 47.0244 182.647 48.0269 182.007C49.4019 181.131 50.8154 180.253 52.2667 179.375ZM521.673 91.5928C520.504 91.3674 519.372 92.1265 519.145 93.2883C518.918 94.4502 519.682 95.5748 520.851 95.8002C522.519 96.1218 524.152 96.4559 525.748 96.8026C526.911 97.0554 528.061 96.3231 528.315 95.1669C528.57 94.0107 527.833 92.8685 526.669 92.6157C525.039 92.2615 523.373 91.9206 521.673 91.5928ZM39.6667 187.67C40.6299 186.973 40.8428 185.633 40.142 184.676C39.4413 183.719 38.0924 183.508 37.1291 184.204C35.7099 185.23 34.3418 186.255 33.0261 187.28C32.0887 188.01 31.9246 189.357 32.6596 190.289C33.3946 191.22 34.7503 191.383 35.6877 190.653C36.9604 189.661 38.287 188.667 39.6667 187.67ZM536.734 95.0959C535.587 94.776 534.396 95.4404 534.075 96.5799C533.753 97.7193 534.421 98.9023 535.568 99.2222C537.211 99.6803 538.803 100.154 540.343 100.644C541.478 101.005 542.692 100.383 543.055 99.2563C543.418 98.1291 542.792 96.9229 541.658 96.5622C540.065 96.0559 538.424 95.5671 536.734 95.0959ZM28.0903 197.136C28.9532 196.32 28.9871 194.964 28.1659 194.107C27.3447 193.249 25.9795 193.216 25.1166 194.032C23.8082 195.269 22.5793 196.505 21.4328 197.74C20.6251 198.61 20.6801 199.966 21.5557 200.768C22.4313 201.571 23.7958 201.516 24.6034 200.646C25.6816 199.485 26.8443 198.314 28.0903 197.136ZM551.437 100.159C550.342 99.692 549.074 100.195 548.604 101.283C548.135 102.37 548.641 103.631 549.736 104.097C551.316 104.771 552.816 105.467 554.234 106.183C555.295 106.719 556.594 106.299 557.134 105.244C557.674 104.189 557.251 102.899 556.189 102.363C554.682 101.601 553.097 100.866 551.437 100.159ZM18.6324 208.319C19.2581 207.312 18.9435 205.992 17.9299 205.37C16.9163 204.749 15.5874 205.061 14.9617 206.068C13.9789 207.65 13.1398 209.234 12.4541 210.817C11.9832 211.904 12.4885 213.165 13.5826 213.632C14.6768 214.1 15.9455 213.598 16.4164 212.511C17.0102 211.14 17.7484 209.742 18.6324 208.319ZM565.172 107.935C564.232 107.207 562.877 107.373 562.144 108.306C561.412 109.239 561.579 110.586 562.518 111.314C563.845 112.342 565.026 113.398 566.063 114.478C566.885 115.334 568.25 115.367 569.112 114.55C569.974 113.733 570.007 112.377 569.185 111.52C567.988 110.273 566.647 109.078 565.172 107.935ZM14.5843 221.403C14.5356 220.221 13.5313 219.301 12.3411 219.35C11.1509 219.398 10.2256 220.396 10.2743 221.578C10.3131 222.52 10.4158 223.456 10.5836 224.385C10.7514 225.314 10.9828 226.227 11.2761 227.123C11.6444 228.249 12.8613 228.864 13.9941 228.498C15.1269 228.133 15.7467 226.923 15.3784 225.798C15.1453 225.086 14.9621 224.362 14.8294 223.628C14.6966 222.893 14.6151 222.152 14.5843 221.403ZM574.996 120.856C574.628 119.731 573.411 119.115 572.278 119.481C571.145 119.847 570.525 121.056 570.894 122.182C571.127 122.894 571.31 123.617 571.443 124.352C571.575 125.087 571.657 125.828 571.688 126.576C571.736 127.759 572.741 128.678 573.931 128.63C575.121 128.581 576.046 127.584 575.998 126.401C575.959 125.459 575.856 124.523 575.688 123.595C575.521 122.666 575.289 121.753 574.996 120.856ZM20.2089 233.502C19.3868 232.645 18.0216 232.613 17.1595 233.43C16.2975 234.246 16.265 235.603 17.0871 236.459C18.2841 237.707 19.6252 238.901 21.1005 240.045C22.0397 240.773 23.395 240.607 24.1277 239.674C24.8605 238.741 24.6931 237.394 23.754 236.666C22.427 235.637 21.2455 234.582 20.2089 233.502ZM573.818 137.163C574.289 136.075 573.784 134.815 572.689 134.347C571.595 133.879 570.326 134.381 569.856 135.468C569.262 136.839 568.524 138.237 567.64 139.66C567.014 140.667 567.328 141.988 568.342 142.609C569.356 143.231 570.685 142.918 571.31 141.911C572.293 140.329 573.132 138.746 573.818 137.163ZM32.0384 241.797C30.9767 241.26 29.6782 241.68 29.1382 242.735C28.5983 243.79 29.0213 245.08 30.083 245.617C31.5903 246.379 33.1753 247.113 34.8351 247.821C35.9297 248.287 37.1979 247.784 37.6677 246.697C38.1375 245.609 37.6309 244.349 36.5363 243.882C34.9556 243.208 33.4558 242.513 32.0384 241.797ZM564.839 150.239C565.647 149.37 565.592 148.014 564.716 147.211C563.841 146.409 562.476 146.464 561.669 147.334C560.59 148.495 559.428 149.665 558.182 150.843C557.319 151.659 557.285 153.016 558.106 153.873C558.927 154.73 560.292 154.764 561.155 153.948C562.464 152.711 563.693 151.474 564.839 150.239ZM45.9289 247.335C44.7944 246.975 43.5804 247.596 43.2174 248.723C42.8543 249.85 43.4797 251.057 44.6142 251.417C46.2066 251.924 47.8483 252.412 49.538 252.884C50.6848 253.204 51.8755 252.539 52.1975 251.4C52.5194 250.26 51.8507 249.077 50.7038 248.757C49.0612 248.299 47.4692 247.825 45.9289 247.335ZM553.246 160.699C554.183 159.969 554.347 158.622 553.612 157.691C552.877 156.759 551.522 156.596 550.584 157.327C549.312 158.318 547.985 159.313 546.605 160.31C545.642 161.006 545.429 162.346 546.13 163.303C546.831 164.26 548.18 164.472 549.143 163.776C550.562 162.75 551.93 161.724 553.246 160.699ZM60.5243 251.177C59.3606 250.924 58.211 251.656 57.9566 252.813C57.7022 253.969 58.4393 255.111 59.603 255.364C61.2334 255.718 62.8991 256.059 64.5991 256.387C65.7685 256.612 66.9004 255.853 67.1272 254.691C67.3541 253.529 66.5901 252.405 65.4208 252.179C63.7527 251.858 62.1203 251.524 60.5243 251.177ZM540.575 169.579C541.577 168.94 541.868 167.614 541.225 166.618C540.582 165.622 539.248 165.333 538.245 165.972C536.87 166.849 535.457 167.726 534.005 168.604C532.988 169.22 532.665 170.538 533.285 171.549C533.904 172.56 535.231 172.88 536.249 172.265C537.728 171.37 539.17 170.475 540.575 169.579ZM75.4105 253.89C74.2329 253.712 73.1329 254.516 72.9534 255.686C72.7739 256.856 73.5831 257.949 74.7607 258.127C76.4168 258.378 78.1001 258.618 79.8098 258.847C80.9903 259.005 82.0763 258.183 82.2355 257.01C82.3947 255.837 81.5668 254.758 80.3863 254.6C78.7003 254.374 77.0415 254.137 75.4105 253.89ZM527.331 177.408C528.372 176.834 528.748 175.53 528.171 174.495C527.593 173.46 526.28 173.086 525.238 173.661C523.796 174.456 522.323 175.251 520.822 176.045C519.77 176.601 519.372 177.899 519.931 178.944C520.491 179.988 521.797 180.384 522.849 179.828C524.372 179.022 525.866 178.216 527.331 177.408ZM90.4472 255.789C89.2625 255.667 88.2021 256.522 88.0789 257.699C87.9556 258.876 88.8161 259.929 90.0009 260.052C91.6895 260.226 93.4001 260.391 95.1324 260.547C96.3188 260.653 97.3674 259.784 97.4746 258.605C97.5818 257.427 96.707 256.385 95.5206 256.278C93.8072 256.125 92.1159 255.961 90.4472 255.789ZM513.716 184.479C514.784 183.955 515.222 182.67 514.694 181.609C514.166 180.548 512.873 180.113 511.805 180.637C510.301 181.375 508.772 182.113 507.22 182.849C506.145 183.359 505.689 184.638 506.202 185.706C506.716 186.774 508.003 187.227 509.078 186.717C510.648 185.972 512.194 185.226 513.716 184.479ZM105.628 257.061C104.439 256.983 103.412 257.877 103.333 259.058C103.255 260.239 104.155 261.259 105.344 261.337C107.024 261.447 108.722 261.549 110.438 261.643C111.628 261.708 112.645 260.803 112.71 259.621C112.776 258.439 111.864 257.429 110.675 257.364C108.975 257.271 107.292 257.17 105.628 257.061ZM499.781 190.986C500.868 190.503 501.355 189.235 500.868 188.155C500.381 187.075 499.105 186.591 498.018 187.075C496.495 187.753 494.953 188.429 493.391 189.104C492.299 189.576 491.799 190.838 492.274 191.923C492.749 193.009 494.019 193.506 495.112 193.034C496.687 192.353 498.244 191.671 499.781 190.986ZM485.681 196.994C486.783 196.544 487.309 195.292 486.856 194.198C486.403 193.103 485.143 192.58 484.041 193.03C482.482 193.667 480.906 194.302 479.313 194.936C478.207 195.375 477.669 196.623 478.112 197.721C478.555 198.82 479.81 199.354 480.916 198.915C482.521 198.276 484.11 197.636 485.681 196.994ZM120.816 257.814C119.626 257.773 118.627 258.698 118.586 259.881C118.544 261.064 119.476 262.056 120.666 262.097C122.364 262.156 124.078 262.207 125.806 262.251C126.997 262.281 127.987 261.346 128.017 260.163C128.048 258.98 127.107 257.997 125.916 257.966C124.201 257.923 122.501 257.872 120.816 257.814ZM136.084 258.134C134.893 258.125 133.919 259.076 133.91 260.26C133.9 261.443 134.858 262.411 136.049 262.42C137.729 262.434 139.421 262.44 141.126 262.44C142.317 262.441 143.283 261.481 143.283 260.298C143.283 259.114 142.317 258.155 141.126 258.155C139.433 258.155 137.752 258.148 136.084 258.134ZM471.372 202.613C472.485 202.192 473.045 200.955 472.621 199.848C472.198 198.742 470.952 198.186 469.839 198.607C468.28 199.196 466.706 199.783 465.119 200.368C464.002 200.78 463.432 202.013 463.847 203.123C464.261 204.232 465.502 204.798 466.619 204.387C468.217 203.797 469.802 203.206 471.372 202.613ZM151.292 258.077C150.101 258.095 149.15 259.069 149.168 260.252C149.186 261.436 150.166 262.38 151.357 262.362C153.056 262.337 154.765 262.305 156.485 262.266C157.676 262.24 158.62 261.259 158.593 260.076C158.566 258.893 157.579 257.955 156.388 257.981C154.678 258.02 152.979 258.051 151.292 258.077ZM456.999 207.849C458.122 207.454 458.711 206.23 458.313 205.114C457.916 203.998 456.684 203.414 455.561 203.809C453.969 204.368 452.365 204.925 450.749 205.48C449.623 205.867 449.026 207.087 449.415 208.206C449.804 209.324 451.032 209.918 452.158 209.531C453.784 208.972 455.398 208.412 456.999 207.849ZM166.538 257.685C165.347 257.728 164.417 258.721 164.46 259.904C164.503 261.087 165.503 262.011 166.694 261.968C168.395 261.907 170.105 261.84 171.825 261.767C173.015 261.716 173.939 260.717 173.888 259.534C173.837 258.352 172.831 257.434 171.641 257.485C169.93 257.558 168.229 257.624 166.538 257.685ZM442.483 212.779C443.614 212.408 444.228 211.196 443.854 210.072C443.48 208.948 442.26 208.338 441.129 208.71C439.522 209.237 437.904 209.763 436.275 210.286C435.141 210.649 434.519 211.857 434.885 212.984C435.252 214.11 436.467 214.728 437.601 214.364C439.239 213.838 440.866 213.31 442.483 212.779ZM181.797 256.989C180.607 257.055 179.696 258.066 179.762 259.247C179.828 260.429 180.846 261.334 182.035 261.269C183.72 261.176 185.414 261.078 187.116 260.974C188.305 260.902 189.21 259.885 189.137 258.704C189.064 257.523 188.041 256.624 186.852 256.696C185.159 256.799 183.473 256.897 181.797 256.989ZM427.854 217.425C428.992 217.075 429.629 215.875 429.277 214.745C428.925 213.614 427.718 212.981 426.58 213.331C424.975 213.824 423.361 214.314 421.737 214.803C420.597 215.146 419.953 216.342 420.298 217.475C420.643 218.607 421.847 219.248 422.987 218.905C424.619 218.414 426.242 217.921 427.854 217.425ZM197.017 256.017C195.829 256.103 194.936 257.13 195.023 258.31C195.109 259.491 196.143 260.378 197.331 260.291C199.015 260.169 200.706 260.042 202.404 259.909C203.592 259.816 204.479 258.784 204.385 257.605C204.292 256.425 203.253 255.544 202.066 255.636C200.376 255.769 198.692 255.895 197.017 256.017ZM413.171 221.795C414.315 221.465 414.974 220.276 414.642 219.14C414.31 218.003 413.114 217.349 411.969 217.679C410.356 218.144 408.733 218.607 407.102 219.067C405.956 219.39 405.291 220.575 405.617 221.714C405.942 222.852 407.135 223.513 408.281 223.19C409.919 222.727 411.55 222.262 413.171 221.795ZM212.209 254.788C211.023 254.893 210.147 255.935 210.254 257.113C210.36 258.292 211.408 259.162 212.595 259.056C214.283 258.906 215.978 258.75 217.679 258.59C218.865 258.478 219.735 257.432 219.622 256.254C219.51 255.076 218.457 254.211 217.271 254.323C215.578 254.483 213.89 254.638 212.209 254.788ZM398.428 225.912C399.578 225.601 400.256 224.423 399.943 223.281C399.63 222.139 398.444 221.465 397.295 221.776C395.667 222.217 394.03 222.655 392.386 223.09C391.235 223.395 390.551 224.569 390.858 225.713C391.165 226.856 392.347 227.536 393.498 227.231C395.149 226.794 396.792 226.354 398.428 225.912ZM227.391 253.315C226.207 253.439 225.348 254.494 225.473 255.671C225.598 256.848 226.659 257.701 227.844 257.577C229.535 257.4 231.232 257.218 232.934 257.031C234.118 256.901 234.972 255.842 234.841 254.665C234.71 253.489 233.644 252.641 232.46 252.771C230.765 252.957 229.075 253.138 227.391 253.315ZM383.613 229.795C384.767 229.502 385.464 228.334 385.169 227.188C384.874 226.041 383.699 225.349 382.545 225.642C380.905 226.059 379.257 226.472 377.603 226.884C376.447 227.171 375.745 228.334 376.034 229.482C376.323 230.631 377.494 231.328 378.65 231.041C380.311 230.628 381.966 230.213 383.613 229.795ZM242.556 251.611C241.373 251.753 240.53 252.82 240.673 253.995C240.815 255.17 241.89 256.008 243.072 255.866C244.764 255.663 246.461 255.456 248.163 255.244C249.345 255.096 250.182 254.025 250.034 252.85C249.886 251.676 248.807 250.844 247.625 250.991C245.931 251.203 244.241 251.409 242.556 251.611ZM368.737 233.453C369.895 233.177 370.609 232.021 370.331 230.87C370.054 229.719 368.89 229.009 367.731 229.285C366.081 229.678 364.424 230.068 362.761 230.456C361.602 230.726 360.882 231.879 361.154 233.031C361.426 234.184 362.586 234.899 363.746 234.628C365.416 234.239 367.079 233.848 368.737 233.453ZM257.697 249.686C256.517 249.845 255.689 250.924 255.849 252.097C256.009 253.27 257.095 254.092 258.275 253.933C259.966 253.706 261.661 253.474 263.361 253.238C264.54 253.074 265.363 251.991 265.197 250.819C265.032 249.646 263.942 248.829 262.762 248.993C261.07 249.229 259.381 249.46 257.697 249.686ZM353.806 236.895C354.968 236.636 355.699 235.489 355.438 234.335C355.177 233.18 354.024 232.454 352.861 232.713C351.203 233.083 349.539 233.45 347.87 233.814C346.707 234.068 345.97 235.211 346.226 236.367C346.481 237.522 347.632 238.254 348.795 238C350.471 237.635 352.141 237.266 353.806 236.895ZM272.811 247.548C271.633 247.723 270.821 248.814 270.997 249.984C271.173 251.155 272.271 251.962 273.449 251.787C275.133 251.537 276.821 251.282 278.513 251.023C279.69 250.843 280.497 249.748 280.316 248.579C280.134 247.409 279.033 246.607 277.855 246.787C276.17 247.045 274.489 247.299 272.811 247.548ZM338.828 240.126C339.994 239.883 340.741 238.747 340.496 237.589C340.252 236.43 339.108 235.688 337.942 235.931C336.282 236.278 334.617 236.621 332.947 236.961C331.78 237.199 331.028 238.332 331.268 239.491C331.507 240.65 332.647 241.397 333.814 241.16C335.49 240.818 337.162 240.473 338.828 240.126ZM287.895 245.203C286.719 245.394 285.922 246.496 286.114 247.664C286.306 248.832 287.415 249.624 288.59 249.433C290.269 249.16 291.95 248.883 293.635 248.602C294.81 248.406 295.602 247.301 295.405 246.134C295.207 244.966 294.095 244.179 292.92 244.375C291.242 244.656 289.567 244.932 287.895 245.203ZM323.808 243.151C324.977 242.924 325.739 241.798 325.511 240.637C325.282 239.475 324.149 238.718 322.98 238.945C321.317 239.269 319.65 239.589 317.979 239.906C316.809 240.128 316.041 241.25 316.265 242.413C316.488 243.575 317.618 244.338 318.788 244.116C320.466 243.797 322.139 243.476 323.808 243.151ZM302.945 242.656C301.772 242.862 300.989 243.974 301.197 245.14C301.405 246.305 302.525 247.082 303.697 246.876C304.539 246.728 305.381 246.579 306.224 246.428C307.067 246.278 307.909 246.127 308.75 245.975C309.921 245.763 310.699 244.648 310.486 243.483C310.273 242.319 309.15 241.546 307.978 241.758C307.14 241.909 306.302 242.06 305.462 242.21C304.622 242.36 303.783 242.508 302.945 242.656Z" fill="#FEC02F"/>
</svg>
