<svg width="680" height="374" viewBox="0 0 680 374" fill="none" xmlns="http://www.w3.org/2000/svg">
<ellipse cx="85.147" cy="85.1806" rx="85.1806" ry="85.147" transform="rotate(90 85.147 85.1806)" fill="#FEC02F"/>
<g style="mix-blend-mode:multiply">
<path d="M129 85C129 108.718 109.555 128 85.5 128C61.445 128 42 108.718 42 85C42 61.2822 61.445 42 85.5 42C109.555 42 129 61.2822 129 85Z" stroke="#8B6339" stroke-width="6"/>
</g>
<ellipse cx="368.744" cy="123.489" rx="85.1806" ry="85.6024" transform="rotate(90 368.744 123.489)" fill="#FF8000"/>
<g style="mix-blend-mode:multiply">
<path fill-rule="evenodd" clip-rule="evenodd" d="M454.345 123.836L368.513 38.8783L283.141 123.379C283.141 123.416 283.141 123.452 283.141 123.489C283.141 126.175 283.266 128.833 283.511 131.456L368.513 47.32L453.937 131.873C454.196 129.228 454.335 126.547 454.345 123.836ZM445.879 160.472L368.513 83.8948L291.459 160.163C292.367 162.052 293.342 163.903 294.381 165.712L368.513 92.3365L442.938 166.003C443.984 164.2 444.965 162.355 445.879 160.472ZM426.627 186.245L368.703 128.911L310.818 186.206C312.298 187.56 313.827 188.863 315.4 190.113L368.703 137.353L422.042 190.148C423.617 188.9 425.146 187.598 426.627 186.245ZM398.471 203.393L368.703 173.928L338.957 203.371C341.059 204.147 343.201 204.844 345.377 205.457L368.703 182.369L392.047 205.475C394.225 204.863 396.368 204.168 398.471 203.393Z" fill="#844300"/>
</g>
<ellipse cx="228.192" cy="288.819" rx="85.1806" ry="85.6024" transform="rotate(90 228.192 288.819)" fill="#004ABC"/>
<g style="mix-blend-mode:multiply">
<path fill-rule="evenodd" clip-rule="evenodd" d="M147.006 315.899C147.696 317.949 148.462 319.964 149.302 321.942C158.355 313.365 169.49 306.455 181.748 306.455C196.777 306.455 208.687 316.771 220.908 328.183C221.453 328.692 221.999 329.203 222.546 329.715L222.569 329.737C227.993 334.816 233.499 339.972 239.197 343.944C245.512 348.346 252.375 351.525 260.065 351.525C267.76 351.525 274.573 348.343 280.727 343.918C286.851 339.515 292.581 333.686 298.065 328.09L298.247 327.903C301.825 324.253 305.299 320.707 308.795 317.572C309.973 314.302 310.956 310.939 311.73 307.498C311.46 307.689 311.192 307.882 310.925 308.078C305.059 312.379 299.507 318.045 294.147 323.515L294.147 323.515L293.78 323.89C288.222 329.562 282.853 335 277.224 339.047C271.624 343.073 266.03 345.525 260.065 345.525C254.095 345.525 248.436 343.07 242.628 339.021C237.307 335.312 232.122 330.46 226.627 325.316L226.626 325.315L225.745 324.491C225.498 324.26 225.251 324.029 225.003 323.797C213.091 312.674 199.503 300.455 181.748 300.455C168.23 300.455 156.373 307.497 147.006 315.899ZM311.986 271.321C312.444 273.503 312.818 275.715 313.104 277.955C308.125 281.828 303.289 286.763 298.247 291.907L298.065 292.094C292.581 297.69 286.851 303.519 280.727 307.922C274.573 312.346 267.76 315.528 260.065 315.528C252.375 315.528 245.512 312.35 239.197 307.947C233.499 303.976 227.993 298.82 222.569 293.741C222.015 293.222 221.461 292.703 220.908 292.187C208.687 280.775 196.777 270.459 181.748 270.459C166.705 270.459 153.353 280.866 143.465 291.987C143.202 292.283 142.942 292.579 142.685 292.875C142.621 291.531 142.589 290.179 142.589 288.82C142.589 287.201 142.635 285.592 142.724 283.996C152.64 273.922 166.077 264.459 181.748 264.459C199.503 264.459 213.091 276.678 225.003 287.801C225.547 288.31 226.089 288.816 226.627 289.32C232.122 294.464 237.307 299.316 242.628 303.025C248.436 307.074 254.095 309.528 260.065 309.528C266.03 309.528 271.624 307.077 277.224 303.051C282.853 299.003 288.222 293.565 293.78 287.894L294.147 287.519L294.147 287.519C299.507 282.049 305.059 276.382 310.925 272.082C311.276 271.824 311.63 271.57 311.986 271.321ZM301.253 244.409C302.335 246.167 303.354 247.968 304.308 249.807C302.306 251.769 300.294 253.823 298.247 255.911L298.065 256.098C292.581 261.693 286.851 267.523 280.727 271.926C274.573 276.35 267.76 279.532 260.065 279.532C252.375 279.532 245.512 276.354 239.197 271.951C233.499 267.98 227.993 262.824 222.569 257.745L222.567 257.742L222.555 257.732C222.005 257.217 221.456 256.703 220.908 256.19C208.687 244.779 196.777 234.463 181.748 234.463C171.757 234.463 162.512 239.053 154.533 245.394C157.275 240.798 160.44 236.481 163.973 232.495C169.479 230 175.432 228.463 181.748 228.463C199.503 228.463 213.091 240.682 225.003 251.805C225.548 252.314 226.089 252.82 226.627 253.324C232.122 258.468 237.307 263.32 242.628 267.029C248.436 271.077 254.095 273.532 260.065 273.532C266.03 273.532 271.624 271.081 277.224 267.055C282.853 263.007 288.222 257.569 293.78 251.898L294.147 251.523L294.147 251.523C296.476 249.146 298.842 246.732 301.253 244.409ZM284.715 224.847C286.224 226.169 287.686 227.542 289.098 228.965C286.384 231.486 283.599 233.865 280.727 235.93C274.573 240.354 267.76 243.536 260.065 243.536C252.375 243.536 245.512 240.357 239.197 235.955C233.499 231.984 227.993 226.828 222.569 221.749C222.015 221.229 221.461 220.711 220.908 220.194C215.645 215.28 210.44 210.569 205.018 206.797C207.538 206.094 210.105 205.502 212.714 205.028C217.046 208.429 221.114 212.178 225.003 215.809C225.546 216.316 226.085 216.821 226.621 217.323L226.627 217.328L226.627 217.328C232.122 222.472 237.307 227.324 242.628 231.033C248.436 235.081 254.095 237.536 260.065 237.536C266.03 237.536 271.624 235.085 277.224 231.058C279.76 229.235 282.243 227.129 284.715 224.847ZM240.118 373.18C235.663 369.77 231.255 365.645 226.627 361.312C226.089 360.809 225.548 360.302 225.003 359.793C213.091 348.67 199.503 336.452 181.748 336.452C174.354 336.452 167.456 338.558 161.192 341.842C162.48 343.452 163.826 345.015 165.226 346.526C170.415 343.994 175.956 342.452 181.748 342.452C196.777 342.452 208.687 352.767 220.908 364.179C221.461 364.695 222.015 365.214 222.57 365.733L222.57 365.733C225.538 368.513 228.531 371.316 231.567 373.935C234.456 373.824 237.309 373.57 240.118 373.18Z" fill="#073173"/>
</g>
<ellipse cx="539.395" cy="232.365" rx="85.1806" ry="85.147" transform="rotate(90 539.395 232.365)" fill="#007B52"/>
<g style="mix-blend-mode:multiply">
<path fill-rule="evenodd" clip-rule="evenodd" d="M541.462 317.521C540.775 317.538 540.086 317.546 539.395 317.546C537.291 317.546 535.204 317.47 533.138 317.319L624.377 227.01C624.487 228.781 624.542 230.567 624.542 232.365C624.542 233.36 624.525 234.352 624.491 235.338L541.462 317.521ZM618.208 200.067L506.273 310.861C504.304 310.028 502.373 309.124 500.483 308.151L615.561 194.245C616.513 196.146 617.397 198.088 618.208 200.067ZM601.995 174.624L481.015 294.372C479.559 292.999 478.152 291.577 476.795 290.106L597.776 170.359C599.231 171.731 600.639 173.154 601.995 174.624ZM578.307 156.58L463.229 270.485C462.277 268.584 461.393 266.642 460.582 264.663L572.517 153.87C574.486 154.702 576.417 155.607 578.307 156.58ZM545.652 147.411L454.414 237.72C454.304 235.949 454.248 234.164 454.248 232.365C454.248 231.37 454.265 230.379 454.299 229.392L537.328 147.209C538.015 147.193 538.704 147.185 539.395 147.185C541.5 147.185 543.586 147.261 545.652 147.411Z" fill="#00856D"/>
</g>
<path fill-rule="evenodd" clip-rule="evenodd" d="M454.344 107.958C456.082 107.824 457.813 107.694 459.538 107.569C460.941 107.468 461.995 106.26 461.892 104.872C461.79 103.484 460.57 102.441 459.167 102.542C457.528 102.661 455.882 102.784 454.231 102.911C454.307 104.384 454.346 105.867 454.346 107.359C454.346 107.559 454.345 107.758 454.344 107.958ZM281.447 133.683C282.821 133.384 283.69 132.04 283.388 130.68C283.087 129.321 281.729 128.461 280.355 128.759C278.377 129.189 276.405 129.623 274.439 130.059C273.067 130.364 272.205 131.712 272.513 133.07C272.821 134.428 274.183 135.282 275.555 134.977C277.512 134.542 279.476 134.111 281.447 133.683ZM263.867 137.632C265.236 137.314 266.086 135.958 265.765 134.603C265.444 133.248 264.074 132.407 262.705 132.725C260.733 133.182 258.77 133.643 256.813 134.107C255.446 134.431 254.603 135.792 254.931 137.145C255.258 138.499 256.633 139.333 258 139.009C259.948 138.547 261.904 138.088 263.867 137.632ZM246.346 141.833C247.71 141.496 248.539 140.127 248.198 138.777C247.857 137.427 246.474 136.606 245.11 136.943C243.149 137.429 241.195 137.918 239.25 138.41C237.888 138.754 237.066 140.127 237.414 141.476C237.762 142.824 239.149 143.638 240.511 143.293C242.448 142.804 244.393 142.317 246.346 141.833ZM228.893 146.295C230.252 145.936 231.06 144.555 230.698 143.21C230.335 141.865 228.94 141.066 227.581 141.424C225.632 141.939 223.692 142.456 221.76 142.976C220.404 143.342 219.603 144.727 219.972 146.07C220.342 147.413 221.741 148.206 223.098 147.84C225.021 147.322 226.952 146.807 228.893 146.295ZM211.52 151.027C212.873 150.646 213.658 149.253 213.274 147.914C212.89 146.575 211.482 145.798 210.129 146.178C208.195 146.722 206.27 147.269 204.356 147.818C203.005 148.206 202.228 149.604 202.619 150.941C203.011 152.278 204.424 153.047 205.774 152.659C207.679 152.112 209.595 151.568 211.52 151.027ZM471.226 101.74C469.823 101.825 468.755 103.02 468.841 104.409C468.927 105.799 470.135 106.856 471.538 106.771C473.537 106.649 475.527 106.534 477.506 106.426C478.91 106.349 479.986 105.16 479.908 103.77C479.83 102.38 478.629 101.316 477.225 101.393C475.235 101.502 473.235 101.618 471.226 101.74ZM194.243 156.042C195.589 155.638 196.349 154.231 195.942 152.899C195.535 151.567 194.113 150.814 192.767 151.217C190.841 151.795 188.925 152.375 187.021 152.958C185.678 153.369 184.926 154.78 185.341 156.11C185.757 157.44 187.183 158.184 188.526 157.773C190.42 157.193 192.326 156.616 194.243 156.042ZM177.081 161.354C178.419 160.926 179.153 159.506 178.721 158.181C178.288 156.857 176.853 156.13 175.515 156.558C173.581 157.176 171.66 157.798 169.752 158.422C168.417 158.858 167.692 160.284 168.133 161.605C168.574 162.927 170.014 163.644 171.349 163.208C173.247 162.587 175.157 161.969 177.081 161.354ZM489.278 100.807C487.873 100.867 486.783 102.042 486.843 103.433C486.903 104.824 488.091 105.903 489.496 105.843C491.515 105.758 493.523 105.679 495.52 105.608C496.926 105.557 498.024 104.389 497.973 102.998C497.922 101.607 496.742 100.52 495.336 100.57C493.328 100.642 491.309 100.721 489.278 100.807ZM507.388 100.22C505.982 100.251 504.868 101.405 504.9 102.796C504.931 104.188 506.096 105.29 507.502 105.259C509.521 105.214 511.526 105.177 513.519 105.147C514.925 105.126 516.048 103.98 516.026 102.588C516.005 101.197 514.848 100.086 513.441 100.107C511.437 100.137 509.419 100.175 507.388 100.22ZM159.993 167.006C161.322 166.551 162.027 165.116 161.568 163.801C161.108 162.485 159.659 161.787 158.329 162.242C156.41 162.899 154.504 163.558 152.614 164.22C151.288 164.684 150.594 166.124 151.063 167.436C151.532 168.749 152.987 169.436 154.313 168.972C156.191 168.314 158.085 167.659 159.993 167.006ZM525.52 100.015C524.114 100.015 522.974 101.143 522.974 102.535C522.974 103.927 524.114 105.055 525.52 105.055C527.519 105.056 529.503 105.063 531.473 105.079C532.879 105.091 534.028 103.971 534.039 102.579C534.051 101.188 532.92 100.05 531.514 100.039C529.531 100.023 527.533 100.015 525.52 100.015ZM143.029 173.018C144.347 172.534 145.019 171.083 144.53 169.778C144.041 168.473 142.576 167.808 141.257 168.292C139.37 168.985 137.5 169.68 135.646 170.378C134.332 170.873 133.671 172.328 134.171 173.63C134.671 174.931 136.142 175.584 137.456 175.09C139.297 174.397 141.155 173.706 143.029 173.018ZM543.606 100.238C542.2 100.202 541.031 101.302 540.996 102.693C540.96 104.085 542.07 105.241 543.476 105.277C545.501 105.328 547.508 105.387 549.497 105.456C550.902 105.504 552.081 104.416 552.13 103.025C552.179 101.634 551.08 100.467 549.674 100.418C547.669 100.349 545.646 100.289 543.606 100.238ZM126.271 179.407C127.577 178.89 128.212 177.423 127.689 176.131C127.167 174.839 125.685 174.21 124.379 174.728C122.484 175.478 120.609 176.231 118.753 176.986C117.453 177.515 116.832 178.988 117.366 180.275C117.901 181.563 119.389 182.177 120.689 181.648C122.53 180.899 124.391 180.152 126.271 179.407ZM561.749 100.953C560.345 100.876 559.144 101.941 559.067 103.331C558.989 104.721 560.065 105.909 561.469 105.986C563.477 106.095 565.463 106.214 567.428 106.342C568.831 106.434 570.044 105.382 570.136 103.993C570.229 102.604 569.167 101.404 567.763 101.313C565.779 101.183 563.774 101.063 561.749 100.953ZM109.651 186.266C110.941 185.711 111.532 184.227 110.971 182.95C110.41 181.674 108.91 181.089 107.62 181.644C105.76 182.445 103.922 183.247 102.108 184.052C100.824 184.621 100.25 186.112 100.825 187.382C101.4 188.653 102.906 189.221 104.19 188.652C105.987 187.855 107.807 187.06 109.651 186.266ZM579.818 102.242C578.417 102.117 577.18 103.139 577.053 104.525C576.927 105.911 577.959 107.137 579.36 107.262C581.383 107.443 583.379 107.635 585.349 107.838C586.748 107.982 588 106.976 588.145 105.592C588.291 104.207 587.275 102.968 585.876 102.824C583.883 102.619 581.863 102.425 579.818 102.242ZM93.326 193.622C94.5951 193.023 95.1328 191.518 94.527 190.262C93.9212 189.006 92.4014 188.474 91.1323 189.073C89.2792 189.949 87.4539 190.826 85.6571 191.705C84.3963 192.322 83.8793 193.833 84.5022 195.081C85.1251 196.329 86.6521 196.841 87.9129 196.224C89.6886 195.356 91.4931 194.488 93.326 193.622ZM597.907 104.241C596.514 104.055 595.232 105.023 595.044 106.402C594.856 107.781 595.833 109.05 597.227 109.236C599.217 109.502 601.175 109.78 603.101 110.071C604.491 110.28 605.79 109.335 606.002 107.959C606.214 106.583 605.258 105.297 603.868 105.088C601.913 104.793 599.926 104.51 597.907 104.241ZM77.2684 201.625C78.5097 200.97 78.9801 199.444 78.3192 198.216C77.6583 196.987 76.1163 196.521 74.875 197.175C73.0773 198.123 71.3134 199.072 69.5839 200.021C68.3541 200.696 67.9103 202.23 68.5924 203.448C69.2746 204.665 70.8245 205.104 72.0542 204.429C73.7574 203.494 75.4956 202.559 77.2684 201.625ZM61.7043 210.376C62.9054 209.652 63.2863 208.101 62.555 206.913C61.8237 205.724 60.2571 205.347 59.056 206.071C57.3098 207.123 55.607 208.176 53.9488 209.229C52.7652 209.981 52.4214 211.54 53.1809 212.711C53.9403 213.883 55.5154 214.223 56.6989 213.471C58.3221 212.44 59.9908 211.408 61.7043 210.376ZM615.864 107.135C614.484 106.87 613.148 107.762 612.88 109.129C612.612 110.495 613.514 111.818 614.894 112.083C616.864 112.461 618.791 112.854 620.675 113.262C622.049 113.559 623.406 112.698 623.706 111.338C624.007 109.978 623.136 108.635 621.763 108.338C619.838 107.921 617.871 107.52 615.864 107.135ZM46.8292 220.131C47.9664 219.312 48.2176 217.736 47.3904 216.61C46.5631 215.484 44.9706 215.236 43.8335 216.055C42.158 217.261 40.5429 218.467 38.9896 219.673C37.8829 220.531 37.6892 222.116 38.5569 223.211C39.4246 224.306 41.0251 224.498 42.1317 223.639C43.6342 222.473 45.2004 221.303 46.8292 220.131ZM633.645 111.255C632.291 110.878 630.885 111.66 630.505 113C630.125 114.34 630.915 115.731 632.268 116.108C634.208 116.646 636.087 117.204 637.906 117.78C639.245 118.204 640.678 117.473 641.107 116.148C641.535 114.822 640.797 113.403 639.458 112.979C637.578 112.384 635.64 111.809 633.645 111.255ZM33.1627 231.264C34.1814 230.305 34.2213 228.71 33.2519 227.701C32.2824 226.693 30.6707 226.653 29.652 227.613C28.1074 229.068 26.6566 230.522 25.303 231.975C24.3496 232.998 24.4145 234.592 25.4482 235.536C26.4818 236.48 28.0927 236.415 29.0462 235.392C30.319 234.026 31.6916 232.65 33.1627 231.264ZM651.002 117.209C649.71 116.66 648.213 117.252 647.658 118.531C647.104 119.81 647.702 121.292 648.994 121.841C650.86 122.634 652.631 123.452 654.304 124.294C655.557 124.925 657.09 124.431 657.728 123.19C658.365 121.949 657.866 120.432 656.613 119.801C654.833 118.905 652.962 118.041 651.002 117.209ZM21.9971 244.417C22.7357 243.232 22.3644 241.68 21.1677 240.948C19.9711 240.217 18.4022 240.585 17.6636 241.769C16.5033 243.63 15.5127 245.492 14.7032 247.354C14.1473 248.633 14.7438 250.115 16.0355 250.666C17.3273 251.216 18.825 250.625 19.3809 249.347C20.0819 247.734 20.9534 246.09 21.9971 244.417ZM667.217 126.354C666.108 125.498 664.508 125.694 663.643 126.791C662.778 127.888 662.976 129.472 664.084 130.328C665.651 131.538 667.046 132.78 668.269 134.05C669.24 135.057 670.852 135.095 671.869 134.135C672.887 133.174 672.925 131.579 671.955 130.571C670.542 129.104 668.959 127.699 667.217 126.354ZM17.2181 259.805C17.1605 258.414 15.9749 257.333 14.5698 257.39C13.1648 257.446 12.0723 258.62 12.1299 260.011C12.1757 261.119 12.2969 262.219 12.495 263.312C12.6931 264.404 12.9662 265.478 13.3125 266.532C13.7473 267.856 15.1839 268.58 16.5213 268.149C17.8586 267.719 18.5903 266.297 18.1555 264.973C17.8803 264.136 17.6641 263.285 17.5074 262.421C17.3507 261.557 17.2545 260.685 17.2181 259.805ZM678.815 141.552C678.38 140.228 676.944 139.504 675.606 139.934C674.269 140.364 673.537 141.786 673.972 143.11C674.247 143.948 674.464 144.799 674.62 145.663C674.777 146.527 674.873 147.399 674.91 148.279C674.967 149.67 676.153 150.751 677.558 150.694C678.963 150.637 680.055 149.464 679.998 148.073C679.952 146.965 679.831 145.864 679.633 144.772C679.435 143.68 679.161 142.606 678.815 141.552ZM23.8582 274.034C22.8877 273.026 21.276 272.989 20.2583 273.949C19.2406 274.91 19.2022 276.505 20.1727 277.512C21.5859 278.979 23.1691 280.384 24.9108 281.729C26.0195 282.586 27.6196 282.39 28.4846 281.293C29.3496 280.195 29.1521 278.611 28.0434 277.755C26.4768 276.545 25.082 275.304 23.8582 274.034ZM677.424 160.729C677.98 159.451 677.384 157.968 676.092 157.418C674.8 156.868 673.303 157.458 672.747 158.737C672.046 160.349 671.174 161.993 670.131 163.667C669.392 164.851 669.763 166.404 670.96 167.135C672.157 167.866 673.725 167.499 674.464 166.314C675.624 164.454 676.615 162.591 677.424 160.729ZM37.8236 283.79C36.5701 283.159 35.0372 283.653 34.3998 284.894C33.7623 286.134 34.2617 287.652 35.5151 288.283C37.2946 289.178 39.1658 290.042 41.1252 290.874C42.4175 291.423 43.9147 290.831 44.4693 289.552C45.0239 288.273 44.4258 286.791 43.1336 286.242C41.2675 285.45 39.4969 284.632 37.8236 283.79ZM666.825 176.109C667.778 175.086 667.713 173.492 666.68 172.548C665.646 171.604 664.035 171.668 663.081 172.691C661.809 174.057 660.436 175.434 658.965 176.819C657.946 177.779 657.906 179.374 658.876 180.382C659.845 181.391 661.457 181.43 662.476 180.471C664.02 179.016 665.471 177.561 666.825 176.109ZM54.2221 290.304C52.8828 289.879 51.4496 290.61 51.021 291.936C50.5924 293.262 51.3307 294.68 52.67 295.104C54.5499 295.7 56.4881 296.275 58.4828 296.829C59.8368 297.205 61.2424 296.424 61.6225 295.084C62.0025 293.743 61.2131 292.352 59.8591 291.976C57.92 291.437 56.0406 290.88 54.2221 290.304ZM653.138 188.411C654.245 187.552 654.438 185.968 653.571 184.873C652.703 183.777 651.103 183.586 649.996 184.444C648.493 185.61 646.927 186.78 645.299 187.953C644.161 188.772 643.91 190.348 644.737 191.474C645.565 192.599 647.157 192.848 648.294 192.029C649.97 190.823 651.585 189.616 653.138 188.411ZM71.4528 294.822C70.079 294.524 68.7218 295.386 68.4214 296.745C68.1211 298.105 68.9913 299.449 70.3651 299.746C72.2899 300.162 74.2563 300.563 76.2633 300.949C77.6438 301.214 78.9801 300.321 79.2479 298.955C79.5158 297.588 78.6138 296.266 77.2333 296.001C75.264 295.622 73.3369 295.229 71.4528 294.822ZM638.179 198.855C639.362 198.103 639.706 196.544 638.947 195.372C638.187 194.201 636.612 193.861 635.429 194.612C633.805 195.643 632.137 196.675 630.423 197.708C629.222 198.432 628.841 199.982 629.573 201.171C630.304 202.36 631.871 202.737 633.072 202.013C634.818 200.961 636.521 199.908 638.179 198.855ZM89.0268 298.013C87.6366 297.803 86.3379 298.749 86.126 300.125C85.9142 301.501 86.8694 302.786 88.2596 302.996C90.2148 303.291 92.202 303.573 94.2204 303.843C95.614 304.029 96.8961 303.061 97.0841 301.682C97.272 300.302 96.2946 299.033 94.9009 298.847C92.9105 298.582 90.9522 298.303 89.0268 298.013ZM622.544 208.062C623.773 207.387 624.217 205.853 623.535 204.636C622.853 203.419 621.303 202.979 620.073 203.655C618.37 204.59 616.632 205.525 614.859 206.459C613.618 207.113 613.148 208.639 613.808 209.868C614.469 211.097 616.011 211.562 617.253 210.908C619.05 209.961 620.814 209.012 622.544 208.062ZM106.778 300.246C105.38 300.102 104.128 301.107 103.982 302.492C103.837 303.876 104.853 305.115 106.252 305.259C108.245 305.465 110.265 305.659 112.31 305.842C113.71 305.967 114.948 304.945 115.075 303.558C115.201 302.172 114.168 300.947 112.768 300.822C110.745 300.641 108.748 300.449 106.778 300.246ZM606.471 216.379C607.731 215.762 608.248 214.251 607.625 213.003C607.003 211.755 605.476 211.243 604.215 211.86C602.439 212.728 600.635 213.595 598.802 214.461C597.533 215.061 596.995 216.565 597.601 217.821C598.206 219.077 599.726 219.61 600.995 219.01C602.849 218.135 604.674 217.257 606.471 216.379ZM124.7 301.741C123.297 301.65 122.084 302.701 121.991 304.09C121.899 305.479 122.961 306.679 124.364 306.771C126.348 306.901 128.353 307.021 130.379 307.131C131.783 307.207 132.984 306.143 133.061 304.753C133.138 303.363 132.063 302.174 130.659 302.098C128.651 301.989 126.665 301.87 124.7 301.741ZM590.02 224.032C591.303 223.463 591.878 221.972 591.303 220.701C590.728 219.431 589.221 218.862 587.938 219.431C586.141 220.228 584.32 221.024 582.477 221.817C581.187 222.372 580.596 223.857 581.157 225.133C581.718 226.41 583.218 226.995 584.507 226.44C586.368 225.639 588.205 224.836 590.02 224.032ZM573.374 231.097C574.675 230.568 575.296 229.096 574.761 227.808C574.227 226.521 572.739 225.906 571.438 226.435C569.598 227.184 567.737 227.931 565.856 228.676C564.551 229.193 563.916 230.66 564.438 231.953C564.961 233.245 566.443 233.873 567.748 233.356C569.643 232.605 571.519 231.853 573.374 231.097ZM142.631 302.628C141.225 302.579 140.046 303.668 139.997 305.059C139.948 306.45 141.048 307.617 142.453 307.665C144.459 307.734 146.481 307.794 148.522 307.846C149.928 307.881 151.096 306.782 151.132 305.39C151.168 303.999 150.057 302.842 148.651 302.807C146.627 302.756 144.619 302.696 142.631 302.628ZM160.655 303.004C159.249 302.993 158.1 304.112 158.088 305.504C158.077 306.896 159.208 308.034 160.614 308.045C162.597 308.061 164.595 308.069 166.607 308.069C168.014 308.069 169.154 306.94 169.154 305.549C169.154 304.157 168.014 303.028 166.608 303.028C164.609 303.028 162.624 303.02 160.655 303.004ZM556.481 237.706C557.796 237.211 558.456 235.755 557.956 234.454C557.457 233.153 555.986 232.499 554.672 232.994C552.831 233.687 550.973 234.377 549.099 235.066C547.78 235.55 547.108 237 547.597 238.305C548.087 239.61 549.552 240.276 550.87 239.791C552.757 239.098 554.628 238.403 556.481 237.706ZM178.609 302.937C177.203 302.958 176.08 304.103 176.102 305.495C176.123 306.887 177.28 307.998 178.686 307.977C180.691 307.947 182.709 307.909 184.74 307.864C186.146 307.833 187.26 306.679 187.228 305.288C187.197 303.896 186.031 302.793 184.625 302.824C182.607 302.869 180.601 302.907 178.609 302.937ZM539.513 243.864C540.839 243.399 541.534 241.959 541.065 240.647C540.596 239.335 539.141 238.647 537.815 239.112C535.937 239.769 534.043 240.425 532.135 241.078C530.806 241.532 530.1 242.967 530.56 244.283C531.019 245.599 532.469 246.296 533.798 245.842C535.718 245.185 537.623 244.526 539.513 243.864ZM196.607 302.476C195.202 302.526 194.104 303.695 194.155 305.086C194.206 306.477 195.386 307.563 196.791 307.513C198.8 307.441 200.819 307.362 202.85 307.276C204.255 307.217 205.345 306.041 205.285 304.651C205.225 303.26 204.037 302.181 202.632 302.24C200.613 302.326 198.604 302.404 196.607 302.476ZM522.376 249.662C523.711 249.225 524.436 247.8 523.995 246.478C523.554 245.157 522.114 244.439 520.778 244.876C518.881 245.496 516.97 246.114 515.047 246.729C513.709 247.157 512.975 248.578 513.407 249.902C513.839 251.227 515.275 251.954 516.613 251.526C518.547 250.907 520.468 250.286 522.376 249.662ZM214.621 301.658C213.217 301.735 212.142 302.924 212.22 304.313C212.297 305.703 213.499 306.767 214.903 306.691C216.893 306.582 218.892 306.466 220.901 306.344C222.305 306.259 223.373 305.063 223.287 303.674C223.201 302.285 221.993 301.228 220.589 301.313C218.59 301.434 216.601 301.549 214.621 301.658ZM505.106 255.126C506.45 254.715 507.202 253.303 506.786 251.974C506.371 250.644 504.945 249.899 503.601 250.311C501.707 250.89 499.802 251.468 497.885 252.042C496.539 252.445 495.778 253.852 496.186 255.184C496.593 256.517 498.015 257.27 499.36 256.866C501.287 256.289 503.202 255.709 505.106 255.126ZM232.59 300.514C231.187 300.616 230.133 301.823 230.236 303.211C230.338 304.6 231.558 305.643 232.961 305.541C234.949 305.398 236.945 305.248 238.95 305.091C240.352 304.982 241.399 303.769 241.289 302.381C241.178 300.994 239.952 299.957 238.551 300.066C236.555 300.222 234.568 300.371 232.59 300.514ZM487.772 260.265C489.123 259.878 489.9 258.48 489.508 257.143C489.116 255.806 487.704 255.037 486.353 255.424C484.448 255.971 482.533 256.516 480.607 257.057C479.255 257.437 478.469 258.831 478.854 260.17C479.238 261.509 480.646 262.286 481.999 261.906C483.933 261.362 485.858 260.815 487.772 260.265ZM250.525 299.068C249.125 299.193 248.091 300.417 248.217 301.804C248.342 303.19 249.579 304.213 250.98 304.089C252.974 303.912 254.975 303.729 256.983 303.54C258.383 303.408 259.41 302.178 259.277 300.792C259.144 299.407 257.901 298.39 256.501 298.522C254.502 298.71 252.51 298.892 250.525 299.068ZM470.367 265.107C471.724 264.742 472.525 263.356 472.155 262.013C471.786 260.67 470.386 259.878 469.03 260.244C467.107 260.762 465.175 261.277 463.235 261.789C461.876 262.147 461.068 263.528 461.43 264.873C461.792 266.218 463.187 267.018 464.546 266.659C466.496 266.145 468.436 265.628 470.367 265.107ZM268.449 297.336C267.05 297.482 266.036 298.723 266.184 300.107C266.331 301.491 267.584 302.495 268.983 302.349C270.979 302.14 272.982 301.926 274.992 301.706C276.39 301.553 277.397 300.308 277.243 298.924C277.088 297.541 275.83 296.543 274.432 296.696C272.431 296.915 270.437 297.129 268.449 297.336ZM452.877 269.674C454.24 269.329 455.062 267.957 454.714 266.608C454.366 265.259 452.979 264.446 451.617 264.79C449.68 265.28 447.735 265.767 445.782 266.25C444.418 266.588 443.588 267.956 443.929 269.307C444.271 270.657 445.653 271.478 447.017 271.14C448.979 270.655 450.932 270.166 452.877 269.674ZM286.351 295.332C284.955 295.499 283.96 296.754 284.128 298.136C284.297 299.518 285.565 300.503 286.961 300.337C288.958 300.098 290.961 299.854 292.97 299.604C294.366 299.431 295.355 298.171 295.18 296.79C295.004 295.409 293.731 294.43 292.336 294.603C290.335 294.852 288.34 295.095 286.351 295.332ZM435.314 273.977C436.682 273.652 437.525 272.292 437.197 270.938C436.869 269.585 435.495 268.75 434.128 269.075C432.179 269.537 430.224 269.996 428.26 270.452C426.891 270.769 426.042 272.126 426.363 273.481C426.684 274.836 428.054 275.677 429.423 275.359C431.394 274.901 433.358 274.441 435.314 273.977ZM304.226 293.068C302.833 293.255 301.856 294.524 302.044 295.904C302.233 297.283 303.515 298.25 304.909 298.063C306.905 297.796 308.906 297.524 310.912 297.246C312.305 297.053 313.276 295.779 313.081 294.4C312.886 293.022 311.599 292.061 310.206 292.254C308.208 292.531 306.214 292.802 304.226 293.068ZM417.688 278.024C419.06 277.719 419.923 276.371 419.615 275.013C419.307 273.655 417.945 272.801 416.573 273.106C414.616 273.541 412.651 273.973 410.68 274.401C409.307 274.7 408.438 276.044 408.739 277.403C409.041 278.763 410.399 279.623 411.772 279.324C413.751 278.894 415.723 278.461 417.688 278.024ZM322.069 290.554C320.679 290.76 319.72 292.042 319.928 293.419C320.135 294.796 321.431 295.745 322.822 295.539C324.81 295.245 326.803 294.945 328.8 294.641C330.19 294.428 331.143 293.141 330.929 291.766C330.714 290.39 329.414 289.447 328.024 289.659C326.035 289.962 324.05 290.261 322.069 290.554ZM400.006 281.825C401.383 281.539 402.264 280.203 401.975 278.84C401.687 277.478 400.337 276.606 398.96 276.891C397.001 277.299 395.035 277.702 393.063 278.102C391.685 278.382 390.798 279.714 391.08 281.078C391.363 282.441 392.708 283.32 394.086 283.04C396.065 282.638 398.039 282.233 400.006 281.825ZM339.876 287.796C338.488 288.02 337.547 289.316 337.774 290.69C338.001 292.063 339.31 292.995 340.698 292.77C342.679 292.45 344.664 292.124 346.653 291.793C348.04 291.563 348.975 290.263 348.742 288.89C348.509 287.517 347.196 286.592 345.809 286.822C343.828 287.152 341.85 287.476 339.876 287.796ZM382.274 285.383C383.654 285.116 384.554 283.791 384.284 282.425C384.014 281.059 382.676 280.169 381.296 280.436C379.334 280.816 377.365 281.193 375.392 281.566C374.011 281.827 373.105 283.147 373.369 284.514C373.632 285.882 374.966 286.778 376.347 286.517C378.328 286.142 380.304 285.764 382.274 285.383ZM357.644 284.8C356.259 285.043 355.335 286.351 355.581 287.721C355.826 289.092 357.147 290.006 358.532 289.763C359.526 289.589 360.52 289.413 361.515 289.237C362.51 289.06 363.504 288.882 364.496 288.703C365.88 288.455 366.798 287.143 366.546 285.773C366.295 284.404 364.969 283.495 363.586 283.744C362.597 283.922 361.607 284.099 360.615 284.275C359.624 284.452 358.633 284.626 357.644 284.8Z" fill="#FEC02F"/>
</svg>
