<svg width="259" height="261" viewBox="0 0 259 261" fill="none" xmlns="http://www.w3.org/2000/svg">
<g clip-path="url(#clip0_893_13329)">
<path d="M129.91 206.09C122.146 206.096 114.497 204.211 107.624 200.6C100.751 196.988 94.8599 191.758 90.4601 185.36C84.9378 193.28 81.9843 202.706 82.0001 212.36C82.025 218.627 83.284 224.827 85.7053 230.606C88.1267 236.386 91.6628 241.632 96.1118 246.044C100.561 250.457 105.835 253.95 111.635 256.324C117.434 258.698 123.644 259.907 129.91 259.88C136.176 259.907 142.385 258.698 148.184 256.324C153.983 253.95 159.257 250.457 163.705 246.044C168.153 241.631 171.688 236.385 174.108 230.605C176.529 224.826 177.786 218.626 177.81 212.36C177.826 202.706 174.872 193.28 169.35 185.36C164.951 191.756 159.062 196.986 152.191 200.597C145.319 204.209 137.673 206.094 129.91 206.09Z" fill="#007762"/>
<path d="M129.91 151.56C122.164 151.565 114.533 149.689 107.672 146.094C100.811 142.499 94.9248 137.292 90.5201 130.92C84.9596 138.922 81.986 148.436 82 158.18C81.986 167.89 84.9376 177.373 90.4601 185.36C94.8897 179.006 100.791 173.818 107.661 170.239C114.531 166.661 122.164 164.798 129.91 164.81C137.654 164.8 145.286 166.663 152.154 170.242C159.021 173.82 164.921 179.007 169.35 185.36C174.872 177.373 177.824 167.89 177.81 158.18C177.824 148.436 174.85 138.922 169.29 130.92C164.887 137.291 159.003 142.497 152.143 146.093C145.284 149.688 137.654 151.564 129.91 151.56V151.56Z" fill="#FF8000"/>
<path d="M129.91 164.81C122.164 164.798 114.53 166.661 107.661 170.239C100.791 173.818 94.8896 179.005 90.46 185.36C94.8598 191.757 100.751 196.987 107.624 200.599C114.497 204.21 122.146 206.095 129.91 206.09C137.673 206.093 145.319 204.208 152.191 200.596C159.062 196.985 164.951 191.756 169.35 185.36C164.921 179.007 159.021 173.82 152.153 170.241C145.286 166.663 137.654 164.799 129.91 164.81Z" fill="#003600"/>
<path d="M169.35 76.4804C164.918 82.8277 159.017 88.0089 152.149 91.582C145.282 95.155 137.652 97.0141 129.91 97.0004C122.163 97.0112 114.529 95.1468 107.659 91.5665C100.79 87.9863 94.8887 82.7965 90.4601 76.4404C84.9299 84.4386 81.9779 93.9366 82.0001 103.66C81.9861 113.404 84.9597 122.919 90.5201 130.92C94.9249 124.549 100.811 119.342 107.672 115.747C114.533 112.151 122.164 110.276 129.91 110.28C137.655 110.276 145.284 112.153 152.144 115.748C159.003 119.343 164.887 124.55 169.29 130.92C174.851 122.919 177.824 113.404 177.81 103.66C177.824 93.9503 174.873 84.4673 169.35 76.4804V76.4804Z" fill="#004ABC"/>
<path d="M129.91 55.7504C137.673 55.7467 145.32 57.632 152.191 61.2436C159.062 64.8552 164.951 70.0846 169.35 76.4804C174.877 68.5631 177.83 59.1358 177.81 49.4804C177.752 36.833 172.673 24.7265 163.691 15.8228C154.708 6.91913 142.558 1.94726 129.91 2.00042C123.644 1.9741 117.434 3.18245 111.635 5.55644C105.836 7.93043 100.561 11.4236 96.1118 15.8363C91.6628 20.2491 88.1267 25.4951 85.7054 31.2747C83.2841 37.0543 82.025 43.2542 82.0001 49.5204C81.9798 59.1758 84.9337 68.603 90.4601 76.5204C94.8555 70.1158 100.744 64.8777 107.618 61.259C114.491 57.6402 122.142 55.7496 129.91 55.7504V55.7504Z" fill="#FEC02F"/>
<path d="M129.91 97C137.655 97.0091 145.287 95.144 152.155 91.5638C159.023 87.9836 164.922 82.7947 169.35 76.44C164.951 70.0441 159.062 64.8147 152.191 61.2031C145.319 57.5916 137.673 55.7063 129.91 55.71C122.146 55.7046 114.497 57.5892 107.624 61.2008C100.751 64.8125 94.8598 70.0427 90.46 76.44C94.8885 82.796 100.79 87.9858 107.659 91.5661C114.529 95.1464 122.163 97.0107 129.91 97V97Z" fill="#00321F"/>
<path d="M129.91 151.29C137.655 151.299 145.287 149.434 152.155 145.854C159.023 142.274 164.922 137.085 169.35 130.73C164.951 124.334 159.062 119.105 152.191 115.493C145.319 111.882 137.673 109.996 129.91 110C122.146 109.995 114.497 111.879 107.624 115.491C100.751 119.103 94.8598 124.333 90.46 130.73C94.8885 137.086 100.79 142.276 107.659 145.856C114.529 149.436 122.163 151.301 129.91 151.29V151.29Z" fill="#002100"/>
</g>
<defs>
<clipPath id="clip0_893_13329">
<rect width="95.81" height="257.84" fill="white" transform="translate(82 2)"/>
</clipPath>
</defs>
</svg>
