<svg width="144" height="142" viewBox="0 0 144 142" fill="none" xmlns="http://www.w3.org/2000/svg">
<path d="M115.527 114.266C84.5648 144.219 46.094 150.136 32.1541 129.52C19.8219 111.307 31.4836 78.9322 56.685 55.517C81.4826 32.5012 114.186 23.0012 131.885 35.1785C151.853 48.8127 145.955 84.8193 115.527 114.266Z" fill="#B28621"/>
<path d="M111.104 109.706C80.1419 139.678 41.6711 145.576 27.7312 124.96C15.3991 106.763 27.0607 74.3838 52.2622 50.9649C77.0598 27.9527 109.763 18.4528 127.463 30.6263C147.563 44.4085 141.532 80.404 111.104 109.706Z" fill="#FEC02F"/>
<path d="M98.1015 96.7265C79.4718 114.525 56.1485 118.94 46.7651 107.029C38.1856 96.0572 45.024 75.3193 61.3755 60.0654C77.5936 44.9446 98.6387 39.1906 109.496 47.755C121.158 56.8556 116.468 79.0653 98.1015 96.7265Z" fill="#FF8000"/>
<path d="M86.1732 84.8189C78.8014 91.7747 69.418 93.7826 65.3986 89.3673C61.509 85.0851 64.0576 76.3876 71.0257 69.8312C77.9938 63.2748 86.9771 61.1337 91.2668 65.0239C95.69 68.8957 93.5451 77.8594 86.1732 84.8189Z" fill="#004ABC"/>
<path d="M38.5893 39.8601C37.9126 40.486 37.1187 40.9723 36.2532 41.2911C35.3877 41.6099 34.4677 41.7549 33.5459 41.7178C32.6241 41.6807 31.7188 41.4622 30.8818 41.0748C30.0448 40.6875 29.2928 40.139 28.6687 39.4607L4.80833 9.086C4.21591 8.32098 3.9292 7.36359 4.0038 6.39951C4.07841 5.43544 4.50902 4.53337 5.21212 3.86824C5.92851 3.22173 6.85986 2.86377 7.82561 2.86377C8.79137 2.86377 9.72272 3.22173 10.4391 3.86824L38.856 29.9534C39.5218 30.6042 40.0459 31.3852 40.3955 32.2475C40.745 33.1098 40.9125 34.0349 40.8875 34.9648C40.8625 35.8947 40.6454 36.8094 40.25 37.6518C39.8545 38.4941 39.2892 39.2459 38.5893 39.8601Z" fill="#F9F9FA"/>
<path d="M10.3056 14.8397L2.66698 15.901C0.522096 16.1709 -0.296591 18.8593 1.32596 20.1832C6.02083 24.3152 11.7771 27.0583 17.9479 28.1041L21.8338 28.7734C21.935 28.7922 22.0395 28.7809 22.1343 28.741C22.2291 28.7011 22.3101 28.6343 22.3673 28.5489C22.4245 28.4635 22.4553 28.3632 22.456 28.2605C22.4566 28.1578 22.4271 28.0571 22.371 27.971L12.7172 15.7753C12.4204 15.437 12.0461 15.1753 11.6263 15.0124C11.2064 14.8495 10.7533 14.7902 10.3056 14.8397Z" fill="#FF8000"/>
<path d="M15.9365 9.7551L17.6739 2.26312C17.7752 1.79443 18.0102 1.36501 18.3505 1.02664C18.6908 0.68827 19.1219 0.455399 19.5918 0.356111C20.0617 0.256823 20.5503 0.295358 20.9988 0.467068C21.4472 0.638779 21.8364 0.936333 22.1192 1.32385C25.8836 6.2989 28.1549 12.239 28.6687 18.4526L28.9391 22.3317C28.9368 22.4243 28.9093 22.5145 28.8596 22.5927C28.8098 22.6709 28.7397 22.7341 28.6567 22.7755C28.5737 22.8169 28.481 22.835 28.3885 22.8279C28.296 22.8207 28.2072 22.7885 28.1316 22.7348L16.7404 12.2956C15.9365 11.4931 15.6661 10.5575 15.9365 9.7551Z" fill="#FF8000"/>
<path d="M37.5146 38.6582L45.1569 46.8195" stroke="#F9F9FA" stroke-width="3.51" stroke-linecap="round" stroke-linejoin="round"/>
</svg>
